<?xml version="1.0" encoding="utf-8" standalone="no"?>
<!DOCTYPE svg PUBLIC "-//W3C//DTD SVG 1.1//EN"
  "http://www.w3.org/Graphics/SVG/1.1/DTD/svg11.dtd">
<svg xmlns:xlink="http://www.w3.org/1999/xlink" width="417.163769pt" height="124.848pt" viewBox="0 0 417.163769 124.848" xmlns="http://www.w3.org/2000/svg" version="1.1">
 <metadata>
  <rdf:RDF xmlns:dc="http://purl.org/dc/elements/1.1/" xmlns:cc="http://creativecommons.org/ns#" xmlns:rdf="http://www.w3.org/1999/02/22-rdf-syntax-ns#">
   <cc:Work>
    <dc:type rdf:resource="http://purl.org/dc/dcmitype/StillImage"/>
    <dc:date>2026-03-31T00:45:38.786760</dc:date>
    <dc:format>image/svg+xml</dc:format>
    <dc:creator>
     <cc:Agent>
      <dc:title>Matplotlib v3.9.4, https://matplotlib.org/</dc:title>
     </cc:Agent>
    </dc:creator>
   </cc:Work>
  </rdf:RDF>
 </metadata>
 <defs>
  <style type="text/css">*{stroke-linejoin: round; stroke-linecap: butt}</style>
 </defs>
 <g id="figure_1">
  <g id="patch_1">
   <path d="M 0 124.848 
L 417.163769 124.848 
L 417.163769 0 
L 0 0 
z
" style="fill: #ffffff"/>
  </g>
  <g id="axes_1">
   <g id="patch_2">
    <path d="M 9.506821 95.457 
L 63.443101 95.457 
Q 65.440741 95.457 65.440741 92.916 
L 65.440741 16.686 
Q 65.440741 14.145 63.443101 14.145 
L 9.506821 14.145 
Q 7.509181 14.145 7.509181 16.686 
L 7.509181 92.916 
Q 7.509181 95.457 9.506821 95.457 
z
" clip-path="url(#p22395b6575)" style="fill: #d4e6f1; stroke: #2980b9; stroke-width: 1.2; stroke-linejoin: miter"/>
   </g>
   <g id="patch_3">
    <path d="M 75.428941 95.457 
L 129.365221 95.457 
Q 131.362861 95.457 131.362861 92.916 
L 131.362861 16.686 
Q 131.362861 14.145 129.365221 14.145 
L 75.428941 14.145 
Q 73.431301 14.145 73.431301 16.686 
L 73.431301 92.916 
Q 73.431301 95.457 75.428941 95.457 
z
" clip-path="url(#p22395b6575)" style="fill: #fdebd0; stroke: #e67e22; stroke-width: 1.2; stroke-linejoin: miter"/>
   </g>
   <g id="patch_4">
    <path d="M 141.351061 95.457 
L 195.287341 95.457 
Q 197.284981 95.457 197.284981 92.916 
L 197.284981 16.686 
Q 197.284981 14.145 195.287341 14.145 
L 141.351061 14.145 
Q 139.353421 14.145 139.353421 16.686 
L 139.353421 92.916 
Q 139.353421 95.457 141.351061 95.457 
z
" clip-path="url(#p22395b6575)" style="fill: #d5f5e3; stroke: #27ae60; stroke-width: 1.2; stroke-linejoin: miter"/>
   </g>
   <g id="patch_5">
    <path d="M 207.273181 95.457 
L 269.200021 95.457 
Q 271.197661 95.457 271.197661 92.916 
L 271.197661 16.686 
Q 271.197661 14.145 269.200021 14.145 
L 207.273181 14.145 
Q 205.275541 14.145 205.275541 16.686 
L 205.275541 92.916 
Q 205.275541 95.457 207.273181 95.457 
z
" clip-path="url(#p22395b6575)" style="fill: #e8daef; stroke: #8e44ad; stroke-width: 1.2; stroke-linejoin: miter"/>
   </g>
   <g id="patch_6">
    <path d="M 281.185861 95.457 
L 335.122141 95.457 
Q 337.119781 95.457 337.119781 92.916 
L 337.119781 16.686 
Q 337.119781 14.145 335.122141 14.145 
L 281.185861 14.145 
Q 279.188221 14.145 279.188221 16.686 
L 279.188221 92.916 
Q 279.188221 95.457 281.185861 95.457 
z
" clip-path="url(#p22395b6575)" style="fill: #fadbd8; stroke: #c0392b; stroke-width: 1.2; stroke-linejoin: miter"/>
   </g>
   <g id="patch_7">
    <path d="M 347.107981 95.457 
L 403.041901 95.457 
Q 405.039541 95.457 405.039541 92.916 
L 405.039541 16.686 
Q 405.039541 14.145 403.041901 14.145 
L 347.107981 14.145 
Q 345.110341 14.145 345.110341 16.686 
L 345.110341 92.916 
Q 345.110341 95.457 347.107981 95.457 
z
" clip-path="url(#p22395b6575)" style="fill: #fcf3cf; stroke: #f39c12; stroke-width: 1.2; stroke-linejoin: miter"/>
   </g>
   <g id="patch_8">
    <path d="M 65.441716 53.551 
Q 66.932673 53.551 68.42363 53.551 
L 68.42363 51.301 
Q 70.924149 53.051 73.424669 54.801 
Q 70.924149 56.551 68.42363 58.301 
L 68.42363 56.051 
Q 66.932673 56.051 65.441716 56.051 
L 65.441716 53.551 
z
" clip-path="url(#p22395b6575)" style="fill: #555555; stroke: #555555; stroke-linecap: round"/>
   </g>
   <g id="patch_9">
    <path d="M 131.363836 53.551 
Q 132.854793 53.551 134.34575 53.551 
L 134.34575 51.301 
Q 136.846269 53.051 139.346789 54.801 
Q 136.846269 56.551 134.34575 58.301 
L 134.34575 56.051 
Q 132.854793 56.051 131.363836 56.051 
L 131.363836 53.551 
z
" clip-path="url(#p22395b6575)" style="fill: #555555; stroke: #555555; stroke-linecap: round"/>
   </g>
   <g id="patch_10">
    <path d="M 197.285956 53.551 
Q 198.776913 53.551 200.26787 53.551 
L 200.26787 51.301 
Q 202.768389 53.051 205.268909 54.801 
Q 202.768389 56.551 200.26787 58.301 
L 200.26787 56.051 
Q 198.776913 56.051 197.285956 56.051 
L 197.285956 53.551 
z
" clip-path="url(#p22395b6575)" style="fill: #555555; stroke: #555555; stroke-linecap: round"/>
   </g>
   <g id="patch_11">
    <path d="M 271.198636 53.551 
Q 272.689593 53.551 274.18055 53.551 
L 274.18055 51.301 
Q 276.681069 53.051 279.181589 54.801 
Q 276.681069 56.551 274.18055 58.301 
L 274.18055 56.051 
Q 272.689593 56.051 271.198636 56.051 
L 271.198636 53.551 
z
" clip-path="url(#p22395b6575)" style="fill: #555555; stroke: #555555; stroke-linecap: round"/>
   </g>
   <g id="patch_12">
    <path d="M 337.120756 53.551 
Q 338.611713 53.551 340.10267 53.551 
L 340.10267 51.301 
Q 342.603189 53.051 345.103709 54.801 
Q 342.603189 56.551 340.10267 58.301 
L 340.10267 56.051 
Q 338.611713 56.051 337.120756 56.051 
L 337.120756 53.551 
z
" clip-path="url(#p22395b6575)" style="fill: #555555; stroke: #555555; stroke-linecap: round"/>
   </g>
   <g id="text_1">
    <text style="fill: #2980b9; font: 700 7.5px 'Times New Roman', 'Times', 'DejaVu Serif', serif; text-anchor: middle" x="36.474961" y="31.532428" transform="rotate(-0 36.474961 31.532428)">Data Acquisition</text>
   </g>
   <g id="text_2">
    <text style="fill: #333333; font: 6.5px 'Times New Roman', 'Times', 'DejaVu Serif', serif; text-anchor: middle" x="36.474961" y="43.477584" transform="rotate(-0 36.474961 43.477584)">Driving simulator</text>
   </g>
   <g id="text_3">
    <!-- $f_s = 60$ Hz -->
    <g style="fill: #333333" transform="translate(22.532461 54.644781)">
     <text>
      <tspan style="font: italic 6.5px 'STIXGeneral'" x="0" y="-0.890625">f</tspan>
      <tspan style="font: italic 4.55px 'STIXGeneral'" x="1.806992" y="0.037499999999999645">s</tspan>
      <tspan style="font: 6.5px 'STIXGeneral'" x="4.824907 10.216005 13.466005" y="-0.890625">=60</tspan>
      <tspan style="font: 6.5px 'DejaVu Serif'" x="16.716005 18.782167 24.450624" y="-0.890625"> Hz</tspan>
     </text>
    </g>
   </g>
   <g id="text_4">
    <text style="fill: #333333; font: 6.5px 'Times New Roman', 'Times', 'DejaVu Serif', serif; text-anchor: middle" x="36.474961" y="65.838384" transform="rotate(-0 36.474961 65.838384)">87 subjects</text>
   </g>
   <g id="text_5">
    <!-- 5 signals: $\delta, \dot{\delta},$ -->
    <g style="fill: #333333" transform="translate(14.147461 77.9298)">
     <text>
      <tspan style="font: 6.5px 'DejaVu Serif'" x="0 4.135498 6.20166 9.537354 11.616211 15.7771 19.963379 23.838623 25.91748 29.253174 31.443115" y="-0.8125">5 signals: </tspan>
      <tspan style="font: italic 6.5px 'STIXGeneral'" x="33.509277 39.062866" y="-0.8125">δδ</tspan>
      <tspan style="font: 6.5px 'STIXGeneral'" x="36.499268 42.052856 42.638489" y="-0.8125 -0.8125 -2.640625">,,̇</tspan>
     </text>
    </g>
   </g>
   <g id="text_6">
    <!-- $a_y, a_x, e_{\mathrm{lane}}$ -->
    <g style="fill: #333333" transform="translate(22.954961 87.730981)">
     <text>
      <tspan style="font: italic 6.5px 'STIXGeneral'" x="0 8.149675 16.29935" y="-0.90625">aae</tspan>
      <tspan style="font: italic 4.55px 'STIXGeneral'" x="3.2565 11.406175" y="0.021874999999999645">yx</tspan>
      <tspan style="font: 6.5px 'STIXGeneral'" x="5.586076 13.735751" y="-0.90625">,,</tspan>
      <tspan style="font: 4.55px 'STIXGeneral'" x="19.185352 20.450246 22.470447 24.745447" y="0.021874999999999645">lane</tspan>
     </text>
    </g>
   </g>
   <g id="text_7">
    <text style="fill: #e67e22; font: 700 7.5px 'Times New Roman', 'Times', 'DejaVu Serif', serif; text-anchor: middle" x="102.397081" y="31.532428" transform="rotate(-0 102.397081 31.532428)">Feature Engineering</text>
   </g>
   <g id="text_8">
    <text style="fill: #333333; font: 6.5px 'Times New Roman', 'Times', 'DejaVu Serif', serif; text-anchor: middle" x="102.397081" y="43.477584" transform="rotate(-0 102.397081 43.477584)">3 s window, 50% overlap</text>
   </g>
   <g id="text_9">
    <!-- 135 features $\rightarrow$ top 10 -->
    <g style="fill: #333333" transform="translate(65.022081 54.659)">
     <text>
      <tspan style="font: 6.5px 'DejaVu Serif'" x="0 4.135498 8.270996 12.406494 14.472656 16.878418 20.725098 24.600342 27.212402 31.398682 34.505859 38.352539 41.688232 51.650589 53.716751 56.328812 60.242142 64.40303 66.469193 70.604691" y="-0.6875">135 features  top 10</tspan>
      <tspan style="font: 6.5px 'STIXGeneral'" x="44.692993" y="-0.6875">→</tspan>
     </text>
    </g>
   </g>
   <g id="text_10">
    <text style="fill: #333333; font: 6.5px 'Times New Roman', 'Times', 'DejaVu Serif', serif; text-anchor: middle" x="102.397081" y="65.838384" transform="rotate(-0 102.397081 65.838384)">Spectral, PE,</text>
   </g>
   <g id="text_11">
    <text style="fill: #333333; font: 6.5px 'Times New Roman', 'Times', 'DejaVu Serif', serif; text-anchor: middle" x="102.397081" y="77.018784" transform="rotate(-0 102.397081 77.018784)">smooth/std/PE, CWT</text>
   </g>
   <g id="text_12">
    <text style="fill: #27ae60; font: 700 7.5px 'Times New Roman', 'Times', 'DejaVu Serif', serif; text-anchor: middle" x="168.319201" y="31.532428" transform="rotate(-0 168.319201 31.532428)">Domain Grouping</text>
   </g>
   <g id="text_13">
    <text style="fill: #333333; font: 6.5px 'Times New Roman', 'Times', 'DejaVu Serif', serif; text-anchor: middle" x="168.319201" y="43.477584" transform="rotate(-0 168.319201 43.477584)">MMD / DTW / Wass.</text>
   </g>
   <g id="text_14">
    <!-- KNN score ($K{=}5$) -->
    <g style="fill: #333333" transform="translate(139.719201 54.657984)">
     <text>
      <tspan style="font: 6.5px 'DejaVu Serif'" x="0 4.855957 10.543457 16.230957 18.297119 21.632812 25.273193 29.186523 32.293701 36.140381 38.206543 54.657623" y="-0.6875">KNN score ()</tspan>
      <tspan style="font: italic 6.5px 'STIXGeneral'" x="40.742432" y="-0.6875">K</tspan>
      <tspan style="font: 6.5px 'STIXGeneral'" x="46.016525 51.407623" y="-0.6875">=5</tspan>
     </text>
    </g>
   </g>
   <g id="text_15">
    <text style="fill: #333333; font: 6.5px 'Times New Roman', 'Times', 'DejaVu Serif', serif; text-anchor: middle" x="168.319201" y="65.838384" transform="rotate(-0 168.319201 65.838384)">Median split:</text>
   </g>
   <g id="text_16">
    <text style="fill: #333333; font: 6.5px 'Times New Roman', 'Times', 'DejaVu Serif', serif; text-anchor: middle" x="168.319201" y="77.018784" transform="rotate(-0 168.319201 77.018784)">44 in / 43 out</text>
   </g>
   <g id="text_17">
    <text style="fill: #8e44ad; font: 700 7.5px 'Times New Roman', 'Times', 'DejaVu Serif', serif; text-anchor: middle" x="238.236601" y="31.532428" transform="rotate(-0 238.236601 31.532428)">Factorial Design</text>
   </g>
   <g id="text_18">
    <!-- $R$ (7) $\times$ $M$ (3) -->
    <g style="fill: #333333" transform="translate(218.119101 43.477584)">
     <text>
      <tspan style="font: italic 6.5px 'STIXGeneral'" x="0 23.537262" y="-0.6875">RM</tspan>
      <tspan style="font: 6.5px 'DejaVu Serif'" x="3.971497 6.037659 8.573547 12.709045 15.244934 21.4711 28.951767 31.017929 33.553818 37.689316" y="-0.6875"> (7)   (3)</tspan>
      <tspan style="font: 6.5px 'STIXGeneral'" x="17.311096" y="-0.6875">×</tspan>
     </text>
    </g>
   </g>
   <g id="text_19">
    <!-- $\times$ $D$ (3) $\times$ $G$ (2) -->
    <g style="fill: #333333" transform="translate(214.999101 54.657984)">
     <text>
      <tspan style="font: 6.5px 'STIXGeneral'" x="0 24.258759" y="-0.6875">××</tspan>
      <tspan style="font: 6.5px 'DejaVu Serif'" x="4.160004 10.919159 12.985321 15.52121 19.656708 22.192596 28.418762 35.177917 37.24408 39.779968 43.915466" y="-0.6875">  (3)   (2)</tspan>
      <tspan style="font: italic 6.5px 'STIXGeneral'" x="6.226166 30.484924" y="-0.6875">DG</tspan>
     </text>
    </g>
   </g>
   <g id="text_20">
    <!-- = 126 cells $\times$ 12 seeds -->
    <g style="fill: #333333" transform="translate(201.154101 65.838384)">
     <text>
      <tspan style="font: 6.5px 'DejaVu Serif'" x="0 5.446289 7.512451 11.647949 15.783447 19.918945 21.985107 25.625488 29.472168 31.551025 33.629883 36.965576 43.191742 45.257904 49.393402 53.5289 55.595062 58.930756 62.777435 66.624115 70.785004" y="-0.6875">= 126 cells  12 seeds</tspan>
      <tspan style="font: 6.5px 'STIXGeneral'" x="39.031738" y="-0.6875">×</tspan>
     </text>
    </g>
   </g>
   <g id="text_21">
    <text style="fill: #333333; font: 6.5px 'Times New Roman', 'Times', 'DejaVu Serif', serif; text-anchor: middle" x="238.236601" y="77.018784" transform="rotate(-0 238.236601 77.018784)">= 1,512 observations</text>
   </g>
   <g id="text_22">
    <text style="fill: #c0392b; font: 700 7.5px 'Times New Roman', 'Times', 'DejaVu Serif', serif; text-anchor: middle" x="308.154001" y="31.532428" transform="rotate(-0 308.154001 31.532428)">Classification</text>
   </g>
   <g id="text_23">
    <text style="fill: #333333; font: 6.5px 'Times New Roman', 'Times', 'DejaVu Serif', serif; text-anchor: middle" x="308.154001" y="43.477584" transform="rotate(-0 308.154001 43.477584)">RF + Optuna (100 TPE)</text>
   </g>
   <g id="text_24">
    <text style="fill: #333333; font: 6.5px 'Times New Roman', 'Times', 'DejaVu Serif', serif; text-anchor: middle" x="308.154001" y="54.657984" transform="rotate(-0 308.154001 54.657984)">3-fold CV, F2 optim.</text>
   </g>
   <g id="text_25">
    <text style="fill: #333333; font: 6.5px 'Times New Roman', 'Times', 'DejaVu Serif', serif; text-anchor: middle" x="308.154001" y="65.838384" transform="rotate(-0 308.154001 65.838384)">Threshold tuning</text>
   </g>
   <g id="text_26">
    <text style="fill: #333333; font: 6.5px 'Times New Roman', 'Times', 'DejaVu Serif', serif; text-anchor: middle" x="308.154001" y="77.018784" transform="rotate(-0 308.154001 77.018784)">Platt calibration</text>
   </g>
   <g id="text_27">
    <text style="fill: #f39c12; font: 700 7.5px 'Times New Roman', 'Times', 'DejaVu Serif', serif; text-anchor: middle" x="375.074941" y="31.532428" transform="rotate(-0 375.074941 31.532428)">Sensitivity Analysis</text>
   </g>
   <g id="text_28">
    <!-- OFAT spaghetti $\rightarrow$ -->
    <g style="fill: #333333" transform="translate(344.167441 43.4786)">
     <text>
      <tspan style="font: 6.5px 'DejaVu Serif'" x="0 5.328857 9.838867 14.532959 18.868408 20.93457 24.270264 28.431152 32.306396 36.467285 40.653564 44.500244 47.112305 49.724365 51.803223" y="-0.6875">OFAT spaghetti </tspan>
      <tspan style="font: 6.5px 'STIXGeneral'" x="54.807983" y="-0.6875">→</tspan>
     </text>
    </g>
   </g>
   <g id="text_29">
    <text style="fill: #333333; font: 6.5px 'Times New Roman', 'Times', 'DejaVu Serif', serif; text-anchor: middle" x="375.074941" y="54.657984" transform="rotate(-0 375.074941 54.657984)">Sobol\u2013Hoeffding</text>
   </g>
   <g id="text_30">
    <text style="fill: #333333; font: 6.5px 'Times New Roman', 'Times', 'DejaVu Serif', serif; text-anchor: middle" x="375.074941" y="65.838384" transform="rotate(-0 375.074941 65.838384)">decomposition</text>
   </g>
   <g id="text_31">
    <!-- $S_i$, $S_{Ti}$, bootstrap CI -->
    <g style="fill: #333333" transform="translate(344.199941 77.0198)">
     <text>
      <tspan style="font: italic 6.5px 'STIXGeneral'" x="0 8.956593" y="-0.6875">SS</tspan>
      <tspan style="font: italic 4.55px 'STIXGeneral'" x="3.25 12.206593 14.736392" y="0.24062499999999964">iTi</tspan>
      <tspan style="font: 6.5px 'DejaVu Serif'" x="4.824269 6.890431 16.310661 18.376823 20.442986 24.603874 28.517204 32.430534 35.042595 38.378288 40.990349 44.097527 47.972771 52.133659 54.199821 59.17321" y="-0.6875">, , bootstrap CI</tspan>
     </text>
    </g>
   </g>
  </g>
 </g>
 <defs>
  <clipPath id="p22395b6575">
   <rect x="7.509181" y="1.44" width="399.528" height="121.968"/>
  </clipPath>
 </defs>
</svg>
