<?xml version="1.0" encoding="utf-8" standalone="no"?>
<!DOCTYPE svg PUBLIC "-//W3C//DTD SVG 1.1//EN"
  "http://www.w3.org/Graphics/SVG/1.1/DTD/svg11.dtd">
<svg xmlns:xlink="http://www.w3.org/1999/xlink" width="517.166613pt" height="196.302787pt" viewBox="0 0 517.166613 196.302787" xmlns="http://www.w3.org/2000/svg" version="1.1">
 <metadata>
  <rdf:RDF xmlns:dc="http://purl.org/dc/elements/1.1/" xmlns:cc="http://creativecommons.org/ns#" xmlns:rdf="http://www.w3.org/1999/02/22-rdf-syntax-ns#">
   <cc:Work>
    <dc:type rdf:resource="http://purl.org/dc/dcmitype/StillImage"/>
    <dc:date>2026-03-31T01:06:11.124722</dc:date>
    <dc:format>image/svg+xml</dc:format>
    <dc:creator>
     <cc:Agent>
      <dc:title>Matplotlib v3.9.4, https://matplotlib.org/</dc:title>
     </cc:Agent>
    </dc:creator>
   </cc:Work>
  </rdf:RDF>
 </metadata>
 <defs>
  <style type="text/css">*{stroke-linejoin: round; stroke-linecap: butt}</style>
 </defs>
 <g id="figure_1">
  <g id="patch_1">
   <path d="M 0 196.302787 
L 517.166613 196.302787 
L 517.166613 0 
L 0 0 
z
" style="fill: #ffffff"/>
  </g>
  <g id="axes_1">
   <g id="patch_2">
    <path d="M 37.074688 175.3281 
L 161.498538 175.3281 
L 161.498538 28.9105 
L 37.074688 28.9105 
z
" style="fill: #ffffff"/>
   </g>
   <g id="PolyCollection_1">
    <path d="M 56.02504 167.681703 
L 52.058113 167.681703 
L 51.754234 166.386194 
L 51.420426 165.090684 
L 51.052717 163.795175 
L 50.646551 162.499666 
L 50.197367 161.204157 
L 49.701389 159.908648 
L 49.156562 158.613138 
L 48.563537 157.317629 
L 47.926554 156.02212 
L 47.254099 154.726611 
L 46.559205 153.431102 
L 45.859308 152.135592 
L 45.175606 150.840083 
L 44.531956 149.544574 
L 43.953369 148.249065 
L 43.464245 146.953556 
L 43.086511 145.658046 
L 42.837867 144.362537 
L 42.730317 143.067028 
L 42.769141 141.771519 
L 42.95243 140.47601 
L 43.271213 139.1805 
L 43.710166 137.884991 
L 44.248814 136.589482 
L 44.863087 135.293973 
L 45.527061 133.998464 
L 46.214711 132.702954 
L 46.901518 131.407445 
L 47.565776 130.111936 
L 48.189542 128.816427 
L 48.759163 127.520918 
L 49.265409 126.225408 
L 49.703256 124.929899 
L 50.07141 123.63439 
L 50.371647 122.338881 
L 50.608096 121.043372 
L 50.786521 119.747862 
L 50.913677 118.452353 
L 50.996783 117.156844 
L 51.043117 115.861335 
L 51.05973 114.565826 
L 51.053259 113.270316 
L 51.029814 111.974807 
L 50.994899 110.679298 
L 50.953373 109.383789 
L 50.909402 108.08828 
L 50.866427 106.79277 
L 50.827136 105.497261 
L 50.79346 104.201752 
L 50.766594 102.906243 
L 50.747057 101.610734 
L 50.734796 100.315224 
L 50.729322 99.019715 
L 50.729873 97.724206 
L 50.735582 96.428697 
L 50.745625 95.133188 
L 50.75933 93.837678 
L 50.776246 92.542169 
L 50.796147 91.24666 
L 50.818986 89.951151 
L 50.844825 88.655642 
L 50.87374 87.360132 
L 50.905752 86.064623 
L 50.94077 84.769114 
L 50.97859 83.473605 
L 51.018929 82.178096 
L 51.061488 80.882586 
L 51.106044 79.587077 
L 51.152526 78.291568 
L 51.201086 76.996059 
L 51.252126 75.70055 
L 51.3063 74.40504 
L 51.364464 73.109531 
L 51.427609 71.814022 
L 51.496767 70.518513 
L 51.572899 69.223004 
L 51.656794 67.927494 
L 51.748967 66.631985 
L 51.849579 65.336476 
L 51.958369 64.040967 
L 52.074631 62.745458 
L 52.19721 61.449948 
L 52.324544 60.154439 
L 52.45474 58.85893 
L 52.58569 57.563421 
L 52.715202 56.267912 
L 52.841154 54.972403 
L 52.961637 53.676893 
L 53.075082 52.381384 
L 53.180347 51.085875 
L 53.276767 49.790366 
L 53.364146 48.494857 
L 53.442706 47.199347 
L 53.513003 45.903838 
L 53.575813 44.608329 
L 53.632023 43.31282 
L 53.682519 42.017311 
L 53.728102 40.721801 
L 53.769435 39.426292 
L 54.313717 39.426292 
L 54.313717 39.426292 
L 54.35505 40.721801 
L 54.400634 42.017311 
L 54.451129 43.31282 
L 54.507339 44.608329 
L 54.570149 45.903838 
L 54.640446 47.199347 
L 54.719006 48.494857 
L 54.806385 49.790366 
L 54.902805 51.085875 
L 55.008071 52.381384 
L 55.121515 53.676893 
L 55.241998 54.972403 
L 55.36795 56.267912 
L 55.497462 57.563421 
L 55.628412 58.85893 
L 55.758609 60.154439 
L 55.885942 61.449948 
L 56.008521 62.745458 
L 56.124783 64.040967 
L 56.233573 65.336476 
L 56.334185 66.631985 
L 56.426359 67.927494 
L 56.510254 69.223004 
L 56.586386 70.518513 
L 56.655543 71.814022 
L 56.718689 73.109531 
L 56.776853 74.40504 
L 56.831026 75.70055 
L 56.882067 76.996059 
L 56.930626 78.291568 
L 56.977109 79.587077 
L 57.021664 80.882586 
L 57.064224 82.178096 
L 57.104562 83.473605 
L 57.142383 84.769114 
L 57.177401 86.064623 
L 57.209412 87.360132 
L 57.238328 88.655642 
L 57.264166 89.951151 
L 57.287005 91.24666 
L 57.306906 92.542169 
L 57.323823 93.837678 
L 57.337528 95.133188 
L 57.34757 96.428697 
L 57.353279 97.724206 
L 57.353831 99.019715 
L 57.348357 100.315224 
L 57.336095 101.610734 
L 57.316558 102.906243 
L 57.289692 104.201752 
L 57.256016 105.497261 
L 57.216725 106.79277 
L 57.17375 108.08828 
L 57.129779 109.383789 
L 57.088253 110.679298 
L 57.053339 111.974807 
L 57.029893 113.270316 
L 57.023423 114.565826 
L 57.040036 115.861335 
L 57.08637 117.156844 
L 57.169476 118.452353 
L 57.296631 119.747862 
L 57.475056 121.043372 
L 57.711505 122.338881 
L 58.011743 123.63439 
L 58.379896 124.929899 
L 58.817744 126.225408 
L 59.323989 127.520918 
L 59.89361 128.816427 
L 60.517376 130.111936 
L 61.181634 131.407445 
L 61.868441 132.702954 
L 62.556092 133.998464 
L 63.220065 135.293973 
L 63.834338 136.589482 
L 64.372987 137.884991 
L 64.81194 139.1805 
L 65.130722 140.47601 
L 65.314011 141.771519 
L 65.352835 143.067028 
L 65.245285 144.362537 
L 64.996642 145.658046 
L 64.618908 146.953556 
L 64.129783 148.249065 
L 63.551197 149.544574 
L 62.907547 150.840083 
L 62.223845 152.135592 
L 61.523947 153.431102 
L 60.829054 154.726611 
L 60.156599 156.02212 
L 59.519616 157.317629 
L 58.92659 158.613138 
L 58.381763 159.908648 
L 57.885785 161.204157 
L 57.436601 162.499666 
L 57.030436 163.795175 
L 56.662726 165.090684 
L 56.328919 166.386194 
L 56.02504 167.681703 
z
" clip-path="url(#p5c13dea2bf)" style="fill: #d55e00; fill-opacity: 0.4"/>
   </g>
   <g id="PolyCollection_2">
    <path d="M 101.355006 168.672755 
L 97.218219 168.672755 
L 96.80032 167.32824 
L 96.330981 165.983726 
L 95.810067 164.639212 
L 95.238823 163.294698 
L 94.620257 161.950183 
L 93.95956 160.605669 
L 93.264534 159.261155 
L 92.545937 157.916641 
L 91.817669 156.572126 
L 91.096703 155.227612 
L 90.402675 153.883098 
L 89.757105 152.538584 
L 89.182241 151.19407 
L 88.699603 149.849555 
L 88.328357 148.505041 
L 88.083684 147.160527 
L 87.975354 145.816013 
L 88.006696 144.471498 
L 88.174124 143.126984 
L 88.467286 141.78247 
L 88.869866 140.437956 
L 89.360923 139.093441 
L 89.916617 137.748927 
L 90.512104 136.404413 
L 91.123367 135.059899 
L 91.728777 133.715384 
L 92.310239 132.37087 
L 92.853836 131.026356 
L 93.34998 129.681842 
L 93.793135 128.337328 
L 94.181243 126.992813 
L 94.514984 125.648299 
L 94.797009 124.303785 
L 95.031246 122.959271 
L 95.222358 121.614756 
L 95.37535 120.270242 
L 95.495325 118.925728 
L 95.587341 117.581214 
L 95.656322 116.236699 
L 95.706986 114.892185 
L 95.743754 113.547671 
L 95.770639 112.203157 
L 95.791121 110.858643 
L 95.808028 109.514128 
L 95.82345 108.169614 
L 95.838702 106.8251 
L 95.854347 105.480586 
L 95.870291 104.136071 
L 95.88592 102.791557 
L 95.900287 101.447043 
L 95.912308 100.102529 
L 95.920957 98.758014 
L 95.925442 97.4135 
L 95.92534 96.068986 
L 95.920702 94.724472 
L 95.912099 93.379957 
L 95.900635 92.035443 
L 95.887917 90.690929 
L 95.875977 89.346415 
L 95.867176 88.001901 
L 95.864065 86.657386 
L 95.869234 85.312872 
L 95.885136 83.968358 
L 95.913919 82.623844 
L 95.95726 81.279329 
L 96.016222 79.934815 
L 96.09116 78.590301 
L 96.181673 77.245787 
L 96.286616 75.901272 
L 96.404179 74.556758 
L 96.532023 73.212244 
L 96.667454 71.86773 
L 96.807628 70.523216 
L 96.949747 69.178701 
L 97.091242 67.834187 
L 97.229914 66.489673 
L 97.36402 65.145159 
L 97.492309 63.800644 
L 97.614006 62.45613 
L 97.728754 61.111616 
L 97.836541 59.767102 
L 97.937604 58.422587 
L 98.032344 57.078073 
L 98.121254 55.733559 
L 98.204859 54.389045 
L 98.283677 53.04453 
L 98.358195 51.700016 
L 98.428856 50.355502 
L 98.496051 49.010988 
L 98.560118 47.666474 
L 98.621339 46.321959 
L 98.679935 44.977445 
L 98.736064 43.632931 
L 98.789818 42.288417 
L 98.841218 40.943902 
L 98.890225 39.599388 
L 98.936736 38.254874 
L 98.980606 36.91036 
L 99.02166 35.565845 
L 99.551566 35.565845 
L 99.551566 35.565845 
L 99.592619 36.91036 
L 99.636489 38.254874 
L 99.683001 39.599388 
L 99.732007 40.943902 
L 99.783408 42.288417 
L 99.837161 43.632931 
L 99.89329 44.977445 
L 99.951886 46.321959 
L 100.013107 47.666474 
L 100.077175 49.010988 
L 100.14437 50.355502 
L 100.21503 51.700016 
L 100.289549 53.04453 
L 100.368367 54.389045 
L 100.451971 55.733559 
L 100.540881 57.078073 
L 100.635621 58.422587 
L 100.736684 59.767102 
L 100.844471 61.111616 
L 100.95922 62.45613 
L 101.080916 63.800644 
L 101.209205 65.145159 
L 101.343311 66.489673 
L 101.481983 67.834187 
L 101.623479 69.178701 
L 101.765597 70.523216 
L 101.905771 71.86773 
L 102.041203 73.212244 
L 102.169047 74.556758 
L 102.28661 75.901272 
L 102.391552 77.245787 
L 102.482065 78.590301 
L 102.557003 79.934815 
L 102.615965 81.279329 
L 102.659306 82.623844 
L 102.688089 83.968358 
L 102.703992 85.312872 
L 102.70916 86.657386 
L 102.706049 88.001901 
L 102.697248 89.346415 
L 102.685308 90.690929 
L 102.67259 92.035443 
L 102.661127 93.379957 
L 102.652523 94.724472 
L 102.647885 96.068986 
L 102.647784 97.4135 
L 102.652268 98.758014 
L 102.660917 100.102529 
L 102.672938 101.447043 
L 102.687305 102.791557 
L 102.702934 104.136071 
L 102.718878 105.480586 
L 102.734524 106.8251 
L 102.749775 108.169614 
L 102.765197 109.514128 
L 102.782104 110.858643 
L 102.802586 112.203157 
L 102.829471 113.547671 
L 102.866239 114.892185 
L 102.916904 116.236699 
L 102.985885 117.581214 
L 103.0779 118.925728 
L 103.197875 120.270242 
L 103.350867 121.614756 
L 103.541979 122.959271 
L 103.776217 124.303785 
L 104.058241 125.648299 
L 104.391982 126.992813 
L 104.780091 128.337328 
L 105.223246 129.681842 
L 105.719389 131.026356 
L 106.262986 132.37087 
L 106.844448 133.715384 
L 107.449858 135.059899 
L 108.061121 136.404413 
L 108.656608 137.748927 
L 109.212303 139.093441 
L 109.703359 140.437956 
L 110.105939 141.78247 
L 110.399101 143.126984 
L 110.566529 144.471498 
L 110.597872 145.816013 
L 110.489541 147.160527 
L 110.244868 148.505041 
L 109.873622 149.849555 
L 109.390985 151.19407 
L 108.81612 152.538584 
L 108.17055 153.883098 
L 107.476522 155.227612 
L 106.755556 156.572126 
L 106.027289 157.916641 
L 105.308691 159.261155 
L 104.613665 160.605669 
L 103.952969 161.950183 
L 103.334402 163.294698 
L 102.763158 164.639212 
L 102.242244 165.983726 
L 101.772906 167.32824 
L 101.355006 168.672755 
z
" clip-path="url(#p5c13dea2bf)" style="fill: #0072b2; fill-opacity: 0.4"/>
   </g>
   <g id="PolyCollection_3">
    <path d="M 147.690652 165.762472 
L 141.372646 165.762472 
L 140.852171 164.475475 
L 140.285076 163.188478 
L 139.675014 161.901482 
L 139.027886 160.614485 
L 138.352103 159.327488 
L 137.658707 158.040491 
L 136.961279 156.753495 
L 136.275615 155.466498 
L 135.619139 154.179501 
L 135.010092 152.892504 
L 134.466545 151.605508 
L 134.005321 150.318511 
L 133.640925 149.031514 
L 133.384587 147.744517 
L 133.243508 146.457521 
L 133.22039 145.170524 
L 133.313269 143.883527 
L 133.515678 142.59653 
L 133.817098 141.309534 
L 134.203655 140.022537 
L 134.658989 138.73554 
L 135.165218 137.448543 
L 135.703933 136.161547 
L 136.257133 134.87455 
L 136.808069 133.587553 
L 137.341932 132.300556 
L 137.846372 131.01356 
L 138.311822 129.726563 
L 138.731626 128.439566 
L 139.101984 127.152569 
L 139.42174 125.865573 
L 139.692026 124.578576 
L 139.915827 123.291579 
L 140.097485 122.004582 
L 140.242205 120.717586 
L 140.35559 119.430589 
L 140.44325 118.143592 
L 140.510481 116.856595 
L 140.562059 115.569599 
L 140.602113 114.282602 
L 140.634077 112.995605 
L 140.660706 111.708608 
L 140.684123 110.421612 
L 140.705887 109.134615 
L 140.727058 107.847618 
L 140.748255 106.560621 
L 140.769702 105.273625 
L 140.791272 103.986628 
L 140.812525 102.699631 
L 140.832759 101.412634 
L 140.851074 100.125638 
L 140.866462 98.838641 
L 140.877913 97.551644 
L 140.884544 96.264647 
L 140.885726 94.977651 
L 140.881223 93.690654 
L 140.871296 92.403657 
L 140.856787 91.11666 
L 140.839155 89.829664 
L 140.820454 88.542667 
L 140.80326 87.25567 
L 140.790529 85.968673 
L 140.785419 84.681677 
L 140.791065 83.39468 
L 140.810344 82.107683 
L 140.845647 80.820686 
L 140.898679 79.53369 
L 140.970314 78.246693 
L 141.060521 76.959696 
L 141.168355 75.672699 
L 141.292041 74.385703 
L 141.429105 73.098706 
L 141.576571 71.811709 
L 141.731171 70.524712 
L 141.889568 69.237716 
L 142.04856 67.950719 
L 142.205241 66.663722 
L 142.357129 65.376725 
L 142.502233 64.089729 
L 142.639079 62.802732 
L 142.766698 61.515735 
L 142.884579 60.228738 
L 142.992618 58.941742 
L 143.091044 57.654745 
L 143.180365 56.367748 
L 143.261303 55.080752 
L 143.33475 53.793755 
L 143.40172 52.506758 
L 143.463315 51.219761 
L 143.520678 49.932765 
L 143.574954 48.645768 
L 143.627241 47.358771 
L 143.678539 46.071774 
L 143.729702 44.784778 
L 143.781385 43.497781 
L 143.834008 42.210784 
L 143.887734 40.923787 
L 143.942457 39.636791 
L 143.997824 38.349794 
L 145.065474 38.349794 
L 145.065474 38.349794 
L 145.120841 39.636791 
L 145.175565 40.923787 
L 145.22929 42.210784 
L 145.281913 43.497781 
L 145.333596 44.784778 
L 145.384759 46.071774 
L 145.436058 47.358771 
L 145.488344 48.645768 
L 145.54262 49.932765 
L 145.599983 51.219761 
L 145.661578 52.506758 
L 145.728549 53.793755 
L 145.801995 55.080752 
L 145.882933 56.367748 
L 145.972254 57.654745 
L 146.070681 58.941742 
L 146.178719 60.228738 
L 146.296601 61.515735 
L 146.424219 62.802732 
L 146.561065 64.089729 
L 146.706169 65.376725 
L 146.858057 66.663722 
L 147.014739 67.950719 
L 147.17373 69.237716 
L 147.332128 70.524712 
L 147.486727 71.811709 
L 147.634193 73.098706 
L 147.771257 74.385703 
L 147.894943 75.672699 
L 148.002778 76.959696 
L 148.092984 78.246693 
L 148.164619 79.53369 
L 148.217651 80.820686 
L 148.252954 82.107683 
L 148.272233 83.39468 
L 148.277879 84.681677 
L 148.272769 85.968673 
L 148.260039 87.25567 
L 148.242844 88.542667 
L 148.224143 89.829664 
L 148.206511 91.11666 
L 148.192002 92.403657 
L 148.182075 93.690654 
L 148.177572 94.977651 
L 148.178755 96.264647 
L 148.185385 97.551644 
L 148.196837 98.838641 
L 148.212224 100.125638 
L 148.230539 101.412634 
L 148.250773 102.699631 
L 148.272026 103.986628 
L 148.293597 105.273625 
L 148.315044 106.560621 
L 148.33624 107.847618 
L 148.357411 109.134615 
L 148.379175 110.421612 
L 148.402593 111.708608 
L 148.429221 112.995605 
L 148.461185 114.282602 
L 148.501239 115.569599 
L 148.552817 116.856595 
L 148.620049 118.143592 
L 148.707708 119.430589 
L 148.821094 120.717586 
L 148.965813 122.004582 
L 149.147471 123.291579 
L 149.371272 124.578576 
L 149.641558 125.865573 
L 149.961314 127.152569 
L 150.331673 128.439566 
L 150.751476 129.726563 
L 151.216926 131.01356 
L 151.721367 132.300556 
L 152.255229 133.587553 
L 152.806165 134.87455 
L 153.359365 136.161547 
L 153.89808 137.448543 
L 154.40431 138.73554 
L 154.859643 140.022537 
L 155.2462 141.309534 
L 155.54762 142.59653 
L 155.750029 143.883527 
L 155.842908 145.170524 
L 155.81979 146.457521 
L 155.678711 147.744517 
L 155.422373 149.031514 
L 155.057977 150.318511 
L 154.596753 151.605508 
L 154.053207 152.892504 
L 153.444159 154.179501 
L 152.787683 155.466498 
L 152.102019 156.753495 
L 151.404591 158.040491 
L 150.711195 159.327488 
L 150.035413 160.614485 
L 149.388284 161.901482 
L 148.778222 163.188478 
L 148.211127 164.475475 
L 147.690652 165.762472 
z
" clip-path="url(#p5c13dea2bf)" style="fill: #009e73; fill-opacity: 0.4"/>
   </g>
   <g id="matplotlib.axis_1">
    <g id="xtick_1">
     <g id="line2d_1">
      <path d="M 54.041576 175.3281 
L 54.041576 28.9105 
" clip-path="url(#p5c13dea2bf)" style="fill: none; stroke-dasharray: 2.96,1.28; stroke-dashoffset: 0; stroke: #b0b0b0; stroke-opacity: 0.3; stroke-width: 0.8"/>
     </g>
     <g id="line2d_2">
      <defs>
       <path id="m3d97e39cd5" d="M 0 0 
L 0 3.5 
" style="stroke: #000000; stroke-width: 0.8"/>
      </defs>
      <g>
       <use xlink:href="#m3d97e39cd5" x="54.041576" y="175.3281" style="stroke: #000000; stroke-width: 0.8"/>
      </g>
     </g>
     <g id="text_1">
      <text style="font: 7px 'Times New Roman', 'Times', 'DejaVu Serif', serif; text-anchor: middle" x="54.041576" y="187.647006" transform="rotate(-0 54.041576 187.647006)">MMD</text>
     </g>
    </g>
    <g id="xtick_2">
     <g id="line2d_3">
      <path d="M 99.286613 175.3281 
L 99.286613 28.9105 
" clip-path="url(#p5c13dea2bf)" style="fill: none; stroke-dasharray: 2.96,1.28; stroke-dashoffset: 0; stroke: #b0b0b0; stroke-opacity: 0.3; stroke-width: 0.8"/>
     </g>
     <g id="line2d_4">
      <g>
       <use xlink:href="#m3d97e39cd5" x="99.286613" y="175.3281" style="stroke: #000000; stroke-width: 0.8"/>
      </g>
     </g>
     <g id="text_2">
      <text style="font: 7px 'Times New Roman', 'Times', 'DejaVu Serif', serif; text-anchor: middle" x="99.286613" y="187.647006" transform="rotate(-0 99.286613 187.647006)">DTW</text>
     </g>
    </g>
    <g id="xtick_3">
     <g id="line2d_5">
      <path d="M 144.531649 175.3281 
L 144.531649 28.9105 
" clip-path="url(#p5c13dea2bf)" style="fill: none; stroke-dasharray: 2.96,1.28; stroke-dashoffset: 0; stroke: #b0b0b0; stroke-opacity: 0.3; stroke-width: 0.8"/>
     </g>
     <g id="line2d_6">
      <g>
       <use xlink:href="#m3d97e39cd5" x="144.531649" y="175.3281" style="stroke: #000000; stroke-width: 0.8"/>
      </g>
     </g>
     <g id="text_3">
      <text style="font: 7px 'Times New Roman', 'Times', 'DejaVu Serif', serif; text-anchor: middle" x="144.531649" y="187.647006" transform="rotate(-0 144.531649 187.647006)">Wasserstein</text>
     </g>
    </g>
   </g>
   <g id="matplotlib.axis_2">
    <g id="ytick_1">
     <g id="line2d_7">
      <path d="M 37.074688 170.130702 
L 161.498538 170.130702 
" clip-path="url(#p5c13dea2bf)" style="fill: none; stroke-dasharray: 2.96,1.28; stroke-dashoffset: 0; stroke: #b0b0b0; stroke-opacity: 0.3; stroke-width: 0.8"/>
     </g>
     <g id="line2d_8">
      <defs>
       <path id="m21d414704a" d="M 0 0 
L -3.5 0 
" style="stroke: #000000; stroke-width: 0.8"/>
      </defs>
      <g>
       <use xlink:href="#m21d414704a" x="37.074688" y="170.130702" style="stroke: #000000; stroke-width: 0.8"/>
      </g>
     </g>
     <g id="text_4">
      <text style="font: 7px 'Times New Roman', 'Times', 'DejaVu Serif', serif; text-anchor: end" x="30.074688" y="172.790155" transform="rotate(-0 30.074688 172.790155)">0.0</text>
     </g>
    </g>
    <g id="ytick_2">
     <g id="line2d_9">
      <path d="M 37.074688 137.705954 
L 161.498538 137.705954 
" clip-path="url(#p5c13dea2bf)" style="fill: none; stroke-dasharray: 2.96,1.28; stroke-dashoffset: 0; stroke: #b0b0b0; stroke-opacity: 0.3; stroke-width: 0.8"/>
     </g>
     <g id="line2d_10">
      <g>
       <use xlink:href="#m21d414704a" x="37.074688" y="137.705954" style="stroke: #000000; stroke-width: 0.8"/>
      </g>
     </g>
     <g id="text_5">
      <text style="font: 7px 'Times New Roman', 'Times', 'DejaVu Serif', serif; text-anchor: end" x="30.074688" y="140.365407" transform="rotate(-0 30.074688 140.365407)">0.2</text>
     </g>
    </g>
    <g id="ytick_3">
     <g id="line2d_11">
      <path d="M 37.074688 105.281206 
L 161.498538 105.281206 
" clip-path="url(#p5c13dea2bf)" style="fill: none; stroke-dasharray: 2.96,1.28; stroke-dashoffset: 0; stroke: #b0b0b0; stroke-opacity: 0.3; stroke-width: 0.8"/>
     </g>
     <g id="line2d_12">
      <g>
       <use xlink:href="#m21d414704a" x="37.074688" y="105.281206" style="stroke: #000000; stroke-width: 0.8"/>
      </g>
     </g>
     <g id="text_6">
      <text style="font: 7px 'Times New Roman', 'Times', 'DejaVu Serif', serif; text-anchor: end" x="30.074688" y="107.940659" transform="rotate(-0 30.074688 107.940659)">0.4</text>
     </g>
    </g>
    <g id="ytick_4">
     <g id="line2d_13">
      <path d="M 37.074688 72.856458 
L 161.498538 72.856458 
" clip-path="url(#p5c13dea2bf)" style="fill: none; stroke-dasharray: 2.96,1.28; stroke-dashoffset: 0; stroke: #b0b0b0; stroke-opacity: 0.3; stroke-width: 0.8"/>
     </g>
     <g id="line2d_14">
      <g>
       <use xlink:href="#m21d414704a" x="37.074688" y="72.856458" style="stroke: #000000; stroke-width: 0.8"/>
      </g>
     </g>
     <g id="text_7">
      <text style="font: 7px 'Times New Roman', 'Times', 'DejaVu Serif', serif; text-anchor: end" x="30.074688" y="75.515912" transform="rotate(-0 30.074688 75.515912)">0.6</text>
     </g>
    </g>
    <g id="ytick_5">
     <g id="line2d_15">
      <path d="M 37.074688 40.431711 
L 161.498538 40.431711 
" clip-path="url(#p5c13dea2bf)" style="fill: none; stroke-dasharray: 2.96,1.28; stroke-dashoffset: 0; stroke: #b0b0b0; stroke-opacity: 0.3; stroke-width: 0.8"/>
     </g>
     <g id="line2d_16">
      <g>
       <use xlink:href="#m21d414704a" x="37.074688" y="40.431711" style="stroke: #000000; stroke-width: 0.8"/>
      </g>
     </g>
     <g id="text_8">
      <text style="font: 7px 'Times New Roman', 'Times', 'DejaVu Serif', serif; text-anchor: end" x="30.074688" y="43.091164" transform="rotate(-0 30.074688 43.091164)">0.8</text>
     </g>
    </g>
    <g id="text_9">
     <text style="font: 8px 'Times New Roman', 'Times', 'DejaVu Serif', serif; text-anchor: middle" x="13.27875" y="102.1193" transform="rotate(-90 13.27875 102.1193)">F2-score</text>
    </g>
   </g>
   <g id="LineCollection_1">
    <path d="M 48.385947 123.772417 
L 59.697206 123.772417 
" clip-path="url(#p5c13dea2bf)" style="fill: none; stroke: #000000; stroke-width: 1.5"/>
    <path d="M 93.630983 124.536017 
L 104.942242 124.536017 
" clip-path="url(#p5c13dea2bf)" style="fill: none; stroke: #000000; stroke-width: 1.5"/>
    <path d="M 138.87602 123.051754 
L 150.187279 123.051754 
" clip-path="url(#p5c13dea2bf)" style="fill: none; stroke: #000000; stroke-width: 1.5"/>
   </g>
   <g id="LineCollection_2">
    <path d="M 48.385947 137.451418 
L 59.697206 137.451418 
" clip-path="url(#p5c13dea2bf)" style="fill: none; stroke: #d55e00; stroke-width: 1.5"/>
    <path d="M 93.630983 138.408748 
L 104.942242 138.408748 
" clip-path="url(#p5c13dea2bf)" style="fill: none; stroke: #d55e00; stroke-width: 1.5"/>
    <path d="M 138.87602 135.973225 
L 150.187279 135.973225 
" clip-path="url(#p5c13dea2bf)" style="fill: none; stroke: #d55e00; stroke-width: 1.5"/>
   </g>
   <g id="patch_3">
    <path d="M 37.074688 175.3281 
L 37.074688 28.9105 
" style="fill: none; stroke: #000000; stroke-width: 0.8; stroke-linejoin: miter; stroke-linecap: square"/>
   </g>
   <g id="patch_4">
    <path d="M 161.498538 175.3281 
L 161.498538 28.9105 
" style="fill: none; stroke: #000000; stroke-width: 0.8; stroke-linejoin: miter; stroke-linecap: square"/>
   </g>
   <g id="patch_5">
    <path d="M 37.074688 175.3281 
L 161.498538 175.3281 
" style="fill: none; stroke: #000000; stroke-width: 0.8; stroke-linejoin: miter; stroke-linecap: square"/>
   </g>
   <g id="patch_6">
    <path d="M 37.074688 28.9105 
L 161.498538 28.9105 
" style="fill: none; stroke: #000000; stroke-width: 0.8; stroke-linejoin: miter; stroke-linecap: square"/>
   </g>
   <g id="text_10">
    <text style="font: 700 6.5px 'Times New Roman', 'Times', 'DejaVu Serif', serif; text-anchor: middle" x="54.041576" y="120.799382" transform="rotate(-0 54.041576 120.799382)">0.286</text>
   </g>
   <g id="text_11">
    <text style="font: 700 6.5px 'Times New Roman', 'Times', 'DejaVu Serif', serif; text-anchor: middle" x="99.286613" y="121.562982" transform="rotate(-0 99.286613 121.562982)">0.281</text>
   </g>
   <g id="text_12">
    <text style="font: 700 6.5px 'Times New Roman', 'Times', 'DejaVu Serif', serif; text-anchor: middle" x="144.531649" y="120.07872" transform="rotate(-0 144.531649 120.07872)">0.290</text>
   </g>
   <g id="text_13">
    <text style="font: 700 8px 'Times New Roman', 'Times', 'DejaVu Serif', serif" transform="translate(79.995363 13.27875)">F2-score</text>
    <!-- KW H=1.36, p=0.507, $\eta^2$=0.0000 -->
    <g transform="translate(26.406613 22.9105)">
     <text>
      <tspan style="font: 700 8px 'DejaVu Serif'" x="0 6.953125 15.9375 18.722656 26.28125 32.984375 38.550781 41.335938 46.902344 52.46875 55.253906 58.039062 63.632812 70.335938 75.902344 78.6875 84.253906 89.820312 95.386719 98.171875 108.396513 115.099638 120.666044 123.4512 129.017607 134.584013 140.150419" y="-0.390625">KW H=1.36, p=0.507, =0.0000</tspan>
      <tspan style="font: italic 8px 'STIXGeneral'" x="100.957031" y="-0.390625">η</tspan>
      <tspan style="font: 5.6px 'STIXGeneral'" x="105.243398" y="-3.215625">2</tspan>
     </text>
    </g>
   </g>
  </g>
  <g id="axes_2">
   <g id="patch_7">
    <path d="M 206.034688 175.3281 
L 330.458538 175.3281 
L 330.458538 28.9105 
L 206.034688 28.9105 
z
" style="fill: #ffffff"/>
   </g>
   <g id="PolyCollection_4">
    <path d="M 232.427946 168.65487 
L 213.575206 168.65487 
L 213.138003 167.332586 
L 212.750188 166.010302 
L 212.417467 164.688018 
L 212.14434 163.365734 
L 211.933979 162.04345 
L 211.788162 160.721166 
L 211.707267 159.398881 
L 211.690317 158.076597 
L 211.735089 156.754313 
L 211.838255 155.432029 
L 211.995566 154.109745 
L 212.202054 152.787461 
L 212.452247 151.465177 
L 212.740381 150.142893 
L 213.060596 148.820609 
L 213.407118 147.498324 
L 213.774401 146.17604 
L 214.157242 144.853756 
L 214.550862 143.531472 
L 214.95095 142.209188 
L 215.353674 140.886904 
L 215.755674 139.56462 
L 216.154029 138.242336 
L 216.54621 136.920052 
L 216.930033 135.597767 
L 217.303602 134.275483 
L 217.665265 132.953199 
L 218.013568 131.630915 
L 218.347222 130.308631 
L 218.665086 128.986347 
L 218.966148 127.664063 
L 219.249528 126.341779 
L 219.514472 125.019495 
L 219.760368 123.69721 
L 219.986746 122.374926 
L 220.193295 121.052642 
L 220.379861 119.730358 
L 220.546459 118.408074 
L 220.693261 117.08579 
L 220.820598 115.763506 
L 220.928945 114.441222 
L 221.018904 113.118938 
L 221.091188 111.796653 
L 221.146601 110.474369 
L 221.18601 109.152085 
L 221.210326 107.829801 
L 221.22048 106.507517 
L 221.217402 105.185233 
L 221.202 103.862949 
L 221.175141 102.540665 
L 221.137636 101.218381 
L 221.090226 99.896096 
L 221.033567 98.573812 
L 220.968226 97.251528 
L 220.894666 95.929244 
L 220.813243 94.60696 
L 220.724203 93.284676 
L 220.62768 91.962392 
L 220.523693 90.640108 
L 220.412159 89.317824 
L 220.292892 87.995539 
L 220.16562 86.673255 
L 220.030002 85.350971 
L 219.885647 84.028687 
L 219.732143 82.706403 
L 219.569087 81.384119 
L 219.396126 80.061835 
L 219.212993 78.739551 
L 219.019555 77.417267 
L 218.815858 76.094982 
L 218.602174 74.772698 
L 218.379049 73.450414 
L 218.147341 72.12813 
L 217.90826 70.805846 
L 217.663393 69.483562 
L 217.414725 68.161278 
L 217.164636 66.838994 
L 216.915899 65.51671 
L 216.671644 64.194425 
L 216.435323 62.872141 
L 216.210642 61.549857 
L 216.001483 60.227573 
L 215.81182 58.905289 
L 215.645602 57.583005 
L 215.506651 56.260721 
L 215.398536 54.938437 
L 215.324456 53.616153 
L 215.28713 52.293868 
L 215.288686 50.971584 
L 215.330579 49.6493 
L 215.413518 48.327016 
L 215.537417 47.004732 
L 215.701382 45.682448 
L 215.903708 44.360164 
L 216.141925 43.03788 
L 216.41285 41.715596 
L 216.712683 40.393311 
L 217.037105 39.071027 
L 217.381414 37.748743 
L 228.621738 37.748743 
L 228.621738 37.748743 
L 228.966047 39.071027 
L 229.29047 40.393311 
L 229.590302 41.715596 
L 229.861227 43.03788 
L 230.099444 44.360164 
L 230.301771 45.682448 
L 230.465735 47.004732 
L 230.589635 48.327016 
L 230.672573 49.6493 
L 230.714466 50.971584 
L 230.716022 52.293868 
L 230.678696 53.616153 
L 230.604616 54.938437 
L 230.496501 56.260721 
L 230.35755 57.583005 
L 230.191333 58.905289 
L 230.001669 60.227573 
L 229.792511 61.549857 
L 229.567829 62.872141 
L 229.331508 64.194425 
L 229.087254 65.51671 
L 228.838516 66.838994 
L 228.588428 68.161278 
L 228.339759 69.483562 
L 228.094893 70.805846 
L 227.855812 72.12813 
L 227.624103 73.450414 
L 227.400978 74.772698 
L 227.187294 76.094982 
L 226.983597 77.417267 
L 226.790159 78.739551 
L 226.607026 80.061835 
L 226.434065 81.384119 
L 226.27101 82.706403 
L 226.117505 84.028687 
L 225.97315 85.350971 
L 225.837532 86.673255 
L 225.71026 87.995539 
L 225.590993 89.317824 
L 225.479459 90.640108 
L 225.375473 91.962392 
L 225.278949 93.284676 
L 225.189909 94.60696 
L 225.108487 95.929244 
L 225.034926 97.251528 
L 224.969585 98.573812 
L 224.912927 99.896096 
L 224.865516 101.218381 
L 224.828011 102.540665 
L 224.801152 103.862949 
L 224.78575 105.185233 
L 224.782672 106.507517 
L 224.792827 107.829801 
L 224.817143 109.152085 
L 224.856551 110.474369 
L 224.911964 111.796653 
L 224.984249 113.118938 
L 225.074207 114.441222 
L 225.182554 115.763506 
L 225.309891 117.08579 
L 225.456693 118.408074 
L 225.623291 119.730358 
L 225.809858 121.052642 
L 226.016406 122.374926 
L 226.242785 123.69721 
L 226.48868 125.019495 
L 226.753625 126.341779 
L 227.037004 127.664063 
L 227.338067 128.986347 
L 227.65593 130.308631 
L 227.989585 131.630915 
L 228.337887 132.953199 
L 228.69955 134.275483 
L 229.07312 135.597767 
L 229.456943 136.920052 
L 229.849124 138.242336 
L 230.247478 139.56462 
L 230.649478 140.886904 
L 231.052203 142.209188 
L 231.45229 143.531472 
L 231.84591 144.853756 
L 232.228752 146.17604 
L 232.596034 147.498324 
L 232.942556 148.820609 
L 233.262771 150.142893 
L 233.550905 151.465177 
L 233.801098 152.787461 
L 234.007586 154.109745 
L 234.164897 155.432029 
L 234.268063 156.754313 
L 234.312835 158.076597 
L 234.295886 159.398881 
L 234.21499 160.721166 
L 234.069173 162.04345 
L 233.858812 163.365734 
L 233.585685 164.688018 
L 233.252964 166.010302 
L 232.865149 167.332586 
L 232.427946 168.65487 
z
" clip-path="url(#pe6634d1e40)" style="fill: #d55e00; fill-opacity: 0.4"/>
   </g>
   <g id="PolyCollection_5">
    <path d="M 278.519487 168.672755 
L 257.973739 168.672755 
L 257.623914 167.340906 
L 257.341233 166.009058 
L 257.130455 164.677209 
L 256.994698 163.345361 
L 256.935354 162.013512 
L 256.952058 160.681664 
L 257.042744 159.349815 
L 257.203751 158.017967 
L 257.43 156.686118 
L 257.715208 155.35427 
L 258.052149 154.022421 
L 258.43292 152.690573 
L 258.849234 151.358724 
L 259.292684 150.026876 
L 259.755008 148.695027 
L 260.228307 147.363179 
L 260.705238 146.03133 
L 261.179158 144.699482 
L 261.644223 143.367633 
L 262.095452 142.035785 
L 262.528742 140.703936 
L 262.940849 139.372088 
L 263.329347 138.040239 
L 263.692552 136.708391 
L 264.029447 135.376542 
L 264.339585 134.044694 
L 264.622993 132.712845 
L 264.880084 131.380997 
L 265.111566 130.049148 
L 265.318367 128.7173 
L 265.501566 127.385451 
L 265.662336 126.053603 
L 265.8019 124.721754 
L 265.92149 123.389906 
L 266.022323 122.058057 
L 266.10558 120.726209 
L 266.172392 119.39436 
L 266.223829 118.062512 
L 266.260899 116.730663 
L 266.284542 115.398815 
L 266.295636 114.066966 
L 266.294993 112.735118 
L 266.283368 111.403269 
L 266.261461 110.071421 
L 266.229923 108.739572 
L 266.189362 107.407724 
L 266.140347 106.075875 
L 266.083412 104.744027 
L 266.019059 103.412178 
L 265.947762 102.08033 
L 265.869965 100.748481 
L 265.78608 99.416633 
L 265.696484 98.084784 
L 265.601518 96.752936 
L 265.501473 95.421087 
L 265.396593 94.089239 
L 265.287062 92.75739 
L 265.173 91.425542 
L 265.054465 90.093693 
L 264.931447 88.761845 
L 264.803872 87.429996 
L 264.671616 86.098148 
L 264.534508 84.766299 
L 264.392358 83.434451 
L 264.244972 82.102602 
L 264.092183 80.770754 
L 263.933884 79.438905 
L 263.770056 78.107057 
L 263.600813 76.775208 
L 263.426431 75.44336 
L 263.247386 74.111511 
L 263.064382 72.779663 
L 262.87838 71.447814 
L 262.690615 70.115966 
L 262.502606 68.784117 
L 262.316155 67.452269 
L 262.13334 66.120421 
L 261.956486 64.788572 
L 261.788137 63.456724 
L 261.631007 62.124875 
L 261.487925 60.793027 
L 261.361768 59.461178 
L 261.255388 58.12933 
L 261.171534 56.797481 
L 261.112772 55.465633 
L 261.081398 54.133784 
L 261.079366 52.801936 
L 261.108211 51.470087 
L 261.168987 50.138239 
L 261.262217 48.80639 
L 261.387856 47.474542 
L 261.545268 46.142693 
L 261.733227 44.810845 
L 261.949931 43.478996 
L 262.19304 42.147148 
L 262.459724 40.815299 
L 262.746738 39.483451 
L 263.0505 38.151602 
L 263.367185 36.819754 
L 273.126041 36.819754 
L 273.126041 36.819754 
L 273.442726 38.151602 
L 273.746487 39.483451 
L 274.033501 40.815299 
L 274.300186 42.147148 
L 274.543294 43.478996 
L 274.759998 44.810845 
L 274.947957 46.142693 
L 275.105369 47.474542 
L 275.231008 48.80639 
L 275.324238 50.138239 
L 275.385015 51.470087 
L 275.413859 52.801936 
L 275.411827 54.133784 
L 275.380453 55.465633 
L 275.321691 56.797481 
L 275.237837 58.12933 
L 275.131458 59.461178 
L 275.0053 60.793027 
L 274.862218 62.124875 
L 274.705089 63.456724 
L 274.53674 64.788572 
L 274.359886 66.120421 
L 274.17707 67.452269 
L 273.990619 68.784117 
L 273.80261 70.115966 
L 273.614845 71.447814 
L 273.428843 72.779663 
L 273.245839 74.111511 
L 273.066794 75.44336 
L 272.892412 76.775208 
L 272.723169 78.107057 
L 272.559342 79.438905 
L 272.401042 80.770754 
L 272.248253 82.102602 
L 272.100867 83.434451 
L 271.958717 84.766299 
L 271.82161 86.098148 
L 271.689353 87.429996 
L 271.561779 88.761845 
L 271.43876 90.093693 
L 271.320225 91.425542 
L 271.206164 92.75739 
L 271.096632 94.089239 
L 270.991752 95.421087 
L 270.891708 96.752936 
L 270.796741 98.084784 
L 270.707146 99.416633 
L 270.62326 100.748481 
L 270.545463 102.08033 
L 270.474166 103.412178 
L 270.409813 104.744027 
L 270.352878 106.075875 
L 270.303863 107.407724 
L 270.263302 108.739572 
L 270.231765 110.071421 
L 270.209858 111.403269 
L 270.198232 112.735118 
L 270.197589 114.066966 
L 270.208683 115.398815 
L 270.232326 116.730663 
L 270.269396 118.062512 
L 270.320833 119.39436 
L 270.387645 120.726209 
L 270.470902 122.058057 
L 270.571736 123.389906 
L 270.691326 124.721754 
L 270.830889 126.053603 
L 270.99166 127.385451 
L 271.174858 128.7173 
L 271.381659 130.049148 
L 271.613141 131.380997 
L 271.870232 132.712845 
L 272.15364 134.044694 
L 272.463778 135.376542 
L 272.800673 136.708391 
L 273.163879 138.040239 
L 273.552376 139.372088 
L 273.964483 140.703936 
L 274.397773 142.035785 
L 274.849002 143.367633 
L 275.314068 144.699482 
L 275.787987 146.03133 
L 276.264918 147.363179 
L 276.738217 148.695027 
L 277.200541 150.026876 
L 277.643992 151.358724 
L 278.060305 152.690573 
L 278.441077 154.022421 
L 278.778017 155.35427 
L 279.063226 156.686118 
L 279.289474 158.017967 
L 279.450482 159.349815 
L 279.541167 160.681664 
L 279.557872 162.013512 
L 279.498527 163.345361 
L 279.362771 164.677209 
L 279.151992 166.009058 
L 278.869311 167.340906 
L 278.519487 168.672755 
z
" clip-path="url(#pe6634d1e40)" style="fill: #0072b2; fill-opacity: 0.4"/>
   </g>
   <g id="PolyCollection_6">
    <path d="M 322.924139 168.656589 
L 304.05916 168.656589 
L 303.619081 167.312238 
L 303.229136 165.967887 
L 302.895217 164.623537 
L 302.62199 163.279186 
L 302.412759 161.934835 
L 302.269386 160.590484 
L 302.192271 159.246133 
L 302.18039 157.901782 
L 302.231391 156.557431 
L 302.341732 155.21308 
L 302.506864 153.868729 
L 302.721441 152.524378 
L 302.979537 151.180027 
L 303.274883 149.835676 
L 303.601082 148.491325 
L 303.95181 147.146974 
L 304.320996 145.802623 
L 304.702964 144.458272 
L 305.092539 143.113921 
L 305.485121 141.76957 
L 305.876721 140.425219 
L 306.263963 139.080869 
L 306.644061 137.736518 
L 307.014775 136.392167 
L 307.374347 135.047816 
L 307.721431 133.703465 
L 308.055022 132.359114 
L 308.374379 131.014763 
L 308.678959 129.670412 
L 308.968364 128.326061 
L 309.242286 126.98171 
L 309.500478 125.637359 
L 309.742726 124.293008 
L 309.968838 122.948657 
L 310.178639 121.604306 
L 310.371974 120.259955 
L 310.548716 118.915604 
L 310.708779 117.571253 
L 310.852126 116.226902 
L 310.978785 114.882551 
L 311.088854 113.5382 
L 311.182509 112.19385 
L 311.260005 110.849499 
L 311.321671 109.505148 
L 311.367907 108.160797 
L 311.399168 106.816446 
L 311.415954 105.472095 
L 311.418788 104.127744 
L 311.408205 102.783393 
L 311.384722 101.439042 
L 311.348829 100.094691 
L 311.300966 98.75034 
L 311.241507 97.405989 
L 311.170753 96.061638 
L 311.088917 94.717287 
L 310.996125 93.372936 
L 310.892416 92.028585 
L 310.777747 90.684234 
L 310.652004 89.339883 
L 310.515024 87.995532 
L 310.36661 86.651182 
L 310.206561 85.306831 
L 310.0347 83.96248 
L 309.850908 82.618129 
L 309.655161 81.273778 
L 309.447561 79.929427 
L 309.228378 78.585076 
L 308.998079 77.240725 
L 308.757366 75.896374 
L 308.507201 74.552023 
L 308.248832 73.207672 
L 307.98381 71.863321 
L 307.714001 70.51897 
L 307.441587 69.174619 
L 307.169062 67.830268 
L 306.899215 66.485917 
L 306.635105 65.141566 
L 306.380023 63.797215 
L 306.137445 62.452864 
L 305.910974 61.108513 
L 305.704274 59.764163 
L 305.520993 58.419812 
L 305.364677 57.075461 
L 305.238686 55.73111 
L 305.146098 54.386759 
L 305.08962 53.042408 
L 305.071498 51.698057 
L 305.093437 50.353706 
L 305.156528 49.009355 
L 305.261189 47.665004 
L 305.407126 46.320653 
L 305.593313 44.976302 
L 305.817987 43.631951 
L 306.07868 42.2876 
L 306.372258 40.943249 
L 306.694993 39.598898 
L 307.042655 38.254547 
L 307.410614 36.910196 
L 307.793968 35.565845 
L 319.189331 35.565845 
L 319.189331 35.565845 
L 319.572684 36.910196 
L 319.940644 38.254547 
L 320.288305 39.598898 
L 320.61104 40.943249 
L 320.904618 42.2876 
L 321.165311 43.631951 
L 321.389986 44.976302 
L 321.576172 46.320653 
L 321.72211 47.665004 
L 321.82677 49.009355 
L 321.889861 50.353706 
L 321.9118 51.698057 
L 321.893678 53.042408 
L 321.8372 54.386759 
L 321.744613 55.73111 
L 321.618621 57.075461 
L 321.462306 58.419812 
L 321.279024 59.764163 
L 321.072324 61.108513 
L 320.845853 62.452864 
L 320.603275 63.797215 
L 320.348193 65.141566 
L 320.084083 66.485917 
L 319.814236 67.830268 
L 319.541711 69.174619 
L 319.269297 70.51897 
L 318.999488 71.863321 
L 318.734466 73.207672 
L 318.476097 74.552023 
L 318.225932 75.896374 
L 317.985219 77.240725 
L 317.754921 78.585076 
L 317.535737 79.929427 
L 317.328137 81.273778 
L 317.13239 82.618129 
L 316.948599 83.96248 
L 316.776737 85.306831 
L 316.616688 86.651182 
L 316.468274 87.995532 
L 316.331294 89.339883 
L 316.205552 90.684234 
L 316.090882 92.028585 
L 315.987173 93.372936 
L 315.894381 94.717287 
L 315.812545 96.061638 
L 315.741791 97.405989 
L 315.682332 98.75034 
L 315.634469 100.094691 
L 315.598576 101.439042 
L 315.575094 102.783393 
L 315.56451 104.127744 
L 315.567345 105.472095 
L 315.58413 106.816446 
L 315.615391 108.160797 
L 315.661627 109.505148 
L 315.723293 110.849499 
L 315.800789 112.19385 
L 315.894444 113.5382 
L 316.004513 114.882551 
L 316.131172 116.226902 
L 316.274519 117.571253 
L 316.434582 118.915604 
L 316.611324 120.259955 
L 316.804659 121.604306 
L 317.01446 122.948657 
L 317.240572 124.293008 
L 317.48282 125.637359 
L 317.741012 126.98171 
L 318.014934 128.326061 
L 318.304339 129.670412 
L 318.60892 131.014763 
L 318.928276 132.359114 
L 319.261867 133.703465 
L 319.608951 135.047816 
L 319.968523 136.392167 
L 320.339237 137.736518 
L 320.719335 139.080869 
L 321.106577 140.425219 
L 321.498177 141.76957 
L 321.89076 143.113921 
L 322.280334 144.458272 
L 322.662302 145.802623 
L 323.031488 147.146974 
L 323.382217 148.491325 
L 323.708415 149.835676 
L 324.003761 151.180027 
L 324.261858 152.524378 
L 324.476434 153.868729 
L 324.641567 155.21308 
L 324.751908 156.557431 
L 324.802908 157.901782 
L 324.791027 159.246133 
L 324.713912 160.590484 
L 324.570539 161.934835 
L 324.361308 163.279186 
L 324.088082 164.623537 
L 323.754163 165.967887 
L 323.364217 167.312238 
L 322.924139 168.656589 
z
" clip-path="url(#pe6634d1e40)" style="fill: #009e73; fill-opacity: 0.4"/>
   </g>
   <g id="matplotlib.axis_3">
    <g id="xtick_4">
     <g id="line2d_17">
      <path d="M 223.001576 175.3281 
L 223.001576 28.9105 
" clip-path="url(#pe6634d1e40)" style="fill: none; stroke-dasharray: 2.96,1.28; stroke-dashoffset: 0; stroke: #b0b0b0; stroke-opacity: 0.3; stroke-width: 0.8"/>
     </g>
     <g id="line2d_18">
      <g>
       <use xlink:href="#m3d97e39cd5" x="223.001576" y="175.3281" style="stroke: #000000; stroke-width: 0.8"/>
      </g>
     </g>
     <g id="text_14">
      <text style="font: 7px 'Times New Roman', 'Times', 'DejaVu Serif', serif; text-anchor: middle" x="223.001576" y="187.647006" transform="rotate(-0 223.001576 187.647006)">MMD</text>
     </g>
    </g>
    <g id="xtick_5">
     <g id="line2d_19">
      <path d="M 268.246613 175.3281 
L 268.246613 28.9105 
" clip-path="url(#pe6634d1e40)" style="fill: none; stroke-dasharray: 2.96,1.28; stroke-dashoffset: 0; stroke: #b0b0b0; stroke-opacity: 0.3; stroke-width: 0.8"/>
     </g>
     <g id="line2d_20">
      <g>
       <use xlink:href="#m3d97e39cd5" x="268.246613" y="175.3281" style="stroke: #000000; stroke-width: 0.8"/>
      </g>
     </g>
     <g id="text_15">
      <text style="font: 7px 'Times New Roman', 'Times', 'DejaVu Serif', serif; text-anchor: middle" x="268.246613" y="187.647006" transform="rotate(-0 268.246613 187.647006)">DTW</text>
     </g>
    </g>
    <g id="xtick_6">
     <g id="line2d_21">
      <path d="M 313.491649 175.3281 
L 313.491649 28.9105 
" clip-path="url(#pe6634d1e40)" style="fill: none; stroke-dasharray: 2.96,1.28; stroke-dashoffset: 0; stroke: #b0b0b0; stroke-opacity: 0.3; stroke-width: 0.8"/>
     </g>
     <g id="line2d_22">
      <g>
       <use xlink:href="#m3d97e39cd5" x="313.491649" y="175.3281" style="stroke: #000000; stroke-width: 0.8"/>
      </g>
     </g>
     <g id="text_16">
      <text style="font: 7px 'Times New Roman', 'Times', 'DejaVu Serif', serif; text-anchor: middle" x="313.491649" y="187.647006" transform="rotate(-0 313.491649 187.647006)">Wasserstein</text>
     </g>
    </g>
   </g>
   <g id="matplotlib.axis_4">
    <g id="ytick_6">
     <g id="line2d_23">
      <path d="M 206.034688 168.707535 
L 330.458538 168.707535 
" clip-path="url(#pe6634d1e40)" style="fill: none; stroke-dasharray: 2.96,1.28; stroke-dashoffset: 0; stroke: #b0b0b0; stroke-opacity: 0.3; stroke-width: 0.8"/>
     </g>
     <g id="line2d_24">
      <g>
       <use xlink:href="#m21d414704a" x="206.034688" y="168.707535" style="stroke: #000000; stroke-width: 0.8"/>
      </g>
     </g>
     <g id="text_17">
      <text style="font: 7px 'Times New Roman', 'Times', 'DejaVu Serif', serif; text-anchor: end" x="199.034688" y="171.366988" transform="rotate(-0 199.034688 171.366988)">0.5</text>
     </g>
    </g>
    <g id="ytick_7">
     <g id="line2d_25">
      <path d="M 206.034688 138.926053 
L 330.458538 138.926053 
" clip-path="url(#pe6634d1e40)" style="fill: none; stroke-dasharray: 2.96,1.28; stroke-dashoffset: 0; stroke: #b0b0b0; stroke-opacity: 0.3; stroke-width: 0.8"/>
     </g>
     <g id="line2d_26">
      <g>
       <use xlink:href="#m21d414704a" x="206.034688" y="138.926053" style="stroke: #000000; stroke-width: 0.8"/>
      </g>
     </g>
     <g id="text_18">
      <text style="font: 7px 'Times New Roman', 'Times', 'DejaVu Serif', serif; text-anchor: end" x="199.034688" y="141.585506" transform="rotate(-0 199.034688 141.585506)">0.6</text>
     </g>
    </g>
    <g id="ytick_8">
     <g id="line2d_27">
      <path d="M 206.034688 109.144571 
L 330.458538 109.144571 
" clip-path="url(#pe6634d1e40)" style="fill: none; stroke-dasharray: 2.96,1.28; stroke-dashoffset: 0; stroke: #b0b0b0; stroke-opacity: 0.3; stroke-width: 0.8"/>
     </g>
     <g id="line2d_28">
      <g>
       <use xlink:href="#m21d414704a" x="206.034688" y="109.144571" style="stroke: #000000; stroke-width: 0.8"/>
      </g>
     </g>
     <g id="text_19">
      <text style="font: 7px 'Times New Roman', 'Times', 'DejaVu Serif', serif; text-anchor: end" x="199.034688" y="111.804024" transform="rotate(-0 199.034688 111.804024)">0.7</text>
     </g>
    </g>
    <g id="ytick_9">
     <g id="line2d_29">
      <path d="M 206.034688 79.363089 
L 330.458538 79.363089 
" clip-path="url(#pe6634d1e40)" style="fill: none; stroke-dasharray: 2.96,1.28; stroke-dashoffset: 0; stroke: #b0b0b0; stroke-opacity: 0.3; stroke-width: 0.8"/>
     </g>
     <g id="line2d_30">
      <g>
       <use xlink:href="#m21d414704a" x="206.034688" y="79.363089" style="stroke: #000000; stroke-width: 0.8"/>
      </g>
     </g>
     <g id="text_20">
      <text style="font: 7px 'Times New Roman', 'Times', 'DejaVu Serif', serif; text-anchor: end" x="199.034688" y="82.022542" transform="rotate(-0 199.034688 82.022542)">0.8</text>
     </g>
    </g>
    <g id="ytick_10">
     <g id="line2d_31">
      <path d="M 206.034688 49.581607 
L 330.458538 49.581607 
" clip-path="url(#pe6634d1e40)" style="fill: none; stroke-dasharray: 2.96,1.28; stroke-dashoffset: 0; stroke: #b0b0b0; stroke-opacity: 0.3; stroke-width: 0.8"/>
     </g>
     <g id="line2d_32">
      <g>
       <use xlink:href="#m21d414704a" x="206.034688" y="49.581607" style="stroke: #000000; stroke-width: 0.8"/>
      </g>
     </g>
     <g id="text_21">
      <text style="font: 7px 'Times New Roman', 'Times', 'DejaVu Serif', serif; text-anchor: end" x="199.034688" y="52.24106" transform="rotate(-0 199.034688 52.24106)">0.9</text>
     </g>
    </g>
    <g id="text_22">
     <text style="font: 8px 'Times New Roman', 'Times', 'DejaVu Serif', serif; text-anchor: middle" x="182.23875" y="102.1193" transform="rotate(-90 182.23875 102.1193)">AUROC</text>
    </g>
   </g>
   <g id="LineCollection_3">
    <path d="M 217.345947 113.050788 
L 228.657206 113.050788 
" clip-path="url(#pe6634d1e40)" style="fill: none; stroke: #000000; stroke-width: 1.5"/>
    <path d="M 262.590983 114.160342 
L 273.902242 114.160342 
" clip-path="url(#pe6634d1e40)" style="fill: none; stroke: #000000; stroke-width: 1.5"/>
    <path d="M 307.83602 110.455092 
L 319.147279 110.455092 
" clip-path="url(#pe6634d1e40)" style="fill: none; stroke: #000000; stroke-width: 1.5"/>
   </g>
   <g id="LineCollection_4">
    <path d="M 217.345947 137.560714 
L 228.657206 137.560714 
" clip-path="url(#pe6634d1e40)" style="fill: none; stroke: #d55e00; stroke-width: 1.5"/>
    <path d="M 262.590983 137.378409 
L 273.902242 137.378409 
" clip-path="url(#pe6634d1e40)" style="fill: none; stroke: #d55e00; stroke-width: 1.5"/>
    <path d="M 307.83602 129.81009 
L 319.147279 129.81009 
" clip-path="url(#pe6634d1e40)" style="fill: none; stroke: #d55e00; stroke-width: 1.5"/>
   </g>
   <g id="patch_8">
    <path d="M 206.034688 175.3281 
L 206.034688 28.9105 
" style="fill: none; stroke: #000000; stroke-width: 0.8; stroke-linejoin: miter; stroke-linecap: square"/>
   </g>
   <g id="patch_9">
    <path d="M 330.458538 175.3281 
L 330.458538 28.9105 
" style="fill: none; stroke: #000000; stroke-width: 0.8; stroke-linejoin: miter; stroke-linecap: square"/>
   </g>
   <g id="patch_10">
    <path d="M 206.034688 175.3281 
L 330.458538 175.3281 
" style="fill: none; stroke: #000000; stroke-width: 0.8; stroke-linejoin: miter; stroke-linecap: square"/>
   </g>
   <g id="patch_11">
    <path d="M 206.034688 28.9105 
L 330.458538 28.9105 
" style="fill: none; stroke: #000000; stroke-width: 0.8; stroke-linejoin: miter; stroke-linecap: square"/>
   </g>
   <g id="text_23">
    <text style="font: 700 6.5px 'Times New Roman', 'Times', 'DejaVu Serif', serif; text-anchor: middle" x="223.001576" y="108.720843" transform="rotate(-0 223.001576 108.720843)">0.687</text>
   </g>
   <g id="text_24">
    <text style="font: 700 6.5px 'Times New Roman', 'Times', 'DejaVu Serif', serif; text-anchor: middle" x="268.246613" y="109.830397" transform="rotate(-0 268.246613 109.830397)">0.683</text>
   </g>
   <g id="text_25">
    <text style="font: 700 6.5px 'Times New Roman', 'Times', 'DejaVu Serif', serif; text-anchor: middle" x="313.491649" y="106.125147" transform="rotate(-0 313.491649 106.125147)">0.696</text>
   </g>
   <g id="text_26">
    <text style="font: 700 8px 'Times New Roman', 'Times', 'DejaVu Serif', serif" transform="translate(251.662238 13.27875)">AUROC</text>
    <!-- KW H=6.12, p=0.047, $\eta^2$=0.0027 -->
    <g transform="translate(195.366613 22.9105)">
     <text>
      <tspan style="font: 700 8px 'DejaVu Serif'" x="0 6.953125 15.9375 18.722656 26.28125 32.984375 38.550781 41.335938 46.902344 52.46875 55.253906 58.039062 63.632812 70.335938 75.902344 78.6875 84.253906 89.820312 95.386719 98.171875 108.396513 115.099638 120.666044 123.4512 129.017607 134.584013 140.150419" y="-0.390625">KW H=6.12, p=0.047, =0.0027</tspan>
      <tspan style="font: italic 8px 'STIXGeneral'" x="100.957031" y="-0.390625">η</tspan>
      <tspan style="font: 5.6px 'STIXGeneral'" x="105.243398" y="-3.215625">2</tspan>
     </text>
    </g>
   </g>
  </g>
  <g id="axes_3">
   <g id="patch_12">
    <path d="M 374.994688 175.3281 
L 499.418538 175.3281 
L 499.418538 28.9105 
L 374.994688 28.9105 
z
" style="fill: #ffffff"/>
   </g>
   <g id="PolyCollection_7">
    <path d="M 402.966617 168.332712 
L 380.956535 168.332712 
L 380.744418 167.009979 
L 380.650317 165.687245 
L 380.674936 164.364512 
L 380.814805 163.041779 
L 381.062529 161.719045 
L 381.407262 160.396312 
L 381.835366 159.073579 
L 382.331202 157.750845 
L 382.877991 156.428112 
L 383.458681 155.105378 
L 384.056753 153.782645 
L 384.656925 152.459912 
L 385.245705 151.137178 
L 385.811777 149.814445 
L 386.346204 148.491711 
L 386.842475 147.168978 
L 387.296391 145.846245 
L 387.705841 144.523511 
L 388.070496 143.200778 
L 388.391451 141.878045 
L 388.670864 140.555311 
L 388.911602 139.232578 
L 389.116937 137.909844 
L 389.290288 136.587111 
L 389.435025 135.264378 
L 389.554345 133.941644 
L 389.651186 132.618911 
L 389.728208 131.296178 
L 389.787794 129.973444 
L 389.832083 128.650711 
L 389.863013 127.327977 
L 389.88237 126.005244 
L 389.891823 124.682511 
L 389.892963 123.359777 
L 389.887311 122.037044 
L 389.876333 120.714311 
L 389.861426 119.391577 
L 389.843906 118.068844 
L 389.824985 116.74611 
L 389.80575 115.423377 
L 389.787139 114.100644 
L 389.769928 112.77791 
L 389.754716 111.455177 
L 389.741924 110.132444 
L 389.731802 108.80971 
L 389.724437 107.486977 
L 389.719776 106.164243 
L 389.717641 104.84151 
L 389.717763 103.518777 
L 389.719799 102.196043 
L 389.72336 100.87331 
L 389.728031 99.550577 
L 389.733389 98.227843 
L 389.739022 96.90511 
L 389.744535 95.582376 
L 389.749561 94.259643 
L 389.753768 92.93691 
L 389.756863 91.614176 
L 389.758594 90.291443 
L 389.758752 88.96871 
L 389.757172 87.645976 
L 389.753739 86.323243 
L 389.748382 85.000509 
L 389.741079 83.677776 
L 389.731858 82.355043 
L 389.720793 81.032309 
L 389.708011 79.709576 
L 389.693684 78.386842 
L 389.678037 77.064109 
L 389.661342 75.741376 
L 389.643928 74.418642 
L 389.626173 73.095909 
L 389.608514 71.773176 
L 389.591445 70.450442 
L 389.575518 69.127709 
L 389.56134 67.804975 
L 389.549575 66.482242 
L 389.540931 65.159509 
L 389.536153 63.836775 
L 389.536007 62.514042 
L 389.541263 61.191309 
L 389.552671 59.868575 
L 389.570934 58.545842 
L 389.596687 57.223108 
L 389.630462 55.900375 
L 389.672666 54.577642 
L 389.723554 53.254908 
L 389.783211 51.932175 
L 389.851533 50.609442 
L 389.92822 49.286708 
L 390.012774 47.963975 
L 390.104504 46.641241 
L 390.202538 45.318508 
L 390.305846 43.995775 
L 390.413268 42.673041 
L 390.523544 41.350308 
L 390.635353 40.027575 
L 390.747354 38.704841 
L 390.858226 37.382108 
L 393.064926 37.382108 
L 393.064926 37.382108 
L 393.175798 38.704841 
L 393.2878 40.027575 
L 393.399609 41.350308 
L 393.509884 42.673041 
L 393.617306 43.995775 
L 393.720615 45.318508 
L 393.818648 46.641241 
L 393.910378 47.963975 
L 393.994932 49.286708 
L 394.071619 50.609442 
L 394.139941 51.932175 
L 394.199598 53.254908 
L 394.250487 54.577642 
L 394.292691 55.900375 
L 394.326466 57.223108 
L 394.352218 58.545842 
L 394.370482 59.868575 
L 394.381889 61.191309 
L 394.387145 62.514042 
L 394.387 63.836775 
L 394.382222 65.159509 
L 394.373578 66.482242 
L 394.361812 67.804975 
L 394.347635 69.127709 
L 394.331707 70.450442 
L 394.314638 71.773176 
L 394.296979 73.095909 
L 394.279225 74.418642 
L 394.26181 75.741376 
L 394.245116 77.064109 
L 394.229468 78.386842 
L 394.215141 79.709576 
L 394.202359 81.032309 
L 394.191295 82.355043 
L 394.182073 83.677776 
L 394.174771 85.000509 
L 394.169414 86.323243 
L 394.16598 87.645976 
L 394.164401 88.96871 
L 394.164558 90.291443 
L 394.166289 91.614176 
L 394.169384 92.93691 
L 394.173592 94.259643 
L 394.178618 95.582376 
L 394.18413 96.90511 
L 394.189763 98.227843 
L 394.195122 99.550577 
L 394.199792 100.87331 
L 394.203353 102.196043 
L 394.205389 103.518777 
L 394.205511 104.84151 
L 394.203377 106.164243 
L 394.198715 107.486977 
L 394.19135 108.80971 
L 394.181228 110.132444 
L 394.168436 111.455177 
L 394.153224 112.77791 
L 394.136013 114.100644 
L 394.117403 115.423377 
L 394.098167 116.74611 
L 394.079246 118.068844 
L 394.061726 119.391577 
L 394.046819 120.714311 
L 394.035841 122.037044 
L 394.030189 123.359777 
L 394.031329 124.682511 
L 394.040783 126.005244 
L 394.060139 127.327977 
L 394.09107 128.650711 
L 394.135358 129.973444 
L 394.194944 131.296178 
L 394.271966 132.618911 
L 394.368808 133.941644 
L 394.488127 135.264378 
L 394.632865 136.587111 
L 394.806215 137.909844 
L 395.01155 139.232578 
L 395.252289 140.555311 
L 395.531701 141.878045 
L 395.852656 143.200778 
L 396.217311 144.523511 
L 396.626761 145.846245 
L 397.080677 147.168978 
L 397.576948 148.491711 
L 398.111376 149.814445 
L 398.677447 151.137178 
L 399.266227 152.459912 
L 399.8664 153.782645 
L 400.464472 155.105378 
L 401.045161 156.428112 
L 401.59195 157.750845 
L 402.087786 159.073579 
L 402.51589 160.396312 
L 402.860623 161.719045 
L 403.108347 163.041779 
L 403.248216 164.364512 
L 403.272835 165.687245 
L 403.178735 167.009979 
L 402.966617 168.332712 
z
" clip-path="url(#p77d41e7b58)" style="fill: #d55e00; fill-opacity: 0.4"/>
   </g>
   <g id="PolyCollection_8">
    <path d="M 448.160157 168.672755 
L 426.253069 168.672755 
L 426.017432 167.345487 
L 425.897762 166.018219 
L 425.895354 164.690951 
L 426.007387 163.363683 
L 426.227148 162.036415 
L 426.544471 160.709147 
L 426.946367 159.381879 
L 427.417792 158.054612 
L 427.942474 156.727344 
L 428.503763 155.400076 
L 429.085418 154.072808 
L 429.672302 152.74554 
L 430.250933 151.418272 
L 430.809871 150.091004 
L 431.339943 148.763737 
L 431.834302 147.436469 
L 432.288346 146.109201 
L 432.699522 144.781933 
L 433.067057 143.454665 
L 433.391633 142.127397 
L 433.675048 140.800129 
L 433.919901 139.472862 
L 434.129288 138.145594 
L 434.30656 136.818326 
L 434.455122 135.491058 
L 434.578291 134.16379 
L 434.679196 132.836522 
L 434.760721 131.509254 
L 434.825486 130.181986 
L 434.87584 128.854719 
L 434.913882 127.527451 
L 434.941484 126.200183 
L 434.960314 124.872915 
L 434.971868 123.545647 
L 434.977489 122.218379 
L 434.978389 120.891111 
L 434.97566 119.563844 
L 434.970291 118.236576 
L 434.963169 116.909308 
L 434.955087 115.58204 
L 434.946741 114.254772 
L 434.938735 112.927504 
L 434.93157 111.600236 
L 434.925646 110.272968 
L 434.921256 108.945701 
L 434.918581 107.618433 
L 434.91769 106.291165 
L 434.918538 104.963897 
L 434.920974 103.636629 
L 434.924747 102.309361 
L 434.929524 100.982093 
L 434.934908 99.654826 
L 434.940463 98.327558 
L 434.945737 97.00029 
L 434.950295 95.673022 
L 434.953744 94.345754 
L 434.955755 93.018486 
L 434.956083 91.691218 
L 434.954579 90.36395 
L 434.951192 89.036683 
L 434.94597 87.709415 
L 434.939043 86.382147 
L 434.930611 85.054879 
L 434.920923 83.727611 
L 434.910252 82.400343 
L 434.898876 81.073075 
L 434.887064 79.745808 
L 434.875055 78.41854 
L 434.863061 77.091272 
L 434.851262 75.764004 
L 434.839815 74.436736 
L 434.82887 73.109468 
L 434.818582 71.7822 
L 434.809138 70.454932 
L 434.800771 69.127665 
L 434.79378 67.800397 
L 434.788541 66.473129 
L 434.785516 65.145861 
L 434.785249 63.818593 
L 434.78836 62.491325 
L 434.795529 61.164057 
L 434.807473 59.83679 
L 434.824916 58.509522 
L 434.848559 57.182254 
L 434.879048 55.854986 
L 434.916933 54.527718 
L 434.962646 53.20045 
L 435.016464 51.873182 
L 435.078493 50.545915 
L 435.148648 49.218647 
L 435.226645 47.891379 
L 435.312001 46.564111 
L 435.404042 45.236843 
L 435.501915 43.909575 
L 435.604612 42.582307 
L 435.710999 41.255039 
L 435.819848 39.927772 
L 435.929876 38.600504 
L 436.039782 37.273236 
L 438.373444 37.273236 
L 438.373444 37.273236 
L 438.48335 38.600504 
L 438.593377 39.927772 
L 438.702226 41.255039 
L 438.808613 42.582307 
L 438.91131 43.909575 
L 439.009183 45.236843 
L 439.101224 46.564111 
L 439.186581 47.891379 
L 439.264577 49.218647 
L 439.334732 50.545915 
L 439.396761 51.873182 
L 439.450579 53.20045 
L 439.496292 54.527718 
L 439.534178 55.854986 
L 439.564666 57.182254 
L 439.588309 58.509522 
L 439.605752 59.83679 
L 439.617696 61.164057 
L 439.624865 62.491325 
L 439.627976 63.818593 
L 439.627709 65.145861 
L 439.624684 66.473129 
L 439.619445 67.800397 
L 439.612454 69.127665 
L 439.604087 70.454932 
L 439.594643 71.7822 
L 439.584356 73.109468 
L 439.57341 74.436736 
L 439.561963 75.764004 
L 439.550164 77.091272 
L 439.53817 78.41854 
L 439.526161 79.745808 
L 439.514349 81.073075 
L 439.502974 82.400343 
L 439.492302 83.727611 
L 439.482614 85.054879 
L 439.474183 86.382147 
L 439.467256 87.709415 
L 439.462033 89.036683 
L 439.458647 90.36395 
L 439.457142 91.691218 
L 439.45747 93.018486 
L 439.459481 94.345754 
L 439.46293 95.673022 
L 439.467488 97.00029 
L 439.472763 98.327558 
L 439.478317 99.654826 
L 439.483701 100.982093 
L 439.488479 102.309361 
L 439.492252 103.636629 
L 439.494687 104.963897 
L 439.495535 106.291165 
L 439.494644 107.618433 
L 439.491969 108.945701 
L 439.487579 110.272968 
L 439.481656 111.600236 
L 439.474491 112.927504 
L 439.466484 114.254772 
L 439.458139 115.58204 
L 439.450056 116.909308 
L 439.442935 118.236576 
L 439.437565 119.563844 
L 439.434837 120.891111 
L 439.435736 122.218379 
L 439.441357 123.545647 
L 439.452911 124.872915 
L 439.471741 126.200183 
L 439.499343 127.527451 
L 439.537386 128.854719 
L 439.58774 130.181986 
L 439.652504 131.509254 
L 439.73403 132.836522 
L 439.834934 134.16379 
L 439.958103 135.491058 
L 440.106665 136.818326 
L 440.283937 138.145594 
L 440.493324 139.472862 
L 440.738177 140.800129 
L 441.021593 142.127397 
L 441.346168 143.454665 
L 441.713703 144.781933 
L 442.12488 146.109201 
L 442.578923 147.436469 
L 443.073282 148.763737 
L 443.603354 150.091004 
L 444.162292 151.418272 
L 444.740923 152.74554 
L 445.327807 154.072808 
L 445.909462 155.400076 
L 446.470751 156.727344 
L 446.995433 158.054612 
L 447.466858 159.381879 
L 447.868755 160.709147 
L 448.186077 162.036415 
L 448.405838 163.363683 
L 448.517872 164.690951 
L 448.515463 166.018219 
L 448.395793 167.345487 
L 448.160157 168.672755 
z
" clip-path="url(#p77d41e7b58)" style="fill: #0072b2; fill-opacity: 0.4"/>
   </g>
   <g id="PolyCollection_9">
    <path d="M 493.366669 168.334289 
L 471.536629 168.334289 
L 471.289428 166.993194 
L 471.15661 165.652099 
L 471.14039 164.311003 
L 471.238991 162.969908 
L 471.446783 161.628812 
L 471.754636 160.287717 
L 472.150465 158.946622 
L 472.619905 157.605526 
L 473.147093 156.264431 
L 473.71547 154.923335 
L 474.308565 153.58224 
L 474.910707 152.241145 
L 475.507625 150.900049 
L 476.086907 149.558954 
L 476.6383 148.217858 
L 477.153866 146.876763 
L 477.62798 145.535668 
L 478.057216 144.194572 
L 478.440129 142.853477 
L 478.776967 141.512382 
L 479.069355 140.171286 
L 479.319958 138.830191 
L 479.532157 137.489095 
L 479.709762 136.148 
L 479.85676 134.806905 
L 479.977111 133.465809 
L 480.074599 132.124714 
L 480.152722 130.783618 
L 480.21463 129.442523 
L 480.263093 128.101428 
L 480.300501 126.760332 
L 480.328874 125.419237 
L 480.349898 124.078141 
L 480.364951 122.737046 
L 480.375147 121.395951 
L 480.381368 120.054855 
L 480.3843 118.71376 
L 480.384459 117.372664 
L 480.382223 116.031569 
L 480.377846 114.690474 
L 480.371486 113.349378 
L 480.363221 112.008283 
L 480.353063 110.667187 
L 480.340979 109.326092 
L 480.326905 107.984997 
L 480.310764 106.643901 
L 480.292484 105.302806 
L 480.272009 103.961711 
L 480.249323 102.620615 
L 480.224455 101.27952 
L 480.197496 99.938424 
L 480.168607 98.597329 
L 480.138022 97.256234 
L 480.106049 95.915138 
L 480.073069 94.574043 
L 480.039525 93.232947 
L 480.005914 91.891852 
L 479.972765 90.550757 
L 479.940625 89.209661 
L 479.910035 87.868566 
L 479.881506 86.52747 
L 479.855502 85.186375 
L 479.832415 83.84528 
L 479.812552 82.504184 
L 479.796121 81.163089 
L 479.783227 79.821993 
L 479.773872 78.480898 
L 479.767962 77.139803 
L 479.765321 75.798707 
L 479.765713 74.457612 
L 479.768864 73.116516 
L 479.774494 71.775421 
L 479.782339 70.434326 
L 479.792185 69.09323 
L 479.803891 67.752135 
L 479.817408 66.411039 
L 479.832796 65.069944 
L 479.850228 63.728849 
L 479.869992 62.387753 
L 479.892481 61.046658 
L 479.918181 59.705563 
L 479.947642 58.364467 
L 479.981459 57.023372 
L 480.020233 55.682276 
L 480.064541 54.341181 
L 480.114904 53.000086 
L 480.171748 51.65899 
L 480.235375 50.317895 
L 480.30594 48.976799 
L 480.383428 47.635704 
L 480.467635 46.294609 
L 480.558173 44.953513 
L 480.65446 43.612418 
L 480.755739 42.271322 
L 480.861093 40.930227 
L 480.969471 39.589132 
L 481.079725 38.248036 
L 481.19064 36.906941 
L 481.300981 35.565845 
L 483.602317 35.565845 
L 483.602317 35.565845 
L 483.712659 36.906941 
L 483.823574 38.248036 
L 483.933827 39.589132 
L 484.042206 40.930227 
L 484.147559 42.271322 
L 484.248838 43.612418 
L 484.345125 44.953513 
L 484.435663 46.294609 
L 484.519871 47.635704 
L 484.597358 48.976799 
L 484.667923 50.317895 
L 484.731551 51.65899 
L 484.788394 53.000086 
L 484.838757 54.341181 
L 484.883066 55.682276 
L 484.921839 57.023372 
L 484.955656 58.364467 
L 484.985117 59.705563 
L 485.010817 61.046658 
L 485.033306 62.387753 
L 485.05307 63.728849 
L 485.070502 65.069944 
L 485.08589 66.411039 
L 485.099407 67.752135 
L 485.111113 69.09323 
L 485.12096 70.434326 
L 485.128805 71.775421 
L 485.134434 73.116516 
L 485.137585 74.457612 
L 485.137977 75.798707 
L 485.135336 77.139803 
L 485.129426 78.480898 
L 485.120071 79.821993 
L 485.107177 81.163089 
L 485.090747 82.504184 
L 485.070884 83.84528 
L 485.047797 85.186375 
L 485.021792 86.52747 
L 484.993264 87.868566 
L 484.962673 89.209661 
L 484.930533 90.550757 
L 484.897384 91.891852 
L 484.863773 93.232947 
L 484.83023 94.574043 
L 484.797249 95.915138 
L 484.765276 97.256234 
L 484.734691 98.597329 
L 484.705802 99.938424 
L 484.678843 101.27952 
L 484.653975 102.620615 
L 484.631289 103.961711 
L 484.610815 105.302806 
L 484.592534 106.643901 
L 484.576393 107.984997 
L 484.562319 109.326092 
L 484.550235 110.667187 
L 484.540077 112.008283 
L 484.531812 113.349378 
L 484.525452 114.690474 
L 484.521076 116.031569 
L 484.518839 117.372664 
L 484.518998 118.71376 
L 484.52193 120.054855 
L 484.528152 121.395951 
L 484.538347 122.737046 
L 484.553401 124.078141 
L 484.574424 125.419237 
L 484.602798 126.760332 
L 484.640205 128.101428 
L 484.688668 129.442523 
L 484.750576 130.783618 
L 484.828699 132.124714 
L 484.926187 133.465809 
L 485.046538 134.806905 
L 485.193536 136.148 
L 485.371142 137.489095 
L 485.583341 138.830191 
L 485.833943 140.171286 
L 486.126331 141.512382 
L 486.46317 142.853477 
L 486.846082 144.194572 
L 487.275318 145.535668 
L 487.749432 146.876763 
L 488.264998 148.217858 
L 488.816392 149.558954 
L 489.395673 150.900049 
L 489.992592 152.241145 
L 490.594734 153.58224 
L 491.187828 154.923335 
L 491.756205 156.264431 
L 492.283393 157.605526 
L 492.752833 158.946622 
L 493.148662 160.287717 
L 493.456515 161.628812 
L 493.664307 162.969908 
L 493.762908 164.311003 
L 493.746688 165.652099 
L 493.61387 166.993194 
L 493.366669 168.334289 
z
" clip-path="url(#p77d41e7b58)" style="fill: #009e73; fill-opacity: 0.4"/>
   </g>
   <g id="matplotlib.axis_5">
    <g id="xtick_7">
     <g id="line2d_33">
      <path d="M 391.961576 175.3281 
L 391.961576 28.9105 
" clip-path="url(#p77d41e7b58)" style="fill: none; stroke-dasharray: 2.96,1.28; stroke-dashoffset: 0; stroke: #b0b0b0; stroke-opacity: 0.3; stroke-width: 0.8"/>
     </g>
     <g id="line2d_34">
      <g>
       <use xlink:href="#m3d97e39cd5" x="391.961576" y="175.3281" style="stroke: #000000; stroke-width: 0.8"/>
      </g>
     </g>
     <g id="text_27">
      <text style="font: 7px 'Times New Roman', 'Times', 'DejaVu Serif', serif; text-anchor: middle" x="391.961576" y="187.647006" transform="rotate(-0 391.961576 187.647006)">MMD</text>
     </g>
    </g>
    <g id="xtick_8">
     <g id="line2d_35">
      <path d="M 437.206613 175.3281 
L 437.206613 28.9105 
" clip-path="url(#p77d41e7b58)" style="fill: none; stroke-dasharray: 2.96,1.28; stroke-dashoffset: 0; stroke: #b0b0b0; stroke-opacity: 0.3; stroke-width: 0.8"/>
     </g>
     <g id="line2d_36">
      <g>
       <use xlink:href="#m3d97e39cd5" x="437.206613" y="175.3281" style="stroke: #000000; stroke-width: 0.8"/>
      </g>
     </g>
     <g id="text_28">
      <text style="font: 7px 'Times New Roman', 'Times', 'DejaVu Serif', serif; text-anchor: middle" x="437.206613" y="187.647006" transform="rotate(-0 437.206613 187.647006)">DTW</text>
     </g>
    </g>
    <g id="xtick_9">
     <g id="line2d_37">
      <path d="M 482.451649 175.3281 
L 482.451649 28.9105 
" clip-path="url(#p77d41e7b58)" style="fill: none; stroke-dasharray: 2.96,1.28; stroke-dashoffset: 0; stroke: #b0b0b0; stroke-opacity: 0.3; stroke-width: 0.8"/>
     </g>
     <g id="line2d_38">
      <g>
       <use xlink:href="#m3d97e39cd5" x="482.451649" y="175.3281" style="stroke: #000000; stroke-width: 0.8"/>
      </g>
     </g>
     <g id="text_29">
      <text style="font: 7px 'Times New Roman', 'Times', 'DejaVu Serif', serif; text-anchor: middle" x="482.451649" y="187.647006" transform="rotate(-0 482.451649 187.647006)">Wasserstein</text>
     </g>
    </g>
   </g>
   <g id="matplotlib.axis_6">
    <g id="ytick_11">
     <g id="line2d_39">
      <path d="M 374.994688 174.806551 
L 499.418538 174.806551 
" clip-path="url(#p77d41e7b58)" style="fill: none; stroke-dasharray: 2.96,1.28; stroke-dashoffset: 0; stroke: #b0b0b0; stroke-opacity: 0.3; stroke-width: 0.8"/>
     </g>
     <g id="line2d_40">
      <g>
       <use xlink:href="#m21d414704a" x="374.994688" y="174.806551" style="stroke: #000000; stroke-width: 0.8"/>
      </g>
     </g>
     <g id="text_30">
      <text style="font: 7px 'Times New Roman', 'Times', 'DejaVu Serif', serif; text-anchor: end" x="367.994688" y="177.466005" transform="rotate(-0 367.994688 177.466005)">0.0</text>
     </g>
    </g>
    <g id="ytick_12">
     <g id="line2d_41">
      <path d="M 374.994688 143.77057 
L 499.418538 143.77057 
" clip-path="url(#p77d41e7b58)" style="fill: none; stroke-dasharray: 2.96,1.28; stroke-dashoffset: 0; stroke: #b0b0b0; stroke-opacity: 0.3; stroke-width: 0.8"/>
     </g>
     <g id="line2d_42">
      <g>
       <use xlink:href="#m21d414704a" x="374.994688" y="143.77057" style="stroke: #000000; stroke-width: 0.8"/>
      </g>
     </g>
     <g id="text_31">
      <text style="font: 7px 'Times New Roman', 'Times', 'DejaVu Serif', serif; text-anchor: end" x="367.994688" y="146.430023" transform="rotate(-0 367.994688 146.430023)">0.2</text>
     </g>
    </g>
    <g id="ytick_13">
     <g id="line2d_43">
      <path d="M 374.994688 112.734588 
L 499.418538 112.734588 
" clip-path="url(#p77d41e7b58)" style="fill: none; stroke-dasharray: 2.96,1.28; stroke-dashoffset: 0; stroke: #b0b0b0; stroke-opacity: 0.3; stroke-width: 0.8"/>
     </g>
     <g id="line2d_44">
      <g>
       <use xlink:href="#m21d414704a" x="374.994688" y="112.734588" style="stroke: #000000; stroke-width: 0.8"/>
      </g>
     </g>
     <g id="text_32">
      <text style="font: 7px 'Times New Roman', 'Times', 'DejaVu Serif', serif; text-anchor: end" x="367.994688" y="115.394041" transform="rotate(-0 367.994688 115.394041)">0.4</text>
     </g>
    </g>
    <g id="ytick_14">
     <g id="line2d_45">
      <path d="M 374.994688 81.698606 
L 499.418538 81.698606 
" clip-path="url(#p77d41e7b58)" style="fill: none; stroke-dasharray: 2.96,1.28; stroke-dashoffset: 0; stroke: #b0b0b0; stroke-opacity: 0.3; stroke-width: 0.8"/>
     </g>
     <g id="line2d_46">
      <g>
       <use xlink:href="#m21d414704a" x="374.994688" y="81.698606" style="stroke: #000000; stroke-width: 0.8"/>
      </g>
     </g>
     <g id="text_33">
      <text style="font: 7px 'Times New Roman', 'Times', 'DejaVu Serif', serif; text-anchor: end" x="367.994688" y="84.35806" transform="rotate(-0 367.994688 84.35806)">0.6</text>
     </g>
    </g>
    <g id="ytick_15">
     <g id="line2d_47">
      <path d="M 374.994688 50.662625 
L 499.418538 50.662625 
" clip-path="url(#p77d41e7b58)" style="fill: none; stroke-dasharray: 2.96,1.28; stroke-dashoffset: 0; stroke: #b0b0b0; stroke-opacity: 0.3; stroke-width: 0.8"/>
     </g>
     <g id="line2d_48">
      <g>
       <use xlink:href="#m21d414704a" x="374.994688" y="50.662625" style="stroke: #000000; stroke-width: 0.8"/>
      </g>
     </g>
     <g id="text_34">
      <text style="font: 7px 'Times New Roman', 'Times', 'DejaVu Serif', serif; text-anchor: end" x="367.994688" y="53.322078" transform="rotate(-0 367.994688 53.322078)">0.8</text>
     </g>
    </g>
    <g id="text_35">
     <text style="font: 8px 'Times New Roman', 'Times', 'DejaVu Serif', serif; text-anchor: middle" x="351.19875" y="102.1193" transform="rotate(-90 351.19875 102.1193)">AUPRC</text>
    </g>
   </g>
   <g id="LineCollection_5">
    <path d="M 386.305947 134.792632 
L 397.617206 134.792632 
" clip-path="url(#p77d41e7b58)" style="fill: none; stroke: #000000; stroke-width: 1.5"/>
    <path d="M 431.550983 134.471959 
L 442.862242 134.471959 
" clip-path="url(#p77d41e7b58)" style="fill: none; stroke: #000000; stroke-width: 1.5"/>
    <path d="M 476.79602 132.980001 
L 488.107279 132.980001 
" clip-path="url(#p77d41e7b58)" style="fill: none; stroke: #000000; stroke-width: 1.5"/>
   </g>
   <g id="LineCollection_6">
    <path d="M 386.305947 162.869591 
L 397.617206 162.869591 
" clip-path="url(#p77d41e7b58)" style="fill: none; stroke: #d55e00; stroke-width: 1.5"/>
    <path d="M 431.550983 162.985926 
L 442.862242 162.985926 
" clip-path="url(#p77d41e7b58)" style="fill: none; stroke: #d55e00; stroke-width: 1.5"/>
    <path d="M 476.79602 161.65249 
L 488.107279 161.65249 
" clip-path="url(#p77d41e7b58)" style="fill: none; stroke: #d55e00; stroke-width: 1.5"/>
   </g>
   <g id="patch_13">
    <path d="M 374.994688 175.3281 
L 374.994688 28.9105 
" style="fill: none; stroke: #000000; stroke-width: 0.8; stroke-linejoin: miter; stroke-linecap: square"/>
   </g>
   <g id="patch_14">
    <path d="M 499.418538 175.3281 
L 499.418538 28.9105 
" style="fill: none; stroke: #000000; stroke-width: 0.8; stroke-linejoin: miter; stroke-linecap: square"/>
   </g>
   <g id="patch_15">
    <path d="M 374.994688 175.3281 
L 499.418538 175.3281 
" style="fill: none; stroke: #000000; stroke-width: 0.8; stroke-linejoin: miter; stroke-linecap: square"/>
   </g>
   <g id="patch_16">
    <path d="M 374.994688 28.9105 
L 499.418538 28.9105 
" style="fill: none; stroke: #000000; stroke-width: 0.8; stroke-linejoin: miter; stroke-linecap: square"/>
   </g>
   <g id="text_36">
    <text style="font: 700 6.5px 'Times New Roman', 'Times', 'DejaVu Serif', serif; text-anchor: middle" x="391.961576" y="131.889036" transform="rotate(-0 391.961576 131.889036)">0.258</text>
   </g>
   <g id="text_37">
    <text style="font: 700 6.5px 'Times New Roman', 'Times', 'DejaVu Serif', serif; text-anchor: middle" x="437.206613" y="131.568363" transform="rotate(-0 437.206613 131.568363)">0.260</text>
   </g>
   <g id="text_38">
    <text style="font: 700 6.5px 'Times New Roman', 'Times', 'DejaVu Serif', serif; text-anchor: middle" x="482.451649" y="130.076405" transform="rotate(-0 482.451649 130.076405)">0.270</text>
   </g>
   <g id="text_39">
    <text style="font: 700 8px 'Times New Roman', 'Times', 'DejaVu Serif', serif" transform="translate(421.098488 13.27875)">AUPRC</text>
    <!-- KW H=2.76, p=0.252, $\eta^2$=0.0005 -->
    <g transform="translate(364.446613 22.9105)">
     <text>
      <tspan style="font: 700 8px 'DejaVu Serif'" x="0 6.953125 15.9375 18.722656 26.28125 32.984375 38.550781 41.335938 46.902344 52.46875 55.253906 58.039062 63.632812 70.335938 75.902344 78.4375 84.003906 89.570312 95.136719 97.921875 108.146513 114.849638 120.416044 123.2012 128.767607 134.334013 139.900419" y="-0.390625">KW H=2.76, p=0.252, =0.0005</tspan>
      <tspan style="font: italic 8px 'STIXGeneral'" x="100.707031" y="-0.390625">η</tspan>
      <tspan style="font: 5.6px 'STIXGeneral'" x="104.993398" y="-3.215625">2</tspan>
     </text>
    </g>
   </g>
  </g>
 </g>
 <defs>
  <clipPath id="p5c13dea2bf">
   <rect x="37.074688" y="28.9105" width="124.42385" height="146.4176"/>
  </clipPath>
  <clipPath id="pe6634d1e40">
   <rect x="206.034688" y="28.9105" width="124.42385" height="146.4176"/>
  </clipPath>
  <clipPath id="p77d41e7b58">
   <rect x="374.994688" y="28.9105" width="124.42385" height="146.4176"/>
  </clipPath>
 </defs>
</svg>
