<?xml version="1.0" encoding="utf-8" standalone="no"?>
<!DOCTYPE svg PUBLIC "-//W3C//DTD SVG 1.1//EN"
  "http://www.w3.org/Graphics/SVG/1.1/DTD/svg11.dtd">
<svg xmlns:xlink="http://www.w3.org/1999/xlink" width="432pt" height="288pt" viewBox="0 0 432 288" xmlns="http://www.w3.org/2000/svg" version="1.1">
 <metadata>
  <rdf:RDF xmlns:dc="http://purl.org/dc/elements/1.1/" xmlns:cc="http://creativecommons.org/ns#" xmlns:rdf="http://www.w3.org/1999/02/22-rdf-syntax-ns#">
   <cc:Work>
    <dc:type rdf:resource="http://purl.org/dc/dcmitype/StillImage"/>
    <dc:date>2025-06-15T13:37:54.963369</dc:date>
    <dc:format>image/svg+xml</dc:format>
    <dc:creator>
     <cc:Agent>
      <dc:title>Matplotlib v3.10.0, https://matplotlib.org/</dc:title>
     </cc:Agent>
    </dc:creator>
   </cc:Work>
  </rdf:RDF>
 </metadata>
 <defs>
  <style type="text/css">*{stroke-linejoin: round; stroke-linecap: butt}</style>
 </defs>
 <g id="figure_1">
  <g id="patch_1">
   <path d="M 0 288 
L 432 288 
L 432 0 
L 0 0 
z
" style="fill: #ffffff"/>
  </g>
  <g id="axes_1">
   <g id="patch_2">
    <path d="M 57.17 245.93875 
L 417.707899 245.93875 
L 417.707899 26.88 
L 57.17 26.88 
z
" style="fill: #ffffff"/>
   </g>
   <g id="patch_3">
    <path d="M 73.558086 245.93875 
L 80.113321 245.93875 
L 80.113321 37.311369 
L 73.558086 37.311369 
z
" clip-path="url(#pde735ffebc)" style="fill: #1f77b4"/>
   </g>
   <g id="patch_4">
    <path d="M 80.113321 245.93875 
L 86.668555 245.93875 
L 86.668555 171.28861 
L 80.113321 171.28861 
z
" clip-path="url(#pde735ffebc)" style="fill: #1f77b4"/>
   </g>
   <g id="patch_5">
    <path d="M 86.668555 245.93875 
L 93.22379 245.93875 
L 93.22379 201.691817 
L 86.668555 201.691817 
z
" clip-path="url(#pde735ffebc)" style="fill: #1f77b4"/>
   </g>
   <g id="patch_6">
    <path d="M 93.22379 245.93875 
L 99.779024 245.93875 
L 99.779024 217.787632 
L 93.22379 217.787632 
z
" clip-path="url(#pde735ffebc)" style="fill: #1f77b4"/>
   </g>
   <g id="patch_7">
    <path d="M 99.779024 245.93875 
L 106.334259 245.93875 
L 106.334259 226.442721 
L 99.779024 226.442721 
z
" clip-path="url(#pde735ffebc)" style="fill: #1f77b4"/>
   </g>
   <g id="patch_8">
    <path d="M 106.334259 245.93875 
L 112.889494 245.93875 
L 112.889494 231.233931 
L 106.334259 231.233931 
z
" clip-path="url(#pde735ffebc)" style="fill: #1f77b4"/>
   </g>
   <g id="patch_9">
    <path d="M 112.889494 245.93875 
L 119.444728 245.93875 
L 119.444728 234.214637 
L 112.889494 234.214637 
z
" clip-path="url(#pde735ffebc)" style="fill: #1f77b4"/>
   </g>
   <g id="patch_10">
    <path d="M 119.444728 245.93875 
L 125.999963 245.93875 
L 125.999963 237.195344 
L 119.444728 237.195344 
z
" clip-path="url(#pde735ffebc)" style="fill: #1f77b4"/>
   </g>
   <g id="patch_11">
    <path d="M 125.999963 245.93875 
L 132.555197 245.93875 
L 132.555197 239.314958 
L 125.999963 239.314958 
z
" clip-path="url(#pde735ffebc)" style="fill: #1f77b4"/>
   </g>
   <g id="patch_12">
    <path d="M 132.555197 245.93875 
L 139.110432 245.93875 
L 139.110432 240.352685 
L 132.555197 240.352685 
z
" clip-path="url(#pde735ffebc)" style="fill: #1f77b4"/>
   </g>
   <g id="patch_13">
    <path d="M 139.110432 245.93875 
L 145.665666 245.93875 
L 145.665666 241.280016 
L 139.110432 241.280016 
z
" clip-path="url(#pde735ffebc)" style="fill: #1f77b4"/>
   </g>
   <g id="patch_14">
    <path d="M 145.665666 245.93875 
L 152.220901 245.93875 
L 152.220901 242.516457 
L 145.665666 242.516457 
z
" clip-path="url(#pde735ffebc)" style="fill: #1f77b4"/>
   </g>
   <g id="patch_15">
    <path d="M 152.220901 245.93875 
L 158.776135 245.93875 
L 158.776135 243.37755 
L 152.220901 243.37755 
z
" clip-path="url(#pde735ffebc)" style="fill: #1f77b4"/>
   </g>
   <g id="patch_16">
    <path d="M 158.776135 245.93875 
L 165.33137 245.93875 
L 165.33137 243.510026 
L 158.776135 243.510026 
z
" clip-path="url(#pde735ffebc)" style="fill: #1f77b4"/>
   </g>
   <g id="patch_17">
    <path d="M 165.33137 245.93875 
L 171.886604 245.93875 
L 171.886604 243.929533 
L 165.33137 243.929533 
z
" clip-path="url(#pde735ffebc)" style="fill: #1f77b4"/>
   </g>
   <g id="patch_18">
    <path d="M 171.886604 245.93875 
L 178.441839 245.93875 
L 178.441839 244.326961 
L 171.886604 244.326961 
z
" clip-path="url(#pde735ffebc)" style="fill: #1f77b4"/>
   </g>
   <g id="patch_19">
    <path d="M 178.441839 245.93875 
L 184.997073 245.93875 
L 184.997073 244.481516 
L 178.441839 244.481516 
z
" clip-path="url(#pde735ffebc)" style="fill: #1f77b4"/>
   </g>
   <g id="patch_20">
    <path d="M 184.997073 245.93875 
L 191.552308 245.93875 
L 191.552308 244.569833 
L 184.997073 244.569833 
z
" clip-path="url(#pde735ffebc)" style="fill: #1f77b4"/>
   </g>
   <g id="patch_21">
    <path d="M 191.552308 245.93875 
L 198.107542 245.93875 
L 198.107542 245.099736 
L 191.552308 245.099736 
z
" clip-path="url(#pde735ffebc)" style="fill: #1f77b4"/>
   </g>
   <g id="patch_22">
    <path d="M 198.107542 245.93875 
L 204.662777 245.93875 
L 204.662777 245.165974 
L 198.107542 245.165974 
z
" clip-path="url(#pde735ffebc)" style="fill: #1f77b4"/>
   </g>
   <g id="patch_23">
    <path d="M 204.662777 245.93875 
L 211.218012 245.93875 
L 211.218012 245.364688 
L 204.662777 245.364688 
z
" clip-path="url(#pde735ffebc)" style="fill: #1f77b4"/>
   </g>
   <g id="patch_24">
    <path d="M 211.218012 245.93875 
L 217.773246 245.93875 
L 217.773246 245.364688 
L 211.218012 245.364688 
z
" clip-path="url(#pde735ffebc)" style="fill: #1f77b4"/>
   </g>
   <g id="patch_25">
    <path d="M 217.773246 245.93875 
L 224.328481 245.93875 
L 224.328481 245.453005 
L 217.773246 245.453005 
z
" clip-path="url(#pde735ffebc)" style="fill: #1f77b4"/>
   </g>
   <g id="patch_26">
    <path d="M 224.328481 245.93875 
L 230.883715 245.93875 
L 230.883715 245.585481 
L 224.328481 245.585481 
z
" clip-path="url(#pde735ffebc)" style="fill: #1f77b4"/>
   </g>
   <g id="patch_27">
    <path d="M 230.883715 245.93875 
L 237.43895 245.93875 
L 237.43895 245.717957 
L 230.883715 245.717957 
z
" clip-path="url(#pde735ffebc)" style="fill: #1f77b4"/>
   </g>
   <g id="patch_28">
    <path d="M 237.43895 245.93875 
L 243.994184 245.93875 
L 243.994184 245.673798 
L 237.43895 245.673798 
z
" clip-path="url(#pde735ffebc)" style="fill: #1f77b4"/>
   </g>
   <g id="patch_29">
    <path d="M 243.994184 245.93875 
L 250.549419 245.93875 
L 250.549419 245.60756 
L 243.994184 245.60756 
z
" clip-path="url(#pde735ffebc)" style="fill: #1f77b4"/>
   </g>
   <g id="patch_30">
    <path d="M 250.549419 245.93875 
L 257.104653 245.93875 
L 257.104653 245.740036 
L 250.549419 245.740036 
z
" clip-path="url(#pde735ffebc)" style="fill: #1f77b4"/>
   </g>
   <g id="patch_31">
    <path d="M 257.104653 245.93875 
L 263.659888 245.93875 
L 263.659888 245.717957 
L 257.104653 245.717957 
z
" clip-path="url(#pde735ffebc)" style="fill: #1f77b4"/>
   </g>
   <g id="patch_32">
    <path d="M 263.659888 245.93875 
L 270.215122 245.93875 
L 270.215122 245.695878 
L 263.659888 245.695878 
z
" clip-path="url(#pde735ffebc)" style="fill: #1f77b4"/>
   </g>
   <g id="patch_33">
    <path d="M 270.215122 245.93875 
L 276.770357 245.93875 
L 276.770357 245.872512 
L 270.215122 245.872512 
z
" clip-path="url(#pde735ffebc)" style="fill: #1f77b4"/>
   </g>
   <g id="patch_34">
    <path d="M 276.770357 245.93875 
L 283.325591 245.93875 
L 283.325591 245.806274 
L 276.770357 245.806274 
z
" clip-path="url(#pde735ffebc)" style="fill: #1f77b4"/>
   </g>
   <g id="patch_35">
    <path d="M 283.325591 245.93875 
L 289.880826 245.93875 
L 289.880826 245.806274 
L 283.325591 245.806274 
z
" clip-path="url(#pde735ffebc)" style="fill: #1f77b4"/>
   </g>
   <g id="patch_36">
    <path d="M 289.880826 245.93875 
L 296.43606 245.93875 
L 296.43606 245.872512 
L 289.880826 245.872512 
z
" clip-path="url(#pde735ffebc)" style="fill: #1f77b4"/>
   </g>
   <g id="patch_37">
    <path d="M 296.43606 245.93875 
L 302.991295 245.93875 
L 302.991295 245.916671 
L 296.43606 245.916671 
z
" clip-path="url(#pde735ffebc)" style="fill: #1f77b4"/>
   </g>
   <g id="patch_38">
    <path d="M 302.991295 245.93875 
L 309.546529 245.93875 
L 309.546529 245.850433 
L 302.991295 245.850433 
z
" clip-path="url(#pde735ffebc)" style="fill: #1f77b4"/>
   </g>
   <g id="patch_39">
    <path d="M 309.546529 245.93875 
L 316.101764 245.93875 
L 316.101764 245.894591 
L 309.546529 245.894591 
z
" clip-path="url(#pde735ffebc)" style="fill: #1f77b4"/>
   </g>
   <g id="patch_40">
    <path d="M 316.101764 245.93875 
L 322.656999 245.93875 
L 322.656999 245.872512 
L 316.101764 245.872512 
z
" clip-path="url(#pde735ffebc)" style="fill: #1f77b4"/>
   </g>
   <g id="patch_41">
    <path d="M 322.656999 245.93875 
L 329.212233 245.93875 
L 329.212233 245.916671 
L 322.656999 245.916671 
z
" clip-path="url(#pde735ffebc)" style="fill: #1f77b4"/>
   </g>
   <g id="patch_42">
    <path d="M 329.212233 245.93875 
L 335.767468 245.93875 
L 335.767468 245.916671 
L 329.212233 245.916671 
z
" clip-path="url(#pde735ffebc)" style="fill: #1f77b4"/>
   </g>
   <g id="patch_43">
    <path d="M 335.767468 245.93875 
L 342.322702 245.93875 
L 342.322702 245.93875 
L 335.767468 245.93875 
z
" clip-path="url(#pde735ffebc)" style="fill: #1f77b4"/>
   </g>
   <g id="patch_44">
    <path d="M 342.322702 245.93875 
L 348.877937 245.93875 
L 348.877937 245.916671 
L 342.322702 245.916671 
z
" clip-path="url(#pde735ffebc)" style="fill: #1f77b4"/>
   </g>
   <g id="patch_45">
    <path d="M 348.877937 245.93875 
L 355.433171 245.93875 
L 355.433171 245.916671 
L 348.877937 245.916671 
z
" clip-path="url(#pde735ffebc)" style="fill: #1f77b4"/>
   </g>
   <g id="patch_46">
    <path d="M 355.433171 245.93875 
L 361.988406 245.93875 
L 361.988406 245.93875 
L 355.433171 245.93875 
z
" clip-path="url(#pde735ffebc)" style="fill: #1f77b4"/>
   </g>
   <g id="patch_47">
    <path d="M 361.988406 245.93875 
L 368.54364 245.93875 
L 368.54364 245.916671 
L 361.988406 245.916671 
z
" clip-path="url(#pde735ffebc)" style="fill: #1f77b4"/>
   </g>
   <g id="patch_48">
    <path d="M 368.54364 245.93875 
L 375.098875 245.93875 
L 375.098875 245.916671 
L 368.54364 245.916671 
z
" clip-path="url(#pde735ffebc)" style="fill: #1f77b4"/>
   </g>
   <g id="patch_49">
    <path d="M 375.098875 245.93875 
L 381.654109 245.93875 
L 381.654109 245.93875 
L 375.098875 245.93875 
z
" clip-path="url(#pde735ffebc)" style="fill: #1f77b4"/>
   </g>
   <g id="patch_50">
    <path d="M 381.654109 245.93875 
L 388.209344 245.93875 
L 388.209344 245.93875 
L 381.654109 245.93875 
z
" clip-path="url(#pde735ffebc)" style="fill: #1f77b4"/>
   </g>
   <g id="patch_51">
    <path d="M 388.209344 245.93875 
L 394.764578 245.93875 
L 394.764578 245.894591 
L 388.209344 245.894591 
z
" clip-path="url(#pde735ffebc)" style="fill: #1f77b4"/>
   </g>
   <g id="patch_52">
    <path d="M 394.764578 245.93875 
L 401.319813 245.93875 
L 401.319813 245.894591 
L 394.764578 245.894591 
z
" clip-path="url(#pde735ffebc)" style="fill: #1f77b4"/>
   </g>
   <g id="matplotlib.axis_1">
    <g id="xtick_1">
     <g id="line2d_1">
      <path d="M 73.558086 245.93875 
L 73.558086 26.88 
" clip-path="url(#pde735ffebc)" style="fill: none; stroke: #b0b0b0; stroke-width: 0.8; stroke-linecap: square"/>
     </g>
     <g id="line2d_2">
      <defs>
       <path id="m78cd700a22" d="M 0 0 
L 0 3.5 
" style="stroke: #000000; stroke-width: 0.8"/>
      </defs>
      <g>
       <use xlink:href="#m78cd700a22" x="73.558086" y="245.93875" style="stroke: #000000; stroke-width: 0.8"/>
      </g>
     </g>
     <g id="text_1">
      <!-- 0.0 -->
      <g transform="translate(65.606524 260.537188) scale(0.1 -0.1)">
       <defs>
        <path id="DejaVuSans-30" d="M 2034 4250 
Q 1547 4250 1301 3770 
Q 1056 3291 1056 2328 
Q 1056 1369 1301 889 
Q 1547 409 2034 409 
Q 2525 409 2770 889 
Q 3016 1369 3016 2328 
Q 3016 3291 2770 3770 
Q 2525 4250 2034 4250 
z
M 2034 4750 
Q 2819 4750 3233 4129 
Q 3647 3509 3647 2328 
Q 3647 1150 3233 529 
Q 2819 -91 2034 -91 
Q 1250 -91 836 529 
Q 422 1150 422 2328 
Q 422 3509 836 4129 
Q 1250 4750 2034 4750 
z
" transform="scale(0.015625)"/>
        <path id="DejaVuSans-2e" d="M 684 794 
L 1344 794 
L 1344 0 
L 684 0 
L 684 794 
z
" transform="scale(0.015625)"/>
       </defs>
       <use xlink:href="#DejaVuSans-30"/>
       <use xlink:href="#DejaVuSans-2e" transform="translate(63.623047 0)"/>
       <use xlink:href="#DejaVuSans-30" transform="translate(95.410156 0)"/>
      </g>
     </g>
    </g>
    <g id="xtick_2">
     <g id="line2d_3">
      <path d="M 115.562814 245.93875 
L 115.562814 26.88 
" clip-path="url(#pde735ffebc)" style="fill: none; stroke: #b0b0b0; stroke-width: 0.8; stroke-linecap: square"/>
     </g>
     <g id="line2d_4">
      <g>
       <use xlink:href="#m78cd700a22" x="115.562814" y="245.93875" style="stroke: #000000; stroke-width: 0.8"/>
      </g>
     </g>
     <g id="text_2">
      <!-- 2.5 -->
      <g transform="translate(107.611251 260.537188) scale(0.1 -0.1)">
       <defs>
        <path id="DejaVuSans-32" d="M 1228 531 
L 3431 531 
L 3431 0 
L 469 0 
L 469 531 
Q 828 903 1448 1529 
Q 2069 2156 2228 2338 
Q 2531 2678 2651 2914 
Q 2772 3150 2772 3378 
Q 2772 3750 2511 3984 
Q 2250 4219 1831 4219 
Q 1534 4219 1204 4116 
Q 875 4013 500 3803 
L 500 4441 
Q 881 4594 1212 4672 
Q 1544 4750 1819 4750 
Q 2544 4750 2975 4387 
Q 3406 4025 3406 3419 
Q 3406 3131 3298 2873 
Q 3191 2616 2906 2266 
Q 2828 2175 2409 1742 
Q 1991 1309 1228 531 
z
" transform="scale(0.015625)"/>
        <path id="DejaVuSans-35" d="M 691 4666 
L 3169 4666 
L 3169 4134 
L 1269 4134 
L 1269 2991 
Q 1406 3038 1543 3061 
Q 1681 3084 1819 3084 
Q 2600 3084 3056 2656 
Q 3513 2228 3513 1497 
Q 3513 744 3044 326 
Q 2575 -91 1722 -91 
Q 1428 -91 1123 -41 
Q 819 9 494 109 
L 494 744 
Q 775 591 1075 516 
Q 1375 441 1709 441 
Q 2250 441 2565 725 
Q 2881 1009 2881 1497 
Q 2881 1984 2565 2268 
Q 2250 2553 1709 2553 
Q 1456 2553 1204 2497 
Q 953 2441 691 2322 
L 691 4666 
z
" transform="scale(0.015625)"/>
       </defs>
       <use xlink:href="#DejaVuSans-32"/>
       <use xlink:href="#DejaVuSans-2e" transform="translate(63.623047 0)"/>
       <use xlink:href="#DejaVuSans-35" transform="translate(95.410156 0)"/>
      </g>
     </g>
    </g>
    <g id="xtick_3">
     <g id="line2d_5">
      <path d="M 157.567541 245.93875 
L 157.567541 26.88 
" clip-path="url(#pde735ffebc)" style="fill: none; stroke: #b0b0b0; stroke-width: 0.8; stroke-linecap: square"/>
     </g>
     <g id="line2d_6">
      <g>
       <use xlink:href="#m78cd700a22" x="157.567541" y="245.93875" style="stroke: #000000; stroke-width: 0.8"/>
      </g>
     </g>
     <g id="text_3">
      <!-- 5.0 -->
      <g transform="translate(149.615979 260.537188) scale(0.1 -0.1)">
       <use xlink:href="#DejaVuSans-35"/>
       <use xlink:href="#DejaVuSans-2e" transform="translate(63.623047 0)"/>
       <use xlink:href="#DejaVuSans-30" transform="translate(95.410156 0)"/>
      </g>
     </g>
    </g>
    <g id="xtick_4">
     <g id="line2d_7">
      <path d="M 199.572268 245.93875 
L 199.572268 26.88 
" clip-path="url(#pde735ffebc)" style="fill: none; stroke: #b0b0b0; stroke-width: 0.8; stroke-linecap: square"/>
     </g>
     <g id="line2d_8">
      <g>
       <use xlink:href="#m78cd700a22" x="199.572268" y="245.93875" style="stroke: #000000; stroke-width: 0.8"/>
      </g>
     </g>
     <g id="text_4">
      <!-- 7.5 -->
      <g transform="translate(191.620706 260.537188) scale(0.1 -0.1)">
       <defs>
        <path id="DejaVuSans-37" d="M 525 4666 
L 3525 4666 
L 3525 4397 
L 1831 0 
L 1172 0 
L 2766 4134 
L 525 4134 
L 525 4666 
z
" transform="scale(0.015625)"/>
       </defs>
       <use xlink:href="#DejaVuSans-37"/>
       <use xlink:href="#DejaVuSans-2e" transform="translate(63.623047 0)"/>
       <use xlink:href="#DejaVuSans-35" transform="translate(95.410156 0)"/>
      </g>
     </g>
    </g>
    <g id="xtick_5">
     <g id="line2d_9">
      <path d="M 241.576996 245.93875 
L 241.576996 26.88 
" clip-path="url(#pde735ffebc)" style="fill: none; stroke: #b0b0b0; stroke-width: 0.8; stroke-linecap: square"/>
     </g>
     <g id="line2d_10">
      <g>
       <use xlink:href="#m78cd700a22" x="241.576996" y="245.93875" style="stroke: #000000; stroke-width: 0.8"/>
      </g>
     </g>
     <g id="text_5">
      <!-- 10.0 -->
      <g transform="translate(230.444183 260.537188) scale(0.1 -0.1)">
       <defs>
        <path id="DejaVuSans-31" d="M 794 531 
L 1825 531 
L 1825 4091 
L 703 3866 
L 703 4441 
L 1819 4666 
L 2450 4666 
L 2450 531 
L 3481 531 
L 3481 0 
L 794 0 
L 794 531 
z
" transform="scale(0.015625)"/>
       </defs>
       <use xlink:href="#DejaVuSans-31"/>
       <use xlink:href="#DejaVuSans-30" transform="translate(63.623047 0)"/>
       <use xlink:href="#DejaVuSans-2e" transform="translate(127.246094 0)"/>
       <use xlink:href="#DejaVuSans-30" transform="translate(159.033203 0)"/>
      </g>
     </g>
    </g>
    <g id="xtick_6">
     <g id="line2d_11">
      <path d="M 283.581723 245.93875 
L 283.581723 26.88 
" clip-path="url(#pde735ffebc)" style="fill: none; stroke: #b0b0b0; stroke-width: 0.8; stroke-linecap: square"/>
     </g>
     <g id="line2d_12">
      <g>
       <use xlink:href="#m78cd700a22" x="283.581723" y="245.93875" style="stroke: #000000; stroke-width: 0.8"/>
      </g>
     </g>
     <g id="text_6">
      <!-- 12.5 -->
      <g transform="translate(272.448911 260.537188) scale(0.1 -0.1)">
       <use xlink:href="#DejaVuSans-31"/>
       <use xlink:href="#DejaVuSans-32" transform="translate(63.623047 0)"/>
       <use xlink:href="#DejaVuSans-2e" transform="translate(127.246094 0)"/>
       <use xlink:href="#DejaVuSans-35" transform="translate(159.033203 0)"/>
      </g>
     </g>
    </g>
    <g id="xtick_7">
     <g id="line2d_13">
      <path d="M 325.58645 245.93875 
L 325.58645 26.88 
" clip-path="url(#pde735ffebc)" style="fill: none; stroke: #b0b0b0; stroke-width: 0.8; stroke-linecap: square"/>
     </g>
     <g id="line2d_14">
      <g>
       <use xlink:href="#m78cd700a22" x="325.58645" y="245.93875" style="stroke: #000000; stroke-width: 0.8"/>
      </g>
     </g>
     <g id="text_7">
      <!-- 15.0 -->
      <g transform="translate(314.453638 260.537188) scale(0.1 -0.1)">
       <use xlink:href="#DejaVuSans-31"/>
       <use xlink:href="#DejaVuSans-35" transform="translate(63.623047 0)"/>
       <use xlink:href="#DejaVuSans-2e" transform="translate(127.246094 0)"/>
       <use xlink:href="#DejaVuSans-30" transform="translate(159.033203 0)"/>
      </g>
     </g>
    </g>
    <g id="xtick_8">
     <g id="line2d_15">
      <path d="M 367.591178 245.93875 
L 367.591178 26.88 
" clip-path="url(#pde735ffebc)" style="fill: none; stroke: #b0b0b0; stroke-width: 0.8; stroke-linecap: square"/>
     </g>
     <g id="line2d_16">
      <g>
       <use xlink:href="#m78cd700a22" x="367.591178" y="245.93875" style="stroke: #000000; stroke-width: 0.8"/>
      </g>
     </g>
     <g id="text_8">
      <!-- 17.5 -->
      <g transform="translate(356.458365 260.537188) scale(0.1 -0.1)">
       <use xlink:href="#DejaVuSans-31"/>
       <use xlink:href="#DejaVuSans-37" transform="translate(63.623047 0)"/>
       <use xlink:href="#DejaVuSans-2e" transform="translate(127.246094 0)"/>
       <use xlink:href="#DejaVuSans-35" transform="translate(159.033203 0)"/>
      </g>
     </g>
    </g>
    <g id="xtick_9">
     <g id="line2d_17">
      <path d="M 409.595905 245.93875 
L 409.595905 26.88 
" clip-path="url(#pde735ffebc)" style="fill: none; stroke: #b0b0b0; stroke-width: 0.8; stroke-linecap: square"/>
     </g>
     <g id="line2d_18">
      <g>
       <use xlink:href="#m78cd700a22" x="409.595905" y="245.93875" style="stroke: #000000; stroke-width: 0.8"/>
      </g>
     </g>
     <g id="text_9">
      <!-- 20.0 -->
      <g transform="translate(398.463093 260.537188) scale(0.1 -0.1)">
       <use xlink:href="#DejaVuSans-32"/>
       <use xlink:href="#DejaVuSans-30" transform="translate(63.623047 0)"/>
       <use xlink:href="#DejaVuSans-2e" transform="translate(127.246094 0)"/>
       <use xlink:href="#DejaVuSans-30" transform="translate(159.033203 0)"/>
      </g>
     </g>
    </g>
    <g id="text_10">
     <!-- LaneOffset_AAA -->
     <g transform="translate(197.210043 274.215312) scale(0.1 -0.1)">
      <defs>
       <path id="DejaVuSans-4c" d="M 628 4666 
L 1259 4666 
L 1259 531 
L 3531 531 
L 3531 0 
L 628 0 
L 628 4666 
z
" transform="scale(0.015625)"/>
       <path id="DejaVuSans-61" d="M 2194 1759 
Q 1497 1759 1228 1600 
Q 959 1441 959 1056 
Q 959 750 1161 570 
Q 1363 391 1709 391 
Q 2188 391 2477 730 
Q 2766 1069 2766 1631 
L 2766 1759 
L 2194 1759 
z
M 3341 1997 
L 3341 0 
L 2766 0 
L 2766 531 
Q 2569 213 2275 61 
Q 1981 -91 1556 -91 
Q 1019 -91 701 211 
Q 384 513 384 1019 
Q 384 1609 779 1909 
Q 1175 2209 1959 2209 
L 2766 2209 
L 2766 2266 
Q 2766 2663 2505 2880 
Q 2244 3097 1772 3097 
Q 1472 3097 1187 3025 
Q 903 2953 641 2809 
L 641 3341 
Q 956 3463 1253 3523 
Q 1550 3584 1831 3584 
Q 2591 3584 2966 3190 
Q 3341 2797 3341 1997 
z
" transform="scale(0.015625)"/>
       <path id="DejaVuSans-6e" d="M 3513 2113 
L 3513 0 
L 2938 0 
L 2938 2094 
Q 2938 2591 2744 2837 
Q 2550 3084 2163 3084 
Q 1697 3084 1428 2787 
Q 1159 2491 1159 1978 
L 1159 0 
L 581 0 
L 581 3500 
L 1159 3500 
L 1159 2956 
Q 1366 3272 1645 3428 
Q 1925 3584 2291 3584 
Q 2894 3584 3203 3211 
Q 3513 2838 3513 2113 
z
" transform="scale(0.015625)"/>
       <path id="DejaVuSans-65" d="M 3597 1894 
L 3597 1613 
L 953 1613 
Q 991 1019 1311 708 
Q 1631 397 2203 397 
Q 2534 397 2845 478 
Q 3156 559 3463 722 
L 3463 178 
Q 3153 47 2828 -22 
Q 2503 -91 2169 -91 
Q 1331 -91 842 396 
Q 353 884 353 1716 
Q 353 2575 817 3079 
Q 1281 3584 2069 3584 
Q 2775 3584 3186 3129 
Q 3597 2675 3597 1894 
z
M 3022 2063 
Q 3016 2534 2758 2815 
Q 2500 3097 2075 3097 
Q 1594 3097 1305 2825 
Q 1016 2553 972 2059 
L 3022 2063 
z
" transform="scale(0.015625)"/>
       <path id="DejaVuSans-4f" d="M 2522 4238 
Q 1834 4238 1429 3725 
Q 1025 3213 1025 2328 
Q 1025 1447 1429 934 
Q 1834 422 2522 422 
Q 3209 422 3611 934 
Q 4013 1447 4013 2328 
Q 4013 3213 3611 3725 
Q 3209 4238 2522 4238 
z
M 2522 4750 
Q 3503 4750 4090 4092 
Q 4678 3434 4678 2328 
Q 4678 1225 4090 567 
Q 3503 -91 2522 -91 
Q 1538 -91 948 565 
Q 359 1222 359 2328 
Q 359 3434 948 4092 
Q 1538 4750 2522 4750 
z
" transform="scale(0.015625)"/>
       <path id="DejaVuSans-66" d="M 2375 4863 
L 2375 4384 
L 1825 4384 
Q 1516 4384 1395 4259 
Q 1275 4134 1275 3809 
L 1275 3500 
L 2222 3500 
L 2222 3053 
L 1275 3053 
L 1275 0 
L 697 0 
L 697 3053 
L 147 3053 
L 147 3500 
L 697 3500 
L 697 3744 
Q 697 4328 969 4595 
Q 1241 4863 1831 4863 
L 2375 4863 
z
" transform="scale(0.015625)"/>
       <path id="DejaVuSans-73" d="M 2834 3397 
L 2834 2853 
Q 2591 2978 2328 3040 
Q 2066 3103 1784 3103 
Q 1356 3103 1142 2972 
Q 928 2841 928 2578 
Q 928 2378 1081 2264 
Q 1234 2150 1697 2047 
L 1894 2003 
Q 2506 1872 2764 1633 
Q 3022 1394 3022 966 
Q 3022 478 2636 193 
Q 2250 -91 1575 -91 
Q 1294 -91 989 -36 
Q 684 19 347 128 
L 347 722 
Q 666 556 975 473 
Q 1284 391 1588 391 
Q 1994 391 2212 530 
Q 2431 669 2431 922 
Q 2431 1156 2273 1281 
Q 2116 1406 1581 1522 
L 1381 1569 
Q 847 1681 609 1914 
Q 372 2147 372 2553 
Q 372 3047 722 3315 
Q 1072 3584 1716 3584 
Q 2034 3584 2315 3537 
Q 2597 3491 2834 3397 
z
" transform="scale(0.015625)"/>
       <path id="DejaVuSans-74" d="M 1172 4494 
L 1172 3500 
L 2356 3500 
L 2356 3053 
L 1172 3053 
L 1172 1153 
Q 1172 725 1289 603 
Q 1406 481 1766 481 
L 2356 481 
L 2356 0 
L 1766 0 
Q 1100 0 847 248 
Q 594 497 594 1153 
L 594 3053 
L 172 3053 
L 172 3500 
L 594 3500 
L 594 4494 
L 1172 4494 
z
" transform="scale(0.015625)"/>
       <path id="DejaVuSans-5f" d="M 3263 -1063 
L 3263 -1509 
L -63 -1509 
L -63 -1063 
L 3263 -1063 
z
" transform="scale(0.015625)"/>
       <path id="DejaVuSans-41" d="M 2188 4044 
L 1331 1722 
L 3047 1722 
L 2188 4044 
z
M 1831 4666 
L 2547 4666 
L 4325 0 
L 3669 0 
L 3244 1197 
L 1141 1197 
L 716 0 
L 50 0 
L 1831 4666 
z
" transform="scale(0.015625)"/>
      </defs>
      <use xlink:href="#DejaVuSans-4c"/>
      <use xlink:href="#DejaVuSans-61" transform="translate(55.712891 0)"/>
      <use xlink:href="#DejaVuSans-6e" transform="translate(116.992188 0)"/>
      <use xlink:href="#DejaVuSans-65" transform="translate(180.371094 0)"/>
      <use xlink:href="#DejaVuSans-4f" transform="translate(241.894531 0)"/>
      <use xlink:href="#DejaVuSans-66" transform="translate(320.605469 0)"/>
      <use xlink:href="#DejaVuSans-66" transform="translate(355.810547 0)"/>
      <use xlink:href="#DejaVuSans-73" transform="translate(391.015625 0)"/>
      <use xlink:href="#DejaVuSans-65" transform="translate(443.115234 0)"/>
      <use xlink:href="#DejaVuSans-74" transform="translate(504.638672 0)"/>
      <use xlink:href="#DejaVuSans-5f" transform="translate(543.847656 0)"/>
      <use xlink:href="#DejaVuSans-41" transform="translate(593.847656 0)"/>
      <use xlink:href="#DejaVuSans-41" transform="translate(665.005859 0)"/>
      <use xlink:href="#DejaVuSans-41" transform="translate(736.164062 0)"/>
     </g>
    </g>
   </g>
   <g id="matplotlib.axis_2">
    <g id="ytick_1">
     <g id="line2d_19">
      <path d="M 57.17 245.93875 
L 417.707899 245.93875 
" clip-path="url(#pde735ffebc)" style="fill: none; stroke: #b0b0b0; stroke-width: 0.8; stroke-linecap: square"/>
     </g>
     <g id="line2d_20">
      <defs>
       <path id="m7fc27445d2" d="M 0 0 
L -3.5 0 
" style="stroke: #000000; stroke-width: 0.8"/>
      </defs>
      <g>
       <use xlink:href="#m7fc27445d2" x="57.17" y="245.93875" style="stroke: #000000; stroke-width: 0.8"/>
      </g>
     </g>
     <g id="text_11">
      <!-- 0 -->
      <g transform="translate(43.8075 249.737969) scale(0.1 -0.1)">
       <use xlink:href="#DejaVuSans-30"/>
      </g>
     </g>
    </g>
    <g id="ytick_2">
     <g id="line2d_21">
      <path d="M 57.17 201.780134 
L 417.707899 201.780134 
" clip-path="url(#pde735ffebc)" style="fill: none; stroke: #b0b0b0; stroke-width: 0.8; stroke-linecap: square"/>
     </g>
     <g id="line2d_22">
      <g>
       <use xlink:href="#m7fc27445d2" x="57.17" y="201.780134" style="stroke: #000000; stroke-width: 0.8"/>
      </g>
     </g>
     <g id="text_12">
      <!-- 2000 -->
      <g transform="translate(24.72 205.579353) scale(0.1 -0.1)">
       <use xlink:href="#DejaVuSans-32"/>
       <use xlink:href="#DejaVuSans-30" transform="translate(63.623047 0)"/>
       <use xlink:href="#DejaVuSans-30" transform="translate(127.246094 0)"/>
       <use xlink:href="#DejaVuSans-30" transform="translate(190.869141 0)"/>
      </g>
     </g>
    </g>
    <g id="ytick_3">
     <g id="line2d_23">
      <path d="M 57.17 157.621518 
L 417.707899 157.621518 
" clip-path="url(#pde735ffebc)" style="fill: none; stroke: #b0b0b0; stroke-width: 0.8; stroke-linecap: square"/>
     </g>
     <g id="line2d_24">
      <g>
       <use xlink:href="#m7fc27445d2" x="57.17" y="157.621518" style="stroke: #000000; stroke-width: 0.8"/>
      </g>
     </g>
     <g id="text_13">
      <!-- 4000 -->
      <g transform="translate(24.72 161.420737) scale(0.1 -0.1)">
       <defs>
        <path id="DejaVuSans-34" d="M 2419 4116 
L 825 1625 
L 2419 1625 
L 2419 4116 
z
M 2253 4666 
L 3047 4666 
L 3047 1625 
L 3713 1625 
L 3713 1100 
L 3047 1100 
L 3047 0 
L 2419 0 
L 2419 1100 
L 313 1100 
L 313 1709 
L 2253 4666 
z
" transform="scale(0.015625)"/>
       </defs>
       <use xlink:href="#DejaVuSans-34"/>
       <use xlink:href="#DejaVuSans-30" transform="translate(63.623047 0)"/>
       <use xlink:href="#DejaVuSans-30" transform="translate(127.246094 0)"/>
       <use xlink:href="#DejaVuSans-30" transform="translate(190.869141 0)"/>
      </g>
     </g>
    </g>
    <g id="ytick_4">
     <g id="line2d_25">
      <path d="M 57.17 113.462902 
L 417.707899 113.462902 
" clip-path="url(#pde735ffebc)" style="fill: none; stroke: #b0b0b0; stroke-width: 0.8; stroke-linecap: square"/>
     </g>
     <g id="line2d_26">
      <g>
       <use xlink:href="#m7fc27445d2" x="57.17" y="113.462902" style="stroke: #000000; stroke-width: 0.8"/>
      </g>
     </g>
     <g id="text_14">
      <!-- 6000 -->
      <g transform="translate(24.72 117.262121) scale(0.1 -0.1)">
       <defs>
        <path id="DejaVuSans-36" d="M 2113 2584 
Q 1688 2584 1439 2293 
Q 1191 2003 1191 1497 
Q 1191 994 1439 701 
Q 1688 409 2113 409 
Q 2538 409 2786 701 
Q 3034 994 3034 1497 
Q 3034 2003 2786 2293 
Q 2538 2584 2113 2584 
z
M 3366 4563 
L 3366 3988 
Q 3128 4100 2886 4159 
Q 2644 4219 2406 4219 
Q 1781 4219 1451 3797 
Q 1122 3375 1075 2522 
Q 1259 2794 1537 2939 
Q 1816 3084 2150 3084 
Q 2853 3084 3261 2657 
Q 3669 2231 3669 1497 
Q 3669 778 3244 343 
Q 2819 -91 2113 -91 
Q 1303 -91 875 529 
Q 447 1150 447 2328 
Q 447 3434 972 4092 
Q 1497 4750 2381 4750 
Q 2619 4750 2861 4703 
Q 3103 4656 3366 4563 
z
" transform="scale(0.015625)"/>
       </defs>
       <use xlink:href="#DejaVuSans-36"/>
       <use xlink:href="#DejaVuSans-30" transform="translate(63.623047 0)"/>
       <use xlink:href="#DejaVuSans-30" transform="translate(127.246094 0)"/>
       <use xlink:href="#DejaVuSans-30" transform="translate(190.869141 0)"/>
      </g>
     </g>
    </g>
    <g id="ytick_5">
     <g id="line2d_27">
      <path d="M 57.17 69.304286 
L 417.707899 69.304286 
" clip-path="url(#pde735ffebc)" style="fill: none; stroke: #b0b0b0; stroke-width: 0.8; stroke-linecap: square"/>
     </g>
     <g id="line2d_28">
      <g>
       <use xlink:href="#m7fc27445d2" x="57.17" y="69.304286" style="stroke: #000000; stroke-width: 0.8"/>
      </g>
     </g>
     <g id="text_15">
      <!-- 8000 -->
      <g transform="translate(24.72 73.103505) scale(0.1 -0.1)">
       <defs>
        <path id="DejaVuSans-38" d="M 2034 2216 
Q 1584 2216 1326 1975 
Q 1069 1734 1069 1313 
Q 1069 891 1326 650 
Q 1584 409 2034 409 
Q 2484 409 2743 651 
Q 3003 894 3003 1313 
Q 3003 1734 2745 1975 
Q 2488 2216 2034 2216 
z
M 1403 2484 
Q 997 2584 770 2862 
Q 544 3141 544 3541 
Q 544 4100 942 4425 
Q 1341 4750 2034 4750 
Q 2731 4750 3128 4425 
Q 3525 4100 3525 3541 
Q 3525 3141 3298 2862 
Q 3072 2584 2669 2484 
Q 3125 2378 3379 2068 
Q 3634 1759 3634 1313 
Q 3634 634 3220 271 
Q 2806 -91 2034 -91 
Q 1263 -91 848 271 
Q 434 634 434 1313 
Q 434 1759 690 2068 
Q 947 2378 1403 2484 
z
M 1172 3481 
Q 1172 3119 1398 2916 
Q 1625 2713 2034 2713 
Q 2441 2713 2670 2916 
Q 2900 3119 2900 3481 
Q 2900 3844 2670 4047 
Q 2441 4250 2034 4250 
Q 1625 4250 1398 4047 
Q 1172 3844 1172 3481 
z
" transform="scale(0.015625)"/>
       </defs>
       <use xlink:href="#DejaVuSans-38"/>
       <use xlink:href="#DejaVuSans-30" transform="translate(63.623047 0)"/>
       <use xlink:href="#DejaVuSans-30" transform="translate(127.246094 0)"/>
       <use xlink:href="#DejaVuSans-30" transform="translate(190.869141 0)"/>
      </g>
     </g>
    </g>
    <g id="text_16">
     <!-- Count -->
     <g transform="translate(18.640313 151.257812) rotate(-90) scale(0.1 -0.1)">
      <defs>
       <path id="DejaVuSans-43" d="M 4122 4306 
L 4122 3641 
Q 3803 3938 3442 4084 
Q 3081 4231 2675 4231 
Q 1875 4231 1450 3742 
Q 1025 3253 1025 2328 
Q 1025 1406 1450 917 
Q 1875 428 2675 428 
Q 3081 428 3442 575 
Q 3803 722 4122 1019 
L 4122 359 
Q 3791 134 3420 21 
Q 3050 -91 2638 -91 
Q 1578 -91 968 557 
Q 359 1206 359 2328 
Q 359 3453 968 4101 
Q 1578 4750 2638 4750 
Q 3056 4750 3426 4639 
Q 3797 4528 4122 4306 
z
" transform="scale(0.015625)"/>
       <path id="DejaVuSans-6f" d="M 1959 3097 
Q 1497 3097 1228 2736 
Q 959 2375 959 1747 
Q 959 1119 1226 758 
Q 1494 397 1959 397 
Q 2419 397 2687 759 
Q 2956 1122 2956 1747 
Q 2956 2369 2687 2733 
Q 2419 3097 1959 3097 
z
M 1959 3584 
Q 2709 3584 3137 3096 
Q 3566 2609 3566 1747 
Q 3566 888 3137 398 
Q 2709 -91 1959 -91 
Q 1206 -91 779 398 
Q 353 888 353 1747 
Q 353 2609 779 3096 
Q 1206 3584 1959 3584 
z
" transform="scale(0.015625)"/>
       <path id="DejaVuSans-75" d="M 544 1381 
L 544 3500 
L 1119 3500 
L 1119 1403 
Q 1119 906 1312 657 
Q 1506 409 1894 409 
Q 2359 409 2629 706 
Q 2900 1003 2900 1516 
L 2900 3500 
L 3475 3500 
L 3475 0 
L 2900 0 
L 2900 538 
Q 2691 219 2414 64 
Q 2138 -91 1772 -91 
Q 1169 -91 856 284 
Q 544 659 544 1381 
z
M 1991 3584 
L 1991 3584 
z
" transform="scale(0.015625)"/>
      </defs>
      <use xlink:href="#DejaVuSans-43"/>
      <use xlink:href="#DejaVuSans-6f" transform="translate(69.824219 0)"/>
      <use xlink:href="#DejaVuSans-75" transform="translate(131.005859 0)"/>
      <use xlink:href="#DejaVuSans-6e" transform="translate(194.384766 0)"/>
      <use xlink:href="#DejaVuSans-74" transform="translate(257.763672 0)"/>
     </g>
    </g>
   </g>
   <g id="patch_53">
    <path d="M 57.17 245.93875 
L 57.17 26.88 
" style="fill: none; stroke: #000000; stroke-width: 0.8; stroke-linejoin: miter; stroke-linecap: square"/>
   </g>
   <g id="patch_54">
    <path d="M 417.707899 245.93875 
L 417.707899 26.88 
" style="fill: none; stroke: #000000; stroke-width: 0.8; stroke-linejoin: miter; stroke-linecap: square"/>
   </g>
   <g id="patch_55">
    <path d="M 57.17 245.93875 
L 417.707899 245.93875 
" style="fill: none; stroke: #000000; stroke-width: 0.8; stroke-linejoin: miter; stroke-linecap: square"/>
   </g>
   <g id="patch_56">
    <path d="M 57.17 26.88 
L 417.707899 26.88 
" style="fill: none; stroke: #000000; stroke-width: 0.8; stroke-linejoin: miter; stroke-linecap: square"/>
   </g>
   <g id="text_17">
    <!-- LaneOffset_AAA -->
    <g transform="translate(189.164262 20.88) scale(0.12 -0.12)">
     <use xlink:href="#DejaVuSans-4c"/>
     <use xlink:href="#DejaVuSans-61" transform="translate(55.712891 0)"/>
     <use xlink:href="#DejaVuSans-6e" transform="translate(116.992188 0)"/>
     <use xlink:href="#DejaVuSans-65" transform="translate(180.371094 0)"/>
     <use xlink:href="#DejaVuSans-4f" transform="translate(241.894531 0)"/>
     <use xlink:href="#DejaVuSans-66" transform="translate(320.605469 0)"/>
     <use xlink:href="#DejaVuSans-66" transform="translate(355.810547 0)"/>
     <use xlink:href="#DejaVuSans-73" transform="translate(391.015625 0)"/>
     <use xlink:href="#DejaVuSans-65" transform="translate(443.115234 0)"/>
     <use xlink:href="#DejaVuSans-74" transform="translate(504.638672 0)"/>
     <use xlink:href="#DejaVuSans-5f" transform="translate(543.847656 0)"/>
     <use xlink:href="#DejaVuSans-41" transform="translate(593.847656 0)"/>
     <use xlink:href="#DejaVuSans-41" transform="translate(665.005859 0)"/>
     <use xlink:href="#DejaVuSans-41" transform="translate(736.164062 0)"/>
    </g>
   </g>
  </g>
 </g>
 <defs>
  <clipPath id="pde735ffebc">
   <rect x="57.17" y="26.88" width="360.537899" height="219.05875"/>
  </clipPath>
 </defs>
</svg>
