<?xml version="1.0" encoding="utf-8" standalone="no"?>
<!DOCTYPE svg PUBLIC "-//W3C//DTD SVG 1.1//EN"
  "http://www.w3.org/Graphics/SVG/1.1/DTD/svg11.dtd">
<svg xmlns:xlink="http://www.w3.org/1999/xlink" width="432pt" height="288pt" viewBox="0 0 432 288" xmlns="http://www.w3.org/2000/svg" version="1.1">
 <metadata>
  <rdf:RDF xmlns:dc="http://purl.org/dc/elements/1.1/" xmlns:cc="http://creativecommons.org/ns#" xmlns:rdf="http://www.w3.org/1999/02/22-rdf-syntax-ns#">
   <cc:Work>
    <dc:type rdf:resource="http://purl.org/dc/dcmitype/StillImage"/>
    <dc:date>2025-06-15T13:37:43.490302</dc:date>
    <dc:format>image/svg+xml</dc:format>
    <dc:creator>
     <cc:Agent>
      <dc:title>Matplotlib v3.10.0, https://matplotlib.org/</dc:title>
     </cc:Agent>
    </dc:creator>
   </cc:Work>
  </rdf:RDF>
 </metadata>
 <defs>
  <style type="text/css">*{stroke-linejoin: round; stroke-linecap: butt}</style>
 </defs>
 <g id="figure_1">
  <g id="patch_1">
   <path d="M 0 288 
L 432 288 
L 432 0 
L 0 0 
z
" style="fill: #ffffff"/>
  </g>
  <g id="axes_1">
   <g id="patch_2">
    <path d="M 57.17 245.93875 
L 421.2 245.93875 
L 421.2 26.88 
L 57.17 26.88 
z
" style="fill: #ffffff"/>
   </g>
   <g id="patch_3">
    <path d="M 73.716818 245.93875 
L 80.335545 245.93875 
L 80.335545 245.830653 
L 73.716818 245.830653 
z
" clip-path="url(#p553158af1f)" style="fill: #1f77b4"/>
   </g>
   <g id="patch_4">
    <path d="M 80.335545 245.93875 
L 86.954273 245.93875 
L 86.954273 245.93875 
L 80.335545 245.93875 
z
" clip-path="url(#p553158af1f)" style="fill: #1f77b4"/>
   </g>
   <g id="patch_5">
    <path d="M 86.954273 245.93875 
L 93.573 245.93875 
L 93.573 245.93875 
L 86.954273 245.93875 
z
" clip-path="url(#p553158af1f)" style="fill: #1f77b4"/>
   </g>
   <g id="patch_6">
    <path d="M 93.573 245.93875 
L 100.191727 245.93875 
L 100.191727 245.722556 
L 93.573 245.722556 
z
" clip-path="url(#p553158af1f)" style="fill: #1f77b4"/>
   </g>
   <g id="patch_7">
    <path d="M 100.191727 245.93875 
L 106.810455 245.93875 
L 106.810455 245.290167 
L 100.191727 245.290167 
z
" clip-path="url(#p553158af1f)" style="fill: #1f77b4"/>
   </g>
   <g id="patch_8">
    <path d="M 106.810455 245.93875 
L 113.429182 245.93875 
L 113.429182 245.614459 
L 106.810455 245.614459 
z
" clip-path="url(#p553158af1f)" style="fill: #1f77b4"/>
   </g>
   <g id="patch_9">
    <path d="M 113.429182 245.93875 
L 120.047909 245.93875 
L 120.047909 245.398265 
L 113.429182 245.398265 
z
" clip-path="url(#p553158af1f)" style="fill: #1f77b4"/>
   </g>
   <g id="patch_10">
    <path d="M 120.047909 245.93875 
L 126.666636 245.93875 
L 126.666636 245.398265 
L 120.047909 245.398265 
z
" clip-path="url(#p553158af1f)" style="fill: #1f77b4"/>
   </g>
   <g id="patch_11">
    <path d="M 126.666636 245.93875 
L 133.285364 245.93875 
L 133.285364 244.425391 
L 126.666636 244.425391 
z
" clip-path="url(#p553158af1f)" style="fill: #1f77b4"/>
   </g>
   <g id="patch_12">
    <path d="M 133.285364 245.93875 
L 139.904091 245.93875 
L 139.904091 242.155352 
L 133.285364 242.155352 
z
" clip-path="url(#p553158af1f)" style="fill: #1f77b4"/>
   </g>
   <g id="patch_13">
    <path d="M 139.904091 245.93875 
L 146.522818 245.93875 
L 146.522818 240.209604 
L 139.904091 240.209604 
z
" clip-path="url(#p553158af1f)" style="fill: #1f77b4"/>
   </g>
   <g id="patch_14">
    <path d="M 146.522818 245.93875 
L 153.141545 245.93875 
L 153.141545 236.210012 
L 146.522818 236.210012 
z
" clip-path="url(#p553158af1f)" style="fill: #1f77b4"/>
   </g>
   <g id="patch_15">
    <path d="M 153.141545 245.93875 
L 159.760273 245.93875 
L 159.760273 233.615682 
L 153.141545 233.615682 
z
" clip-path="url(#p553158af1f)" style="fill: #1f77b4"/>
   </g>
   <g id="patch_16">
    <path d="M 159.760273 245.93875 
L 166.379 245.93875 
L 166.379 224.103138 
L 159.760273 224.103138 
z
" clip-path="url(#p553158af1f)" style="fill: #1f77b4"/>
   </g>
   <g id="patch_17">
    <path d="M 166.379 245.93875 
L 172.997727 245.93875 
L 172.997727 214.266303 
L 166.379 214.266303 
z
" clip-path="url(#p553158af1f)" style="fill: #1f77b4"/>
   </g>
   <g id="patch_18">
    <path d="M 172.997727 245.93875 
L 179.616455 245.93875 
L 179.616455 204.645662 
L 172.997727 204.645662 
z
" clip-path="url(#p553158af1f)" style="fill: #1f77b4"/>
   </g>
   <g id="patch_19">
    <path d="M 179.616455 245.93875 
L 186.235182 245.93875 
L 186.235182 191.025429 
L 179.616455 191.025429 
z
" clip-path="url(#p553158af1f)" style="fill: #1f77b4"/>
   </g>
   <g id="patch_20">
    <path d="M 186.235182 245.93875 
L 192.853909 245.93875 
L 192.853909 181.188594 
L 186.235182 181.188594 
z
" clip-path="url(#p553158af1f)" style="fill: #1f77b4"/>
   </g>
   <g id="patch_21">
    <path d="M 192.853909 245.93875 
L 199.472636 245.93875 
L 199.472636 162.055409 
L 192.853909 162.055409 
z
" clip-path="url(#p553158af1f)" style="fill: #1f77b4"/>
   </g>
   <g id="patch_22">
    <path d="M 199.472636 245.93875 
L 206.091364 245.93875 
L 206.091364 151.2457 
L 199.472636 151.2457 
z
" clip-path="url(#p553158af1f)" style="fill: #1f77b4"/>
   </g>
   <g id="patch_23">
    <path d="M 206.091364 245.93875 
L 212.710091 245.93875 
L 212.710091 128.869603 
L 206.091364 128.869603 
z
" clip-path="url(#p553158af1f)" style="fill: #1f77b4"/>
   </g>
   <g id="patch_24">
    <path d="M 212.710091 245.93875 
L 219.328818 245.93875 
L 219.328818 37.311369 
L 212.710091 37.311369 
z
" clip-path="url(#p553158af1f)" style="fill: #1f77b4"/>
   </g>
   <g id="patch_25">
    <path d="M 219.328818 245.93875 
L 225.947545 245.93875 
L 225.947545 90.819428 
L 219.328818 90.819428 
z
" clip-path="url(#p553158af1f)" style="fill: #1f77b4"/>
   </g>
   <g id="patch_26">
    <path d="M 225.947545 245.93875 
L 232.566273 245.93875 
L 232.566273 81.631175 
L 225.947545 81.631175 
z
" clip-path="url(#p553158af1f)" style="fill: #1f77b4"/>
   </g>
   <g id="patch_27">
    <path d="M 232.566273 245.93875 
L 239.185 245.93875 
L 239.185 79.577331 
L 232.566273 79.577331 
z
" clip-path="url(#p553158af1f)" style="fill: #1f77b4"/>
   </g>
   <g id="patch_28">
    <path d="M 239.185 245.93875 
L 245.803727 245.93875 
L 245.803727 85.090282 
L 239.185 85.090282 
z
" clip-path="url(#p553158af1f)" style="fill: #1f77b4"/>
   </g>
   <g id="patch_29">
    <path d="M 245.803727 245.93875 
L 252.422455 245.93875 
L 252.422455 105.95302 
L 245.803727 105.95302 
z
" clip-path="url(#p553158af1f)" style="fill: #1f77b4"/>
   </g>
   <g id="patch_30">
    <path d="M 252.422455 245.93875 
L 259.041182 245.93875 
L 259.041182 119.032768 
L 252.422455 119.032768 
z
" clip-path="url(#p553158af1f)" style="fill: #1f77b4"/>
   </g>
   <g id="patch_31">
    <path d="M 259.041182 245.93875 
L 265.659909 245.93875 
L 265.659909 144.111293 
L 259.041182 144.111293 
z
" clip-path="url(#p553158af1f)" style="fill: #1f77b4"/>
   </g>
   <g id="patch_32">
    <path d="M 265.659909 245.93875 
L 272.278636 245.93875 
L 272.278636 159.136788 
L 265.659909 159.136788 
z
" clip-path="url(#p553158af1f)" style="fill: #1f77b4"/>
   </g>
   <g id="patch_33">
    <path d="M 272.278636 245.93875 
L 278.897364 245.93875 
L 278.897364 179.567138 
L 272.278636 179.567138 
z
" clip-path="url(#p553158af1f)" style="fill: #1f77b4"/>
   </g>
   <g id="patch_34">
    <path d="M 278.897364 245.93875 
L 285.516091 245.93875 
L 285.516091 177.837584 
L 278.897364 177.837584 
z
" clip-path="url(#p553158af1f)" style="fill: #1f77b4"/>
   </g>
   <g id="patch_35">
    <path d="M 285.516091 245.93875 
L 292.134818 245.93875 
L 292.134818 200.105584 
L 285.516091 200.105584 
z
" clip-path="url(#p553158af1f)" style="fill: #1f77b4"/>
   </g>
   <g id="patch_36">
    <path d="M 292.134818 245.93875 
L 298.753545 245.93875 
L 298.753545 206.699507 
L 292.134818 206.699507 
z
" clip-path="url(#p553158af1f)" style="fill: #1f77b4"/>
   </g>
   <g id="patch_37">
    <path d="M 298.753545 245.93875 
L 305.372273 245.93875 
L 305.372273 216.320148 
L 298.753545 216.320148 
z
" clip-path="url(#p553158af1f)" style="fill: #1f77b4"/>
   </g>
   <g id="patch_38">
    <path d="M 305.372273 245.93875 
L 311.991 245.93875 
L 311.991 222.697876 
L 305.372273 222.697876 
z
" clip-path="url(#p553158af1f)" style="fill: #1f77b4"/>
   </g>
   <g id="patch_39">
    <path d="M 311.991 245.93875 
L 318.609727 245.93875 
L 318.609727 227.129857 
L 311.991 227.129857 
z
" clip-path="url(#p553158af1f)" style="fill: #1f77b4"/>
   </g>
   <g id="patch_40">
    <path d="M 318.609727 245.93875 
L 325.228455 245.93875 
L 325.228455 229.291798 
L 318.609727 229.291798 
z
" clip-path="url(#p553158af1f)" style="fill: #1f77b4"/>
   </g>
   <g id="patch_41">
    <path d="M 325.228455 245.93875 
L 331.847182 245.93875 
L 331.847182 237.182886 
L 325.228455 237.182886 
z
" clip-path="url(#p553158af1f)" style="fill: #1f77b4"/>
   </g>
   <g id="patch_42">
    <path d="M 331.847182 245.93875 
L 338.465909 245.93875 
L 338.465909 240.533896 
L 331.847182 240.533896 
z
" clip-path="url(#p553158af1f)" style="fill: #1f77b4"/>
   </g>
   <g id="patch_43">
    <path d="M 338.465909 245.93875 
L 345.084636 245.93875 
L 345.084636 241.722964 
L 338.465909 241.722964 
z
" clip-path="url(#p553158af1f)" style="fill: #1f77b4"/>
   </g>
   <g id="patch_44">
    <path d="M 345.084636 245.93875 
L 351.703364 245.93875 
L 351.703364 243.020129 
L 345.084636 243.020129 
z
" clip-path="url(#p553158af1f)" style="fill: #1f77b4"/>
   </g>
   <g id="patch_45">
    <path d="M 351.703364 245.93875 
L 358.322091 245.93875 
L 358.322091 243.020129 
L 351.703364 243.020129 
z
" clip-path="url(#p553158af1f)" style="fill: #1f77b4"/>
   </g>
   <g id="patch_46">
    <path d="M 358.322091 245.93875 
L 364.940818 245.93875 
L 364.940818 244.101099 
L 358.322091 244.101099 
z
" clip-path="url(#p553158af1f)" style="fill: #1f77b4"/>
   </g>
   <g id="patch_47">
    <path d="M 364.940818 245.93875 
L 371.559545 245.93875 
L 371.559545 244.965876 
L 364.940818 244.965876 
z
" clip-path="url(#p553158af1f)" style="fill: #1f77b4"/>
   </g>
   <g id="patch_48">
    <path d="M 371.559545 245.93875 
L 378.178273 245.93875 
L 378.178273 245.398265 
L 371.559545 245.398265 
z
" clip-path="url(#p553158af1f)" style="fill: #1f77b4"/>
   </g>
   <g id="patch_49">
    <path d="M 378.178273 245.93875 
L 384.797 245.93875 
L 384.797 245.398265 
L 378.178273 245.398265 
z
" clip-path="url(#p553158af1f)" style="fill: #1f77b4"/>
   </g>
   <g id="patch_50">
    <path d="M 384.797 245.93875 
L 391.415727 245.93875 
L 391.415727 245.830653 
L 384.797 245.830653 
z
" clip-path="url(#p553158af1f)" style="fill: #1f77b4"/>
   </g>
   <g id="patch_51">
    <path d="M 391.415727 245.93875 
L 398.034455 245.93875 
L 398.034455 245.290167 
L 391.415727 245.290167 
z
" clip-path="url(#p553158af1f)" style="fill: #1f77b4"/>
   </g>
   <g id="patch_52">
    <path d="M 398.034455 245.93875 
L 404.653182 245.93875 
L 404.653182 245.722556 
L 398.034455 245.722556 
z
" clip-path="url(#p553158af1f)" style="fill: #1f77b4"/>
   </g>
   <g id="matplotlib.axis_1">
    <g id="xtick_1">
     <g id="line2d_1">
      <path d="M 106.094076 245.93875 
L 106.094076 26.88 
" clip-path="url(#p553158af1f)" style="fill: none; stroke: #b0b0b0; stroke-width: 0.8; stroke-linecap: square"/>
     </g>
     <g id="line2d_2">
      <defs>
       <path id="mc9518b428e" d="M 0 0 
L 0 3.5 
" style="stroke: #000000; stroke-width: 0.8"/>
      </defs>
      <g>
       <use xlink:href="#mc9518b428e" x="106.094076" y="245.93875" style="stroke: #000000; stroke-width: 0.8"/>
      </g>
     </g>
     <g id="text_1">
      <!-- −1.0 -->
      <g transform="translate(93.95267 260.537188) scale(0.1 -0.1)">
       <defs>
        <path id="DejaVuSans-2212" d="M 678 2272 
L 4684 2272 
L 4684 1741 
L 678 1741 
L 678 2272 
z
" transform="scale(0.015625)"/>
        <path id="DejaVuSans-31" d="M 794 531 
L 1825 531 
L 1825 4091 
L 703 3866 
L 703 4441 
L 1819 4666 
L 2450 4666 
L 2450 531 
L 3481 531 
L 3481 0 
L 794 0 
L 794 531 
z
" transform="scale(0.015625)"/>
        <path id="DejaVuSans-2e" d="M 684 794 
L 1344 794 
L 1344 0 
L 684 0 
L 684 794 
z
" transform="scale(0.015625)"/>
        <path id="DejaVuSans-30" d="M 2034 4250 
Q 1547 4250 1301 3770 
Q 1056 3291 1056 2328 
Q 1056 1369 1301 889 
Q 1547 409 2034 409 
Q 2525 409 2770 889 
Q 3016 1369 3016 2328 
Q 3016 3291 2770 3770 
Q 2525 4250 2034 4250 
z
M 2034 4750 
Q 2819 4750 3233 4129 
Q 3647 3509 3647 2328 
Q 3647 1150 3233 529 
Q 2819 -91 2034 -91 
Q 1250 -91 836 529 
Q 422 1150 422 2328 
Q 422 3509 836 4129 
Q 1250 4750 2034 4750 
z
" transform="scale(0.015625)"/>
       </defs>
       <use xlink:href="#DejaVuSans-2212"/>
       <use xlink:href="#DejaVuSans-31" transform="translate(83.789062 0)"/>
       <use xlink:href="#DejaVuSans-2e" transform="translate(147.412109 0)"/>
       <use xlink:href="#DejaVuSans-30" transform="translate(179.199219 0)"/>
      </g>
     </g>
    </g>
    <g id="xtick_2">
     <g id="line2d_3">
      <path d="M 160.650257 245.93875 
L 160.650257 26.88 
" clip-path="url(#p553158af1f)" style="fill: none; stroke: #b0b0b0; stroke-width: 0.8; stroke-linecap: square"/>
     </g>
     <g id="line2d_4">
      <g>
       <use xlink:href="#mc9518b428e" x="160.650257" y="245.93875" style="stroke: #000000; stroke-width: 0.8"/>
      </g>
     </g>
     <g id="text_2">
      <!-- −0.5 -->
      <g transform="translate(148.508851 260.537188) scale(0.1 -0.1)">
       <defs>
        <path id="DejaVuSans-35" d="M 691 4666 
L 3169 4666 
L 3169 4134 
L 1269 4134 
L 1269 2991 
Q 1406 3038 1543 3061 
Q 1681 3084 1819 3084 
Q 2600 3084 3056 2656 
Q 3513 2228 3513 1497 
Q 3513 744 3044 326 
Q 2575 -91 1722 -91 
Q 1428 -91 1123 -41 
Q 819 9 494 109 
L 494 744 
Q 775 591 1075 516 
Q 1375 441 1709 441 
Q 2250 441 2565 725 
Q 2881 1009 2881 1497 
Q 2881 1984 2565 2268 
Q 2250 2553 1709 2553 
Q 1456 2553 1204 2497 
Q 953 2441 691 2322 
L 691 4666 
z
" transform="scale(0.015625)"/>
       </defs>
       <use xlink:href="#DejaVuSans-2212"/>
       <use xlink:href="#DejaVuSans-30" transform="translate(83.789062 0)"/>
       <use xlink:href="#DejaVuSans-2e" transform="translate(147.412109 0)"/>
       <use xlink:href="#DejaVuSans-35" transform="translate(179.199219 0)"/>
      </g>
     </g>
    </g>
    <g id="xtick_3">
     <g id="line2d_5">
      <path d="M 215.206437 245.93875 
L 215.206437 26.88 
" clip-path="url(#p553158af1f)" style="fill: none; stroke: #b0b0b0; stroke-width: 0.8; stroke-linecap: square"/>
     </g>
     <g id="line2d_6">
      <g>
       <use xlink:href="#mc9518b428e" x="215.206437" y="245.93875" style="stroke: #000000; stroke-width: 0.8"/>
      </g>
     </g>
     <g id="text_3">
      <!-- 0.0 -->
      <g transform="translate(207.254875 260.537188) scale(0.1 -0.1)">
       <use xlink:href="#DejaVuSans-30"/>
       <use xlink:href="#DejaVuSans-2e" transform="translate(63.623047 0)"/>
       <use xlink:href="#DejaVuSans-30" transform="translate(95.410156 0)"/>
      </g>
     </g>
    </g>
    <g id="xtick_4">
     <g id="line2d_7">
      <path d="M 269.762618 245.93875 
L 269.762618 26.88 
" clip-path="url(#p553158af1f)" style="fill: none; stroke: #b0b0b0; stroke-width: 0.8; stroke-linecap: square"/>
     </g>
     <g id="line2d_8">
      <g>
       <use xlink:href="#mc9518b428e" x="269.762618" y="245.93875" style="stroke: #000000; stroke-width: 0.8"/>
      </g>
     </g>
     <g id="text_4">
      <!-- 0.5 -->
      <g transform="translate(261.811055 260.537188) scale(0.1 -0.1)">
       <use xlink:href="#DejaVuSans-30"/>
       <use xlink:href="#DejaVuSans-2e" transform="translate(63.623047 0)"/>
       <use xlink:href="#DejaVuSans-35" transform="translate(95.410156 0)"/>
      </g>
     </g>
    </g>
    <g id="xtick_5">
     <g id="line2d_9">
      <path d="M 324.318798 245.93875 
L 324.318798 26.88 
" clip-path="url(#p553158af1f)" style="fill: none; stroke: #b0b0b0; stroke-width: 0.8; stroke-linecap: square"/>
     </g>
     <g id="line2d_10">
      <g>
       <use xlink:href="#mc9518b428e" x="324.318798" y="245.93875" style="stroke: #000000; stroke-width: 0.8"/>
      </g>
     </g>
     <g id="text_5">
      <!-- 1.0 -->
      <g transform="translate(316.367236 260.537188) scale(0.1 -0.1)">
       <use xlink:href="#DejaVuSans-31"/>
       <use xlink:href="#DejaVuSans-2e" transform="translate(63.623047 0)"/>
       <use xlink:href="#DejaVuSans-30" transform="translate(95.410156 0)"/>
      </g>
     </g>
    </g>
    <g id="xtick_6">
     <g id="line2d_11">
      <path d="M 378.874979 245.93875 
L 378.874979 26.88 
" clip-path="url(#p553158af1f)" style="fill: none; stroke: #b0b0b0; stroke-width: 0.8; stroke-linecap: square"/>
     </g>
     <g id="line2d_12">
      <g>
       <use xlink:href="#mc9518b428e" x="378.874979" y="245.93875" style="stroke: #000000; stroke-width: 0.8"/>
      </g>
     </g>
     <g id="text_6">
      <!-- 1.5 -->
      <g transform="translate(370.923416 260.537188) scale(0.1 -0.1)">
       <use xlink:href="#DejaVuSans-31"/>
       <use xlink:href="#DejaVuSans-2e" transform="translate(63.623047 0)"/>
       <use xlink:href="#DejaVuSans-35" transform="translate(95.410156 0)"/>
      </g>
     </g>
    </g>
    <g id="text_7">
     <!-- LaneOffset_Quartile75 -->
     <g transform="translate(183.090469 274.215312) scale(0.1 -0.1)">
      <defs>
       <path id="DejaVuSans-4c" d="M 628 4666 
L 1259 4666 
L 1259 531 
L 3531 531 
L 3531 0 
L 628 0 
L 628 4666 
z
" transform="scale(0.015625)"/>
       <path id="DejaVuSans-61" d="M 2194 1759 
Q 1497 1759 1228 1600 
Q 959 1441 959 1056 
Q 959 750 1161 570 
Q 1363 391 1709 391 
Q 2188 391 2477 730 
Q 2766 1069 2766 1631 
L 2766 1759 
L 2194 1759 
z
M 3341 1997 
L 3341 0 
L 2766 0 
L 2766 531 
Q 2569 213 2275 61 
Q 1981 -91 1556 -91 
Q 1019 -91 701 211 
Q 384 513 384 1019 
Q 384 1609 779 1909 
Q 1175 2209 1959 2209 
L 2766 2209 
L 2766 2266 
Q 2766 2663 2505 2880 
Q 2244 3097 1772 3097 
Q 1472 3097 1187 3025 
Q 903 2953 641 2809 
L 641 3341 
Q 956 3463 1253 3523 
Q 1550 3584 1831 3584 
Q 2591 3584 2966 3190 
Q 3341 2797 3341 1997 
z
" transform="scale(0.015625)"/>
       <path id="DejaVuSans-6e" d="M 3513 2113 
L 3513 0 
L 2938 0 
L 2938 2094 
Q 2938 2591 2744 2837 
Q 2550 3084 2163 3084 
Q 1697 3084 1428 2787 
Q 1159 2491 1159 1978 
L 1159 0 
L 581 0 
L 581 3500 
L 1159 3500 
L 1159 2956 
Q 1366 3272 1645 3428 
Q 1925 3584 2291 3584 
Q 2894 3584 3203 3211 
Q 3513 2838 3513 2113 
z
" transform="scale(0.015625)"/>
       <path id="DejaVuSans-65" d="M 3597 1894 
L 3597 1613 
L 953 1613 
Q 991 1019 1311 708 
Q 1631 397 2203 397 
Q 2534 397 2845 478 
Q 3156 559 3463 722 
L 3463 178 
Q 3153 47 2828 -22 
Q 2503 -91 2169 -91 
Q 1331 -91 842 396 
Q 353 884 353 1716 
Q 353 2575 817 3079 
Q 1281 3584 2069 3584 
Q 2775 3584 3186 3129 
Q 3597 2675 3597 1894 
z
M 3022 2063 
Q 3016 2534 2758 2815 
Q 2500 3097 2075 3097 
Q 1594 3097 1305 2825 
Q 1016 2553 972 2059 
L 3022 2063 
z
" transform="scale(0.015625)"/>
       <path id="DejaVuSans-4f" d="M 2522 4238 
Q 1834 4238 1429 3725 
Q 1025 3213 1025 2328 
Q 1025 1447 1429 934 
Q 1834 422 2522 422 
Q 3209 422 3611 934 
Q 4013 1447 4013 2328 
Q 4013 3213 3611 3725 
Q 3209 4238 2522 4238 
z
M 2522 4750 
Q 3503 4750 4090 4092 
Q 4678 3434 4678 2328 
Q 4678 1225 4090 567 
Q 3503 -91 2522 -91 
Q 1538 -91 948 565 
Q 359 1222 359 2328 
Q 359 3434 948 4092 
Q 1538 4750 2522 4750 
z
" transform="scale(0.015625)"/>
       <path id="DejaVuSans-66" d="M 2375 4863 
L 2375 4384 
L 1825 4384 
Q 1516 4384 1395 4259 
Q 1275 4134 1275 3809 
L 1275 3500 
L 2222 3500 
L 2222 3053 
L 1275 3053 
L 1275 0 
L 697 0 
L 697 3053 
L 147 3053 
L 147 3500 
L 697 3500 
L 697 3744 
Q 697 4328 969 4595 
Q 1241 4863 1831 4863 
L 2375 4863 
z
" transform="scale(0.015625)"/>
       <path id="DejaVuSans-73" d="M 2834 3397 
L 2834 2853 
Q 2591 2978 2328 3040 
Q 2066 3103 1784 3103 
Q 1356 3103 1142 2972 
Q 928 2841 928 2578 
Q 928 2378 1081 2264 
Q 1234 2150 1697 2047 
L 1894 2003 
Q 2506 1872 2764 1633 
Q 3022 1394 3022 966 
Q 3022 478 2636 193 
Q 2250 -91 1575 -91 
Q 1294 -91 989 -36 
Q 684 19 347 128 
L 347 722 
Q 666 556 975 473 
Q 1284 391 1588 391 
Q 1994 391 2212 530 
Q 2431 669 2431 922 
Q 2431 1156 2273 1281 
Q 2116 1406 1581 1522 
L 1381 1569 
Q 847 1681 609 1914 
Q 372 2147 372 2553 
Q 372 3047 722 3315 
Q 1072 3584 1716 3584 
Q 2034 3584 2315 3537 
Q 2597 3491 2834 3397 
z
" transform="scale(0.015625)"/>
       <path id="DejaVuSans-74" d="M 1172 4494 
L 1172 3500 
L 2356 3500 
L 2356 3053 
L 1172 3053 
L 1172 1153 
Q 1172 725 1289 603 
Q 1406 481 1766 481 
L 2356 481 
L 2356 0 
L 1766 0 
Q 1100 0 847 248 
Q 594 497 594 1153 
L 594 3053 
L 172 3053 
L 172 3500 
L 594 3500 
L 594 4494 
L 1172 4494 
z
" transform="scale(0.015625)"/>
       <path id="DejaVuSans-5f" d="M 3263 -1063 
L 3263 -1509 
L -63 -1509 
L -63 -1063 
L 3263 -1063 
z
" transform="scale(0.015625)"/>
       <path id="DejaVuSans-51" d="M 2522 4238 
Q 1834 4238 1429 3725 
Q 1025 3213 1025 2328 
Q 1025 1447 1429 934 
Q 1834 422 2522 422 
Q 3209 422 3611 934 
Q 4013 1447 4013 2328 
Q 4013 3213 3611 3725 
Q 3209 4238 2522 4238 
z
M 3406 84 
L 4238 -825 
L 3475 -825 
L 2784 -78 
Q 2681 -84 2626 -87 
Q 2572 -91 2522 -91 
Q 1538 -91 948 567 
Q 359 1225 359 2328 
Q 359 3434 948 4092 
Q 1538 4750 2522 4750 
Q 3503 4750 4090 4092 
Q 4678 3434 4678 2328 
Q 4678 1516 4351 937 
Q 4025 359 3406 84 
z
" transform="scale(0.015625)"/>
       <path id="DejaVuSans-75" d="M 544 1381 
L 544 3500 
L 1119 3500 
L 1119 1403 
Q 1119 906 1312 657 
Q 1506 409 1894 409 
Q 2359 409 2629 706 
Q 2900 1003 2900 1516 
L 2900 3500 
L 3475 3500 
L 3475 0 
L 2900 0 
L 2900 538 
Q 2691 219 2414 64 
Q 2138 -91 1772 -91 
Q 1169 -91 856 284 
Q 544 659 544 1381 
z
M 1991 3584 
L 1991 3584 
z
" transform="scale(0.015625)"/>
       <path id="DejaVuSans-72" d="M 2631 2963 
Q 2534 3019 2420 3045 
Q 2306 3072 2169 3072 
Q 1681 3072 1420 2755 
Q 1159 2438 1159 1844 
L 1159 0 
L 581 0 
L 581 3500 
L 1159 3500 
L 1159 2956 
Q 1341 3275 1631 3429 
Q 1922 3584 2338 3584 
Q 2397 3584 2469 3576 
Q 2541 3569 2628 3553 
L 2631 2963 
z
" transform="scale(0.015625)"/>
       <path id="DejaVuSans-69" d="M 603 3500 
L 1178 3500 
L 1178 0 
L 603 0 
L 603 3500 
z
M 603 4863 
L 1178 4863 
L 1178 4134 
L 603 4134 
L 603 4863 
z
" transform="scale(0.015625)"/>
       <path id="DejaVuSans-6c" d="M 603 4863 
L 1178 4863 
L 1178 0 
L 603 0 
L 603 4863 
z
" transform="scale(0.015625)"/>
       <path id="DejaVuSans-37" d="M 525 4666 
L 3525 4666 
L 3525 4397 
L 1831 0 
L 1172 0 
L 2766 4134 
L 525 4134 
L 525 4666 
z
" transform="scale(0.015625)"/>
      </defs>
      <use xlink:href="#DejaVuSans-4c"/>
      <use xlink:href="#DejaVuSans-61" transform="translate(55.712891 0)"/>
      <use xlink:href="#DejaVuSans-6e" transform="translate(116.992188 0)"/>
      <use xlink:href="#DejaVuSans-65" transform="translate(180.371094 0)"/>
      <use xlink:href="#DejaVuSans-4f" transform="translate(241.894531 0)"/>
      <use xlink:href="#DejaVuSans-66" transform="translate(320.605469 0)"/>
      <use xlink:href="#DejaVuSans-66" transform="translate(355.810547 0)"/>
      <use xlink:href="#DejaVuSans-73" transform="translate(391.015625 0)"/>
      <use xlink:href="#DejaVuSans-65" transform="translate(443.115234 0)"/>
      <use xlink:href="#DejaVuSans-74" transform="translate(504.638672 0)"/>
      <use xlink:href="#DejaVuSans-5f" transform="translate(543.847656 0)"/>
      <use xlink:href="#DejaVuSans-51" transform="translate(593.847656 0)"/>
      <use xlink:href="#DejaVuSans-75" transform="translate(672.558594 0)"/>
      <use xlink:href="#DejaVuSans-61" transform="translate(735.9375 0)"/>
      <use xlink:href="#DejaVuSans-72" transform="translate(797.216797 0)"/>
      <use xlink:href="#DejaVuSans-74" transform="translate(838.330078 0)"/>
      <use xlink:href="#DejaVuSans-69" transform="translate(877.539062 0)"/>
      <use xlink:href="#DejaVuSans-6c" transform="translate(905.322266 0)"/>
      <use xlink:href="#DejaVuSans-65" transform="translate(933.105469 0)"/>
      <use xlink:href="#DejaVuSans-37" transform="translate(994.628906 0)"/>
      <use xlink:href="#DejaVuSans-35" transform="translate(1058.251953 0)"/>
     </g>
    </g>
   </g>
   <g id="matplotlib.axis_2">
    <g id="ytick_1">
     <g id="line2d_13">
      <path d="M 57.17 245.93875 
L 421.2 245.93875 
" clip-path="url(#p553158af1f)" style="fill: none; stroke: #b0b0b0; stroke-width: 0.8; stroke-linecap: square"/>
     </g>
     <g id="line2d_14">
      <defs>
       <path id="mf065c80dcf" d="M 0 0 
L -3.5 0 
" style="stroke: #000000; stroke-width: 0.8"/>
      </defs>
      <g>
       <use xlink:href="#mf065c80dcf" x="57.17" y="245.93875" style="stroke: #000000; stroke-width: 0.8"/>
      </g>
     </g>
     <g id="text_8">
      <!-- 0 -->
      <g transform="translate(43.8075 249.737969) scale(0.1 -0.1)">
       <use xlink:href="#DejaVuSans-30"/>
      </g>
     </g>
    </g>
    <g id="ytick_2">
     <g id="line2d_15">
      <path d="M 57.17 218.914478 
L 421.2 218.914478 
" clip-path="url(#p553158af1f)" style="fill: none; stroke: #b0b0b0; stroke-width: 0.8; stroke-linecap: square"/>
     </g>
     <g id="line2d_16">
      <g>
       <use xlink:href="#mf065c80dcf" x="57.17" y="218.914478" style="stroke: #000000; stroke-width: 0.8"/>
      </g>
     </g>
     <g id="text_9">
      <!-- 250 -->
      <g transform="translate(31.0825 222.713697) scale(0.1 -0.1)">
       <defs>
        <path id="DejaVuSans-32" d="M 1228 531 
L 3431 531 
L 3431 0 
L 469 0 
L 469 531 
Q 828 903 1448 1529 
Q 2069 2156 2228 2338 
Q 2531 2678 2651 2914 
Q 2772 3150 2772 3378 
Q 2772 3750 2511 3984 
Q 2250 4219 1831 4219 
Q 1534 4219 1204 4116 
Q 875 4013 500 3803 
L 500 4441 
Q 881 4594 1212 4672 
Q 1544 4750 1819 4750 
Q 2544 4750 2975 4387 
Q 3406 4025 3406 3419 
Q 3406 3131 3298 2873 
Q 3191 2616 2906 2266 
Q 2828 2175 2409 1742 
Q 1991 1309 1228 531 
z
" transform="scale(0.015625)"/>
       </defs>
       <use xlink:href="#DejaVuSans-32"/>
       <use xlink:href="#DejaVuSans-35" transform="translate(63.623047 0)"/>
       <use xlink:href="#DejaVuSans-30" transform="translate(127.246094 0)"/>
      </g>
     </g>
    </g>
    <g id="ytick_3">
     <g id="line2d_17">
      <path d="M 57.17 191.890206 
L 421.2 191.890206 
" clip-path="url(#p553158af1f)" style="fill: none; stroke: #b0b0b0; stroke-width: 0.8; stroke-linecap: square"/>
     </g>
     <g id="line2d_18">
      <g>
       <use xlink:href="#mf065c80dcf" x="57.17" y="191.890206" style="stroke: #000000; stroke-width: 0.8"/>
      </g>
     </g>
     <g id="text_10">
      <!-- 500 -->
      <g transform="translate(31.0825 195.689424) scale(0.1 -0.1)">
       <use xlink:href="#DejaVuSans-35"/>
       <use xlink:href="#DejaVuSans-30" transform="translate(63.623047 0)"/>
       <use xlink:href="#DejaVuSans-30" transform="translate(127.246094 0)"/>
      </g>
     </g>
    </g>
    <g id="ytick_4">
     <g id="line2d_19">
      <path d="M 57.17 164.865934 
L 421.2 164.865934 
" clip-path="url(#p553158af1f)" style="fill: none; stroke: #b0b0b0; stroke-width: 0.8; stroke-linecap: square"/>
     </g>
     <g id="line2d_20">
      <g>
       <use xlink:href="#mf065c80dcf" x="57.17" y="164.865934" style="stroke: #000000; stroke-width: 0.8"/>
      </g>
     </g>
     <g id="text_11">
      <!-- 750 -->
      <g transform="translate(31.0825 168.665152) scale(0.1 -0.1)">
       <use xlink:href="#DejaVuSans-37"/>
       <use xlink:href="#DejaVuSans-35" transform="translate(63.623047 0)"/>
       <use xlink:href="#DejaVuSans-30" transform="translate(127.246094 0)"/>
      </g>
     </g>
    </g>
    <g id="ytick_5">
     <g id="line2d_21">
      <path d="M 57.17 137.841661 
L 421.2 137.841661 
" clip-path="url(#p553158af1f)" style="fill: none; stroke: #b0b0b0; stroke-width: 0.8; stroke-linecap: square"/>
     </g>
     <g id="line2d_22">
      <g>
       <use xlink:href="#mf065c80dcf" x="57.17" y="137.841661" style="stroke: #000000; stroke-width: 0.8"/>
      </g>
     </g>
     <g id="text_12">
      <!-- 1000 -->
      <g transform="translate(24.72 141.64088) scale(0.1 -0.1)">
       <use xlink:href="#DejaVuSans-31"/>
       <use xlink:href="#DejaVuSans-30" transform="translate(63.623047 0)"/>
       <use xlink:href="#DejaVuSans-30" transform="translate(127.246094 0)"/>
       <use xlink:href="#DejaVuSans-30" transform="translate(190.869141 0)"/>
      </g>
     </g>
    </g>
    <g id="ytick_6">
     <g id="line2d_23">
      <path d="M 57.17 110.817389 
L 421.2 110.817389 
" clip-path="url(#p553158af1f)" style="fill: none; stroke: #b0b0b0; stroke-width: 0.8; stroke-linecap: square"/>
     </g>
     <g id="line2d_24">
      <g>
       <use xlink:href="#mf065c80dcf" x="57.17" y="110.817389" style="stroke: #000000; stroke-width: 0.8"/>
      </g>
     </g>
     <g id="text_13">
      <!-- 1250 -->
      <g transform="translate(24.72 114.616608) scale(0.1 -0.1)">
       <use xlink:href="#DejaVuSans-31"/>
       <use xlink:href="#DejaVuSans-32" transform="translate(63.623047 0)"/>
       <use xlink:href="#DejaVuSans-35" transform="translate(127.246094 0)"/>
       <use xlink:href="#DejaVuSans-30" transform="translate(190.869141 0)"/>
      </g>
     </g>
    </g>
    <g id="ytick_7">
     <g id="line2d_25">
      <path d="M 57.17 83.793117 
L 421.2 83.793117 
" clip-path="url(#p553158af1f)" style="fill: none; stroke: #b0b0b0; stroke-width: 0.8; stroke-linecap: square"/>
     </g>
     <g id="line2d_26">
      <g>
       <use xlink:href="#mf065c80dcf" x="57.17" y="83.793117" style="stroke: #000000; stroke-width: 0.8"/>
      </g>
     </g>
     <g id="text_14">
      <!-- 1500 -->
      <g transform="translate(24.72 87.592336) scale(0.1 -0.1)">
       <use xlink:href="#DejaVuSans-31"/>
       <use xlink:href="#DejaVuSans-35" transform="translate(63.623047 0)"/>
       <use xlink:href="#DejaVuSans-30" transform="translate(127.246094 0)"/>
       <use xlink:href="#DejaVuSans-30" transform="translate(190.869141 0)"/>
      </g>
     </g>
    </g>
    <g id="ytick_8">
     <g id="line2d_27">
      <path d="M 57.17 56.768845 
L 421.2 56.768845 
" clip-path="url(#p553158af1f)" style="fill: none; stroke: #b0b0b0; stroke-width: 0.8; stroke-linecap: square"/>
     </g>
     <g id="line2d_28">
      <g>
       <use xlink:href="#mf065c80dcf" x="57.17" y="56.768845" style="stroke: #000000; stroke-width: 0.8"/>
      </g>
     </g>
     <g id="text_15">
      <!-- 1750 -->
      <g transform="translate(24.72 60.568064) scale(0.1 -0.1)">
       <use xlink:href="#DejaVuSans-31"/>
       <use xlink:href="#DejaVuSans-37" transform="translate(63.623047 0)"/>
       <use xlink:href="#DejaVuSans-35" transform="translate(127.246094 0)"/>
       <use xlink:href="#DejaVuSans-30" transform="translate(190.869141 0)"/>
      </g>
     </g>
    </g>
    <g id="ytick_9">
     <g id="line2d_29">
      <path d="M 57.17 29.744573 
L 421.2 29.744573 
" clip-path="url(#p553158af1f)" style="fill: none; stroke: #b0b0b0; stroke-width: 0.8; stroke-linecap: square"/>
     </g>
     <g id="line2d_30">
      <g>
       <use xlink:href="#mf065c80dcf" x="57.17" y="29.744573" style="stroke: #000000; stroke-width: 0.8"/>
      </g>
     </g>
     <g id="text_16">
      <!-- 2000 -->
      <g transform="translate(24.72 33.543792) scale(0.1 -0.1)">
       <use xlink:href="#DejaVuSans-32"/>
       <use xlink:href="#DejaVuSans-30" transform="translate(63.623047 0)"/>
       <use xlink:href="#DejaVuSans-30" transform="translate(127.246094 0)"/>
       <use xlink:href="#DejaVuSans-30" transform="translate(190.869141 0)"/>
      </g>
     </g>
    </g>
    <g id="text_17">
     <!-- Count -->
     <g transform="translate(18.640313 151.257812) rotate(-90) scale(0.1 -0.1)">
      <defs>
       <path id="DejaVuSans-43" d="M 4122 4306 
L 4122 3641 
Q 3803 3938 3442 4084 
Q 3081 4231 2675 4231 
Q 1875 4231 1450 3742 
Q 1025 3253 1025 2328 
Q 1025 1406 1450 917 
Q 1875 428 2675 428 
Q 3081 428 3442 575 
Q 3803 722 4122 1019 
L 4122 359 
Q 3791 134 3420 21 
Q 3050 -91 2638 -91 
Q 1578 -91 968 557 
Q 359 1206 359 2328 
Q 359 3453 968 4101 
Q 1578 4750 2638 4750 
Q 3056 4750 3426 4639 
Q 3797 4528 4122 4306 
z
" transform="scale(0.015625)"/>
       <path id="DejaVuSans-6f" d="M 1959 3097 
Q 1497 3097 1228 2736 
Q 959 2375 959 1747 
Q 959 1119 1226 758 
Q 1494 397 1959 397 
Q 2419 397 2687 759 
Q 2956 1122 2956 1747 
Q 2956 2369 2687 2733 
Q 2419 3097 1959 3097 
z
M 1959 3584 
Q 2709 3584 3137 3096 
Q 3566 2609 3566 1747 
Q 3566 888 3137 398 
Q 2709 -91 1959 -91 
Q 1206 -91 779 398 
Q 353 888 353 1747 
Q 353 2609 779 3096 
Q 1206 3584 1959 3584 
z
" transform="scale(0.015625)"/>
      </defs>
      <use xlink:href="#DejaVuSans-43"/>
      <use xlink:href="#DejaVuSans-6f" transform="translate(69.824219 0)"/>
      <use xlink:href="#DejaVuSans-75" transform="translate(131.005859 0)"/>
      <use xlink:href="#DejaVuSans-6e" transform="translate(194.384766 0)"/>
      <use xlink:href="#DejaVuSans-74" transform="translate(257.763672 0)"/>
     </g>
    </g>
   </g>
   <g id="patch_53">
    <path d="M 57.17 245.93875 
L 57.17 26.88 
" style="fill: none; stroke: #000000; stroke-width: 0.8; stroke-linejoin: miter; stroke-linecap: square"/>
   </g>
   <g id="patch_54">
    <path d="M 421.2 245.93875 
L 421.2 26.88 
" style="fill: none; stroke: #000000; stroke-width: 0.8; stroke-linejoin: miter; stroke-linecap: square"/>
   </g>
   <g id="patch_55">
    <path d="M 57.17 245.93875 
L 421.2 245.93875 
" style="fill: none; stroke: #000000; stroke-width: 0.8; stroke-linejoin: miter; stroke-linecap: square"/>
   </g>
   <g id="patch_56">
    <path d="M 57.17 26.88 
L 421.2 26.88 
" style="fill: none; stroke: #000000; stroke-width: 0.8; stroke-linejoin: miter; stroke-linecap: square"/>
   </g>
   <g id="text_18">
    <!-- LaneOffset_Quartile75 -->
    <g transform="translate(171.871563 20.88) scale(0.12 -0.12)">
     <use xlink:href="#DejaVuSans-4c"/>
     <use xlink:href="#DejaVuSans-61" transform="translate(55.712891 0)"/>
     <use xlink:href="#DejaVuSans-6e" transform="translate(116.992188 0)"/>
     <use xlink:href="#DejaVuSans-65" transform="translate(180.371094 0)"/>
     <use xlink:href="#DejaVuSans-4f" transform="translate(241.894531 0)"/>
     <use xlink:href="#DejaVuSans-66" transform="translate(320.605469 0)"/>
     <use xlink:href="#DejaVuSans-66" transform="translate(355.810547 0)"/>
     <use xlink:href="#DejaVuSans-73" transform="translate(391.015625 0)"/>
     <use xlink:href="#DejaVuSans-65" transform="translate(443.115234 0)"/>
     <use xlink:href="#DejaVuSans-74" transform="translate(504.638672 0)"/>
     <use xlink:href="#DejaVuSans-5f" transform="translate(543.847656 0)"/>
     <use xlink:href="#DejaVuSans-51" transform="translate(593.847656 0)"/>
     <use xlink:href="#DejaVuSans-75" transform="translate(672.558594 0)"/>
     <use xlink:href="#DejaVuSans-61" transform="translate(735.9375 0)"/>
     <use xlink:href="#DejaVuSans-72" transform="translate(797.216797 0)"/>
     <use xlink:href="#DejaVuSans-74" transform="translate(838.330078 0)"/>
     <use xlink:href="#DejaVuSans-69" transform="translate(877.539062 0)"/>
     <use xlink:href="#DejaVuSans-6c" transform="translate(905.322266 0)"/>
     <use xlink:href="#DejaVuSans-65" transform="translate(933.105469 0)"/>
     <use xlink:href="#DejaVuSans-37" transform="translate(994.628906 0)"/>
     <use xlink:href="#DejaVuSans-35" transform="translate(1058.251953 0)"/>
    </g>
   </g>
  </g>
 </g>
 <defs>
  <clipPath id="p553158af1f">
   <rect x="57.17" y="26.88" width="364.03" height="219.05875"/>
  </clipPath>
 </defs>
</svg>
