<?xml version="1.0" encoding="utf-8" standalone="no"?>
<!DOCTYPE svg PUBLIC "-//W3C//DTD SVG 1.1//EN"
  "http://www.w3.org/Graphics/SVG/1.1/DTD/svg11.dtd">
<svg xmlns:xlink="http://www.w3.org/1999/xlink" width="432pt" height="288pt" viewBox="0 0 432 288" xmlns="http://www.w3.org/2000/svg" version="1.1">
 <metadata>
  <rdf:RDF xmlns:dc="http://purl.org/dc/elements/1.1/" xmlns:cc="http://creativecommons.org/ns#" xmlns:rdf="http://www.w3.org/1999/02/22-rdf-syntax-ns#">
   <cc:Work>
    <dc:type rdf:resource="http://purl.org/dc/dcmitype/StillImage"/>
    <dc:date>2025-06-15T13:37:54.214476</dc:date>
    <dc:format>image/svg+xml</dc:format>
    <dc:creator>
     <cc:Agent>
      <dc:title>Matplotlib v3.10.0, https://matplotlib.org/</dc:title>
     </cc:Agent>
    </dc:creator>
   </cc:Work>
  </rdf:RDF>
 </metadata>
 <defs>
  <style type="text/css">*{stroke-linejoin: round; stroke-linecap: butt}</style>
 </defs>
 <g id="figure_1">
  <g id="patch_1">
   <path d="M 0 288 
L 432 288 
L 432 0 
L 0 0 
z
" style="fill: #ffffff"/>
  </g>
  <g id="axes_1">
   <g id="patch_2">
    <path d="M 57.17 245.93875 
L 421.2 245.93875 
L 421.2 26.88 
L 57.17 26.88 
z
" style="fill: #ffffff"/>
   </g>
   <g id="patch_3">
    <path d="M 73.716818 245.93875 
L 80.335545 245.93875 
L 80.335545 37.311369 
L 73.716818 37.311369 
z
" clip-path="url(#p0e673043cc)" style="fill: #1f77b4"/>
   </g>
   <g id="patch_4">
    <path d="M 80.335545 245.93875 
L 86.954273 245.93875 
L 86.954273 170.864754 
L 80.335545 170.864754 
z
" clip-path="url(#p0e673043cc)" style="fill: #1f77b4"/>
   </g>
   <g id="patch_5">
    <path d="M 86.954273 245.93875 
L 93.573 245.93875 
L 93.573 201.531586 
L 86.954273 201.531586 
z
" clip-path="url(#p0e673043cc)" style="fill: #1f77b4"/>
   </g>
   <g id="patch_6">
    <path d="M 93.573 245.93875 
L 100.191727 245.93875 
L 100.191727 217.573038 
L 93.573 217.573038 
z
" clip-path="url(#p0e673043cc)" style="fill: #1f77b4"/>
   </g>
   <g id="patch_7">
    <path d="M 100.191727 245.93875 
L 106.810455 245.93875 
L 106.810455 226.379242 
L 100.191727 226.379242 
z
" clip-path="url(#p0e673043cc)" style="fill: #1f77b4"/>
   </g>
   <g id="patch_8">
    <path d="M 106.810455 245.93875 
L 113.429182 245.93875 
L 113.429182 231.357623 
L 106.810455 231.357623 
z
" clip-path="url(#p0e673043cc)" style="fill: #1f77b4"/>
   </g>
   <g id="patch_9">
    <path d="M 113.429182 245.93875 
L 120.047909 245.93875 
L 120.047909 234.145517 
L 113.429182 234.145517 
z
" clip-path="url(#p0e673043cc)" style="fill: #1f77b4"/>
   </g>
   <g id="patch_10">
    <path d="M 120.047909 245.93875 
L 126.666636 245.93875 
L 126.666636 237.176798 
L 120.047909 237.176798 
z
" clip-path="url(#p0e673043cc)" style="fill: #1f77b4"/>
   </g>
   <g id="patch_11">
    <path d="M 126.666636 245.93875 
L 133.285364 245.93875 
L 133.285364 239.168151 
L 126.666636 239.168151 
z
" clip-path="url(#p0e673043cc)" style="fill: #1f77b4"/>
   </g>
   <g id="patch_12">
    <path d="M 133.285364 245.93875 
L 139.904091 245.93875 
L 139.904091 240.407215 
L 133.285364 240.407215 
z
" clip-path="url(#p0e673043cc)" style="fill: #1f77b4"/>
   </g>
   <g id="patch_13">
    <path d="M 139.904091 245.93875 
L 146.522818 245.93875 
L 146.522818 241.336513 
L 139.904091 241.336513 
z
" clip-path="url(#p0e673043cc)" style="fill: #1f77b4"/>
   </g>
   <g id="patch_14">
    <path d="M 146.522818 245.93875 
L 153.141545 245.93875 
L 153.141545 242.420694 
L 146.522818 242.420694 
z
" clip-path="url(#p0e673043cc)" style="fill: #1f77b4"/>
   </g>
   <g id="patch_15">
    <path d="M 153.141545 245.93875 
L 159.760273 245.93875 
L 159.760273 243.372118 
L 153.141545 243.372118 
z
" clip-path="url(#p0e673043cc)" style="fill: #1f77b4"/>
   </g>
   <g id="patch_16">
    <path d="M 159.760273 245.93875 
L 166.379 245.93875 
L 166.379 243.593379 
L 159.760273 243.593379 
z
" clip-path="url(#p0e673043cc)" style="fill: #1f77b4"/>
   </g>
   <g id="patch_17">
    <path d="M 166.379 245.93875 
L 172.997727 245.93875 
L 172.997727 243.858893 
L 166.379 243.858893 
z
" clip-path="url(#p0e673043cc)" style="fill: #1f77b4"/>
   </g>
   <g id="patch_18">
    <path d="M 172.997727 245.93875 
L 179.616455 245.93875 
L 179.616455 244.345668 
L 172.997727 244.345668 
z
" clip-path="url(#p0e673043cc)" style="fill: #1f77b4"/>
   </g>
   <g id="patch_19">
    <path d="M 179.616455 245.93875 
L 186.235182 245.93875 
L 186.235182 244.478425 
L 179.616455 244.478425 
z
" clip-path="url(#p0e673043cc)" style="fill: #1f77b4"/>
   </g>
   <g id="patch_20">
    <path d="M 186.235182 245.93875 
L 192.853909 245.93875 
L 192.853909 244.589055 
L 186.235182 244.589055 
z
" clip-path="url(#p0e673043cc)" style="fill: #1f77b4"/>
   </g>
   <g id="patch_21">
    <path d="M 192.853909 245.93875 
L 199.472636 245.93875 
L 199.472636 245.053704 
L 192.853909 245.053704 
z
" clip-path="url(#p0e673043cc)" style="fill: #1f77b4"/>
   </g>
   <g id="patch_22">
    <path d="M 199.472636 245.93875 
L 206.091364 245.93875 
L 206.091364 245.186461 
L 199.472636 245.186461 
z
" clip-path="url(#p0e673043cc)" style="fill: #1f77b4"/>
   </g>
   <g id="patch_23">
    <path d="M 206.091364 245.93875 
L 212.710091 245.93875 
L 212.710091 245.341344 
L 206.091364 245.341344 
z
" clip-path="url(#p0e673043cc)" style="fill: #1f77b4"/>
   </g>
   <g id="patch_24">
    <path d="M 212.710091 245.93875 
L 219.328818 245.93875 
L 219.328818 245.36347 
L 212.710091 245.36347 
z
" clip-path="url(#p0e673043cc)" style="fill: #1f77b4"/>
   </g>
   <g id="patch_25">
    <path d="M 219.328818 245.93875 
L 225.947545 245.93875 
L 225.947545 245.496227 
L 219.328818 245.496227 
z
" clip-path="url(#p0e673043cc)" style="fill: #1f77b4"/>
   </g>
   <g id="patch_26">
    <path d="M 225.947545 245.93875 
L 232.566273 245.93875 
L 232.566273 245.584732 
L 225.947545 245.584732 
z
" clip-path="url(#p0e673043cc)" style="fill: #1f77b4"/>
   </g>
   <g id="patch_27">
    <path d="M 232.566273 245.93875 
L 239.185 245.93875 
L 239.185 245.695362 
L 232.566273 245.695362 
z
" clip-path="url(#p0e673043cc)" style="fill: #1f77b4"/>
   </g>
   <g id="patch_28">
    <path d="M 239.185 245.93875 
L 245.803727 245.93875 
L 245.803727 245.695362 
L 239.185 245.695362 
z
" clip-path="url(#p0e673043cc)" style="fill: #1f77b4"/>
   </g>
   <g id="patch_29">
    <path d="M 245.803727 245.93875 
L 252.422455 245.93875 
L 252.422455 245.628984 
L 245.803727 245.628984 
z
" clip-path="url(#p0e673043cc)" style="fill: #1f77b4"/>
   </g>
   <g id="patch_30">
    <path d="M 252.422455 245.93875 
L 259.041182 245.93875 
L 259.041182 245.673236 
L 252.422455 245.673236 
z
" clip-path="url(#p0e673043cc)" style="fill: #1f77b4"/>
   </g>
   <g id="patch_31">
    <path d="M 259.041182 245.93875 
L 265.659909 245.93875 
L 265.659909 245.717489 
L 259.041182 245.717489 
z
" clip-path="url(#p0e673043cc)" style="fill: #1f77b4"/>
   </g>
   <g id="patch_32">
    <path d="M 265.659909 245.93875 
L 272.278636 245.93875 
L 272.278636 245.717489 
L 265.659909 245.717489 
z
" clip-path="url(#p0e673043cc)" style="fill: #1f77b4"/>
   </g>
   <g id="patch_33">
    <path d="M 272.278636 245.93875 
L 278.897364 245.93875 
L 278.897364 245.872372 
L 272.278636 245.872372 
z
" clip-path="url(#p0e673043cc)" style="fill: #1f77b4"/>
   </g>
   <g id="patch_34">
    <path d="M 278.897364 245.93875 
L 285.516091 245.93875 
L 285.516091 245.828119 
L 278.897364 245.828119 
z
" clip-path="url(#p0e673043cc)" style="fill: #1f77b4"/>
   </g>
   <g id="patch_35">
    <path d="M 285.516091 245.93875 
L 292.134818 245.93875 
L 292.134818 245.783867 
L 285.516091 245.783867 
z
" clip-path="url(#p0e673043cc)" style="fill: #1f77b4"/>
   </g>
   <g id="patch_36">
    <path d="M 292.134818 245.93875 
L 298.753545 245.93875 
L 298.753545 245.872372 
L 292.134818 245.872372 
z
" clip-path="url(#p0e673043cc)" style="fill: #1f77b4"/>
   </g>
   <g id="patch_37">
    <path d="M 298.753545 245.93875 
L 305.372273 245.93875 
L 305.372273 245.916624 
L 298.753545 245.916624 
z
" clip-path="url(#p0e673043cc)" style="fill: #1f77b4"/>
   </g>
   <g id="patch_38">
    <path d="M 305.372273 245.93875 
L 311.991 245.93875 
L 311.991 245.850245 
L 305.372273 245.850245 
z
" clip-path="url(#p0e673043cc)" style="fill: #1f77b4"/>
   </g>
   <g id="patch_39">
    <path d="M 311.991 245.93875 
L 318.609727 245.93875 
L 318.609727 245.894498 
L 311.991 245.894498 
z
" clip-path="url(#p0e673043cc)" style="fill: #1f77b4"/>
   </g>
   <g id="patch_40">
    <path d="M 318.609727 245.93875 
L 325.228455 245.93875 
L 325.228455 245.894498 
L 318.609727 245.894498 
z
" clip-path="url(#p0e673043cc)" style="fill: #1f77b4"/>
   </g>
   <g id="patch_41">
    <path d="M 325.228455 245.93875 
L 331.847182 245.93875 
L 331.847182 245.894498 
L 325.228455 245.894498 
z
" clip-path="url(#p0e673043cc)" style="fill: #1f77b4"/>
   </g>
   <g id="patch_42">
    <path d="M 331.847182 245.93875 
L 338.465909 245.93875 
L 338.465909 245.916624 
L 331.847182 245.916624 
z
" clip-path="url(#p0e673043cc)" style="fill: #1f77b4"/>
   </g>
   <g id="patch_43">
    <path d="M 338.465909 245.93875 
L 345.084636 245.93875 
L 345.084636 245.93875 
L 338.465909 245.93875 
z
" clip-path="url(#p0e673043cc)" style="fill: #1f77b4"/>
   </g>
   <g id="patch_44">
    <path d="M 345.084636 245.93875 
L 351.703364 245.93875 
L 351.703364 245.916624 
L 345.084636 245.916624 
z
" clip-path="url(#p0e673043cc)" style="fill: #1f77b4"/>
   </g>
   <g id="patch_45">
    <path d="M 351.703364 245.93875 
L 358.322091 245.93875 
L 358.322091 245.916624 
L 351.703364 245.916624 
z
" clip-path="url(#p0e673043cc)" style="fill: #1f77b4"/>
   </g>
   <g id="patch_46">
    <path d="M 358.322091 245.93875 
L 364.940818 245.93875 
L 364.940818 245.93875 
L 358.322091 245.93875 
z
" clip-path="url(#p0e673043cc)" style="fill: #1f77b4"/>
   </g>
   <g id="patch_47">
    <path d="M 364.940818 245.93875 
L 371.559545 245.93875 
L 371.559545 245.916624 
L 364.940818 245.916624 
z
" clip-path="url(#p0e673043cc)" style="fill: #1f77b4"/>
   </g>
   <g id="patch_48">
    <path d="M 371.559545 245.93875 
L 378.178273 245.93875 
L 378.178273 245.916624 
L 371.559545 245.916624 
z
" clip-path="url(#p0e673043cc)" style="fill: #1f77b4"/>
   </g>
   <g id="patch_49">
    <path d="M 378.178273 245.93875 
L 384.797 245.93875 
L 384.797 245.93875 
L 378.178273 245.93875 
z
" clip-path="url(#p0e673043cc)" style="fill: #1f77b4"/>
   </g>
   <g id="patch_50">
    <path d="M 384.797 245.93875 
L 391.415727 245.93875 
L 391.415727 245.916624 
L 384.797 245.916624 
z
" clip-path="url(#p0e673043cc)" style="fill: #1f77b4"/>
   </g>
   <g id="patch_51">
    <path d="M 391.415727 245.93875 
L 398.034455 245.93875 
L 398.034455 245.916624 
L 391.415727 245.916624 
z
" clip-path="url(#p0e673043cc)" style="fill: #1f77b4"/>
   </g>
   <g id="patch_52">
    <path d="M 398.034455 245.93875 
L 404.653182 245.93875 
L 404.653182 245.894498 
L 398.034455 245.894498 
z
" clip-path="url(#p0e673043cc)" style="fill: #1f77b4"/>
   </g>
   <g id="matplotlib.axis_1">
    <g id="xtick_1">
     <g id="line2d_1">
      <path d="M 73.716818 245.93875 
L 73.716818 26.88 
" clip-path="url(#p0e673043cc)" style="fill: none; stroke: #b0b0b0; stroke-width: 0.8; stroke-linecap: square"/>
     </g>
     <g id="line2d_2">
      <defs>
       <path id="m8f3a94dd98" d="M 0 0 
L 0 3.5 
" style="stroke: #000000; stroke-width: 0.8"/>
      </defs>
      <g>
       <use xlink:href="#m8f3a94dd98" x="73.716818" y="245.93875" style="stroke: #000000; stroke-width: 0.8"/>
      </g>
     </g>
     <g id="text_1">
      <!-- 0 -->
      <g transform="translate(70.535568 260.537188) scale(0.1 -0.1)">
       <defs>
        <path id="DejaVuSans-30" d="M 2034 4250 
Q 1547 4250 1301 3770 
Q 1056 3291 1056 2328 
Q 1056 1369 1301 889 
Q 1547 409 2034 409 
Q 2525 409 2770 889 
Q 3016 1369 3016 2328 
Q 3016 3291 2770 3770 
Q 2525 4250 2034 4250 
z
M 2034 4750 
Q 2819 4750 3233 4129 
Q 3647 3509 3647 2328 
Q 3647 1150 3233 529 
Q 2819 -91 2034 -91 
Q 1250 -91 836 529 
Q 422 1150 422 2328 
Q 422 3509 836 4129 
Q 1250 4750 2034 4750 
z
" transform="scale(0.015625)"/>
       </defs>
       <use xlink:href="#DejaVuSans-30"/>
      </g>
     </g>
    </g>
    <g id="xtick_2">
     <g id="line2d_3">
      <path d="M 139.00666 245.93875 
L 139.00666 26.88 
" clip-path="url(#p0e673043cc)" style="fill: none; stroke: #b0b0b0; stroke-width: 0.8; stroke-linecap: square"/>
     </g>
     <g id="line2d_4">
      <g>
       <use xlink:href="#m8f3a94dd98" x="139.00666" y="245.93875" style="stroke: #000000; stroke-width: 0.8"/>
      </g>
     </g>
     <g id="text_2">
      <!-- 2 -->
      <g transform="translate(135.82541 260.537188) scale(0.1 -0.1)">
       <defs>
        <path id="DejaVuSans-32" d="M 1228 531 
L 3431 531 
L 3431 0 
L 469 0 
L 469 531 
Q 828 903 1448 1529 
Q 2069 2156 2228 2338 
Q 2531 2678 2651 2914 
Q 2772 3150 2772 3378 
Q 2772 3750 2511 3984 
Q 2250 4219 1831 4219 
Q 1534 4219 1204 4116 
Q 875 4013 500 3803 
L 500 4441 
Q 881 4594 1212 4672 
Q 1544 4750 1819 4750 
Q 2544 4750 2975 4387 
Q 3406 4025 3406 3419 
Q 3406 3131 3298 2873 
Q 3191 2616 2906 2266 
Q 2828 2175 2409 1742 
Q 1991 1309 1228 531 
z
" transform="scale(0.015625)"/>
       </defs>
       <use xlink:href="#DejaVuSans-32"/>
      </g>
     </g>
    </g>
    <g id="xtick_3">
     <g id="line2d_5">
      <path d="M 204.296503 245.93875 
L 204.296503 26.88 
" clip-path="url(#p0e673043cc)" style="fill: none; stroke: #b0b0b0; stroke-width: 0.8; stroke-linecap: square"/>
     </g>
     <g id="line2d_6">
      <g>
       <use xlink:href="#m8f3a94dd98" x="204.296503" y="245.93875" style="stroke: #000000; stroke-width: 0.8"/>
      </g>
     </g>
     <g id="text_3">
      <!-- 4 -->
      <g transform="translate(201.115253 260.537188) scale(0.1 -0.1)">
       <defs>
        <path id="DejaVuSans-34" d="M 2419 4116 
L 825 1625 
L 2419 1625 
L 2419 4116 
z
M 2253 4666 
L 3047 4666 
L 3047 1625 
L 3713 1625 
L 3713 1100 
L 3047 1100 
L 3047 0 
L 2419 0 
L 2419 1100 
L 313 1100 
L 313 1709 
L 2253 4666 
z
" transform="scale(0.015625)"/>
       </defs>
       <use xlink:href="#DejaVuSans-34"/>
      </g>
     </g>
    </g>
    <g id="xtick_4">
     <g id="line2d_7">
      <path d="M 269.586345 245.93875 
L 269.586345 26.88 
" clip-path="url(#p0e673043cc)" style="fill: none; stroke: #b0b0b0; stroke-width: 0.8; stroke-linecap: square"/>
     </g>
     <g id="line2d_8">
      <g>
       <use xlink:href="#m8f3a94dd98" x="269.586345" y="245.93875" style="stroke: #000000; stroke-width: 0.8"/>
      </g>
     </g>
     <g id="text_4">
      <!-- 6 -->
      <g transform="translate(266.405095 260.537188) scale(0.1 -0.1)">
       <defs>
        <path id="DejaVuSans-36" d="M 2113 2584 
Q 1688 2584 1439 2293 
Q 1191 2003 1191 1497 
Q 1191 994 1439 701 
Q 1688 409 2113 409 
Q 2538 409 2786 701 
Q 3034 994 3034 1497 
Q 3034 2003 2786 2293 
Q 2538 2584 2113 2584 
z
M 3366 4563 
L 3366 3988 
Q 3128 4100 2886 4159 
Q 2644 4219 2406 4219 
Q 1781 4219 1451 3797 
Q 1122 3375 1075 2522 
Q 1259 2794 1537 2939 
Q 1816 3084 2150 3084 
Q 2853 3084 3261 2657 
Q 3669 2231 3669 1497 
Q 3669 778 3244 343 
Q 2819 -91 2113 -91 
Q 1303 -91 875 529 
Q 447 1150 447 2328 
Q 447 3434 972 4092 
Q 1497 4750 2381 4750 
Q 2619 4750 2861 4703 
Q 3103 4656 3366 4563 
z
" transform="scale(0.015625)"/>
       </defs>
       <use xlink:href="#DejaVuSans-36"/>
      </g>
     </g>
    </g>
    <g id="xtick_5">
     <g id="line2d_9">
      <path d="M 334.876187 245.93875 
L 334.876187 26.88 
" clip-path="url(#p0e673043cc)" style="fill: none; stroke: #b0b0b0; stroke-width: 0.8; stroke-linecap: square"/>
     </g>
     <g id="line2d_10">
      <g>
       <use xlink:href="#m8f3a94dd98" x="334.876187" y="245.93875" style="stroke: #000000; stroke-width: 0.8"/>
      </g>
     </g>
     <g id="text_5">
      <!-- 8 -->
      <g transform="translate(331.694937 260.537188) scale(0.1 -0.1)">
       <defs>
        <path id="DejaVuSans-38" d="M 2034 2216 
Q 1584 2216 1326 1975 
Q 1069 1734 1069 1313 
Q 1069 891 1326 650 
Q 1584 409 2034 409 
Q 2484 409 2743 651 
Q 3003 894 3003 1313 
Q 3003 1734 2745 1975 
Q 2488 2216 2034 2216 
z
M 1403 2484 
Q 997 2584 770 2862 
Q 544 3141 544 3541 
Q 544 4100 942 4425 
Q 1341 4750 2034 4750 
Q 2731 4750 3128 4425 
Q 3525 4100 3525 3541 
Q 3525 3141 3298 2862 
Q 3072 2584 2669 2484 
Q 3125 2378 3379 2068 
Q 3634 1759 3634 1313 
Q 3634 634 3220 271 
Q 2806 -91 2034 -91 
Q 1263 -91 848 271 
Q 434 634 434 1313 
Q 434 1759 690 2068 
Q 947 2378 1403 2484 
z
M 1172 3481 
Q 1172 3119 1398 2916 
Q 1625 2713 2034 2713 
Q 2441 2713 2670 2916 
Q 2900 3119 2900 3481 
Q 2900 3844 2670 4047 
Q 2441 4250 2034 4250 
Q 1625 4250 1398 4047 
Q 1172 3844 1172 3481 
z
" transform="scale(0.015625)"/>
       </defs>
       <use xlink:href="#DejaVuSans-38"/>
      </g>
     </g>
    </g>
    <g id="xtick_6">
     <g id="line2d_11">
      <path d="M 400.16603 245.93875 
L 400.16603 26.88 
" clip-path="url(#p0e673043cc)" style="fill: none; stroke: #b0b0b0; stroke-width: 0.8; stroke-linecap: square"/>
     </g>
     <g id="line2d_12">
      <g>
       <use xlink:href="#m8f3a94dd98" x="400.16603" y="245.93875" style="stroke: #000000; stroke-width: 0.8"/>
      </g>
     </g>
     <g id="text_6">
      <!-- 10 -->
      <g transform="translate(393.80353 260.537188) scale(0.1 -0.1)">
       <defs>
        <path id="DejaVuSans-31" d="M 794 531 
L 1825 531 
L 1825 4091 
L 703 3866 
L 703 4441 
L 1819 4666 
L 2450 4666 
L 2450 531 
L 3481 531 
L 3481 0 
L 794 0 
L 794 531 
z
" transform="scale(0.015625)"/>
       </defs>
       <use xlink:href="#DejaVuSans-31"/>
       <use xlink:href="#DejaVuSans-30" transform="translate(63.623047 0)"/>
      </g>
     </g>
    </g>
    <g id="text_7">
     <!-- LaneOffset_DDA -->
     <g transform="translate(198.459219 274.215312) scale(0.1 -0.1)">
      <defs>
       <path id="DejaVuSans-4c" d="M 628 4666 
L 1259 4666 
L 1259 531 
L 3531 531 
L 3531 0 
L 628 0 
L 628 4666 
z
" transform="scale(0.015625)"/>
       <path id="DejaVuSans-61" d="M 2194 1759 
Q 1497 1759 1228 1600 
Q 959 1441 959 1056 
Q 959 750 1161 570 
Q 1363 391 1709 391 
Q 2188 391 2477 730 
Q 2766 1069 2766 1631 
L 2766 1759 
L 2194 1759 
z
M 3341 1997 
L 3341 0 
L 2766 0 
L 2766 531 
Q 2569 213 2275 61 
Q 1981 -91 1556 -91 
Q 1019 -91 701 211 
Q 384 513 384 1019 
Q 384 1609 779 1909 
Q 1175 2209 1959 2209 
L 2766 2209 
L 2766 2266 
Q 2766 2663 2505 2880 
Q 2244 3097 1772 3097 
Q 1472 3097 1187 3025 
Q 903 2953 641 2809 
L 641 3341 
Q 956 3463 1253 3523 
Q 1550 3584 1831 3584 
Q 2591 3584 2966 3190 
Q 3341 2797 3341 1997 
z
" transform="scale(0.015625)"/>
       <path id="DejaVuSans-6e" d="M 3513 2113 
L 3513 0 
L 2938 0 
L 2938 2094 
Q 2938 2591 2744 2837 
Q 2550 3084 2163 3084 
Q 1697 3084 1428 2787 
Q 1159 2491 1159 1978 
L 1159 0 
L 581 0 
L 581 3500 
L 1159 3500 
L 1159 2956 
Q 1366 3272 1645 3428 
Q 1925 3584 2291 3584 
Q 2894 3584 3203 3211 
Q 3513 2838 3513 2113 
z
" transform="scale(0.015625)"/>
       <path id="DejaVuSans-65" d="M 3597 1894 
L 3597 1613 
L 953 1613 
Q 991 1019 1311 708 
Q 1631 397 2203 397 
Q 2534 397 2845 478 
Q 3156 559 3463 722 
L 3463 178 
Q 3153 47 2828 -22 
Q 2503 -91 2169 -91 
Q 1331 -91 842 396 
Q 353 884 353 1716 
Q 353 2575 817 3079 
Q 1281 3584 2069 3584 
Q 2775 3584 3186 3129 
Q 3597 2675 3597 1894 
z
M 3022 2063 
Q 3016 2534 2758 2815 
Q 2500 3097 2075 3097 
Q 1594 3097 1305 2825 
Q 1016 2553 972 2059 
L 3022 2063 
z
" transform="scale(0.015625)"/>
       <path id="DejaVuSans-4f" d="M 2522 4238 
Q 1834 4238 1429 3725 
Q 1025 3213 1025 2328 
Q 1025 1447 1429 934 
Q 1834 422 2522 422 
Q 3209 422 3611 934 
Q 4013 1447 4013 2328 
Q 4013 3213 3611 3725 
Q 3209 4238 2522 4238 
z
M 2522 4750 
Q 3503 4750 4090 4092 
Q 4678 3434 4678 2328 
Q 4678 1225 4090 567 
Q 3503 -91 2522 -91 
Q 1538 -91 948 565 
Q 359 1222 359 2328 
Q 359 3434 948 4092 
Q 1538 4750 2522 4750 
z
" transform="scale(0.015625)"/>
       <path id="DejaVuSans-66" d="M 2375 4863 
L 2375 4384 
L 1825 4384 
Q 1516 4384 1395 4259 
Q 1275 4134 1275 3809 
L 1275 3500 
L 2222 3500 
L 2222 3053 
L 1275 3053 
L 1275 0 
L 697 0 
L 697 3053 
L 147 3053 
L 147 3500 
L 697 3500 
L 697 3744 
Q 697 4328 969 4595 
Q 1241 4863 1831 4863 
L 2375 4863 
z
" transform="scale(0.015625)"/>
       <path id="DejaVuSans-73" d="M 2834 3397 
L 2834 2853 
Q 2591 2978 2328 3040 
Q 2066 3103 1784 3103 
Q 1356 3103 1142 2972 
Q 928 2841 928 2578 
Q 928 2378 1081 2264 
Q 1234 2150 1697 2047 
L 1894 2003 
Q 2506 1872 2764 1633 
Q 3022 1394 3022 966 
Q 3022 478 2636 193 
Q 2250 -91 1575 -91 
Q 1294 -91 989 -36 
Q 684 19 347 128 
L 347 722 
Q 666 556 975 473 
Q 1284 391 1588 391 
Q 1994 391 2212 530 
Q 2431 669 2431 922 
Q 2431 1156 2273 1281 
Q 2116 1406 1581 1522 
L 1381 1569 
Q 847 1681 609 1914 
Q 372 2147 372 2553 
Q 372 3047 722 3315 
Q 1072 3584 1716 3584 
Q 2034 3584 2315 3537 
Q 2597 3491 2834 3397 
z
" transform="scale(0.015625)"/>
       <path id="DejaVuSans-74" d="M 1172 4494 
L 1172 3500 
L 2356 3500 
L 2356 3053 
L 1172 3053 
L 1172 1153 
Q 1172 725 1289 603 
Q 1406 481 1766 481 
L 2356 481 
L 2356 0 
L 1766 0 
Q 1100 0 847 248 
Q 594 497 594 1153 
L 594 3053 
L 172 3053 
L 172 3500 
L 594 3500 
L 594 4494 
L 1172 4494 
z
" transform="scale(0.015625)"/>
       <path id="DejaVuSans-5f" d="M 3263 -1063 
L 3263 -1509 
L -63 -1509 
L -63 -1063 
L 3263 -1063 
z
" transform="scale(0.015625)"/>
       <path id="DejaVuSans-44" d="M 1259 4147 
L 1259 519 
L 2022 519 
Q 2988 519 3436 956 
Q 3884 1394 3884 2338 
Q 3884 3275 3436 3711 
Q 2988 4147 2022 4147 
L 1259 4147 
z
M 628 4666 
L 1925 4666 
Q 3281 4666 3915 4102 
Q 4550 3538 4550 2338 
Q 4550 1131 3912 565 
Q 3275 0 1925 0 
L 628 0 
L 628 4666 
z
" transform="scale(0.015625)"/>
       <path id="DejaVuSans-41" d="M 2188 4044 
L 1331 1722 
L 3047 1722 
L 2188 4044 
z
M 1831 4666 
L 2547 4666 
L 4325 0 
L 3669 0 
L 3244 1197 
L 1141 1197 
L 716 0 
L 50 0 
L 1831 4666 
z
" transform="scale(0.015625)"/>
      </defs>
      <use xlink:href="#DejaVuSans-4c"/>
      <use xlink:href="#DejaVuSans-61" transform="translate(55.712891 0)"/>
      <use xlink:href="#DejaVuSans-6e" transform="translate(116.992188 0)"/>
      <use xlink:href="#DejaVuSans-65" transform="translate(180.371094 0)"/>
      <use xlink:href="#DejaVuSans-4f" transform="translate(241.894531 0)"/>
      <use xlink:href="#DejaVuSans-66" transform="translate(320.605469 0)"/>
      <use xlink:href="#DejaVuSans-66" transform="translate(355.810547 0)"/>
      <use xlink:href="#DejaVuSans-73" transform="translate(391.015625 0)"/>
      <use xlink:href="#DejaVuSans-65" transform="translate(443.115234 0)"/>
      <use xlink:href="#DejaVuSans-74" transform="translate(504.638672 0)"/>
      <use xlink:href="#DejaVuSans-5f" transform="translate(543.847656 0)"/>
      <use xlink:href="#DejaVuSans-44" transform="translate(593.847656 0)"/>
      <use xlink:href="#DejaVuSans-44" transform="translate(670.849609 0)"/>
      <use xlink:href="#DejaVuSans-41" transform="translate(746.101562 0)"/>
     </g>
    </g>
   </g>
   <g id="matplotlib.axis_2">
    <g id="ytick_1">
     <g id="line2d_13">
      <path d="M 57.17 245.93875 
L 421.2 245.93875 
" clip-path="url(#p0e673043cc)" style="fill: none; stroke: #b0b0b0; stroke-width: 0.8; stroke-linecap: square"/>
     </g>
     <g id="line2d_14">
      <defs>
       <path id="me474e8cbf3" d="M 0 0 
L -3.5 0 
" style="stroke: #000000; stroke-width: 0.8"/>
      </defs>
      <g>
       <use xlink:href="#me474e8cbf3" x="57.17" y="245.93875" style="stroke: #000000; stroke-width: 0.8"/>
      </g>
     </g>
     <g id="text_8">
      <!-- 0 -->
      <g transform="translate(43.8075 249.737969) scale(0.1 -0.1)">
       <use xlink:href="#DejaVuSans-30"/>
      </g>
     </g>
    </g>
    <g id="ytick_2">
     <g id="line2d_15">
      <path d="M 57.17 201.686469 
L 421.2 201.686469 
" clip-path="url(#p0e673043cc)" style="fill: none; stroke: #b0b0b0; stroke-width: 0.8; stroke-linecap: square"/>
     </g>
     <g id="line2d_16">
      <g>
       <use xlink:href="#me474e8cbf3" x="57.17" y="201.686469" style="stroke: #000000; stroke-width: 0.8"/>
      </g>
     </g>
     <g id="text_9">
      <!-- 2000 -->
      <g transform="translate(24.72 205.485687) scale(0.1 -0.1)">
       <use xlink:href="#DejaVuSans-32"/>
       <use xlink:href="#DejaVuSans-30" transform="translate(63.623047 0)"/>
       <use xlink:href="#DejaVuSans-30" transform="translate(127.246094 0)"/>
       <use xlink:href="#DejaVuSans-30" transform="translate(190.869141 0)"/>
      </g>
     </g>
    </g>
    <g id="ytick_3">
     <g id="line2d_17">
      <path d="M 57.17 157.434187 
L 421.2 157.434187 
" clip-path="url(#p0e673043cc)" style="fill: none; stroke: #b0b0b0; stroke-width: 0.8; stroke-linecap: square"/>
     </g>
     <g id="line2d_18">
      <g>
       <use xlink:href="#me474e8cbf3" x="57.17" y="157.434187" style="stroke: #000000; stroke-width: 0.8"/>
      </g>
     </g>
     <g id="text_10">
      <!-- 4000 -->
      <g transform="translate(24.72 161.233406) scale(0.1 -0.1)">
       <use xlink:href="#DejaVuSans-34"/>
       <use xlink:href="#DejaVuSans-30" transform="translate(63.623047 0)"/>
       <use xlink:href="#DejaVuSans-30" transform="translate(127.246094 0)"/>
       <use xlink:href="#DejaVuSans-30" transform="translate(190.869141 0)"/>
      </g>
     </g>
    </g>
    <g id="ytick_4">
     <g id="line2d_19">
      <path d="M 57.17 113.181906 
L 421.2 113.181906 
" clip-path="url(#p0e673043cc)" style="fill: none; stroke: #b0b0b0; stroke-width: 0.8; stroke-linecap: square"/>
     </g>
     <g id="line2d_20">
      <g>
       <use xlink:href="#me474e8cbf3" x="57.17" y="113.181906" style="stroke: #000000; stroke-width: 0.8"/>
      </g>
     </g>
     <g id="text_11">
      <!-- 6000 -->
      <g transform="translate(24.72 116.981124) scale(0.1 -0.1)">
       <use xlink:href="#DejaVuSans-36"/>
       <use xlink:href="#DejaVuSans-30" transform="translate(63.623047 0)"/>
       <use xlink:href="#DejaVuSans-30" transform="translate(127.246094 0)"/>
       <use xlink:href="#DejaVuSans-30" transform="translate(190.869141 0)"/>
      </g>
     </g>
    </g>
    <g id="ytick_5">
     <g id="line2d_21">
      <path d="M 57.17 68.929624 
L 421.2 68.929624 
" clip-path="url(#p0e673043cc)" style="fill: none; stroke: #b0b0b0; stroke-width: 0.8; stroke-linecap: square"/>
     </g>
     <g id="line2d_22">
      <g>
       <use xlink:href="#me474e8cbf3" x="57.17" y="68.929624" style="stroke: #000000; stroke-width: 0.8"/>
      </g>
     </g>
     <g id="text_12">
      <!-- 8000 -->
      <g transform="translate(24.72 72.728843) scale(0.1 -0.1)">
       <use xlink:href="#DejaVuSans-38"/>
       <use xlink:href="#DejaVuSans-30" transform="translate(63.623047 0)"/>
       <use xlink:href="#DejaVuSans-30" transform="translate(127.246094 0)"/>
       <use xlink:href="#DejaVuSans-30" transform="translate(190.869141 0)"/>
      </g>
     </g>
    </g>
    <g id="text_13">
     <!-- Count -->
     <g transform="translate(18.640313 151.257812) rotate(-90) scale(0.1 -0.1)">
      <defs>
       <path id="DejaVuSans-43" d="M 4122 4306 
L 4122 3641 
Q 3803 3938 3442 4084 
Q 3081 4231 2675 4231 
Q 1875 4231 1450 3742 
Q 1025 3253 1025 2328 
Q 1025 1406 1450 917 
Q 1875 428 2675 428 
Q 3081 428 3442 575 
Q 3803 722 4122 1019 
L 4122 359 
Q 3791 134 3420 21 
Q 3050 -91 2638 -91 
Q 1578 -91 968 557 
Q 359 1206 359 2328 
Q 359 3453 968 4101 
Q 1578 4750 2638 4750 
Q 3056 4750 3426 4639 
Q 3797 4528 4122 4306 
z
" transform="scale(0.015625)"/>
       <path id="DejaVuSans-6f" d="M 1959 3097 
Q 1497 3097 1228 2736 
Q 959 2375 959 1747 
Q 959 1119 1226 758 
Q 1494 397 1959 397 
Q 2419 397 2687 759 
Q 2956 1122 2956 1747 
Q 2956 2369 2687 2733 
Q 2419 3097 1959 3097 
z
M 1959 3584 
Q 2709 3584 3137 3096 
Q 3566 2609 3566 1747 
Q 3566 888 3137 398 
Q 2709 -91 1959 -91 
Q 1206 -91 779 398 
Q 353 888 353 1747 
Q 353 2609 779 3096 
Q 1206 3584 1959 3584 
z
" transform="scale(0.015625)"/>
       <path id="DejaVuSans-75" d="M 544 1381 
L 544 3500 
L 1119 3500 
L 1119 1403 
Q 1119 906 1312 657 
Q 1506 409 1894 409 
Q 2359 409 2629 706 
Q 2900 1003 2900 1516 
L 2900 3500 
L 3475 3500 
L 3475 0 
L 2900 0 
L 2900 538 
Q 2691 219 2414 64 
Q 2138 -91 1772 -91 
Q 1169 -91 856 284 
Q 544 659 544 1381 
z
M 1991 3584 
L 1991 3584 
z
" transform="scale(0.015625)"/>
      </defs>
      <use xlink:href="#DejaVuSans-43"/>
      <use xlink:href="#DejaVuSans-6f" transform="translate(69.824219 0)"/>
      <use xlink:href="#DejaVuSans-75" transform="translate(131.005859 0)"/>
      <use xlink:href="#DejaVuSans-6e" transform="translate(194.384766 0)"/>
      <use xlink:href="#DejaVuSans-74" transform="translate(257.763672 0)"/>
     </g>
    </g>
   </g>
   <g id="patch_53">
    <path d="M 57.17 245.93875 
L 57.17 26.88 
" style="fill: none; stroke: #000000; stroke-width: 0.8; stroke-linejoin: miter; stroke-linecap: square"/>
   </g>
   <g id="patch_54">
    <path d="M 421.2 245.93875 
L 421.2 26.88 
" style="fill: none; stroke: #000000; stroke-width: 0.8; stroke-linejoin: miter; stroke-linecap: square"/>
   </g>
   <g id="patch_55">
    <path d="M 57.17 245.93875 
L 421.2 245.93875 
" style="fill: none; stroke: #000000; stroke-width: 0.8; stroke-linejoin: miter; stroke-linecap: square"/>
   </g>
   <g id="patch_56">
    <path d="M 57.17 26.88 
L 421.2 26.88 
" style="fill: none; stroke: #000000; stroke-width: 0.8; stroke-linejoin: miter; stroke-linecap: square"/>
   </g>
   <g id="text_14">
    <!-- LaneOffset_DDA -->
    <g transform="translate(190.314063 20.88) scale(0.12 -0.12)">
     <use xlink:href="#DejaVuSans-4c"/>
     <use xlink:href="#DejaVuSans-61" transform="translate(55.712891 0)"/>
     <use xlink:href="#DejaVuSans-6e" transform="translate(116.992188 0)"/>
     <use xlink:href="#DejaVuSans-65" transform="translate(180.371094 0)"/>
     <use xlink:href="#DejaVuSans-4f" transform="translate(241.894531 0)"/>
     <use xlink:href="#DejaVuSans-66" transform="translate(320.605469 0)"/>
     <use xlink:href="#DejaVuSans-66" transform="translate(355.810547 0)"/>
     <use xlink:href="#DejaVuSans-73" transform="translate(391.015625 0)"/>
     <use xlink:href="#DejaVuSans-65" transform="translate(443.115234 0)"/>
     <use xlink:href="#DejaVuSans-74" transform="translate(504.638672 0)"/>
     <use xlink:href="#DejaVuSans-5f" transform="translate(543.847656 0)"/>
     <use xlink:href="#DejaVuSans-44" transform="translate(593.847656 0)"/>
     <use xlink:href="#DejaVuSans-44" transform="translate(670.849609 0)"/>
     <use xlink:href="#DejaVuSans-41" transform="translate(746.101562 0)"/>
    </g>
   </g>
  </g>
 </g>
 <defs>
  <clipPath id="p0e673043cc">
   <rect x="57.17" y="26.88" width="364.03" height="219.05875"/>
  </clipPath>
 </defs>
</svg>
