<?xml version="1.0" encoding="utf-8" standalone="no"?>
<!DOCTYPE svg PUBLIC "-//W3C//DTD SVG 1.1//EN"
  "http://www.w3.org/Graphics/SVG/1.1/DTD/svg11.dtd">
<svg xmlns:xlink="http://www.w3.org/1999/xlink" width="432pt" height="288pt" viewBox="0 0 432 288" xmlns="http://www.w3.org/2000/svg" version="1.1">
 <metadata>
  <rdf:RDF xmlns:dc="http://purl.org/dc/elements/1.1/" xmlns:cc="http://creativecommons.org/ns#" xmlns:rdf="http://www.w3.org/1999/02/22-rdf-syntax-ns#">
   <cc:Work>
    <dc:type rdf:resource="http://purl.org/dc/dcmitype/StillImage"/>
    <dc:date>2025-06-15T13:37:42.667444</dc:date>
    <dc:format>image/svg+xml</dc:format>
    <dc:creator>
     <cc:Agent>
      <dc:title>Matplotlib v3.10.0, https://matplotlib.org/</dc:title>
     </cc:Agent>
    </dc:creator>
   </cc:Work>
  </rdf:RDF>
 </metadata>
 <defs>
  <style type="text/css">*{stroke-linejoin: round; stroke-linecap: butt}</style>
 </defs>
 <g id="figure_1">
  <g id="patch_1">
   <path d="M 0 288 
L 432 288 
L 432 0 
L 0 0 
z
" style="fill: #ffffff"/>
  </g>
  <g id="axes_1">
   <g id="patch_2">
    <path d="M 57.17 245.93875 
L 420.911382 245.93875 
L 420.911382 26.88 
L 57.17 26.88 
z
" style="fill: #ffffff"/>
   </g>
   <g id="patch_3">
    <path d="M 73.703699 245.93875 
L 80.317179 245.93875 
L 80.317179 80.27908 
L 73.703699 80.27908 
z
" clip-path="url(#p64a9aa5de1)" style="fill: #1f77b4"/>
   </g>
   <g id="patch_4">
    <path d="M 80.317179 245.93875 
L 86.930658 245.93875 
L 86.930658 37.311369 
L 80.317179 37.311369 
z
" clip-path="url(#p64a9aa5de1)" style="fill: #1f77b4"/>
   </g>
   <g id="patch_5">
    <path d="M 86.930658 245.93875 
L 93.544138 245.93875 
L 93.544138 87.3411 
L 86.930658 87.3411 
z
" clip-path="url(#p64a9aa5de1)" style="fill: #1f77b4"/>
   </g>
   <g id="patch_6">
    <path d="M 93.544138 245.93875 
L 100.157618 245.93875 
L 100.157618 134.520497 
L 93.544138 134.520497 
z
" clip-path="url(#p64a9aa5de1)" style="fill: #1f77b4"/>
   </g>
   <g id="patch_7">
    <path d="M 100.157618 245.93875 
L 106.771097 245.93875 
L 106.771097 172.638388 
L 100.157618 172.638388 
z
" clip-path="url(#p64a9aa5de1)" style="fill: #1f77b4"/>
   </g>
   <g id="patch_8">
    <path d="M 106.771097 245.93875 
L 113.384577 245.93875 
L 113.384577 197.993591 
L 106.771097 197.993591 
z
" clip-path="url(#p64a9aa5de1)" style="fill: #1f77b4"/>
   </g>
   <g id="patch_9">
    <path d="M 113.384577 245.93875 
L 119.998057 245.93875 
L 119.998057 214.712711 
L 113.384577 214.712711 
z
" clip-path="url(#p64a9aa5de1)" style="fill: #1f77b4"/>
   </g>
   <g id="patch_10">
    <path d="M 119.998057 245.93875 
L 126.611536 245.93875 
L 126.611536 224.625064 
L 119.998057 224.625064 
z
" clip-path="url(#p64a9aa5de1)" style="fill: #1f77b4"/>
   </g>
   <g id="patch_11">
    <path d="M 126.611536 245.93875 
L 133.225016 245.93875 
L 133.225016 231.601999 
L 126.611536 231.601999 
z
" clip-path="url(#p64a9aa5de1)" style="fill: #1f77b4"/>
   </g>
   <g id="patch_12">
    <path d="M 133.225016 245.93875 
L 139.838496 245.93875 
L 139.838496 236.494362 
L 133.225016 236.494362 
z
" clip-path="url(#p64a9aa5de1)" style="fill: #1f77b4"/>
   </g>
   <g id="patch_13">
    <path d="M 139.838496 245.93875 
L 146.451975 245.93875 
L 146.451975 237.983342 
L 139.838496 237.983342 
z
" clip-path="url(#p64a9aa5de1)" style="fill: #1f77b4"/>
   </g>
   <g id="patch_14">
    <path d="M 146.451975 245.93875 
L 153.065455 245.93875 
L 153.065455 241.301641 
L 146.451975 241.301641 
z
" clip-path="url(#p64a9aa5de1)" style="fill: #1f77b4"/>
   </g>
   <g id="patch_15">
    <path d="M 153.065455 245.93875 
L 159.678935 245.93875 
L 159.678935 243.428755 
L 153.065455 243.428755 
z
" clip-path="url(#p64a9aa5de1)" style="fill: #1f77b4"/>
   </g>
   <g id="patch_16">
    <path d="M 159.678935 245.93875 
L 166.292414 245.93875 
L 166.292414 244.322143 
L 159.678935 244.322143 
z
" clip-path="url(#p64a9aa5de1)" style="fill: #1f77b4"/>
   </g>
   <g id="patch_17">
    <path d="M 166.292414 245.93875 
L 172.905894 245.93875 
L 172.905894 244.875193 
L 166.292414 244.875193 
z
" clip-path="url(#p64a9aa5de1)" style="fill: #1f77b4"/>
   </g>
   <g id="patch_18">
    <path d="M 172.905894 245.93875 
L 179.519374 245.93875 
L 179.519374 245.258073 
L 172.905894 245.258073 
z
" clip-path="url(#p64a9aa5de1)" style="fill: #1f77b4"/>
   </g>
   <g id="patch_19">
    <path d="M 179.519374 245.93875 
L 186.132853 245.93875 
L 186.132853 245.130447 
L 179.519374 245.130447 
z
" clip-path="url(#p64a9aa5de1)" style="fill: #1f77b4"/>
   </g>
   <g id="patch_20">
    <path d="M 186.132853 245.93875 
L 192.746333 245.93875 
L 192.746333 245.300616 
L 186.132853 245.300616 
z
" clip-path="url(#p64a9aa5de1)" style="fill: #1f77b4"/>
   </g>
   <g id="patch_21">
    <path d="M 192.746333 245.93875 
L 199.359813 245.93875 
L 199.359813 245.683496 
L 192.746333 245.683496 
z
" clip-path="url(#p64a9aa5de1)" style="fill: #1f77b4"/>
   </g>
   <g id="patch_22">
    <path d="M 199.359813 245.93875 
L 205.973292 245.93875 
L 205.973292 245.683496 
L 199.359813 245.683496 
z
" clip-path="url(#p64a9aa5de1)" style="fill: #1f77b4"/>
   </g>
   <g id="patch_23">
    <path d="M 205.973292 245.93875 
L 212.586772 245.93875 
L 212.586772 245.640954 
L 205.973292 245.640954 
z
" clip-path="url(#p64a9aa5de1)" style="fill: #1f77b4"/>
   </g>
   <g id="patch_24">
    <path d="M 212.586772 245.93875 
L 219.200252 245.93875 
L 219.200252 245.93875 
L 212.586772 245.93875 
z
" clip-path="url(#p64a9aa5de1)" style="fill: #1f77b4"/>
   </g>
   <g id="patch_25">
    <path d="M 219.200252 245.93875 
L 225.813731 245.93875 
L 225.813731 245.896208 
L 219.200252 245.896208 
z
" clip-path="url(#p64a9aa5de1)" style="fill: #1f77b4"/>
   </g>
   <g id="patch_26">
    <path d="M 225.813731 245.93875 
L 232.427211 245.93875 
L 232.427211 245.896208 
L 225.813731 245.896208 
z
" clip-path="url(#p64a9aa5de1)" style="fill: #1f77b4"/>
   </g>
   <g id="patch_27">
    <path d="M 232.427211 245.93875 
L 239.040691 245.93875 
L 239.040691 245.93875 
L 232.427211 245.93875 
z
" clip-path="url(#p64a9aa5de1)" style="fill: #1f77b4"/>
   </g>
   <g id="patch_28">
    <path d="M 239.040691 245.93875 
L 245.65417 245.93875 
L 245.65417 245.93875 
L 239.040691 245.93875 
z
" clip-path="url(#p64a9aa5de1)" style="fill: #1f77b4"/>
   </g>
   <g id="patch_29">
    <path d="M 245.65417 245.93875 
L 252.26765 245.93875 
L 252.26765 245.896208 
L 245.65417 245.896208 
z
" clip-path="url(#p64a9aa5de1)" style="fill: #1f77b4"/>
   </g>
   <g id="patch_30">
    <path d="M 252.26765 245.93875 
L 258.88113 245.93875 
L 258.88113 245.896208 
L 252.26765 245.896208 
z
" clip-path="url(#p64a9aa5de1)" style="fill: #1f77b4"/>
   </g>
   <g id="patch_31">
    <path d="M 258.88113 245.93875 
L 265.494609 245.93875 
L 265.494609 245.896208 
L 258.88113 245.896208 
z
" clip-path="url(#p64a9aa5de1)" style="fill: #1f77b4"/>
   </g>
   <g id="patch_32">
    <path d="M 265.494609 245.93875 
L 272.108089 245.93875 
L 272.108089 245.93875 
L 265.494609 245.93875 
z
" clip-path="url(#p64a9aa5de1)" style="fill: #1f77b4"/>
   </g>
   <g id="patch_33">
    <path d="M 272.108089 245.93875 
L 278.721569 245.93875 
L 278.721569 245.896208 
L 272.108089 245.896208 
z
" clip-path="url(#p64a9aa5de1)" style="fill: #1f77b4"/>
   </g>
   <g id="patch_34">
    <path d="M 278.721569 245.93875 
L 285.335048 245.93875 
L 285.335048 245.93875 
L 278.721569 245.93875 
z
" clip-path="url(#p64a9aa5de1)" style="fill: #1f77b4"/>
   </g>
   <g id="patch_35">
    <path d="M 285.335048 245.93875 
L 291.948528 245.93875 
L 291.948528 245.93875 
L 285.335048 245.93875 
z
" clip-path="url(#p64a9aa5de1)" style="fill: #1f77b4"/>
   </g>
   <g id="patch_36">
    <path d="M 291.948528 245.93875 
L 298.562008 245.93875 
L 298.562008 245.93875 
L 291.948528 245.93875 
z
" clip-path="url(#p64a9aa5de1)" style="fill: #1f77b4"/>
   </g>
   <g id="patch_37">
    <path d="M 298.562008 245.93875 
L 305.175487 245.93875 
L 305.175487 245.896208 
L 298.562008 245.896208 
z
" clip-path="url(#p64a9aa5de1)" style="fill: #1f77b4"/>
   </g>
   <g id="patch_38">
    <path d="M 305.175487 245.93875 
L 311.788967 245.93875 
L 311.788967 245.93875 
L 305.175487 245.93875 
z
" clip-path="url(#p64a9aa5de1)" style="fill: #1f77b4"/>
   </g>
   <g id="patch_39">
    <path d="M 311.788967 245.93875 
L 318.402447 245.93875 
L 318.402447 245.93875 
L 311.788967 245.93875 
z
" clip-path="url(#p64a9aa5de1)" style="fill: #1f77b4"/>
   </g>
   <g id="patch_40">
    <path d="M 318.402447 245.93875 
L 325.015926 245.93875 
L 325.015926 245.93875 
L 318.402447 245.93875 
z
" clip-path="url(#p64a9aa5de1)" style="fill: #1f77b4"/>
   </g>
   <g id="patch_41">
    <path d="M 325.015926 245.93875 
L 331.629406 245.93875 
L 331.629406 245.93875 
L 325.015926 245.93875 
z
" clip-path="url(#p64a9aa5de1)" style="fill: #1f77b4"/>
   </g>
   <g id="patch_42">
    <path d="M 331.629406 245.93875 
L 338.242886 245.93875 
L 338.242886 245.93875 
L 331.629406 245.93875 
z
" clip-path="url(#p64a9aa5de1)" style="fill: #1f77b4"/>
   </g>
   <g id="patch_43">
    <path d="M 338.242886 245.93875 
L 344.856365 245.93875 
L 344.856365 245.93875 
L 338.242886 245.93875 
z
" clip-path="url(#p64a9aa5de1)" style="fill: #1f77b4"/>
   </g>
   <g id="patch_44">
    <path d="M 344.856365 245.93875 
L 351.469845 245.93875 
L 351.469845 245.93875 
L 344.856365 245.93875 
z
" clip-path="url(#p64a9aa5de1)" style="fill: #1f77b4"/>
   </g>
   <g id="patch_45">
    <path d="M 351.469845 245.93875 
L 358.083325 245.93875 
L 358.083325 245.93875 
L 351.469845 245.93875 
z
" clip-path="url(#p64a9aa5de1)" style="fill: #1f77b4"/>
   </g>
   <g id="patch_46">
    <path d="M 358.083325 245.93875 
L 364.696804 245.93875 
L 364.696804 245.93875 
L 358.083325 245.93875 
z
" clip-path="url(#p64a9aa5de1)" style="fill: #1f77b4"/>
   </g>
   <g id="patch_47">
    <path d="M 364.696804 245.93875 
L 371.310284 245.93875 
L 371.310284 245.93875 
L 364.696804 245.93875 
z
" clip-path="url(#p64a9aa5de1)" style="fill: #1f77b4"/>
   </g>
   <g id="patch_48">
    <path d="M 371.310284 245.93875 
L 377.923764 245.93875 
L 377.923764 245.93875 
L 371.310284 245.93875 
z
" clip-path="url(#p64a9aa5de1)" style="fill: #1f77b4"/>
   </g>
   <g id="patch_49">
    <path d="M 377.923764 245.93875 
L 384.537243 245.93875 
L 384.537243 245.93875 
L 377.923764 245.93875 
z
" clip-path="url(#p64a9aa5de1)" style="fill: #1f77b4"/>
   </g>
   <g id="patch_50">
    <path d="M 384.537243 245.93875 
L 391.150723 245.93875 
L 391.150723 245.93875 
L 384.537243 245.93875 
z
" clip-path="url(#p64a9aa5de1)" style="fill: #1f77b4"/>
   </g>
   <g id="patch_51">
    <path d="M 391.150723 245.93875 
L 397.764203 245.93875 
L 397.764203 245.93875 
L 391.150723 245.93875 
z
" clip-path="url(#p64a9aa5de1)" style="fill: #1f77b4"/>
   </g>
   <g id="patch_52">
    <path d="M 397.764203 245.93875 
L 404.377682 245.93875 
L 404.377682 245.640954 
L 397.764203 245.640954 
z
" clip-path="url(#p64a9aa5de1)" style="fill: #1f77b4"/>
   </g>
   <g id="matplotlib.axis_1">
    <g id="xtick_1">
     <g id="line2d_1">
      <path d="M 73.703699 245.93875 
L 73.703699 26.88 
" clip-path="url(#p64a9aa5de1)" style="fill: none; stroke: #b0b0b0; stroke-width: 0.8; stroke-linecap: square"/>
     </g>
     <g id="line2d_2">
      <defs>
       <path id="m71c974a093" d="M 0 0 
L 0 3.5 
" style="stroke: #000000; stroke-width: 0.8"/>
      </defs>
      <g>
       <use xlink:href="#m71c974a093" x="73.703699" y="245.93875" style="stroke: #000000; stroke-width: 0.8"/>
      </g>
     </g>
     <g id="text_1">
      <!-- 0.0 -->
      <g transform="translate(65.752137 260.537188) scale(0.1 -0.1)">
       <defs>
        <path id="DejaVuSans-30" d="M 2034 4250 
Q 1547 4250 1301 3770 
Q 1056 3291 1056 2328 
Q 1056 1369 1301 889 
Q 1547 409 2034 409 
Q 2525 409 2770 889 
Q 3016 1369 3016 2328 
Q 3016 3291 2770 3770 
Q 2525 4250 2034 4250 
z
M 2034 4750 
Q 2819 4750 3233 4129 
Q 3647 3509 3647 2328 
Q 3647 1150 3233 529 
Q 2819 -91 2034 -91 
Q 1250 -91 836 529 
Q 422 1150 422 2328 
Q 422 3509 836 4129 
Q 1250 4750 2034 4750 
z
" transform="scale(0.015625)"/>
        <path id="DejaVuSans-2e" d="M 684 794 
L 1344 794 
L 1344 0 
L 684 0 
L 684 794 
z
" transform="scale(0.015625)"/>
       </defs>
       <use xlink:href="#DejaVuSans-30"/>
       <use xlink:href="#DejaVuSans-2e" transform="translate(63.623047 0)"/>
       <use xlink:href="#DejaVuSans-30" transform="translate(95.410156 0)"/>
      </g>
     </g>
    </g>
    <g id="xtick_2">
     <g id="line2d_3">
      <path d="M 122.127343 245.93875 
L 122.127343 26.88 
" clip-path="url(#p64a9aa5de1)" style="fill: none; stroke: #b0b0b0; stroke-width: 0.8; stroke-linecap: square"/>
     </g>
     <g id="line2d_4">
      <g>
       <use xlink:href="#m71c974a093" x="122.127343" y="245.93875" style="stroke: #000000; stroke-width: 0.8"/>
      </g>
     </g>
     <g id="text_2">
      <!-- 0.5 -->
      <g transform="translate(114.17578 260.537188) scale(0.1 -0.1)">
       <defs>
        <path id="DejaVuSans-35" d="M 691 4666 
L 3169 4666 
L 3169 4134 
L 1269 4134 
L 1269 2991 
Q 1406 3038 1543 3061 
Q 1681 3084 1819 3084 
Q 2600 3084 3056 2656 
Q 3513 2228 3513 1497 
Q 3513 744 3044 326 
Q 2575 -91 1722 -91 
Q 1428 -91 1123 -41 
Q 819 9 494 109 
L 494 744 
Q 775 591 1075 516 
Q 1375 441 1709 441 
Q 2250 441 2565 725 
Q 2881 1009 2881 1497 
Q 2881 1984 2565 2268 
Q 2250 2553 1709 2553 
Q 1456 2553 1204 2497 
Q 953 2441 691 2322 
L 691 4666 
z
" transform="scale(0.015625)"/>
       </defs>
       <use xlink:href="#DejaVuSans-30"/>
       <use xlink:href="#DejaVuSans-2e" transform="translate(63.623047 0)"/>
       <use xlink:href="#DejaVuSans-35" transform="translate(95.410156 0)"/>
      </g>
     </g>
    </g>
    <g id="xtick_3">
     <g id="line2d_5">
      <path d="M 170.550986 245.93875 
L 170.550986 26.88 
" clip-path="url(#p64a9aa5de1)" style="fill: none; stroke: #b0b0b0; stroke-width: 0.8; stroke-linecap: square"/>
     </g>
     <g id="line2d_6">
      <g>
       <use xlink:href="#m71c974a093" x="170.550986" y="245.93875" style="stroke: #000000; stroke-width: 0.8"/>
      </g>
     </g>
     <g id="text_3">
      <!-- 1.0 -->
      <g transform="translate(162.599424 260.537188) scale(0.1 -0.1)">
       <defs>
        <path id="DejaVuSans-31" d="M 794 531 
L 1825 531 
L 1825 4091 
L 703 3866 
L 703 4441 
L 1819 4666 
L 2450 4666 
L 2450 531 
L 3481 531 
L 3481 0 
L 794 0 
L 794 531 
z
" transform="scale(0.015625)"/>
       </defs>
       <use xlink:href="#DejaVuSans-31"/>
       <use xlink:href="#DejaVuSans-2e" transform="translate(63.623047 0)"/>
       <use xlink:href="#DejaVuSans-30" transform="translate(95.410156 0)"/>
      </g>
     </g>
    </g>
    <g id="xtick_4">
     <g id="line2d_7">
      <path d="M 218.97463 245.93875 
L 218.97463 26.88 
" clip-path="url(#p64a9aa5de1)" style="fill: none; stroke: #b0b0b0; stroke-width: 0.8; stroke-linecap: square"/>
     </g>
     <g id="line2d_8">
      <g>
       <use xlink:href="#m71c974a093" x="218.97463" y="245.93875" style="stroke: #000000; stroke-width: 0.8"/>
      </g>
     </g>
     <g id="text_4">
      <!-- 1.5 -->
      <g transform="translate(211.023067 260.537188) scale(0.1 -0.1)">
       <use xlink:href="#DejaVuSans-31"/>
       <use xlink:href="#DejaVuSans-2e" transform="translate(63.623047 0)"/>
       <use xlink:href="#DejaVuSans-35" transform="translate(95.410156 0)"/>
      </g>
     </g>
    </g>
    <g id="xtick_5">
     <g id="line2d_9">
      <path d="M 267.398274 245.93875 
L 267.398274 26.88 
" clip-path="url(#p64a9aa5de1)" style="fill: none; stroke: #b0b0b0; stroke-width: 0.8; stroke-linecap: square"/>
     </g>
     <g id="line2d_10">
      <g>
       <use xlink:href="#m71c974a093" x="267.398274" y="245.93875" style="stroke: #000000; stroke-width: 0.8"/>
      </g>
     </g>
     <g id="text_5">
      <!-- 2.0 -->
      <g transform="translate(259.446711 260.537188) scale(0.1 -0.1)">
       <defs>
        <path id="DejaVuSans-32" d="M 1228 531 
L 3431 531 
L 3431 0 
L 469 0 
L 469 531 
Q 828 903 1448 1529 
Q 2069 2156 2228 2338 
Q 2531 2678 2651 2914 
Q 2772 3150 2772 3378 
Q 2772 3750 2511 3984 
Q 2250 4219 1831 4219 
Q 1534 4219 1204 4116 
Q 875 4013 500 3803 
L 500 4441 
Q 881 4594 1212 4672 
Q 1544 4750 1819 4750 
Q 2544 4750 2975 4387 
Q 3406 4025 3406 3419 
Q 3406 3131 3298 2873 
Q 3191 2616 2906 2266 
Q 2828 2175 2409 1742 
Q 1991 1309 1228 531 
z
" transform="scale(0.015625)"/>
       </defs>
       <use xlink:href="#DejaVuSans-32"/>
       <use xlink:href="#DejaVuSans-2e" transform="translate(63.623047 0)"/>
       <use xlink:href="#DejaVuSans-30" transform="translate(95.410156 0)"/>
      </g>
     </g>
    </g>
    <g id="xtick_6">
     <g id="line2d_11">
      <path d="M 315.821917 245.93875 
L 315.821917 26.88 
" clip-path="url(#p64a9aa5de1)" style="fill: none; stroke: #b0b0b0; stroke-width: 0.8; stroke-linecap: square"/>
     </g>
     <g id="line2d_12">
      <g>
       <use xlink:href="#m71c974a093" x="315.821917" y="245.93875" style="stroke: #000000; stroke-width: 0.8"/>
      </g>
     </g>
     <g id="text_6">
      <!-- 2.5 -->
      <g transform="translate(307.870355 260.537188) scale(0.1 -0.1)">
       <use xlink:href="#DejaVuSans-32"/>
       <use xlink:href="#DejaVuSans-2e" transform="translate(63.623047 0)"/>
       <use xlink:href="#DejaVuSans-35" transform="translate(95.410156 0)"/>
      </g>
     </g>
    </g>
    <g id="xtick_7">
     <g id="line2d_13">
      <path d="M 364.245561 245.93875 
L 364.245561 26.88 
" clip-path="url(#p64a9aa5de1)" style="fill: none; stroke: #b0b0b0; stroke-width: 0.8; stroke-linecap: square"/>
     </g>
     <g id="line2d_14">
      <g>
       <use xlink:href="#m71c974a093" x="364.245561" y="245.93875" style="stroke: #000000; stroke-width: 0.8"/>
      </g>
     </g>
     <g id="text_7">
      <!-- 3.0 -->
      <g transform="translate(356.293998 260.537188) scale(0.1 -0.1)">
       <defs>
        <path id="DejaVuSans-33" d="M 2597 2516 
Q 3050 2419 3304 2112 
Q 3559 1806 3559 1356 
Q 3559 666 3084 287 
Q 2609 -91 1734 -91 
Q 1441 -91 1130 -33 
Q 819 25 488 141 
L 488 750 
Q 750 597 1062 519 
Q 1375 441 1716 441 
Q 2309 441 2620 675 
Q 2931 909 2931 1356 
Q 2931 1769 2642 2001 
Q 2353 2234 1838 2234 
L 1294 2234 
L 1294 2753 
L 1863 2753 
Q 2328 2753 2575 2939 
Q 2822 3125 2822 3475 
Q 2822 3834 2567 4026 
Q 2313 4219 1838 4219 
Q 1578 4219 1281 4162 
Q 984 4106 628 3988 
L 628 4550 
Q 988 4650 1302 4700 
Q 1616 4750 1894 4750 
Q 2613 4750 3031 4423 
Q 3450 4097 3450 3541 
Q 3450 3153 3228 2886 
Q 3006 2619 2597 2516 
z
" transform="scale(0.015625)"/>
       </defs>
       <use xlink:href="#DejaVuSans-33"/>
       <use xlink:href="#DejaVuSans-2e" transform="translate(63.623047 0)"/>
       <use xlink:href="#DejaVuSans-30" transform="translate(95.410156 0)"/>
      </g>
     </g>
    </g>
    <g id="xtick_8">
     <g id="line2d_15">
      <path d="M 412.669204 245.93875 
L 412.669204 26.88 
" clip-path="url(#p64a9aa5de1)" style="fill: none; stroke: #b0b0b0; stroke-width: 0.8; stroke-linecap: square"/>
     </g>
     <g id="line2d_16">
      <g>
       <use xlink:href="#m71c974a093" x="412.669204" y="245.93875" style="stroke: #000000; stroke-width: 0.8"/>
      </g>
     </g>
     <g id="text_8">
      <!-- 3.5 -->
      <g transform="translate(404.717642 260.537188) scale(0.1 -0.1)">
       <use xlink:href="#DejaVuSans-33"/>
       <use xlink:href="#DejaVuSans-2e" transform="translate(63.623047 0)"/>
       <use xlink:href="#DejaVuSans-35" transform="translate(95.410156 0)"/>
      </g>
     </g>
    </g>
    <g id="text_9">
     <!-- LaneOffset_Range -->
     <g transform="translate(193.50241 274.215312) scale(0.1 -0.1)">
      <defs>
       <path id="DejaVuSans-4c" d="M 628 4666 
L 1259 4666 
L 1259 531 
L 3531 531 
L 3531 0 
L 628 0 
L 628 4666 
z
" transform="scale(0.015625)"/>
       <path id="DejaVuSans-61" d="M 2194 1759 
Q 1497 1759 1228 1600 
Q 959 1441 959 1056 
Q 959 750 1161 570 
Q 1363 391 1709 391 
Q 2188 391 2477 730 
Q 2766 1069 2766 1631 
L 2766 1759 
L 2194 1759 
z
M 3341 1997 
L 3341 0 
L 2766 0 
L 2766 531 
Q 2569 213 2275 61 
Q 1981 -91 1556 -91 
Q 1019 -91 701 211 
Q 384 513 384 1019 
Q 384 1609 779 1909 
Q 1175 2209 1959 2209 
L 2766 2209 
L 2766 2266 
Q 2766 2663 2505 2880 
Q 2244 3097 1772 3097 
Q 1472 3097 1187 3025 
Q 903 2953 641 2809 
L 641 3341 
Q 956 3463 1253 3523 
Q 1550 3584 1831 3584 
Q 2591 3584 2966 3190 
Q 3341 2797 3341 1997 
z
" transform="scale(0.015625)"/>
       <path id="DejaVuSans-6e" d="M 3513 2113 
L 3513 0 
L 2938 0 
L 2938 2094 
Q 2938 2591 2744 2837 
Q 2550 3084 2163 3084 
Q 1697 3084 1428 2787 
Q 1159 2491 1159 1978 
L 1159 0 
L 581 0 
L 581 3500 
L 1159 3500 
L 1159 2956 
Q 1366 3272 1645 3428 
Q 1925 3584 2291 3584 
Q 2894 3584 3203 3211 
Q 3513 2838 3513 2113 
z
" transform="scale(0.015625)"/>
       <path id="DejaVuSans-65" d="M 3597 1894 
L 3597 1613 
L 953 1613 
Q 991 1019 1311 708 
Q 1631 397 2203 397 
Q 2534 397 2845 478 
Q 3156 559 3463 722 
L 3463 178 
Q 3153 47 2828 -22 
Q 2503 -91 2169 -91 
Q 1331 -91 842 396 
Q 353 884 353 1716 
Q 353 2575 817 3079 
Q 1281 3584 2069 3584 
Q 2775 3584 3186 3129 
Q 3597 2675 3597 1894 
z
M 3022 2063 
Q 3016 2534 2758 2815 
Q 2500 3097 2075 3097 
Q 1594 3097 1305 2825 
Q 1016 2553 972 2059 
L 3022 2063 
z
" transform="scale(0.015625)"/>
       <path id="DejaVuSans-4f" d="M 2522 4238 
Q 1834 4238 1429 3725 
Q 1025 3213 1025 2328 
Q 1025 1447 1429 934 
Q 1834 422 2522 422 
Q 3209 422 3611 934 
Q 4013 1447 4013 2328 
Q 4013 3213 3611 3725 
Q 3209 4238 2522 4238 
z
M 2522 4750 
Q 3503 4750 4090 4092 
Q 4678 3434 4678 2328 
Q 4678 1225 4090 567 
Q 3503 -91 2522 -91 
Q 1538 -91 948 565 
Q 359 1222 359 2328 
Q 359 3434 948 4092 
Q 1538 4750 2522 4750 
z
" transform="scale(0.015625)"/>
       <path id="DejaVuSans-66" d="M 2375 4863 
L 2375 4384 
L 1825 4384 
Q 1516 4384 1395 4259 
Q 1275 4134 1275 3809 
L 1275 3500 
L 2222 3500 
L 2222 3053 
L 1275 3053 
L 1275 0 
L 697 0 
L 697 3053 
L 147 3053 
L 147 3500 
L 697 3500 
L 697 3744 
Q 697 4328 969 4595 
Q 1241 4863 1831 4863 
L 2375 4863 
z
" transform="scale(0.015625)"/>
       <path id="DejaVuSans-73" d="M 2834 3397 
L 2834 2853 
Q 2591 2978 2328 3040 
Q 2066 3103 1784 3103 
Q 1356 3103 1142 2972 
Q 928 2841 928 2578 
Q 928 2378 1081 2264 
Q 1234 2150 1697 2047 
L 1894 2003 
Q 2506 1872 2764 1633 
Q 3022 1394 3022 966 
Q 3022 478 2636 193 
Q 2250 -91 1575 -91 
Q 1294 -91 989 -36 
Q 684 19 347 128 
L 347 722 
Q 666 556 975 473 
Q 1284 391 1588 391 
Q 1994 391 2212 530 
Q 2431 669 2431 922 
Q 2431 1156 2273 1281 
Q 2116 1406 1581 1522 
L 1381 1569 
Q 847 1681 609 1914 
Q 372 2147 372 2553 
Q 372 3047 722 3315 
Q 1072 3584 1716 3584 
Q 2034 3584 2315 3537 
Q 2597 3491 2834 3397 
z
" transform="scale(0.015625)"/>
       <path id="DejaVuSans-74" d="M 1172 4494 
L 1172 3500 
L 2356 3500 
L 2356 3053 
L 1172 3053 
L 1172 1153 
Q 1172 725 1289 603 
Q 1406 481 1766 481 
L 2356 481 
L 2356 0 
L 1766 0 
Q 1100 0 847 248 
Q 594 497 594 1153 
L 594 3053 
L 172 3053 
L 172 3500 
L 594 3500 
L 594 4494 
L 1172 4494 
z
" transform="scale(0.015625)"/>
       <path id="DejaVuSans-5f" d="M 3263 -1063 
L 3263 -1509 
L -63 -1509 
L -63 -1063 
L 3263 -1063 
z
" transform="scale(0.015625)"/>
       <path id="DejaVuSans-52" d="M 2841 2188 
Q 3044 2119 3236 1894 
Q 3428 1669 3622 1275 
L 4263 0 
L 3584 0 
L 2988 1197 
Q 2756 1666 2539 1819 
Q 2322 1972 1947 1972 
L 1259 1972 
L 1259 0 
L 628 0 
L 628 4666 
L 2053 4666 
Q 2853 4666 3247 4331 
Q 3641 3997 3641 3322 
Q 3641 2881 3436 2590 
Q 3231 2300 2841 2188 
z
M 1259 4147 
L 1259 2491 
L 2053 2491 
Q 2509 2491 2742 2702 
Q 2975 2913 2975 3322 
Q 2975 3731 2742 3939 
Q 2509 4147 2053 4147 
L 1259 4147 
z
" transform="scale(0.015625)"/>
       <path id="DejaVuSans-67" d="M 2906 1791 
Q 2906 2416 2648 2759 
Q 2391 3103 1925 3103 
Q 1463 3103 1205 2759 
Q 947 2416 947 1791 
Q 947 1169 1205 825 
Q 1463 481 1925 481 
Q 2391 481 2648 825 
Q 2906 1169 2906 1791 
z
M 3481 434 
Q 3481 -459 3084 -895 
Q 2688 -1331 1869 -1331 
Q 1566 -1331 1297 -1286 
Q 1028 -1241 775 -1147 
L 775 -588 
Q 1028 -725 1275 -790 
Q 1522 -856 1778 -856 
Q 2344 -856 2625 -561 
Q 2906 -266 2906 331 
L 2906 616 
Q 2728 306 2450 153 
Q 2172 0 1784 0 
Q 1141 0 747 490 
Q 353 981 353 1791 
Q 353 2603 747 3093 
Q 1141 3584 1784 3584 
Q 2172 3584 2450 3431 
Q 2728 3278 2906 2969 
L 2906 3500 
L 3481 3500 
L 3481 434 
z
" transform="scale(0.015625)"/>
      </defs>
      <use xlink:href="#DejaVuSans-4c"/>
      <use xlink:href="#DejaVuSans-61" transform="translate(55.712891 0)"/>
      <use xlink:href="#DejaVuSans-6e" transform="translate(116.992188 0)"/>
      <use xlink:href="#DejaVuSans-65" transform="translate(180.371094 0)"/>
      <use xlink:href="#DejaVuSans-4f" transform="translate(241.894531 0)"/>
      <use xlink:href="#DejaVuSans-66" transform="translate(320.605469 0)"/>
      <use xlink:href="#DejaVuSans-66" transform="translate(355.810547 0)"/>
      <use xlink:href="#DejaVuSans-73" transform="translate(391.015625 0)"/>
      <use xlink:href="#DejaVuSans-65" transform="translate(443.115234 0)"/>
      <use xlink:href="#DejaVuSans-74" transform="translate(504.638672 0)"/>
      <use xlink:href="#DejaVuSans-5f" transform="translate(543.847656 0)"/>
      <use xlink:href="#DejaVuSans-52" transform="translate(593.847656 0)"/>
      <use xlink:href="#DejaVuSans-61" transform="translate(661.080078 0)"/>
      <use xlink:href="#DejaVuSans-6e" transform="translate(722.359375 0)"/>
      <use xlink:href="#DejaVuSans-67" transform="translate(785.738281 0)"/>
      <use xlink:href="#DejaVuSans-65" transform="translate(849.214844 0)"/>
     </g>
    </g>
   </g>
   <g id="matplotlib.axis_2">
    <g id="ytick_1">
     <g id="line2d_17">
      <path d="M 57.17 245.93875 
L 420.911382 245.93875 
" clip-path="url(#p64a9aa5de1)" style="fill: none; stroke: #b0b0b0; stroke-width: 0.8; stroke-linecap: square"/>
     </g>
     <g id="line2d_18">
      <defs>
       <path id="m46f4a5e31b" d="M 0 0 
L -3.5 0 
" style="stroke: #000000; stroke-width: 0.8"/>
      </defs>
      <g>
       <use xlink:href="#m46f4a5e31b" x="57.17" y="245.93875" style="stroke: #000000; stroke-width: 0.8"/>
      </g>
     </g>
     <g id="text_10">
      <!-- 0 -->
      <g transform="translate(43.8075 249.737969) scale(0.1 -0.1)">
       <use xlink:href="#DejaVuSans-30"/>
      </g>
     </g>
    </g>
    <g id="ytick_2">
     <g id="line2d_19">
      <path d="M 57.17 203.396462 
L 420.911382 203.396462 
" clip-path="url(#p64a9aa5de1)" style="fill: none; stroke: #b0b0b0; stroke-width: 0.8; stroke-linecap: square"/>
     </g>
     <g id="line2d_20">
      <g>
       <use xlink:href="#m46f4a5e31b" x="57.17" y="203.396462" style="stroke: #000000; stroke-width: 0.8"/>
      </g>
     </g>
     <g id="text_11">
      <!-- 1000 -->
      <g transform="translate(24.72 207.195681) scale(0.1 -0.1)">
       <use xlink:href="#DejaVuSans-31"/>
       <use xlink:href="#DejaVuSans-30" transform="translate(63.623047 0)"/>
       <use xlink:href="#DejaVuSans-30" transform="translate(127.246094 0)"/>
       <use xlink:href="#DejaVuSans-30" transform="translate(190.869141 0)"/>
      </g>
     </g>
    </g>
    <g id="ytick_3">
     <g id="line2d_21">
      <path d="M 57.17 160.854174 
L 420.911382 160.854174 
" clip-path="url(#p64a9aa5de1)" style="fill: none; stroke: #b0b0b0; stroke-width: 0.8; stroke-linecap: square"/>
     </g>
     <g id="line2d_22">
      <g>
       <use xlink:href="#m46f4a5e31b" x="57.17" y="160.854174" style="stroke: #000000; stroke-width: 0.8"/>
      </g>
     </g>
     <g id="text_12">
      <!-- 2000 -->
      <g transform="translate(24.72 164.653393) scale(0.1 -0.1)">
       <use xlink:href="#DejaVuSans-32"/>
       <use xlink:href="#DejaVuSans-30" transform="translate(63.623047 0)"/>
       <use xlink:href="#DejaVuSans-30" transform="translate(127.246094 0)"/>
       <use xlink:href="#DejaVuSans-30" transform="translate(190.869141 0)"/>
      </g>
     </g>
    </g>
    <g id="ytick_4">
     <g id="line2d_23">
      <path d="M 57.17 118.311886 
L 420.911382 118.311886 
" clip-path="url(#p64a9aa5de1)" style="fill: none; stroke: #b0b0b0; stroke-width: 0.8; stroke-linecap: square"/>
     </g>
     <g id="line2d_24">
      <g>
       <use xlink:href="#m46f4a5e31b" x="57.17" y="118.311886" style="stroke: #000000; stroke-width: 0.8"/>
      </g>
     </g>
     <g id="text_13">
      <!-- 3000 -->
      <g transform="translate(24.72 122.111104) scale(0.1 -0.1)">
       <use xlink:href="#DejaVuSans-33"/>
       <use xlink:href="#DejaVuSans-30" transform="translate(63.623047 0)"/>
       <use xlink:href="#DejaVuSans-30" transform="translate(127.246094 0)"/>
       <use xlink:href="#DejaVuSans-30" transform="translate(190.869141 0)"/>
      </g>
     </g>
    </g>
    <g id="ytick_5">
     <g id="line2d_25">
      <path d="M 57.17 75.769598 
L 420.911382 75.769598 
" clip-path="url(#p64a9aa5de1)" style="fill: none; stroke: #b0b0b0; stroke-width: 0.8; stroke-linecap: square"/>
     </g>
     <g id="line2d_26">
      <g>
       <use xlink:href="#m46f4a5e31b" x="57.17" y="75.769598" style="stroke: #000000; stroke-width: 0.8"/>
      </g>
     </g>
     <g id="text_14">
      <!-- 4000 -->
      <g transform="translate(24.72 79.568816) scale(0.1 -0.1)">
       <defs>
        <path id="DejaVuSans-34" d="M 2419 4116 
L 825 1625 
L 2419 1625 
L 2419 4116 
z
M 2253 4666 
L 3047 4666 
L 3047 1625 
L 3713 1625 
L 3713 1100 
L 3047 1100 
L 3047 0 
L 2419 0 
L 2419 1100 
L 313 1100 
L 313 1709 
L 2253 4666 
z
" transform="scale(0.015625)"/>
       </defs>
       <use xlink:href="#DejaVuSans-34"/>
       <use xlink:href="#DejaVuSans-30" transform="translate(63.623047 0)"/>
       <use xlink:href="#DejaVuSans-30" transform="translate(127.246094 0)"/>
       <use xlink:href="#DejaVuSans-30" transform="translate(190.869141 0)"/>
      </g>
     </g>
    </g>
    <g id="ytick_6">
     <g id="line2d_27">
      <path d="M 57.17 33.227309 
L 420.911382 33.227309 
" clip-path="url(#p64a9aa5de1)" style="fill: none; stroke: #b0b0b0; stroke-width: 0.8; stroke-linecap: square"/>
     </g>
     <g id="line2d_28">
      <g>
       <use xlink:href="#m46f4a5e31b" x="57.17" y="33.227309" style="stroke: #000000; stroke-width: 0.8"/>
      </g>
     </g>
     <g id="text_15">
      <!-- 5000 -->
      <g transform="translate(24.72 37.026528) scale(0.1 -0.1)">
       <use xlink:href="#DejaVuSans-35"/>
       <use xlink:href="#DejaVuSans-30" transform="translate(63.623047 0)"/>
       <use xlink:href="#DejaVuSans-30" transform="translate(127.246094 0)"/>
       <use xlink:href="#DejaVuSans-30" transform="translate(190.869141 0)"/>
      </g>
     </g>
    </g>
    <g id="text_16">
     <!-- Count -->
     <g transform="translate(18.640313 151.257812) rotate(-90) scale(0.1 -0.1)">
      <defs>
       <path id="DejaVuSans-43" d="M 4122 4306 
L 4122 3641 
Q 3803 3938 3442 4084 
Q 3081 4231 2675 4231 
Q 1875 4231 1450 3742 
Q 1025 3253 1025 2328 
Q 1025 1406 1450 917 
Q 1875 428 2675 428 
Q 3081 428 3442 575 
Q 3803 722 4122 1019 
L 4122 359 
Q 3791 134 3420 21 
Q 3050 -91 2638 -91 
Q 1578 -91 968 557 
Q 359 1206 359 2328 
Q 359 3453 968 4101 
Q 1578 4750 2638 4750 
Q 3056 4750 3426 4639 
Q 3797 4528 4122 4306 
z
" transform="scale(0.015625)"/>
       <path id="DejaVuSans-6f" d="M 1959 3097 
Q 1497 3097 1228 2736 
Q 959 2375 959 1747 
Q 959 1119 1226 758 
Q 1494 397 1959 397 
Q 2419 397 2687 759 
Q 2956 1122 2956 1747 
Q 2956 2369 2687 2733 
Q 2419 3097 1959 3097 
z
M 1959 3584 
Q 2709 3584 3137 3096 
Q 3566 2609 3566 1747 
Q 3566 888 3137 398 
Q 2709 -91 1959 -91 
Q 1206 -91 779 398 
Q 353 888 353 1747 
Q 353 2609 779 3096 
Q 1206 3584 1959 3584 
z
" transform="scale(0.015625)"/>
       <path id="DejaVuSans-75" d="M 544 1381 
L 544 3500 
L 1119 3500 
L 1119 1403 
Q 1119 906 1312 657 
Q 1506 409 1894 409 
Q 2359 409 2629 706 
Q 2900 1003 2900 1516 
L 2900 3500 
L 3475 3500 
L 3475 0 
L 2900 0 
L 2900 538 
Q 2691 219 2414 64 
Q 2138 -91 1772 -91 
Q 1169 -91 856 284 
Q 544 659 544 1381 
z
M 1991 3584 
L 1991 3584 
z
" transform="scale(0.015625)"/>
      </defs>
      <use xlink:href="#DejaVuSans-43"/>
      <use xlink:href="#DejaVuSans-6f" transform="translate(69.824219 0)"/>
      <use xlink:href="#DejaVuSans-75" transform="translate(131.005859 0)"/>
      <use xlink:href="#DejaVuSans-6e" transform="translate(194.384766 0)"/>
      <use xlink:href="#DejaVuSans-74" transform="translate(257.763672 0)"/>
     </g>
    </g>
   </g>
   <g id="patch_53">
    <path d="M 57.17 245.93875 
L 57.17 26.88 
" style="fill: none; stroke: #000000; stroke-width: 0.8; stroke-linejoin: miter; stroke-linecap: square"/>
   </g>
   <g id="patch_54">
    <path d="M 420.911382 245.93875 
L 420.911382 26.88 
" style="fill: none; stroke: #000000; stroke-width: 0.8; stroke-linejoin: miter; stroke-linecap: square"/>
   </g>
   <g id="patch_55">
    <path d="M 57.17 245.93875 
L 420.911382 245.93875 
" style="fill: none; stroke: #000000; stroke-width: 0.8; stroke-linejoin: miter; stroke-linecap: square"/>
   </g>
   <g id="patch_56">
    <path d="M 57.17 26.88 
L 420.911382 26.88 
" style="fill: none; stroke: #000000; stroke-width: 0.8; stroke-linejoin: miter; stroke-linecap: square"/>
   </g>
   <g id="text_17">
    <!-- LaneOffset_Range -->
    <g transform="translate(184.394753 20.88) scale(0.12 -0.12)">
     <use xlink:href="#DejaVuSans-4c"/>
     <use xlink:href="#DejaVuSans-61" transform="translate(55.712891 0)"/>
     <use xlink:href="#DejaVuSans-6e" transform="translate(116.992188 0)"/>
     <use xlink:href="#DejaVuSans-65" transform="translate(180.371094 0)"/>
     <use xlink:href="#DejaVuSans-4f" transform="translate(241.894531 0)"/>
     <use xlink:href="#DejaVuSans-66" transform="translate(320.605469 0)"/>
     <use xlink:href="#DejaVuSans-66" transform="translate(355.810547 0)"/>
     <use xlink:href="#DejaVuSans-73" transform="translate(391.015625 0)"/>
     <use xlink:href="#DejaVuSans-65" transform="translate(443.115234 0)"/>
     <use xlink:href="#DejaVuSans-74" transform="translate(504.638672 0)"/>
     <use xlink:href="#DejaVuSans-5f" transform="translate(543.847656 0)"/>
     <use xlink:href="#DejaVuSans-52" transform="translate(593.847656 0)"/>
     <use xlink:href="#DejaVuSans-61" transform="translate(661.080078 0)"/>
     <use xlink:href="#DejaVuSans-6e" transform="translate(722.359375 0)"/>
     <use xlink:href="#DejaVuSans-67" transform="translate(785.738281 0)"/>
     <use xlink:href="#DejaVuSans-65" transform="translate(849.214844 0)"/>
    </g>
   </g>
  </g>
 </g>
 <defs>
  <clipPath id="p64a9aa5de1">
   <rect x="57.17" y="26.88" width="363.741382" height="219.05875"/>
  </clipPath>
 </defs>
</svg>
