<?xml version="1.0" encoding="utf-8" standalone="no"?>
<!DOCTYPE svg PUBLIC "-//W3C//DTD SVG 1.1//EN"
  "http://www.w3.org/Graphics/SVG/1.1/DTD/svg11.dtd">
<svg xmlns:xlink="http://www.w3.org/1999/xlink" width="432pt" height="288pt" viewBox="0 0 432 288" xmlns="http://www.w3.org/2000/svg" version="1.1">
 <metadata>
  <rdf:RDF xmlns:dc="http://purl.org/dc/elements/1.1/" xmlns:cc="http://creativecommons.org/ns#" xmlns:rdf="http://www.w3.org/1999/02/22-rdf-syntax-ns#">
   <cc:Work>
    <dc:type rdf:resource="http://purl.org/dc/dcmitype/StillImage"/>
    <dc:date>2025-06-15T13:37:44.382614</dc:date>
    <dc:format>image/svg+xml</dc:format>
    <dc:creator>
     <cc:Agent>
      <dc:title>Matplotlib v3.10.0, https://matplotlib.org/</dc:title>
     </cc:Agent>
    </dc:creator>
   </cc:Work>
  </rdf:RDF>
 </metadata>
 <defs>
  <style type="text/css">*{stroke-linejoin: round; stroke-linecap: butt}</style>
 </defs>
 <g id="figure_1">
  <g id="patch_1">
   <path d="M 0 288 
L 432 288 
L 432 0 
L 0 0 
z
" style="fill: #ffffff"/>
  </g>
  <g id="axes_1">
   <g id="patch_2">
    <path d="M 63.47 245.93875 
L 421.2 245.93875 
L 421.2 26.88 
L 63.47 26.88 
z
" style="fill: #ffffff"/>
   </g>
   <g id="patch_3">
    <path d="M 79.730455 245.93875 
L 86.234636 245.93875 
L 86.234636 245.179645 
L 79.730455 245.179645 
z
" clip-path="url(#pbb839352ba)" style="fill: #1f77b4"/>
   </g>
   <g id="patch_4">
    <path d="M 86.234636 245.93875 
L 92.738818 245.93875 
L 92.738818 245.93875 
L 86.234636 245.93875 
z
" clip-path="url(#pbb839352ba)" style="fill: #1f77b4"/>
   </g>
   <g id="patch_5">
    <path d="M 92.738818 245.93875 
L 99.243 245.93875 
L 99.243 241.454407 
L 92.738818 241.454407 
z
" clip-path="url(#pbb839352ba)" style="fill: #1f77b4"/>
   </g>
   <g id="patch_6">
    <path d="M 99.243 245.93875 
L 105.747182 245.93875 
L 105.747182 240.315749 
L 99.243 240.315749 
z
" clip-path="url(#pbb839352ba)" style="fill: #1f77b4"/>
   </g>
   <g id="patch_7">
    <path d="M 105.747182 245.93875 
L 112.251364 245.93875 
L 112.251364 240.484439 
L 105.747182 240.484439 
z
" clip-path="url(#pbb839352ba)" style="fill: #1f77b4"/>
   </g>
   <g id="patch_8">
    <path d="M 112.251364 245.93875 
L 118.755545 245.93875 
L 118.755545 237.827572 
L 112.251364 237.827572 
z
" clip-path="url(#pbb839352ba)" style="fill: #1f77b4"/>
   </g>
   <g id="patch_9">
    <path d="M 118.755545 245.93875 
L 125.259727 245.93875 
L 125.259727 222.209687 
L 118.755545 222.209687 
z
" clip-path="url(#pbb839352ba)" style="fill: #1f77b4"/>
   </g>
   <g id="patch_10">
    <path d="M 125.259727 245.93875 
L 131.763909 245.93875 
L 131.763909 37.311369 
L 125.259727 37.311369 
z
" clip-path="url(#pbb839352ba)" style="fill: #1f77b4"/>
   </g>
   <g id="patch_11">
    <path d="M 131.763909 245.93875 
L 138.268091 245.93875 
L 138.268091 226.6378 
L 131.763909 226.6378 
z
" clip-path="url(#pbb839352ba)" style="fill: #1f77b4"/>
   </g>
   <g id="patch_12">
    <path d="M 138.268091 245.93875 
L 144.772273 245.93875 
L 144.772273 240.259519 
L 138.268091 240.259519 
z
" clip-path="url(#pbb839352ba)" style="fill: #1f77b4"/>
   </g>
   <g id="patch_13">
    <path d="M 144.772273 245.93875 
L 151.276455 245.93875 
L 151.276455 244.322137 
L 144.772273 244.322137 
z
" clip-path="url(#pbb839352ba)" style="fill: #1f77b4"/>
   </g>
   <g id="patch_14">
    <path d="M 151.276455 245.93875 
L 157.780636 245.93875 
L 157.780636 245.446737 
L 151.276455 245.446737 
z
" clip-path="url(#pbb839352ba)" style="fill: #1f77b4"/>
   </g>
   <g id="patch_15">
    <path d="M 157.780636 245.93875 
L 164.284818 245.93875 
L 164.284818 245.643542 
L 157.780636 245.643542 
z
" clip-path="url(#pbb839352ba)" style="fill: #1f77b4"/>
   </g>
   <g id="patch_16">
    <path d="M 164.284818 245.93875 
L 170.789 245.93875 
L 170.789 245.784117 
L 164.284818 245.784117 
z
" clip-path="url(#pbb839352ba)" style="fill: #1f77b4"/>
   </g>
   <g id="patch_17">
    <path d="M 170.789 245.93875 
L 177.293182 245.93875 
L 177.293182 245.812232 
L 170.789 245.812232 
z
" clip-path="url(#pbb839352ba)" style="fill: #1f77b4"/>
   </g>
   <g id="patch_18">
    <path d="M 177.293182 245.93875 
L 183.797364 245.93875 
L 183.797364 245.727887 
L 177.293182 245.727887 
z
" clip-path="url(#pbb839352ba)" style="fill: #1f77b4"/>
   </g>
   <g id="patch_19">
    <path d="M 183.797364 245.93875 
L 190.301545 245.93875 
L 190.301545 245.854405 
L 183.797364 245.854405 
z
" clip-path="url(#pbb839352ba)" style="fill: #1f77b4"/>
   </g>
   <g id="patch_20">
    <path d="M 190.301545 245.93875 
L 196.805727 245.93875 
L 196.805727 245.798175 
L 190.301545 245.798175 
z
" clip-path="url(#pbb839352ba)" style="fill: #1f77b4"/>
   </g>
   <g id="patch_21">
    <path d="M 196.805727 245.93875 
L 203.309909 245.93875 
L 203.309909 245.88252 
L 196.805727 245.88252 
z
" clip-path="url(#pbb839352ba)" style="fill: #1f77b4"/>
   </g>
   <g id="patch_22">
    <path d="M 203.309909 245.93875 
L 209.814091 245.93875 
L 209.814091 245.82629 
L 203.309909 245.82629 
z
" clip-path="url(#pbb839352ba)" style="fill: #1f77b4"/>
   </g>
   <g id="patch_23">
    <path d="M 209.814091 245.93875 
L 216.318273 245.93875 
L 216.318273 245.924692 
L 209.814091 245.924692 
z
" clip-path="url(#pbb839352ba)" style="fill: #1f77b4"/>
   </g>
   <g id="patch_24">
    <path d="M 216.318273 245.93875 
L 222.822455 245.93875 
L 222.822455 245.924692 
L 216.318273 245.924692 
z
" clip-path="url(#pbb839352ba)" style="fill: #1f77b4"/>
   </g>
   <g id="patch_25">
    <path d="M 222.822455 245.93875 
L 229.326636 245.93875 
L 229.326636 245.924692 
L 222.822455 245.924692 
z
" clip-path="url(#pbb839352ba)" style="fill: #1f77b4"/>
   </g>
   <g id="patch_26">
    <path d="M 229.326636 245.93875 
L 235.830818 245.93875 
L 235.830818 245.93875 
L 229.326636 245.93875 
z
" clip-path="url(#pbb839352ba)" style="fill: #1f77b4"/>
   </g>
   <g id="patch_27">
    <path d="M 235.830818 245.93875 
L 242.335 245.93875 
L 242.335 245.924692 
L 235.830818 245.924692 
z
" clip-path="url(#pbb839352ba)" style="fill: #1f77b4"/>
   </g>
   <g id="patch_28">
    <path d="M 242.335 245.93875 
L 248.839182 245.93875 
L 248.839182 245.93875 
L 242.335 245.93875 
z
" clip-path="url(#pbb839352ba)" style="fill: #1f77b4"/>
   </g>
   <g id="patch_29">
    <path d="M 248.839182 245.93875 
L 255.343364 245.93875 
L 255.343364 245.924692 
L 248.839182 245.924692 
z
" clip-path="url(#pbb839352ba)" style="fill: #1f77b4"/>
   </g>
   <g id="patch_30">
    <path d="M 255.343364 245.93875 
L 261.847545 245.93875 
L 261.847545 245.93875 
L 255.343364 245.93875 
z
" clip-path="url(#pbb839352ba)" style="fill: #1f77b4"/>
   </g>
   <g id="patch_31">
    <path d="M 261.847545 245.93875 
L 268.351727 245.93875 
L 268.351727 245.93875 
L 261.847545 245.93875 
z
" clip-path="url(#pbb839352ba)" style="fill: #1f77b4"/>
   </g>
   <g id="patch_32">
    <path d="M 268.351727 245.93875 
L 274.855909 245.93875 
L 274.855909 245.93875 
L 268.351727 245.93875 
z
" clip-path="url(#pbb839352ba)" style="fill: #1f77b4"/>
   </g>
   <g id="patch_33">
    <path d="M 274.855909 245.93875 
L 281.360091 245.93875 
L 281.360091 245.924692 
L 274.855909 245.924692 
z
" clip-path="url(#pbb839352ba)" style="fill: #1f77b4"/>
   </g>
   <g id="patch_34">
    <path d="M 281.360091 245.93875 
L 287.864273 245.93875 
L 287.864273 245.924692 
L 281.360091 245.924692 
z
" clip-path="url(#pbb839352ba)" style="fill: #1f77b4"/>
   </g>
   <g id="patch_35">
    <path d="M 287.864273 245.93875 
L 294.368455 245.93875 
L 294.368455 245.93875 
L 287.864273 245.93875 
z
" clip-path="url(#pbb839352ba)" style="fill: #1f77b4"/>
   </g>
   <g id="patch_36">
    <path d="M 294.368455 245.93875 
L 300.872636 245.93875 
L 300.872636 245.93875 
L 294.368455 245.93875 
z
" clip-path="url(#pbb839352ba)" style="fill: #1f77b4"/>
   </g>
   <g id="patch_37">
    <path d="M 300.872636 245.93875 
L 307.376818 245.93875 
L 307.376818 245.924692 
L 300.872636 245.924692 
z
" clip-path="url(#pbb839352ba)" style="fill: #1f77b4"/>
   </g>
   <g id="patch_38">
    <path d="M 307.376818 245.93875 
L 313.881 245.93875 
L 313.881 245.93875 
L 307.376818 245.93875 
z
" clip-path="url(#pbb839352ba)" style="fill: #1f77b4"/>
   </g>
   <g id="patch_39">
    <path d="M 313.881 245.93875 
L 320.385182 245.93875 
L 320.385182 245.93875 
L 313.881 245.93875 
z
" clip-path="url(#pbb839352ba)" style="fill: #1f77b4"/>
   </g>
   <g id="patch_40">
    <path d="M 320.385182 245.93875 
L 326.889364 245.93875 
L 326.889364 245.93875 
L 320.385182 245.93875 
z
" clip-path="url(#pbb839352ba)" style="fill: #1f77b4"/>
   </g>
   <g id="patch_41">
    <path d="M 326.889364 245.93875 
L 333.393545 245.93875 
L 333.393545 245.93875 
L 326.889364 245.93875 
z
" clip-path="url(#pbb839352ba)" style="fill: #1f77b4"/>
   </g>
   <g id="patch_42">
    <path d="M 333.393545 245.93875 
L 339.897727 245.93875 
L 339.897727 245.93875 
L 333.393545 245.93875 
z
" clip-path="url(#pbb839352ba)" style="fill: #1f77b4"/>
   </g>
   <g id="patch_43">
    <path d="M 339.897727 245.93875 
L 346.401909 245.93875 
L 346.401909 245.924692 
L 339.897727 245.924692 
z
" clip-path="url(#pbb839352ba)" style="fill: #1f77b4"/>
   </g>
   <g id="patch_44">
    <path d="M 346.401909 245.93875 
L 352.906091 245.93875 
L 352.906091 245.93875 
L 346.401909 245.93875 
z
" clip-path="url(#pbb839352ba)" style="fill: #1f77b4"/>
   </g>
   <g id="patch_45">
    <path d="M 352.906091 245.93875 
L 359.410273 245.93875 
L 359.410273 245.93875 
L 352.906091 245.93875 
z
" clip-path="url(#pbb839352ba)" style="fill: #1f77b4"/>
   </g>
   <g id="patch_46">
    <path d="M 359.410273 245.93875 
L 365.914455 245.93875 
L 365.914455 245.93875 
L 359.410273 245.93875 
z
" clip-path="url(#pbb839352ba)" style="fill: #1f77b4"/>
   </g>
   <g id="patch_47">
    <path d="M 365.914455 245.93875 
L 372.418636 245.93875 
L 372.418636 245.93875 
L 365.914455 245.93875 
z
" clip-path="url(#pbb839352ba)" style="fill: #1f77b4"/>
   </g>
   <g id="patch_48">
    <path d="M 372.418636 245.93875 
L 378.922818 245.93875 
L 378.922818 245.924692 
L 372.418636 245.924692 
z
" clip-path="url(#pbb839352ba)" style="fill: #1f77b4"/>
   </g>
   <g id="patch_49">
    <path d="M 378.922818 245.93875 
L 385.427 245.93875 
L 385.427 245.93875 
L 378.922818 245.93875 
z
" clip-path="url(#pbb839352ba)" style="fill: #1f77b4"/>
   </g>
   <g id="patch_50">
    <path d="M 385.427 245.93875 
L 391.931182 245.93875 
L 391.931182 245.93875 
L 385.427 245.93875 
z
" clip-path="url(#pbb839352ba)" style="fill: #1f77b4"/>
   </g>
   <g id="patch_51">
    <path d="M 391.931182 245.93875 
L 398.435364 245.93875 
L 398.435364 245.93875 
L 391.931182 245.93875 
z
" clip-path="url(#pbb839352ba)" style="fill: #1f77b4"/>
   </g>
   <g id="patch_52">
    <path d="M 398.435364 245.93875 
L 404.939545 245.93875 
L 404.939545 245.910635 
L 398.435364 245.910635 
z
" clip-path="url(#pbb839352ba)" style="fill: #1f77b4"/>
   </g>
   <g id="matplotlib.axis_1">
    <g id="xtick_1">
     <g id="line2d_1">
      <path d="M 79.730455 245.93875 
L 79.730455 26.88 
" clip-path="url(#pbb839352ba)" style="fill: none; stroke: #b0b0b0; stroke-width: 0.8; stroke-linecap: square"/>
     </g>
     <g id="line2d_2">
      <defs>
       <path id="mc3fe678fbe" d="M 0 0 
L 0 3.5 
" style="stroke: #000000; stroke-width: 0.8"/>
      </defs>
      <g>
       <use xlink:href="#mc3fe678fbe" x="79.730455" y="245.93875" style="stroke: #000000; stroke-width: 0.8"/>
      </g>
     </g>
     <g id="text_1">
      <!-- 0 -->
      <g transform="translate(76.549205 260.537188) scale(0.1 -0.1)">
       <defs>
        <path id="DejaVuSans-30" d="M 2034 4250 
Q 1547 4250 1301 3770 
Q 1056 3291 1056 2328 
Q 1056 1369 1301 889 
Q 1547 409 2034 409 
Q 2525 409 2770 889 
Q 3016 1369 3016 2328 
Q 3016 3291 2770 3770 
Q 2525 4250 2034 4250 
z
M 2034 4750 
Q 2819 4750 3233 4129 
Q 3647 3509 3647 2328 
Q 3647 1150 3233 529 
Q 2819 -91 2034 -91 
Q 1250 -91 836 529 
Q 422 1150 422 2328 
Q 422 3509 836 4129 
Q 1250 4750 2034 4750 
z
" transform="scale(0.015625)"/>
       </defs>
       <use xlink:href="#DejaVuSans-30"/>
      </g>
     </g>
    </g>
    <g id="xtick_2">
     <g id="line2d_3">
      <path d="M 122.615301 245.93875 
L 122.615301 26.88 
" clip-path="url(#pbb839352ba)" style="fill: none; stroke: #b0b0b0; stroke-width: 0.8; stroke-linecap: square"/>
     </g>
     <g id="line2d_4">
      <g>
       <use xlink:href="#mc3fe678fbe" x="122.615301" y="245.93875" style="stroke: #000000; stroke-width: 0.8"/>
      </g>
     </g>
     <g id="text_2">
      <!-- 2 -->
      <g transform="translate(119.434051 260.537188) scale(0.1 -0.1)">
       <defs>
        <path id="DejaVuSans-32" d="M 1228 531 
L 3431 531 
L 3431 0 
L 469 0 
L 469 531 
Q 828 903 1448 1529 
Q 2069 2156 2228 2338 
Q 2531 2678 2651 2914 
Q 2772 3150 2772 3378 
Q 2772 3750 2511 3984 
Q 2250 4219 1831 4219 
Q 1534 4219 1204 4116 
Q 875 4013 500 3803 
L 500 4441 
Q 881 4594 1212 4672 
Q 1544 4750 1819 4750 
Q 2544 4750 2975 4387 
Q 3406 4025 3406 3419 
Q 3406 3131 3298 2873 
Q 3191 2616 2906 2266 
Q 2828 2175 2409 1742 
Q 1991 1309 1228 531 
z
" transform="scale(0.015625)"/>
       </defs>
       <use xlink:href="#DejaVuSans-32"/>
      </g>
     </g>
    </g>
    <g id="xtick_3">
     <g id="line2d_5">
      <path d="M 165.500146 245.93875 
L 165.500146 26.88 
" clip-path="url(#pbb839352ba)" style="fill: none; stroke: #b0b0b0; stroke-width: 0.8; stroke-linecap: square"/>
     </g>
     <g id="line2d_6">
      <g>
       <use xlink:href="#mc3fe678fbe" x="165.500146" y="245.93875" style="stroke: #000000; stroke-width: 0.8"/>
      </g>
     </g>
     <g id="text_3">
      <!-- 4 -->
      <g transform="translate(162.318896 260.537188) scale(0.1 -0.1)">
       <defs>
        <path id="DejaVuSans-34" d="M 2419 4116 
L 825 1625 
L 2419 1625 
L 2419 4116 
z
M 2253 4666 
L 3047 4666 
L 3047 1625 
L 3713 1625 
L 3713 1100 
L 3047 1100 
L 3047 0 
L 2419 0 
L 2419 1100 
L 313 1100 
L 313 1709 
L 2253 4666 
z
" transform="scale(0.015625)"/>
       </defs>
       <use xlink:href="#DejaVuSans-34"/>
      </g>
     </g>
    </g>
    <g id="xtick_4">
     <g id="line2d_7">
      <path d="M 208.384992 245.93875 
L 208.384992 26.88 
" clip-path="url(#pbb839352ba)" style="fill: none; stroke: #b0b0b0; stroke-width: 0.8; stroke-linecap: square"/>
     </g>
     <g id="line2d_8">
      <g>
       <use xlink:href="#mc3fe678fbe" x="208.384992" y="245.93875" style="stroke: #000000; stroke-width: 0.8"/>
      </g>
     </g>
     <g id="text_4">
      <!-- 6 -->
      <g transform="translate(205.203742 260.537188) scale(0.1 -0.1)">
       <defs>
        <path id="DejaVuSans-36" d="M 2113 2584 
Q 1688 2584 1439 2293 
Q 1191 2003 1191 1497 
Q 1191 994 1439 701 
Q 1688 409 2113 409 
Q 2538 409 2786 701 
Q 3034 994 3034 1497 
Q 3034 2003 2786 2293 
Q 2538 2584 2113 2584 
z
M 3366 4563 
L 3366 3988 
Q 3128 4100 2886 4159 
Q 2644 4219 2406 4219 
Q 1781 4219 1451 3797 
Q 1122 3375 1075 2522 
Q 1259 2794 1537 2939 
Q 1816 3084 2150 3084 
Q 2853 3084 3261 2657 
Q 3669 2231 3669 1497 
Q 3669 778 3244 343 
Q 2819 -91 2113 -91 
Q 1303 -91 875 529 
Q 447 1150 447 2328 
Q 447 3434 972 4092 
Q 1497 4750 2381 4750 
Q 2619 4750 2861 4703 
Q 3103 4656 3366 4563 
z
" transform="scale(0.015625)"/>
       </defs>
       <use xlink:href="#DejaVuSans-36"/>
      </g>
     </g>
    </g>
    <g id="xtick_5">
     <g id="line2d_9">
      <path d="M 251.269838 245.93875 
L 251.269838 26.88 
" clip-path="url(#pbb839352ba)" style="fill: none; stroke: #b0b0b0; stroke-width: 0.8; stroke-linecap: square"/>
     </g>
     <g id="line2d_10">
      <g>
       <use xlink:href="#mc3fe678fbe" x="251.269838" y="245.93875" style="stroke: #000000; stroke-width: 0.8"/>
      </g>
     </g>
     <g id="text_5">
      <!-- 8 -->
      <g transform="translate(248.088588 260.537188) scale(0.1 -0.1)">
       <defs>
        <path id="DejaVuSans-38" d="M 2034 2216 
Q 1584 2216 1326 1975 
Q 1069 1734 1069 1313 
Q 1069 891 1326 650 
Q 1584 409 2034 409 
Q 2484 409 2743 651 
Q 3003 894 3003 1313 
Q 3003 1734 2745 1975 
Q 2488 2216 2034 2216 
z
M 1403 2484 
Q 997 2584 770 2862 
Q 544 3141 544 3541 
Q 544 4100 942 4425 
Q 1341 4750 2034 4750 
Q 2731 4750 3128 4425 
Q 3525 4100 3525 3541 
Q 3525 3141 3298 2862 
Q 3072 2584 2669 2484 
Q 3125 2378 3379 2068 
Q 3634 1759 3634 1313 
Q 3634 634 3220 271 
Q 2806 -91 2034 -91 
Q 1263 -91 848 271 
Q 434 634 434 1313 
Q 434 1759 690 2068 
Q 947 2378 1403 2484 
z
M 1172 3481 
Q 1172 3119 1398 2916 
Q 1625 2713 2034 2713 
Q 2441 2713 2670 2916 
Q 2900 3119 2900 3481 
Q 2900 3844 2670 4047 
Q 2441 4250 2034 4250 
Q 1625 4250 1398 4047 
Q 1172 3844 1172 3481 
z
" transform="scale(0.015625)"/>
       </defs>
       <use xlink:href="#DejaVuSans-38"/>
      </g>
     </g>
    </g>
    <g id="xtick_6">
     <g id="line2d_11">
      <path d="M 294.154684 245.93875 
L 294.154684 26.88 
" clip-path="url(#pbb839352ba)" style="fill: none; stroke: #b0b0b0; stroke-width: 0.8; stroke-linecap: square"/>
     </g>
     <g id="line2d_12">
      <g>
       <use xlink:href="#mc3fe678fbe" x="294.154684" y="245.93875" style="stroke: #000000; stroke-width: 0.8"/>
      </g>
     </g>
     <g id="text_6">
      <!-- 10 -->
      <g transform="translate(287.792184 260.537188) scale(0.1 -0.1)">
       <defs>
        <path id="DejaVuSans-31" d="M 794 531 
L 1825 531 
L 1825 4091 
L 703 3866 
L 703 4441 
L 1819 4666 
L 2450 4666 
L 2450 531 
L 3481 531 
L 3481 0 
L 794 0 
L 794 531 
z
" transform="scale(0.015625)"/>
       </defs>
       <use xlink:href="#DejaVuSans-31"/>
       <use xlink:href="#DejaVuSans-30" transform="translate(63.623047 0)"/>
      </g>
     </g>
    </g>
    <g id="xtick_7">
     <g id="line2d_13">
      <path d="M 337.03953 245.93875 
L 337.03953 26.88 
" clip-path="url(#pbb839352ba)" style="fill: none; stroke: #b0b0b0; stroke-width: 0.8; stroke-linecap: square"/>
     </g>
     <g id="line2d_14">
      <g>
       <use xlink:href="#mc3fe678fbe" x="337.03953" y="245.93875" style="stroke: #000000; stroke-width: 0.8"/>
      </g>
     </g>
     <g id="text_7">
      <!-- 12 -->
      <g transform="translate(330.67703 260.537188) scale(0.1 -0.1)">
       <use xlink:href="#DejaVuSans-31"/>
       <use xlink:href="#DejaVuSans-32" transform="translate(63.623047 0)"/>
      </g>
     </g>
    </g>
    <g id="xtick_8">
     <g id="line2d_15">
      <path d="M 379.924376 245.93875 
L 379.924376 26.88 
" clip-path="url(#pbb839352ba)" style="fill: none; stroke: #b0b0b0; stroke-width: 0.8; stroke-linecap: square"/>
     </g>
     <g id="line2d_16">
      <g>
       <use xlink:href="#mc3fe678fbe" x="379.924376" y="245.93875" style="stroke: #000000; stroke-width: 0.8"/>
      </g>
     </g>
     <g id="text_8">
      <!-- 14 -->
      <g transform="translate(373.561876 260.537188) scale(0.1 -0.1)">
       <use xlink:href="#DejaVuSans-31"/>
       <use xlink:href="#DejaVuSans-34" transform="translate(63.623047 0)"/>
      </g>
     </g>
    </g>
    <g id="text_9">
     <!-- LaneOffset_FreqCOG -->
     <g transform="translate(190.633437 274.215312) scale(0.1 -0.1)">
      <defs>
       <path id="DejaVuSans-4c" d="M 628 4666 
L 1259 4666 
L 1259 531 
L 3531 531 
L 3531 0 
L 628 0 
L 628 4666 
z
" transform="scale(0.015625)"/>
       <path id="DejaVuSans-61" d="M 2194 1759 
Q 1497 1759 1228 1600 
Q 959 1441 959 1056 
Q 959 750 1161 570 
Q 1363 391 1709 391 
Q 2188 391 2477 730 
Q 2766 1069 2766 1631 
L 2766 1759 
L 2194 1759 
z
M 3341 1997 
L 3341 0 
L 2766 0 
L 2766 531 
Q 2569 213 2275 61 
Q 1981 -91 1556 -91 
Q 1019 -91 701 211 
Q 384 513 384 1019 
Q 384 1609 779 1909 
Q 1175 2209 1959 2209 
L 2766 2209 
L 2766 2266 
Q 2766 2663 2505 2880 
Q 2244 3097 1772 3097 
Q 1472 3097 1187 3025 
Q 903 2953 641 2809 
L 641 3341 
Q 956 3463 1253 3523 
Q 1550 3584 1831 3584 
Q 2591 3584 2966 3190 
Q 3341 2797 3341 1997 
z
" transform="scale(0.015625)"/>
       <path id="DejaVuSans-6e" d="M 3513 2113 
L 3513 0 
L 2938 0 
L 2938 2094 
Q 2938 2591 2744 2837 
Q 2550 3084 2163 3084 
Q 1697 3084 1428 2787 
Q 1159 2491 1159 1978 
L 1159 0 
L 581 0 
L 581 3500 
L 1159 3500 
L 1159 2956 
Q 1366 3272 1645 3428 
Q 1925 3584 2291 3584 
Q 2894 3584 3203 3211 
Q 3513 2838 3513 2113 
z
" transform="scale(0.015625)"/>
       <path id="DejaVuSans-65" d="M 3597 1894 
L 3597 1613 
L 953 1613 
Q 991 1019 1311 708 
Q 1631 397 2203 397 
Q 2534 397 2845 478 
Q 3156 559 3463 722 
L 3463 178 
Q 3153 47 2828 -22 
Q 2503 -91 2169 -91 
Q 1331 -91 842 396 
Q 353 884 353 1716 
Q 353 2575 817 3079 
Q 1281 3584 2069 3584 
Q 2775 3584 3186 3129 
Q 3597 2675 3597 1894 
z
M 3022 2063 
Q 3016 2534 2758 2815 
Q 2500 3097 2075 3097 
Q 1594 3097 1305 2825 
Q 1016 2553 972 2059 
L 3022 2063 
z
" transform="scale(0.015625)"/>
       <path id="DejaVuSans-4f" d="M 2522 4238 
Q 1834 4238 1429 3725 
Q 1025 3213 1025 2328 
Q 1025 1447 1429 934 
Q 1834 422 2522 422 
Q 3209 422 3611 934 
Q 4013 1447 4013 2328 
Q 4013 3213 3611 3725 
Q 3209 4238 2522 4238 
z
M 2522 4750 
Q 3503 4750 4090 4092 
Q 4678 3434 4678 2328 
Q 4678 1225 4090 567 
Q 3503 -91 2522 -91 
Q 1538 -91 948 565 
Q 359 1222 359 2328 
Q 359 3434 948 4092 
Q 1538 4750 2522 4750 
z
" transform="scale(0.015625)"/>
       <path id="DejaVuSans-66" d="M 2375 4863 
L 2375 4384 
L 1825 4384 
Q 1516 4384 1395 4259 
Q 1275 4134 1275 3809 
L 1275 3500 
L 2222 3500 
L 2222 3053 
L 1275 3053 
L 1275 0 
L 697 0 
L 697 3053 
L 147 3053 
L 147 3500 
L 697 3500 
L 697 3744 
Q 697 4328 969 4595 
Q 1241 4863 1831 4863 
L 2375 4863 
z
" transform="scale(0.015625)"/>
       <path id="DejaVuSans-73" d="M 2834 3397 
L 2834 2853 
Q 2591 2978 2328 3040 
Q 2066 3103 1784 3103 
Q 1356 3103 1142 2972 
Q 928 2841 928 2578 
Q 928 2378 1081 2264 
Q 1234 2150 1697 2047 
L 1894 2003 
Q 2506 1872 2764 1633 
Q 3022 1394 3022 966 
Q 3022 478 2636 193 
Q 2250 -91 1575 -91 
Q 1294 -91 989 -36 
Q 684 19 347 128 
L 347 722 
Q 666 556 975 473 
Q 1284 391 1588 391 
Q 1994 391 2212 530 
Q 2431 669 2431 922 
Q 2431 1156 2273 1281 
Q 2116 1406 1581 1522 
L 1381 1569 
Q 847 1681 609 1914 
Q 372 2147 372 2553 
Q 372 3047 722 3315 
Q 1072 3584 1716 3584 
Q 2034 3584 2315 3537 
Q 2597 3491 2834 3397 
z
" transform="scale(0.015625)"/>
       <path id="DejaVuSans-74" d="M 1172 4494 
L 1172 3500 
L 2356 3500 
L 2356 3053 
L 1172 3053 
L 1172 1153 
Q 1172 725 1289 603 
Q 1406 481 1766 481 
L 2356 481 
L 2356 0 
L 1766 0 
Q 1100 0 847 248 
Q 594 497 594 1153 
L 594 3053 
L 172 3053 
L 172 3500 
L 594 3500 
L 594 4494 
L 1172 4494 
z
" transform="scale(0.015625)"/>
       <path id="DejaVuSans-5f" d="M 3263 -1063 
L 3263 -1509 
L -63 -1509 
L -63 -1063 
L 3263 -1063 
z
" transform="scale(0.015625)"/>
       <path id="DejaVuSans-46" d="M 628 4666 
L 3309 4666 
L 3309 4134 
L 1259 4134 
L 1259 2759 
L 3109 2759 
L 3109 2228 
L 1259 2228 
L 1259 0 
L 628 0 
L 628 4666 
z
" transform="scale(0.015625)"/>
       <path id="DejaVuSans-72" d="M 2631 2963 
Q 2534 3019 2420 3045 
Q 2306 3072 2169 3072 
Q 1681 3072 1420 2755 
Q 1159 2438 1159 1844 
L 1159 0 
L 581 0 
L 581 3500 
L 1159 3500 
L 1159 2956 
Q 1341 3275 1631 3429 
Q 1922 3584 2338 3584 
Q 2397 3584 2469 3576 
Q 2541 3569 2628 3553 
L 2631 2963 
z
" transform="scale(0.015625)"/>
       <path id="DejaVuSans-71" d="M 947 1747 
Q 947 1113 1208 752 
Q 1469 391 1925 391 
Q 2381 391 2643 752 
Q 2906 1113 2906 1747 
Q 2906 2381 2643 2742 
Q 2381 3103 1925 3103 
Q 1469 3103 1208 2742 
Q 947 2381 947 1747 
z
M 2906 525 
Q 2725 213 2448 61 
Q 2172 -91 1784 -91 
Q 1150 -91 751 415 
Q 353 922 353 1747 
Q 353 2572 751 3078 
Q 1150 3584 1784 3584 
Q 2172 3584 2448 3432 
Q 2725 3281 2906 2969 
L 2906 3500 
L 3481 3500 
L 3481 -1331 
L 2906 -1331 
L 2906 525 
z
" transform="scale(0.015625)"/>
       <path id="DejaVuSans-43" d="M 4122 4306 
L 4122 3641 
Q 3803 3938 3442 4084 
Q 3081 4231 2675 4231 
Q 1875 4231 1450 3742 
Q 1025 3253 1025 2328 
Q 1025 1406 1450 917 
Q 1875 428 2675 428 
Q 3081 428 3442 575 
Q 3803 722 4122 1019 
L 4122 359 
Q 3791 134 3420 21 
Q 3050 -91 2638 -91 
Q 1578 -91 968 557 
Q 359 1206 359 2328 
Q 359 3453 968 4101 
Q 1578 4750 2638 4750 
Q 3056 4750 3426 4639 
Q 3797 4528 4122 4306 
z
" transform="scale(0.015625)"/>
       <path id="DejaVuSans-47" d="M 3809 666 
L 3809 1919 
L 2778 1919 
L 2778 2438 
L 4434 2438 
L 4434 434 
Q 4069 175 3628 42 
Q 3188 -91 2688 -91 
Q 1594 -91 976 548 
Q 359 1188 359 2328 
Q 359 3472 976 4111 
Q 1594 4750 2688 4750 
Q 3144 4750 3555 4637 
Q 3966 4525 4313 4306 
L 4313 3634 
Q 3963 3931 3569 4081 
Q 3175 4231 2741 4231 
Q 1884 4231 1454 3753 
Q 1025 3275 1025 2328 
Q 1025 1384 1454 906 
Q 1884 428 2741 428 
Q 3075 428 3337 486 
Q 3600 544 3809 666 
z
" transform="scale(0.015625)"/>
      </defs>
      <use xlink:href="#DejaVuSans-4c"/>
      <use xlink:href="#DejaVuSans-61" transform="translate(55.712891 0)"/>
      <use xlink:href="#DejaVuSans-6e" transform="translate(116.992188 0)"/>
      <use xlink:href="#DejaVuSans-65" transform="translate(180.371094 0)"/>
      <use xlink:href="#DejaVuSans-4f" transform="translate(241.894531 0)"/>
      <use xlink:href="#DejaVuSans-66" transform="translate(320.605469 0)"/>
      <use xlink:href="#DejaVuSans-66" transform="translate(355.810547 0)"/>
      <use xlink:href="#DejaVuSans-73" transform="translate(391.015625 0)"/>
      <use xlink:href="#DejaVuSans-65" transform="translate(443.115234 0)"/>
      <use xlink:href="#DejaVuSans-74" transform="translate(504.638672 0)"/>
      <use xlink:href="#DejaVuSans-5f" transform="translate(543.847656 0)"/>
      <use xlink:href="#DejaVuSans-46" transform="translate(593.847656 0)"/>
      <use xlink:href="#DejaVuSans-72" transform="translate(644.117188 0)"/>
      <use xlink:href="#DejaVuSans-65" transform="translate(682.980469 0)"/>
      <use xlink:href="#DejaVuSans-71" transform="translate(744.503906 0)"/>
      <use xlink:href="#DejaVuSans-43" transform="translate(807.980469 0)"/>
      <use xlink:href="#DejaVuSans-4f" transform="translate(877.804688 0)"/>
      <use xlink:href="#DejaVuSans-47" transform="translate(956.515625 0)"/>
     </g>
    </g>
   </g>
   <g id="matplotlib.axis_2">
    <g id="ytick_1">
     <g id="line2d_17">
      <path d="M 63.47 245.93875 
L 421.2 245.93875 
" clip-path="url(#pbb839352ba)" style="fill: none; stroke: #b0b0b0; stroke-width: 0.8; stroke-linecap: square"/>
     </g>
     <g id="line2d_18">
      <defs>
       <path id="m48e9538d25" d="M 0 0 
L -3.5 0 
" style="stroke: #000000; stroke-width: 0.8"/>
      </defs>
      <g>
       <use xlink:href="#m48e9538d25" x="63.47" y="245.93875" style="stroke: #000000; stroke-width: 0.8"/>
      </g>
     </g>
     <g id="text_10">
      <!-- 0 -->
      <g transform="translate(50.1075 249.737969) scale(0.1 -0.1)">
       <use xlink:href="#DejaVuSans-30"/>
      </g>
     </g>
    </g>
    <g id="ytick_2">
     <g id="line2d_19">
      <path d="M 63.47 217.823747 
L 421.2 217.823747 
" clip-path="url(#pbb839352ba)" style="fill: none; stroke: #b0b0b0; stroke-width: 0.8; stroke-linecap: square"/>
     </g>
     <g id="line2d_20">
      <g>
       <use xlink:href="#m48e9538d25" x="63.47" y="217.823747" style="stroke: #000000; stroke-width: 0.8"/>
      </g>
     </g>
     <g id="text_11">
      <!-- 2000 -->
      <g transform="translate(31.02 221.622966) scale(0.1 -0.1)">
       <use xlink:href="#DejaVuSans-32"/>
       <use xlink:href="#DejaVuSans-30" transform="translate(63.623047 0)"/>
       <use xlink:href="#DejaVuSans-30" transform="translate(127.246094 0)"/>
       <use xlink:href="#DejaVuSans-30" transform="translate(190.869141 0)"/>
      </g>
     </g>
    </g>
    <g id="ytick_3">
     <g id="line2d_21">
      <path d="M 63.47 189.708744 
L 421.2 189.708744 
" clip-path="url(#pbb839352ba)" style="fill: none; stroke: #b0b0b0; stroke-width: 0.8; stroke-linecap: square"/>
     </g>
     <g id="line2d_22">
      <g>
       <use xlink:href="#m48e9538d25" x="63.47" y="189.708744" style="stroke: #000000; stroke-width: 0.8"/>
      </g>
     </g>
     <g id="text_12">
      <!-- 4000 -->
      <g transform="translate(31.02 193.507962) scale(0.1 -0.1)">
       <use xlink:href="#DejaVuSans-34"/>
       <use xlink:href="#DejaVuSans-30" transform="translate(63.623047 0)"/>
       <use xlink:href="#DejaVuSans-30" transform="translate(127.246094 0)"/>
       <use xlink:href="#DejaVuSans-30" transform="translate(190.869141 0)"/>
      </g>
     </g>
    </g>
    <g id="ytick_4">
     <g id="line2d_23">
      <path d="M 63.47 161.593741 
L 421.2 161.593741 
" clip-path="url(#pbb839352ba)" style="fill: none; stroke: #b0b0b0; stroke-width: 0.8; stroke-linecap: square"/>
     </g>
     <g id="line2d_24">
      <g>
       <use xlink:href="#m48e9538d25" x="63.47" y="161.593741" style="stroke: #000000; stroke-width: 0.8"/>
      </g>
     </g>
     <g id="text_13">
      <!-- 6000 -->
      <g transform="translate(31.02 165.392959) scale(0.1 -0.1)">
       <use xlink:href="#DejaVuSans-36"/>
       <use xlink:href="#DejaVuSans-30" transform="translate(63.623047 0)"/>
       <use xlink:href="#DejaVuSans-30" transform="translate(127.246094 0)"/>
       <use xlink:href="#DejaVuSans-30" transform="translate(190.869141 0)"/>
      </g>
     </g>
    </g>
    <g id="ytick_5">
     <g id="line2d_25">
      <path d="M 63.47 133.478737 
L 421.2 133.478737 
" clip-path="url(#pbb839352ba)" style="fill: none; stroke: #b0b0b0; stroke-width: 0.8; stroke-linecap: square"/>
     </g>
     <g id="line2d_26">
      <g>
       <use xlink:href="#m48e9538d25" x="63.47" y="133.478737" style="stroke: #000000; stroke-width: 0.8"/>
      </g>
     </g>
     <g id="text_14">
      <!-- 8000 -->
      <g transform="translate(31.02 137.277956) scale(0.1 -0.1)">
       <use xlink:href="#DejaVuSans-38"/>
       <use xlink:href="#DejaVuSans-30" transform="translate(63.623047 0)"/>
       <use xlink:href="#DejaVuSans-30" transform="translate(127.246094 0)"/>
       <use xlink:href="#DejaVuSans-30" transform="translate(190.869141 0)"/>
      </g>
     </g>
    </g>
    <g id="ytick_6">
     <g id="line2d_27">
      <path d="M 63.47 105.363734 
L 421.2 105.363734 
" clip-path="url(#pbb839352ba)" style="fill: none; stroke: #b0b0b0; stroke-width: 0.8; stroke-linecap: square"/>
     </g>
     <g id="line2d_28">
      <g>
       <use xlink:href="#m48e9538d25" x="63.47" y="105.363734" style="stroke: #000000; stroke-width: 0.8"/>
      </g>
     </g>
     <g id="text_15">
      <!-- 10000 -->
      <g transform="translate(24.6575 109.162953) scale(0.1 -0.1)">
       <use xlink:href="#DejaVuSans-31"/>
       <use xlink:href="#DejaVuSans-30" transform="translate(63.623047 0)"/>
       <use xlink:href="#DejaVuSans-30" transform="translate(127.246094 0)"/>
       <use xlink:href="#DejaVuSans-30" transform="translate(190.869141 0)"/>
       <use xlink:href="#DejaVuSans-30" transform="translate(254.492188 0)"/>
      </g>
     </g>
    </g>
    <g id="ytick_7">
     <g id="line2d_29">
      <path d="M 63.47 77.248731 
L 421.2 77.248731 
" clip-path="url(#pbb839352ba)" style="fill: none; stroke: #b0b0b0; stroke-width: 0.8; stroke-linecap: square"/>
     </g>
     <g id="line2d_30">
      <g>
       <use xlink:href="#m48e9538d25" x="63.47" y="77.248731" style="stroke: #000000; stroke-width: 0.8"/>
      </g>
     </g>
     <g id="text_16">
      <!-- 12000 -->
      <g transform="translate(24.6575 81.04795) scale(0.1 -0.1)">
       <use xlink:href="#DejaVuSans-31"/>
       <use xlink:href="#DejaVuSans-32" transform="translate(63.623047 0)"/>
       <use xlink:href="#DejaVuSans-30" transform="translate(127.246094 0)"/>
       <use xlink:href="#DejaVuSans-30" transform="translate(190.869141 0)"/>
       <use xlink:href="#DejaVuSans-30" transform="translate(254.492188 0)"/>
      </g>
     </g>
    </g>
    <g id="ytick_8">
     <g id="line2d_31">
      <path d="M 63.47 49.133728 
L 421.2 49.133728 
" clip-path="url(#pbb839352ba)" style="fill: none; stroke: #b0b0b0; stroke-width: 0.8; stroke-linecap: square"/>
     </g>
     <g id="line2d_32">
      <g>
       <use xlink:href="#m48e9538d25" x="63.47" y="49.133728" style="stroke: #000000; stroke-width: 0.8"/>
      </g>
     </g>
     <g id="text_17">
      <!-- 14000 -->
      <g transform="translate(24.6575 52.932947) scale(0.1 -0.1)">
       <use xlink:href="#DejaVuSans-31"/>
       <use xlink:href="#DejaVuSans-34" transform="translate(63.623047 0)"/>
       <use xlink:href="#DejaVuSans-30" transform="translate(127.246094 0)"/>
       <use xlink:href="#DejaVuSans-30" transform="translate(190.869141 0)"/>
       <use xlink:href="#DejaVuSans-30" transform="translate(254.492188 0)"/>
      </g>
     </g>
    </g>
    <g id="text_18">
     <!-- Count -->
     <g transform="translate(18.577812 151.257812) rotate(-90) scale(0.1 -0.1)">
      <defs>
       <path id="DejaVuSans-6f" d="M 1959 3097 
Q 1497 3097 1228 2736 
Q 959 2375 959 1747 
Q 959 1119 1226 758 
Q 1494 397 1959 397 
Q 2419 397 2687 759 
Q 2956 1122 2956 1747 
Q 2956 2369 2687 2733 
Q 2419 3097 1959 3097 
z
M 1959 3584 
Q 2709 3584 3137 3096 
Q 3566 2609 3566 1747 
Q 3566 888 3137 398 
Q 2709 -91 1959 -91 
Q 1206 -91 779 398 
Q 353 888 353 1747 
Q 353 2609 779 3096 
Q 1206 3584 1959 3584 
z
" transform="scale(0.015625)"/>
       <path id="DejaVuSans-75" d="M 544 1381 
L 544 3500 
L 1119 3500 
L 1119 1403 
Q 1119 906 1312 657 
Q 1506 409 1894 409 
Q 2359 409 2629 706 
Q 2900 1003 2900 1516 
L 2900 3500 
L 3475 3500 
L 3475 0 
L 2900 0 
L 2900 538 
Q 2691 219 2414 64 
Q 2138 -91 1772 -91 
Q 1169 -91 856 284 
Q 544 659 544 1381 
z
M 1991 3584 
L 1991 3584 
z
" transform="scale(0.015625)"/>
      </defs>
      <use xlink:href="#DejaVuSans-43"/>
      <use xlink:href="#DejaVuSans-6f" transform="translate(69.824219 0)"/>
      <use xlink:href="#DejaVuSans-75" transform="translate(131.005859 0)"/>
      <use xlink:href="#DejaVuSans-6e" transform="translate(194.384766 0)"/>
      <use xlink:href="#DejaVuSans-74" transform="translate(257.763672 0)"/>
     </g>
    </g>
   </g>
   <g id="patch_53">
    <path d="M 63.47 245.93875 
L 63.47 26.88 
" style="fill: none; stroke: #000000; stroke-width: 0.8; stroke-linejoin: miter; stroke-linecap: square"/>
   </g>
   <g id="patch_54">
    <path d="M 421.2 245.93875 
L 421.2 26.88 
" style="fill: none; stroke: #000000; stroke-width: 0.8; stroke-linejoin: miter; stroke-linecap: square"/>
   </g>
   <g id="patch_55">
    <path d="M 63.47 245.93875 
L 421.2 245.93875 
" style="fill: none; stroke: #000000; stroke-width: 0.8; stroke-linejoin: miter; stroke-linecap: square"/>
   </g>
   <g id="patch_56">
    <path d="M 63.47 26.88 
L 421.2 26.88 
" style="fill: none; stroke: #000000; stroke-width: 0.8; stroke-linejoin: miter; stroke-linecap: square"/>
   </g>
   <g id="text_19">
    <!-- LaneOffset_FreqCOG -->
    <g transform="translate(180.293125 20.88) scale(0.12 -0.12)">
     <use xlink:href="#DejaVuSans-4c"/>
     <use xlink:href="#DejaVuSans-61" transform="translate(55.712891 0)"/>
     <use xlink:href="#DejaVuSans-6e" transform="translate(116.992188 0)"/>
     <use xlink:href="#DejaVuSans-65" transform="translate(180.371094 0)"/>
     <use xlink:href="#DejaVuSans-4f" transform="translate(241.894531 0)"/>
     <use xlink:href="#DejaVuSans-66" transform="translate(320.605469 0)"/>
     <use xlink:href="#DejaVuSans-66" transform="translate(355.810547 0)"/>
     <use xlink:href="#DejaVuSans-73" transform="translate(391.015625 0)"/>
     <use xlink:href="#DejaVuSans-65" transform="translate(443.115234 0)"/>
     <use xlink:href="#DejaVuSans-74" transform="translate(504.638672 0)"/>
     <use xlink:href="#DejaVuSans-5f" transform="translate(543.847656 0)"/>
     <use xlink:href="#DejaVuSans-46" transform="translate(593.847656 0)"/>
     <use xlink:href="#DejaVuSans-72" transform="translate(644.117188 0)"/>
     <use xlink:href="#DejaVuSans-65" transform="translate(682.980469 0)"/>
     <use xlink:href="#DejaVuSans-71" transform="translate(744.503906 0)"/>
     <use xlink:href="#DejaVuSans-43" transform="translate(807.980469 0)"/>
     <use xlink:href="#DejaVuSans-4f" transform="translate(877.804688 0)"/>
     <use xlink:href="#DejaVuSans-47" transform="translate(956.515625 0)"/>
    </g>
   </g>
  </g>
 </g>
 <defs>
  <clipPath id="pbb839352ba">
   <rect x="63.47" y="26.88" width="357.73" height="219.05875"/>
  </clipPath>
 </defs>
</svg>
