<?xml version="1.0" encoding="utf-8" standalone="no"?>
<!DOCTYPE svg PUBLIC "-//W3C//DTD SVG 1.1//EN"
  "http://www.w3.org/Graphics/SVG/1.1/DTD/svg11.dtd">
<svg xmlns:xlink="http://www.w3.org/1999/xlink" width="432pt" height="288pt" viewBox="0 0 432 288" xmlns="http://www.w3.org/2000/svg" version="1.1">
 <metadata>
  <rdf:RDF xmlns:dc="http://purl.org/dc/elements/1.1/" xmlns:cc="http://creativecommons.org/ns#" xmlns:rdf="http://www.w3.org/1999/02/22-rdf-syntax-ns#">
   <cc:Work>
    <dc:type rdf:resource="http://purl.org/dc/dcmitype/StillImage"/>
    <dc:date>2025-06-15T13:37:43.728213</dc:date>
    <dc:format>image/svg+xml</dc:format>
    <dc:creator>
     <cc:Agent>
      <dc:title>Matplotlib v3.10.0, https://matplotlib.org/</dc:title>
     </cc:Agent>
    </dc:creator>
   </cc:Work>
  </rdf:RDF>
 </metadata>
 <defs>
  <style type="text/css">*{stroke-linejoin: round; stroke-linecap: butt}</style>
 </defs>
 <g id="figure_1">
  <g id="patch_1">
   <path d="M 0 288 
L 432 288 
L 432 0 
L 0 0 
z
" style="fill: #ffffff"/>
  </g>
  <g id="axes_1">
   <g id="patch_2">
    <path d="M 57.17 245.93875 
L 421.2 245.93875 
L 421.2 26.88 
L 57.17 26.88 
z
" style="fill: #ffffff"/>
   </g>
   <g id="patch_3">
    <path d="M 73.716818 245.93875 
L 80.335545 245.93875 
L 80.335545 245.898629 
L 73.716818 245.898629 
z
" clip-path="url(#p9425e1bed9)" style="fill: #1f77b4"/>
   </g>
   <g id="patch_4">
    <path d="M 80.335545 245.93875 
L 86.954273 245.93875 
L 86.954273 245.93875 
L 80.335545 245.93875 
z
" clip-path="url(#p9425e1bed9)" style="fill: #1f77b4"/>
   </g>
   <g id="patch_5">
    <path d="M 86.954273 245.93875 
L 93.573 245.93875 
L 93.573 245.898629 
L 86.954273 245.898629 
z
" clip-path="url(#p9425e1bed9)" style="fill: #1f77b4"/>
   </g>
   <g id="patch_6">
    <path d="M 93.573 245.93875 
L 100.191727 245.93875 
L 100.191727 245.93875 
L 93.573 245.93875 
z
" clip-path="url(#p9425e1bed9)" style="fill: #1f77b4"/>
   </g>
   <g id="patch_7">
    <path d="M 100.191727 245.93875 
L 106.810455 245.93875 
L 106.810455 245.93875 
L 100.191727 245.93875 
z
" clip-path="url(#p9425e1bed9)" style="fill: #1f77b4"/>
   </g>
   <g id="patch_8">
    <path d="M 106.810455 245.93875 
L 113.429182 245.93875 
L 113.429182 245.93875 
L 106.810455 245.93875 
z
" clip-path="url(#p9425e1bed9)" style="fill: #1f77b4"/>
   </g>
   <g id="patch_9">
    <path d="M 113.429182 245.93875 
L 120.047909 245.93875 
L 120.047909 245.898629 
L 113.429182 245.898629 
z
" clip-path="url(#p9425e1bed9)" style="fill: #1f77b4"/>
   </g>
   <g id="patch_10">
    <path d="M 120.047909 245.93875 
L 126.666636 245.93875 
L 126.666636 245.93875 
L 120.047909 245.93875 
z
" clip-path="url(#p9425e1bed9)" style="fill: #1f77b4"/>
   </g>
   <g id="patch_11">
    <path d="M 126.666636 245.93875 
L 133.285364 245.93875 
L 133.285364 245.93875 
L 126.666636 245.93875 
z
" clip-path="url(#p9425e1bed9)" style="fill: #1f77b4"/>
   </g>
   <g id="patch_12">
    <path d="M 133.285364 245.93875 
L 139.904091 245.93875 
L 139.904091 245.93875 
L 133.285364 245.93875 
z
" clip-path="url(#p9425e1bed9)" style="fill: #1f77b4"/>
   </g>
   <g id="patch_13">
    <path d="M 139.904091 245.93875 
L 146.522818 245.93875 
L 146.522818 245.898629 
L 139.904091 245.898629 
z
" clip-path="url(#p9425e1bed9)" style="fill: #1f77b4"/>
   </g>
   <g id="patch_14">
    <path d="M 146.522818 245.93875 
L 153.141545 245.93875 
L 153.141545 245.93875 
L 146.522818 245.93875 
z
" clip-path="url(#p9425e1bed9)" style="fill: #1f77b4"/>
   </g>
   <g id="patch_15">
    <path d="M 153.141545 245.93875 
L 159.760273 245.93875 
L 159.760273 245.93875 
L 153.141545 245.93875 
z
" clip-path="url(#p9425e1bed9)" style="fill: #1f77b4"/>
   </g>
   <g id="patch_16">
    <path d="M 159.760273 245.93875 
L 166.379 245.93875 
L 166.379 245.93875 
L 159.760273 245.93875 
z
" clip-path="url(#p9425e1bed9)" style="fill: #1f77b4"/>
   </g>
   <g id="patch_17">
    <path d="M 166.379 245.93875 
L 172.997727 245.93875 
L 172.997727 245.93875 
L 166.379 245.93875 
z
" clip-path="url(#p9425e1bed9)" style="fill: #1f77b4"/>
   </g>
   <g id="patch_18">
    <path d="M 172.997727 245.93875 
L 179.616455 245.93875 
L 179.616455 245.898629 
L 172.997727 245.898629 
z
" clip-path="url(#p9425e1bed9)" style="fill: #1f77b4"/>
   </g>
   <g id="patch_19">
    <path d="M 179.616455 245.93875 
L 186.235182 245.93875 
L 186.235182 245.93875 
L 179.616455 245.93875 
z
" clip-path="url(#p9425e1bed9)" style="fill: #1f77b4"/>
   </g>
   <g id="patch_20">
    <path d="M 186.235182 245.93875 
L 192.853909 245.93875 
L 192.853909 245.93875 
L 186.235182 245.93875 
z
" clip-path="url(#p9425e1bed9)" style="fill: #1f77b4"/>
   </g>
   <g id="patch_21">
    <path d="M 192.853909 245.93875 
L 199.472636 245.93875 
L 199.472636 245.898629 
L 192.853909 245.898629 
z
" clip-path="url(#p9425e1bed9)" style="fill: #1f77b4"/>
   </g>
   <g id="patch_22">
    <path d="M 199.472636 245.93875 
L 206.091364 245.93875 
L 206.091364 245.898629 
L 199.472636 245.898629 
z
" clip-path="url(#p9425e1bed9)" style="fill: #1f77b4"/>
   </g>
   <g id="patch_23">
    <path d="M 206.091364 245.93875 
L 212.710091 245.93875 
L 212.710091 245.898629 
L 206.091364 245.898629 
z
" clip-path="url(#p9425e1bed9)" style="fill: #1f77b4"/>
   </g>
   <g id="patch_24">
    <path d="M 212.710091 245.93875 
L 219.328818 245.93875 
L 219.328818 245.898629 
L 212.710091 245.898629 
z
" clip-path="url(#p9425e1bed9)" style="fill: #1f77b4"/>
   </g>
   <g id="patch_25">
    <path d="M 219.328818 245.93875 
L 225.947545 245.93875 
L 225.947545 245.657905 
L 219.328818 245.657905 
z
" clip-path="url(#p9425e1bed9)" style="fill: #1f77b4"/>
   </g>
   <g id="patch_26">
    <path d="M 225.947545 245.93875 
L 232.566273 245.93875 
L 232.566273 245.738147 
L 225.947545 245.738147 
z
" clip-path="url(#p9425e1bed9)" style="fill: #1f77b4"/>
   </g>
   <g id="patch_27">
    <path d="M 232.566273 245.93875 
L 239.185 245.93875 
L 239.185 245.698026 
L 232.566273 245.698026 
z
" clip-path="url(#p9425e1bed9)" style="fill: #1f77b4"/>
   </g>
   <g id="patch_28">
    <path d="M 239.185 245.93875 
L 245.803727 245.93875 
L 245.803727 245.657905 
L 239.185 245.657905 
z
" clip-path="url(#p9425e1bed9)" style="fill: #1f77b4"/>
   </g>
   <g id="patch_29">
    <path d="M 245.803727 245.93875 
L 252.422455 245.93875 
L 252.422455 245.096216 
L 245.803727 245.096216 
z
" clip-path="url(#p9425e1bed9)" style="fill: #1f77b4"/>
   </g>
   <g id="patch_30">
    <path d="M 252.422455 245.93875 
L 259.041182 245.93875 
L 259.041182 244.333924 
L 252.422455 244.333924 
z
" clip-path="url(#p9425e1bed9)" style="fill: #1f77b4"/>
   </g>
   <g id="patch_31">
    <path d="M 259.041182 245.93875 
L 265.659909 245.93875 
L 265.659909 243.531511 
L 259.041182 243.531511 
z
" clip-path="url(#p9425e1bed9)" style="fill: #1f77b4"/>
   </g>
   <g id="patch_32">
    <path d="M 265.659909 245.93875 
L 272.278636 245.93875 
L 272.278636 238.757154 
L 265.659909 238.757154 
z
" clip-path="url(#p9425e1bed9)" style="fill: #1f77b4"/>
   </g>
   <g id="patch_33">
    <path d="M 272.278636 245.93875 
L 278.897364 245.93875 
L 278.897364 207.70377 
L 272.278636 207.70377 
z
" clip-path="url(#p9425e1bed9)" style="fill: #1f77b4"/>
   </g>
   <g id="patch_34">
    <path d="M 278.897364 245.93875 
L 285.516091 245.93875 
L 285.516091 156.670303 
L 278.897364 156.670303 
z
" clip-path="url(#p9425e1bed9)" style="fill: #1f77b4"/>
   </g>
   <g id="patch_35">
    <path d="M 285.516091 245.93875 
L 292.134818 245.93875 
L 292.134818 107.000938 
L 285.516091 107.000938 
z
" clip-path="url(#p9425e1bed9)" style="fill: #1f77b4"/>
   </g>
   <g id="patch_36">
    <path d="M 292.134818 245.93875 
L 298.753545 245.93875 
L 298.753545 37.311369 
L 292.134818 37.311369 
z
" clip-path="url(#p9425e1bed9)" style="fill: #1f77b4"/>
   </g>
   <g id="patch_37">
    <path d="M 298.753545 245.93875 
L 305.372273 245.93875 
L 305.372273 82.848307 
L 298.753545 82.848307 
z
" clip-path="url(#p9425e1bed9)" style="fill: #1f77b4"/>
   </g>
   <g id="patch_38">
    <path d="M 305.372273 245.93875 
L 311.991 245.93875 
L 311.991 148.726415 
L 305.372273 148.726415 
z
" clip-path="url(#p9425e1bed9)" style="fill: #1f77b4"/>
   </g>
   <g id="patch_39">
    <path d="M 311.991 245.93875 
L 318.609727 245.93875 
L 318.609727 195.908299 
L 311.991 195.908299 
z
" clip-path="url(#p9425e1bed9)" style="fill: #1f77b4"/>
   </g>
   <g id="patch_40">
    <path d="M 318.609727 245.93875 
L 325.228455 245.93875 
L 325.228455 236.06907 
L 318.609727 236.06907 
z
" clip-path="url(#p9425e1bed9)" style="fill: #1f77b4"/>
   </g>
   <g id="patch_41">
    <path d="M 325.228455 245.93875 
L 331.847182 245.93875 
L 331.847182 243.290787 
L 325.228455 243.290787 
z
" clip-path="url(#p9425e1bed9)" style="fill: #1f77b4"/>
   </g>
   <g id="patch_42">
    <path d="M 331.847182 245.93875 
L 338.465909 245.93875 
L 338.465909 244.935734 
L 331.847182 244.935734 
z
" clip-path="url(#p9425e1bed9)" style="fill: #1f77b4"/>
   </g>
   <g id="patch_43">
    <path d="M 338.465909 245.93875 
L 345.084636 245.93875 
L 345.084636 245.457302 
L 338.465909 245.457302 
z
" clip-path="url(#p9425e1bed9)" style="fill: #1f77b4"/>
   </g>
   <g id="patch_44">
    <path d="M 345.084636 245.93875 
L 351.703364 245.93875 
L 351.703364 245.778267 
L 345.084636 245.778267 
z
" clip-path="url(#p9425e1bed9)" style="fill: #1f77b4"/>
   </g>
   <g id="patch_45">
    <path d="M 351.703364 245.93875 
L 358.322091 245.93875 
L 358.322091 245.657905 
L 351.703364 245.657905 
z
" clip-path="url(#p9425e1bed9)" style="fill: #1f77b4"/>
   </g>
   <g id="patch_46">
    <path d="M 358.322091 245.93875 
L 364.940818 245.93875 
L 364.940818 245.858509 
L 358.322091 245.858509 
z
" clip-path="url(#p9425e1bed9)" style="fill: #1f77b4"/>
   </g>
   <g id="patch_47">
    <path d="M 364.940818 245.93875 
L 371.559545 245.93875 
L 371.559545 245.778267 
L 364.940818 245.778267 
z
" clip-path="url(#p9425e1bed9)" style="fill: #1f77b4"/>
   </g>
   <g id="patch_48">
    <path d="M 371.559545 245.93875 
L 378.178273 245.93875 
L 378.178273 245.778267 
L 371.559545 245.778267 
z
" clip-path="url(#p9425e1bed9)" style="fill: #1f77b4"/>
   </g>
   <g id="patch_49">
    <path d="M 378.178273 245.93875 
L 384.797 245.93875 
L 384.797 245.898629 
L 378.178273 245.898629 
z
" clip-path="url(#p9425e1bed9)" style="fill: #1f77b4"/>
   </g>
   <g id="patch_50">
    <path d="M 384.797 245.93875 
L 391.415727 245.93875 
L 391.415727 245.93875 
L 384.797 245.93875 
z
" clip-path="url(#p9425e1bed9)" style="fill: #1f77b4"/>
   </g>
   <g id="patch_51">
    <path d="M 391.415727 245.93875 
L 398.034455 245.93875 
L 398.034455 245.93875 
L 391.415727 245.93875 
z
" clip-path="url(#p9425e1bed9)" style="fill: #1f77b4"/>
   </g>
   <g id="patch_52">
    <path d="M 398.034455 245.93875 
L 404.653182 245.93875 
L 404.653182 245.858509 
L 398.034455 245.858509 
z
" clip-path="url(#p9425e1bed9)" style="fill: #1f77b4"/>
   </g>
   <g id="matplotlib.axis_1">
    <g id="xtick_1">
     <g id="line2d_1">
      <path d="M 87.169164 245.93875 
L 87.169164 26.88 
" clip-path="url(#p9425e1bed9)" style="fill: none; stroke: #b0b0b0; stroke-width: 0.8; stroke-linecap: square"/>
     </g>
     <g id="line2d_2">
      <defs>
       <path id="m42e02976c8" d="M 0 0 
L 0 3.5 
" style="stroke: #000000; stroke-width: 0.8"/>
      </defs>
      <g>
       <use xlink:href="#m42e02976c8" x="87.169164" y="245.93875" style="stroke: #000000; stroke-width: 0.8"/>
      </g>
     </g>
     <g id="text_1">
      <!-- −12.5 -->
      <g transform="translate(71.846508 260.537188) scale(0.1 -0.1)">
       <defs>
        <path id="DejaVuSans-2212" d="M 678 2272 
L 4684 2272 
L 4684 1741 
L 678 1741 
L 678 2272 
z
" transform="scale(0.015625)"/>
        <path id="DejaVuSans-31" d="M 794 531 
L 1825 531 
L 1825 4091 
L 703 3866 
L 703 4441 
L 1819 4666 
L 2450 4666 
L 2450 531 
L 3481 531 
L 3481 0 
L 794 0 
L 794 531 
z
" transform="scale(0.015625)"/>
        <path id="DejaVuSans-32" d="M 1228 531 
L 3431 531 
L 3431 0 
L 469 0 
L 469 531 
Q 828 903 1448 1529 
Q 2069 2156 2228 2338 
Q 2531 2678 2651 2914 
Q 2772 3150 2772 3378 
Q 2772 3750 2511 3984 
Q 2250 4219 1831 4219 
Q 1534 4219 1204 4116 
Q 875 4013 500 3803 
L 500 4441 
Q 881 4594 1212 4672 
Q 1544 4750 1819 4750 
Q 2544 4750 2975 4387 
Q 3406 4025 3406 3419 
Q 3406 3131 3298 2873 
Q 3191 2616 2906 2266 
Q 2828 2175 2409 1742 
Q 1991 1309 1228 531 
z
" transform="scale(0.015625)"/>
        <path id="DejaVuSans-2e" d="M 684 794 
L 1344 794 
L 1344 0 
L 684 0 
L 684 794 
z
" transform="scale(0.015625)"/>
        <path id="DejaVuSans-35" d="M 691 4666 
L 3169 4666 
L 3169 4134 
L 1269 4134 
L 1269 2991 
Q 1406 3038 1543 3061 
Q 1681 3084 1819 3084 
Q 2600 3084 3056 2656 
Q 3513 2228 3513 1497 
Q 3513 744 3044 326 
Q 2575 -91 1722 -91 
Q 1428 -91 1123 -41 
Q 819 9 494 109 
L 494 744 
Q 775 591 1075 516 
Q 1375 441 1709 441 
Q 2250 441 2565 725 
Q 2881 1009 2881 1497 
Q 2881 1984 2565 2268 
Q 2250 2553 1709 2553 
Q 1456 2553 1204 2497 
Q 953 2441 691 2322 
L 691 4666 
z
" transform="scale(0.015625)"/>
       </defs>
       <use xlink:href="#DejaVuSans-2212"/>
       <use xlink:href="#DejaVuSans-31" transform="translate(83.789062 0)"/>
       <use xlink:href="#DejaVuSans-32" transform="translate(147.412109 0)"/>
       <use xlink:href="#DejaVuSans-2e" transform="translate(211.035156 0)"/>
       <use xlink:href="#DejaVuSans-35" transform="translate(242.822266 0)"/>
      </g>
     </g>
    </g>
    <g id="xtick_2">
     <g id="line2d_3">
      <path d="M 128.980674 245.93875 
L 128.980674 26.88 
" clip-path="url(#p9425e1bed9)" style="fill: none; stroke: #b0b0b0; stroke-width: 0.8; stroke-linecap: square"/>
     </g>
     <g id="line2d_4">
      <g>
       <use xlink:href="#m42e02976c8" x="128.980674" y="245.93875" style="stroke: #000000; stroke-width: 0.8"/>
      </g>
     </g>
     <g id="text_2">
      <!-- −10.0 -->
      <g transform="translate(113.658017 260.537188) scale(0.1 -0.1)">
       <defs>
        <path id="DejaVuSans-30" d="M 2034 4250 
Q 1547 4250 1301 3770 
Q 1056 3291 1056 2328 
Q 1056 1369 1301 889 
Q 1547 409 2034 409 
Q 2525 409 2770 889 
Q 3016 1369 3016 2328 
Q 3016 3291 2770 3770 
Q 2525 4250 2034 4250 
z
M 2034 4750 
Q 2819 4750 3233 4129 
Q 3647 3509 3647 2328 
Q 3647 1150 3233 529 
Q 2819 -91 2034 -91 
Q 1250 -91 836 529 
Q 422 1150 422 2328 
Q 422 3509 836 4129 
Q 1250 4750 2034 4750 
z
" transform="scale(0.015625)"/>
       </defs>
       <use xlink:href="#DejaVuSans-2212"/>
       <use xlink:href="#DejaVuSans-31" transform="translate(83.789062 0)"/>
       <use xlink:href="#DejaVuSans-30" transform="translate(147.412109 0)"/>
       <use xlink:href="#DejaVuSans-2e" transform="translate(211.035156 0)"/>
       <use xlink:href="#DejaVuSans-30" transform="translate(242.822266 0)"/>
      </g>
     </g>
    </g>
    <g id="xtick_3">
     <g id="line2d_5">
      <path d="M 170.792183 245.93875 
L 170.792183 26.88 
" clip-path="url(#p9425e1bed9)" style="fill: none; stroke: #b0b0b0; stroke-width: 0.8; stroke-linecap: square"/>
     </g>
     <g id="line2d_6">
      <g>
       <use xlink:href="#m42e02976c8" x="170.792183" y="245.93875" style="stroke: #000000; stroke-width: 0.8"/>
      </g>
     </g>
     <g id="text_3">
      <!-- −7.5 -->
      <g transform="translate(158.650777 260.537188) scale(0.1 -0.1)">
       <defs>
        <path id="DejaVuSans-37" d="M 525 4666 
L 3525 4666 
L 3525 4397 
L 1831 0 
L 1172 0 
L 2766 4134 
L 525 4134 
L 525 4666 
z
" transform="scale(0.015625)"/>
       </defs>
       <use xlink:href="#DejaVuSans-2212"/>
       <use xlink:href="#DejaVuSans-37" transform="translate(83.789062 0)"/>
       <use xlink:href="#DejaVuSans-2e" transform="translate(147.412109 0)"/>
       <use xlink:href="#DejaVuSans-35" transform="translate(179.199219 0)"/>
      </g>
     </g>
    </g>
    <g id="xtick_4">
     <g id="line2d_7">
      <path d="M 212.603693 245.93875 
L 212.603693 26.88 
" clip-path="url(#p9425e1bed9)" style="fill: none; stroke: #b0b0b0; stroke-width: 0.8; stroke-linecap: square"/>
     </g>
     <g id="line2d_8">
      <g>
       <use xlink:href="#m42e02976c8" x="212.603693" y="245.93875" style="stroke: #000000; stroke-width: 0.8"/>
      </g>
     </g>
     <g id="text_4">
      <!-- −5.0 -->
      <g transform="translate(200.462287 260.537188) scale(0.1 -0.1)">
       <use xlink:href="#DejaVuSans-2212"/>
       <use xlink:href="#DejaVuSans-35" transform="translate(83.789062 0)"/>
       <use xlink:href="#DejaVuSans-2e" transform="translate(147.412109 0)"/>
       <use xlink:href="#DejaVuSans-30" transform="translate(179.199219 0)"/>
      </g>
     </g>
    </g>
    <g id="xtick_5">
     <g id="line2d_9">
      <path d="M 254.415203 245.93875 
L 254.415203 26.88 
" clip-path="url(#p9425e1bed9)" style="fill: none; stroke: #b0b0b0; stroke-width: 0.8; stroke-linecap: square"/>
     </g>
     <g id="line2d_10">
      <g>
       <use xlink:href="#m42e02976c8" x="254.415203" y="245.93875" style="stroke: #000000; stroke-width: 0.8"/>
      </g>
     </g>
     <g id="text_5">
      <!-- −2.5 -->
      <g transform="translate(242.273797 260.537188) scale(0.1 -0.1)">
       <use xlink:href="#DejaVuSans-2212"/>
       <use xlink:href="#DejaVuSans-32" transform="translate(83.789062 0)"/>
       <use xlink:href="#DejaVuSans-2e" transform="translate(147.412109 0)"/>
       <use xlink:href="#DejaVuSans-35" transform="translate(179.199219 0)"/>
      </g>
     </g>
    </g>
    <g id="xtick_6">
     <g id="line2d_11">
      <path d="M 296.226713 245.93875 
L 296.226713 26.88 
" clip-path="url(#p9425e1bed9)" style="fill: none; stroke: #b0b0b0; stroke-width: 0.8; stroke-linecap: square"/>
     </g>
     <g id="line2d_12">
      <g>
       <use xlink:href="#m42e02976c8" x="296.226713" y="245.93875" style="stroke: #000000; stroke-width: 0.8"/>
      </g>
     </g>
     <g id="text_6">
      <!-- 0.0 -->
      <g transform="translate(288.27515 260.537188) scale(0.1 -0.1)">
       <use xlink:href="#DejaVuSans-30"/>
       <use xlink:href="#DejaVuSans-2e" transform="translate(63.623047 0)"/>
       <use xlink:href="#DejaVuSans-30" transform="translate(95.410156 0)"/>
      </g>
     </g>
    </g>
    <g id="xtick_7">
     <g id="line2d_13">
      <path d="M 338.038222 245.93875 
L 338.038222 26.88 
" clip-path="url(#p9425e1bed9)" style="fill: none; stroke: #b0b0b0; stroke-width: 0.8; stroke-linecap: square"/>
     </g>
     <g id="line2d_14">
      <g>
       <use xlink:href="#m42e02976c8" x="338.038222" y="245.93875" style="stroke: #000000; stroke-width: 0.8"/>
      </g>
     </g>
     <g id="text_7">
      <!-- 2.5 -->
      <g transform="translate(330.08666 260.537188) scale(0.1 -0.1)">
       <use xlink:href="#DejaVuSans-32"/>
       <use xlink:href="#DejaVuSans-2e" transform="translate(63.623047 0)"/>
       <use xlink:href="#DejaVuSans-35" transform="translate(95.410156 0)"/>
      </g>
     </g>
    </g>
    <g id="xtick_8">
     <g id="line2d_15">
      <path d="M 379.849732 245.93875 
L 379.849732 26.88 
" clip-path="url(#p9425e1bed9)" style="fill: none; stroke: #b0b0b0; stroke-width: 0.8; stroke-linecap: square"/>
     </g>
     <g id="line2d_16">
      <g>
       <use xlink:href="#m42e02976c8" x="379.849732" y="245.93875" style="stroke: #000000; stroke-width: 0.8"/>
      </g>
     </g>
     <g id="text_8">
      <!-- 5.0 -->
      <g transform="translate(371.89817 260.537188) scale(0.1 -0.1)">
       <use xlink:href="#DejaVuSans-35"/>
       <use xlink:href="#DejaVuSans-2e" transform="translate(63.623047 0)"/>
       <use xlink:href="#DejaVuSans-30" transform="translate(95.410156 0)"/>
      </g>
     </g>
    </g>
    <g id="text_9">
     <!-- LaneOffset_Skewness -->
     <g transform="translate(184.983438 274.215312) scale(0.1 -0.1)">
      <defs>
       <path id="DejaVuSans-4c" d="M 628 4666 
L 1259 4666 
L 1259 531 
L 3531 531 
L 3531 0 
L 628 0 
L 628 4666 
z
" transform="scale(0.015625)"/>
       <path id="DejaVuSans-61" d="M 2194 1759 
Q 1497 1759 1228 1600 
Q 959 1441 959 1056 
Q 959 750 1161 570 
Q 1363 391 1709 391 
Q 2188 391 2477 730 
Q 2766 1069 2766 1631 
L 2766 1759 
L 2194 1759 
z
M 3341 1997 
L 3341 0 
L 2766 0 
L 2766 531 
Q 2569 213 2275 61 
Q 1981 -91 1556 -91 
Q 1019 -91 701 211 
Q 384 513 384 1019 
Q 384 1609 779 1909 
Q 1175 2209 1959 2209 
L 2766 2209 
L 2766 2266 
Q 2766 2663 2505 2880 
Q 2244 3097 1772 3097 
Q 1472 3097 1187 3025 
Q 903 2953 641 2809 
L 641 3341 
Q 956 3463 1253 3523 
Q 1550 3584 1831 3584 
Q 2591 3584 2966 3190 
Q 3341 2797 3341 1997 
z
" transform="scale(0.015625)"/>
       <path id="DejaVuSans-6e" d="M 3513 2113 
L 3513 0 
L 2938 0 
L 2938 2094 
Q 2938 2591 2744 2837 
Q 2550 3084 2163 3084 
Q 1697 3084 1428 2787 
Q 1159 2491 1159 1978 
L 1159 0 
L 581 0 
L 581 3500 
L 1159 3500 
L 1159 2956 
Q 1366 3272 1645 3428 
Q 1925 3584 2291 3584 
Q 2894 3584 3203 3211 
Q 3513 2838 3513 2113 
z
" transform="scale(0.015625)"/>
       <path id="DejaVuSans-65" d="M 3597 1894 
L 3597 1613 
L 953 1613 
Q 991 1019 1311 708 
Q 1631 397 2203 397 
Q 2534 397 2845 478 
Q 3156 559 3463 722 
L 3463 178 
Q 3153 47 2828 -22 
Q 2503 -91 2169 -91 
Q 1331 -91 842 396 
Q 353 884 353 1716 
Q 353 2575 817 3079 
Q 1281 3584 2069 3584 
Q 2775 3584 3186 3129 
Q 3597 2675 3597 1894 
z
M 3022 2063 
Q 3016 2534 2758 2815 
Q 2500 3097 2075 3097 
Q 1594 3097 1305 2825 
Q 1016 2553 972 2059 
L 3022 2063 
z
" transform="scale(0.015625)"/>
       <path id="DejaVuSans-4f" d="M 2522 4238 
Q 1834 4238 1429 3725 
Q 1025 3213 1025 2328 
Q 1025 1447 1429 934 
Q 1834 422 2522 422 
Q 3209 422 3611 934 
Q 4013 1447 4013 2328 
Q 4013 3213 3611 3725 
Q 3209 4238 2522 4238 
z
M 2522 4750 
Q 3503 4750 4090 4092 
Q 4678 3434 4678 2328 
Q 4678 1225 4090 567 
Q 3503 -91 2522 -91 
Q 1538 -91 948 565 
Q 359 1222 359 2328 
Q 359 3434 948 4092 
Q 1538 4750 2522 4750 
z
" transform="scale(0.015625)"/>
       <path id="DejaVuSans-66" d="M 2375 4863 
L 2375 4384 
L 1825 4384 
Q 1516 4384 1395 4259 
Q 1275 4134 1275 3809 
L 1275 3500 
L 2222 3500 
L 2222 3053 
L 1275 3053 
L 1275 0 
L 697 0 
L 697 3053 
L 147 3053 
L 147 3500 
L 697 3500 
L 697 3744 
Q 697 4328 969 4595 
Q 1241 4863 1831 4863 
L 2375 4863 
z
" transform="scale(0.015625)"/>
       <path id="DejaVuSans-73" d="M 2834 3397 
L 2834 2853 
Q 2591 2978 2328 3040 
Q 2066 3103 1784 3103 
Q 1356 3103 1142 2972 
Q 928 2841 928 2578 
Q 928 2378 1081 2264 
Q 1234 2150 1697 2047 
L 1894 2003 
Q 2506 1872 2764 1633 
Q 3022 1394 3022 966 
Q 3022 478 2636 193 
Q 2250 -91 1575 -91 
Q 1294 -91 989 -36 
Q 684 19 347 128 
L 347 722 
Q 666 556 975 473 
Q 1284 391 1588 391 
Q 1994 391 2212 530 
Q 2431 669 2431 922 
Q 2431 1156 2273 1281 
Q 2116 1406 1581 1522 
L 1381 1569 
Q 847 1681 609 1914 
Q 372 2147 372 2553 
Q 372 3047 722 3315 
Q 1072 3584 1716 3584 
Q 2034 3584 2315 3537 
Q 2597 3491 2834 3397 
z
" transform="scale(0.015625)"/>
       <path id="DejaVuSans-74" d="M 1172 4494 
L 1172 3500 
L 2356 3500 
L 2356 3053 
L 1172 3053 
L 1172 1153 
Q 1172 725 1289 603 
Q 1406 481 1766 481 
L 2356 481 
L 2356 0 
L 1766 0 
Q 1100 0 847 248 
Q 594 497 594 1153 
L 594 3053 
L 172 3053 
L 172 3500 
L 594 3500 
L 594 4494 
L 1172 4494 
z
" transform="scale(0.015625)"/>
       <path id="DejaVuSans-5f" d="M 3263 -1063 
L 3263 -1509 
L -63 -1509 
L -63 -1063 
L 3263 -1063 
z
" transform="scale(0.015625)"/>
       <path id="DejaVuSans-53" d="M 3425 4513 
L 3425 3897 
Q 3066 4069 2747 4153 
Q 2428 4238 2131 4238 
Q 1616 4238 1336 4038 
Q 1056 3838 1056 3469 
Q 1056 3159 1242 3001 
Q 1428 2844 1947 2747 
L 2328 2669 
Q 3034 2534 3370 2195 
Q 3706 1856 3706 1288 
Q 3706 609 3251 259 
Q 2797 -91 1919 -91 
Q 1588 -91 1214 -16 
Q 841 59 441 206 
L 441 856 
Q 825 641 1194 531 
Q 1563 422 1919 422 
Q 2459 422 2753 634 
Q 3047 847 3047 1241 
Q 3047 1584 2836 1778 
Q 2625 1972 2144 2069 
L 1759 2144 
Q 1053 2284 737 2584 
Q 422 2884 422 3419 
Q 422 4038 858 4394 
Q 1294 4750 2059 4750 
Q 2388 4750 2728 4690 
Q 3069 4631 3425 4513 
z
" transform="scale(0.015625)"/>
       <path id="DejaVuSans-6b" d="M 581 4863 
L 1159 4863 
L 1159 1991 
L 2875 3500 
L 3609 3500 
L 1753 1863 
L 3688 0 
L 2938 0 
L 1159 1709 
L 1159 0 
L 581 0 
L 581 4863 
z
" transform="scale(0.015625)"/>
       <path id="DejaVuSans-77" d="M 269 3500 
L 844 3500 
L 1563 769 
L 2278 3500 
L 2956 3500 
L 3675 769 
L 4391 3500 
L 4966 3500 
L 4050 0 
L 3372 0 
L 2619 2869 
L 1863 0 
L 1184 0 
L 269 3500 
z
" transform="scale(0.015625)"/>
      </defs>
      <use xlink:href="#DejaVuSans-4c"/>
      <use xlink:href="#DejaVuSans-61" transform="translate(55.712891 0)"/>
      <use xlink:href="#DejaVuSans-6e" transform="translate(116.992188 0)"/>
      <use xlink:href="#DejaVuSans-65" transform="translate(180.371094 0)"/>
      <use xlink:href="#DejaVuSans-4f" transform="translate(241.894531 0)"/>
      <use xlink:href="#DejaVuSans-66" transform="translate(320.605469 0)"/>
      <use xlink:href="#DejaVuSans-66" transform="translate(355.810547 0)"/>
      <use xlink:href="#DejaVuSans-73" transform="translate(391.015625 0)"/>
      <use xlink:href="#DejaVuSans-65" transform="translate(443.115234 0)"/>
      <use xlink:href="#DejaVuSans-74" transform="translate(504.638672 0)"/>
      <use xlink:href="#DejaVuSans-5f" transform="translate(543.847656 0)"/>
      <use xlink:href="#DejaVuSans-53" transform="translate(593.847656 0)"/>
      <use xlink:href="#DejaVuSans-6b" transform="translate(657.324219 0)"/>
      <use xlink:href="#DejaVuSans-65" transform="translate(711.609375 0)"/>
      <use xlink:href="#DejaVuSans-77" transform="translate(773.132812 0)"/>
      <use xlink:href="#DejaVuSans-6e" transform="translate(854.919922 0)"/>
      <use xlink:href="#DejaVuSans-65" transform="translate(918.298828 0)"/>
      <use xlink:href="#DejaVuSans-73" transform="translate(979.822266 0)"/>
      <use xlink:href="#DejaVuSans-73" transform="translate(1031.921875 0)"/>
     </g>
    </g>
   </g>
   <g id="matplotlib.axis_2">
    <g id="ytick_1">
     <g id="line2d_17">
      <path d="M 57.17 245.93875 
L 421.2 245.93875 
" clip-path="url(#p9425e1bed9)" style="fill: none; stroke: #b0b0b0; stroke-width: 0.8; stroke-linecap: square"/>
     </g>
     <g id="line2d_18">
      <defs>
       <path id="m064703134d" d="M 0 0 
L -3.5 0 
" style="stroke: #000000; stroke-width: 0.8"/>
      </defs>
      <g>
       <use xlink:href="#m064703134d" x="57.17" y="245.93875" style="stroke: #000000; stroke-width: 0.8"/>
      </g>
     </g>
     <g id="text_10">
      <!-- 0 -->
      <g transform="translate(43.8075 249.737969) scale(0.1 -0.1)">
       <use xlink:href="#DejaVuSans-30"/>
      </g>
     </g>
    </g>
    <g id="ytick_2">
     <g id="line2d_19">
      <path d="M 57.17 205.8181 
L 421.2 205.8181 
" clip-path="url(#p9425e1bed9)" style="fill: none; stroke: #b0b0b0; stroke-width: 0.8; stroke-linecap: square"/>
     </g>
     <g id="line2d_20">
      <g>
       <use xlink:href="#m064703134d" x="57.17" y="205.8181" style="stroke: #000000; stroke-width: 0.8"/>
      </g>
     </g>
     <g id="text_11">
      <!-- 1000 -->
      <g transform="translate(24.72 209.617319) scale(0.1 -0.1)">
       <use xlink:href="#DejaVuSans-31"/>
       <use xlink:href="#DejaVuSans-30" transform="translate(63.623047 0)"/>
       <use xlink:href="#DejaVuSans-30" transform="translate(127.246094 0)"/>
       <use xlink:href="#DejaVuSans-30" transform="translate(190.869141 0)"/>
      </g>
     </g>
    </g>
    <g id="ytick_3">
     <g id="line2d_21">
      <path d="M 57.17 165.69745 
L 421.2 165.69745 
" clip-path="url(#p9425e1bed9)" style="fill: none; stroke: #b0b0b0; stroke-width: 0.8; stroke-linecap: square"/>
     </g>
     <g id="line2d_22">
      <g>
       <use xlink:href="#m064703134d" x="57.17" y="165.69745" style="stroke: #000000; stroke-width: 0.8"/>
      </g>
     </g>
     <g id="text_12">
      <!-- 2000 -->
      <g transform="translate(24.72 169.496668) scale(0.1 -0.1)">
       <use xlink:href="#DejaVuSans-32"/>
       <use xlink:href="#DejaVuSans-30" transform="translate(63.623047 0)"/>
       <use xlink:href="#DejaVuSans-30" transform="translate(127.246094 0)"/>
       <use xlink:href="#DejaVuSans-30" transform="translate(190.869141 0)"/>
      </g>
     </g>
    </g>
    <g id="ytick_4">
     <g id="line2d_23">
      <path d="M 57.17 125.576799 
L 421.2 125.576799 
" clip-path="url(#p9425e1bed9)" style="fill: none; stroke: #b0b0b0; stroke-width: 0.8; stroke-linecap: square"/>
     </g>
     <g id="line2d_24">
      <g>
       <use xlink:href="#m064703134d" x="57.17" y="125.576799" style="stroke: #000000; stroke-width: 0.8"/>
      </g>
     </g>
     <g id="text_13">
      <!-- 3000 -->
      <g transform="translate(24.72 129.376018) scale(0.1 -0.1)">
       <defs>
        <path id="DejaVuSans-33" d="M 2597 2516 
Q 3050 2419 3304 2112 
Q 3559 1806 3559 1356 
Q 3559 666 3084 287 
Q 2609 -91 1734 -91 
Q 1441 -91 1130 -33 
Q 819 25 488 141 
L 488 750 
Q 750 597 1062 519 
Q 1375 441 1716 441 
Q 2309 441 2620 675 
Q 2931 909 2931 1356 
Q 2931 1769 2642 2001 
Q 2353 2234 1838 2234 
L 1294 2234 
L 1294 2753 
L 1863 2753 
Q 2328 2753 2575 2939 
Q 2822 3125 2822 3475 
Q 2822 3834 2567 4026 
Q 2313 4219 1838 4219 
Q 1578 4219 1281 4162 
Q 984 4106 628 3988 
L 628 4550 
Q 988 4650 1302 4700 
Q 1616 4750 1894 4750 
Q 2613 4750 3031 4423 
Q 3450 4097 3450 3541 
Q 3450 3153 3228 2886 
Q 3006 2619 2597 2516 
z
" transform="scale(0.015625)"/>
       </defs>
       <use xlink:href="#DejaVuSans-33"/>
       <use xlink:href="#DejaVuSans-30" transform="translate(63.623047 0)"/>
       <use xlink:href="#DejaVuSans-30" transform="translate(127.246094 0)"/>
       <use xlink:href="#DejaVuSans-30" transform="translate(190.869141 0)"/>
      </g>
     </g>
    </g>
    <g id="ytick_5">
     <g id="line2d_25">
      <path d="M 57.17 85.456149 
L 421.2 85.456149 
" clip-path="url(#p9425e1bed9)" style="fill: none; stroke: #b0b0b0; stroke-width: 0.8; stroke-linecap: square"/>
     </g>
     <g id="line2d_26">
      <g>
       <use xlink:href="#m064703134d" x="57.17" y="85.456149" style="stroke: #000000; stroke-width: 0.8"/>
      </g>
     </g>
     <g id="text_14">
      <!-- 4000 -->
      <g transform="translate(24.72 89.255368) scale(0.1 -0.1)">
       <defs>
        <path id="DejaVuSans-34" d="M 2419 4116 
L 825 1625 
L 2419 1625 
L 2419 4116 
z
M 2253 4666 
L 3047 4666 
L 3047 1625 
L 3713 1625 
L 3713 1100 
L 3047 1100 
L 3047 0 
L 2419 0 
L 2419 1100 
L 313 1100 
L 313 1709 
L 2253 4666 
z
" transform="scale(0.015625)"/>
       </defs>
       <use xlink:href="#DejaVuSans-34"/>
       <use xlink:href="#DejaVuSans-30" transform="translate(63.623047 0)"/>
       <use xlink:href="#DejaVuSans-30" transform="translate(127.246094 0)"/>
       <use xlink:href="#DejaVuSans-30" transform="translate(190.869141 0)"/>
      </g>
     </g>
    </g>
    <g id="ytick_6">
     <g id="line2d_27">
      <path d="M 57.17 45.335499 
L 421.2 45.335499 
" clip-path="url(#p9425e1bed9)" style="fill: none; stroke: #b0b0b0; stroke-width: 0.8; stroke-linecap: square"/>
     </g>
     <g id="line2d_28">
      <g>
       <use xlink:href="#m064703134d" x="57.17" y="45.335499" style="stroke: #000000; stroke-width: 0.8"/>
      </g>
     </g>
     <g id="text_15">
      <!-- 5000 -->
      <g transform="translate(24.72 49.134718) scale(0.1 -0.1)">
       <use xlink:href="#DejaVuSans-35"/>
       <use xlink:href="#DejaVuSans-30" transform="translate(63.623047 0)"/>
       <use xlink:href="#DejaVuSans-30" transform="translate(127.246094 0)"/>
       <use xlink:href="#DejaVuSans-30" transform="translate(190.869141 0)"/>
      </g>
     </g>
    </g>
    <g id="text_16">
     <!-- Count -->
     <g transform="translate(18.640313 151.257812) rotate(-90) scale(0.1 -0.1)">
      <defs>
       <path id="DejaVuSans-43" d="M 4122 4306 
L 4122 3641 
Q 3803 3938 3442 4084 
Q 3081 4231 2675 4231 
Q 1875 4231 1450 3742 
Q 1025 3253 1025 2328 
Q 1025 1406 1450 917 
Q 1875 428 2675 428 
Q 3081 428 3442 575 
Q 3803 722 4122 1019 
L 4122 359 
Q 3791 134 3420 21 
Q 3050 -91 2638 -91 
Q 1578 -91 968 557 
Q 359 1206 359 2328 
Q 359 3453 968 4101 
Q 1578 4750 2638 4750 
Q 3056 4750 3426 4639 
Q 3797 4528 4122 4306 
z
" transform="scale(0.015625)"/>
       <path id="DejaVuSans-6f" d="M 1959 3097 
Q 1497 3097 1228 2736 
Q 959 2375 959 1747 
Q 959 1119 1226 758 
Q 1494 397 1959 397 
Q 2419 397 2687 759 
Q 2956 1122 2956 1747 
Q 2956 2369 2687 2733 
Q 2419 3097 1959 3097 
z
M 1959 3584 
Q 2709 3584 3137 3096 
Q 3566 2609 3566 1747 
Q 3566 888 3137 398 
Q 2709 -91 1959 -91 
Q 1206 -91 779 398 
Q 353 888 353 1747 
Q 353 2609 779 3096 
Q 1206 3584 1959 3584 
z
" transform="scale(0.015625)"/>
       <path id="DejaVuSans-75" d="M 544 1381 
L 544 3500 
L 1119 3500 
L 1119 1403 
Q 1119 906 1312 657 
Q 1506 409 1894 409 
Q 2359 409 2629 706 
Q 2900 1003 2900 1516 
L 2900 3500 
L 3475 3500 
L 3475 0 
L 2900 0 
L 2900 538 
Q 2691 219 2414 64 
Q 2138 -91 1772 -91 
Q 1169 -91 856 284 
Q 544 659 544 1381 
z
M 1991 3584 
L 1991 3584 
z
" transform="scale(0.015625)"/>
      </defs>
      <use xlink:href="#DejaVuSans-43"/>
      <use xlink:href="#DejaVuSans-6f" transform="translate(69.824219 0)"/>
      <use xlink:href="#DejaVuSans-75" transform="translate(131.005859 0)"/>
      <use xlink:href="#DejaVuSans-6e" transform="translate(194.384766 0)"/>
      <use xlink:href="#DejaVuSans-74" transform="translate(257.763672 0)"/>
     </g>
    </g>
   </g>
   <g id="patch_53">
    <path d="M 57.17 245.93875 
L 57.17 26.88 
" style="fill: none; stroke: #000000; stroke-width: 0.8; stroke-linejoin: miter; stroke-linecap: square"/>
   </g>
   <g id="patch_54">
    <path d="M 421.2 245.93875 
L 421.2 26.88 
" style="fill: none; stroke: #000000; stroke-width: 0.8; stroke-linejoin: miter; stroke-linecap: square"/>
   </g>
   <g id="patch_55">
    <path d="M 57.17 245.93875 
L 421.2 245.93875 
" style="fill: none; stroke: #000000; stroke-width: 0.8; stroke-linejoin: miter; stroke-linecap: square"/>
   </g>
   <g id="patch_56">
    <path d="M 57.17 26.88 
L 421.2 26.88 
" style="fill: none; stroke: #000000; stroke-width: 0.8; stroke-linejoin: miter; stroke-linecap: square"/>
   </g>
   <g id="text_17">
    <!-- LaneOffset_Skewness -->
    <g transform="translate(174.143125 20.88) scale(0.12 -0.12)">
     <use xlink:href="#DejaVuSans-4c"/>
     <use xlink:href="#DejaVuSans-61" transform="translate(55.712891 0)"/>
     <use xlink:href="#DejaVuSans-6e" transform="translate(116.992188 0)"/>
     <use xlink:href="#DejaVuSans-65" transform="translate(180.371094 0)"/>
     <use xlink:href="#DejaVuSans-4f" transform="translate(241.894531 0)"/>
     <use xlink:href="#DejaVuSans-66" transform="translate(320.605469 0)"/>
     <use xlink:href="#DejaVuSans-66" transform="translate(355.810547 0)"/>
     <use xlink:href="#DejaVuSans-73" transform="translate(391.015625 0)"/>
     <use xlink:href="#DejaVuSans-65" transform="translate(443.115234 0)"/>
     <use xlink:href="#DejaVuSans-74" transform="translate(504.638672 0)"/>
     <use xlink:href="#DejaVuSans-5f" transform="translate(543.847656 0)"/>
     <use xlink:href="#DejaVuSans-53" transform="translate(593.847656 0)"/>
     <use xlink:href="#DejaVuSans-6b" transform="translate(657.324219 0)"/>
     <use xlink:href="#DejaVuSans-65" transform="translate(711.609375 0)"/>
     <use xlink:href="#DejaVuSans-77" transform="translate(773.132812 0)"/>
     <use xlink:href="#DejaVuSans-6e" transform="translate(854.919922 0)"/>
     <use xlink:href="#DejaVuSans-65" transform="translate(918.298828 0)"/>
     <use xlink:href="#DejaVuSans-73" transform="translate(979.822266 0)"/>
     <use xlink:href="#DejaVuSans-73" transform="translate(1031.921875 0)"/>
    </g>
   </g>
  </g>
 </g>
 <defs>
  <clipPath id="p9425e1bed9">
   <rect x="57.17" y="26.88" width="364.03" height="219.05875"/>
  </clipPath>
 </defs>
</svg>
