<?xml version="1.0" encoding="utf-8" standalone="no"?>
<!DOCTYPE svg PUBLIC "-//W3C//DTD SVG 1.1//EN"
  "http://www.w3.org/Graphics/SVG/1.1/DTD/svg11.dtd">
<svg xmlns:xlink="http://www.w3.org/1999/xlink" width="432pt" height="288pt" viewBox="0 0 432 288" xmlns="http://www.w3.org/2000/svg" version="1.1">
 <metadata>
  <rdf:RDF xmlns:dc="http://purl.org/dc/elements/1.1/" xmlns:cc="http://creativecommons.org/ns#" xmlns:rdf="http://www.w3.org/1999/02/22-rdf-syntax-ns#">
   <cc:Work>
    <dc:type rdf:resource="http://purl.org/dc/dcmitype/StillImage"/>
    <dc:date>2025-06-15T13:37:41.274793</dc:date>
    <dc:format>image/svg+xml</dc:format>
    <dc:creator>
     <cc:Agent>
      <dc:title>Matplotlib v3.10.0, https://matplotlib.org/</dc:title>
     </cc:Agent>
    </dc:creator>
   </cc:Work>
  </rdf:RDF>
 </metadata>
 <defs>
  <style type="text/css">*{stroke-linejoin: round; stroke-linecap: butt}</style>
 </defs>
 <g id="figure_1">
  <g id="patch_1">
   <path d="M 0 288 
L 432 288 
L 432 0 
L 0 0 
z
" style="fill: #ffffff"/>
  </g>
  <g id="axes_1">
   <g id="patch_2">
    <path d="M 63.47 245.93875 
L 421.2 245.93875 
L 421.2 26.88 
L 63.47 26.88 
z
" style="fill: #ffffff"/>
   </g>
   <g id="patch_3">
    <path d="M 79.730455 245.93875 
L 86.234636 245.93875 
L 86.234636 245.915771 
L 79.730455 245.915771 
z
" clip-path="url(#pa2669f70a0)" style="fill: #1f77b4"/>
   </g>
   <g id="patch_4">
    <path d="M 86.234636 245.93875 
L 92.738818 245.93875 
L 92.738818 245.93875 
L 86.234636 245.93875 
z
" clip-path="url(#pa2669f70a0)" style="fill: #1f77b4"/>
   </g>
   <g id="patch_5">
    <path d="M 92.738818 245.93875 
L 99.243 245.93875 
L 99.243 245.93875 
L 92.738818 245.93875 
z
" clip-path="url(#pa2669f70a0)" style="fill: #1f77b4"/>
   </g>
   <g id="patch_6">
    <path d="M 99.243 245.93875 
L 105.747182 245.93875 
L 105.747182 245.93875 
L 99.243 245.93875 
z
" clip-path="url(#pa2669f70a0)" style="fill: #1f77b4"/>
   </g>
   <g id="patch_7">
    <path d="M 105.747182 245.93875 
L 112.251364 245.93875 
L 112.251364 245.93875 
L 105.747182 245.93875 
z
" clip-path="url(#pa2669f70a0)" style="fill: #1f77b4"/>
   </g>
   <g id="patch_8">
    <path d="M 112.251364 245.93875 
L 118.755545 245.93875 
L 118.755545 245.915771 
L 112.251364 245.915771 
z
" clip-path="url(#pa2669f70a0)" style="fill: #1f77b4"/>
   </g>
   <g id="patch_9">
    <path d="M 118.755545 245.93875 
L 125.259727 245.93875 
L 125.259727 245.915771 
L 118.755545 245.915771 
z
" clip-path="url(#pa2669f70a0)" style="fill: #1f77b4"/>
   </g>
   <g id="patch_10">
    <path d="M 125.259727 245.93875 
L 131.763909 245.93875 
L 131.763909 245.915771 
L 125.259727 245.915771 
z
" clip-path="url(#pa2669f70a0)" style="fill: #1f77b4"/>
   </g>
   <g id="patch_11">
    <path d="M 131.763909 245.93875 
L 138.268091 245.93875 
L 138.268091 245.915771 
L 131.763909 245.915771 
z
" clip-path="url(#pa2669f70a0)" style="fill: #1f77b4"/>
   </g>
   <g id="patch_12">
    <path d="M 138.268091 245.93875 
L 144.772273 245.93875 
L 144.772273 245.869813 
L 138.268091 245.869813 
z
" clip-path="url(#pa2669f70a0)" style="fill: #1f77b4"/>
   </g>
   <g id="patch_13">
    <path d="M 144.772273 245.93875 
L 151.276455 245.93875 
L 151.276455 245.904281 
L 144.772273 245.904281 
z
" clip-path="url(#pa2669f70a0)" style="fill: #1f77b4"/>
   </g>
   <g id="patch_14">
    <path d="M 151.276455 245.93875 
L 157.780636 245.93875 
L 157.780636 245.858323 
L 151.276455 245.858323 
z
" clip-path="url(#pa2669f70a0)" style="fill: #1f77b4"/>
   </g>
   <g id="patch_15">
    <path d="M 157.780636 245.93875 
L 164.284818 245.93875 
L 164.284818 245.904281 
L 157.780636 245.904281 
z
" clip-path="url(#pa2669f70a0)" style="fill: #1f77b4"/>
   </g>
   <g id="patch_16">
    <path d="M 164.284818 245.93875 
L 170.789 245.93875 
L 170.789 245.881302 
L 164.284818 245.881302 
z
" clip-path="url(#pa2669f70a0)" style="fill: #1f77b4"/>
   </g>
   <g id="patch_17">
    <path d="M 170.789 245.93875 
L 177.293182 245.93875 
L 177.293182 245.881302 
L 170.789 245.881302 
z
" clip-path="url(#pa2669f70a0)" style="fill: #1f77b4"/>
   </g>
   <g id="patch_18">
    <path d="M 177.293182 245.93875 
L 183.797364 245.93875 
L 183.797364 245.869813 
L 177.293182 245.869813 
z
" clip-path="url(#pa2669f70a0)" style="fill: #1f77b4"/>
   </g>
   <g id="patch_19">
    <path d="M 183.797364 245.93875 
L 190.301545 245.93875 
L 190.301545 245.858323 
L 183.797364 245.858323 
z
" clip-path="url(#pa2669f70a0)" style="fill: #1f77b4"/>
   </g>
   <g id="patch_20">
    <path d="M 190.301545 245.93875 
L 196.805727 245.93875 
L 196.805727 245.777896 
L 190.301545 245.777896 
z
" clip-path="url(#pa2669f70a0)" style="fill: #1f77b4"/>
   </g>
   <g id="patch_21">
    <path d="M 196.805727 245.93875 
L 203.309909 245.93875 
L 203.309909 245.754917 
L 196.805727 245.754917 
z
" clip-path="url(#pa2669f70a0)" style="fill: #1f77b4"/>
   </g>
   <g id="patch_22">
    <path d="M 203.309909 245.93875 
L 209.814091 245.93875 
L 209.814091 245.720448 
L 203.309909 245.720448 
z
" clip-path="url(#pa2669f70a0)" style="fill: #1f77b4"/>
   </g>
   <g id="patch_23">
    <path d="M 209.814091 245.93875 
L 216.318273 245.93875 
L 216.318273 245.640022 
L 209.814091 245.640022 
z
" clip-path="url(#pa2669f70a0)" style="fill: #1f77b4"/>
   </g>
   <g id="patch_24">
    <path d="M 216.318273 245.93875 
L 222.822455 245.93875 
L 222.822455 245.605553 
L 216.318273 245.605553 
z
" clip-path="url(#pa2669f70a0)" style="fill: #1f77b4"/>
   </g>
   <g id="patch_25">
    <path d="M 222.822455 245.93875 
L 229.326636 245.93875 
L 229.326636 245.375762 
L 222.822455 245.375762 
z
" clip-path="url(#pa2669f70a0)" style="fill: #1f77b4"/>
   </g>
   <g id="patch_26">
    <path d="M 229.326636 245.93875 
L 235.830818 245.93875 
L 235.830818 244.422128 
L 229.326636 244.422128 
z
" clip-path="url(#pa2669f70a0)" style="fill: #1f77b4"/>
   </g>
   <g id="patch_27">
    <path d="M 235.830818 245.93875 
L 242.335 245.93875 
L 242.335 37.311369 
L 235.830818 37.311369 
z
" clip-path="url(#pa2669f70a0)" style="fill: #1f77b4"/>
   </g>
   <g id="patch_28">
    <path d="M 242.335 245.93875 
L 248.839182 245.93875 
L 248.839182 230.35891 
L 242.335 230.35891 
z
" clip-path="url(#pa2669f70a0)" style="fill: #1f77b4"/>
   </g>
   <g id="patch_29">
    <path d="M 248.839182 245.93875 
L 255.343364 245.93875 
L 255.343364 243.997015 
L 248.839182 243.997015 
z
" clip-path="url(#pa2669f70a0)" style="fill: #1f77b4"/>
   </g>
   <g id="patch_30">
    <path d="M 255.343364 245.93875 
L 261.847545 245.93875 
L 261.847545 245.15746 
L 255.343364 245.15746 
z
" clip-path="url(#pa2669f70a0)" style="fill: #1f77b4"/>
   </g>
   <g id="patch_31">
    <path d="M 261.847545 245.93875 
L 268.351727 245.93875 
L 268.351727 245.479168 
L 261.847545 245.479168 
z
" clip-path="url(#pa2669f70a0)" style="fill: #1f77b4"/>
   </g>
   <g id="patch_32">
    <path d="M 268.351727 245.93875 
L 274.855909 245.93875 
L 274.855909 245.617042 
L 268.351727 245.617042 
z
" clip-path="url(#pa2669f70a0)" style="fill: #1f77b4"/>
   </g>
   <g id="patch_33">
    <path d="M 274.855909 245.93875 
L 281.360091 245.93875 
L 281.360091 245.640022 
L 274.855909 245.640022 
z
" clip-path="url(#pa2669f70a0)" style="fill: #1f77b4"/>
   </g>
   <g id="patch_34">
    <path d="M 281.360091 245.93875 
L 287.864273 245.93875 
L 287.864273 245.68598 
L 281.360091 245.68598 
z
" clip-path="url(#pa2669f70a0)" style="fill: #1f77b4"/>
   </g>
   <g id="patch_35">
    <path d="M 287.864273 245.93875 
L 294.368455 245.93875 
L 294.368455 245.743428 
L 287.864273 245.743428 
z
" clip-path="url(#pa2669f70a0)" style="fill: #1f77b4"/>
   </g>
   <g id="patch_36">
    <path d="M 294.368455 245.93875 
L 300.872636 245.93875 
L 300.872636 245.743428 
L 294.368455 245.743428 
z
" clip-path="url(#pa2669f70a0)" style="fill: #1f77b4"/>
   </g>
   <g id="patch_37">
    <path d="M 300.872636 245.93875 
L 307.376818 245.93875 
L 307.376818 245.823854 
L 300.872636 245.823854 
z
" clip-path="url(#pa2669f70a0)" style="fill: #1f77b4"/>
   </g>
   <g id="patch_38">
    <path d="M 307.376818 245.93875 
L 313.881 245.93875 
L 313.881 245.858323 
L 307.376818 245.858323 
z
" clip-path="url(#pa2669f70a0)" style="fill: #1f77b4"/>
   </g>
   <g id="patch_39">
    <path d="M 313.881 245.93875 
L 320.385182 245.93875 
L 320.385182 245.835344 
L 313.881 245.835344 
z
" clip-path="url(#pa2669f70a0)" style="fill: #1f77b4"/>
   </g>
   <g id="patch_40">
    <path d="M 320.385182 245.93875 
L 326.889364 245.93875 
L 326.889364 245.904281 
L 320.385182 245.904281 
z
" clip-path="url(#pa2669f70a0)" style="fill: #1f77b4"/>
   </g>
   <g id="patch_41">
    <path d="M 326.889364 245.93875 
L 333.393545 245.93875 
L 333.393545 245.904281 
L 326.889364 245.904281 
z
" clip-path="url(#pa2669f70a0)" style="fill: #1f77b4"/>
   </g>
   <g id="patch_42">
    <path d="M 333.393545 245.93875 
L 339.897727 245.93875 
L 339.897727 245.881302 
L 333.393545 245.881302 
z
" clip-path="url(#pa2669f70a0)" style="fill: #1f77b4"/>
   </g>
   <g id="patch_43">
    <path d="M 339.897727 245.93875 
L 346.401909 245.93875 
L 346.401909 245.881302 
L 339.897727 245.881302 
z
" clip-path="url(#pa2669f70a0)" style="fill: #1f77b4"/>
   </g>
   <g id="patch_44">
    <path d="M 346.401909 245.93875 
L 352.906091 245.93875 
L 352.906091 245.904281 
L 346.401909 245.904281 
z
" clip-path="url(#pa2669f70a0)" style="fill: #1f77b4"/>
   </g>
   <g id="patch_45">
    <path d="M 352.906091 245.93875 
L 359.410273 245.93875 
L 359.410273 245.915771 
L 352.906091 245.915771 
z
" clip-path="url(#pa2669f70a0)" style="fill: #1f77b4"/>
   </g>
   <g id="patch_46">
    <path d="M 359.410273 245.93875 
L 365.914455 245.93875 
L 365.914455 245.915771 
L 359.410273 245.915771 
z
" clip-path="url(#pa2669f70a0)" style="fill: #1f77b4"/>
   </g>
   <g id="patch_47">
    <path d="M 365.914455 245.93875 
L 372.418636 245.93875 
L 372.418636 245.93875 
L 365.914455 245.93875 
z
" clip-path="url(#pa2669f70a0)" style="fill: #1f77b4"/>
   </g>
   <g id="patch_48">
    <path d="M 372.418636 245.93875 
L 378.922818 245.93875 
L 378.922818 245.93875 
L 372.418636 245.93875 
z
" clip-path="url(#pa2669f70a0)" style="fill: #1f77b4"/>
   </g>
   <g id="patch_49">
    <path d="M 378.922818 245.93875 
L 385.427 245.93875 
L 385.427 245.92726 
L 378.922818 245.92726 
z
" clip-path="url(#pa2669f70a0)" style="fill: #1f77b4"/>
   </g>
   <g id="patch_50">
    <path d="M 385.427 245.93875 
L 391.931182 245.93875 
L 391.931182 245.93875 
L 385.427 245.93875 
z
" clip-path="url(#pa2669f70a0)" style="fill: #1f77b4"/>
   </g>
   <g id="patch_51">
    <path d="M 391.931182 245.93875 
L 398.435364 245.93875 
L 398.435364 245.92726 
L 391.931182 245.92726 
z
" clip-path="url(#pa2669f70a0)" style="fill: #1f77b4"/>
   </g>
   <g id="patch_52">
    <path d="M 398.435364 245.93875 
L 404.939545 245.93875 
L 404.939545 245.92726 
L 398.435364 245.92726 
z
" clip-path="url(#pa2669f70a0)" style="fill: #1f77b4"/>
   </g>
   <g id="matplotlib.axis_1">
    <g id="xtick_1">
     <g id="line2d_1">
      <path d="M 98.86187 245.93875 
L 98.86187 26.88 
" clip-path="url(#pa2669f70a0)" style="fill: none; stroke: #b0b0b0; stroke-width: 0.8; stroke-linecap: square"/>
     </g>
     <g id="line2d_2">
      <defs>
       <path id="md15a852e10" d="M 0 0 
L 0 3.5 
" style="stroke: #000000; stroke-width: 0.8"/>
      </defs>
      <g>
       <use xlink:href="#md15a852e10" x="98.86187" y="245.93875" style="stroke: #000000; stroke-width: 0.8"/>
      </g>
     </g>
     <g id="text_1">
      <!-- −0.015 -->
      <g transform="translate(80.357964 260.537188) scale(0.1 -0.1)">
       <defs>
        <path id="DejaVuSans-2212" d="M 678 2272 
L 4684 2272 
L 4684 1741 
L 678 1741 
L 678 2272 
z
" transform="scale(0.015625)"/>
        <path id="DejaVuSans-30" d="M 2034 4250 
Q 1547 4250 1301 3770 
Q 1056 3291 1056 2328 
Q 1056 1369 1301 889 
Q 1547 409 2034 409 
Q 2525 409 2770 889 
Q 3016 1369 3016 2328 
Q 3016 3291 2770 3770 
Q 2525 4250 2034 4250 
z
M 2034 4750 
Q 2819 4750 3233 4129 
Q 3647 3509 3647 2328 
Q 3647 1150 3233 529 
Q 2819 -91 2034 -91 
Q 1250 -91 836 529 
Q 422 1150 422 2328 
Q 422 3509 836 4129 
Q 1250 4750 2034 4750 
z
" transform="scale(0.015625)"/>
        <path id="DejaVuSans-2e" d="M 684 794 
L 1344 794 
L 1344 0 
L 684 0 
L 684 794 
z
" transform="scale(0.015625)"/>
        <path id="DejaVuSans-31" d="M 794 531 
L 1825 531 
L 1825 4091 
L 703 3866 
L 703 4441 
L 1819 4666 
L 2450 4666 
L 2450 531 
L 3481 531 
L 3481 0 
L 794 0 
L 794 531 
z
" transform="scale(0.015625)"/>
        <path id="DejaVuSans-35" d="M 691 4666 
L 3169 4666 
L 3169 4134 
L 1269 4134 
L 1269 2991 
Q 1406 3038 1543 3061 
Q 1681 3084 1819 3084 
Q 2600 3084 3056 2656 
Q 3513 2228 3513 1497 
Q 3513 744 3044 326 
Q 2575 -91 1722 -91 
Q 1428 -91 1123 -41 
Q 819 9 494 109 
L 494 744 
Q 775 591 1075 516 
Q 1375 441 1709 441 
Q 2250 441 2565 725 
Q 2881 1009 2881 1497 
Q 2881 1984 2565 2268 
Q 2250 2553 1709 2553 
Q 1456 2553 1204 2497 
Q 953 2441 691 2322 
L 691 4666 
z
" transform="scale(0.015625)"/>
       </defs>
       <use xlink:href="#DejaVuSans-2212"/>
       <use xlink:href="#DejaVuSans-30" transform="translate(83.789062 0)"/>
       <use xlink:href="#DejaVuSans-2e" transform="translate(147.412109 0)"/>
       <use xlink:href="#DejaVuSans-30" transform="translate(179.199219 0)"/>
       <use xlink:href="#DejaVuSans-31" transform="translate(242.822266 0)"/>
       <use xlink:href="#DejaVuSans-35" transform="translate(306.445312 0)"/>
      </g>
     </g>
    </g>
    <g id="xtick_2">
     <g id="line2d_3">
      <path d="M 146.381918 245.93875 
L 146.381918 26.88 
" clip-path="url(#pa2669f70a0)" style="fill: none; stroke: #b0b0b0; stroke-width: 0.8; stroke-linecap: square"/>
     </g>
     <g id="line2d_4">
      <g>
       <use xlink:href="#md15a852e10" x="146.381918" y="245.93875" style="stroke: #000000; stroke-width: 0.8"/>
      </g>
     </g>
     <g id="text_2">
      <!-- −0.010 -->
      <g transform="translate(127.878012 260.537188) scale(0.1 -0.1)">
       <use xlink:href="#DejaVuSans-2212"/>
       <use xlink:href="#DejaVuSans-30" transform="translate(83.789062 0)"/>
       <use xlink:href="#DejaVuSans-2e" transform="translate(147.412109 0)"/>
       <use xlink:href="#DejaVuSans-30" transform="translate(179.199219 0)"/>
       <use xlink:href="#DejaVuSans-31" transform="translate(242.822266 0)"/>
       <use xlink:href="#DejaVuSans-30" transform="translate(306.445312 0)"/>
      </g>
     </g>
    </g>
    <g id="xtick_3">
     <g id="line2d_5">
      <path d="M 193.901967 245.93875 
L 193.901967 26.88 
" clip-path="url(#pa2669f70a0)" style="fill: none; stroke: #b0b0b0; stroke-width: 0.8; stroke-linecap: square"/>
     </g>
     <g id="line2d_6">
      <g>
       <use xlink:href="#md15a852e10" x="193.901967" y="245.93875" style="stroke: #000000; stroke-width: 0.8"/>
      </g>
     </g>
     <g id="text_3">
      <!-- −0.005 -->
      <g transform="translate(175.39806 260.537188) scale(0.1 -0.1)">
       <use xlink:href="#DejaVuSans-2212"/>
       <use xlink:href="#DejaVuSans-30" transform="translate(83.789062 0)"/>
       <use xlink:href="#DejaVuSans-2e" transform="translate(147.412109 0)"/>
       <use xlink:href="#DejaVuSans-30" transform="translate(179.199219 0)"/>
       <use xlink:href="#DejaVuSans-30" transform="translate(242.822266 0)"/>
       <use xlink:href="#DejaVuSans-35" transform="translate(306.445312 0)"/>
      </g>
     </g>
    </g>
    <g id="xtick_4">
     <g id="line2d_7">
      <path d="M 241.422015 245.93875 
L 241.422015 26.88 
" clip-path="url(#pa2669f70a0)" style="fill: none; stroke: #b0b0b0; stroke-width: 0.8; stroke-linecap: square"/>
     </g>
     <g id="line2d_8">
      <g>
       <use xlink:href="#md15a852e10" x="241.422015" y="245.93875" style="stroke: #000000; stroke-width: 0.8"/>
      </g>
     </g>
     <g id="text_4">
      <!-- 0.000 -->
      <g transform="translate(227.107953 260.537188) scale(0.1 -0.1)">
       <use xlink:href="#DejaVuSans-30"/>
       <use xlink:href="#DejaVuSans-2e" transform="translate(63.623047 0)"/>
       <use xlink:href="#DejaVuSans-30" transform="translate(95.410156 0)"/>
       <use xlink:href="#DejaVuSans-30" transform="translate(159.033203 0)"/>
       <use xlink:href="#DejaVuSans-30" transform="translate(222.65625 0)"/>
      </g>
     </g>
    </g>
    <g id="xtick_5">
     <g id="line2d_9">
      <path d="M 288.942064 245.93875 
L 288.942064 26.88 
" clip-path="url(#pa2669f70a0)" style="fill: none; stroke: #b0b0b0; stroke-width: 0.8; stroke-linecap: square"/>
     </g>
     <g id="line2d_10">
      <g>
       <use xlink:href="#md15a852e10" x="288.942064" y="245.93875" style="stroke: #000000; stroke-width: 0.8"/>
      </g>
     </g>
     <g id="text_5">
      <!-- 0.005 -->
      <g transform="translate(274.628001 260.537188) scale(0.1 -0.1)">
       <use xlink:href="#DejaVuSans-30"/>
       <use xlink:href="#DejaVuSans-2e" transform="translate(63.623047 0)"/>
       <use xlink:href="#DejaVuSans-30" transform="translate(95.410156 0)"/>
       <use xlink:href="#DejaVuSans-30" transform="translate(159.033203 0)"/>
       <use xlink:href="#DejaVuSans-35" transform="translate(222.65625 0)"/>
      </g>
     </g>
    </g>
    <g id="xtick_6">
     <g id="line2d_11">
      <path d="M 336.462112 245.93875 
L 336.462112 26.88 
" clip-path="url(#pa2669f70a0)" style="fill: none; stroke: #b0b0b0; stroke-width: 0.8; stroke-linecap: square"/>
     </g>
     <g id="line2d_12">
      <g>
       <use xlink:href="#md15a852e10" x="336.462112" y="245.93875" style="stroke: #000000; stroke-width: 0.8"/>
      </g>
     </g>
     <g id="text_6">
      <!-- 0.010 -->
      <g transform="translate(322.148049 260.537188) scale(0.1 -0.1)">
       <use xlink:href="#DejaVuSans-30"/>
       <use xlink:href="#DejaVuSans-2e" transform="translate(63.623047 0)"/>
       <use xlink:href="#DejaVuSans-30" transform="translate(95.410156 0)"/>
       <use xlink:href="#DejaVuSans-31" transform="translate(159.033203 0)"/>
       <use xlink:href="#DejaVuSans-30" transform="translate(222.65625 0)"/>
      </g>
     </g>
    </g>
    <g id="xtick_7">
     <g id="line2d_13">
      <path d="M 383.98216 245.93875 
L 383.98216 26.88 
" clip-path="url(#pa2669f70a0)" style="fill: none; stroke: #b0b0b0; stroke-width: 0.8; stroke-linecap: square"/>
     </g>
     <g id="line2d_14">
      <g>
       <use xlink:href="#md15a852e10" x="383.98216" y="245.93875" style="stroke: #000000; stroke-width: 0.8"/>
      </g>
     </g>
     <g id="text_7">
      <!-- 0.015 -->
      <g transform="translate(369.668098 260.537188) scale(0.1 -0.1)">
       <use xlink:href="#DejaVuSans-30"/>
       <use xlink:href="#DejaVuSans-2e" transform="translate(63.623047 0)"/>
       <use xlink:href="#DejaVuSans-30" transform="translate(95.410156 0)"/>
       <use xlink:href="#DejaVuSans-31" transform="translate(159.033203 0)"/>
       <use xlink:href="#DejaVuSans-35" transform="translate(222.65625 0)"/>
      </g>
     </g>
    </g>
    <g id="text_8">
     <!-- Lateral_Median -->
     <g transform="translate(204.252969 274.215312) scale(0.1 -0.1)">
      <defs>
       <path id="DejaVuSans-4c" d="M 628 4666 
L 1259 4666 
L 1259 531 
L 3531 531 
L 3531 0 
L 628 0 
L 628 4666 
z
" transform="scale(0.015625)"/>
       <path id="DejaVuSans-61" d="M 2194 1759 
Q 1497 1759 1228 1600 
Q 959 1441 959 1056 
Q 959 750 1161 570 
Q 1363 391 1709 391 
Q 2188 391 2477 730 
Q 2766 1069 2766 1631 
L 2766 1759 
L 2194 1759 
z
M 3341 1997 
L 3341 0 
L 2766 0 
L 2766 531 
Q 2569 213 2275 61 
Q 1981 -91 1556 -91 
Q 1019 -91 701 211 
Q 384 513 384 1019 
Q 384 1609 779 1909 
Q 1175 2209 1959 2209 
L 2766 2209 
L 2766 2266 
Q 2766 2663 2505 2880 
Q 2244 3097 1772 3097 
Q 1472 3097 1187 3025 
Q 903 2953 641 2809 
L 641 3341 
Q 956 3463 1253 3523 
Q 1550 3584 1831 3584 
Q 2591 3584 2966 3190 
Q 3341 2797 3341 1997 
z
" transform="scale(0.015625)"/>
       <path id="DejaVuSans-74" d="M 1172 4494 
L 1172 3500 
L 2356 3500 
L 2356 3053 
L 1172 3053 
L 1172 1153 
Q 1172 725 1289 603 
Q 1406 481 1766 481 
L 2356 481 
L 2356 0 
L 1766 0 
Q 1100 0 847 248 
Q 594 497 594 1153 
L 594 3053 
L 172 3053 
L 172 3500 
L 594 3500 
L 594 4494 
L 1172 4494 
z
" transform="scale(0.015625)"/>
       <path id="DejaVuSans-65" d="M 3597 1894 
L 3597 1613 
L 953 1613 
Q 991 1019 1311 708 
Q 1631 397 2203 397 
Q 2534 397 2845 478 
Q 3156 559 3463 722 
L 3463 178 
Q 3153 47 2828 -22 
Q 2503 -91 2169 -91 
Q 1331 -91 842 396 
Q 353 884 353 1716 
Q 353 2575 817 3079 
Q 1281 3584 2069 3584 
Q 2775 3584 3186 3129 
Q 3597 2675 3597 1894 
z
M 3022 2063 
Q 3016 2534 2758 2815 
Q 2500 3097 2075 3097 
Q 1594 3097 1305 2825 
Q 1016 2553 972 2059 
L 3022 2063 
z
" transform="scale(0.015625)"/>
       <path id="DejaVuSans-72" d="M 2631 2963 
Q 2534 3019 2420 3045 
Q 2306 3072 2169 3072 
Q 1681 3072 1420 2755 
Q 1159 2438 1159 1844 
L 1159 0 
L 581 0 
L 581 3500 
L 1159 3500 
L 1159 2956 
Q 1341 3275 1631 3429 
Q 1922 3584 2338 3584 
Q 2397 3584 2469 3576 
Q 2541 3569 2628 3553 
L 2631 2963 
z
" transform="scale(0.015625)"/>
       <path id="DejaVuSans-6c" d="M 603 4863 
L 1178 4863 
L 1178 0 
L 603 0 
L 603 4863 
z
" transform="scale(0.015625)"/>
       <path id="DejaVuSans-5f" d="M 3263 -1063 
L 3263 -1509 
L -63 -1509 
L -63 -1063 
L 3263 -1063 
z
" transform="scale(0.015625)"/>
       <path id="DejaVuSans-4d" d="M 628 4666 
L 1569 4666 
L 2759 1491 
L 3956 4666 
L 4897 4666 
L 4897 0 
L 4281 0 
L 4281 4097 
L 3078 897 
L 2444 897 
L 1241 4097 
L 1241 0 
L 628 0 
L 628 4666 
z
" transform="scale(0.015625)"/>
       <path id="DejaVuSans-64" d="M 2906 2969 
L 2906 4863 
L 3481 4863 
L 3481 0 
L 2906 0 
L 2906 525 
Q 2725 213 2448 61 
Q 2172 -91 1784 -91 
Q 1150 -91 751 415 
Q 353 922 353 1747 
Q 353 2572 751 3078 
Q 1150 3584 1784 3584 
Q 2172 3584 2448 3432 
Q 2725 3281 2906 2969 
z
M 947 1747 
Q 947 1113 1208 752 
Q 1469 391 1925 391 
Q 2381 391 2643 752 
Q 2906 1113 2906 1747 
Q 2906 2381 2643 2742 
Q 2381 3103 1925 3103 
Q 1469 3103 1208 2742 
Q 947 2381 947 1747 
z
" transform="scale(0.015625)"/>
       <path id="DejaVuSans-69" d="M 603 3500 
L 1178 3500 
L 1178 0 
L 603 0 
L 603 3500 
z
M 603 4863 
L 1178 4863 
L 1178 4134 
L 603 4134 
L 603 4863 
z
" transform="scale(0.015625)"/>
       <path id="DejaVuSans-6e" d="M 3513 2113 
L 3513 0 
L 2938 0 
L 2938 2094 
Q 2938 2591 2744 2837 
Q 2550 3084 2163 3084 
Q 1697 3084 1428 2787 
Q 1159 2491 1159 1978 
L 1159 0 
L 581 0 
L 581 3500 
L 1159 3500 
L 1159 2956 
Q 1366 3272 1645 3428 
Q 1925 3584 2291 3584 
Q 2894 3584 3203 3211 
Q 3513 2838 3513 2113 
z
" transform="scale(0.015625)"/>
      </defs>
      <use xlink:href="#DejaVuSans-4c"/>
      <use xlink:href="#DejaVuSans-61" transform="translate(55.712891 0)"/>
      <use xlink:href="#DejaVuSans-74" transform="translate(116.992188 0)"/>
      <use xlink:href="#DejaVuSans-65" transform="translate(156.201172 0)"/>
      <use xlink:href="#DejaVuSans-72" transform="translate(217.724609 0)"/>
      <use xlink:href="#DejaVuSans-61" transform="translate(258.837891 0)"/>
      <use xlink:href="#DejaVuSans-6c" transform="translate(320.117188 0)"/>
      <use xlink:href="#DejaVuSans-5f" transform="translate(347.900391 0)"/>
      <use xlink:href="#DejaVuSans-4d" transform="translate(397.900391 0)"/>
      <use xlink:href="#DejaVuSans-65" transform="translate(484.179688 0)"/>
      <use xlink:href="#DejaVuSans-64" transform="translate(545.703125 0)"/>
      <use xlink:href="#DejaVuSans-69" transform="translate(609.179688 0)"/>
      <use xlink:href="#DejaVuSans-61" transform="translate(636.962891 0)"/>
      <use xlink:href="#DejaVuSans-6e" transform="translate(698.242188 0)"/>
     </g>
    </g>
   </g>
   <g id="matplotlib.axis_2">
    <g id="ytick_1">
     <g id="line2d_15">
      <path d="M 63.47 245.93875 
L 421.2 245.93875 
" clip-path="url(#pa2669f70a0)" style="fill: none; stroke: #b0b0b0; stroke-width: 0.8; stroke-linecap: square"/>
     </g>
     <g id="line2d_16">
      <defs>
       <path id="m6642de78fe" d="M 0 0 
L -3.5 0 
" style="stroke: #000000; stroke-width: 0.8"/>
      </defs>
      <g>
       <use xlink:href="#m6642de78fe" x="63.47" y="245.93875" style="stroke: #000000; stroke-width: 0.8"/>
      </g>
     </g>
     <g id="text_9">
      <!-- 0 -->
      <g transform="translate(50.1075 249.737969) scale(0.1 -0.1)">
       <use xlink:href="#DejaVuSans-30"/>
      </g>
     </g>
    </g>
    <g id="ytick_2">
     <g id="line2d_17">
      <path d="M 63.47 217.214857 
L 421.2 217.214857 
" clip-path="url(#pa2669f70a0)" style="fill: none; stroke: #b0b0b0; stroke-width: 0.8; stroke-linecap: square"/>
     </g>
     <g id="line2d_18">
      <g>
       <use xlink:href="#m6642de78fe" x="63.47" y="217.214857" style="stroke: #000000; stroke-width: 0.8"/>
      </g>
     </g>
     <g id="text_10">
      <!-- 2500 -->
      <g transform="translate(31.02 221.014076) scale(0.1 -0.1)">
       <defs>
        <path id="DejaVuSans-32" d="M 1228 531 
L 3431 531 
L 3431 0 
L 469 0 
L 469 531 
Q 828 903 1448 1529 
Q 2069 2156 2228 2338 
Q 2531 2678 2651 2914 
Q 2772 3150 2772 3378 
Q 2772 3750 2511 3984 
Q 2250 4219 1831 4219 
Q 1534 4219 1204 4116 
Q 875 4013 500 3803 
L 500 4441 
Q 881 4594 1212 4672 
Q 1544 4750 1819 4750 
Q 2544 4750 2975 4387 
Q 3406 4025 3406 3419 
Q 3406 3131 3298 2873 
Q 3191 2616 2906 2266 
Q 2828 2175 2409 1742 
Q 1991 1309 1228 531 
z
" transform="scale(0.015625)"/>
       </defs>
       <use xlink:href="#DejaVuSans-32"/>
       <use xlink:href="#DejaVuSans-35" transform="translate(63.623047 0)"/>
       <use xlink:href="#DejaVuSans-30" transform="translate(127.246094 0)"/>
       <use xlink:href="#DejaVuSans-30" transform="translate(190.869141 0)"/>
      </g>
     </g>
    </g>
    <g id="ytick_3">
     <g id="line2d_19">
      <path d="M 63.47 188.490964 
L 421.2 188.490964 
" clip-path="url(#pa2669f70a0)" style="fill: none; stroke: #b0b0b0; stroke-width: 0.8; stroke-linecap: square"/>
     </g>
     <g id="line2d_20">
      <g>
       <use xlink:href="#m6642de78fe" x="63.47" y="188.490964" style="stroke: #000000; stroke-width: 0.8"/>
      </g>
     </g>
     <g id="text_11">
      <!-- 5000 -->
      <g transform="translate(31.02 192.290182) scale(0.1 -0.1)">
       <use xlink:href="#DejaVuSans-35"/>
       <use xlink:href="#DejaVuSans-30" transform="translate(63.623047 0)"/>
       <use xlink:href="#DejaVuSans-30" transform="translate(127.246094 0)"/>
       <use xlink:href="#DejaVuSans-30" transform="translate(190.869141 0)"/>
      </g>
     </g>
    </g>
    <g id="ytick_4">
     <g id="line2d_21">
      <path d="M 63.47 159.76707 
L 421.2 159.76707 
" clip-path="url(#pa2669f70a0)" style="fill: none; stroke: #b0b0b0; stroke-width: 0.8; stroke-linecap: square"/>
     </g>
     <g id="line2d_22">
      <g>
       <use xlink:href="#m6642de78fe" x="63.47" y="159.76707" style="stroke: #000000; stroke-width: 0.8"/>
      </g>
     </g>
     <g id="text_12">
      <!-- 7500 -->
      <g transform="translate(31.02 163.566289) scale(0.1 -0.1)">
       <defs>
        <path id="DejaVuSans-37" d="M 525 4666 
L 3525 4666 
L 3525 4397 
L 1831 0 
L 1172 0 
L 2766 4134 
L 525 4134 
L 525 4666 
z
" transform="scale(0.015625)"/>
       </defs>
       <use xlink:href="#DejaVuSans-37"/>
       <use xlink:href="#DejaVuSans-35" transform="translate(63.623047 0)"/>
       <use xlink:href="#DejaVuSans-30" transform="translate(127.246094 0)"/>
       <use xlink:href="#DejaVuSans-30" transform="translate(190.869141 0)"/>
      </g>
     </g>
    </g>
    <g id="ytick_5">
     <g id="line2d_23">
      <path d="M 63.47 131.043177 
L 421.2 131.043177 
" clip-path="url(#pa2669f70a0)" style="fill: none; stroke: #b0b0b0; stroke-width: 0.8; stroke-linecap: square"/>
     </g>
     <g id="line2d_24">
      <g>
       <use xlink:href="#m6642de78fe" x="63.47" y="131.043177" style="stroke: #000000; stroke-width: 0.8"/>
      </g>
     </g>
     <g id="text_13">
      <!-- 10000 -->
      <g transform="translate(24.6575 134.842396) scale(0.1 -0.1)">
       <use xlink:href="#DejaVuSans-31"/>
       <use xlink:href="#DejaVuSans-30" transform="translate(63.623047 0)"/>
       <use xlink:href="#DejaVuSans-30" transform="translate(127.246094 0)"/>
       <use xlink:href="#DejaVuSans-30" transform="translate(190.869141 0)"/>
       <use xlink:href="#DejaVuSans-30" transform="translate(254.492188 0)"/>
      </g>
     </g>
    </g>
    <g id="ytick_6">
     <g id="line2d_25">
      <path d="M 63.47 102.319284 
L 421.2 102.319284 
" clip-path="url(#pa2669f70a0)" style="fill: none; stroke: #b0b0b0; stroke-width: 0.8; stroke-linecap: square"/>
     </g>
     <g id="line2d_26">
      <g>
       <use xlink:href="#m6642de78fe" x="63.47" y="102.319284" style="stroke: #000000; stroke-width: 0.8"/>
      </g>
     </g>
     <g id="text_14">
      <!-- 12500 -->
      <g transform="translate(24.6575 106.118503) scale(0.1 -0.1)">
       <use xlink:href="#DejaVuSans-31"/>
       <use xlink:href="#DejaVuSans-32" transform="translate(63.623047 0)"/>
       <use xlink:href="#DejaVuSans-35" transform="translate(127.246094 0)"/>
       <use xlink:href="#DejaVuSans-30" transform="translate(190.869141 0)"/>
       <use xlink:href="#DejaVuSans-30" transform="translate(254.492188 0)"/>
      </g>
     </g>
    </g>
    <g id="ytick_7">
     <g id="line2d_27">
      <path d="M 63.47 73.595391 
L 421.2 73.595391 
" clip-path="url(#pa2669f70a0)" style="fill: none; stroke: #b0b0b0; stroke-width: 0.8; stroke-linecap: square"/>
     </g>
     <g id="line2d_28">
      <g>
       <use xlink:href="#m6642de78fe" x="63.47" y="73.595391" style="stroke: #000000; stroke-width: 0.8"/>
      </g>
     </g>
     <g id="text_15">
      <!-- 15000 -->
      <g transform="translate(24.6575 77.39461) scale(0.1 -0.1)">
       <use xlink:href="#DejaVuSans-31"/>
       <use xlink:href="#DejaVuSans-35" transform="translate(63.623047 0)"/>
       <use xlink:href="#DejaVuSans-30" transform="translate(127.246094 0)"/>
       <use xlink:href="#DejaVuSans-30" transform="translate(190.869141 0)"/>
       <use xlink:href="#DejaVuSans-30" transform="translate(254.492188 0)"/>
      </g>
     </g>
    </g>
    <g id="ytick_8">
     <g id="line2d_29">
      <path d="M 63.47 44.871498 
L 421.2 44.871498 
" clip-path="url(#pa2669f70a0)" style="fill: none; stroke: #b0b0b0; stroke-width: 0.8; stroke-linecap: square"/>
     </g>
     <g id="line2d_30">
      <g>
       <use xlink:href="#m6642de78fe" x="63.47" y="44.871498" style="stroke: #000000; stroke-width: 0.8"/>
      </g>
     </g>
     <g id="text_16">
      <!-- 17500 -->
      <g transform="translate(24.6575 48.670716) scale(0.1 -0.1)">
       <use xlink:href="#DejaVuSans-31"/>
       <use xlink:href="#DejaVuSans-37" transform="translate(63.623047 0)"/>
       <use xlink:href="#DejaVuSans-35" transform="translate(127.246094 0)"/>
       <use xlink:href="#DejaVuSans-30" transform="translate(190.869141 0)"/>
       <use xlink:href="#DejaVuSans-30" transform="translate(254.492188 0)"/>
      </g>
     </g>
    </g>
    <g id="text_17">
     <!-- Count -->
     <g transform="translate(18.577812 151.257812) rotate(-90) scale(0.1 -0.1)">
      <defs>
       <path id="DejaVuSans-43" d="M 4122 4306 
L 4122 3641 
Q 3803 3938 3442 4084 
Q 3081 4231 2675 4231 
Q 1875 4231 1450 3742 
Q 1025 3253 1025 2328 
Q 1025 1406 1450 917 
Q 1875 428 2675 428 
Q 3081 428 3442 575 
Q 3803 722 4122 1019 
L 4122 359 
Q 3791 134 3420 21 
Q 3050 -91 2638 -91 
Q 1578 -91 968 557 
Q 359 1206 359 2328 
Q 359 3453 968 4101 
Q 1578 4750 2638 4750 
Q 3056 4750 3426 4639 
Q 3797 4528 4122 4306 
z
" transform="scale(0.015625)"/>
       <path id="DejaVuSans-6f" d="M 1959 3097 
Q 1497 3097 1228 2736 
Q 959 2375 959 1747 
Q 959 1119 1226 758 
Q 1494 397 1959 397 
Q 2419 397 2687 759 
Q 2956 1122 2956 1747 
Q 2956 2369 2687 2733 
Q 2419 3097 1959 3097 
z
M 1959 3584 
Q 2709 3584 3137 3096 
Q 3566 2609 3566 1747 
Q 3566 888 3137 398 
Q 2709 -91 1959 -91 
Q 1206 -91 779 398 
Q 353 888 353 1747 
Q 353 2609 779 3096 
Q 1206 3584 1959 3584 
z
" transform="scale(0.015625)"/>
       <path id="DejaVuSans-75" d="M 544 1381 
L 544 3500 
L 1119 3500 
L 1119 1403 
Q 1119 906 1312 657 
Q 1506 409 1894 409 
Q 2359 409 2629 706 
Q 2900 1003 2900 1516 
L 2900 3500 
L 3475 3500 
L 3475 0 
L 2900 0 
L 2900 538 
Q 2691 219 2414 64 
Q 2138 -91 1772 -91 
Q 1169 -91 856 284 
Q 544 659 544 1381 
z
M 1991 3584 
L 1991 3584 
z
" transform="scale(0.015625)"/>
      </defs>
      <use xlink:href="#DejaVuSans-43"/>
      <use xlink:href="#DejaVuSans-6f" transform="translate(69.824219 0)"/>
      <use xlink:href="#DejaVuSans-75" transform="translate(131.005859 0)"/>
      <use xlink:href="#DejaVuSans-6e" transform="translate(194.384766 0)"/>
      <use xlink:href="#DejaVuSans-74" transform="translate(257.763672 0)"/>
     </g>
    </g>
   </g>
   <g id="patch_53">
    <path d="M 63.47 245.93875 
L 63.47 26.88 
" style="fill: none; stroke: #000000; stroke-width: 0.8; stroke-linejoin: miter; stroke-linecap: square"/>
   </g>
   <g id="patch_54">
    <path d="M 421.2 245.93875 
L 421.2 26.88 
" style="fill: none; stroke: #000000; stroke-width: 0.8; stroke-linejoin: miter; stroke-linecap: square"/>
   </g>
   <g id="patch_55">
    <path d="M 63.47 245.93875 
L 421.2 245.93875 
" style="fill: none; stroke: #000000; stroke-width: 0.8; stroke-linejoin: miter; stroke-linecap: square"/>
   </g>
   <g id="patch_56">
    <path d="M 63.47 26.88 
L 421.2 26.88 
" style="fill: none; stroke: #000000; stroke-width: 0.8; stroke-linejoin: miter; stroke-linecap: square"/>
   </g>
   <g id="text_18">
    <!-- Lateral_Median -->
    <g transform="translate(196.636562 20.88) scale(0.12 -0.12)">
     <use xlink:href="#DejaVuSans-4c"/>
     <use xlink:href="#DejaVuSans-61" transform="translate(55.712891 0)"/>
     <use xlink:href="#DejaVuSans-74" transform="translate(116.992188 0)"/>
     <use xlink:href="#DejaVuSans-65" transform="translate(156.201172 0)"/>
     <use xlink:href="#DejaVuSans-72" transform="translate(217.724609 0)"/>
     <use xlink:href="#DejaVuSans-61" transform="translate(258.837891 0)"/>
     <use xlink:href="#DejaVuSans-6c" transform="translate(320.117188 0)"/>
     <use xlink:href="#DejaVuSans-5f" transform="translate(347.900391 0)"/>
     <use xlink:href="#DejaVuSans-4d" transform="translate(397.900391 0)"/>
     <use xlink:href="#DejaVuSans-65" transform="translate(484.179688 0)"/>
     <use xlink:href="#DejaVuSans-64" transform="translate(545.703125 0)"/>
     <use xlink:href="#DejaVuSans-69" transform="translate(609.179688 0)"/>
     <use xlink:href="#DejaVuSans-61" transform="translate(636.962891 0)"/>
     <use xlink:href="#DejaVuSans-6e" transform="translate(698.242188 0)"/>
    </g>
   </g>
  </g>
 </g>
 <defs>
  <clipPath id="pa2669f70a0">
   <rect x="63.47" y="26.88" width="357.73" height="219.05875"/>
  </clipPath>
 </defs>
</svg>
