<?xml version="1.0" encoding="utf-8" standalone="no"?>
<!DOCTYPE svg PUBLIC "-//W3C//DTD SVG 1.1//EN"
  "http://www.w3.org/Graphics/SVG/1.1/DTD/svg11.dtd">
<svg xmlns:xlink="http://www.w3.org/1999/xlink" width="432pt" height="288pt" viewBox="0 0 432 288" xmlns="http://www.w3.org/2000/svg" version="1.1">
 <metadata>
  <rdf:RDF xmlns:dc="http://purl.org/dc/elements/1.1/" xmlns:cc="http://creativecommons.org/ns#" xmlns:rdf="http://www.w3.org/1999/02/22-rdf-syntax-ns#">
   <cc:Work>
    <dc:type rdf:resource="http://purl.org/dc/dcmitype/StillImage"/>
    <dc:date>2025-06-15T13:54:43.667346</dc:date>
    <dc:format>image/svg+xml</dc:format>
    <dc:creator>
     <cc:Agent>
      <dc:title>Matplotlib v3.10.0, https://matplotlib.org/</dc:title>
     </cc:Agent>
    </dc:creator>
   </cc:Work>
  </rdf:RDF>
 </metadata>
 <defs>
  <style type="text/css">*{stroke-linejoin: round; stroke-linecap: butt}</style>
 </defs>
 <g id="figure_1">
  <g id="patch_1">
   <path d="M 0 288 
L 432 288 
L 432 0 
L 0 0 
z
" style="fill: #ffffff"/>
  </g>
  <g id="axes_1">
   <g id="patch_2">
    <path d="M 57.17 245.93875 
L 421.2 245.93875 
L 421.2 26.88 
L 57.17 26.88 
z
" style="fill: #ffffff"/>
   </g>
   <g id="patch_3">
    <path d="M 73.716818 245.93875 
L 80.335545 245.93875 
L 80.335545 37.311369 
L 73.716818 37.311369 
z
" clip-path="url(#p2b8fd1e8c8)" style="fill: #1f77b4"/>
   </g>
   <g id="patch_4">
    <path d="M 80.335545 245.93875 
L 86.954273 245.93875 
L 86.954273 199.764744 
L 80.335545 199.764744 
z
" clip-path="url(#p2b8fd1e8c8)" style="fill: #1f77b4"/>
   </g>
   <g id="patch_5">
    <path d="M 86.954273 245.93875 
L 93.573 245.93875 
L 93.573 225.963788 
L 86.954273 225.963788 
z
" clip-path="url(#p2b8fd1e8c8)" style="fill: #1f77b4"/>
   </g>
   <g id="patch_6">
    <path d="M 93.573 245.93875 
L 100.191727 245.93875 
L 100.191727 236.047766 
L 93.573 236.047766 
z
" clip-path="url(#p2b8fd1e8c8)" style="fill: #1f77b4"/>
   </g>
   <g id="patch_7">
    <path d="M 100.191727 245.93875 
L 106.810455 245.93875 
L 106.810455 240.583144 
L 100.191727 240.583144 
z
" clip-path="url(#p2b8fd1e8c8)" style="fill: #1f77b4"/>
   </g>
   <g id="patch_8">
    <path d="M 106.810455 245.93875 
L 113.429182 245.93875 
L 113.429182 242.657838 
L 106.810455 242.657838 
z
" clip-path="url(#p2b8fd1e8c8)" style="fill: #1f77b4"/>
   </g>
   <g id="patch_9">
    <path d="M 113.429182 245.93875 
L 120.047909 245.93875 
L 120.047909 243.671061 
L 113.429182 243.671061 
z
" clip-path="url(#p2b8fd1e8c8)" style="fill: #1f77b4"/>
   </g>
   <g id="patch_10">
    <path d="M 120.047909 245.93875 
L 126.666636 245.93875 
L 126.666636 244.105299 
L 120.047909 244.105299 
z
" clip-path="url(#p2b8fd1e8c8)" style="fill: #1f77b4"/>
   </g>
   <g id="patch_11">
    <path d="M 126.666636 245.93875 
L 133.285364 245.93875 
L 133.285364 244.780781 
L 126.666636 244.780781 
z
" clip-path="url(#p2b8fd1e8c8)" style="fill: #1f77b4"/>
   </g>
   <g id="patch_12">
    <path d="M 133.285364 245.93875 
L 139.904091 245.93875 
L 139.904091 244.877279 
L 133.285364 244.877279 
z
" clip-path="url(#p2b8fd1e8c8)" style="fill: #1f77b4"/>
   </g>
   <g id="patch_13">
    <path d="M 139.904091 245.93875 
L 146.522818 245.93875 
L 146.522818 245.070273 
L 139.904091 245.070273 
z
" clip-path="url(#p2b8fd1e8c8)" style="fill: #1f77b4"/>
   </g>
   <g id="patch_14">
    <path d="M 146.522818 245.93875 
L 153.141545 245.93875 
L 153.141545 245.456263 
L 146.522818 245.456263 
z
" clip-path="url(#p2b8fd1e8c8)" style="fill: #1f77b4"/>
   </g>
   <g id="patch_15">
    <path d="M 153.141545 245.93875 
L 159.760273 245.93875 
L 159.760273 245.456263 
L 153.141545 245.456263 
z
" clip-path="url(#p2b8fd1e8c8)" style="fill: #1f77b4"/>
   </g>
   <g id="patch_16">
    <path d="M 159.760273 245.93875 
L 166.379 245.93875 
L 166.379 245.601009 
L 159.760273 245.601009 
z
" clip-path="url(#p2b8fd1e8c8)" style="fill: #1f77b4"/>
   </g>
   <g id="patch_17">
    <path d="M 166.379 245.93875 
L 172.997727 245.93875 
L 172.997727 245.649258 
L 166.379 245.649258 
z
" clip-path="url(#p2b8fd1e8c8)" style="fill: #1f77b4"/>
   </g>
   <g id="patch_18">
    <path d="M 172.997727 245.93875 
L 179.616455 245.93875 
L 179.616455 245.890501 
L 172.997727 245.890501 
z
" clip-path="url(#p2b8fd1e8c8)" style="fill: #1f77b4"/>
   </g>
   <g id="patch_19">
    <path d="M 179.616455 245.93875 
L 186.235182 245.93875 
L 186.235182 245.890501 
L 179.616455 245.890501 
z
" clip-path="url(#p2b8fd1e8c8)" style="fill: #1f77b4"/>
   </g>
   <g id="patch_20">
    <path d="M 186.235182 245.93875 
L 192.853909 245.93875 
L 192.853909 245.697506 
L 186.235182 245.697506 
z
" clip-path="url(#p2b8fd1e8c8)" style="fill: #1f77b4"/>
   </g>
   <g id="patch_21">
    <path d="M 192.853909 245.93875 
L 199.472636 245.93875 
L 199.472636 245.794004 
L 192.853909 245.794004 
z
" clip-path="url(#p2b8fd1e8c8)" style="fill: #1f77b4"/>
   </g>
   <g id="patch_22">
    <path d="M 199.472636 245.93875 
L 206.091364 245.93875 
L 206.091364 245.93875 
L 199.472636 245.93875 
z
" clip-path="url(#p2b8fd1e8c8)" style="fill: #1f77b4"/>
   </g>
   <g id="patch_23">
    <path d="M 206.091364 245.93875 
L 212.710091 245.93875 
L 212.710091 245.93875 
L 206.091364 245.93875 
z
" clip-path="url(#p2b8fd1e8c8)" style="fill: #1f77b4"/>
   </g>
   <g id="patch_24">
    <path d="M 212.710091 245.93875 
L 219.328818 245.93875 
L 219.328818 245.697506 
L 212.710091 245.697506 
z
" clip-path="url(#p2b8fd1e8c8)" style="fill: #1f77b4"/>
   </g>
   <g id="patch_25">
    <path d="M 219.328818 245.93875 
L 225.947545 245.93875 
L 225.947545 245.842253 
L 219.328818 245.842253 
z
" clip-path="url(#p2b8fd1e8c8)" style="fill: #1f77b4"/>
   </g>
   <g id="patch_26">
    <path d="M 225.947545 245.93875 
L 232.566273 245.93875 
L 232.566273 245.842253 
L 225.947545 245.842253 
z
" clip-path="url(#p2b8fd1e8c8)" style="fill: #1f77b4"/>
   </g>
   <g id="patch_27">
    <path d="M 232.566273 245.93875 
L 239.185 245.93875 
L 239.185 245.842253 
L 232.566273 245.842253 
z
" clip-path="url(#p2b8fd1e8c8)" style="fill: #1f77b4"/>
   </g>
   <g id="patch_28">
    <path d="M 239.185 245.93875 
L 245.803727 245.93875 
L 245.803727 245.842253 
L 239.185 245.842253 
z
" clip-path="url(#p2b8fd1e8c8)" style="fill: #1f77b4"/>
   </g>
   <g id="patch_29">
    <path d="M 245.803727 245.93875 
L 252.422455 245.93875 
L 252.422455 245.93875 
L 245.803727 245.93875 
z
" clip-path="url(#p2b8fd1e8c8)" style="fill: #1f77b4"/>
   </g>
   <g id="patch_30">
    <path d="M 252.422455 245.93875 
L 259.041182 245.93875 
L 259.041182 245.842253 
L 252.422455 245.842253 
z
" clip-path="url(#p2b8fd1e8c8)" style="fill: #1f77b4"/>
   </g>
   <g id="patch_31">
    <path d="M 259.041182 245.93875 
L 265.659909 245.93875 
L 265.659909 245.890501 
L 259.041182 245.890501 
z
" clip-path="url(#p2b8fd1e8c8)" style="fill: #1f77b4"/>
   </g>
   <g id="patch_32">
    <path d="M 265.659909 245.93875 
L 272.278636 245.93875 
L 272.278636 245.93875 
L 265.659909 245.93875 
z
" clip-path="url(#p2b8fd1e8c8)" style="fill: #1f77b4"/>
   </g>
   <g id="patch_33">
    <path d="M 272.278636 245.93875 
L 278.897364 245.93875 
L 278.897364 245.93875 
L 272.278636 245.93875 
z
" clip-path="url(#p2b8fd1e8c8)" style="fill: #1f77b4"/>
   </g>
   <g id="patch_34">
    <path d="M 278.897364 245.93875 
L 285.516091 245.93875 
L 285.516091 245.890501 
L 278.897364 245.890501 
z
" clip-path="url(#p2b8fd1e8c8)" style="fill: #1f77b4"/>
   </g>
   <g id="patch_35">
    <path d="M 285.516091 245.93875 
L 292.134818 245.93875 
L 292.134818 245.890501 
L 285.516091 245.890501 
z
" clip-path="url(#p2b8fd1e8c8)" style="fill: #1f77b4"/>
   </g>
   <g id="patch_36">
    <path d="M 292.134818 245.93875 
L 298.753545 245.93875 
L 298.753545 245.890501 
L 292.134818 245.890501 
z
" clip-path="url(#p2b8fd1e8c8)" style="fill: #1f77b4"/>
   </g>
   <g id="patch_37">
    <path d="M 298.753545 245.93875 
L 305.372273 245.93875 
L 305.372273 245.890501 
L 298.753545 245.890501 
z
" clip-path="url(#p2b8fd1e8c8)" style="fill: #1f77b4"/>
   </g>
   <g id="patch_38">
    <path d="M 305.372273 245.93875 
L 311.991 245.93875 
L 311.991 245.93875 
L 305.372273 245.93875 
z
" clip-path="url(#p2b8fd1e8c8)" style="fill: #1f77b4"/>
   </g>
   <g id="patch_39">
    <path d="M 311.991 245.93875 
L 318.609727 245.93875 
L 318.609727 245.890501 
L 311.991 245.890501 
z
" clip-path="url(#p2b8fd1e8c8)" style="fill: #1f77b4"/>
   </g>
   <g id="patch_40">
    <path d="M 318.609727 245.93875 
L 325.228455 245.93875 
L 325.228455 245.890501 
L 318.609727 245.890501 
z
" clip-path="url(#p2b8fd1e8c8)" style="fill: #1f77b4"/>
   </g>
   <g id="patch_41">
    <path d="M 325.228455 245.93875 
L 331.847182 245.93875 
L 331.847182 245.93875 
L 325.228455 245.93875 
z
" clip-path="url(#p2b8fd1e8c8)" style="fill: #1f77b4"/>
   </g>
   <g id="patch_42">
    <path d="M 331.847182 245.93875 
L 338.465909 245.93875 
L 338.465909 245.93875 
L 331.847182 245.93875 
z
" clip-path="url(#p2b8fd1e8c8)" style="fill: #1f77b4"/>
   </g>
   <g id="patch_43">
    <path d="M 338.465909 245.93875 
L 345.084636 245.93875 
L 345.084636 245.93875 
L 338.465909 245.93875 
z
" clip-path="url(#p2b8fd1e8c8)" style="fill: #1f77b4"/>
   </g>
   <g id="patch_44">
    <path d="M 345.084636 245.93875 
L 351.703364 245.93875 
L 351.703364 245.93875 
L 345.084636 245.93875 
z
" clip-path="url(#p2b8fd1e8c8)" style="fill: #1f77b4"/>
   </g>
   <g id="patch_45">
    <path d="M 351.703364 245.93875 
L 358.322091 245.93875 
L 358.322091 245.890501 
L 351.703364 245.890501 
z
" clip-path="url(#p2b8fd1e8c8)" style="fill: #1f77b4"/>
   </g>
   <g id="patch_46">
    <path d="M 358.322091 245.93875 
L 364.940818 245.93875 
L 364.940818 245.93875 
L 358.322091 245.93875 
z
" clip-path="url(#p2b8fd1e8c8)" style="fill: #1f77b4"/>
   </g>
   <g id="patch_47">
    <path d="M 364.940818 245.93875 
L 371.559545 245.93875 
L 371.559545 245.93875 
L 364.940818 245.93875 
z
" clip-path="url(#p2b8fd1e8c8)" style="fill: #1f77b4"/>
   </g>
   <g id="patch_48">
    <path d="M 371.559545 245.93875 
L 378.178273 245.93875 
L 378.178273 245.890501 
L 371.559545 245.890501 
z
" clip-path="url(#p2b8fd1e8c8)" style="fill: #1f77b4"/>
   </g>
   <g id="patch_49">
    <path d="M 378.178273 245.93875 
L 384.797 245.93875 
L 384.797 245.93875 
L 378.178273 245.93875 
z
" clip-path="url(#p2b8fd1e8c8)" style="fill: #1f77b4"/>
   </g>
   <g id="patch_50">
    <path d="M 384.797 245.93875 
L 391.415727 245.93875 
L 391.415727 245.93875 
L 384.797 245.93875 
z
" clip-path="url(#p2b8fd1e8c8)" style="fill: #1f77b4"/>
   </g>
   <g id="patch_51">
    <path d="M 391.415727 245.93875 
L 398.034455 245.93875 
L 398.034455 245.890501 
L 391.415727 245.890501 
z
" clip-path="url(#p2b8fd1e8c8)" style="fill: #1f77b4"/>
   </g>
   <g id="patch_52">
    <path d="M 398.034455 245.93875 
L 404.653182 245.93875 
L 404.653182 245.890501 
L 398.034455 245.890501 
z
" clip-path="url(#p2b8fd1e8c8)" style="fill: #1f77b4"/>
   </g>
   <g id="matplotlib.axis_1">
    <g id="xtick_1">
     <g id="line2d_1">
      <path d="M 73.716818 245.93875 
L 73.716818 26.88 
" clip-path="url(#p2b8fd1e8c8)" style="fill: none; stroke: #b0b0b0; stroke-width: 0.8; stroke-linecap: square"/>
     </g>
     <g id="line2d_2">
      <defs>
       <path id="m8ad68ccb47" d="M 0 0 
L 0 3.5 
" style="stroke: #000000; stroke-width: 0.8"/>
      </defs>
      <g>
       <use xlink:href="#m8ad68ccb47" x="73.716818" y="245.93875" style="stroke: #000000; stroke-width: 0.8"/>
      </g>
     </g>
     <g id="text_1">
      <!-- 0 -->
      <g transform="translate(70.535568 260.537188) scale(0.1 -0.1)">
       <defs>
        <path id="DejaVuSans-30" d="M 2034 4250 
Q 1547 4250 1301 3770 
Q 1056 3291 1056 2328 
Q 1056 1369 1301 889 
Q 1547 409 2034 409 
Q 2525 409 2770 889 
Q 3016 1369 3016 2328 
Q 3016 3291 2770 3770 
Q 2525 4250 2034 4250 
z
M 2034 4750 
Q 2819 4750 3233 4129 
Q 3647 3509 3647 2328 
Q 3647 1150 3233 529 
Q 2819 -91 2034 -91 
Q 1250 -91 836 529 
Q 422 1150 422 2328 
Q 422 3509 836 4129 
Q 1250 4750 2034 4750 
z
" transform="scale(0.015625)"/>
       </defs>
       <use xlink:href="#DejaVuSans-30"/>
      </g>
     </g>
    </g>
    <g id="xtick_2">
     <g id="line2d_3">
      <path d="M 144.841301 245.93875 
L 144.841301 26.88 
" clip-path="url(#p2b8fd1e8c8)" style="fill: none; stroke: #b0b0b0; stroke-width: 0.8; stroke-linecap: square"/>
     </g>
     <g id="line2d_4">
      <g>
       <use xlink:href="#m8ad68ccb47" x="144.841301" y="245.93875" style="stroke: #000000; stroke-width: 0.8"/>
      </g>
     </g>
     <g id="text_2">
      <!-- 1 -->
      <g transform="translate(141.660051 260.537188) scale(0.1 -0.1)">
       <defs>
        <path id="DejaVuSans-31" d="M 794 531 
L 1825 531 
L 1825 4091 
L 703 3866 
L 703 4441 
L 1819 4666 
L 2450 4666 
L 2450 531 
L 3481 531 
L 3481 0 
L 794 0 
L 794 531 
z
" transform="scale(0.015625)"/>
       </defs>
       <use xlink:href="#DejaVuSans-31"/>
      </g>
     </g>
    </g>
    <g id="xtick_3">
     <g id="line2d_5">
      <path d="M 215.965784 245.93875 
L 215.965784 26.88 
" clip-path="url(#p2b8fd1e8c8)" style="fill: none; stroke: #b0b0b0; stroke-width: 0.8; stroke-linecap: square"/>
     </g>
     <g id="line2d_6">
      <g>
       <use xlink:href="#m8ad68ccb47" x="215.965784" y="245.93875" style="stroke: #000000; stroke-width: 0.8"/>
      </g>
     </g>
     <g id="text_3">
      <!-- 2 -->
      <g transform="translate(212.784534 260.537188) scale(0.1 -0.1)">
       <defs>
        <path id="DejaVuSans-32" d="M 1228 531 
L 3431 531 
L 3431 0 
L 469 0 
L 469 531 
Q 828 903 1448 1529 
Q 2069 2156 2228 2338 
Q 2531 2678 2651 2914 
Q 2772 3150 2772 3378 
Q 2772 3750 2511 3984 
Q 2250 4219 1831 4219 
Q 1534 4219 1204 4116 
Q 875 4013 500 3803 
L 500 4441 
Q 881 4594 1212 4672 
Q 1544 4750 1819 4750 
Q 2544 4750 2975 4387 
Q 3406 4025 3406 3419 
Q 3406 3131 3298 2873 
Q 3191 2616 2906 2266 
Q 2828 2175 2409 1742 
Q 1991 1309 1228 531 
z
" transform="scale(0.015625)"/>
       </defs>
       <use xlink:href="#DejaVuSans-32"/>
      </g>
     </g>
    </g>
    <g id="xtick_4">
     <g id="line2d_7">
      <path d="M 287.090267 245.93875 
L 287.090267 26.88 
" clip-path="url(#p2b8fd1e8c8)" style="fill: none; stroke: #b0b0b0; stroke-width: 0.8; stroke-linecap: square"/>
     </g>
     <g id="line2d_8">
      <g>
       <use xlink:href="#m8ad68ccb47" x="287.090267" y="245.93875" style="stroke: #000000; stroke-width: 0.8"/>
      </g>
     </g>
     <g id="text_4">
      <!-- 3 -->
      <g transform="translate(283.909017 260.537188) scale(0.1 -0.1)">
       <defs>
        <path id="DejaVuSans-33" d="M 2597 2516 
Q 3050 2419 3304 2112 
Q 3559 1806 3559 1356 
Q 3559 666 3084 287 
Q 2609 -91 1734 -91 
Q 1441 -91 1130 -33 
Q 819 25 488 141 
L 488 750 
Q 750 597 1062 519 
Q 1375 441 1716 441 
Q 2309 441 2620 675 
Q 2931 909 2931 1356 
Q 2931 1769 2642 2001 
Q 2353 2234 1838 2234 
L 1294 2234 
L 1294 2753 
L 1863 2753 
Q 2328 2753 2575 2939 
Q 2822 3125 2822 3475 
Q 2822 3834 2567 4026 
Q 2313 4219 1838 4219 
Q 1578 4219 1281 4162 
Q 984 4106 628 3988 
L 628 4550 
Q 988 4650 1302 4700 
Q 1616 4750 1894 4750 
Q 2613 4750 3031 4423 
Q 3450 4097 3450 3541 
Q 3450 3153 3228 2886 
Q 3006 2619 2597 2516 
z
" transform="scale(0.015625)"/>
       </defs>
       <use xlink:href="#DejaVuSans-33"/>
      </g>
     </g>
    </g>
    <g id="xtick_5">
     <g id="line2d_9">
      <path d="M 358.21475 245.93875 
L 358.21475 26.88 
" clip-path="url(#p2b8fd1e8c8)" style="fill: none; stroke: #b0b0b0; stroke-width: 0.8; stroke-linecap: square"/>
     </g>
     <g id="line2d_10">
      <g>
       <use xlink:href="#m8ad68ccb47" x="358.21475" y="245.93875" style="stroke: #000000; stroke-width: 0.8"/>
      </g>
     </g>
     <g id="text_5">
      <!-- 4 -->
      <g transform="translate(355.0335 260.537188) scale(0.1 -0.1)">
       <defs>
        <path id="DejaVuSans-34" d="M 2419 4116 
L 825 1625 
L 2419 1625 
L 2419 4116 
z
M 2253 4666 
L 3047 4666 
L 3047 1625 
L 3713 1625 
L 3713 1100 
L 3047 1100 
L 3047 0 
L 2419 0 
L 2419 1100 
L 313 1100 
L 313 1709 
L 2253 4666 
z
" transform="scale(0.015625)"/>
       </defs>
       <use xlink:href="#DejaVuSans-34"/>
      </g>
     </g>
    </g>
    <g id="text_6">
     <!-- LongitudinalAccel_ADD -->
     <g transform="translate(181.463906 274.215312) scale(0.1 -0.1)">
      <defs>
       <path id="DejaVuSans-4c" d="M 628 4666 
L 1259 4666 
L 1259 531 
L 3531 531 
L 3531 0 
L 628 0 
L 628 4666 
z
" transform="scale(0.015625)"/>
       <path id="DejaVuSans-6f" d="M 1959 3097 
Q 1497 3097 1228 2736 
Q 959 2375 959 1747 
Q 959 1119 1226 758 
Q 1494 397 1959 397 
Q 2419 397 2687 759 
Q 2956 1122 2956 1747 
Q 2956 2369 2687 2733 
Q 2419 3097 1959 3097 
z
M 1959 3584 
Q 2709 3584 3137 3096 
Q 3566 2609 3566 1747 
Q 3566 888 3137 398 
Q 2709 -91 1959 -91 
Q 1206 -91 779 398 
Q 353 888 353 1747 
Q 353 2609 779 3096 
Q 1206 3584 1959 3584 
z
" transform="scale(0.015625)"/>
       <path id="DejaVuSans-6e" d="M 3513 2113 
L 3513 0 
L 2938 0 
L 2938 2094 
Q 2938 2591 2744 2837 
Q 2550 3084 2163 3084 
Q 1697 3084 1428 2787 
Q 1159 2491 1159 1978 
L 1159 0 
L 581 0 
L 581 3500 
L 1159 3500 
L 1159 2956 
Q 1366 3272 1645 3428 
Q 1925 3584 2291 3584 
Q 2894 3584 3203 3211 
Q 3513 2838 3513 2113 
z
" transform="scale(0.015625)"/>
       <path id="DejaVuSans-67" d="M 2906 1791 
Q 2906 2416 2648 2759 
Q 2391 3103 1925 3103 
Q 1463 3103 1205 2759 
Q 947 2416 947 1791 
Q 947 1169 1205 825 
Q 1463 481 1925 481 
Q 2391 481 2648 825 
Q 2906 1169 2906 1791 
z
M 3481 434 
Q 3481 -459 3084 -895 
Q 2688 -1331 1869 -1331 
Q 1566 -1331 1297 -1286 
Q 1028 -1241 775 -1147 
L 775 -588 
Q 1028 -725 1275 -790 
Q 1522 -856 1778 -856 
Q 2344 -856 2625 -561 
Q 2906 -266 2906 331 
L 2906 616 
Q 2728 306 2450 153 
Q 2172 0 1784 0 
Q 1141 0 747 490 
Q 353 981 353 1791 
Q 353 2603 747 3093 
Q 1141 3584 1784 3584 
Q 2172 3584 2450 3431 
Q 2728 3278 2906 2969 
L 2906 3500 
L 3481 3500 
L 3481 434 
z
" transform="scale(0.015625)"/>
       <path id="DejaVuSans-69" d="M 603 3500 
L 1178 3500 
L 1178 0 
L 603 0 
L 603 3500 
z
M 603 4863 
L 1178 4863 
L 1178 4134 
L 603 4134 
L 603 4863 
z
" transform="scale(0.015625)"/>
       <path id="DejaVuSans-74" d="M 1172 4494 
L 1172 3500 
L 2356 3500 
L 2356 3053 
L 1172 3053 
L 1172 1153 
Q 1172 725 1289 603 
Q 1406 481 1766 481 
L 2356 481 
L 2356 0 
L 1766 0 
Q 1100 0 847 248 
Q 594 497 594 1153 
L 594 3053 
L 172 3053 
L 172 3500 
L 594 3500 
L 594 4494 
L 1172 4494 
z
" transform="scale(0.015625)"/>
       <path id="DejaVuSans-75" d="M 544 1381 
L 544 3500 
L 1119 3500 
L 1119 1403 
Q 1119 906 1312 657 
Q 1506 409 1894 409 
Q 2359 409 2629 706 
Q 2900 1003 2900 1516 
L 2900 3500 
L 3475 3500 
L 3475 0 
L 2900 0 
L 2900 538 
Q 2691 219 2414 64 
Q 2138 -91 1772 -91 
Q 1169 -91 856 284 
Q 544 659 544 1381 
z
M 1991 3584 
L 1991 3584 
z
" transform="scale(0.015625)"/>
       <path id="DejaVuSans-64" d="M 2906 2969 
L 2906 4863 
L 3481 4863 
L 3481 0 
L 2906 0 
L 2906 525 
Q 2725 213 2448 61 
Q 2172 -91 1784 -91 
Q 1150 -91 751 415 
Q 353 922 353 1747 
Q 353 2572 751 3078 
Q 1150 3584 1784 3584 
Q 2172 3584 2448 3432 
Q 2725 3281 2906 2969 
z
M 947 1747 
Q 947 1113 1208 752 
Q 1469 391 1925 391 
Q 2381 391 2643 752 
Q 2906 1113 2906 1747 
Q 2906 2381 2643 2742 
Q 2381 3103 1925 3103 
Q 1469 3103 1208 2742 
Q 947 2381 947 1747 
z
" transform="scale(0.015625)"/>
       <path id="DejaVuSans-61" d="M 2194 1759 
Q 1497 1759 1228 1600 
Q 959 1441 959 1056 
Q 959 750 1161 570 
Q 1363 391 1709 391 
Q 2188 391 2477 730 
Q 2766 1069 2766 1631 
L 2766 1759 
L 2194 1759 
z
M 3341 1997 
L 3341 0 
L 2766 0 
L 2766 531 
Q 2569 213 2275 61 
Q 1981 -91 1556 -91 
Q 1019 -91 701 211 
Q 384 513 384 1019 
Q 384 1609 779 1909 
Q 1175 2209 1959 2209 
L 2766 2209 
L 2766 2266 
Q 2766 2663 2505 2880 
Q 2244 3097 1772 3097 
Q 1472 3097 1187 3025 
Q 903 2953 641 2809 
L 641 3341 
Q 956 3463 1253 3523 
Q 1550 3584 1831 3584 
Q 2591 3584 2966 3190 
Q 3341 2797 3341 1997 
z
" transform="scale(0.015625)"/>
       <path id="DejaVuSans-6c" d="M 603 4863 
L 1178 4863 
L 1178 0 
L 603 0 
L 603 4863 
z
" transform="scale(0.015625)"/>
       <path id="DejaVuSans-41" d="M 2188 4044 
L 1331 1722 
L 3047 1722 
L 2188 4044 
z
M 1831 4666 
L 2547 4666 
L 4325 0 
L 3669 0 
L 3244 1197 
L 1141 1197 
L 716 0 
L 50 0 
L 1831 4666 
z
" transform="scale(0.015625)"/>
       <path id="DejaVuSans-63" d="M 3122 3366 
L 3122 2828 
Q 2878 2963 2633 3030 
Q 2388 3097 2138 3097 
Q 1578 3097 1268 2742 
Q 959 2388 959 1747 
Q 959 1106 1268 751 
Q 1578 397 2138 397 
Q 2388 397 2633 464 
Q 2878 531 3122 666 
L 3122 134 
Q 2881 22 2623 -34 
Q 2366 -91 2075 -91 
Q 1284 -91 818 406 
Q 353 903 353 1747 
Q 353 2603 823 3093 
Q 1294 3584 2113 3584 
Q 2378 3584 2631 3529 
Q 2884 3475 3122 3366 
z
" transform="scale(0.015625)"/>
       <path id="DejaVuSans-65" d="M 3597 1894 
L 3597 1613 
L 953 1613 
Q 991 1019 1311 708 
Q 1631 397 2203 397 
Q 2534 397 2845 478 
Q 3156 559 3463 722 
L 3463 178 
Q 3153 47 2828 -22 
Q 2503 -91 2169 -91 
Q 1331 -91 842 396 
Q 353 884 353 1716 
Q 353 2575 817 3079 
Q 1281 3584 2069 3584 
Q 2775 3584 3186 3129 
Q 3597 2675 3597 1894 
z
M 3022 2063 
Q 3016 2534 2758 2815 
Q 2500 3097 2075 3097 
Q 1594 3097 1305 2825 
Q 1016 2553 972 2059 
L 3022 2063 
z
" transform="scale(0.015625)"/>
       <path id="DejaVuSans-5f" d="M 3263 -1063 
L 3263 -1509 
L -63 -1509 
L -63 -1063 
L 3263 -1063 
z
" transform="scale(0.015625)"/>
       <path id="DejaVuSans-44" d="M 1259 4147 
L 1259 519 
L 2022 519 
Q 2988 519 3436 956 
Q 3884 1394 3884 2338 
Q 3884 3275 3436 3711 
Q 2988 4147 2022 4147 
L 1259 4147 
z
M 628 4666 
L 1925 4666 
Q 3281 4666 3915 4102 
Q 4550 3538 4550 2338 
Q 4550 1131 3912 565 
Q 3275 0 1925 0 
L 628 0 
L 628 4666 
z
" transform="scale(0.015625)"/>
      </defs>
      <use xlink:href="#DejaVuSans-4c"/>
      <use xlink:href="#DejaVuSans-6f" transform="translate(53.962891 0)"/>
      <use xlink:href="#DejaVuSans-6e" transform="translate(115.144531 0)"/>
      <use xlink:href="#DejaVuSans-67" transform="translate(178.523438 0)"/>
      <use xlink:href="#DejaVuSans-69" transform="translate(242 0)"/>
      <use xlink:href="#DejaVuSans-74" transform="translate(269.783203 0)"/>
      <use xlink:href="#DejaVuSans-75" transform="translate(308.992188 0)"/>
      <use xlink:href="#DejaVuSans-64" transform="translate(372.371094 0)"/>
      <use xlink:href="#DejaVuSans-69" transform="translate(435.847656 0)"/>
      <use xlink:href="#DejaVuSans-6e" transform="translate(463.630859 0)"/>
      <use xlink:href="#DejaVuSans-61" transform="translate(527.009766 0)"/>
      <use xlink:href="#DejaVuSans-6c" transform="translate(588.289062 0)"/>
      <use xlink:href="#DejaVuSans-41" transform="translate(616.072266 0)"/>
      <use xlink:href="#DejaVuSans-63" transform="translate(682.730469 0)"/>
      <use xlink:href="#DejaVuSans-63" transform="translate(737.710938 0)"/>
      <use xlink:href="#DejaVuSans-65" transform="translate(792.691406 0)"/>
      <use xlink:href="#DejaVuSans-6c" transform="translate(854.214844 0)"/>
      <use xlink:href="#DejaVuSans-5f" transform="translate(881.998047 0)"/>
      <use xlink:href="#DejaVuSans-41" transform="translate(931.998047 0)"/>
      <use xlink:href="#DejaVuSans-44" transform="translate(1000.40625 0)"/>
      <use xlink:href="#DejaVuSans-44" transform="translate(1077.408203 0)"/>
     </g>
    </g>
    <g id="text_7">
     <!-- 1e−6 -->
     <g transform="translate(393.942187 273.215312) scale(0.1 -0.1)">
      <defs>
       <path id="DejaVuSans-2212" d="M 678 2272 
L 4684 2272 
L 4684 1741 
L 678 1741 
L 678 2272 
z
" transform="scale(0.015625)"/>
       <path id="DejaVuSans-36" d="M 2113 2584 
Q 1688 2584 1439 2293 
Q 1191 2003 1191 1497 
Q 1191 994 1439 701 
Q 1688 409 2113 409 
Q 2538 409 2786 701 
Q 3034 994 3034 1497 
Q 3034 2003 2786 2293 
Q 2538 2584 2113 2584 
z
M 3366 4563 
L 3366 3988 
Q 3128 4100 2886 4159 
Q 2644 4219 2406 4219 
Q 1781 4219 1451 3797 
Q 1122 3375 1075 2522 
Q 1259 2794 1537 2939 
Q 1816 3084 2150 3084 
Q 2853 3084 3261 2657 
Q 3669 2231 3669 1497 
Q 3669 778 3244 343 
Q 2819 -91 2113 -91 
Q 1303 -91 875 529 
Q 447 1150 447 2328 
Q 447 3434 972 4092 
Q 1497 4750 2381 4750 
Q 2619 4750 2861 4703 
Q 3103 4656 3366 4563 
z
" transform="scale(0.015625)"/>
      </defs>
      <use xlink:href="#DejaVuSans-31"/>
      <use xlink:href="#DejaVuSans-65" transform="translate(63.623047 0)"/>
      <use xlink:href="#DejaVuSans-2212" transform="translate(125.146484 0)"/>
      <use xlink:href="#DejaVuSans-36" transform="translate(208.935547 0)"/>
     </g>
    </g>
   </g>
   <g id="matplotlib.axis_2">
    <g id="ytick_1">
     <g id="line2d_11">
      <path d="M 57.17 245.93875 
L 421.2 245.93875 
" clip-path="url(#p2b8fd1e8c8)" style="fill: none; stroke: #b0b0b0; stroke-width: 0.8; stroke-linecap: square"/>
     </g>
     <g id="line2d_12">
      <defs>
       <path id="md70b5609af" d="M 0 0 
L -3.5 0 
" style="stroke: #000000; stroke-width: 0.8"/>
      </defs>
      <g>
       <use xlink:href="#md70b5609af" x="57.17" y="245.93875" style="stroke: #000000; stroke-width: 0.8"/>
      </g>
     </g>
     <g id="text_8">
      <!-- 0 -->
      <g transform="translate(43.8075 249.737969) scale(0.1 -0.1)">
       <use xlink:href="#DejaVuSans-30"/>
      </g>
     </g>
    </g>
    <g id="ytick_2">
     <g id="line2d_13">
      <path d="M 57.17 197.69005 
L 421.2 197.69005 
" clip-path="url(#p2b8fd1e8c8)" style="fill: none; stroke: #b0b0b0; stroke-width: 0.8; stroke-linecap: square"/>
     </g>
     <g id="line2d_14">
      <g>
       <use xlink:href="#md70b5609af" x="57.17" y="197.69005" style="stroke: #000000; stroke-width: 0.8"/>
      </g>
     </g>
     <g id="text_9">
      <!-- 1000 -->
      <g transform="translate(24.72 201.489268) scale(0.1 -0.1)">
       <use xlink:href="#DejaVuSans-31"/>
       <use xlink:href="#DejaVuSans-30" transform="translate(63.623047 0)"/>
       <use xlink:href="#DejaVuSans-30" transform="translate(127.246094 0)"/>
       <use xlink:href="#DejaVuSans-30" transform="translate(190.869141 0)"/>
      </g>
     </g>
    </g>
    <g id="ytick_3">
     <g id="line2d_15">
      <path d="M 57.17 149.441349 
L 421.2 149.441349 
" clip-path="url(#p2b8fd1e8c8)" style="fill: none; stroke: #b0b0b0; stroke-width: 0.8; stroke-linecap: square"/>
     </g>
     <g id="line2d_16">
      <g>
       <use xlink:href="#md70b5609af" x="57.17" y="149.441349" style="stroke: #000000; stroke-width: 0.8"/>
      </g>
     </g>
     <g id="text_10">
      <!-- 2000 -->
      <g transform="translate(24.72 153.240568) scale(0.1 -0.1)">
       <use xlink:href="#DejaVuSans-32"/>
       <use xlink:href="#DejaVuSans-30" transform="translate(63.623047 0)"/>
       <use xlink:href="#DejaVuSans-30" transform="translate(127.246094 0)"/>
       <use xlink:href="#DejaVuSans-30" transform="translate(190.869141 0)"/>
      </g>
     </g>
    </g>
    <g id="ytick_4">
     <g id="line2d_17">
      <path d="M 57.17 101.192649 
L 421.2 101.192649 
" clip-path="url(#p2b8fd1e8c8)" style="fill: none; stroke: #b0b0b0; stroke-width: 0.8; stroke-linecap: square"/>
     </g>
     <g id="line2d_18">
      <g>
       <use xlink:href="#md70b5609af" x="57.17" y="101.192649" style="stroke: #000000; stroke-width: 0.8"/>
      </g>
     </g>
     <g id="text_11">
      <!-- 3000 -->
      <g transform="translate(24.72 104.991867) scale(0.1 -0.1)">
       <use xlink:href="#DejaVuSans-33"/>
       <use xlink:href="#DejaVuSans-30" transform="translate(63.623047 0)"/>
       <use xlink:href="#DejaVuSans-30" transform="translate(127.246094 0)"/>
       <use xlink:href="#DejaVuSans-30" transform="translate(190.869141 0)"/>
      </g>
     </g>
    </g>
    <g id="ytick_5">
     <g id="line2d_19">
      <path d="M 57.17 52.943948 
L 421.2 52.943948 
" clip-path="url(#p2b8fd1e8c8)" style="fill: none; stroke: #b0b0b0; stroke-width: 0.8; stroke-linecap: square"/>
     </g>
     <g id="line2d_20">
      <g>
       <use xlink:href="#md70b5609af" x="57.17" y="52.943948" style="stroke: #000000; stroke-width: 0.8"/>
      </g>
     </g>
     <g id="text_12">
      <!-- 4000 -->
      <g transform="translate(24.72 56.743167) scale(0.1 -0.1)">
       <use xlink:href="#DejaVuSans-34"/>
       <use xlink:href="#DejaVuSans-30" transform="translate(63.623047 0)"/>
       <use xlink:href="#DejaVuSans-30" transform="translate(127.246094 0)"/>
       <use xlink:href="#DejaVuSans-30" transform="translate(190.869141 0)"/>
      </g>
     </g>
    </g>
    <g id="text_13">
     <!-- Count -->
     <g transform="translate(18.640313 151.257812) rotate(-90) scale(0.1 -0.1)">
      <defs>
       <path id="DejaVuSans-43" d="M 4122 4306 
L 4122 3641 
Q 3803 3938 3442 4084 
Q 3081 4231 2675 4231 
Q 1875 4231 1450 3742 
Q 1025 3253 1025 2328 
Q 1025 1406 1450 917 
Q 1875 428 2675 428 
Q 3081 428 3442 575 
Q 3803 722 4122 1019 
L 4122 359 
Q 3791 134 3420 21 
Q 3050 -91 2638 -91 
Q 1578 -91 968 557 
Q 359 1206 359 2328 
Q 359 3453 968 4101 
Q 1578 4750 2638 4750 
Q 3056 4750 3426 4639 
Q 3797 4528 4122 4306 
z
" transform="scale(0.015625)"/>
      </defs>
      <use xlink:href="#DejaVuSans-43"/>
      <use xlink:href="#DejaVuSans-6f" transform="translate(69.824219 0)"/>
      <use xlink:href="#DejaVuSans-75" transform="translate(131.005859 0)"/>
      <use xlink:href="#DejaVuSans-6e" transform="translate(194.384766 0)"/>
      <use xlink:href="#DejaVuSans-74" transform="translate(257.763672 0)"/>
     </g>
    </g>
   </g>
   <g id="patch_53">
    <path d="M 57.17 245.93875 
L 57.17 26.88 
" style="fill: none; stroke: #000000; stroke-width: 0.8; stroke-linejoin: miter; stroke-linecap: square"/>
   </g>
   <g id="patch_54">
    <path d="M 421.2 245.93875 
L 421.2 26.88 
" style="fill: none; stroke: #000000; stroke-width: 0.8; stroke-linejoin: miter; stroke-linecap: square"/>
   </g>
   <g id="patch_55">
    <path d="M 57.17 245.93875 
L 421.2 245.93875 
" style="fill: none; stroke: #000000; stroke-width: 0.8; stroke-linejoin: miter; stroke-linecap: square"/>
   </g>
   <g id="patch_56">
    <path d="M 57.17 26.88 
L 421.2 26.88 
" style="fill: none; stroke: #000000; stroke-width: 0.8; stroke-linejoin: miter; stroke-linecap: square"/>
   </g>
   <g id="text_14">
    <!-- LongitudinalAccel_ADD -->
    <g transform="translate(169.919688 20.88) scale(0.12 -0.12)">
     <use xlink:href="#DejaVuSans-4c"/>
     <use xlink:href="#DejaVuSans-6f" transform="translate(53.962891 0)"/>
     <use xlink:href="#DejaVuSans-6e" transform="translate(115.144531 0)"/>
     <use xlink:href="#DejaVuSans-67" transform="translate(178.523438 0)"/>
     <use xlink:href="#DejaVuSans-69" transform="translate(242 0)"/>
     <use xlink:href="#DejaVuSans-74" transform="translate(269.783203 0)"/>
     <use xlink:href="#DejaVuSans-75" transform="translate(308.992188 0)"/>
     <use xlink:href="#DejaVuSans-64" transform="translate(372.371094 0)"/>
     <use xlink:href="#DejaVuSans-69" transform="translate(435.847656 0)"/>
     <use xlink:href="#DejaVuSans-6e" transform="translate(463.630859 0)"/>
     <use xlink:href="#DejaVuSans-61" transform="translate(527.009766 0)"/>
     <use xlink:href="#DejaVuSans-6c" transform="translate(588.289062 0)"/>
     <use xlink:href="#DejaVuSans-41" transform="translate(616.072266 0)"/>
     <use xlink:href="#DejaVuSans-63" transform="translate(682.730469 0)"/>
     <use xlink:href="#DejaVuSans-63" transform="translate(737.710938 0)"/>
     <use xlink:href="#DejaVuSans-65" transform="translate(792.691406 0)"/>
     <use xlink:href="#DejaVuSans-6c" transform="translate(854.214844 0)"/>
     <use xlink:href="#DejaVuSans-5f" transform="translate(881.998047 0)"/>
     <use xlink:href="#DejaVuSans-41" transform="translate(931.998047 0)"/>
     <use xlink:href="#DejaVuSans-44" transform="translate(1000.40625 0)"/>
     <use xlink:href="#DejaVuSans-44" transform="translate(1077.408203 0)"/>
    </g>
   </g>
  </g>
 </g>
 <defs>
  <clipPath id="p2b8fd1e8c8">
   <rect x="57.17" y="26.88" width="364.03" height="219.05875"/>
  </clipPath>
 </defs>
</svg>
