<?xml version="1.0" encoding="utf-8" standalone="no"?>
<!DOCTYPE svg PUBLIC "-//W3C//DTD SVG 1.1//EN"
  "http://www.w3.org/Graphics/SVG/1.1/DTD/svg11.dtd">
<svg xmlns:xlink="http://www.w3.org/1999/xlink" width="432pt" height="288pt" viewBox="0 0 432 288" xmlns="http://www.w3.org/2000/svg" version="1.1">
 <metadata>
  <rdf:RDF xmlns:dc="http://purl.org/dc/elements/1.1/" xmlns:cc="http://creativecommons.org/ns#" xmlns:rdf="http://www.w3.org/1999/02/22-rdf-syntax-ns#">
   <cc:Work>
    <dc:type rdf:resource="http://purl.org/dc/dcmitype/StillImage"/>
    <dc:date>2025-06-15T13:37:48.875981</dc:date>
    <dc:format>image/svg+xml</dc:format>
    <dc:creator>
     <cc:Agent>
      <dc:title>Matplotlib v3.10.0, https://matplotlib.org/</dc:title>
     </cc:Agent>
    </dc:creator>
   </cc:Work>
  </rdf:RDF>
 </metadata>
 <defs>
  <style type="text/css">*{stroke-linejoin: round; stroke-linecap: butt}</style>
 </defs>
 <g id="figure_1">
  <g id="patch_1">
   <path d="M 0 288 
L 432 288 
L 432 0 
L 0 0 
z
" style="fill: #ffffff"/>
  </g>
  <g id="axes_1">
   <g id="patch_2">
    <path d="M 63.47 245.93875 
L 421.2 245.93875 
L 421.2 26.88 
L 63.47 26.88 
z
" style="fill: #ffffff"/>
   </g>
   <g id="patch_3">
    <path d="M 79.730455 245.93875 
L 86.234636 245.93875 
L 86.234636 245.920731 
L 79.730455 245.920731 
z
" clip-path="url(#pbe41e35885)" style="fill: #1f77b4"/>
   </g>
   <g id="patch_4">
    <path d="M 86.234636 245.93875 
L 92.738818 245.93875 
L 92.738818 245.93875 
L 86.234636 245.93875 
z
" clip-path="url(#pbe41e35885)" style="fill: #1f77b4"/>
   </g>
   <g id="patch_5">
    <path d="M 92.738818 245.93875 
L 99.243 245.93875 
L 99.243 245.93875 
L 92.738818 245.93875 
z
" clip-path="url(#pbe41e35885)" style="fill: #1f77b4"/>
   </g>
   <g id="patch_6">
    <path d="M 99.243 245.93875 
L 105.747182 245.93875 
L 105.747182 245.93875 
L 99.243 245.93875 
z
" clip-path="url(#pbe41e35885)" style="fill: #1f77b4"/>
   </g>
   <g id="patch_7">
    <path d="M 105.747182 245.93875 
L 112.251364 245.93875 
L 112.251364 245.93875 
L 105.747182 245.93875 
z
" clip-path="url(#pbe41e35885)" style="fill: #1f77b4"/>
   </g>
   <g id="patch_8">
    <path d="M 112.251364 245.93875 
L 118.755545 245.93875 
L 118.755545 245.93875 
L 112.251364 245.93875 
z
" clip-path="url(#pbe41e35885)" style="fill: #1f77b4"/>
   </g>
   <g id="patch_9">
    <path d="M 118.755545 245.93875 
L 125.259727 245.93875 
L 125.259727 245.93875 
L 118.755545 245.93875 
z
" clip-path="url(#pbe41e35885)" style="fill: #1f77b4"/>
   </g>
   <g id="patch_10">
    <path d="M 125.259727 245.93875 
L 131.763909 245.93875 
L 131.763909 245.93875 
L 125.259727 245.93875 
z
" clip-path="url(#pbe41e35885)" style="fill: #1f77b4"/>
   </g>
   <g id="patch_11">
    <path d="M 131.763909 245.93875 
L 138.268091 245.93875 
L 138.268091 245.93875 
L 131.763909 245.93875 
z
" clip-path="url(#pbe41e35885)" style="fill: #1f77b4"/>
   </g>
   <g id="patch_12">
    <path d="M 138.268091 245.93875 
L 144.772273 245.93875 
L 144.772273 245.93875 
L 138.268091 245.93875 
z
" clip-path="url(#pbe41e35885)" style="fill: #1f77b4"/>
   </g>
   <g id="patch_13">
    <path d="M 144.772273 245.93875 
L 151.276455 245.93875 
L 151.276455 245.93875 
L 144.772273 245.93875 
z
" clip-path="url(#pbe41e35885)" style="fill: #1f77b4"/>
   </g>
   <g id="patch_14">
    <path d="M 151.276455 245.93875 
L 157.780636 245.93875 
L 157.780636 245.93875 
L 151.276455 245.93875 
z
" clip-path="url(#pbe41e35885)" style="fill: #1f77b4"/>
   </g>
   <g id="patch_15">
    <path d="M 157.780636 245.93875 
L 164.284818 245.93875 
L 164.284818 245.93875 
L 157.780636 245.93875 
z
" clip-path="url(#pbe41e35885)" style="fill: #1f77b4"/>
   </g>
   <g id="patch_16">
    <path d="M 164.284818 245.93875 
L 170.789 245.93875 
L 170.789 245.93875 
L 164.284818 245.93875 
z
" clip-path="url(#pbe41e35885)" style="fill: #1f77b4"/>
   </g>
   <g id="patch_17">
    <path d="M 170.789 245.93875 
L 177.293182 245.93875 
L 177.293182 245.93875 
L 170.789 245.93875 
z
" clip-path="url(#pbe41e35885)" style="fill: #1f77b4"/>
   </g>
   <g id="patch_18">
    <path d="M 177.293182 245.93875 
L 183.797364 245.93875 
L 183.797364 245.93875 
L 177.293182 245.93875 
z
" clip-path="url(#pbe41e35885)" style="fill: #1f77b4"/>
   </g>
   <g id="patch_19">
    <path d="M 183.797364 245.93875 
L 190.301545 245.93875 
L 190.301545 245.93875 
L 183.797364 245.93875 
z
" clip-path="url(#pbe41e35885)" style="fill: #1f77b4"/>
   </g>
   <g id="patch_20">
    <path d="M 190.301545 245.93875 
L 196.805727 245.93875 
L 196.805727 245.920731 
L 190.301545 245.920731 
z
" clip-path="url(#pbe41e35885)" style="fill: #1f77b4"/>
   </g>
   <g id="patch_21">
    <path d="M 196.805727 245.93875 
L 203.309909 245.93875 
L 203.309909 245.902711 
L 196.805727 245.902711 
z
" clip-path="url(#pbe41e35885)" style="fill: #1f77b4"/>
   </g>
   <g id="patch_22">
    <path d="M 203.309909 245.93875 
L 209.814091 245.93875 
L 209.814091 245.902711 
L 203.309909 245.902711 
z
" clip-path="url(#pbe41e35885)" style="fill: #1f77b4"/>
   </g>
   <g id="patch_23">
    <path d="M 209.814091 245.93875 
L 216.318273 245.93875 
L 216.318273 245.884692 
L 209.814091 245.884692 
z
" clip-path="url(#pbe41e35885)" style="fill: #1f77b4"/>
   </g>
   <g id="patch_24">
    <path d="M 216.318273 245.93875 
L 222.822455 245.93875 
L 222.822455 245.866673 
L 216.318273 245.866673 
z
" clip-path="url(#pbe41e35885)" style="fill: #1f77b4"/>
   </g>
   <g id="patch_25">
    <path d="M 222.822455 245.93875 
L 229.326636 245.93875 
L 229.326636 245.848654 
L 222.822455 245.848654 
z
" clip-path="url(#pbe41e35885)" style="fill: #1f77b4"/>
   </g>
   <g id="patch_26">
    <path d="M 229.326636 245.93875 
L 235.830818 245.93875 
L 235.830818 245.650441 
L 229.326636 245.650441 
z
" clip-path="url(#pbe41e35885)" style="fill: #1f77b4"/>
   </g>
   <g id="patch_27">
    <path d="M 235.830818 245.93875 
L 242.335 245.93875 
L 242.335 245.398171 
L 235.830818 245.398171 
z
" clip-path="url(#pbe41e35885)" style="fill: #1f77b4"/>
   </g>
   <g id="patch_28">
    <path d="M 242.335 245.93875 
L 248.839182 245.93875 
L 248.839182 244.749477 
L 242.335 244.749477 
z
" clip-path="url(#pbe41e35885)" style="fill: #1f77b4"/>
   </g>
   <g id="patch_29">
    <path d="M 248.839182 245.93875 
L 255.343364 245.93875 
L 255.343364 243.524165 
L 248.839182 243.524165 
z
" clip-path="url(#pbe41e35885)" style="fill: #1f77b4"/>
   </g>
   <g id="patch_30">
    <path d="M 255.343364 245.93875 
L 261.847545 245.93875 
L 261.847545 240.983444 
L 255.343364 240.983444 
z
" clip-path="url(#pbe41e35885)" style="fill: #1f77b4"/>
   </g>
   <g id="patch_31">
    <path d="M 261.847545 245.93875 
L 268.351727 245.93875 
L 268.351727 230.532254 
L 261.847545 230.532254 
z
" clip-path="url(#pbe41e35885)" style="fill: #1f77b4"/>
   </g>
   <g id="patch_32">
    <path d="M 268.351727 245.93875 
L 274.855909 245.93875 
L 274.855909 175.645486 
L 268.351727 175.645486 
z
" clip-path="url(#pbe41e35885)" style="fill: #1f77b4"/>
   </g>
   <g id="patch_33">
    <path d="M 274.855909 245.93875 
L 281.360091 245.93875 
L 281.360091 37.311369 
L 274.855909 37.311369 
z
" clip-path="url(#pbe41e35885)" style="fill: #1f77b4"/>
   </g>
   <g id="patch_34">
    <path d="M 281.360091 245.93875 
L 287.864273 245.93875 
L 287.864273 203.052831 
L 281.360091 203.052831 
z
" clip-path="url(#pbe41e35885)" style="fill: #1f77b4"/>
   </g>
   <g id="patch_35">
    <path d="M 287.864273 245.93875 
L 294.368455 245.93875 
L 294.368455 235.055097 
L 287.864273 235.055097 
z
" clip-path="url(#pbe41e35885)" style="fill: #1f77b4"/>
   </g>
   <g id="patch_36">
    <path d="M 294.368455 245.93875 
L 300.872636 245.93875 
L 300.872636 242.082621 
L 294.368455 242.082621 
z
" clip-path="url(#pbe41e35885)" style="fill: #1f77b4"/>
   </g>
   <g id="patch_37">
    <path d="M 300.872636 245.93875 
L 307.376818 245.93875 
L 307.376818 243.956628 
L 300.872636 243.956628 
z
" clip-path="url(#pbe41e35885)" style="fill: #1f77b4"/>
   </g>
   <g id="patch_38">
    <path d="M 307.376818 245.93875 
L 313.881 245.93875 
L 313.881 245.18194 
L 307.376818 245.18194 
z
" clip-path="url(#pbe41e35885)" style="fill: #1f77b4"/>
   </g>
   <g id="patch_39">
    <path d="M 313.881 245.93875 
L 320.385182 245.93875 
L 320.385182 245.452229 
L 313.881 245.452229 
z
" clip-path="url(#pbe41e35885)" style="fill: #1f77b4"/>
   </g>
   <g id="patch_40">
    <path d="M 320.385182 245.93875 
L 326.889364 245.93875 
L 326.889364 245.68648 
L 320.385182 245.68648 
z
" clip-path="url(#pbe41e35885)" style="fill: #1f77b4"/>
   </g>
   <g id="patch_41">
    <path d="M 326.889364 245.93875 
L 333.393545 245.93875 
L 333.393545 245.722518 
L 326.889364 245.722518 
z
" clip-path="url(#pbe41e35885)" style="fill: #1f77b4"/>
   </g>
   <g id="patch_42">
    <path d="M 333.393545 245.93875 
L 339.897727 245.93875 
L 339.897727 245.794596 
L 333.393545 245.794596 
z
" clip-path="url(#pbe41e35885)" style="fill: #1f77b4"/>
   </g>
   <g id="patch_43">
    <path d="M 339.897727 245.93875 
L 346.401909 245.93875 
L 346.401909 245.920731 
L 339.897727 245.920731 
z
" clip-path="url(#pbe41e35885)" style="fill: #1f77b4"/>
   </g>
   <g id="patch_44">
    <path d="M 346.401909 245.93875 
L 352.906091 245.93875 
L 352.906091 245.920731 
L 346.401909 245.920731 
z
" clip-path="url(#pbe41e35885)" style="fill: #1f77b4"/>
   </g>
   <g id="patch_45">
    <path d="M 352.906091 245.93875 
L 359.410273 245.93875 
L 359.410273 245.920731 
L 352.906091 245.920731 
z
" clip-path="url(#pbe41e35885)" style="fill: #1f77b4"/>
   </g>
   <g id="patch_46">
    <path d="M 359.410273 245.93875 
L 365.914455 245.93875 
L 365.914455 245.920731 
L 359.410273 245.920731 
z
" clip-path="url(#pbe41e35885)" style="fill: #1f77b4"/>
   </g>
   <g id="patch_47">
    <path d="M 365.914455 245.93875 
L 372.418636 245.93875 
L 372.418636 245.93875 
L 365.914455 245.93875 
z
" clip-path="url(#pbe41e35885)" style="fill: #1f77b4"/>
   </g>
   <g id="patch_48">
    <path d="M 372.418636 245.93875 
L 378.922818 245.93875 
L 378.922818 245.920731 
L 372.418636 245.920731 
z
" clip-path="url(#pbe41e35885)" style="fill: #1f77b4"/>
   </g>
   <g id="patch_49">
    <path d="M 378.922818 245.93875 
L 385.427 245.93875 
L 385.427 245.93875 
L 378.922818 245.93875 
z
" clip-path="url(#pbe41e35885)" style="fill: #1f77b4"/>
   </g>
   <g id="patch_50">
    <path d="M 385.427 245.93875 
L 391.931182 245.93875 
L 391.931182 245.93875 
L 385.427 245.93875 
z
" clip-path="url(#pbe41e35885)" style="fill: #1f77b4"/>
   </g>
   <g id="patch_51">
    <path d="M 391.931182 245.93875 
L 398.435364 245.93875 
L 398.435364 245.93875 
L 391.931182 245.93875 
z
" clip-path="url(#pbe41e35885)" style="fill: #1f77b4"/>
   </g>
   <g id="patch_52">
    <path d="M 398.435364 245.93875 
L 404.939545 245.93875 
L 404.939545 245.920731 
L 398.435364 245.920731 
z
" clip-path="url(#pbe41e35885)" style="fill: #1f77b4"/>
   </g>
   <g id="matplotlib.axis_1">
    <g id="xtick_1">
     <g id="line2d_1">
      <path d="M 67.192917 245.93875 
L 67.192917 26.88 
" clip-path="url(#pbe41e35885)" style="fill: none; stroke: #b0b0b0; stroke-width: 0.8; stroke-linecap: square"/>
     </g>
     <g id="line2d_2">
      <defs>
       <path id="m5901cc5167" d="M 0 0 
L 0 3.5 
" style="stroke: #000000; stroke-width: 0.8"/>
      </defs>
      <g>
       <use xlink:href="#m5901cc5167" x="67.192917" y="245.93875" style="stroke: #000000; stroke-width: 0.8"/>
      </g>
     </g>
     <g id="text_1">
      <!-- −0.010 -->
      <g transform="translate(48.689011 260.537188) scale(0.1 -0.1)">
       <defs>
        <path id="DejaVuSans-2212" d="M 678 2272 
L 4684 2272 
L 4684 1741 
L 678 1741 
L 678 2272 
z
" transform="scale(0.015625)"/>
        <path id="DejaVuSans-30" d="M 2034 4250 
Q 1547 4250 1301 3770 
Q 1056 3291 1056 2328 
Q 1056 1369 1301 889 
Q 1547 409 2034 409 
Q 2525 409 2770 889 
Q 3016 1369 3016 2328 
Q 3016 3291 2770 3770 
Q 2525 4250 2034 4250 
z
M 2034 4750 
Q 2819 4750 3233 4129 
Q 3647 3509 3647 2328 
Q 3647 1150 3233 529 
Q 2819 -91 2034 -91 
Q 1250 -91 836 529 
Q 422 1150 422 2328 
Q 422 3509 836 4129 
Q 1250 4750 2034 4750 
z
" transform="scale(0.015625)"/>
        <path id="DejaVuSans-2e" d="M 684 794 
L 1344 794 
L 1344 0 
L 684 0 
L 684 794 
z
" transform="scale(0.015625)"/>
        <path id="DejaVuSans-31" d="M 794 531 
L 1825 531 
L 1825 4091 
L 703 3866 
L 703 4441 
L 1819 4666 
L 2450 4666 
L 2450 531 
L 3481 531 
L 3481 0 
L 794 0 
L 794 531 
z
" transform="scale(0.015625)"/>
       </defs>
       <use xlink:href="#DejaVuSans-2212"/>
       <use xlink:href="#DejaVuSans-30" transform="translate(83.789062 0)"/>
       <use xlink:href="#DejaVuSans-2e" transform="translate(147.412109 0)"/>
       <use xlink:href="#DejaVuSans-30" transform="translate(179.199219 0)"/>
       <use xlink:href="#DejaVuSans-31" transform="translate(242.822266 0)"/>
       <use xlink:href="#DejaVuSans-30" transform="translate(306.445312 0)"/>
      </g>
     </g>
    </g>
    <g id="xtick_2">
     <g id="line2d_3">
      <path d="M 109.181979 245.93875 
L 109.181979 26.88 
" clip-path="url(#pbe41e35885)" style="fill: none; stroke: #b0b0b0; stroke-width: 0.8; stroke-linecap: square"/>
     </g>
     <g id="line2d_4">
      <g>
       <use xlink:href="#m5901cc5167" x="109.181979" y="245.93875" style="stroke: #000000; stroke-width: 0.8"/>
      </g>
     </g>
     <g id="text_2">
      <!-- −0.008 -->
      <g transform="translate(90.678073 260.537188) scale(0.1 -0.1)">
       <defs>
        <path id="DejaVuSans-38" d="M 2034 2216 
Q 1584 2216 1326 1975 
Q 1069 1734 1069 1313 
Q 1069 891 1326 650 
Q 1584 409 2034 409 
Q 2484 409 2743 651 
Q 3003 894 3003 1313 
Q 3003 1734 2745 1975 
Q 2488 2216 2034 2216 
z
M 1403 2484 
Q 997 2584 770 2862 
Q 544 3141 544 3541 
Q 544 4100 942 4425 
Q 1341 4750 2034 4750 
Q 2731 4750 3128 4425 
Q 3525 4100 3525 3541 
Q 3525 3141 3298 2862 
Q 3072 2584 2669 2484 
Q 3125 2378 3379 2068 
Q 3634 1759 3634 1313 
Q 3634 634 3220 271 
Q 2806 -91 2034 -91 
Q 1263 -91 848 271 
Q 434 634 434 1313 
Q 434 1759 690 2068 
Q 947 2378 1403 2484 
z
M 1172 3481 
Q 1172 3119 1398 2916 
Q 1625 2713 2034 2713 
Q 2441 2713 2670 2916 
Q 2900 3119 2900 3481 
Q 2900 3844 2670 4047 
Q 2441 4250 2034 4250 
Q 1625 4250 1398 4047 
Q 1172 3844 1172 3481 
z
" transform="scale(0.015625)"/>
       </defs>
       <use xlink:href="#DejaVuSans-2212"/>
       <use xlink:href="#DejaVuSans-30" transform="translate(83.789062 0)"/>
       <use xlink:href="#DejaVuSans-2e" transform="translate(147.412109 0)"/>
       <use xlink:href="#DejaVuSans-30" transform="translate(179.199219 0)"/>
       <use xlink:href="#DejaVuSans-30" transform="translate(242.822266 0)"/>
       <use xlink:href="#DejaVuSans-38" transform="translate(306.445312 0)"/>
      </g>
     </g>
    </g>
    <g id="xtick_3">
     <g id="line2d_5">
      <path d="M 151.17104 245.93875 
L 151.17104 26.88 
" clip-path="url(#pbe41e35885)" style="fill: none; stroke: #b0b0b0; stroke-width: 0.8; stroke-linecap: square"/>
     </g>
     <g id="line2d_6">
      <g>
       <use xlink:href="#m5901cc5167" x="151.17104" y="245.93875" style="stroke: #000000; stroke-width: 0.8"/>
      </g>
     </g>
     <g id="text_3">
      <!-- −0.006 -->
      <g transform="translate(132.667134 260.537188) scale(0.1 -0.1)">
       <defs>
        <path id="DejaVuSans-36" d="M 2113 2584 
Q 1688 2584 1439 2293 
Q 1191 2003 1191 1497 
Q 1191 994 1439 701 
Q 1688 409 2113 409 
Q 2538 409 2786 701 
Q 3034 994 3034 1497 
Q 3034 2003 2786 2293 
Q 2538 2584 2113 2584 
z
M 3366 4563 
L 3366 3988 
Q 3128 4100 2886 4159 
Q 2644 4219 2406 4219 
Q 1781 4219 1451 3797 
Q 1122 3375 1075 2522 
Q 1259 2794 1537 2939 
Q 1816 3084 2150 3084 
Q 2853 3084 3261 2657 
Q 3669 2231 3669 1497 
Q 3669 778 3244 343 
Q 2819 -91 2113 -91 
Q 1303 -91 875 529 
Q 447 1150 447 2328 
Q 447 3434 972 4092 
Q 1497 4750 2381 4750 
Q 2619 4750 2861 4703 
Q 3103 4656 3366 4563 
z
" transform="scale(0.015625)"/>
       </defs>
       <use xlink:href="#DejaVuSans-2212"/>
       <use xlink:href="#DejaVuSans-30" transform="translate(83.789062 0)"/>
       <use xlink:href="#DejaVuSans-2e" transform="translate(147.412109 0)"/>
       <use xlink:href="#DejaVuSans-30" transform="translate(179.199219 0)"/>
       <use xlink:href="#DejaVuSans-30" transform="translate(242.822266 0)"/>
       <use xlink:href="#DejaVuSans-36" transform="translate(306.445312 0)"/>
      </g>
     </g>
    </g>
    <g id="xtick_4">
     <g id="line2d_7">
      <path d="M 193.160102 245.93875 
L 193.160102 26.88 
" clip-path="url(#pbe41e35885)" style="fill: none; stroke: #b0b0b0; stroke-width: 0.8; stroke-linecap: square"/>
     </g>
     <g id="line2d_8">
      <g>
       <use xlink:href="#m5901cc5167" x="193.160102" y="245.93875" style="stroke: #000000; stroke-width: 0.8"/>
      </g>
     </g>
     <g id="text_4">
      <!-- −0.004 -->
      <g transform="translate(174.656196 260.537188) scale(0.1 -0.1)">
       <defs>
        <path id="DejaVuSans-34" d="M 2419 4116 
L 825 1625 
L 2419 1625 
L 2419 4116 
z
M 2253 4666 
L 3047 4666 
L 3047 1625 
L 3713 1625 
L 3713 1100 
L 3047 1100 
L 3047 0 
L 2419 0 
L 2419 1100 
L 313 1100 
L 313 1709 
L 2253 4666 
z
" transform="scale(0.015625)"/>
       </defs>
       <use xlink:href="#DejaVuSans-2212"/>
       <use xlink:href="#DejaVuSans-30" transform="translate(83.789062 0)"/>
       <use xlink:href="#DejaVuSans-2e" transform="translate(147.412109 0)"/>
       <use xlink:href="#DejaVuSans-30" transform="translate(179.199219 0)"/>
       <use xlink:href="#DejaVuSans-30" transform="translate(242.822266 0)"/>
       <use xlink:href="#DejaVuSans-34" transform="translate(306.445312 0)"/>
      </g>
     </g>
    </g>
    <g id="xtick_5">
     <g id="line2d_9">
      <path d="M 235.149164 245.93875 
L 235.149164 26.88 
" clip-path="url(#pbe41e35885)" style="fill: none; stroke: #b0b0b0; stroke-width: 0.8; stroke-linecap: square"/>
     </g>
     <g id="line2d_10">
      <g>
       <use xlink:href="#m5901cc5167" x="235.149164" y="245.93875" style="stroke: #000000; stroke-width: 0.8"/>
      </g>
     </g>
     <g id="text_5">
      <!-- −0.002 -->
      <g transform="translate(216.645258 260.537188) scale(0.1 -0.1)">
       <defs>
        <path id="DejaVuSans-32" d="M 1228 531 
L 3431 531 
L 3431 0 
L 469 0 
L 469 531 
Q 828 903 1448 1529 
Q 2069 2156 2228 2338 
Q 2531 2678 2651 2914 
Q 2772 3150 2772 3378 
Q 2772 3750 2511 3984 
Q 2250 4219 1831 4219 
Q 1534 4219 1204 4116 
Q 875 4013 500 3803 
L 500 4441 
Q 881 4594 1212 4672 
Q 1544 4750 1819 4750 
Q 2544 4750 2975 4387 
Q 3406 4025 3406 3419 
Q 3406 3131 3298 2873 
Q 3191 2616 2906 2266 
Q 2828 2175 2409 1742 
Q 1991 1309 1228 531 
z
" transform="scale(0.015625)"/>
       </defs>
       <use xlink:href="#DejaVuSans-2212"/>
       <use xlink:href="#DejaVuSans-30" transform="translate(83.789062 0)"/>
       <use xlink:href="#DejaVuSans-2e" transform="translate(147.412109 0)"/>
       <use xlink:href="#DejaVuSans-30" transform="translate(179.199219 0)"/>
       <use xlink:href="#DejaVuSans-30" transform="translate(242.822266 0)"/>
       <use xlink:href="#DejaVuSans-32" transform="translate(306.445312 0)"/>
      </g>
     </g>
    </g>
    <g id="xtick_6">
     <g id="line2d_11">
      <path d="M 277.138226 245.93875 
L 277.138226 26.88 
" clip-path="url(#pbe41e35885)" style="fill: none; stroke: #b0b0b0; stroke-width: 0.8; stroke-linecap: square"/>
     </g>
     <g id="line2d_12">
      <g>
       <use xlink:href="#m5901cc5167" x="277.138226" y="245.93875" style="stroke: #000000; stroke-width: 0.8"/>
      </g>
     </g>
     <g id="text_6">
      <!-- 0.000 -->
      <g transform="translate(262.824163 260.537188) scale(0.1 -0.1)">
       <use xlink:href="#DejaVuSans-30"/>
       <use xlink:href="#DejaVuSans-2e" transform="translate(63.623047 0)"/>
       <use xlink:href="#DejaVuSans-30" transform="translate(95.410156 0)"/>
       <use xlink:href="#DejaVuSans-30" transform="translate(159.033203 0)"/>
       <use xlink:href="#DejaVuSans-30" transform="translate(222.65625 0)"/>
      </g>
     </g>
    </g>
    <g id="xtick_7">
     <g id="line2d_13">
      <path d="M 319.127287 245.93875 
L 319.127287 26.88 
" clip-path="url(#pbe41e35885)" style="fill: none; stroke: #b0b0b0; stroke-width: 0.8; stroke-linecap: square"/>
     </g>
     <g id="line2d_14">
      <g>
       <use xlink:href="#m5901cc5167" x="319.127287" y="245.93875" style="stroke: #000000; stroke-width: 0.8"/>
      </g>
     </g>
     <g id="text_7">
      <!-- 0.002 -->
      <g transform="translate(304.813225 260.537188) scale(0.1 -0.1)">
       <use xlink:href="#DejaVuSans-30"/>
       <use xlink:href="#DejaVuSans-2e" transform="translate(63.623047 0)"/>
       <use xlink:href="#DejaVuSans-30" transform="translate(95.410156 0)"/>
       <use xlink:href="#DejaVuSans-30" transform="translate(159.033203 0)"/>
       <use xlink:href="#DejaVuSans-32" transform="translate(222.65625 0)"/>
      </g>
     </g>
    </g>
    <g id="xtick_8">
     <g id="line2d_15">
      <path d="M 361.116349 245.93875 
L 361.116349 26.88 
" clip-path="url(#pbe41e35885)" style="fill: none; stroke: #b0b0b0; stroke-width: 0.8; stroke-linecap: square"/>
     </g>
     <g id="line2d_16">
      <g>
       <use xlink:href="#m5901cc5167" x="361.116349" y="245.93875" style="stroke: #000000; stroke-width: 0.8"/>
      </g>
     </g>
     <g id="text_8">
      <!-- 0.004 -->
      <g transform="translate(346.802286 260.537188) scale(0.1 -0.1)">
       <use xlink:href="#DejaVuSans-30"/>
       <use xlink:href="#DejaVuSans-2e" transform="translate(63.623047 0)"/>
       <use xlink:href="#DejaVuSans-30" transform="translate(95.410156 0)"/>
       <use xlink:href="#DejaVuSans-30" transform="translate(159.033203 0)"/>
       <use xlink:href="#DejaVuSans-34" transform="translate(222.65625 0)"/>
      </g>
     </g>
    </g>
    <g id="xtick_9">
     <g id="line2d_17">
      <path d="M 403.105411 245.93875 
L 403.105411 26.88 
" clip-path="url(#pbe41e35885)" style="fill: none; stroke: #b0b0b0; stroke-width: 0.8; stroke-linecap: square"/>
     </g>
     <g id="line2d_18">
      <g>
       <use xlink:href="#m5901cc5167" x="403.105411" y="245.93875" style="stroke: #000000; stroke-width: 0.8"/>
      </g>
     </g>
     <g id="text_9">
      <!-- 0.006 -->
      <g transform="translate(388.791348 260.537188) scale(0.1 -0.1)">
       <use xlink:href="#DejaVuSans-30"/>
       <use xlink:href="#DejaVuSans-2e" transform="translate(63.623047 0)"/>
       <use xlink:href="#DejaVuSans-30" transform="translate(95.410156 0)"/>
       <use xlink:href="#DejaVuSans-30" transform="translate(159.033203 0)"/>
       <use xlink:href="#DejaVuSans-36" transform="translate(222.65625 0)"/>
      </g>
     </g>
    </g>
    <g id="text_10">
     <!-- long_acc_gaussian_smooth -->
     <g transform="translate(174.520156 274.215312) scale(0.1 -0.1)">
      <defs>
       <path id="DejaVuSans-6c" d="M 603 4863 
L 1178 4863 
L 1178 0 
L 603 0 
L 603 4863 
z
" transform="scale(0.015625)"/>
       <path id="DejaVuSans-6f" d="M 1959 3097 
Q 1497 3097 1228 2736 
Q 959 2375 959 1747 
Q 959 1119 1226 758 
Q 1494 397 1959 397 
Q 2419 397 2687 759 
Q 2956 1122 2956 1747 
Q 2956 2369 2687 2733 
Q 2419 3097 1959 3097 
z
M 1959 3584 
Q 2709 3584 3137 3096 
Q 3566 2609 3566 1747 
Q 3566 888 3137 398 
Q 2709 -91 1959 -91 
Q 1206 -91 779 398 
Q 353 888 353 1747 
Q 353 2609 779 3096 
Q 1206 3584 1959 3584 
z
" transform="scale(0.015625)"/>
       <path id="DejaVuSans-6e" d="M 3513 2113 
L 3513 0 
L 2938 0 
L 2938 2094 
Q 2938 2591 2744 2837 
Q 2550 3084 2163 3084 
Q 1697 3084 1428 2787 
Q 1159 2491 1159 1978 
L 1159 0 
L 581 0 
L 581 3500 
L 1159 3500 
L 1159 2956 
Q 1366 3272 1645 3428 
Q 1925 3584 2291 3584 
Q 2894 3584 3203 3211 
Q 3513 2838 3513 2113 
z
" transform="scale(0.015625)"/>
       <path id="DejaVuSans-67" d="M 2906 1791 
Q 2906 2416 2648 2759 
Q 2391 3103 1925 3103 
Q 1463 3103 1205 2759 
Q 947 2416 947 1791 
Q 947 1169 1205 825 
Q 1463 481 1925 481 
Q 2391 481 2648 825 
Q 2906 1169 2906 1791 
z
M 3481 434 
Q 3481 -459 3084 -895 
Q 2688 -1331 1869 -1331 
Q 1566 -1331 1297 -1286 
Q 1028 -1241 775 -1147 
L 775 -588 
Q 1028 -725 1275 -790 
Q 1522 -856 1778 -856 
Q 2344 -856 2625 -561 
Q 2906 -266 2906 331 
L 2906 616 
Q 2728 306 2450 153 
Q 2172 0 1784 0 
Q 1141 0 747 490 
Q 353 981 353 1791 
Q 353 2603 747 3093 
Q 1141 3584 1784 3584 
Q 2172 3584 2450 3431 
Q 2728 3278 2906 2969 
L 2906 3500 
L 3481 3500 
L 3481 434 
z
" transform="scale(0.015625)"/>
       <path id="DejaVuSans-5f" d="M 3263 -1063 
L 3263 -1509 
L -63 -1509 
L -63 -1063 
L 3263 -1063 
z
" transform="scale(0.015625)"/>
       <path id="DejaVuSans-61" d="M 2194 1759 
Q 1497 1759 1228 1600 
Q 959 1441 959 1056 
Q 959 750 1161 570 
Q 1363 391 1709 391 
Q 2188 391 2477 730 
Q 2766 1069 2766 1631 
L 2766 1759 
L 2194 1759 
z
M 3341 1997 
L 3341 0 
L 2766 0 
L 2766 531 
Q 2569 213 2275 61 
Q 1981 -91 1556 -91 
Q 1019 -91 701 211 
Q 384 513 384 1019 
Q 384 1609 779 1909 
Q 1175 2209 1959 2209 
L 2766 2209 
L 2766 2266 
Q 2766 2663 2505 2880 
Q 2244 3097 1772 3097 
Q 1472 3097 1187 3025 
Q 903 2953 641 2809 
L 641 3341 
Q 956 3463 1253 3523 
Q 1550 3584 1831 3584 
Q 2591 3584 2966 3190 
Q 3341 2797 3341 1997 
z
" transform="scale(0.015625)"/>
       <path id="DejaVuSans-63" d="M 3122 3366 
L 3122 2828 
Q 2878 2963 2633 3030 
Q 2388 3097 2138 3097 
Q 1578 3097 1268 2742 
Q 959 2388 959 1747 
Q 959 1106 1268 751 
Q 1578 397 2138 397 
Q 2388 397 2633 464 
Q 2878 531 3122 666 
L 3122 134 
Q 2881 22 2623 -34 
Q 2366 -91 2075 -91 
Q 1284 -91 818 406 
Q 353 903 353 1747 
Q 353 2603 823 3093 
Q 1294 3584 2113 3584 
Q 2378 3584 2631 3529 
Q 2884 3475 3122 3366 
z
" transform="scale(0.015625)"/>
       <path id="DejaVuSans-75" d="M 544 1381 
L 544 3500 
L 1119 3500 
L 1119 1403 
Q 1119 906 1312 657 
Q 1506 409 1894 409 
Q 2359 409 2629 706 
Q 2900 1003 2900 1516 
L 2900 3500 
L 3475 3500 
L 3475 0 
L 2900 0 
L 2900 538 
Q 2691 219 2414 64 
Q 2138 -91 1772 -91 
Q 1169 -91 856 284 
Q 544 659 544 1381 
z
M 1991 3584 
L 1991 3584 
z
" transform="scale(0.015625)"/>
       <path id="DejaVuSans-73" d="M 2834 3397 
L 2834 2853 
Q 2591 2978 2328 3040 
Q 2066 3103 1784 3103 
Q 1356 3103 1142 2972 
Q 928 2841 928 2578 
Q 928 2378 1081 2264 
Q 1234 2150 1697 2047 
L 1894 2003 
Q 2506 1872 2764 1633 
Q 3022 1394 3022 966 
Q 3022 478 2636 193 
Q 2250 -91 1575 -91 
Q 1294 -91 989 -36 
Q 684 19 347 128 
L 347 722 
Q 666 556 975 473 
Q 1284 391 1588 391 
Q 1994 391 2212 530 
Q 2431 669 2431 922 
Q 2431 1156 2273 1281 
Q 2116 1406 1581 1522 
L 1381 1569 
Q 847 1681 609 1914 
Q 372 2147 372 2553 
Q 372 3047 722 3315 
Q 1072 3584 1716 3584 
Q 2034 3584 2315 3537 
Q 2597 3491 2834 3397 
z
" transform="scale(0.015625)"/>
       <path id="DejaVuSans-69" d="M 603 3500 
L 1178 3500 
L 1178 0 
L 603 0 
L 603 3500 
z
M 603 4863 
L 1178 4863 
L 1178 4134 
L 603 4134 
L 603 4863 
z
" transform="scale(0.015625)"/>
       <path id="DejaVuSans-6d" d="M 3328 2828 
Q 3544 3216 3844 3400 
Q 4144 3584 4550 3584 
Q 5097 3584 5394 3201 
Q 5691 2819 5691 2113 
L 5691 0 
L 5113 0 
L 5113 2094 
Q 5113 2597 4934 2840 
Q 4756 3084 4391 3084 
Q 3944 3084 3684 2787 
Q 3425 2491 3425 1978 
L 3425 0 
L 2847 0 
L 2847 2094 
Q 2847 2600 2669 2842 
Q 2491 3084 2119 3084 
Q 1678 3084 1418 2786 
Q 1159 2488 1159 1978 
L 1159 0 
L 581 0 
L 581 3500 
L 1159 3500 
L 1159 2956 
Q 1356 3278 1631 3431 
Q 1906 3584 2284 3584 
Q 2666 3584 2933 3390 
Q 3200 3197 3328 2828 
z
" transform="scale(0.015625)"/>
       <path id="DejaVuSans-74" d="M 1172 4494 
L 1172 3500 
L 2356 3500 
L 2356 3053 
L 1172 3053 
L 1172 1153 
Q 1172 725 1289 603 
Q 1406 481 1766 481 
L 2356 481 
L 2356 0 
L 1766 0 
Q 1100 0 847 248 
Q 594 497 594 1153 
L 594 3053 
L 172 3053 
L 172 3500 
L 594 3500 
L 594 4494 
L 1172 4494 
z
" transform="scale(0.015625)"/>
       <path id="DejaVuSans-68" d="M 3513 2113 
L 3513 0 
L 2938 0 
L 2938 2094 
Q 2938 2591 2744 2837 
Q 2550 3084 2163 3084 
Q 1697 3084 1428 2787 
Q 1159 2491 1159 1978 
L 1159 0 
L 581 0 
L 581 4863 
L 1159 4863 
L 1159 2956 
Q 1366 3272 1645 3428 
Q 1925 3584 2291 3584 
Q 2894 3584 3203 3211 
Q 3513 2838 3513 2113 
z
" transform="scale(0.015625)"/>
      </defs>
      <use xlink:href="#DejaVuSans-6c"/>
      <use xlink:href="#DejaVuSans-6f" transform="translate(27.783203 0)"/>
      <use xlink:href="#DejaVuSans-6e" transform="translate(88.964844 0)"/>
      <use xlink:href="#DejaVuSans-67" transform="translate(152.34375 0)"/>
      <use xlink:href="#DejaVuSans-5f" transform="translate(215.820312 0)"/>
      <use xlink:href="#DejaVuSans-61" transform="translate(265.820312 0)"/>
      <use xlink:href="#DejaVuSans-63" transform="translate(327.099609 0)"/>
      <use xlink:href="#DejaVuSans-63" transform="translate(382.080078 0)"/>
      <use xlink:href="#DejaVuSans-5f" transform="translate(437.060547 0)"/>
      <use xlink:href="#DejaVuSans-67" transform="translate(487.060547 0)"/>
      <use xlink:href="#DejaVuSans-61" transform="translate(550.537109 0)"/>
      <use xlink:href="#DejaVuSans-75" transform="translate(611.816406 0)"/>
      <use xlink:href="#DejaVuSans-73" transform="translate(675.195312 0)"/>
      <use xlink:href="#DejaVuSans-73" transform="translate(727.294922 0)"/>
      <use xlink:href="#DejaVuSans-69" transform="translate(779.394531 0)"/>
      <use xlink:href="#DejaVuSans-61" transform="translate(807.177734 0)"/>
      <use xlink:href="#DejaVuSans-6e" transform="translate(868.457031 0)"/>
      <use xlink:href="#DejaVuSans-5f" transform="translate(931.835938 0)"/>
      <use xlink:href="#DejaVuSans-73" transform="translate(981.835938 0)"/>
      <use xlink:href="#DejaVuSans-6d" transform="translate(1033.935547 0)"/>
      <use xlink:href="#DejaVuSans-6f" transform="translate(1131.347656 0)"/>
      <use xlink:href="#DejaVuSans-6f" transform="translate(1192.529297 0)"/>
      <use xlink:href="#DejaVuSans-74" transform="translate(1253.710938 0)"/>
      <use xlink:href="#DejaVuSans-68" transform="translate(1292.919922 0)"/>
     </g>
    </g>
   </g>
   <g id="matplotlib.axis_2">
    <g id="ytick_1">
     <g id="line2d_19">
      <path d="M 63.47 245.93875 
L 421.2 245.93875 
" clip-path="url(#pbe41e35885)" style="fill: none; stroke: #b0b0b0; stroke-width: 0.8; stroke-linecap: square"/>
     </g>
     <g id="line2d_20">
      <defs>
       <path id="m84059c9793" d="M 0 0 
L -3.5 0 
" style="stroke: #000000; stroke-width: 0.8"/>
      </defs>
      <g>
       <use xlink:href="#m84059c9793" x="63.47" y="245.93875" style="stroke: #000000; stroke-width: 0.8"/>
      </g>
     </g>
     <g id="text_11">
      <!-- 0 -->
      <g transform="translate(50.1075 249.737969) scale(0.1 -0.1)">
       <use xlink:href="#DejaVuSans-30"/>
      </g>
     </g>
    </g>
    <g id="ytick_2">
     <g id="line2d_21">
      <path d="M 63.47 209.900163 
L 421.2 209.900163 
" clip-path="url(#pbe41e35885)" style="fill: none; stroke: #b0b0b0; stroke-width: 0.8; stroke-linecap: square"/>
     </g>
     <g id="line2d_22">
      <g>
       <use xlink:href="#m84059c9793" x="63.47" y="209.900163" style="stroke: #000000; stroke-width: 0.8"/>
      </g>
     </g>
     <g id="text_12">
      <!-- 2000 -->
      <g transform="translate(31.02 213.699382) scale(0.1 -0.1)">
       <use xlink:href="#DejaVuSans-32"/>
       <use xlink:href="#DejaVuSans-30" transform="translate(63.623047 0)"/>
       <use xlink:href="#DejaVuSans-30" transform="translate(127.246094 0)"/>
       <use xlink:href="#DejaVuSans-30" transform="translate(190.869141 0)"/>
      </g>
     </g>
    </g>
    <g id="ytick_3">
     <g id="line2d_23">
      <path d="M 63.47 173.861576 
L 421.2 173.861576 
" clip-path="url(#pbe41e35885)" style="fill: none; stroke: #b0b0b0; stroke-width: 0.8; stroke-linecap: square"/>
     </g>
     <g id="line2d_24">
      <g>
       <use xlink:href="#m84059c9793" x="63.47" y="173.861576" style="stroke: #000000; stroke-width: 0.8"/>
      </g>
     </g>
     <g id="text_13">
      <!-- 4000 -->
      <g transform="translate(31.02 177.660794) scale(0.1 -0.1)">
       <use xlink:href="#DejaVuSans-34"/>
       <use xlink:href="#DejaVuSans-30" transform="translate(63.623047 0)"/>
       <use xlink:href="#DejaVuSans-30" transform="translate(127.246094 0)"/>
       <use xlink:href="#DejaVuSans-30" transform="translate(190.869141 0)"/>
      </g>
     </g>
    </g>
    <g id="ytick_4">
     <g id="line2d_25">
      <path d="M 63.47 137.822989 
L 421.2 137.822989 
" clip-path="url(#pbe41e35885)" style="fill: none; stroke: #b0b0b0; stroke-width: 0.8; stroke-linecap: square"/>
     </g>
     <g id="line2d_26">
      <g>
       <use xlink:href="#m84059c9793" x="63.47" y="137.822989" style="stroke: #000000; stroke-width: 0.8"/>
      </g>
     </g>
     <g id="text_14">
      <!-- 6000 -->
      <g transform="translate(31.02 141.622207) scale(0.1 -0.1)">
       <use xlink:href="#DejaVuSans-36"/>
       <use xlink:href="#DejaVuSans-30" transform="translate(63.623047 0)"/>
       <use xlink:href="#DejaVuSans-30" transform="translate(127.246094 0)"/>
       <use xlink:href="#DejaVuSans-30" transform="translate(190.869141 0)"/>
      </g>
     </g>
    </g>
    <g id="ytick_5">
     <g id="line2d_27">
      <path d="M 63.47 101.784401 
L 421.2 101.784401 
" clip-path="url(#pbe41e35885)" style="fill: none; stroke: #b0b0b0; stroke-width: 0.8; stroke-linecap: square"/>
     </g>
     <g id="line2d_28">
      <g>
       <use xlink:href="#m84059c9793" x="63.47" y="101.784401" style="stroke: #000000; stroke-width: 0.8"/>
      </g>
     </g>
     <g id="text_15">
      <!-- 8000 -->
      <g transform="translate(31.02 105.58362) scale(0.1 -0.1)">
       <use xlink:href="#DejaVuSans-38"/>
       <use xlink:href="#DejaVuSans-30" transform="translate(63.623047 0)"/>
       <use xlink:href="#DejaVuSans-30" transform="translate(127.246094 0)"/>
       <use xlink:href="#DejaVuSans-30" transform="translate(190.869141 0)"/>
      </g>
     </g>
    </g>
    <g id="ytick_6">
     <g id="line2d_29">
      <path d="M 63.47 65.745814 
L 421.2 65.745814 
" clip-path="url(#pbe41e35885)" style="fill: none; stroke: #b0b0b0; stroke-width: 0.8; stroke-linecap: square"/>
     </g>
     <g id="line2d_30">
      <g>
       <use xlink:href="#m84059c9793" x="63.47" y="65.745814" style="stroke: #000000; stroke-width: 0.8"/>
      </g>
     </g>
     <g id="text_16">
      <!-- 10000 -->
      <g transform="translate(24.6575 69.545033) scale(0.1 -0.1)">
       <use xlink:href="#DejaVuSans-31"/>
       <use xlink:href="#DejaVuSans-30" transform="translate(63.623047 0)"/>
       <use xlink:href="#DejaVuSans-30" transform="translate(127.246094 0)"/>
       <use xlink:href="#DejaVuSans-30" transform="translate(190.869141 0)"/>
       <use xlink:href="#DejaVuSans-30" transform="translate(254.492188 0)"/>
      </g>
     </g>
    </g>
    <g id="ytick_7">
     <g id="line2d_31">
      <path d="M 63.47 29.707227 
L 421.2 29.707227 
" clip-path="url(#pbe41e35885)" style="fill: none; stroke: #b0b0b0; stroke-width: 0.8; stroke-linecap: square"/>
     </g>
     <g id="line2d_32">
      <g>
       <use xlink:href="#m84059c9793" x="63.47" y="29.707227" style="stroke: #000000; stroke-width: 0.8"/>
      </g>
     </g>
     <g id="text_17">
      <!-- 12000 -->
      <g transform="translate(24.6575 33.506446) scale(0.1 -0.1)">
       <use xlink:href="#DejaVuSans-31"/>
       <use xlink:href="#DejaVuSans-32" transform="translate(63.623047 0)"/>
       <use xlink:href="#DejaVuSans-30" transform="translate(127.246094 0)"/>
       <use xlink:href="#DejaVuSans-30" transform="translate(190.869141 0)"/>
       <use xlink:href="#DejaVuSans-30" transform="translate(254.492188 0)"/>
      </g>
     </g>
    </g>
    <g id="text_18">
     <!-- Count -->
     <g transform="translate(18.577812 151.257812) rotate(-90) scale(0.1 -0.1)">
      <defs>
       <path id="DejaVuSans-43" d="M 4122 4306 
L 4122 3641 
Q 3803 3938 3442 4084 
Q 3081 4231 2675 4231 
Q 1875 4231 1450 3742 
Q 1025 3253 1025 2328 
Q 1025 1406 1450 917 
Q 1875 428 2675 428 
Q 3081 428 3442 575 
Q 3803 722 4122 1019 
L 4122 359 
Q 3791 134 3420 21 
Q 3050 -91 2638 -91 
Q 1578 -91 968 557 
Q 359 1206 359 2328 
Q 359 3453 968 4101 
Q 1578 4750 2638 4750 
Q 3056 4750 3426 4639 
Q 3797 4528 4122 4306 
z
" transform="scale(0.015625)"/>
      </defs>
      <use xlink:href="#DejaVuSans-43"/>
      <use xlink:href="#DejaVuSans-6f" transform="translate(69.824219 0)"/>
      <use xlink:href="#DejaVuSans-75" transform="translate(131.005859 0)"/>
      <use xlink:href="#DejaVuSans-6e" transform="translate(194.384766 0)"/>
      <use xlink:href="#DejaVuSans-74" transform="translate(257.763672 0)"/>
     </g>
    </g>
   </g>
   <g id="patch_53">
    <path d="M 63.47 245.93875 
L 63.47 26.88 
" style="fill: none; stroke: #000000; stroke-width: 0.8; stroke-linejoin: miter; stroke-linecap: square"/>
   </g>
   <g id="patch_54">
    <path d="M 421.2 245.93875 
L 421.2 26.88 
" style="fill: none; stroke: #000000; stroke-width: 0.8; stroke-linejoin: miter; stroke-linecap: square"/>
   </g>
   <g id="patch_55">
    <path d="M 63.47 245.93875 
L 421.2 245.93875 
" style="fill: none; stroke: #000000; stroke-width: 0.8; stroke-linejoin: miter; stroke-linecap: square"/>
   </g>
   <g id="patch_56">
    <path d="M 63.47 26.88 
L 421.2 26.88 
" style="fill: none; stroke: #000000; stroke-width: 0.8; stroke-linejoin: miter; stroke-linecap: square"/>
   </g>
   <g id="text_19">
    <!-- long_acc_gaussian_smooth -->
    <g transform="translate(160.957187 20.88) scale(0.12 -0.12)">
     <use xlink:href="#DejaVuSans-6c"/>
     <use xlink:href="#DejaVuSans-6f" transform="translate(27.783203 0)"/>
     <use xlink:href="#DejaVuSans-6e" transform="translate(88.964844 0)"/>
     <use xlink:href="#DejaVuSans-67" transform="translate(152.34375 0)"/>
     <use xlink:href="#DejaVuSans-5f" transform="translate(215.820312 0)"/>
     <use xlink:href="#DejaVuSans-61" transform="translate(265.820312 0)"/>
     <use xlink:href="#DejaVuSans-63" transform="translate(327.099609 0)"/>
     <use xlink:href="#DejaVuSans-63" transform="translate(382.080078 0)"/>
     <use xlink:href="#DejaVuSans-5f" transform="translate(437.060547 0)"/>
     <use xlink:href="#DejaVuSans-67" transform="translate(487.060547 0)"/>
     <use xlink:href="#DejaVuSans-61" transform="translate(550.537109 0)"/>
     <use xlink:href="#DejaVuSans-75" transform="translate(611.816406 0)"/>
     <use xlink:href="#DejaVuSans-73" transform="translate(675.195312 0)"/>
     <use xlink:href="#DejaVuSans-73" transform="translate(727.294922 0)"/>
     <use xlink:href="#DejaVuSans-69" transform="translate(779.394531 0)"/>
     <use xlink:href="#DejaVuSans-61" transform="translate(807.177734 0)"/>
     <use xlink:href="#DejaVuSans-6e" transform="translate(868.457031 0)"/>
     <use xlink:href="#DejaVuSans-5f" transform="translate(931.835938 0)"/>
     <use xlink:href="#DejaVuSans-73" transform="translate(981.835938 0)"/>
     <use xlink:href="#DejaVuSans-6d" transform="translate(1033.935547 0)"/>
     <use xlink:href="#DejaVuSans-6f" transform="translate(1131.347656 0)"/>
     <use xlink:href="#DejaVuSans-6f" transform="translate(1192.529297 0)"/>
     <use xlink:href="#DejaVuSans-74" transform="translate(1253.710938 0)"/>
     <use xlink:href="#DejaVuSans-68" transform="translate(1292.919922 0)"/>
    </g>
   </g>
  </g>
 </g>
 <defs>
  <clipPath id="pbe41e35885">
   <rect x="63.47" y="26.88" width="357.73" height="219.05875"/>
  </clipPath>
 </defs>
</svg>
