<?xml version="1.0" encoding="utf-8" standalone="no"?>
<!DOCTYPE svg PUBLIC "-//W3C//DTD SVG 1.1//EN"
  "http://www.w3.org/Graphics/SVG/1.1/DTD/svg11.dtd">
<svg xmlns:xlink="http://www.w3.org/1999/xlink" width="432pt" height="288pt" viewBox="0 0 432 288" xmlns="http://www.w3.org/2000/svg" version="1.1">
 <metadata>
  <rdf:RDF xmlns:dc="http://purl.org/dc/elements/1.1/" xmlns:cc="http://creativecommons.org/ns#" xmlns:rdf="http://www.w3.org/1999/02/22-rdf-syntax-ns#">
   <cc:Work>
    <dc:type rdf:resource="http://purl.org/dc/dcmitype/StillImage"/>
    <dc:date>2025-06-15T13:37:47.876874</dc:date>
    <dc:format>image/svg+xml</dc:format>
    <dc:creator>
     <cc:Agent>
      <dc:title>Matplotlib v3.10.0, https://matplotlib.org/</dc:title>
     </cc:Agent>
    </dc:creator>
   </cc:Work>
  </rdf:RDF>
 </metadata>
 <defs>
  <style type="text/css">*{stroke-linejoin: round; stroke-linecap: butt}</style>
 </defs>
 <g id="figure_1">
  <g id="patch_1">
   <path d="M 0 288 
L 432 288 
L 432 0 
L 0 0 
z
" style="fill: #ffffff"/>
  </g>
  <g id="axes_1">
   <g id="patch_2">
    <path d="M 63.47 245.93875 
L 413.334046 245.93875 
L 413.334046 26.88 
L 63.47 26.88 
z
" style="fill: #ffffff"/>
   </g>
   <g id="patch_3">
    <path d="M 79.372911 245.93875 
L 85.734076 245.93875 
L 85.734076 245.922891 
L 79.372911 245.922891 
z
" clip-path="url(#p99af8ccffe)" style="fill: #1f77b4"/>
   </g>
   <g id="patch_4">
    <path d="M 85.734076 245.93875 
L 92.09524 245.93875 
L 92.09524 245.93875 
L 85.734076 245.93875 
z
" clip-path="url(#p99af8ccffe)" style="fill: #1f77b4"/>
   </g>
   <g id="patch_5">
    <path d="M 92.09524 245.93875 
L 98.456405 245.93875 
L 98.456405 245.93875 
L 92.09524 245.93875 
z
" clip-path="url(#p99af8ccffe)" style="fill: #1f77b4"/>
   </g>
   <g id="patch_6">
    <path d="M 98.456405 245.93875 
L 104.817569 245.93875 
L 104.817569 245.922891 
L 98.456405 245.922891 
z
" clip-path="url(#p99af8ccffe)" style="fill: #1f77b4"/>
   </g>
   <g id="patch_7">
    <path d="M 104.817569 245.93875 
L 111.178733 245.93875 
L 111.178733 245.922891 
L 104.817569 245.922891 
z
" clip-path="url(#p99af8ccffe)" style="fill: #1f77b4"/>
   </g>
   <g id="patch_8">
    <path d="M 111.178733 245.93875 
L 117.539898 245.93875 
L 117.539898 245.93875 
L 111.178733 245.93875 
z
" clip-path="url(#p99af8ccffe)" style="fill: #1f77b4"/>
   </g>
   <g id="patch_9">
    <path d="M 117.539898 245.93875 
L 123.901062 245.93875 
L 123.901062 245.922891 
L 117.539898 245.922891 
z
" clip-path="url(#p99af8ccffe)" style="fill: #1f77b4"/>
   </g>
   <g id="patch_10">
    <path d="M 123.901062 245.93875 
L 130.262227 245.93875 
L 130.262227 245.922891 
L 123.901062 245.922891 
z
" clip-path="url(#p99af8ccffe)" style="fill: #1f77b4"/>
   </g>
   <g id="patch_11">
    <path d="M 130.262227 245.93875 
L 136.623391 245.93875 
L 136.623391 245.93875 
L 130.262227 245.93875 
z
" clip-path="url(#p99af8ccffe)" style="fill: #1f77b4"/>
   </g>
   <g id="patch_12">
    <path d="M 136.623391 245.93875 
L 142.984556 245.93875 
L 142.984556 245.93875 
L 136.623391 245.93875 
z
" clip-path="url(#p99af8ccffe)" style="fill: #1f77b4"/>
   </g>
   <g id="patch_13">
    <path d="M 142.984556 245.93875 
L 149.34572 245.93875 
L 149.34572 245.93875 
L 142.984556 245.93875 
z
" clip-path="url(#p99af8ccffe)" style="fill: #1f77b4"/>
   </g>
   <g id="patch_14">
    <path d="M 149.34572 245.93875 
L 155.706885 245.93875 
L 155.706885 245.922891 
L 149.34572 245.922891 
z
" clip-path="url(#p99af8ccffe)" style="fill: #1f77b4"/>
   </g>
   <g id="patch_15">
    <path d="M 155.706885 245.93875 
L 162.068049 245.93875 
L 162.068049 245.922891 
L 155.706885 245.922891 
z
" clip-path="url(#p99af8ccffe)" style="fill: #1f77b4"/>
   </g>
   <g id="patch_16">
    <path d="M 162.068049 245.93875 
L 168.429214 245.93875 
L 168.429214 245.93875 
L 162.068049 245.93875 
z
" clip-path="url(#p99af8ccffe)" style="fill: #1f77b4"/>
   </g>
   <g id="patch_17">
    <path d="M 168.429214 245.93875 
L 174.790378 245.93875 
L 174.790378 245.922891 
L 168.429214 245.922891 
z
" clip-path="url(#p99af8ccffe)" style="fill: #1f77b4"/>
   </g>
   <g id="patch_18">
    <path d="M 174.790378 245.93875 
L 181.151543 245.93875 
L 181.151543 245.891172 
L 174.790378 245.891172 
z
" clip-path="url(#p99af8ccffe)" style="fill: #1f77b4"/>
   </g>
   <g id="patch_19">
    <path d="M 181.151543 245.93875 
L 187.512707 245.93875 
L 187.512707 245.922891 
L 181.151543 245.922891 
z
" clip-path="url(#p99af8ccffe)" style="fill: #1f77b4"/>
   </g>
   <g id="patch_20">
    <path d="M 187.512707 245.93875 
L 193.873872 245.93875 
L 193.873872 245.859454 
L 187.512707 245.859454 
z
" clip-path="url(#p99af8ccffe)" style="fill: #1f77b4"/>
   </g>
   <g id="patch_21">
    <path d="M 193.873872 245.93875 
L 200.235036 245.93875 
L 200.235036 245.653285 
L 193.873872 245.653285 
z
" clip-path="url(#p99af8ccffe)" style="fill: #1f77b4"/>
   </g>
   <g id="patch_22">
    <path d="M 200.235036 245.93875 
L 206.5962 245.93875 
L 206.5962 245.589848 
L 200.235036 245.589848 
z
" clip-path="url(#p99af8ccffe)" style="fill: #1f77b4"/>
   </g>
   <g id="patch_23">
    <path d="M 206.5962 245.93875 
L 212.957365 245.93875 
L 212.957365 245.17751 
L 206.5962 245.17751 
z
" clip-path="url(#p99af8ccffe)" style="fill: #1f77b4"/>
   </g>
   <g id="patch_24">
    <path d="M 212.957365 245.93875 
L 219.318529 245.93875 
L 219.318529 244.083227 
L 212.957365 244.083227 
z
" clip-path="url(#p99af8ccffe)" style="fill: #1f77b4"/>
   </g>
   <g id="patch_25">
    <path d="M 219.318529 245.93875 
L 225.679694 245.93875 
L 225.679694 240.721083 
L 219.318529 240.721083 
z
" clip-path="url(#p99af8ccffe)" style="fill: #1f77b4"/>
   </g>
   <g id="patch_26">
    <path d="M 225.679694 245.93875 
L 232.040858 245.93875 
L 232.040858 221.309459 
L 225.679694 221.309459 
z
" clip-path="url(#p99af8ccffe)" style="fill: #1f77b4"/>
   </g>
   <g id="patch_27">
    <path d="M 232.040858 245.93875 
L 238.402023 245.93875 
L 238.402023 37.311369 
L 232.040858 37.311369 
z
" clip-path="url(#p99af8ccffe)" style="fill: #1f77b4"/>
   </g>
   <g id="patch_28">
    <path d="M 238.402023 245.93875 
L 244.763187 245.93875 
L 244.763187 181.55052 
L 238.402023 181.55052 
z
" clip-path="url(#p99af8ccffe)" style="fill: #1f77b4"/>
   </g>
   <g id="patch_29">
    <path d="M 244.763187 245.93875 
L 251.124352 245.93875 
L 251.124352 236.248797 
L 244.763187 236.248797 
z
" clip-path="url(#p99af8ccffe)" style="fill: #1f77b4"/>
   </g>
   <g id="patch_30">
    <path d="M 251.124352 245.93875 
L 257.485516 245.93875 
L 257.485516 242.988944 
L 251.124352 242.988944 
z
" clip-path="url(#p99af8ccffe)" style="fill: #1f77b4"/>
   </g>
   <g id="patch_31">
    <path d="M 257.485516 245.93875 
L 263.846681 245.93875 
L 263.846681 244.812749 
L 257.485516 244.812749 
z
" clip-path="url(#p99af8ccffe)" style="fill: #1f77b4"/>
   </g>
   <g id="patch_32">
    <path d="M 263.846681 245.93875 
L 270.207845 245.93875 
L 270.207845 245.462975 
L 263.846681 245.462975 
z
" clip-path="url(#p99af8ccffe)" style="fill: #1f77b4"/>
   </g>
   <g id="patch_33">
    <path d="M 270.207845 245.93875 
L 276.56901 245.93875 
L 276.56901 245.494693 
L 270.207845 245.494693 
z
" clip-path="url(#p99af8ccffe)" style="fill: #1f77b4"/>
   </g>
   <g id="patch_34">
    <path d="M 276.56901 245.93875 
L 282.930174 245.93875 
L 282.930174 245.685003 
L 276.56901 245.685003 
z
" clip-path="url(#p99af8ccffe)" style="fill: #1f77b4"/>
   </g>
   <g id="patch_35">
    <path d="M 282.930174 245.93875 
L 289.291338 245.93875 
L 289.291338 245.811877 
L 282.930174 245.811877 
z
" clip-path="url(#p99af8ccffe)" style="fill: #1f77b4"/>
   </g>
   <g id="patch_36">
    <path d="M 289.291338 245.93875 
L 295.652503 245.93875 
L 295.652503 245.859454 
L 289.291338 245.859454 
z
" clip-path="url(#p99af8ccffe)" style="fill: #1f77b4"/>
   </g>
   <g id="patch_37">
    <path d="M 295.652503 245.93875 
L 302.013667 245.93875 
L 302.013667 245.891172 
L 295.652503 245.891172 
z
" clip-path="url(#p99af8ccffe)" style="fill: #1f77b4"/>
   </g>
   <g id="patch_38">
    <path d="M 302.013667 245.93875 
L 308.374832 245.93875 
L 308.374832 245.922891 
L 302.013667 245.922891 
z
" clip-path="url(#p99af8ccffe)" style="fill: #1f77b4"/>
   </g>
   <g id="patch_39">
    <path d="M 308.374832 245.93875 
L 314.735996 245.93875 
L 314.735996 245.843595 
L 308.374832 245.843595 
z
" clip-path="url(#p99af8ccffe)" style="fill: #1f77b4"/>
   </g>
   <g id="patch_40">
    <path d="M 314.735996 245.93875 
L 321.097161 245.93875 
L 321.097161 245.922891 
L 314.735996 245.922891 
z
" clip-path="url(#p99af8ccffe)" style="fill: #1f77b4"/>
   </g>
   <g id="patch_41">
    <path d="M 321.097161 245.93875 
L 327.458325 245.93875 
L 327.458325 245.922891 
L 321.097161 245.922891 
z
" clip-path="url(#p99af8ccffe)" style="fill: #1f77b4"/>
   </g>
   <g id="patch_42">
    <path d="M 327.458325 245.93875 
L 333.81949 245.93875 
L 333.81949 245.922891 
L 327.458325 245.922891 
z
" clip-path="url(#p99af8ccffe)" style="fill: #1f77b4"/>
   </g>
   <g id="patch_43">
    <path d="M 333.81949 245.93875 
L 340.180654 245.93875 
L 340.180654 245.922891 
L 333.81949 245.922891 
z
" clip-path="url(#p99af8ccffe)" style="fill: #1f77b4"/>
   </g>
   <g id="patch_44">
    <path d="M 340.180654 245.93875 
L 346.541819 245.93875 
L 346.541819 245.93875 
L 340.180654 245.93875 
z
" clip-path="url(#p99af8ccffe)" style="fill: #1f77b4"/>
   </g>
   <g id="patch_45">
    <path d="M 346.541819 245.93875 
L 352.902983 245.93875 
L 352.902983 245.93875 
L 346.541819 245.93875 
z
" clip-path="url(#p99af8ccffe)" style="fill: #1f77b4"/>
   </g>
   <g id="patch_46">
    <path d="M 352.902983 245.93875 
L 359.264148 245.93875 
L 359.264148 245.93875 
L 352.902983 245.93875 
z
" clip-path="url(#p99af8ccffe)" style="fill: #1f77b4"/>
   </g>
   <g id="patch_47">
    <path d="M 359.264148 245.93875 
L 365.625312 245.93875 
L 365.625312 245.93875 
L 359.264148 245.93875 
z
" clip-path="url(#p99af8ccffe)" style="fill: #1f77b4"/>
   </g>
   <g id="patch_48">
    <path d="M 365.625312 245.93875 
L 371.986476 245.93875 
L 371.986476 245.93875 
L 365.625312 245.93875 
z
" clip-path="url(#p99af8ccffe)" style="fill: #1f77b4"/>
   </g>
   <g id="patch_49">
    <path d="M 371.986476 245.93875 
L 378.347641 245.93875 
L 378.347641 245.93875 
L 371.986476 245.93875 
z
" clip-path="url(#p99af8ccffe)" style="fill: #1f77b4"/>
   </g>
   <g id="patch_50">
    <path d="M 378.347641 245.93875 
L 384.708805 245.93875 
L 384.708805 245.922891 
L 378.347641 245.922891 
z
" clip-path="url(#p99af8ccffe)" style="fill: #1f77b4"/>
   </g>
   <g id="patch_51">
    <path d="M 384.708805 245.93875 
L 391.06997 245.93875 
L 391.06997 245.93875 
L 384.708805 245.93875 
z
" clip-path="url(#p99af8ccffe)" style="fill: #1f77b4"/>
   </g>
   <g id="patch_52">
    <path d="M 391.06997 245.93875 
L 397.431134 245.93875 
L 397.431134 245.922891 
L 391.06997 245.922891 
z
" clip-path="url(#p99af8ccffe)" style="fill: #1f77b4"/>
   </g>
   <g id="matplotlib.axis_1">
    <g id="xtick_1">
     <g id="line2d_1">
      <path d="M 66.677326 245.93875 
L 66.677326 26.88 
" clip-path="url(#p99af8ccffe)" style="fill: none; stroke: #b0b0b0; stroke-width: 0.8; stroke-linecap: square"/>
     </g>
     <g id="line2d_2">
      <defs>
       <path id="m64be7de155" d="M 0 0 
L 0 3.5 
" style="stroke: #000000; stroke-width: 0.8"/>
      </defs>
      <g>
       <use xlink:href="#m64be7de155" x="66.677326" y="245.93875" style="stroke: #000000; stroke-width: 0.8"/>
      </g>
     </g>
     <g id="text_1">
      <!-- −0.100 -->
      <g transform="translate(48.17342 260.537188) scale(0.1 -0.1)">
       <defs>
        <path id="DejaVuSans-2212" d="M 678 2272 
L 4684 2272 
L 4684 1741 
L 678 1741 
L 678 2272 
z
" transform="scale(0.015625)"/>
        <path id="DejaVuSans-30" d="M 2034 4250 
Q 1547 4250 1301 3770 
Q 1056 3291 1056 2328 
Q 1056 1369 1301 889 
Q 1547 409 2034 409 
Q 2525 409 2770 889 
Q 3016 1369 3016 2328 
Q 3016 3291 2770 3770 
Q 2525 4250 2034 4250 
z
M 2034 4750 
Q 2819 4750 3233 4129 
Q 3647 3509 3647 2328 
Q 3647 1150 3233 529 
Q 2819 -91 2034 -91 
Q 1250 -91 836 529 
Q 422 1150 422 2328 
Q 422 3509 836 4129 
Q 1250 4750 2034 4750 
z
" transform="scale(0.015625)"/>
        <path id="DejaVuSans-2e" d="M 684 794 
L 1344 794 
L 1344 0 
L 684 0 
L 684 794 
z
" transform="scale(0.015625)"/>
        <path id="DejaVuSans-31" d="M 794 531 
L 1825 531 
L 1825 4091 
L 703 3866 
L 703 4441 
L 1819 4666 
L 2450 4666 
L 2450 531 
L 3481 531 
L 3481 0 
L 794 0 
L 794 531 
z
" transform="scale(0.015625)"/>
       </defs>
       <use xlink:href="#DejaVuSans-2212"/>
       <use xlink:href="#DejaVuSans-30" transform="translate(83.789062 0)"/>
       <use xlink:href="#DejaVuSans-2e" transform="translate(147.412109 0)"/>
       <use xlink:href="#DejaVuSans-31" transform="translate(179.199219 0)"/>
       <use xlink:href="#DejaVuSans-30" transform="translate(242.822266 0)"/>
       <use xlink:href="#DejaVuSans-30" transform="translate(306.445312 0)"/>
      </g>
     </g>
    </g>
    <g id="xtick_2">
     <g id="line2d_3">
      <path d="M 109.179424 245.93875 
L 109.179424 26.88 
" clip-path="url(#p99af8ccffe)" style="fill: none; stroke: #b0b0b0; stroke-width: 0.8; stroke-linecap: square"/>
     </g>
     <g id="line2d_4">
      <g>
       <use xlink:href="#m64be7de155" x="109.179424" y="245.93875" style="stroke: #000000; stroke-width: 0.8"/>
      </g>
     </g>
     <g id="text_2">
      <!-- −0.075 -->
      <g transform="translate(90.675518 260.537188) scale(0.1 -0.1)">
       <defs>
        <path id="DejaVuSans-37" d="M 525 4666 
L 3525 4666 
L 3525 4397 
L 1831 0 
L 1172 0 
L 2766 4134 
L 525 4134 
L 525 4666 
z
" transform="scale(0.015625)"/>
        <path id="DejaVuSans-35" d="M 691 4666 
L 3169 4666 
L 3169 4134 
L 1269 4134 
L 1269 2991 
Q 1406 3038 1543 3061 
Q 1681 3084 1819 3084 
Q 2600 3084 3056 2656 
Q 3513 2228 3513 1497 
Q 3513 744 3044 326 
Q 2575 -91 1722 -91 
Q 1428 -91 1123 -41 
Q 819 9 494 109 
L 494 744 
Q 775 591 1075 516 
Q 1375 441 1709 441 
Q 2250 441 2565 725 
Q 2881 1009 2881 1497 
Q 2881 1984 2565 2268 
Q 2250 2553 1709 2553 
Q 1456 2553 1204 2497 
Q 953 2441 691 2322 
L 691 4666 
z
" transform="scale(0.015625)"/>
       </defs>
       <use xlink:href="#DejaVuSans-2212"/>
       <use xlink:href="#DejaVuSans-30" transform="translate(83.789062 0)"/>
       <use xlink:href="#DejaVuSans-2e" transform="translate(147.412109 0)"/>
       <use xlink:href="#DejaVuSans-30" transform="translate(179.199219 0)"/>
       <use xlink:href="#DejaVuSans-37" transform="translate(242.822266 0)"/>
       <use xlink:href="#DejaVuSans-35" transform="translate(306.445312 0)"/>
      </g>
     </g>
    </g>
    <g id="xtick_3">
     <g id="line2d_5">
      <path d="M 151.681521 245.93875 
L 151.681521 26.88 
" clip-path="url(#p99af8ccffe)" style="fill: none; stroke: #b0b0b0; stroke-width: 0.8; stroke-linecap: square"/>
     </g>
     <g id="line2d_6">
      <g>
       <use xlink:href="#m64be7de155" x="151.681521" y="245.93875" style="stroke: #000000; stroke-width: 0.8"/>
      </g>
     </g>
     <g id="text_3">
      <!-- −0.050 -->
      <g transform="translate(133.177615 260.537188) scale(0.1 -0.1)">
       <use xlink:href="#DejaVuSans-2212"/>
       <use xlink:href="#DejaVuSans-30" transform="translate(83.789062 0)"/>
       <use xlink:href="#DejaVuSans-2e" transform="translate(147.412109 0)"/>
       <use xlink:href="#DejaVuSans-30" transform="translate(179.199219 0)"/>
       <use xlink:href="#DejaVuSans-35" transform="translate(242.822266 0)"/>
       <use xlink:href="#DejaVuSans-30" transform="translate(306.445312 0)"/>
      </g>
     </g>
    </g>
    <g id="xtick_4">
     <g id="line2d_7">
      <path d="M 194.183618 245.93875 
L 194.183618 26.88 
" clip-path="url(#p99af8ccffe)" style="fill: none; stroke: #b0b0b0; stroke-width: 0.8; stroke-linecap: square"/>
     </g>
     <g id="line2d_8">
      <g>
       <use xlink:href="#m64be7de155" x="194.183618" y="245.93875" style="stroke: #000000; stroke-width: 0.8"/>
      </g>
     </g>
     <g id="text_4">
      <!-- −0.025 -->
      <g transform="translate(175.679712 260.537188) scale(0.1 -0.1)">
       <defs>
        <path id="DejaVuSans-32" d="M 1228 531 
L 3431 531 
L 3431 0 
L 469 0 
L 469 531 
Q 828 903 1448 1529 
Q 2069 2156 2228 2338 
Q 2531 2678 2651 2914 
Q 2772 3150 2772 3378 
Q 2772 3750 2511 3984 
Q 2250 4219 1831 4219 
Q 1534 4219 1204 4116 
Q 875 4013 500 3803 
L 500 4441 
Q 881 4594 1212 4672 
Q 1544 4750 1819 4750 
Q 2544 4750 2975 4387 
Q 3406 4025 3406 3419 
Q 3406 3131 3298 2873 
Q 3191 2616 2906 2266 
Q 2828 2175 2409 1742 
Q 1991 1309 1228 531 
z
" transform="scale(0.015625)"/>
       </defs>
       <use xlink:href="#DejaVuSans-2212"/>
       <use xlink:href="#DejaVuSans-30" transform="translate(83.789062 0)"/>
       <use xlink:href="#DejaVuSans-2e" transform="translate(147.412109 0)"/>
       <use xlink:href="#DejaVuSans-30" transform="translate(179.199219 0)"/>
       <use xlink:href="#DejaVuSans-32" transform="translate(242.822266 0)"/>
       <use xlink:href="#DejaVuSans-35" transform="translate(306.445312 0)"/>
      </g>
     </g>
    </g>
    <g id="xtick_5">
     <g id="line2d_9">
      <path d="M 236.685716 245.93875 
L 236.685716 26.88 
" clip-path="url(#p99af8ccffe)" style="fill: none; stroke: #b0b0b0; stroke-width: 0.8; stroke-linecap: square"/>
     </g>
     <g id="line2d_10">
      <g>
       <use xlink:href="#m64be7de155" x="236.685716" y="245.93875" style="stroke: #000000; stroke-width: 0.8"/>
      </g>
     </g>
     <g id="text_5">
      <!-- 0.000 -->
      <g transform="translate(222.371653 260.537188) scale(0.1 -0.1)">
       <use xlink:href="#DejaVuSans-30"/>
       <use xlink:href="#DejaVuSans-2e" transform="translate(63.623047 0)"/>
       <use xlink:href="#DejaVuSans-30" transform="translate(95.410156 0)"/>
       <use xlink:href="#DejaVuSans-30" transform="translate(159.033203 0)"/>
       <use xlink:href="#DejaVuSans-30" transform="translate(222.65625 0)"/>
      </g>
     </g>
    </g>
    <g id="xtick_6">
     <g id="line2d_11">
      <path d="M 279.187813 245.93875 
L 279.187813 26.88 
" clip-path="url(#p99af8ccffe)" style="fill: none; stroke: #b0b0b0; stroke-width: 0.8; stroke-linecap: square"/>
     </g>
     <g id="line2d_12">
      <g>
       <use xlink:href="#m64be7de155" x="279.187813" y="245.93875" style="stroke: #000000; stroke-width: 0.8"/>
      </g>
     </g>
     <g id="text_6">
      <!-- 0.025 -->
      <g transform="translate(264.873751 260.537188) scale(0.1 -0.1)">
       <use xlink:href="#DejaVuSans-30"/>
       <use xlink:href="#DejaVuSans-2e" transform="translate(63.623047 0)"/>
       <use xlink:href="#DejaVuSans-30" transform="translate(95.410156 0)"/>
       <use xlink:href="#DejaVuSans-32" transform="translate(159.033203 0)"/>
       <use xlink:href="#DejaVuSans-35" transform="translate(222.65625 0)"/>
      </g>
     </g>
    </g>
    <g id="xtick_7">
     <g id="line2d_13">
      <path d="M 321.68991 245.93875 
L 321.68991 26.88 
" clip-path="url(#p99af8ccffe)" style="fill: none; stroke: #b0b0b0; stroke-width: 0.8; stroke-linecap: square"/>
     </g>
     <g id="line2d_14">
      <g>
       <use xlink:href="#m64be7de155" x="321.68991" y="245.93875" style="stroke: #000000; stroke-width: 0.8"/>
      </g>
     </g>
     <g id="text_7">
      <!-- 0.050 -->
      <g transform="translate(307.375848 260.537188) scale(0.1 -0.1)">
       <use xlink:href="#DejaVuSans-30"/>
       <use xlink:href="#DejaVuSans-2e" transform="translate(63.623047 0)"/>
       <use xlink:href="#DejaVuSans-30" transform="translate(95.410156 0)"/>
       <use xlink:href="#DejaVuSans-35" transform="translate(159.033203 0)"/>
       <use xlink:href="#DejaVuSans-30" transform="translate(222.65625 0)"/>
      </g>
     </g>
    </g>
    <g id="xtick_8">
     <g id="line2d_15">
      <path d="M 364.192008 245.93875 
L 364.192008 26.88 
" clip-path="url(#p99af8ccffe)" style="fill: none; stroke: #b0b0b0; stroke-width: 0.8; stroke-linecap: square"/>
     </g>
     <g id="line2d_16">
      <g>
       <use xlink:href="#m64be7de155" x="364.192008" y="245.93875" style="stroke: #000000; stroke-width: 0.8"/>
      </g>
     </g>
     <g id="text_8">
      <!-- 0.075 -->
      <g transform="translate(349.877945 260.537188) scale(0.1 -0.1)">
       <use xlink:href="#DejaVuSans-30"/>
       <use xlink:href="#DejaVuSans-2e" transform="translate(63.623047 0)"/>
       <use xlink:href="#DejaVuSans-30" transform="translate(95.410156 0)"/>
       <use xlink:href="#DejaVuSans-37" transform="translate(159.033203 0)"/>
       <use xlink:href="#DejaVuSans-35" transform="translate(222.65625 0)"/>
      </g>
     </g>
    </g>
    <g id="xtick_9">
     <g id="line2d_17">
      <path d="M 406.694105 245.93875 
L 406.694105 26.88 
" clip-path="url(#p99af8ccffe)" style="fill: none; stroke: #b0b0b0; stroke-width: 0.8; stroke-linecap: square"/>
     </g>
     <g id="line2d_18">
      <g>
       <use xlink:href="#m64be7de155" x="406.694105" y="245.93875" style="stroke: #000000; stroke-width: 0.8"/>
      </g>
     </g>
     <g id="text_9">
      <!-- 0.100 -->
      <g transform="translate(392.380043 260.537188) scale(0.1 -0.1)">
       <use xlink:href="#DejaVuSans-30"/>
       <use xlink:href="#DejaVuSans-2e" transform="translate(63.623047 0)"/>
       <use xlink:href="#DejaVuSans-31" transform="translate(95.410156 0)"/>
       <use xlink:href="#DejaVuSans-30" transform="translate(159.033203 0)"/>
       <use xlink:href="#DejaVuSans-30" transform="translate(222.65625 0)"/>
      </g>
     </g>
    </g>
    <g id="text_10">
     <!-- steering_speed_gaussian_smooth -->
     <g transform="translate(154.329367 274.215312) scale(0.1 -0.1)">
      <defs>
       <path id="DejaVuSans-73" d="M 2834 3397 
L 2834 2853 
Q 2591 2978 2328 3040 
Q 2066 3103 1784 3103 
Q 1356 3103 1142 2972 
Q 928 2841 928 2578 
Q 928 2378 1081 2264 
Q 1234 2150 1697 2047 
L 1894 2003 
Q 2506 1872 2764 1633 
Q 3022 1394 3022 966 
Q 3022 478 2636 193 
Q 2250 -91 1575 -91 
Q 1294 -91 989 -36 
Q 684 19 347 128 
L 347 722 
Q 666 556 975 473 
Q 1284 391 1588 391 
Q 1994 391 2212 530 
Q 2431 669 2431 922 
Q 2431 1156 2273 1281 
Q 2116 1406 1581 1522 
L 1381 1569 
Q 847 1681 609 1914 
Q 372 2147 372 2553 
Q 372 3047 722 3315 
Q 1072 3584 1716 3584 
Q 2034 3584 2315 3537 
Q 2597 3491 2834 3397 
z
" transform="scale(0.015625)"/>
       <path id="DejaVuSans-74" d="M 1172 4494 
L 1172 3500 
L 2356 3500 
L 2356 3053 
L 1172 3053 
L 1172 1153 
Q 1172 725 1289 603 
Q 1406 481 1766 481 
L 2356 481 
L 2356 0 
L 1766 0 
Q 1100 0 847 248 
Q 594 497 594 1153 
L 594 3053 
L 172 3053 
L 172 3500 
L 594 3500 
L 594 4494 
L 1172 4494 
z
" transform="scale(0.015625)"/>
       <path id="DejaVuSans-65" d="M 3597 1894 
L 3597 1613 
L 953 1613 
Q 991 1019 1311 708 
Q 1631 397 2203 397 
Q 2534 397 2845 478 
Q 3156 559 3463 722 
L 3463 178 
Q 3153 47 2828 -22 
Q 2503 -91 2169 -91 
Q 1331 -91 842 396 
Q 353 884 353 1716 
Q 353 2575 817 3079 
Q 1281 3584 2069 3584 
Q 2775 3584 3186 3129 
Q 3597 2675 3597 1894 
z
M 3022 2063 
Q 3016 2534 2758 2815 
Q 2500 3097 2075 3097 
Q 1594 3097 1305 2825 
Q 1016 2553 972 2059 
L 3022 2063 
z
" transform="scale(0.015625)"/>
       <path id="DejaVuSans-72" d="M 2631 2963 
Q 2534 3019 2420 3045 
Q 2306 3072 2169 3072 
Q 1681 3072 1420 2755 
Q 1159 2438 1159 1844 
L 1159 0 
L 581 0 
L 581 3500 
L 1159 3500 
L 1159 2956 
Q 1341 3275 1631 3429 
Q 1922 3584 2338 3584 
Q 2397 3584 2469 3576 
Q 2541 3569 2628 3553 
L 2631 2963 
z
" transform="scale(0.015625)"/>
       <path id="DejaVuSans-69" d="M 603 3500 
L 1178 3500 
L 1178 0 
L 603 0 
L 603 3500 
z
M 603 4863 
L 1178 4863 
L 1178 4134 
L 603 4134 
L 603 4863 
z
" transform="scale(0.015625)"/>
       <path id="DejaVuSans-6e" d="M 3513 2113 
L 3513 0 
L 2938 0 
L 2938 2094 
Q 2938 2591 2744 2837 
Q 2550 3084 2163 3084 
Q 1697 3084 1428 2787 
Q 1159 2491 1159 1978 
L 1159 0 
L 581 0 
L 581 3500 
L 1159 3500 
L 1159 2956 
Q 1366 3272 1645 3428 
Q 1925 3584 2291 3584 
Q 2894 3584 3203 3211 
Q 3513 2838 3513 2113 
z
" transform="scale(0.015625)"/>
       <path id="DejaVuSans-67" d="M 2906 1791 
Q 2906 2416 2648 2759 
Q 2391 3103 1925 3103 
Q 1463 3103 1205 2759 
Q 947 2416 947 1791 
Q 947 1169 1205 825 
Q 1463 481 1925 481 
Q 2391 481 2648 825 
Q 2906 1169 2906 1791 
z
M 3481 434 
Q 3481 -459 3084 -895 
Q 2688 -1331 1869 -1331 
Q 1566 -1331 1297 -1286 
Q 1028 -1241 775 -1147 
L 775 -588 
Q 1028 -725 1275 -790 
Q 1522 -856 1778 -856 
Q 2344 -856 2625 -561 
Q 2906 -266 2906 331 
L 2906 616 
Q 2728 306 2450 153 
Q 2172 0 1784 0 
Q 1141 0 747 490 
Q 353 981 353 1791 
Q 353 2603 747 3093 
Q 1141 3584 1784 3584 
Q 2172 3584 2450 3431 
Q 2728 3278 2906 2969 
L 2906 3500 
L 3481 3500 
L 3481 434 
z
" transform="scale(0.015625)"/>
       <path id="DejaVuSans-5f" d="M 3263 -1063 
L 3263 -1509 
L -63 -1509 
L -63 -1063 
L 3263 -1063 
z
" transform="scale(0.015625)"/>
       <path id="DejaVuSans-70" d="M 1159 525 
L 1159 -1331 
L 581 -1331 
L 581 3500 
L 1159 3500 
L 1159 2969 
Q 1341 3281 1617 3432 
Q 1894 3584 2278 3584 
Q 2916 3584 3314 3078 
Q 3713 2572 3713 1747 
Q 3713 922 3314 415 
Q 2916 -91 2278 -91 
Q 1894 -91 1617 61 
Q 1341 213 1159 525 
z
M 3116 1747 
Q 3116 2381 2855 2742 
Q 2594 3103 2138 3103 
Q 1681 3103 1420 2742 
Q 1159 2381 1159 1747 
Q 1159 1113 1420 752 
Q 1681 391 2138 391 
Q 2594 391 2855 752 
Q 3116 1113 3116 1747 
z
" transform="scale(0.015625)"/>
       <path id="DejaVuSans-64" d="M 2906 2969 
L 2906 4863 
L 3481 4863 
L 3481 0 
L 2906 0 
L 2906 525 
Q 2725 213 2448 61 
Q 2172 -91 1784 -91 
Q 1150 -91 751 415 
Q 353 922 353 1747 
Q 353 2572 751 3078 
Q 1150 3584 1784 3584 
Q 2172 3584 2448 3432 
Q 2725 3281 2906 2969 
z
M 947 1747 
Q 947 1113 1208 752 
Q 1469 391 1925 391 
Q 2381 391 2643 752 
Q 2906 1113 2906 1747 
Q 2906 2381 2643 2742 
Q 2381 3103 1925 3103 
Q 1469 3103 1208 2742 
Q 947 2381 947 1747 
z
" transform="scale(0.015625)"/>
       <path id="DejaVuSans-61" d="M 2194 1759 
Q 1497 1759 1228 1600 
Q 959 1441 959 1056 
Q 959 750 1161 570 
Q 1363 391 1709 391 
Q 2188 391 2477 730 
Q 2766 1069 2766 1631 
L 2766 1759 
L 2194 1759 
z
M 3341 1997 
L 3341 0 
L 2766 0 
L 2766 531 
Q 2569 213 2275 61 
Q 1981 -91 1556 -91 
Q 1019 -91 701 211 
Q 384 513 384 1019 
Q 384 1609 779 1909 
Q 1175 2209 1959 2209 
L 2766 2209 
L 2766 2266 
Q 2766 2663 2505 2880 
Q 2244 3097 1772 3097 
Q 1472 3097 1187 3025 
Q 903 2953 641 2809 
L 641 3341 
Q 956 3463 1253 3523 
Q 1550 3584 1831 3584 
Q 2591 3584 2966 3190 
Q 3341 2797 3341 1997 
z
" transform="scale(0.015625)"/>
       <path id="DejaVuSans-75" d="M 544 1381 
L 544 3500 
L 1119 3500 
L 1119 1403 
Q 1119 906 1312 657 
Q 1506 409 1894 409 
Q 2359 409 2629 706 
Q 2900 1003 2900 1516 
L 2900 3500 
L 3475 3500 
L 3475 0 
L 2900 0 
L 2900 538 
Q 2691 219 2414 64 
Q 2138 -91 1772 -91 
Q 1169 -91 856 284 
Q 544 659 544 1381 
z
M 1991 3584 
L 1991 3584 
z
" transform="scale(0.015625)"/>
       <path id="DejaVuSans-6d" d="M 3328 2828 
Q 3544 3216 3844 3400 
Q 4144 3584 4550 3584 
Q 5097 3584 5394 3201 
Q 5691 2819 5691 2113 
L 5691 0 
L 5113 0 
L 5113 2094 
Q 5113 2597 4934 2840 
Q 4756 3084 4391 3084 
Q 3944 3084 3684 2787 
Q 3425 2491 3425 1978 
L 3425 0 
L 2847 0 
L 2847 2094 
Q 2847 2600 2669 2842 
Q 2491 3084 2119 3084 
Q 1678 3084 1418 2786 
Q 1159 2488 1159 1978 
L 1159 0 
L 581 0 
L 581 3500 
L 1159 3500 
L 1159 2956 
Q 1356 3278 1631 3431 
Q 1906 3584 2284 3584 
Q 2666 3584 2933 3390 
Q 3200 3197 3328 2828 
z
" transform="scale(0.015625)"/>
       <path id="DejaVuSans-6f" d="M 1959 3097 
Q 1497 3097 1228 2736 
Q 959 2375 959 1747 
Q 959 1119 1226 758 
Q 1494 397 1959 397 
Q 2419 397 2687 759 
Q 2956 1122 2956 1747 
Q 2956 2369 2687 2733 
Q 2419 3097 1959 3097 
z
M 1959 3584 
Q 2709 3584 3137 3096 
Q 3566 2609 3566 1747 
Q 3566 888 3137 398 
Q 2709 -91 1959 -91 
Q 1206 -91 779 398 
Q 353 888 353 1747 
Q 353 2609 779 3096 
Q 1206 3584 1959 3584 
z
" transform="scale(0.015625)"/>
       <path id="DejaVuSans-68" d="M 3513 2113 
L 3513 0 
L 2938 0 
L 2938 2094 
Q 2938 2591 2744 2837 
Q 2550 3084 2163 3084 
Q 1697 3084 1428 2787 
Q 1159 2491 1159 1978 
L 1159 0 
L 581 0 
L 581 4863 
L 1159 4863 
L 1159 2956 
Q 1366 3272 1645 3428 
Q 1925 3584 2291 3584 
Q 2894 3584 3203 3211 
Q 3513 2838 3513 2113 
z
" transform="scale(0.015625)"/>
      </defs>
      <use xlink:href="#DejaVuSans-73"/>
      <use xlink:href="#DejaVuSans-74" transform="translate(52.099609 0)"/>
      <use xlink:href="#DejaVuSans-65" transform="translate(91.308594 0)"/>
      <use xlink:href="#DejaVuSans-65" transform="translate(152.832031 0)"/>
      <use xlink:href="#DejaVuSans-72" transform="translate(214.355469 0)"/>
      <use xlink:href="#DejaVuSans-69" transform="translate(255.46875 0)"/>
      <use xlink:href="#DejaVuSans-6e" transform="translate(283.251953 0)"/>
      <use xlink:href="#DejaVuSans-67" transform="translate(346.630859 0)"/>
      <use xlink:href="#DejaVuSans-5f" transform="translate(410.107422 0)"/>
      <use xlink:href="#DejaVuSans-73" transform="translate(460.107422 0)"/>
      <use xlink:href="#DejaVuSans-70" transform="translate(512.207031 0)"/>
      <use xlink:href="#DejaVuSans-65" transform="translate(575.683594 0)"/>
      <use xlink:href="#DejaVuSans-65" transform="translate(637.207031 0)"/>
      <use xlink:href="#DejaVuSans-64" transform="translate(698.730469 0)"/>
      <use xlink:href="#DejaVuSans-5f" transform="translate(762.207031 0)"/>
      <use xlink:href="#DejaVuSans-67" transform="translate(812.207031 0)"/>
      <use xlink:href="#DejaVuSans-61" transform="translate(875.683594 0)"/>
      <use xlink:href="#DejaVuSans-75" transform="translate(936.962891 0)"/>
      <use xlink:href="#DejaVuSans-73" transform="translate(1000.341797 0)"/>
      <use xlink:href="#DejaVuSans-73" transform="translate(1052.441406 0)"/>
      <use xlink:href="#DejaVuSans-69" transform="translate(1104.541016 0)"/>
      <use xlink:href="#DejaVuSans-61" transform="translate(1132.324219 0)"/>
      <use xlink:href="#DejaVuSans-6e" transform="translate(1193.603516 0)"/>
      <use xlink:href="#DejaVuSans-5f" transform="translate(1256.982422 0)"/>
      <use xlink:href="#DejaVuSans-73" transform="translate(1306.982422 0)"/>
      <use xlink:href="#DejaVuSans-6d" transform="translate(1359.082031 0)"/>
      <use xlink:href="#DejaVuSans-6f" transform="translate(1456.494141 0)"/>
      <use xlink:href="#DejaVuSans-6f" transform="translate(1517.675781 0)"/>
      <use xlink:href="#DejaVuSans-74" transform="translate(1578.857422 0)"/>
      <use xlink:href="#DejaVuSans-68" transform="translate(1618.066406 0)"/>
     </g>
    </g>
   </g>
   <g id="matplotlib.axis_2">
    <g id="ytick_1">
     <g id="line2d_19">
      <path d="M 63.47 245.93875 
L 413.334046 245.93875 
" clip-path="url(#p99af8ccffe)" style="fill: none; stroke: #b0b0b0; stroke-width: 0.8; stroke-linecap: square"/>
     </g>
     <g id="line2d_20">
      <defs>
       <path id="mf2c4c5f28d" d="M 0 0 
L -3.5 0 
" style="stroke: #000000; stroke-width: 0.8"/>
      </defs>
      <g>
       <use xlink:href="#mf2c4c5f28d" x="63.47" y="245.93875" style="stroke: #000000; stroke-width: 0.8"/>
      </g>
     </g>
     <g id="text_11">
      <!-- 0 -->
      <g transform="translate(50.1075 249.737969) scale(0.1 -0.1)">
       <use xlink:href="#DejaVuSans-30"/>
      </g>
     </g>
    </g>
    <g id="ytick_2">
     <g id="line2d_21">
      <path d="M 63.47 214.22041 
L 413.334046 214.22041 
" clip-path="url(#p99af8ccffe)" style="fill: none; stroke: #b0b0b0; stroke-width: 0.8; stroke-linecap: square"/>
     </g>
     <g id="line2d_22">
      <g>
       <use xlink:href="#mf2c4c5f28d" x="63.47" y="214.22041" style="stroke: #000000; stroke-width: 0.8"/>
      </g>
     </g>
     <g id="text_12">
      <!-- 2000 -->
      <g transform="translate(31.02 218.019629) scale(0.1 -0.1)">
       <use xlink:href="#DejaVuSans-32"/>
       <use xlink:href="#DejaVuSans-30" transform="translate(63.623047 0)"/>
       <use xlink:href="#DejaVuSans-30" transform="translate(127.246094 0)"/>
       <use xlink:href="#DejaVuSans-30" transform="translate(190.869141 0)"/>
      </g>
     </g>
    </g>
    <g id="ytick_3">
     <g id="line2d_23">
      <path d="M 63.47 182.50207 
L 413.334046 182.50207 
" clip-path="url(#p99af8ccffe)" style="fill: none; stroke: #b0b0b0; stroke-width: 0.8; stroke-linecap: square"/>
     </g>
     <g id="line2d_24">
      <g>
       <use xlink:href="#mf2c4c5f28d" x="63.47" y="182.50207" style="stroke: #000000; stroke-width: 0.8"/>
      </g>
     </g>
     <g id="text_13">
      <!-- 4000 -->
      <g transform="translate(31.02 186.301289) scale(0.1 -0.1)">
       <defs>
        <path id="DejaVuSans-34" d="M 2419 4116 
L 825 1625 
L 2419 1625 
L 2419 4116 
z
M 2253 4666 
L 3047 4666 
L 3047 1625 
L 3713 1625 
L 3713 1100 
L 3047 1100 
L 3047 0 
L 2419 0 
L 2419 1100 
L 313 1100 
L 313 1709 
L 2253 4666 
z
" transform="scale(0.015625)"/>
       </defs>
       <use xlink:href="#DejaVuSans-34"/>
       <use xlink:href="#DejaVuSans-30" transform="translate(63.623047 0)"/>
       <use xlink:href="#DejaVuSans-30" transform="translate(127.246094 0)"/>
       <use xlink:href="#DejaVuSans-30" transform="translate(190.869141 0)"/>
      </g>
     </g>
    </g>
    <g id="ytick_4">
     <g id="line2d_25">
      <path d="M 63.47 150.78373 
L 413.334046 150.78373 
" clip-path="url(#p99af8ccffe)" style="fill: none; stroke: #b0b0b0; stroke-width: 0.8; stroke-linecap: square"/>
     </g>
     <g id="line2d_26">
      <g>
       <use xlink:href="#mf2c4c5f28d" x="63.47" y="150.78373" style="stroke: #000000; stroke-width: 0.8"/>
      </g>
     </g>
     <g id="text_14">
      <!-- 6000 -->
      <g transform="translate(31.02 154.582949) scale(0.1 -0.1)">
       <defs>
        <path id="DejaVuSans-36" d="M 2113 2584 
Q 1688 2584 1439 2293 
Q 1191 2003 1191 1497 
Q 1191 994 1439 701 
Q 1688 409 2113 409 
Q 2538 409 2786 701 
Q 3034 994 3034 1497 
Q 3034 2003 2786 2293 
Q 2538 2584 2113 2584 
z
M 3366 4563 
L 3366 3988 
Q 3128 4100 2886 4159 
Q 2644 4219 2406 4219 
Q 1781 4219 1451 3797 
Q 1122 3375 1075 2522 
Q 1259 2794 1537 2939 
Q 1816 3084 2150 3084 
Q 2853 3084 3261 2657 
Q 3669 2231 3669 1497 
Q 3669 778 3244 343 
Q 2819 -91 2113 -91 
Q 1303 -91 875 529 
Q 447 1150 447 2328 
Q 447 3434 972 4092 
Q 1497 4750 2381 4750 
Q 2619 4750 2861 4703 
Q 3103 4656 3366 4563 
z
" transform="scale(0.015625)"/>
       </defs>
       <use xlink:href="#DejaVuSans-36"/>
       <use xlink:href="#DejaVuSans-30" transform="translate(63.623047 0)"/>
       <use xlink:href="#DejaVuSans-30" transform="translate(127.246094 0)"/>
       <use xlink:href="#DejaVuSans-30" transform="translate(190.869141 0)"/>
      </g>
     </g>
    </g>
    <g id="ytick_5">
     <g id="line2d_27">
      <path d="M 63.47 119.06539 
L 413.334046 119.06539 
" clip-path="url(#p99af8ccffe)" style="fill: none; stroke: #b0b0b0; stroke-width: 0.8; stroke-linecap: square"/>
     </g>
     <g id="line2d_28">
      <g>
       <use xlink:href="#mf2c4c5f28d" x="63.47" y="119.06539" style="stroke: #000000; stroke-width: 0.8"/>
      </g>
     </g>
     <g id="text_15">
      <!-- 8000 -->
      <g transform="translate(31.02 122.864609) scale(0.1 -0.1)">
       <defs>
        <path id="DejaVuSans-38" d="M 2034 2216 
Q 1584 2216 1326 1975 
Q 1069 1734 1069 1313 
Q 1069 891 1326 650 
Q 1584 409 2034 409 
Q 2484 409 2743 651 
Q 3003 894 3003 1313 
Q 3003 1734 2745 1975 
Q 2488 2216 2034 2216 
z
M 1403 2484 
Q 997 2584 770 2862 
Q 544 3141 544 3541 
Q 544 4100 942 4425 
Q 1341 4750 2034 4750 
Q 2731 4750 3128 4425 
Q 3525 4100 3525 3541 
Q 3525 3141 3298 2862 
Q 3072 2584 2669 2484 
Q 3125 2378 3379 2068 
Q 3634 1759 3634 1313 
Q 3634 634 3220 271 
Q 2806 -91 2034 -91 
Q 1263 -91 848 271 
Q 434 634 434 1313 
Q 434 1759 690 2068 
Q 947 2378 1403 2484 
z
M 1172 3481 
Q 1172 3119 1398 2916 
Q 1625 2713 2034 2713 
Q 2441 2713 2670 2916 
Q 2900 3119 2900 3481 
Q 2900 3844 2670 4047 
Q 2441 4250 2034 4250 
Q 1625 4250 1398 4047 
Q 1172 3844 1172 3481 
z
" transform="scale(0.015625)"/>
       </defs>
       <use xlink:href="#DejaVuSans-38"/>
       <use xlink:href="#DejaVuSans-30" transform="translate(63.623047 0)"/>
       <use xlink:href="#DejaVuSans-30" transform="translate(127.246094 0)"/>
       <use xlink:href="#DejaVuSans-30" transform="translate(190.869141 0)"/>
      </g>
     </g>
    </g>
    <g id="ytick_6">
     <g id="line2d_29">
      <path d="M 63.47 87.34705 
L 413.334046 87.34705 
" clip-path="url(#p99af8ccffe)" style="fill: none; stroke: #b0b0b0; stroke-width: 0.8; stroke-linecap: square"/>
     </g>
     <g id="line2d_30">
      <g>
       <use xlink:href="#mf2c4c5f28d" x="63.47" y="87.34705" style="stroke: #000000; stroke-width: 0.8"/>
      </g>
     </g>
     <g id="text_16">
      <!-- 10000 -->
      <g transform="translate(24.6575 91.146269) scale(0.1 -0.1)">
       <use xlink:href="#DejaVuSans-31"/>
       <use xlink:href="#DejaVuSans-30" transform="translate(63.623047 0)"/>
       <use xlink:href="#DejaVuSans-30" transform="translate(127.246094 0)"/>
       <use xlink:href="#DejaVuSans-30" transform="translate(190.869141 0)"/>
       <use xlink:href="#DejaVuSans-30" transform="translate(254.492188 0)"/>
      </g>
     </g>
    </g>
    <g id="ytick_7">
     <g id="line2d_31">
      <path d="M 63.47 55.62871 
L 413.334046 55.62871 
" clip-path="url(#p99af8ccffe)" style="fill: none; stroke: #b0b0b0; stroke-width: 0.8; stroke-linecap: square"/>
     </g>
     <g id="line2d_32">
      <g>
       <use xlink:href="#mf2c4c5f28d" x="63.47" y="55.62871" style="stroke: #000000; stroke-width: 0.8"/>
      </g>
     </g>
     <g id="text_17">
      <!-- 12000 -->
      <g transform="translate(24.6575 59.427929) scale(0.1 -0.1)">
       <use xlink:href="#DejaVuSans-31"/>
       <use xlink:href="#DejaVuSans-32" transform="translate(63.623047 0)"/>
       <use xlink:href="#DejaVuSans-30" transform="translate(127.246094 0)"/>
       <use xlink:href="#DejaVuSans-30" transform="translate(190.869141 0)"/>
       <use xlink:href="#DejaVuSans-30" transform="translate(254.492188 0)"/>
      </g>
     </g>
    </g>
    <g id="text_18">
     <!-- Count -->
     <g transform="translate(18.577812 151.257812) rotate(-90) scale(0.1 -0.1)">
      <defs>
       <path id="DejaVuSans-43" d="M 4122 4306 
L 4122 3641 
Q 3803 3938 3442 4084 
Q 3081 4231 2675 4231 
Q 1875 4231 1450 3742 
Q 1025 3253 1025 2328 
Q 1025 1406 1450 917 
Q 1875 428 2675 428 
Q 3081 428 3442 575 
Q 3803 722 4122 1019 
L 4122 359 
Q 3791 134 3420 21 
Q 3050 -91 2638 -91 
Q 1578 -91 968 557 
Q 359 1206 359 2328 
Q 359 3453 968 4101 
Q 1578 4750 2638 4750 
Q 3056 4750 3426 4639 
Q 3797 4528 4122 4306 
z
" transform="scale(0.015625)"/>
      </defs>
      <use xlink:href="#DejaVuSans-43"/>
      <use xlink:href="#DejaVuSans-6f" transform="translate(69.824219 0)"/>
      <use xlink:href="#DejaVuSans-75" transform="translate(131.005859 0)"/>
      <use xlink:href="#DejaVuSans-6e" transform="translate(194.384766 0)"/>
      <use xlink:href="#DejaVuSans-74" transform="translate(257.763672 0)"/>
     </g>
    </g>
   </g>
   <g id="patch_53">
    <path d="M 63.47 245.93875 
L 63.47 26.88 
" style="fill: none; stroke: #000000; stroke-width: 0.8; stroke-linejoin: miter; stroke-linecap: square"/>
   </g>
   <g id="patch_54">
    <path d="M 413.334046 245.93875 
L 413.334046 26.88 
" style="fill: none; stroke: #000000; stroke-width: 0.8; stroke-linejoin: miter; stroke-linecap: square"/>
   </g>
   <g id="patch_55">
    <path d="M 63.47 245.93875 
L 413.334046 245.93875 
" style="fill: none; stroke: #000000; stroke-width: 0.8; stroke-linejoin: miter; stroke-linecap: square"/>
   </g>
   <g id="patch_56">
    <path d="M 63.47 26.88 
L 413.334046 26.88 
" style="fill: none; stroke: #000000; stroke-width: 0.8; stroke-linejoin: miter; stroke-linecap: square"/>
   </g>
   <g id="text_19">
    <!-- steering_speed_gaussian_smooth -->
    <g transform="translate(137.514835 20.88) scale(0.12 -0.12)">
     <use xlink:href="#DejaVuSans-73"/>
     <use xlink:href="#DejaVuSans-74" transform="translate(52.099609 0)"/>
     <use xlink:href="#DejaVuSans-65" transform="translate(91.308594 0)"/>
     <use xlink:href="#DejaVuSans-65" transform="translate(152.832031 0)"/>
     <use xlink:href="#DejaVuSans-72" transform="translate(214.355469 0)"/>
     <use xlink:href="#DejaVuSans-69" transform="translate(255.46875 0)"/>
     <use xlink:href="#DejaVuSans-6e" transform="translate(283.251953 0)"/>
     <use xlink:href="#DejaVuSans-67" transform="translate(346.630859 0)"/>
     <use xlink:href="#DejaVuSans-5f" transform="translate(410.107422 0)"/>
     <use xlink:href="#DejaVuSans-73" transform="translate(460.107422 0)"/>
     <use xlink:href="#DejaVuSans-70" transform="translate(512.207031 0)"/>
     <use xlink:href="#DejaVuSans-65" transform="translate(575.683594 0)"/>
     <use xlink:href="#DejaVuSans-65" transform="translate(637.207031 0)"/>
     <use xlink:href="#DejaVuSans-64" transform="translate(698.730469 0)"/>
     <use xlink:href="#DejaVuSans-5f" transform="translate(762.207031 0)"/>
     <use xlink:href="#DejaVuSans-67" transform="translate(812.207031 0)"/>
     <use xlink:href="#DejaVuSans-61" transform="translate(875.683594 0)"/>
     <use xlink:href="#DejaVuSans-75" transform="translate(936.962891 0)"/>
     <use xlink:href="#DejaVuSans-73" transform="translate(1000.341797 0)"/>
     <use xlink:href="#DejaVuSans-73" transform="translate(1052.441406 0)"/>
     <use xlink:href="#DejaVuSans-69" transform="translate(1104.541016 0)"/>
     <use xlink:href="#DejaVuSans-61" transform="translate(1132.324219 0)"/>
     <use xlink:href="#DejaVuSans-6e" transform="translate(1193.603516 0)"/>
     <use xlink:href="#DejaVuSans-5f" transform="translate(1256.982422 0)"/>
     <use xlink:href="#DejaVuSans-73" transform="translate(1306.982422 0)"/>
     <use xlink:href="#DejaVuSans-6d" transform="translate(1359.082031 0)"/>
     <use xlink:href="#DejaVuSans-6f" transform="translate(1456.494141 0)"/>
     <use xlink:href="#DejaVuSans-6f" transform="translate(1517.675781 0)"/>
     <use xlink:href="#DejaVuSans-74" transform="translate(1578.857422 0)"/>
     <use xlink:href="#DejaVuSans-68" transform="translate(1618.066406 0)"/>
    </g>
   </g>
  </g>
 </g>
 <defs>
  <clipPath id="p99af8ccffe">
   <rect x="63.47" y="26.88" width="349.864046" height="219.05875"/>
  </clipPath>
 </defs>
</svg>
