<?xml version="1.0" encoding="utf-8" standalone="no"?>
<!DOCTYPE svg PUBLIC "-//W3C//DTD SVG 1.1//EN"
  "http://www.w3.org/Graphics/SVG/1.1/DTD/svg11.dtd">
<svg xmlns:xlink="http://www.w3.org/1999/xlink" width="432pt" height="288pt" viewBox="0 0 432 288" xmlns="http://www.w3.org/2000/svg" version="1.1">
 <metadata>
  <rdf:RDF xmlns:dc="http://purl.org/dc/elements/1.1/" xmlns:cc="http://creativecommons.org/ns#" xmlns:rdf="http://www.w3.org/1999/02/22-rdf-syntax-ns#">
   <cc:Work>
    <dc:type rdf:resource="http://purl.org/dc/dcmitype/StillImage"/>
    <dc:date>2025-06-15T13:54:42.893570</dc:date>
    <dc:format>image/svg+xml</dc:format>
    <dc:creator>
     <cc:Agent>
      <dc:title>Matplotlib v3.10.0, https://matplotlib.org/</dc:title>
     </cc:Agent>
    </dc:creator>
   </cc:Work>
  </rdf:RDF>
 </metadata>
 <defs>
  <style type="text/css">*{stroke-linejoin: round; stroke-linecap: butt}</style>
 </defs>
 <g id="figure_1">
  <g id="patch_1">
   <path d="M 0 288 
L 432 288 
L 432 0 
L 0 0 
z
" style="fill: #ffffff"/>
  </g>
  <g id="axes_1">
   <g id="patch_2">
    <path d="M 57.17 245.93875 
L 415.344364 245.93875 
L 415.344364 26.88 
L 57.17 26.88 
z
" style="fill: #ffffff"/>
   </g>
   <g id="patch_3">
    <path d="M 73.450653 245.93875 
L 79.962914 245.93875 
L 79.962914 37.311369 
L 73.450653 37.311369 
z
" clip-path="url(#pa3abc7b237)" style="fill: #1f77b4"/>
   </g>
   <g id="patch_4">
    <path d="M 79.962914 245.93875 
L 86.475175 245.93875 
L 86.475175 232.079535 
L 79.962914 232.079535 
z
" clip-path="url(#pa3abc7b237)" style="fill: #1f77b4"/>
   </g>
   <g id="patch_5">
    <path d="M 86.475175 245.93875 
L 92.987436 245.93875 
L 92.987436 241.540759 
L 86.475175 241.540759 
z
" clip-path="url(#pa3abc7b237)" style="fill: #1f77b4"/>
   </g>
   <g id="patch_6">
    <path d="M 92.987436 245.93875 
L 99.499698 245.93875 
L 99.499698 243.314739 
L 92.987436 243.314739 
z
" clip-path="url(#pa3abc7b237)" style="fill: #1f77b4"/>
   </g>
   <g id="patch_7">
    <path d="M 99.499698 245.93875 
L 106.011959 245.93875 
L 106.011959 244.682181 
L 99.499698 244.682181 
z
" clip-path="url(#pa3abc7b237)" style="fill: #1f77b4"/>
   </g>
   <g id="patch_8">
    <path d="M 106.011959 245.93875 
L 112.52422 245.93875 
L 112.52422 245.421339 
L 106.011959 245.421339 
z
" clip-path="url(#pa3abc7b237)" style="fill: #1f77b4"/>
   </g>
   <g id="patch_9">
    <path d="M 112.52422 245.93875 
L 119.036481 245.93875 
L 119.036481 245.569171 
L 112.52422 245.569171 
z
" clip-path="url(#pa3abc7b237)" style="fill: #1f77b4"/>
   </g>
   <g id="patch_10">
    <path d="M 119.036481 245.93875 
L 125.548742 245.93875 
L 125.548742 245.643087 
L 119.036481 245.643087 
z
" clip-path="url(#pa3abc7b237)" style="fill: #1f77b4"/>
   </g>
   <g id="patch_11">
    <path d="M 125.548742 245.93875 
L 132.061003 245.93875 
L 132.061003 245.864834 
L 125.548742 245.864834 
z
" clip-path="url(#pa3abc7b237)" style="fill: #1f77b4"/>
   </g>
   <g id="patch_12">
    <path d="M 132.061003 245.93875 
L 138.573264 245.93875 
L 138.573264 245.75396 
L 132.061003 245.75396 
z
" clip-path="url(#pa3abc7b237)" style="fill: #1f77b4"/>
   </g>
   <g id="patch_13">
    <path d="M 138.573264 245.93875 
L 145.085526 245.93875 
L 145.085526 245.864834 
L 138.573264 245.864834 
z
" clip-path="url(#pa3abc7b237)" style="fill: #1f77b4"/>
   </g>
   <g id="patch_14">
    <path d="M 145.085526 245.93875 
L 151.597787 245.93875 
L 151.597787 245.864834 
L 145.085526 245.864834 
z
" clip-path="url(#pa3abc7b237)" style="fill: #1f77b4"/>
   </g>
   <g id="patch_15">
    <path d="M 151.597787 245.93875 
L 158.110048 245.93875 
L 158.110048 245.864834 
L 151.597787 245.864834 
z
" clip-path="url(#pa3abc7b237)" style="fill: #1f77b4"/>
   </g>
   <g id="patch_16">
    <path d="M 158.110048 245.93875 
L 164.622309 245.93875 
L 164.622309 245.901792 
L 158.110048 245.901792 
z
" clip-path="url(#pa3abc7b237)" style="fill: #1f77b4"/>
   </g>
   <g id="patch_17">
    <path d="M 164.622309 245.93875 
L 171.13457 245.93875 
L 171.13457 245.93875 
L 164.622309 245.93875 
z
" clip-path="url(#pa3abc7b237)" style="fill: #1f77b4"/>
   </g>
   <g id="patch_18">
    <path d="M 171.13457 245.93875 
L 177.646831 245.93875 
L 177.646831 245.901792 
L 171.13457 245.901792 
z
" clip-path="url(#pa3abc7b237)" style="fill: #1f77b4"/>
   </g>
   <g id="patch_19">
    <path d="M 177.646831 245.93875 
L 184.159093 245.93875 
L 184.159093 245.901792 
L 177.646831 245.901792 
z
" clip-path="url(#pa3abc7b237)" style="fill: #1f77b4"/>
   </g>
   <g id="patch_20">
    <path d="M 184.159093 245.93875 
L 190.671354 245.93875 
L 190.671354 245.93875 
L 184.159093 245.93875 
z
" clip-path="url(#pa3abc7b237)" style="fill: #1f77b4"/>
   </g>
   <g id="patch_21">
    <path d="M 190.671354 245.93875 
L 197.183615 245.93875 
L 197.183615 245.93875 
L 190.671354 245.93875 
z
" clip-path="url(#pa3abc7b237)" style="fill: #1f77b4"/>
   </g>
   <g id="patch_22">
    <path d="M 197.183615 245.93875 
L 203.695876 245.93875 
L 203.695876 245.93875 
L 197.183615 245.93875 
z
" clip-path="url(#pa3abc7b237)" style="fill: #1f77b4"/>
   </g>
   <g id="patch_23">
    <path d="M 203.695876 245.93875 
L 210.208137 245.93875 
L 210.208137 245.93875 
L 203.695876 245.93875 
z
" clip-path="url(#pa3abc7b237)" style="fill: #1f77b4"/>
   </g>
   <g id="patch_24">
    <path d="M 210.208137 245.93875 
L 216.720398 245.93875 
L 216.720398 245.93875 
L 210.208137 245.93875 
z
" clip-path="url(#pa3abc7b237)" style="fill: #1f77b4"/>
   </g>
   <g id="patch_25">
    <path d="M 216.720398 245.93875 
L 223.232659 245.93875 
L 223.232659 245.93875 
L 216.720398 245.93875 
z
" clip-path="url(#pa3abc7b237)" style="fill: #1f77b4"/>
   </g>
   <g id="patch_26">
    <path d="M 223.232659 245.93875 
L 229.744921 245.93875 
L 229.744921 245.93875 
L 223.232659 245.93875 
z
" clip-path="url(#pa3abc7b237)" style="fill: #1f77b4"/>
   </g>
   <g id="patch_27">
    <path d="M 229.744921 245.93875 
L 236.257182 245.93875 
L 236.257182 245.93875 
L 229.744921 245.93875 
z
" clip-path="url(#pa3abc7b237)" style="fill: #1f77b4"/>
   </g>
   <g id="patch_28">
    <path d="M 236.257182 245.93875 
L 242.769443 245.93875 
L 242.769443 245.93875 
L 236.257182 245.93875 
z
" clip-path="url(#pa3abc7b237)" style="fill: #1f77b4"/>
   </g>
   <g id="patch_29">
    <path d="M 242.769443 245.93875 
L 249.281704 245.93875 
L 249.281704 245.93875 
L 242.769443 245.93875 
z
" clip-path="url(#pa3abc7b237)" style="fill: #1f77b4"/>
   </g>
   <g id="patch_30">
    <path d="M 249.281704 245.93875 
L 255.793965 245.93875 
L 255.793965 245.93875 
L 249.281704 245.93875 
z
" clip-path="url(#pa3abc7b237)" style="fill: #1f77b4"/>
   </g>
   <g id="patch_31">
    <path d="M 255.793965 245.93875 
L 262.306226 245.93875 
L 262.306226 245.901792 
L 255.793965 245.901792 
z
" clip-path="url(#pa3abc7b237)" style="fill: #1f77b4"/>
   </g>
   <g id="patch_32">
    <path d="M 262.306226 245.93875 
L 268.818488 245.93875 
L 268.818488 245.93875 
L 262.306226 245.93875 
z
" clip-path="url(#pa3abc7b237)" style="fill: #1f77b4"/>
   </g>
   <g id="patch_33">
    <path d="M 268.818488 245.93875 
L 275.330749 245.93875 
L 275.330749 245.93875 
L 268.818488 245.93875 
z
" clip-path="url(#pa3abc7b237)" style="fill: #1f77b4"/>
   </g>
   <g id="patch_34">
    <path d="M 275.330749 245.93875 
L 281.84301 245.93875 
L 281.84301 245.93875 
L 275.330749 245.93875 
z
" clip-path="url(#pa3abc7b237)" style="fill: #1f77b4"/>
   </g>
   <g id="patch_35">
    <path d="M 281.84301 245.93875 
L 288.355271 245.93875 
L 288.355271 245.93875 
L 281.84301 245.93875 
z
" clip-path="url(#pa3abc7b237)" style="fill: #1f77b4"/>
   </g>
   <g id="patch_36">
    <path d="M 288.355271 245.93875 
L 294.867532 245.93875 
L 294.867532 245.901792 
L 288.355271 245.901792 
z
" clip-path="url(#pa3abc7b237)" style="fill: #1f77b4"/>
   </g>
   <g id="patch_37">
    <path d="M 294.867532 245.93875 
L 301.379793 245.93875 
L 301.379793 245.93875 
L 294.867532 245.93875 
z
" clip-path="url(#pa3abc7b237)" style="fill: #1f77b4"/>
   </g>
   <g id="patch_38">
    <path d="M 301.379793 245.93875 
L 307.892054 245.93875 
L 307.892054 245.901792 
L 301.379793 245.901792 
z
" clip-path="url(#pa3abc7b237)" style="fill: #1f77b4"/>
   </g>
   <g id="patch_39">
    <path d="M 307.892054 245.93875 
L 314.404316 245.93875 
L 314.404316 245.93875 
L 307.892054 245.93875 
z
" clip-path="url(#pa3abc7b237)" style="fill: #1f77b4"/>
   </g>
   <g id="patch_40">
    <path d="M 314.404316 245.93875 
L 320.916577 245.93875 
L 320.916577 245.93875 
L 314.404316 245.93875 
z
" clip-path="url(#pa3abc7b237)" style="fill: #1f77b4"/>
   </g>
   <g id="patch_41">
    <path d="M 320.916577 245.93875 
L 327.428838 245.93875 
L 327.428838 245.93875 
L 320.916577 245.93875 
z
" clip-path="url(#pa3abc7b237)" style="fill: #1f77b4"/>
   </g>
   <g id="patch_42">
    <path d="M 327.428838 245.93875 
L 333.941099 245.93875 
L 333.941099 245.93875 
L 327.428838 245.93875 
z
" clip-path="url(#pa3abc7b237)" style="fill: #1f77b4"/>
   </g>
   <g id="patch_43">
    <path d="M 333.941099 245.93875 
L 340.45336 245.93875 
L 340.45336 245.93875 
L 333.941099 245.93875 
z
" clip-path="url(#pa3abc7b237)" style="fill: #1f77b4"/>
   </g>
   <g id="patch_44">
    <path d="M 340.45336 245.93875 
L 346.965621 245.93875 
L 346.965621 245.93875 
L 340.45336 245.93875 
z
" clip-path="url(#pa3abc7b237)" style="fill: #1f77b4"/>
   </g>
   <g id="patch_45">
    <path d="M 346.965621 245.93875 
L 353.477883 245.93875 
L 353.477883 245.93875 
L 346.965621 245.93875 
z
" clip-path="url(#pa3abc7b237)" style="fill: #1f77b4"/>
   </g>
   <g id="patch_46">
    <path d="M 353.477883 245.93875 
L 359.990144 245.93875 
L 359.990144 245.93875 
L 353.477883 245.93875 
z
" clip-path="url(#pa3abc7b237)" style="fill: #1f77b4"/>
   </g>
   <g id="patch_47">
    <path d="M 359.990144 245.93875 
L 366.502405 245.93875 
L 366.502405 245.93875 
L 359.990144 245.93875 
z
" clip-path="url(#pa3abc7b237)" style="fill: #1f77b4"/>
   </g>
   <g id="patch_48">
    <path d="M 366.502405 245.93875 
L 373.014666 245.93875 
L 373.014666 245.93875 
L 366.502405 245.93875 
z
" clip-path="url(#pa3abc7b237)" style="fill: #1f77b4"/>
   </g>
   <g id="patch_49">
    <path d="M 373.014666 245.93875 
L 379.526927 245.93875 
L 379.526927 245.901792 
L 373.014666 245.901792 
z
" clip-path="url(#pa3abc7b237)" style="fill: #1f77b4"/>
   </g>
   <g id="patch_50">
    <path d="M 379.526927 245.93875 
L 386.039188 245.93875 
L 386.039188 245.93875 
L 379.526927 245.93875 
z
" clip-path="url(#pa3abc7b237)" style="fill: #1f77b4"/>
   </g>
   <g id="patch_51">
    <path d="M 386.039188 245.93875 
L 392.551449 245.93875 
L 392.551449 245.93875 
L 386.039188 245.93875 
z
" clip-path="url(#pa3abc7b237)" style="fill: #1f77b4"/>
   </g>
   <g id="patch_52">
    <path d="M 392.551449 245.93875 
L 399.063711 245.93875 
L 399.063711 245.901792 
L 392.551449 245.901792 
z
" clip-path="url(#pa3abc7b237)" style="fill: #1f77b4"/>
   </g>
   <g id="matplotlib.axis_1">
    <g id="xtick_1">
     <g id="line2d_1">
      <path d="M 73.423515 245.93875 
L 73.423515 26.88 
" clip-path="url(#pa3abc7b237)" style="fill: none; stroke: #b0b0b0; stroke-width: 0.8; stroke-linecap: square"/>
     </g>
     <g id="line2d_2">
      <defs>
       <path id="m9d10a9477a" d="M 0 0 
L 0 3.5 
" style="stroke: #000000; stroke-width: 0.8"/>
      </defs>
      <g>
       <use xlink:href="#m9d10a9477a" x="73.423515" y="245.93875" style="stroke: #000000; stroke-width: 0.8"/>
      </g>
     </g>
     <g id="text_1">
      <!-- 0 -->
      <g transform="translate(70.242265 260.537188) scale(0.1 -0.1)">
       <defs>
        <path id="DejaVuSans-30" d="M 2034 4250 
Q 1547 4250 1301 3770 
Q 1056 3291 1056 2328 
Q 1056 1369 1301 889 
Q 1547 409 2034 409 
Q 2525 409 2770 889 
Q 3016 1369 3016 2328 
Q 3016 3291 2770 3770 
Q 2525 4250 2034 4250 
z
M 2034 4750 
Q 2819 4750 3233 4129 
Q 3647 3509 3647 2328 
Q 3647 1150 3233 529 
Q 2819 -91 2034 -91 
Q 1250 -91 836 529 
Q 422 1150 422 2328 
Q 422 3509 836 4129 
Q 1250 4750 2034 4750 
z
" transform="scale(0.015625)"/>
       </defs>
       <use xlink:href="#DejaVuSans-30"/>
      </g>
     </g>
    </g>
    <g id="xtick_2">
     <g id="line2d_3">
      <path d="M 115.682958 245.93875 
L 115.682958 26.88 
" clip-path="url(#pa3abc7b237)" style="fill: none; stroke: #b0b0b0; stroke-width: 0.8; stroke-linecap: square"/>
     </g>
     <g id="line2d_4">
      <g>
       <use xlink:href="#m9d10a9477a" x="115.682958" y="245.93875" style="stroke: #000000; stroke-width: 0.8"/>
      </g>
     </g>
     <g id="text_2">
      <!-- 50 -->
      <g transform="translate(109.320458 260.537188) scale(0.1 -0.1)">
       <defs>
        <path id="DejaVuSans-35" d="M 691 4666 
L 3169 4666 
L 3169 4134 
L 1269 4134 
L 1269 2991 
Q 1406 3038 1543 3061 
Q 1681 3084 1819 3084 
Q 2600 3084 3056 2656 
Q 3513 2228 3513 1497 
Q 3513 744 3044 326 
Q 2575 -91 1722 -91 
Q 1428 -91 1123 -41 
Q 819 9 494 109 
L 494 744 
Q 775 591 1075 516 
Q 1375 441 1709 441 
Q 2250 441 2565 725 
Q 2881 1009 2881 1497 
Q 2881 1984 2565 2268 
Q 2250 2553 1709 2553 
Q 1456 2553 1204 2497 
Q 953 2441 691 2322 
L 691 4666 
z
" transform="scale(0.015625)"/>
       </defs>
       <use xlink:href="#DejaVuSans-35"/>
       <use xlink:href="#DejaVuSans-30" transform="translate(63.623047 0)"/>
      </g>
     </g>
    </g>
    <g id="xtick_3">
     <g id="line2d_5">
      <path d="M 157.942401 245.93875 
L 157.942401 26.88 
" clip-path="url(#pa3abc7b237)" style="fill: none; stroke: #b0b0b0; stroke-width: 0.8; stroke-linecap: square"/>
     </g>
     <g id="line2d_6">
      <g>
       <use xlink:href="#m9d10a9477a" x="157.942401" y="245.93875" style="stroke: #000000; stroke-width: 0.8"/>
      </g>
     </g>
     <g id="text_3">
      <!-- 100 -->
      <g transform="translate(148.398651 260.537188) scale(0.1 -0.1)">
       <defs>
        <path id="DejaVuSans-31" d="M 794 531 
L 1825 531 
L 1825 4091 
L 703 3866 
L 703 4441 
L 1819 4666 
L 2450 4666 
L 2450 531 
L 3481 531 
L 3481 0 
L 794 0 
L 794 531 
z
" transform="scale(0.015625)"/>
       </defs>
       <use xlink:href="#DejaVuSans-31"/>
       <use xlink:href="#DejaVuSans-30" transform="translate(63.623047 0)"/>
       <use xlink:href="#DejaVuSans-30" transform="translate(127.246094 0)"/>
      </g>
     </g>
    </g>
    <g id="xtick_4">
     <g id="line2d_7">
      <path d="M 200.201843 245.93875 
L 200.201843 26.88 
" clip-path="url(#pa3abc7b237)" style="fill: none; stroke: #b0b0b0; stroke-width: 0.8; stroke-linecap: square"/>
     </g>
     <g id="line2d_8">
      <g>
       <use xlink:href="#m9d10a9477a" x="200.201843" y="245.93875" style="stroke: #000000; stroke-width: 0.8"/>
      </g>
     </g>
     <g id="text_4">
      <!-- 150 -->
      <g transform="translate(190.658093 260.537188) scale(0.1 -0.1)">
       <use xlink:href="#DejaVuSans-31"/>
       <use xlink:href="#DejaVuSans-35" transform="translate(63.623047 0)"/>
       <use xlink:href="#DejaVuSans-30" transform="translate(127.246094 0)"/>
      </g>
     </g>
    </g>
    <g id="xtick_5">
     <g id="line2d_9">
      <path d="M 242.461286 245.93875 
L 242.461286 26.88 
" clip-path="url(#pa3abc7b237)" style="fill: none; stroke: #b0b0b0; stroke-width: 0.8; stroke-linecap: square"/>
     </g>
     <g id="line2d_10">
      <g>
       <use xlink:href="#m9d10a9477a" x="242.461286" y="245.93875" style="stroke: #000000; stroke-width: 0.8"/>
      </g>
     </g>
     <g id="text_5">
      <!-- 200 -->
      <g transform="translate(232.917536 260.537188) scale(0.1 -0.1)">
       <defs>
        <path id="DejaVuSans-32" d="M 1228 531 
L 3431 531 
L 3431 0 
L 469 0 
L 469 531 
Q 828 903 1448 1529 
Q 2069 2156 2228 2338 
Q 2531 2678 2651 2914 
Q 2772 3150 2772 3378 
Q 2772 3750 2511 3984 
Q 2250 4219 1831 4219 
Q 1534 4219 1204 4116 
Q 875 4013 500 3803 
L 500 4441 
Q 881 4594 1212 4672 
Q 1544 4750 1819 4750 
Q 2544 4750 2975 4387 
Q 3406 4025 3406 3419 
Q 3406 3131 3298 2873 
Q 3191 2616 2906 2266 
Q 2828 2175 2409 1742 
Q 1991 1309 1228 531 
z
" transform="scale(0.015625)"/>
       </defs>
       <use xlink:href="#DejaVuSans-32"/>
       <use xlink:href="#DejaVuSans-30" transform="translate(63.623047 0)"/>
       <use xlink:href="#DejaVuSans-30" transform="translate(127.246094 0)"/>
      </g>
     </g>
    </g>
    <g id="xtick_6">
     <g id="line2d_11">
      <path d="M 284.720728 245.93875 
L 284.720728 26.88 
" clip-path="url(#pa3abc7b237)" style="fill: none; stroke: #b0b0b0; stroke-width: 0.8; stroke-linecap: square"/>
     </g>
     <g id="line2d_12">
      <g>
       <use xlink:href="#m9d10a9477a" x="284.720728" y="245.93875" style="stroke: #000000; stroke-width: 0.8"/>
      </g>
     </g>
     <g id="text_6">
      <!-- 250 -->
      <g transform="translate(275.176978 260.537188) scale(0.1 -0.1)">
       <use xlink:href="#DejaVuSans-32"/>
       <use xlink:href="#DejaVuSans-35" transform="translate(63.623047 0)"/>
       <use xlink:href="#DejaVuSans-30" transform="translate(127.246094 0)"/>
      </g>
     </g>
    </g>
    <g id="xtick_7">
     <g id="line2d_13">
      <path d="M 326.980171 245.93875 
L 326.980171 26.88 
" clip-path="url(#pa3abc7b237)" style="fill: none; stroke: #b0b0b0; stroke-width: 0.8; stroke-linecap: square"/>
     </g>
     <g id="line2d_14">
      <g>
       <use xlink:href="#m9d10a9477a" x="326.980171" y="245.93875" style="stroke: #000000; stroke-width: 0.8"/>
      </g>
     </g>
     <g id="text_7">
      <!-- 300 -->
      <g transform="translate(317.436421 260.537188) scale(0.1 -0.1)">
       <defs>
        <path id="DejaVuSans-33" d="M 2597 2516 
Q 3050 2419 3304 2112 
Q 3559 1806 3559 1356 
Q 3559 666 3084 287 
Q 2609 -91 1734 -91 
Q 1441 -91 1130 -33 
Q 819 25 488 141 
L 488 750 
Q 750 597 1062 519 
Q 1375 441 1716 441 
Q 2309 441 2620 675 
Q 2931 909 2931 1356 
Q 2931 1769 2642 2001 
Q 2353 2234 1838 2234 
L 1294 2234 
L 1294 2753 
L 1863 2753 
Q 2328 2753 2575 2939 
Q 2822 3125 2822 3475 
Q 2822 3834 2567 4026 
Q 2313 4219 1838 4219 
Q 1578 4219 1281 4162 
Q 984 4106 628 3988 
L 628 4550 
Q 988 4650 1302 4700 
Q 1616 4750 1894 4750 
Q 2613 4750 3031 4423 
Q 3450 4097 3450 3541 
Q 3450 3153 3228 2886 
Q 3006 2619 2597 2516 
z
" transform="scale(0.015625)"/>
       </defs>
       <use xlink:href="#DejaVuSans-33"/>
       <use xlink:href="#DejaVuSans-30" transform="translate(63.623047 0)"/>
       <use xlink:href="#DejaVuSans-30" transform="translate(127.246094 0)"/>
      </g>
     </g>
    </g>
    <g id="xtick_8">
     <g id="line2d_15">
      <path d="M 369.239614 245.93875 
L 369.239614 26.88 
" clip-path="url(#pa3abc7b237)" style="fill: none; stroke: #b0b0b0; stroke-width: 0.8; stroke-linecap: square"/>
     </g>
     <g id="line2d_16">
      <g>
       <use xlink:href="#m9d10a9477a" x="369.239614" y="245.93875" style="stroke: #000000; stroke-width: 0.8"/>
      </g>
     </g>
     <g id="text_8">
      <!-- 350 -->
      <g transform="translate(359.695864 260.537188) scale(0.1 -0.1)">
       <use xlink:href="#DejaVuSans-33"/>
       <use xlink:href="#DejaVuSans-35" transform="translate(63.623047 0)"/>
       <use xlink:href="#DejaVuSans-30" transform="translate(127.246094 0)"/>
      </g>
     </g>
    </g>
    <g id="xtick_9">
     <g id="line2d_17">
      <path d="M 411.499056 245.93875 
L 411.499056 26.88 
" clip-path="url(#pa3abc7b237)" style="fill: none; stroke: #b0b0b0; stroke-width: 0.8; stroke-linecap: square"/>
     </g>
     <g id="line2d_18">
      <g>
       <use xlink:href="#m9d10a9477a" x="411.499056" y="245.93875" style="stroke: #000000; stroke-width: 0.8"/>
      </g>
     </g>
     <g id="text_9">
      <!-- 400 -->
      <g transform="translate(401.955306 260.537188) scale(0.1 -0.1)">
       <defs>
        <path id="DejaVuSans-34" d="M 2419 4116 
L 825 1625 
L 2419 1625 
L 2419 4116 
z
M 2253 4666 
L 3047 4666 
L 3047 1625 
L 3713 1625 
L 3713 1100 
L 3047 1100 
L 3047 0 
L 2419 0 
L 2419 1100 
L 313 1100 
L 313 1709 
L 2253 4666 
z
" transform="scale(0.015625)"/>
       </defs>
       <use xlink:href="#DejaVuSans-34"/>
       <use xlink:href="#DejaVuSans-30" transform="translate(63.623047 0)"/>
       <use xlink:href="#DejaVuSans-30" transform="translate(127.246094 0)"/>
      </g>
     </g>
    </g>
    <g id="text_10">
     <!-- SteeringSpeed_SpectralFlux -->
     <g transform="translate(165.970463 274.215312) scale(0.1 -0.1)">
      <defs>
       <path id="DejaVuSans-53" d="M 3425 4513 
L 3425 3897 
Q 3066 4069 2747 4153 
Q 2428 4238 2131 4238 
Q 1616 4238 1336 4038 
Q 1056 3838 1056 3469 
Q 1056 3159 1242 3001 
Q 1428 2844 1947 2747 
L 2328 2669 
Q 3034 2534 3370 2195 
Q 3706 1856 3706 1288 
Q 3706 609 3251 259 
Q 2797 -91 1919 -91 
Q 1588 -91 1214 -16 
Q 841 59 441 206 
L 441 856 
Q 825 641 1194 531 
Q 1563 422 1919 422 
Q 2459 422 2753 634 
Q 3047 847 3047 1241 
Q 3047 1584 2836 1778 
Q 2625 1972 2144 2069 
L 1759 2144 
Q 1053 2284 737 2584 
Q 422 2884 422 3419 
Q 422 4038 858 4394 
Q 1294 4750 2059 4750 
Q 2388 4750 2728 4690 
Q 3069 4631 3425 4513 
z
" transform="scale(0.015625)"/>
       <path id="DejaVuSans-74" d="M 1172 4494 
L 1172 3500 
L 2356 3500 
L 2356 3053 
L 1172 3053 
L 1172 1153 
Q 1172 725 1289 603 
Q 1406 481 1766 481 
L 2356 481 
L 2356 0 
L 1766 0 
Q 1100 0 847 248 
Q 594 497 594 1153 
L 594 3053 
L 172 3053 
L 172 3500 
L 594 3500 
L 594 4494 
L 1172 4494 
z
" transform="scale(0.015625)"/>
       <path id="DejaVuSans-65" d="M 3597 1894 
L 3597 1613 
L 953 1613 
Q 991 1019 1311 708 
Q 1631 397 2203 397 
Q 2534 397 2845 478 
Q 3156 559 3463 722 
L 3463 178 
Q 3153 47 2828 -22 
Q 2503 -91 2169 -91 
Q 1331 -91 842 396 
Q 353 884 353 1716 
Q 353 2575 817 3079 
Q 1281 3584 2069 3584 
Q 2775 3584 3186 3129 
Q 3597 2675 3597 1894 
z
M 3022 2063 
Q 3016 2534 2758 2815 
Q 2500 3097 2075 3097 
Q 1594 3097 1305 2825 
Q 1016 2553 972 2059 
L 3022 2063 
z
" transform="scale(0.015625)"/>
       <path id="DejaVuSans-72" d="M 2631 2963 
Q 2534 3019 2420 3045 
Q 2306 3072 2169 3072 
Q 1681 3072 1420 2755 
Q 1159 2438 1159 1844 
L 1159 0 
L 581 0 
L 581 3500 
L 1159 3500 
L 1159 2956 
Q 1341 3275 1631 3429 
Q 1922 3584 2338 3584 
Q 2397 3584 2469 3576 
Q 2541 3569 2628 3553 
L 2631 2963 
z
" transform="scale(0.015625)"/>
       <path id="DejaVuSans-69" d="M 603 3500 
L 1178 3500 
L 1178 0 
L 603 0 
L 603 3500 
z
M 603 4863 
L 1178 4863 
L 1178 4134 
L 603 4134 
L 603 4863 
z
" transform="scale(0.015625)"/>
       <path id="DejaVuSans-6e" d="M 3513 2113 
L 3513 0 
L 2938 0 
L 2938 2094 
Q 2938 2591 2744 2837 
Q 2550 3084 2163 3084 
Q 1697 3084 1428 2787 
Q 1159 2491 1159 1978 
L 1159 0 
L 581 0 
L 581 3500 
L 1159 3500 
L 1159 2956 
Q 1366 3272 1645 3428 
Q 1925 3584 2291 3584 
Q 2894 3584 3203 3211 
Q 3513 2838 3513 2113 
z
" transform="scale(0.015625)"/>
       <path id="DejaVuSans-67" d="M 2906 1791 
Q 2906 2416 2648 2759 
Q 2391 3103 1925 3103 
Q 1463 3103 1205 2759 
Q 947 2416 947 1791 
Q 947 1169 1205 825 
Q 1463 481 1925 481 
Q 2391 481 2648 825 
Q 2906 1169 2906 1791 
z
M 3481 434 
Q 3481 -459 3084 -895 
Q 2688 -1331 1869 -1331 
Q 1566 -1331 1297 -1286 
Q 1028 -1241 775 -1147 
L 775 -588 
Q 1028 -725 1275 -790 
Q 1522 -856 1778 -856 
Q 2344 -856 2625 -561 
Q 2906 -266 2906 331 
L 2906 616 
Q 2728 306 2450 153 
Q 2172 0 1784 0 
Q 1141 0 747 490 
Q 353 981 353 1791 
Q 353 2603 747 3093 
Q 1141 3584 1784 3584 
Q 2172 3584 2450 3431 
Q 2728 3278 2906 2969 
L 2906 3500 
L 3481 3500 
L 3481 434 
z
" transform="scale(0.015625)"/>
       <path id="DejaVuSans-70" d="M 1159 525 
L 1159 -1331 
L 581 -1331 
L 581 3500 
L 1159 3500 
L 1159 2969 
Q 1341 3281 1617 3432 
Q 1894 3584 2278 3584 
Q 2916 3584 3314 3078 
Q 3713 2572 3713 1747 
Q 3713 922 3314 415 
Q 2916 -91 2278 -91 
Q 1894 -91 1617 61 
Q 1341 213 1159 525 
z
M 3116 1747 
Q 3116 2381 2855 2742 
Q 2594 3103 2138 3103 
Q 1681 3103 1420 2742 
Q 1159 2381 1159 1747 
Q 1159 1113 1420 752 
Q 1681 391 2138 391 
Q 2594 391 2855 752 
Q 3116 1113 3116 1747 
z
" transform="scale(0.015625)"/>
       <path id="DejaVuSans-64" d="M 2906 2969 
L 2906 4863 
L 3481 4863 
L 3481 0 
L 2906 0 
L 2906 525 
Q 2725 213 2448 61 
Q 2172 -91 1784 -91 
Q 1150 -91 751 415 
Q 353 922 353 1747 
Q 353 2572 751 3078 
Q 1150 3584 1784 3584 
Q 2172 3584 2448 3432 
Q 2725 3281 2906 2969 
z
M 947 1747 
Q 947 1113 1208 752 
Q 1469 391 1925 391 
Q 2381 391 2643 752 
Q 2906 1113 2906 1747 
Q 2906 2381 2643 2742 
Q 2381 3103 1925 3103 
Q 1469 3103 1208 2742 
Q 947 2381 947 1747 
z
" transform="scale(0.015625)"/>
       <path id="DejaVuSans-5f" d="M 3263 -1063 
L 3263 -1509 
L -63 -1509 
L -63 -1063 
L 3263 -1063 
z
" transform="scale(0.015625)"/>
       <path id="DejaVuSans-63" d="M 3122 3366 
L 3122 2828 
Q 2878 2963 2633 3030 
Q 2388 3097 2138 3097 
Q 1578 3097 1268 2742 
Q 959 2388 959 1747 
Q 959 1106 1268 751 
Q 1578 397 2138 397 
Q 2388 397 2633 464 
Q 2878 531 3122 666 
L 3122 134 
Q 2881 22 2623 -34 
Q 2366 -91 2075 -91 
Q 1284 -91 818 406 
Q 353 903 353 1747 
Q 353 2603 823 3093 
Q 1294 3584 2113 3584 
Q 2378 3584 2631 3529 
Q 2884 3475 3122 3366 
z
" transform="scale(0.015625)"/>
       <path id="DejaVuSans-61" d="M 2194 1759 
Q 1497 1759 1228 1600 
Q 959 1441 959 1056 
Q 959 750 1161 570 
Q 1363 391 1709 391 
Q 2188 391 2477 730 
Q 2766 1069 2766 1631 
L 2766 1759 
L 2194 1759 
z
M 3341 1997 
L 3341 0 
L 2766 0 
L 2766 531 
Q 2569 213 2275 61 
Q 1981 -91 1556 -91 
Q 1019 -91 701 211 
Q 384 513 384 1019 
Q 384 1609 779 1909 
Q 1175 2209 1959 2209 
L 2766 2209 
L 2766 2266 
Q 2766 2663 2505 2880 
Q 2244 3097 1772 3097 
Q 1472 3097 1187 3025 
Q 903 2953 641 2809 
L 641 3341 
Q 956 3463 1253 3523 
Q 1550 3584 1831 3584 
Q 2591 3584 2966 3190 
Q 3341 2797 3341 1997 
z
" transform="scale(0.015625)"/>
       <path id="DejaVuSans-6c" d="M 603 4863 
L 1178 4863 
L 1178 0 
L 603 0 
L 603 4863 
z
" transform="scale(0.015625)"/>
       <path id="DejaVuSans-46" d="M 628 4666 
L 3309 4666 
L 3309 4134 
L 1259 4134 
L 1259 2759 
L 3109 2759 
L 3109 2228 
L 1259 2228 
L 1259 0 
L 628 0 
L 628 4666 
z
" transform="scale(0.015625)"/>
       <path id="DejaVuSans-75" d="M 544 1381 
L 544 3500 
L 1119 3500 
L 1119 1403 
Q 1119 906 1312 657 
Q 1506 409 1894 409 
Q 2359 409 2629 706 
Q 2900 1003 2900 1516 
L 2900 3500 
L 3475 3500 
L 3475 0 
L 2900 0 
L 2900 538 
Q 2691 219 2414 64 
Q 2138 -91 1772 -91 
Q 1169 -91 856 284 
Q 544 659 544 1381 
z
M 1991 3584 
L 1991 3584 
z
" transform="scale(0.015625)"/>
       <path id="DejaVuSans-78" d="M 3513 3500 
L 2247 1797 
L 3578 0 
L 2900 0 
L 1881 1375 
L 863 0 
L 184 0 
L 1544 1831 
L 300 3500 
L 978 3500 
L 1906 2253 
L 2834 3500 
L 3513 3500 
z
" transform="scale(0.015625)"/>
      </defs>
      <use xlink:href="#DejaVuSans-53"/>
      <use xlink:href="#DejaVuSans-74" transform="translate(63.476562 0)"/>
      <use xlink:href="#DejaVuSans-65" transform="translate(102.685547 0)"/>
      <use xlink:href="#DejaVuSans-65" transform="translate(164.208984 0)"/>
      <use xlink:href="#DejaVuSans-72" transform="translate(225.732422 0)"/>
      <use xlink:href="#DejaVuSans-69" transform="translate(266.845703 0)"/>
      <use xlink:href="#DejaVuSans-6e" transform="translate(294.628906 0)"/>
      <use xlink:href="#DejaVuSans-67" transform="translate(358.007812 0)"/>
      <use xlink:href="#DejaVuSans-53" transform="translate(421.484375 0)"/>
      <use xlink:href="#DejaVuSans-70" transform="translate(484.960938 0)"/>
      <use xlink:href="#DejaVuSans-65" transform="translate(548.4375 0)"/>
      <use xlink:href="#DejaVuSans-65" transform="translate(609.960938 0)"/>
      <use xlink:href="#DejaVuSans-64" transform="translate(671.484375 0)"/>
      <use xlink:href="#DejaVuSans-5f" transform="translate(734.960938 0)"/>
      <use xlink:href="#DejaVuSans-53" transform="translate(784.960938 0)"/>
      <use xlink:href="#DejaVuSans-70" transform="translate(848.4375 0)"/>
      <use xlink:href="#DejaVuSans-65" transform="translate(911.914062 0)"/>
      <use xlink:href="#DejaVuSans-63" transform="translate(973.4375 0)"/>
      <use xlink:href="#DejaVuSans-74" transform="translate(1028.417969 0)"/>
      <use xlink:href="#DejaVuSans-72" transform="translate(1067.626953 0)"/>
      <use xlink:href="#DejaVuSans-61" transform="translate(1108.740234 0)"/>
      <use xlink:href="#DejaVuSans-6c" transform="translate(1170.019531 0)"/>
      <use xlink:href="#DejaVuSans-46" transform="translate(1197.802734 0)"/>
      <use xlink:href="#DejaVuSans-6c" transform="translate(1255.322266 0)"/>
      <use xlink:href="#DejaVuSans-75" transform="translate(1283.105469 0)"/>
      <use xlink:href="#DejaVuSans-78" transform="translate(1346.484375 0)"/>
     </g>
    </g>
   </g>
   <g id="matplotlib.axis_2">
    <g id="ytick_1">
     <g id="line2d_19">
      <path d="M 57.17 245.93875 
L 415.344364 245.93875 
" clip-path="url(#pa3abc7b237)" style="fill: none; stroke: #b0b0b0; stroke-width: 0.8; stroke-linecap: square"/>
     </g>
     <g id="line2d_20">
      <defs>
       <path id="m5568536f26" d="M 0 0 
L -3.5 0 
" style="stroke: #000000; stroke-width: 0.8"/>
      </defs>
      <g>
       <use xlink:href="#m5568536f26" x="57.17" y="245.93875" style="stroke: #000000; stroke-width: 0.8"/>
      </g>
     </g>
     <g id="text_11">
      <!-- 0 -->
      <g transform="translate(43.8075 249.737969) scale(0.1 -0.1)">
       <use xlink:href="#DejaVuSans-30"/>
      </g>
     </g>
    </g>
    <g id="ytick_2">
     <g id="line2d_21">
      <path d="M 57.17 208.980844 
L 415.344364 208.980844 
" clip-path="url(#pa3abc7b237)" style="fill: none; stroke: #b0b0b0; stroke-width: 0.8; stroke-linecap: square"/>
     </g>
     <g id="line2d_22">
      <g>
       <use xlink:href="#m5568536f26" x="57.17" y="208.980844" style="stroke: #000000; stroke-width: 0.8"/>
      </g>
     </g>
     <g id="text_12">
      <!-- 1000 -->
      <g transform="translate(24.72 212.780062) scale(0.1 -0.1)">
       <use xlink:href="#DejaVuSans-31"/>
       <use xlink:href="#DejaVuSans-30" transform="translate(63.623047 0)"/>
       <use xlink:href="#DejaVuSans-30" transform="translate(127.246094 0)"/>
       <use xlink:href="#DejaVuSans-30" transform="translate(190.869141 0)"/>
      </g>
     </g>
    </g>
    <g id="ytick_3">
     <g id="line2d_23">
      <path d="M 57.17 172.022937 
L 415.344364 172.022937 
" clip-path="url(#pa3abc7b237)" style="fill: none; stroke: #b0b0b0; stroke-width: 0.8; stroke-linecap: square"/>
     </g>
     <g id="line2d_24">
      <g>
       <use xlink:href="#m5568536f26" x="57.17" y="172.022937" style="stroke: #000000; stroke-width: 0.8"/>
      </g>
     </g>
     <g id="text_13">
      <!-- 2000 -->
      <g transform="translate(24.72 175.822156) scale(0.1 -0.1)">
       <use xlink:href="#DejaVuSans-32"/>
       <use xlink:href="#DejaVuSans-30" transform="translate(63.623047 0)"/>
       <use xlink:href="#DejaVuSans-30" transform="translate(127.246094 0)"/>
       <use xlink:href="#DejaVuSans-30" transform="translate(190.869141 0)"/>
      </g>
     </g>
    </g>
    <g id="ytick_4">
     <g id="line2d_25">
      <path d="M 57.17 135.065031 
L 415.344364 135.065031 
" clip-path="url(#pa3abc7b237)" style="fill: none; stroke: #b0b0b0; stroke-width: 0.8; stroke-linecap: square"/>
     </g>
     <g id="line2d_26">
      <g>
       <use xlink:href="#m5568536f26" x="57.17" y="135.065031" style="stroke: #000000; stroke-width: 0.8"/>
      </g>
     </g>
     <g id="text_14">
      <!-- 3000 -->
      <g transform="translate(24.72 138.86425) scale(0.1 -0.1)">
       <use xlink:href="#DejaVuSans-33"/>
       <use xlink:href="#DejaVuSans-30" transform="translate(63.623047 0)"/>
       <use xlink:href="#DejaVuSans-30" transform="translate(127.246094 0)"/>
       <use xlink:href="#DejaVuSans-30" transform="translate(190.869141 0)"/>
      </g>
     </g>
    </g>
    <g id="ytick_5">
     <g id="line2d_27">
      <path d="M 57.17 98.107125 
L 415.344364 98.107125 
" clip-path="url(#pa3abc7b237)" style="fill: none; stroke: #b0b0b0; stroke-width: 0.8; stroke-linecap: square"/>
     </g>
     <g id="line2d_28">
      <g>
       <use xlink:href="#m5568536f26" x="57.17" y="98.107125" style="stroke: #000000; stroke-width: 0.8"/>
      </g>
     </g>
     <g id="text_15">
      <!-- 4000 -->
      <g transform="translate(24.72 101.906344) scale(0.1 -0.1)">
       <use xlink:href="#DejaVuSans-34"/>
       <use xlink:href="#DejaVuSans-30" transform="translate(63.623047 0)"/>
       <use xlink:href="#DejaVuSans-30" transform="translate(127.246094 0)"/>
       <use xlink:href="#DejaVuSans-30" transform="translate(190.869141 0)"/>
      </g>
     </g>
    </g>
    <g id="ytick_6">
     <g id="line2d_29">
      <path d="M 57.17 61.149219 
L 415.344364 61.149219 
" clip-path="url(#pa3abc7b237)" style="fill: none; stroke: #b0b0b0; stroke-width: 0.8; stroke-linecap: square"/>
     </g>
     <g id="line2d_30">
      <g>
       <use xlink:href="#m5568536f26" x="57.17" y="61.149219" style="stroke: #000000; stroke-width: 0.8"/>
      </g>
     </g>
     <g id="text_16">
      <!-- 5000 -->
      <g transform="translate(24.72 64.948437) scale(0.1 -0.1)">
       <use xlink:href="#DejaVuSans-35"/>
       <use xlink:href="#DejaVuSans-30" transform="translate(63.623047 0)"/>
       <use xlink:href="#DejaVuSans-30" transform="translate(127.246094 0)"/>
       <use xlink:href="#DejaVuSans-30" transform="translate(190.869141 0)"/>
      </g>
     </g>
    </g>
    <g id="text_17">
     <!-- Count -->
     <g transform="translate(18.640313 151.257812) rotate(-90) scale(0.1 -0.1)">
      <defs>
       <path id="DejaVuSans-43" d="M 4122 4306 
L 4122 3641 
Q 3803 3938 3442 4084 
Q 3081 4231 2675 4231 
Q 1875 4231 1450 3742 
Q 1025 3253 1025 2328 
Q 1025 1406 1450 917 
Q 1875 428 2675 428 
Q 3081 428 3442 575 
Q 3803 722 4122 1019 
L 4122 359 
Q 3791 134 3420 21 
Q 3050 -91 2638 -91 
Q 1578 -91 968 557 
Q 359 1206 359 2328 
Q 359 3453 968 4101 
Q 1578 4750 2638 4750 
Q 3056 4750 3426 4639 
Q 3797 4528 4122 4306 
z
" transform="scale(0.015625)"/>
       <path id="DejaVuSans-6f" d="M 1959 3097 
Q 1497 3097 1228 2736 
Q 959 2375 959 1747 
Q 959 1119 1226 758 
Q 1494 397 1959 397 
Q 2419 397 2687 759 
Q 2956 1122 2956 1747 
Q 2956 2369 2687 2733 
Q 2419 3097 1959 3097 
z
M 1959 3584 
Q 2709 3584 3137 3096 
Q 3566 2609 3566 1747 
Q 3566 888 3137 398 
Q 2709 -91 1959 -91 
Q 1206 -91 779 398 
Q 353 888 353 1747 
Q 353 2609 779 3096 
Q 1206 3584 1959 3584 
z
" transform="scale(0.015625)"/>
      </defs>
      <use xlink:href="#DejaVuSans-43"/>
      <use xlink:href="#DejaVuSans-6f" transform="translate(69.824219 0)"/>
      <use xlink:href="#DejaVuSans-75" transform="translate(131.005859 0)"/>
      <use xlink:href="#DejaVuSans-6e" transform="translate(194.384766 0)"/>
      <use xlink:href="#DejaVuSans-74" transform="translate(257.763672 0)"/>
     </g>
    </g>
   </g>
   <g id="patch_53">
    <path d="M 57.17 245.93875 
L 57.17 26.88 
" style="fill: none; stroke: #000000; stroke-width: 0.8; stroke-linejoin: miter; stroke-linecap: square"/>
   </g>
   <g id="patch_54">
    <path d="M 415.344364 245.93875 
L 415.344364 26.88 
" style="fill: none; stroke: #000000; stroke-width: 0.8; stroke-linejoin: miter; stroke-linecap: square"/>
   </g>
   <g id="patch_55">
    <path d="M 57.17 245.93875 
L 415.344364 245.93875 
" style="fill: none; stroke: #000000; stroke-width: 0.8; stroke-linejoin: miter; stroke-linecap: square"/>
   </g>
   <g id="patch_56">
    <path d="M 57.17 26.88 
L 415.344364 26.88 
" style="fill: none; stroke: #000000; stroke-width: 0.8; stroke-linejoin: miter; stroke-linecap: square"/>
   </g>
   <g id="text_18">
    <!-- SteeringSpeed_SpectralFlux -->
    <g transform="translate(151.913119 20.88) scale(0.12 -0.12)">
     <use xlink:href="#DejaVuSans-53"/>
     <use xlink:href="#DejaVuSans-74" transform="translate(63.476562 0)"/>
     <use xlink:href="#DejaVuSans-65" transform="translate(102.685547 0)"/>
     <use xlink:href="#DejaVuSans-65" transform="translate(164.208984 0)"/>
     <use xlink:href="#DejaVuSans-72" transform="translate(225.732422 0)"/>
     <use xlink:href="#DejaVuSans-69" transform="translate(266.845703 0)"/>
     <use xlink:href="#DejaVuSans-6e" transform="translate(294.628906 0)"/>
     <use xlink:href="#DejaVuSans-67" transform="translate(358.007812 0)"/>
     <use xlink:href="#DejaVuSans-53" transform="translate(421.484375 0)"/>
     <use xlink:href="#DejaVuSans-70" transform="translate(484.960938 0)"/>
     <use xlink:href="#DejaVuSans-65" transform="translate(548.4375 0)"/>
     <use xlink:href="#DejaVuSans-65" transform="translate(609.960938 0)"/>
     <use xlink:href="#DejaVuSans-64" transform="translate(671.484375 0)"/>
     <use xlink:href="#DejaVuSans-5f" transform="translate(734.960938 0)"/>
     <use xlink:href="#DejaVuSans-53" transform="translate(784.960938 0)"/>
     <use xlink:href="#DejaVuSans-70" transform="translate(848.4375 0)"/>
     <use xlink:href="#DejaVuSans-65" transform="translate(911.914062 0)"/>
     <use xlink:href="#DejaVuSans-63" transform="translate(973.4375 0)"/>
     <use xlink:href="#DejaVuSans-74" transform="translate(1028.417969 0)"/>
     <use xlink:href="#DejaVuSans-72" transform="translate(1067.626953 0)"/>
     <use xlink:href="#DejaVuSans-61" transform="translate(1108.740234 0)"/>
     <use xlink:href="#DejaVuSans-6c" transform="translate(1170.019531 0)"/>
     <use xlink:href="#DejaVuSans-46" transform="translate(1197.802734 0)"/>
     <use xlink:href="#DejaVuSans-6c" transform="translate(1255.322266 0)"/>
     <use xlink:href="#DejaVuSans-75" transform="translate(1283.105469 0)"/>
     <use xlink:href="#DejaVuSans-78" transform="translate(1346.484375 0)"/>
    </g>
   </g>
  </g>
 </g>
 <defs>
  <clipPath id="pa3abc7b237">
   <rect x="57.17" y="26.88" width="358.174364" height="219.05875"/>
  </clipPath>
 </defs>
</svg>
