<?xml version="1.0" encoding="utf-8" standalone="no"?>
<!DOCTYPE svg PUBLIC "-//W3C//DTD SVG 1.1//EN"
  "http://www.w3.org/Graphics/SVG/1.1/DTD/svg11.dtd">
<svg xmlns:xlink="http://www.w3.org/1999/xlink" width="432pt" height="288pt" viewBox="0 0 432 288" xmlns="http://www.w3.org/2000/svg" version="1.1">
 <metadata>
  <rdf:RDF xmlns:dc="http://purl.org/dc/elements/1.1/" xmlns:cc="http://creativecommons.org/ns#" xmlns:rdf="http://www.w3.org/1999/02/22-rdf-syntax-ns#">
   <cc:Work>
    <dc:type rdf:resource="http://purl.org/dc/dcmitype/StillImage"/>
    <dc:date>2025-06-15T13:37:50.260130</dc:date>
    <dc:format>image/svg+xml</dc:format>
    <dc:creator>
     <cc:Agent>
      <dc:title>Matplotlib v3.10.0, https://matplotlib.org/</dc:title>
     </cc:Agent>
    </dc:creator>
   </cc:Work>
  </rdf:RDF>
 </metadata>
 <defs>
  <style type="text/css">*{stroke-linejoin: round; stroke-linecap: butt}</style>
 </defs>
 <g id="figure_1">
  <g id="patch_1">
   <path d="M 0 288 
L 432 288 
L 432 0 
L 0 0 
z
" style="fill: #ffffff"/>
  </g>
  <g id="axes_1">
   <g id="patch_2">
    <path d="M 63.47 245.93875 
L 417.415499 245.93875 
L 417.415499 26.88 
L 63.47 26.88 
z
" style="fill: #ffffff"/>
   </g>
   <g id="patch_3">
    <path d="M 79.558432 245.93875 
L 85.993804 245.93875 
L 85.993804 37.311369 
L 79.558432 37.311369 
z
" clip-path="url(#p1c0c118828)" style="fill: #1f77b4"/>
   </g>
   <g id="patch_4">
    <path d="M 85.993804 245.93875 
L 92.429177 245.93875 
L 92.429177 245.306389 
L 85.993804 245.306389 
z
" clip-path="url(#p1c0c118828)" style="fill: #1f77b4"/>
   </g>
   <g id="patch_5">
    <path d="M 92.429177 245.93875 
L 98.86455 245.93875 
L 98.86455 245.741785 
L 92.429177 245.741785 
z
" clip-path="url(#p1c0c118828)" style="fill: #1f77b4"/>
   </g>
   <g id="patch_6">
    <path d="M 98.86455 245.93875 
L 105.299923 245.93875 
L 105.299923 245.783251 
L 98.86455 245.783251 
z
" clip-path="url(#p1c0c118828)" style="fill: #1f77b4"/>
   </g>
   <g id="patch_7">
    <path d="M 105.299923 245.93875 
L 111.735295 245.93875 
L 111.735295 245.824718 
L 105.299923 245.824718 
z
" clip-path="url(#p1c0c118828)" style="fill: #1f77b4"/>
   </g>
   <g id="patch_8">
    <path d="M 111.735295 245.93875 
L 118.170668 245.93875 
L 118.170668 245.793618 
L 111.735295 245.793618 
z
" clip-path="url(#p1c0c118828)" style="fill: #1f77b4"/>
   </g>
   <g id="patch_9">
    <path d="M 118.170668 245.93875 
L 124.606041 245.93875 
L 124.606041 245.886917 
L 118.170668 245.886917 
z
" clip-path="url(#p1c0c118828)" style="fill: #1f77b4"/>
   </g>
   <g id="patch_10">
    <path d="M 124.606041 245.93875 
L 131.041413 245.93875 
L 131.041413 245.876551 
L 124.606041 245.876551 
z
" clip-path="url(#p1c0c118828)" style="fill: #1f77b4"/>
   </g>
   <g id="patch_11">
    <path d="M 131.041413 245.93875 
L 137.476786 245.93875 
L 137.476786 245.845451 
L 131.041413 245.845451 
z
" clip-path="url(#p1c0c118828)" style="fill: #1f77b4"/>
   </g>
   <g id="patch_12">
    <path d="M 137.476786 245.93875 
L 143.912159 245.93875 
L 143.912159 245.866184 
L 137.476786 245.866184 
z
" clip-path="url(#p1c0c118828)" style="fill: #1f77b4"/>
   </g>
   <g id="patch_13">
    <path d="M 143.912159 245.93875 
L 150.347532 245.93875 
L 150.347532 245.90765 
L 143.912159 245.90765 
z
" clip-path="url(#p1c0c118828)" style="fill: #1f77b4"/>
   </g>
   <g id="patch_14">
    <path d="M 150.347532 245.93875 
L 156.782904 245.93875 
L 156.782904 245.918017 
L 150.347532 245.918017 
z
" clip-path="url(#p1c0c118828)" style="fill: #1f77b4"/>
   </g>
   <g id="patch_15">
    <path d="M 156.782904 245.93875 
L 163.218277 245.93875 
L 163.218277 245.928383 
L 156.782904 245.928383 
z
" clip-path="url(#p1c0c118828)" style="fill: #1f77b4"/>
   </g>
   <g id="patch_16">
    <path d="M 163.218277 245.93875 
L 169.65365 245.93875 
L 169.65365 245.90765 
L 163.218277 245.90765 
z
" clip-path="url(#p1c0c118828)" style="fill: #1f77b4"/>
   </g>
   <g id="patch_17">
    <path d="M 169.65365 245.93875 
L 176.089022 245.93875 
L 176.089022 245.93875 
L 169.65365 245.93875 
z
" clip-path="url(#p1c0c118828)" style="fill: #1f77b4"/>
   </g>
   <g id="patch_18">
    <path d="M 176.089022 245.93875 
L 182.524395 245.93875 
L 182.524395 245.90765 
L 176.089022 245.90765 
z
" clip-path="url(#p1c0c118828)" style="fill: #1f77b4"/>
   </g>
   <g id="patch_19">
    <path d="M 182.524395 245.93875 
L 188.959768 245.93875 
L 188.959768 245.93875 
L 182.524395 245.93875 
z
" clip-path="url(#p1c0c118828)" style="fill: #1f77b4"/>
   </g>
   <g id="patch_20">
    <path d="M 188.959768 245.93875 
L 195.395141 245.93875 
L 195.395141 245.928383 
L 188.959768 245.928383 
z
" clip-path="url(#p1c0c118828)" style="fill: #1f77b4"/>
   </g>
   <g id="patch_21">
    <path d="M 195.395141 245.93875 
L 201.830513 245.93875 
L 201.830513 245.93875 
L 195.395141 245.93875 
z
" clip-path="url(#p1c0c118828)" style="fill: #1f77b4"/>
   </g>
   <g id="patch_22">
    <path d="M 201.830513 245.93875 
L 208.265886 245.93875 
L 208.265886 245.93875 
L 201.830513 245.93875 
z
" clip-path="url(#p1c0c118828)" style="fill: #1f77b4"/>
   </g>
   <g id="patch_23">
    <path d="M 208.265886 245.93875 
L 214.701259 245.93875 
L 214.701259 245.93875 
L 208.265886 245.93875 
z
" clip-path="url(#p1c0c118828)" style="fill: #1f77b4"/>
   </g>
   <g id="patch_24">
    <path d="M 214.701259 245.93875 
L 221.136631 245.93875 
L 221.136631 245.918017 
L 214.701259 245.918017 
z
" clip-path="url(#p1c0c118828)" style="fill: #1f77b4"/>
   </g>
   <g id="patch_25">
    <path d="M 221.136631 245.93875 
L 227.572004 245.93875 
L 227.572004 245.928383 
L 221.136631 245.928383 
z
" clip-path="url(#p1c0c118828)" style="fill: #1f77b4"/>
   </g>
   <g id="patch_26">
    <path d="M 227.572004 245.93875 
L 234.007377 245.93875 
L 234.007377 245.93875 
L 227.572004 245.93875 
z
" clip-path="url(#p1c0c118828)" style="fill: #1f77b4"/>
   </g>
   <g id="patch_27">
    <path d="M 234.007377 245.93875 
L 240.44275 245.93875 
L 240.44275 245.928383 
L 234.007377 245.928383 
z
" clip-path="url(#p1c0c118828)" style="fill: #1f77b4"/>
   </g>
   <g id="patch_28">
    <path d="M 240.44275 245.93875 
L 246.878122 245.93875 
L 246.878122 245.93875 
L 240.44275 245.93875 
z
" clip-path="url(#p1c0c118828)" style="fill: #1f77b4"/>
   </g>
   <g id="patch_29">
    <path d="M 246.878122 245.93875 
L 253.313495 245.93875 
L 253.313495 245.93875 
L 246.878122 245.93875 
z
" clip-path="url(#p1c0c118828)" style="fill: #1f77b4"/>
   </g>
   <g id="patch_30">
    <path d="M 253.313495 245.93875 
L 259.748868 245.93875 
L 259.748868 245.93875 
L 253.313495 245.93875 
z
" clip-path="url(#p1c0c118828)" style="fill: #1f77b4"/>
   </g>
   <g id="patch_31">
    <path d="M 259.748868 245.93875 
L 266.18424 245.93875 
L 266.18424 245.93875 
L 259.748868 245.93875 
z
" clip-path="url(#p1c0c118828)" style="fill: #1f77b4"/>
   </g>
   <g id="patch_32">
    <path d="M 266.18424 245.93875 
L 272.619613 245.93875 
L 272.619613 245.93875 
L 266.18424 245.93875 
z
" clip-path="url(#p1c0c118828)" style="fill: #1f77b4"/>
   </g>
   <g id="patch_33">
    <path d="M 272.619613 245.93875 
L 279.054986 245.93875 
L 279.054986 245.93875 
L 272.619613 245.93875 
z
" clip-path="url(#p1c0c118828)" style="fill: #1f77b4"/>
   </g>
   <g id="patch_34">
    <path d="M 279.054986 245.93875 
L 285.490359 245.93875 
L 285.490359 245.93875 
L 279.054986 245.93875 
z
" clip-path="url(#p1c0c118828)" style="fill: #1f77b4"/>
   </g>
   <g id="patch_35">
    <path d="M 285.490359 245.93875 
L 291.925731 245.93875 
L 291.925731 245.93875 
L 285.490359 245.93875 
z
" clip-path="url(#p1c0c118828)" style="fill: #1f77b4"/>
   </g>
   <g id="patch_36">
    <path d="M 291.925731 245.93875 
L 298.361104 245.93875 
L 298.361104 245.93875 
L 291.925731 245.93875 
z
" clip-path="url(#p1c0c118828)" style="fill: #1f77b4"/>
   </g>
   <g id="patch_37">
    <path d="M 298.361104 245.93875 
L 304.796477 245.93875 
L 304.796477 245.93875 
L 298.361104 245.93875 
z
" clip-path="url(#p1c0c118828)" style="fill: #1f77b4"/>
   </g>
   <g id="patch_38">
    <path d="M 304.796477 245.93875 
L 311.231849 245.93875 
L 311.231849 245.93875 
L 304.796477 245.93875 
z
" clip-path="url(#p1c0c118828)" style="fill: #1f77b4"/>
   </g>
   <g id="patch_39">
    <path d="M 311.231849 245.93875 
L 317.667222 245.93875 
L 317.667222 245.93875 
L 311.231849 245.93875 
z
" clip-path="url(#p1c0c118828)" style="fill: #1f77b4"/>
   </g>
   <g id="patch_40">
    <path d="M 317.667222 245.93875 
L 324.102595 245.93875 
L 324.102595 245.93875 
L 317.667222 245.93875 
z
" clip-path="url(#p1c0c118828)" style="fill: #1f77b4"/>
   </g>
   <g id="patch_41">
    <path d="M 324.102595 245.93875 
L 330.537968 245.93875 
L 330.537968 245.93875 
L 324.102595 245.93875 
z
" clip-path="url(#p1c0c118828)" style="fill: #1f77b4"/>
   </g>
   <g id="patch_42">
    <path d="M 330.537968 245.93875 
L 336.97334 245.93875 
L 336.97334 245.93875 
L 330.537968 245.93875 
z
" clip-path="url(#p1c0c118828)" style="fill: #1f77b4"/>
   </g>
   <g id="patch_43">
    <path d="M 336.97334 245.93875 
L 343.408713 245.93875 
L 343.408713 245.93875 
L 336.97334 245.93875 
z
" clip-path="url(#p1c0c118828)" style="fill: #1f77b4"/>
   </g>
   <g id="patch_44">
    <path d="M 343.408713 245.93875 
L 349.844086 245.93875 
L 349.844086 245.93875 
L 343.408713 245.93875 
z
" clip-path="url(#p1c0c118828)" style="fill: #1f77b4"/>
   </g>
   <g id="patch_45">
    <path d="M 349.844086 245.93875 
L 356.279458 245.93875 
L 356.279458 245.93875 
L 349.844086 245.93875 
z
" clip-path="url(#p1c0c118828)" style="fill: #1f77b4"/>
   </g>
   <g id="patch_46">
    <path d="M 356.279458 245.93875 
L 362.714831 245.93875 
L 362.714831 245.93875 
L 356.279458 245.93875 
z
" clip-path="url(#p1c0c118828)" style="fill: #1f77b4"/>
   </g>
   <g id="patch_47">
    <path d="M 362.714831 245.93875 
L 369.150204 245.93875 
L 369.150204 245.93875 
L 362.714831 245.93875 
z
" clip-path="url(#p1c0c118828)" style="fill: #1f77b4"/>
   </g>
   <g id="patch_48">
    <path d="M 369.150204 245.93875 
L 375.585576 245.93875 
L 375.585576 245.93875 
L 369.150204 245.93875 
z
" clip-path="url(#p1c0c118828)" style="fill: #1f77b4"/>
   </g>
   <g id="patch_49">
    <path d="M 375.585576 245.93875 
L 382.020949 245.93875 
L 382.020949 245.93875 
L 375.585576 245.93875 
z
" clip-path="url(#p1c0c118828)" style="fill: #1f77b4"/>
   </g>
   <g id="patch_50">
    <path d="M 382.020949 245.93875 
L 388.456322 245.93875 
L 388.456322 245.93875 
L 382.020949 245.93875 
z
" clip-path="url(#p1c0c118828)" style="fill: #1f77b4"/>
   </g>
   <g id="patch_51">
    <path d="M 388.456322 245.93875 
L 394.891695 245.93875 
L 394.891695 245.93875 
L 388.456322 245.93875 
z
" clip-path="url(#p1c0c118828)" style="fill: #1f77b4"/>
   </g>
   <g id="patch_52">
    <path d="M 394.891695 245.93875 
L 401.327067 245.93875 
L 401.327067 245.928383 
L 394.891695 245.928383 
z
" clip-path="url(#p1c0c118828)" style="fill: #1f77b4"/>
   </g>
   <g id="matplotlib.axis_1">
    <g id="xtick_1">
     <g id="line2d_1">
      <path d="M 79.558307 245.93875 
L 79.558307 26.88 
" clip-path="url(#p1c0c118828)" style="fill: none; stroke: #b0b0b0; stroke-width: 0.8; stroke-linecap: square"/>
     </g>
     <g id="line2d_2">
      <defs>
       <path id="me560ec1ea9" d="M 0 0 
L 0 3.5 
" style="stroke: #000000; stroke-width: 0.8"/>
      </defs>
      <g>
       <use xlink:href="#me560ec1ea9" x="79.558307" y="245.93875" style="stroke: #000000; stroke-width: 0.8"/>
      </g>
     </g>
     <g id="text_1">
      <!-- 0.0 -->
      <g transform="translate(71.606744 260.537188) scale(0.1 -0.1)">
       <defs>
        <path id="DejaVuSans-30" d="M 2034 4250 
Q 1547 4250 1301 3770 
Q 1056 3291 1056 2328 
Q 1056 1369 1301 889 
Q 1547 409 2034 409 
Q 2525 409 2770 889 
Q 3016 1369 3016 2328 
Q 3016 3291 2770 3770 
Q 2525 4250 2034 4250 
z
M 2034 4750 
Q 2819 4750 3233 4129 
Q 3647 3509 3647 2328 
Q 3647 1150 3233 529 
Q 2819 -91 2034 -91 
Q 1250 -91 836 529 
Q 422 1150 422 2328 
Q 422 3509 836 4129 
Q 1250 4750 2034 4750 
z
" transform="scale(0.015625)"/>
        <path id="DejaVuSans-2e" d="M 684 794 
L 1344 794 
L 1344 0 
L 684 0 
L 684 794 
z
" transform="scale(0.015625)"/>
       </defs>
       <use xlink:href="#DejaVuSans-30"/>
       <use xlink:href="#DejaVuSans-2e" transform="translate(63.623047 0)"/>
       <use xlink:href="#DejaVuSans-30" transform="translate(95.410156 0)"/>
      </g>
     </g>
    </g>
    <g id="xtick_2">
     <g id="line2d_3">
      <path d="M 135.139174 245.93875 
L 135.139174 26.88 
" clip-path="url(#p1c0c118828)" style="fill: none; stroke: #b0b0b0; stroke-width: 0.8; stroke-linecap: square"/>
     </g>
     <g id="line2d_4">
      <g>
       <use xlink:href="#me560ec1ea9" x="135.139174" y="245.93875" style="stroke: #000000; stroke-width: 0.8"/>
      </g>
     </g>
     <g id="text_2">
      <!-- 0.2 -->
      <g transform="translate(127.187612 260.537188) scale(0.1 -0.1)">
       <defs>
        <path id="DejaVuSans-32" d="M 1228 531 
L 3431 531 
L 3431 0 
L 469 0 
L 469 531 
Q 828 903 1448 1529 
Q 2069 2156 2228 2338 
Q 2531 2678 2651 2914 
Q 2772 3150 2772 3378 
Q 2772 3750 2511 3984 
Q 2250 4219 1831 4219 
Q 1534 4219 1204 4116 
Q 875 4013 500 3803 
L 500 4441 
Q 881 4594 1212 4672 
Q 1544 4750 1819 4750 
Q 2544 4750 2975 4387 
Q 3406 4025 3406 3419 
Q 3406 3131 3298 2873 
Q 3191 2616 2906 2266 
Q 2828 2175 2409 1742 
Q 1991 1309 1228 531 
z
" transform="scale(0.015625)"/>
       </defs>
       <use xlink:href="#DejaVuSans-30"/>
       <use xlink:href="#DejaVuSans-2e" transform="translate(63.623047 0)"/>
       <use xlink:href="#DejaVuSans-32" transform="translate(95.410156 0)"/>
      </g>
     </g>
    </g>
    <g id="xtick_3">
     <g id="line2d_5">
      <path d="M 190.720042 245.93875 
L 190.720042 26.88 
" clip-path="url(#p1c0c118828)" style="fill: none; stroke: #b0b0b0; stroke-width: 0.8; stroke-linecap: square"/>
     </g>
     <g id="line2d_6">
      <g>
       <use xlink:href="#me560ec1ea9" x="190.720042" y="245.93875" style="stroke: #000000; stroke-width: 0.8"/>
      </g>
     </g>
     <g id="text_3">
      <!-- 0.4 -->
      <g transform="translate(182.768479 260.537188) scale(0.1 -0.1)">
       <defs>
        <path id="DejaVuSans-34" d="M 2419 4116 
L 825 1625 
L 2419 1625 
L 2419 4116 
z
M 2253 4666 
L 3047 4666 
L 3047 1625 
L 3713 1625 
L 3713 1100 
L 3047 1100 
L 3047 0 
L 2419 0 
L 2419 1100 
L 313 1100 
L 313 1709 
L 2253 4666 
z
" transform="scale(0.015625)"/>
       </defs>
       <use xlink:href="#DejaVuSans-30"/>
       <use xlink:href="#DejaVuSans-2e" transform="translate(63.623047 0)"/>
       <use xlink:href="#DejaVuSans-34" transform="translate(95.410156 0)"/>
      </g>
     </g>
    </g>
    <g id="xtick_4">
     <g id="line2d_7">
      <path d="M 246.300909 245.93875 
L 246.300909 26.88 
" clip-path="url(#p1c0c118828)" style="fill: none; stroke: #b0b0b0; stroke-width: 0.8; stroke-linecap: square"/>
     </g>
     <g id="line2d_8">
      <g>
       <use xlink:href="#me560ec1ea9" x="246.300909" y="245.93875" style="stroke: #000000; stroke-width: 0.8"/>
      </g>
     </g>
     <g id="text_4">
      <!-- 0.6 -->
      <g transform="translate(238.349347 260.537188) scale(0.1 -0.1)">
       <defs>
        <path id="DejaVuSans-36" d="M 2113 2584 
Q 1688 2584 1439 2293 
Q 1191 2003 1191 1497 
Q 1191 994 1439 701 
Q 1688 409 2113 409 
Q 2538 409 2786 701 
Q 3034 994 3034 1497 
Q 3034 2003 2786 2293 
Q 2538 2584 2113 2584 
z
M 3366 4563 
L 3366 3988 
Q 3128 4100 2886 4159 
Q 2644 4219 2406 4219 
Q 1781 4219 1451 3797 
Q 1122 3375 1075 2522 
Q 1259 2794 1537 2939 
Q 1816 3084 2150 3084 
Q 2853 3084 3261 2657 
Q 3669 2231 3669 1497 
Q 3669 778 3244 343 
Q 2819 -91 2113 -91 
Q 1303 -91 875 529 
Q 447 1150 447 2328 
Q 447 3434 972 4092 
Q 1497 4750 2381 4750 
Q 2619 4750 2861 4703 
Q 3103 4656 3366 4563 
z
" transform="scale(0.015625)"/>
       </defs>
       <use xlink:href="#DejaVuSans-30"/>
       <use xlink:href="#DejaVuSans-2e" transform="translate(63.623047 0)"/>
       <use xlink:href="#DejaVuSans-36" transform="translate(95.410156 0)"/>
      </g>
     </g>
    </g>
    <g id="xtick_5">
     <g id="line2d_9">
      <path d="M 301.881777 245.93875 
L 301.881777 26.88 
" clip-path="url(#p1c0c118828)" style="fill: none; stroke: #b0b0b0; stroke-width: 0.8; stroke-linecap: square"/>
     </g>
     <g id="line2d_10">
      <g>
       <use xlink:href="#me560ec1ea9" x="301.881777" y="245.93875" style="stroke: #000000; stroke-width: 0.8"/>
      </g>
     </g>
     <g id="text_5">
      <!-- 0.8 -->
      <g transform="translate(293.930214 260.537188) scale(0.1 -0.1)">
       <defs>
        <path id="DejaVuSans-38" d="M 2034 2216 
Q 1584 2216 1326 1975 
Q 1069 1734 1069 1313 
Q 1069 891 1326 650 
Q 1584 409 2034 409 
Q 2484 409 2743 651 
Q 3003 894 3003 1313 
Q 3003 1734 2745 1975 
Q 2488 2216 2034 2216 
z
M 1403 2484 
Q 997 2584 770 2862 
Q 544 3141 544 3541 
Q 544 4100 942 4425 
Q 1341 4750 2034 4750 
Q 2731 4750 3128 4425 
Q 3525 4100 3525 3541 
Q 3525 3141 3298 2862 
Q 3072 2584 2669 2484 
Q 3125 2378 3379 2068 
Q 3634 1759 3634 1313 
Q 3634 634 3220 271 
Q 2806 -91 2034 -91 
Q 1263 -91 848 271 
Q 434 634 434 1313 
Q 434 1759 690 2068 
Q 947 2378 1403 2484 
z
M 1172 3481 
Q 1172 3119 1398 2916 
Q 1625 2713 2034 2713 
Q 2441 2713 2670 2916 
Q 2900 3119 2900 3481 
Q 2900 3844 2670 4047 
Q 2441 4250 2034 4250 
Q 1625 4250 1398 4047 
Q 1172 3844 1172 3481 
z
" transform="scale(0.015625)"/>
       </defs>
       <use xlink:href="#DejaVuSans-30"/>
       <use xlink:href="#DejaVuSans-2e" transform="translate(63.623047 0)"/>
       <use xlink:href="#DejaVuSans-38" transform="translate(95.410156 0)"/>
      </g>
     </g>
    </g>
    <g id="xtick_6">
     <g id="line2d_11">
      <path d="M 357.462644 245.93875 
L 357.462644 26.88 
" clip-path="url(#p1c0c118828)" style="fill: none; stroke: #b0b0b0; stroke-width: 0.8; stroke-linecap: square"/>
     </g>
     <g id="line2d_12">
      <g>
       <use xlink:href="#me560ec1ea9" x="357.462644" y="245.93875" style="stroke: #000000; stroke-width: 0.8"/>
      </g>
     </g>
     <g id="text_6">
      <!-- 1.0 -->
      <g transform="translate(349.511082 260.537188) scale(0.1 -0.1)">
       <defs>
        <path id="DejaVuSans-31" d="M 794 531 
L 1825 531 
L 1825 4091 
L 703 3866 
L 703 4441 
L 1819 4666 
L 2450 4666 
L 2450 531 
L 3481 531 
L 3481 0 
L 794 0 
L 794 531 
z
" transform="scale(0.015625)"/>
       </defs>
       <use xlink:href="#DejaVuSans-31"/>
       <use xlink:href="#DejaVuSans-2e" transform="translate(63.623047 0)"/>
       <use xlink:href="#DejaVuSans-30" transform="translate(95.410156 0)"/>
      </g>
     </g>
    </g>
    <g id="xtick_7">
     <g id="line2d_13">
      <path d="M 413.043512 245.93875 
L 413.043512 26.88 
" clip-path="url(#p1c0c118828)" style="fill: none; stroke: #b0b0b0; stroke-width: 0.8; stroke-linecap: square"/>
     </g>
     <g id="line2d_14">
      <g>
       <use xlink:href="#me560ec1ea9" x="413.043512" y="245.93875" style="stroke: #000000; stroke-width: 0.8"/>
      </g>
     </g>
     <g id="text_7">
      <!-- 1.2 -->
      <g transform="translate(405.091949 260.537188) scale(0.1 -0.1)">
       <use xlink:href="#DejaVuSans-31"/>
       <use xlink:href="#DejaVuSans-2e" transform="translate(63.623047 0)"/>
       <use xlink:href="#DejaVuSans-32" transform="translate(95.410156 0)"/>
      </g>
     </g>
    </g>
    <g id="text_8">
     <!-- SteeringWheel_AAD -->
     <g transform="translate(190.384937 274.215312) scale(0.1 -0.1)">
      <defs>
       <path id="DejaVuSans-53" d="M 3425 4513 
L 3425 3897 
Q 3066 4069 2747 4153 
Q 2428 4238 2131 4238 
Q 1616 4238 1336 4038 
Q 1056 3838 1056 3469 
Q 1056 3159 1242 3001 
Q 1428 2844 1947 2747 
L 2328 2669 
Q 3034 2534 3370 2195 
Q 3706 1856 3706 1288 
Q 3706 609 3251 259 
Q 2797 -91 1919 -91 
Q 1588 -91 1214 -16 
Q 841 59 441 206 
L 441 856 
Q 825 641 1194 531 
Q 1563 422 1919 422 
Q 2459 422 2753 634 
Q 3047 847 3047 1241 
Q 3047 1584 2836 1778 
Q 2625 1972 2144 2069 
L 1759 2144 
Q 1053 2284 737 2584 
Q 422 2884 422 3419 
Q 422 4038 858 4394 
Q 1294 4750 2059 4750 
Q 2388 4750 2728 4690 
Q 3069 4631 3425 4513 
z
" transform="scale(0.015625)"/>
       <path id="DejaVuSans-74" d="M 1172 4494 
L 1172 3500 
L 2356 3500 
L 2356 3053 
L 1172 3053 
L 1172 1153 
Q 1172 725 1289 603 
Q 1406 481 1766 481 
L 2356 481 
L 2356 0 
L 1766 0 
Q 1100 0 847 248 
Q 594 497 594 1153 
L 594 3053 
L 172 3053 
L 172 3500 
L 594 3500 
L 594 4494 
L 1172 4494 
z
" transform="scale(0.015625)"/>
       <path id="DejaVuSans-65" d="M 3597 1894 
L 3597 1613 
L 953 1613 
Q 991 1019 1311 708 
Q 1631 397 2203 397 
Q 2534 397 2845 478 
Q 3156 559 3463 722 
L 3463 178 
Q 3153 47 2828 -22 
Q 2503 -91 2169 -91 
Q 1331 -91 842 396 
Q 353 884 353 1716 
Q 353 2575 817 3079 
Q 1281 3584 2069 3584 
Q 2775 3584 3186 3129 
Q 3597 2675 3597 1894 
z
M 3022 2063 
Q 3016 2534 2758 2815 
Q 2500 3097 2075 3097 
Q 1594 3097 1305 2825 
Q 1016 2553 972 2059 
L 3022 2063 
z
" transform="scale(0.015625)"/>
       <path id="DejaVuSans-72" d="M 2631 2963 
Q 2534 3019 2420 3045 
Q 2306 3072 2169 3072 
Q 1681 3072 1420 2755 
Q 1159 2438 1159 1844 
L 1159 0 
L 581 0 
L 581 3500 
L 1159 3500 
L 1159 2956 
Q 1341 3275 1631 3429 
Q 1922 3584 2338 3584 
Q 2397 3584 2469 3576 
Q 2541 3569 2628 3553 
L 2631 2963 
z
" transform="scale(0.015625)"/>
       <path id="DejaVuSans-69" d="M 603 3500 
L 1178 3500 
L 1178 0 
L 603 0 
L 603 3500 
z
M 603 4863 
L 1178 4863 
L 1178 4134 
L 603 4134 
L 603 4863 
z
" transform="scale(0.015625)"/>
       <path id="DejaVuSans-6e" d="M 3513 2113 
L 3513 0 
L 2938 0 
L 2938 2094 
Q 2938 2591 2744 2837 
Q 2550 3084 2163 3084 
Q 1697 3084 1428 2787 
Q 1159 2491 1159 1978 
L 1159 0 
L 581 0 
L 581 3500 
L 1159 3500 
L 1159 2956 
Q 1366 3272 1645 3428 
Q 1925 3584 2291 3584 
Q 2894 3584 3203 3211 
Q 3513 2838 3513 2113 
z
" transform="scale(0.015625)"/>
       <path id="DejaVuSans-67" d="M 2906 1791 
Q 2906 2416 2648 2759 
Q 2391 3103 1925 3103 
Q 1463 3103 1205 2759 
Q 947 2416 947 1791 
Q 947 1169 1205 825 
Q 1463 481 1925 481 
Q 2391 481 2648 825 
Q 2906 1169 2906 1791 
z
M 3481 434 
Q 3481 -459 3084 -895 
Q 2688 -1331 1869 -1331 
Q 1566 -1331 1297 -1286 
Q 1028 -1241 775 -1147 
L 775 -588 
Q 1028 -725 1275 -790 
Q 1522 -856 1778 -856 
Q 2344 -856 2625 -561 
Q 2906 -266 2906 331 
L 2906 616 
Q 2728 306 2450 153 
Q 2172 0 1784 0 
Q 1141 0 747 490 
Q 353 981 353 1791 
Q 353 2603 747 3093 
Q 1141 3584 1784 3584 
Q 2172 3584 2450 3431 
Q 2728 3278 2906 2969 
L 2906 3500 
L 3481 3500 
L 3481 434 
z
" transform="scale(0.015625)"/>
       <path id="DejaVuSans-57" d="M 213 4666 
L 850 4666 
L 1831 722 
L 2809 4666 
L 3519 4666 
L 4500 722 
L 5478 4666 
L 6119 4666 
L 4947 0 
L 4153 0 
L 3169 4050 
L 2175 0 
L 1381 0 
L 213 4666 
z
" transform="scale(0.015625)"/>
       <path id="DejaVuSans-68" d="M 3513 2113 
L 3513 0 
L 2938 0 
L 2938 2094 
Q 2938 2591 2744 2837 
Q 2550 3084 2163 3084 
Q 1697 3084 1428 2787 
Q 1159 2491 1159 1978 
L 1159 0 
L 581 0 
L 581 4863 
L 1159 4863 
L 1159 2956 
Q 1366 3272 1645 3428 
Q 1925 3584 2291 3584 
Q 2894 3584 3203 3211 
Q 3513 2838 3513 2113 
z
" transform="scale(0.015625)"/>
       <path id="DejaVuSans-6c" d="M 603 4863 
L 1178 4863 
L 1178 0 
L 603 0 
L 603 4863 
z
" transform="scale(0.015625)"/>
       <path id="DejaVuSans-5f" d="M 3263 -1063 
L 3263 -1509 
L -63 -1509 
L -63 -1063 
L 3263 -1063 
z
" transform="scale(0.015625)"/>
       <path id="DejaVuSans-41" d="M 2188 4044 
L 1331 1722 
L 3047 1722 
L 2188 4044 
z
M 1831 4666 
L 2547 4666 
L 4325 0 
L 3669 0 
L 3244 1197 
L 1141 1197 
L 716 0 
L 50 0 
L 1831 4666 
z
" transform="scale(0.015625)"/>
       <path id="DejaVuSans-44" d="M 1259 4147 
L 1259 519 
L 2022 519 
Q 2988 519 3436 956 
Q 3884 1394 3884 2338 
Q 3884 3275 3436 3711 
Q 2988 4147 2022 4147 
L 1259 4147 
z
M 628 4666 
L 1925 4666 
Q 3281 4666 3915 4102 
Q 4550 3538 4550 2338 
Q 4550 1131 3912 565 
Q 3275 0 1925 0 
L 628 0 
L 628 4666 
z
" transform="scale(0.015625)"/>
      </defs>
      <use xlink:href="#DejaVuSans-53"/>
      <use xlink:href="#DejaVuSans-74" transform="translate(63.476562 0)"/>
      <use xlink:href="#DejaVuSans-65" transform="translate(102.685547 0)"/>
      <use xlink:href="#DejaVuSans-65" transform="translate(164.208984 0)"/>
      <use xlink:href="#DejaVuSans-72" transform="translate(225.732422 0)"/>
      <use xlink:href="#DejaVuSans-69" transform="translate(266.845703 0)"/>
      <use xlink:href="#DejaVuSans-6e" transform="translate(294.628906 0)"/>
      <use xlink:href="#DejaVuSans-67" transform="translate(358.007812 0)"/>
      <use xlink:href="#DejaVuSans-57" transform="translate(421.484375 0)"/>
      <use xlink:href="#DejaVuSans-68" transform="translate(520.361328 0)"/>
      <use xlink:href="#DejaVuSans-65" transform="translate(583.740234 0)"/>
      <use xlink:href="#DejaVuSans-65" transform="translate(645.263672 0)"/>
      <use xlink:href="#DejaVuSans-6c" transform="translate(706.787109 0)"/>
      <use xlink:href="#DejaVuSans-5f" transform="translate(734.570312 0)"/>
      <use xlink:href="#DejaVuSans-41" transform="translate(784.570312 0)"/>
      <use xlink:href="#DejaVuSans-41" transform="translate(855.728516 0)"/>
      <use xlink:href="#DejaVuSans-44" transform="translate(924.136719 0)"/>
     </g>
    </g>
   </g>
   <g id="matplotlib.axis_2">
    <g id="ytick_1">
     <g id="line2d_15">
      <path d="M 63.47 245.93875 
L 417.415499 245.93875 
" clip-path="url(#p1c0c118828)" style="fill: none; stroke: #b0b0b0; stroke-width: 0.8; stroke-linecap: square"/>
     </g>
     <g id="line2d_16">
      <defs>
       <path id="m45d08689e3" d="M 0 0 
L -3.5 0 
" style="stroke: #000000; stroke-width: 0.8"/>
      </defs>
      <g>
       <use xlink:href="#m45d08689e3" x="63.47" y="245.93875" style="stroke: #000000; stroke-width: 0.8"/>
      </g>
     </g>
     <g id="text_9">
      <!-- 0 -->
      <g transform="translate(50.1075 249.737969) scale(0.1 -0.1)">
       <use xlink:href="#DejaVuSans-30"/>
      </g>
     </g>
    </g>
    <g id="ytick_2">
     <g id="line2d_17">
      <path d="M 63.47 220.022305 
L 417.415499 220.022305 
" clip-path="url(#p1c0c118828)" style="fill: none; stroke: #b0b0b0; stroke-width: 0.8; stroke-linecap: square"/>
     </g>
     <g id="line2d_18">
      <g>
       <use xlink:href="#m45d08689e3" x="63.47" y="220.022305" style="stroke: #000000; stroke-width: 0.8"/>
      </g>
     </g>
     <g id="text_10">
      <!-- 2500 -->
      <g transform="translate(31.02 223.821524) scale(0.1 -0.1)">
       <defs>
        <path id="DejaVuSans-35" d="M 691 4666 
L 3169 4666 
L 3169 4134 
L 1269 4134 
L 1269 2991 
Q 1406 3038 1543 3061 
Q 1681 3084 1819 3084 
Q 2600 3084 3056 2656 
Q 3513 2228 3513 1497 
Q 3513 744 3044 326 
Q 2575 -91 1722 -91 
Q 1428 -91 1123 -41 
Q 819 9 494 109 
L 494 744 
Q 775 591 1075 516 
Q 1375 441 1709 441 
Q 2250 441 2565 725 
Q 2881 1009 2881 1497 
Q 2881 1984 2565 2268 
Q 2250 2553 1709 2553 
Q 1456 2553 1204 2497 
Q 953 2441 691 2322 
L 691 4666 
z
" transform="scale(0.015625)"/>
       </defs>
       <use xlink:href="#DejaVuSans-32"/>
       <use xlink:href="#DejaVuSans-35" transform="translate(63.623047 0)"/>
       <use xlink:href="#DejaVuSans-30" transform="translate(127.246094 0)"/>
       <use xlink:href="#DejaVuSans-30" transform="translate(190.869141 0)"/>
      </g>
     </g>
    </g>
    <g id="ytick_3">
     <g id="line2d_19">
      <path d="M 63.47 194.10586 
L 417.415499 194.10586 
" clip-path="url(#p1c0c118828)" style="fill: none; stroke: #b0b0b0; stroke-width: 0.8; stroke-linecap: square"/>
     </g>
     <g id="line2d_20">
      <g>
       <use xlink:href="#m45d08689e3" x="63.47" y="194.10586" style="stroke: #000000; stroke-width: 0.8"/>
      </g>
     </g>
     <g id="text_11">
      <!-- 5000 -->
      <g transform="translate(31.02 197.905079) scale(0.1 -0.1)">
       <use xlink:href="#DejaVuSans-35"/>
       <use xlink:href="#DejaVuSans-30" transform="translate(63.623047 0)"/>
       <use xlink:href="#DejaVuSans-30" transform="translate(127.246094 0)"/>
       <use xlink:href="#DejaVuSans-30" transform="translate(190.869141 0)"/>
      </g>
     </g>
    </g>
    <g id="ytick_4">
     <g id="line2d_21">
      <path d="M 63.47 168.189415 
L 417.415499 168.189415 
" clip-path="url(#p1c0c118828)" style="fill: none; stroke: #b0b0b0; stroke-width: 0.8; stroke-linecap: square"/>
     </g>
     <g id="line2d_22">
      <g>
       <use xlink:href="#m45d08689e3" x="63.47" y="168.189415" style="stroke: #000000; stroke-width: 0.8"/>
      </g>
     </g>
     <g id="text_12">
      <!-- 7500 -->
      <g transform="translate(31.02 171.988634) scale(0.1 -0.1)">
       <defs>
        <path id="DejaVuSans-37" d="M 525 4666 
L 3525 4666 
L 3525 4397 
L 1831 0 
L 1172 0 
L 2766 4134 
L 525 4134 
L 525 4666 
z
" transform="scale(0.015625)"/>
       </defs>
       <use xlink:href="#DejaVuSans-37"/>
       <use xlink:href="#DejaVuSans-35" transform="translate(63.623047 0)"/>
       <use xlink:href="#DejaVuSans-30" transform="translate(127.246094 0)"/>
       <use xlink:href="#DejaVuSans-30" transform="translate(190.869141 0)"/>
      </g>
     </g>
    </g>
    <g id="ytick_5">
     <g id="line2d_23">
      <path d="M 63.47 142.272971 
L 417.415499 142.272971 
" clip-path="url(#p1c0c118828)" style="fill: none; stroke: #b0b0b0; stroke-width: 0.8; stroke-linecap: square"/>
     </g>
     <g id="line2d_24">
      <g>
       <use xlink:href="#m45d08689e3" x="63.47" y="142.272971" style="stroke: #000000; stroke-width: 0.8"/>
      </g>
     </g>
     <g id="text_13">
      <!-- 10000 -->
      <g transform="translate(24.6575 146.072189) scale(0.1 -0.1)">
       <use xlink:href="#DejaVuSans-31"/>
       <use xlink:href="#DejaVuSans-30" transform="translate(63.623047 0)"/>
       <use xlink:href="#DejaVuSans-30" transform="translate(127.246094 0)"/>
       <use xlink:href="#DejaVuSans-30" transform="translate(190.869141 0)"/>
       <use xlink:href="#DejaVuSans-30" transform="translate(254.492188 0)"/>
      </g>
     </g>
    </g>
    <g id="ytick_6">
     <g id="line2d_25">
      <path d="M 63.47 116.356526 
L 417.415499 116.356526 
" clip-path="url(#p1c0c118828)" style="fill: none; stroke: #b0b0b0; stroke-width: 0.8; stroke-linecap: square"/>
     </g>
     <g id="line2d_26">
      <g>
       <use xlink:href="#m45d08689e3" x="63.47" y="116.356526" style="stroke: #000000; stroke-width: 0.8"/>
      </g>
     </g>
     <g id="text_14">
      <!-- 12500 -->
      <g transform="translate(24.6575 120.155745) scale(0.1 -0.1)">
       <use xlink:href="#DejaVuSans-31"/>
       <use xlink:href="#DejaVuSans-32" transform="translate(63.623047 0)"/>
       <use xlink:href="#DejaVuSans-35" transform="translate(127.246094 0)"/>
       <use xlink:href="#DejaVuSans-30" transform="translate(190.869141 0)"/>
       <use xlink:href="#DejaVuSans-30" transform="translate(254.492188 0)"/>
      </g>
     </g>
    </g>
    <g id="ytick_7">
     <g id="line2d_27">
      <path d="M 63.47 90.440081 
L 417.415499 90.440081 
" clip-path="url(#p1c0c118828)" style="fill: none; stroke: #b0b0b0; stroke-width: 0.8; stroke-linecap: square"/>
     </g>
     <g id="line2d_28">
      <g>
       <use xlink:href="#m45d08689e3" x="63.47" y="90.440081" style="stroke: #000000; stroke-width: 0.8"/>
      </g>
     </g>
     <g id="text_15">
      <!-- 15000 -->
      <g transform="translate(24.6575 94.2393) scale(0.1 -0.1)">
       <use xlink:href="#DejaVuSans-31"/>
       <use xlink:href="#DejaVuSans-35" transform="translate(63.623047 0)"/>
       <use xlink:href="#DejaVuSans-30" transform="translate(127.246094 0)"/>
       <use xlink:href="#DejaVuSans-30" transform="translate(190.869141 0)"/>
       <use xlink:href="#DejaVuSans-30" transform="translate(254.492188 0)"/>
      </g>
     </g>
    </g>
    <g id="ytick_8">
     <g id="line2d_29">
      <path d="M 63.47 64.523636 
L 417.415499 64.523636 
" clip-path="url(#p1c0c118828)" style="fill: none; stroke: #b0b0b0; stroke-width: 0.8; stroke-linecap: square"/>
     </g>
     <g id="line2d_30">
      <g>
       <use xlink:href="#m45d08689e3" x="63.47" y="64.523636" style="stroke: #000000; stroke-width: 0.8"/>
      </g>
     </g>
     <g id="text_16">
      <!-- 17500 -->
      <g transform="translate(24.6575 68.322855) scale(0.1 -0.1)">
       <use xlink:href="#DejaVuSans-31"/>
       <use xlink:href="#DejaVuSans-37" transform="translate(63.623047 0)"/>
       <use xlink:href="#DejaVuSans-35" transform="translate(127.246094 0)"/>
       <use xlink:href="#DejaVuSans-30" transform="translate(190.869141 0)"/>
       <use xlink:href="#DejaVuSans-30" transform="translate(254.492188 0)"/>
      </g>
     </g>
    </g>
    <g id="ytick_9">
     <g id="line2d_31">
      <path d="M 63.47 38.607191 
L 417.415499 38.607191 
" clip-path="url(#p1c0c118828)" style="fill: none; stroke: #b0b0b0; stroke-width: 0.8; stroke-linecap: square"/>
     </g>
     <g id="line2d_32">
      <g>
       <use xlink:href="#m45d08689e3" x="63.47" y="38.607191" style="stroke: #000000; stroke-width: 0.8"/>
      </g>
     </g>
     <g id="text_17">
      <!-- 20000 -->
      <g transform="translate(24.6575 42.40641) scale(0.1 -0.1)">
       <use xlink:href="#DejaVuSans-32"/>
       <use xlink:href="#DejaVuSans-30" transform="translate(63.623047 0)"/>
       <use xlink:href="#DejaVuSans-30" transform="translate(127.246094 0)"/>
       <use xlink:href="#DejaVuSans-30" transform="translate(190.869141 0)"/>
       <use xlink:href="#DejaVuSans-30" transform="translate(254.492188 0)"/>
      </g>
     </g>
    </g>
    <g id="text_18">
     <!-- Count -->
     <g transform="translate(18.577812 151.257812) rotate(-90) scale(0.1 -0.1)">
      <defs>
       <path id="DejaVuSans-43" d="M 4122 4306 
L 4122 3641 
Q 3803 3938 3442 4084 
Q 3081 4231 2675 4231 
Q 1875 4231 1450 3742 
Q 1025 3253 1025 2328 
Q 1025 1406 1450 917 
Q 1875 428 2675 428 
Q 3081 428 3442 575 
Q 3803 722 4122 1019 
L 4122 359 
Q 3791 134 3420 21 
Q 3050 -91 2638 -91 
Q 1578 -91 968 557 
Q 359 1206 359 2328 
Q 359 3453 968 4101 
Q 1578 4750 2638 4750 
Q 3056 4750 3426 4639 
Q 3797 4528 4122 4306 
z
" transform="scale(0.015625)"/>
       <path id="DejaVuSans-6f" d="M 1959 3097 
Q 1497 3097 1228 2736 
Q 959 2375 959 1747 
Q 959 1119 1226 758 
Q 1494 397 1959 397 
Q 2419 397 2687 759 
Q 2956 1122 2956 1747 
Q 2956 2369 2687 2733 
Q 2419 3097 1959 3097 
z
M 1959 3584 
Q 2709 3584 3137 3096 
Q 3566 2609 3566 1747 
Q 3566 888 3137 398 
Q 2709 -91 1959 -91 
Q 1206 -91 779 398 
Q 353 888 353 1747 
Q 353 2609 779 3096 
Q 1206 3584 1959 3584 
z
" transform="scale(0.015625)"/>
       <path id="DejaVuSans-75" d="M 544 1381 
L 544 3500 
L 1119 3500 
L 1119 1403 
Q 1119 906 1312 657 
Q 1506 409 1894 409 
Q 2359 409 2629 706 
Q 2900 1003 2900 1516 
L 2900 3500 
L 3475 3500 
L 3475 0 
L 2900 0 
L 2900 538 
Q 2691 219 2414 64 
Q 2138 -91 1772 -91 
Q 1169 -91 856 284 
Q 544 659 544 1381 
z
M 1991 3584 
L 1991 3584 
z
" transform="scale(0.015625)"/>
      </defs>
      <use xlink:href="#DejaVuSans-43"/>
      <use xlink:href="#DejaVuSans-6f" transform="translate(69.824219 0)"/>
      <use xlink:href="#DejaVuSans-75" transform="translate(131.005859 0)"/>
      <use xlink:href="#DejaVuSans-6e" transform="translate(194.384766 0)"/>
      <use xlink:href="#DejaVuSans-74" transform="translate(257.763672 0)"/>
     </g>
    </g>
   </g>
   <g id="patch_53">
    <path d="M 63.47 245.93875 
L 63.47 26.88 
" style="fill: none; stroke: #000000; stroke-width: 0.8; stroke-linejoin: miter; stroke-linecap: square"/>
   </g>
   <g id="patch_54">
    <path d="M 417.415499 245.93875 
L 417.415499 26.88 
" style="fill: none; stroke: #000000; stroke-width: 0.8; stroke-linejoin: miter; stroke-linecap: square"/>
   </g>
   <g id="patch_55">
    <path d="M 63.47 245.93875 
L 417.415499 245.93875 
" style="fill: none; stroke: #000000; stroke-width: 0.8; stroke-linejoin: miter; stroke-linecap: square"/>
   </g>
   <g id="patch_56">
    <path d="M 63.47 26.88 
L 417.415499 26.88 
" style="fill: none; stroke: #000000; stroke-width: 0.8; stroke-linejoin: miter; stroke-linecap: square"/>
   </g>
   <g id="text_19">
    <!-- SteeringWheel_AAD -->
    <g transform="translate(180.373375 20.88) scale(0.12 -0.12)">
     <use xlink:href="#DejaVuSans-53"/>
     <use xlink:href="#DejaVuSans-74" transform="translate(63.476562 0)"/>
     <use xlink:href="#DejaVuSans-65" transform="translate(102.685547 0)"/>
     <use xlink:href="#DejaVuSans-65" transform="translate(164.208984 0)"/>
     <use xlink:href="#DejaVuSans-72" transform="translate(225.732422 0)"/>
     <use xlink:href="#DejaVuSans-69" transform="translate(266.845703 0)"/>
     <use xlink:href="#DejaVuSans-6e" transform="translate(294.628906 0)"/>
     <use xlink:href="#DejaVuSans-67" transform="translate(358.007812 0)"/>
     <use xlink:href="#DejaVuSans-57" transform="translate(421.484375 0)"/>
     <use xlink:href="#DejaVuSans-68" transform="translate(520.361328 0)"/>
     <use xlink:href="#DejaVuSans-65" transform="translate(583.740234 0)"/>
     <use xlink:href="#DejaVuSans-65" transform="translate(645.263672 0)"/>
     <use xlink:href="#DejaVuSans-6c" transform="translate(706.787109 0)"/>
     <use xlink:href="#DejaVuSans-5f" transform="translate(734.570312 0)"/>
     <use xlink:href="#DejaVuSans-41" transform="translate(784.570312 0)"/>
     <use xlink:href="#DejaVuSans-41" transform="translate(855.728516 0)"/>
     <use xlink:href="#DejaVuSans-44" transform="translate(924.136719 0)"/>
    </g>
   </g>
  </g>
 </g>
 <defs>
  <clipPath id="p1c0c118828">
   <rect x="63.47" y="26.88" width="353.945499" height="219.05875"/>
  </clipPath>
 </defs>
</svg>
