<?xml version="1.0" encoding="utf-8" standalone="no"?>
<!DOCTYPE svg PUBLIC "-//W3C//DTD SVG 1.1//EN"
  "http://www.w3.org/Graphics/SVG/1.1/DTD/svg11.dtd">
<svg xmlns:xlink="http://www.w3.org/1999/xlink" width="432pt" height="288pt" viewBox="0 0 432 288" xmlns="http://www.w3.org/2000/svg" version="1.1">
 <metadata>
  <rdf:RDF xmlns:dc="http://purl.org/dc/elements/1.1/" xmlns:cc="http://creativecommons.org/ns#" xmlns:rdf="http://www.w3.org/1999/02/22-rdf-syntax-ns#">
   <cc:Work>
    <dc:type rdf:resource="http://purl.org/dc/dcmitype/StillImage"/>
    <dc:date>2025-06-15T13:37:39.464962</dc:date>
    <dc:format>image/svg+xml</dc:format>
    <dc:creator>
     <cc:Agent>
      <dc:title>Matplotlib v3.10.0, https://matplotlib.org/</dc:title>
     </cc:Agent>
    </dc:creator>
   </cc:Work>
  </rdf:RDF>
 </metadata>
 <defs>
  <style type="text/css">*{stroke-linejoin: round; stroke-linecap: butt}</style>
 </defs>
 <g id="figure_1">
  <g id="patch_1">
   <path d="M 0 288 
L 432 288 
L 432 0 
L 0 0 
z
" style="fill: #ffffff"/>
  </g>
  <g id="axes_1">
   <g id="patch_2">
    <path d="M 57.17 245.93875 
L 421.2 245.93875 
L 421.2 26.88 
L 57.17 26.88 
z
" style="fill: #ffffff"/>
   </g>
   <g id="patch_3">
    <path d="M 73.716818 245.93875 
L 80.335545 245.93875 
L 80.335545 245.861737 
L 73.716818 245.861737 
z
" clip-path="url(#p688e84bc65)" style="fill: #1f77b4"/>
   </g>
   <g id="patch_4">
    <path d="M 80.335545 245.93875 
L 86.954273 245.93875 
L 86.954273 245.93875 
L 80.335545 245.93875 
z
" clip-path="url(#p688e84bc65)" style="fill: #1f77b4"/>
   </g>
   <g id="patch_5">
    <path d="M 86.954273 245.93875 
L 93.573 245.93875 
L 93.573 245.861737 
L 86.954273 245.861737 
z
" clip-path="url(#p688e84bc65)" style="fill: #1f77b4"/>
   </g>
   <g id="patch_6">
    <path d="M 93.573 245.93875 
L 100.191727 245.93875 
L 100.191727 245.93875 
L 93.573 245.93875 
z
" clip-path="url(#p688e84bc65)" style="fill: #1f77b4"/>
   </g>
   <g id="patch_7">
    <path d="M 100.191727 245.93875 
L 106.810455 245.93875 
L 106.810455 245.861737 
L 100.191727 245.861737 
z
" clip-path="url(#p688e84bc65)" style="fill: #1f77b4"/>
   </g>
   <g id="patch_8">
    <path d="M 106.810455 245.93875 
L 113.429182 245.93875 
L 113.429182 245.93875 
L 106.810455 245.93875 
z
" clip-path="url(#p688e84bc65)" style="fill: #1f77b4"/>
   </g>
   <g id="patch_9">
    <path d="M 113.429182 245.93875 
L 120.047909 245.93875 
L 120.047909 245.861737 
L 113.429182 245.861737 
z
" clip-path="url(#p688e84bc65)" style="fill: #1f77b4"/>
   </g>
   <g id="patch_10">
    <path d="M 120.047909 245.93875 
L 126.666636 245.93875 
L 126.666636 245.630699 
L 120.047909 245.630699 
z
" clip-path="url(#p688e84bc65)" style="fill: #1f77b4"/>
   </g>
   <g id="patch_11">
    <path d="M 126.666636 245.93875 
L 133.285364 245.93875 
L 133.285364 245.553687 
L 126.666636 245.553687 
z
" clip-path="url(#p688e84bc65)" style="fill: #1f77b4"/>
   </g>
   <g id="patch_12">
    <path d="M 133.285364 245.93875 
L 139.904091 245.93875 
L 139.904091 245.553687 
L 133.285364 245.553687 
z
" clip-path="url(#p688e84bc65)" style="fill: #1f77b4"/>
   </g>
   <g id="patch_13">
    <path d="M 139.904091 245.93875 
L 146.522818 245.93875 
L 146.522818 245.322648 
L 139.904091 245.322648 
z
" clip-path="url(#p688e84bc65)" style="fill: #1f77b4"/>
   </g>
   <g id="patch_14">
    <path d="M 146.522818 245.93875 
L 153.141545 245.93875 
L 153.141545 244.860572 
L 146.522818 244.860572 
z
" clip-path="url(#p688e84bc65)" style="fill: #1f77b4"/>
   </g>
   <g id="patch_15">
    <path d="M 153.141545 245.93875 
L 159.760273 245.93875 
L 159.760273 244.475509 
L 153.141545 244.475509 
z
" clip-path="url(#p688e84bc65)" style="fill: #1f77b4"/>
   </g>
   <g id="patch_16">
    <path d="M 159.760273 245.93875 
L 166.379 245.93875 
L 166.379 243.243306 
L 159.760273 243.243306 
z
" clip-path="url(#p688e84bc65)" style="fill: #1f77b4"/>
   </g>
   <g id="patch_17">
    <path d="M 166.379 245.93875 
L 172.997727 245.93875 
L 172.997727 243.166293 
L 166.379 243.166293 
z
" clip-path="url(#p688e84bc65)" style="fill: #1f77b4"/>
   </g>
   <g id="patch_18">
    <path d="M 172.997727 245.93875 
L 179.616455 245.93875 
L 179.616455 238.468519 
L 172.997727 238.468519 
z
" clip-path="url(#p688e84bc65)" style="fill: #1f77b4"/>
   </g>
   <g id="patch_19">
    <path d="M 179.616455 245.93875 
L 186.235182 245.93875 
L 186.235182 239.08462 
L 179.616455 239.08462 
z
" clip-path="url(#p688e84bc65)" style="fill: #1f77b4"/>
   </g>
   <g id="patch_20">
    <path d="M 186.235182 245.93875 
L 192.853909 245.93875 
L 192.853909 233.616719 
L 186.235182 233.616719 
z
" clip-path="url(#p688e84bc65)" style="fill: #1f77b4"/>
   </g>
   <g id="patch_21">
    <path d="M 192.853909 245.93875 
L 199.472636 245.93875 
L 199.472636 226.916615 
L 192.853909 226.916615 
z
" clip-path="url(#p688e84bc65)" style="fill: #1f77b4"/>
   </g>
   <g id="patch_22">
    <path d="M 199.472636 245.93875 
L 206.091364 245.93875 
L 206.091364 220.370536 
L 199.472636 220.370536 
z
" clip-path="url(#p688e84bc65)" style="fill: #1f77b4"/>
   </g>
   <g id="patch_23">
    <path d="M 206.091364 245.93875 
L 212.710091 245.93875 
L 212.710091 209.434734 
L 206.091364 209.434734 
z
" clip-path="url(#p688e84bc65)" style="fill: #1f77b4"/>
   </g>
   <g id="patch_24">
    <path d="M 212.710091 245.93875 
L 219.328818 245.93875 
L 219.328818 193.262069 
L 212.710091 193.262069 
z
" clip-path="url(#p688e84bc65)" style="fill: #1f77b4"/>
   </g>
   <g id="patch_25">
    <path d="M 219.328818 245.93875 
L 225.947545 245.93875 
L 225.947545 163.612183 
L 219.328818 163.612183 
z
" clip-path="url(#p688e84bc65)" style="fill: #1f77b4"/>
   </g>
   <g id="patch_26">
    <path d="M 225.947545 245.93875 
L 232.566273 245.93875 
L 232.566273 127.493231 
L 225.947545 127.493231 
z
" clip-path="url(#p688e84bc65)" style="fill: #1f77b4"/>
   </g>
   <g id="patch_27">
    <path d="M 232.566273 245.93875 
L 239.185 245.93875 
L 239.185 94.454786 
L 232.566273 94.454786 
z
" clip-path="url(#p688e84bc65)" style="fill: #1f77b4"/>
   </g>
   <g id="patch_28">
    <path d="M 239.185 245.93875 
L 245.803727 245.93875 
L 245.803727 48.940285 
L 239.185 48.940285 
z
" clip-path="url(#p688e84bc65)" style="fill: #1f77b4"/>
   </g>
   <g id="patch_29">
    <path d="M 245.803727 245.93875 
L 252.422455 245.93875 
L 252.422455 37.311369 
L 245.803727 37.311369 
z
" clip-path="url(#p688e84bc65)" style="fill: #1f77b4"/>
   </g>
   <g id="patch_30">
    <path d="M 252.422455 245.93875 
L 259.041182 245.93875 
L 259.041182 65.035938 
L 252.422455 65.035938 
z
" clip-path="url(#p688e84bc65)" style="fill: #1f77b4"/>
   </g>
   <g id="patch_31">
    <path d="M 259.041182 245.93875 
L 265.659909 245.93875 
L 265.659909 104.697474 
L 259.041182 104.697474 
z
" clip-path="url(#p688e84bc65)" style="fill: #1f77b4"/>
   </g>
   <g id="patch_32">
    <path d="M 265.659909 245.93875 
L 272.278636 245.93875 
L 272.278636 147.439518 
L 265.659909 147.439518 
z
" clip-path="url(#p688e84bc65)" style="fill: #1f77b4"/>
   </g>
   <g id="patch_33">
    <path d="M 272.278636 245.93875 
L 278.897364 245.93875 
L 278.897364 177.628493 
L 272.278636 177.628493 
z
" clip-path="url(#p688e84bc65)" style="fill: #1f77b4"/>
   </g>
   <g id="patch_34">
    <path d="M 278.897364 245.93875 
L 285.516091 245.93875 
L 285.516091 201.040351 
L 278.897364 201.040351 
z
" clip-path="url(#p688e84bc65)" style="fill: #1f77b4"/>
   </g>
   <g id="patch_35">
    <path d="M 285.516091 245.93875 
L 292.134818 245.93875 
L 292.134818 209.973823 
L 285.516091 209.973823 
z
" clip-path="url(#p688e84bc65)" style="fill: #1f77b4"/>
   </g>
   <g id="patch_36">
    <path d="M 292.134818 245.93875 
L 298.753545 245.93875 
L 298.753545 224.991298 
L 292.134818 224.991298 
z
" clip-path="url(#p688e84bc65)" style="fill: #1f77b4"/>
   </g>
   <g id="patch_37">
    <path d="M 298.753545 245.93875 
L 305.372273 245.93875 
L 305.372273 231.614389 
L 298.753545 231.614389 
z
" clip-path="url(#p688e84bc65)" style="fill: #1f77b4"/>
   </g>
   <g id="patch_38">
    <path d="M 305.372273 245.93875 
L 311.991 245.93875 
L 311.991 236.158138 
L 305.372273 236.158138 
z
" clip-path="url(#p688e84bc65)" style="fill: #1f77b4"/>
   </g>
   <g id="patch_39">
    <path d="M 311.991 245.93875 
L 318.609727 245.93875 
L 318.609727 239.623709 
L 311.991 239.623709 
z
" clip-path="url(#p688e84bc65)" style="fill: #1f77b4"/>
   </g>
   <g id="patch_40">
    <path d="M 318.609727 245.93875 
L 325.228455 245.93875 
L 325.228455 241.703052 
L 318.609727 241.703052 
z
" clip-path="url(#p688e84bc65)" style="fill: #1f77b4"/>
   </g>
   <g id="patch_41">
    <path d="M 325.228455 245.93875 
L 331.847182 245.93875 
L 331.847182 242.550192 
L 325.228455 242.550192 
z
" clip-path="url(#p688e84bc65)" style="fill: #1f77b4"/>
   </g>
   <g id="patch_42">
    <path d="M 331.847182 245.93875 
L 338.465909 245.93875 
L 338.465909 243.93642 
L 331.847182 243.93642 
z
" clip-path="url(#p688e84bc65)" style="fill: #1f77b4"/>
   </g>
   <g id="patch_43">
    <path d="M 338.465909 245.93875 
L 345.084636 245.93875 
L 345.084636 244.552522 
L 338.465909 244.552522 
z
" clip-path="url(#p688e84bc65)" style="fill: #1f77b4"/>
   </g>
   <g id="patch_44">
    <path d="M 345.084636 245.93875 
L 351.703364 245.93875 
L 351.703364 245.09161 
L 345.084636 245.09161 
z
" clip-path="url(#p688e84bc65)" style="fill: #1f77b4"/>
   </g>
   <g id="patch_45">
    <path d="M 351.703364 245.93875 
L 358.322091 245.93875 
L 358.322091 245.784725 
L 351.703364 245.784725 
z
" clip-path="url(#p688e84bc65)" style="fill: #1f77b4"/>
   </g>
   <g id="patch_46">
    <path d="M 358.322091 245.93875 
L 364.940818 245.93875 
L 364.940818 245.399661 
L 358.322091 245.399661 
z
" clip-path="url(#p688e84bc65)" style="fill: #1f77b4"/>
   </g>
   <g id="patch_47">
    <path d="M 364.940818 245.93875 
L 371.559545 245.93875 
L 371.559545 245.707712 
L 364.940818 245.707712 
z
" clip-path="url(#p688e84bc65)" style="fill: #1f77b4"/>
   </g>
   <g id="patch_48">
    <path d="M 371.559545 245.93875 
L 378.178273 245.93875 
L 378.178273 245.93875 
L 371.559545 245.93875 
z
" clip-path="url(#p688e84bc65)" style="fill: #1f77b4"/>
   </g>
   <g id="patch_49">
    <path d="M 378.178273 245.93875 
L 384.797 245.93875 
L 384.797 245.861737 
L 378.178273 245.861737 
z
" clip-path="url(#p688e84bc65)" style="fill: #1f77b4"/>
   </g>
   <g id="patch_50">
    <path d="M 384.797 245.93875 
L 391.415727 245.93875 
L 391.415727 245.93875 
L 384.797 245.93875 
z
" clip-path="url(#p688e84bc65)" style="fill: #1f77b4"/>
   </g>
   <g id="patch_51">
    <path d="M 391.415727 245.93875 
L 398.034455 245.93875 
L 398.034455 245.93875 
L 391.415727 245.93875 
z
" clip-path="url(#p688e84bc65)" style="fill: #1f77b4"/>
   </g>
   <g id="patch_52">
    <path d="M 398.034455 245.93875 
L 404.653182 245.93875 
L 404.653182 245.707712 
L 398.034455 245.707712 
z
" clip-path="url(#p688e84bc65)" style="fill: #1f77b4"/>
   </g>
   <g id="matplotlib.axis_1">
    <g id="xtick_1">
     <g id="line2d_1">
      <path d="M 97.957336 245.93875 
L 97.957336 26.88 
" clip-path="url(#p688e84bc65)" style="fill: none; stroke: #b0b0b0; stroke-width: 0.8; stroke-linecap: square"/>
     </g>
     <g id="line2d_2">
      <defs>
       <path id="m08669e79f9" d="M 0 0 
L 0 3.5 
" style="stroke: #000000; stroke-width: 0.8"/>
      </defs>
      <g>
       <use xlink:href="#m08669e79f9" x="97.957336" y="245.93875" style="stroke: #000000; stroke-width: 0.8"/>
      </g>
     </g>
     <g id="text_1">
      <!-- −4 -->
      <g transform="translate(90.586242 260.537188) scale(0.1 -0.1)">
       <defs>
        <path id="DejaVuSans-2212" d="M 678 2272 
L 4684 2272 
L 4684 1741 
L 678 1741 
L 678 2272 
z
" transform="scale(0.015625)"/>
        <path id="DejaVuSans-34" d="M 2419 4116 
L 825 1625 
L 2419 1625 
L 2419 4116 
z
M 2253 4666 
L 3047 4666 
L 3047 1625 
L 3713 1625 
L 3713 1100 
L 3047 1100 
L 3047 0 
L 2419 0 
L 2419 1100 
L 313 1100 
L 313 1709 
L 2253 4666 
z
" transform="scale(0.015625)"/>
       </defs>
       <use xlink:href="#DejaVuSans-2212"/>
       <use xlink:href="#DejaVuSans-34" transform="translate(83.789062 0)"/>
      </g>
     </g>
    </g>
    <g id="xtick_2">
     <g id="line2d_3">
      <path d="M 172.49454 245.93875 
L 172.49454 26.88 
" clip-path="url(#p688e84bc65)" style="fill: none; stroke: #b0b0b0; stroke-width: 0.8; stroke-linecap: square"/>
     </g>
     <g id="line2d_4">
      <g>
       <use xlink:href="#m08669e79f9" x="172.49454" y="245.93875" style="stroke: #000000; stroke-width: 0.8"/>
      </g>
     </g>
     <g id="text_2">
      <!-- −2 -->
      <g transform="translate(165.123446 260.537188) scale(0.1 -0.1)">
       <defs>
        <path id="DejaVuSans-32" d="M 1228 531 
L 3431 531 
L 3431 0 
L 469 0 
L 469 531 
Q 828 903 1448 1529 
Q 2069 2156 2228 2338 
Q 2531 2678 2651 2914 
Q 2772 3150 2772 3378 
Q 2772 3750 2511 3984 
Q 2250 4219 1831 4219 
Q 1534 4219 1204 4116 
Q 875 4013 500 3803 
L 500 4441 
Q 881 4594 1212 4672 
Q 1544 4750 1819 4750 
Q 2544 4750 2975 4387 
Q 3406 4025 3406 3419 
Q 3406 3131 3298 2873 
Q 3191 2616 2906 2266 
Q 2828 2175 2409 1742 
Q 1991 1309 1228 531 
z
" transform="scale(0.015625)"/>
       </defs>
       <use xlink:href="#DejaVuSans-2212"/>
       <use xlink:href="#DejaVuSans-32" transform="translate(83.789062 0)"/>
      </g>
     </g>
    </g>
    <g id="xtick_3">
     <g id="line2d_5">
      <path d="M 247.031744 245.93875 
L 247.031744 26.88 
" clip-path="url(#p688e84bc65)" style="fill: none; stroke: #b0b0b0; stroke-width: 0.8; stroke-linecap: square"/>
     </g>
     <g id="line2d_6">
      <g>
       <use xlink:href="#m08669e79f9" x="247.031744" y="245.93875" style="stroke: #000000; stroke-width: 0.8"/>
      </g>
     </g>
     <g id="text_3">
      <!-- 0 -->
      <g transform="translate(243.850494 260.537188) scale(0.1 -0.1)">
       <defs>
        <path id="DejaVuSans-30" d="M 2034 4250 
Q 1547 4250 1301 3770 
Q 1056 3291 1056 2328 
Q 1056 1369 1301 889 
Q 1547 409 2034 409 
Q 2525 409 2770 889 
Q 3016 1369 3016 2328 
Q 3016 3291 2770 3770 
Q 2525 4250 2034 4250 
z
M 2034 4750 
Q 2819 4750 3233 4129 
Q 3647 3509 3647 2328 
Q 3647 1150 3233 529 
Q 2819 -91 2034 -91 
Q 1250 -91 836 529 
Q 422 1150 422 2328 
Q 422 3509 836 4129 
Q 1250 4750 2034 4750 
z
" transform="scale(0.015625)"/>
       </defs>
       <use xlink:href="#DejaVuSans-30"/>
      </g>
     </g>
    </g>
    <g id="xtick_4">
     <g id="line2d_7">
      <path d="M 321.568948 245.93875 
L 321.568948 26.88 
" clip-path="url(#p688e84bc65)" style="fill: none; stroke: #b0b0b0; stroke-width: 0.8; stroke-linecap: square"/>
     </g>
     <g id="line2d_8">
      <g>
       <use xlink:href="#m08669e79f9" x="321.568948" y="245.93875" style="stroke: #000000; stroke-width: 0.8"/>
      </g>
     </g>
     <g id="text_4">
      <!-- 2 -->
      <g transform="translate(318.387698 260.537188) scale(0.1 -0.1)">
       <use xlink:href="#DejaVuSans-32"/>
      </g>
     </g>
    </g>
    <g id="xtick_5">
     <g id="line2d_9">
      <path d="M 396.106152 245.93875 
L 396.106152 26.88 
" clip-path="url(#p688e84bc65)" style="fill: none; stroke: #b0b0b0; stroke-width: 0.8; stroke-linecap: square"/>
     </g>
     <g id="line2d_10">
      <g>
       <use xlink:href="#m08669e79f9" x="396.106152" y="245.93875" style="stroke: #000000; stroke-width: 0.8"/>
      </g>
     </g>
     <g id="text_5">
      <!-- 4 -->
      <g transform="translate(392.924902 260.537188) scale(0.1 -0.1)">
       <use xlink:href="#DejaVuSans-34"/>
      </g>
     </g>
    </g>
    <g id="text_6">
     <!-- SteeringSpeed_Skewness -->
     <g transform="translate(175.425625 274.215312) scale(0.1 -0.1)">
      <defs>
       <path id="DejaVuSans-53" d="M 3425 4513 
L 3425 3897 
Q 3066 4069 2747 4153 
Q 2428 4238 2131 4238 
Q 1616 4238 1336 4038 
Q 1056 3838 1056 3469 
Q 1056 3159 1242 3001 
Q 1428 2844 1947 2747 
L 2328 2669 
Q 3034 2534 3370 2195 
Q 3706 1856 3706 1288 
Q 3706 609 3251 259 
Q 2797 -91 1919 -91 
Q 1588 -91 1214 -16 
Q 841 59 441 206 
L 441 856 
Q 825 641 1194 531 
Q 1563 422 1919 422 
Q 2459 422 2753 634 
Q 3047 847 3047 1241 
Q 3047 1584 2836 1778 
Q 2625 1972 2144 2069 
L 1759 2144 
Q 1053 2284 737 2584 
Q 422 2884 422 3419 
Q 422 4038 858 4394 
Q 1294 4750 2059 4750 
Q 2388 4750 2728 4690 
Q 3069 4631 3425 4513 
z
" transform="scale(0.015625)"/>
       <path id="DejaVuSans-74" d="M 1172 4494 
L 1172 3500 
L 2356 3500 
L 2356 3053 
L 1172 3053 
L 1172 1153 
Q 1172 725 1289 603 
Q 1406 481 1766 481 
L 2356 481 
L 2356 0 
L 1766 0 
Q 1100 0 847 248 
Q 594 497 594 1153 
L 594 3053 
L 172 3053 
L 172 3500 
L 594 3500 
L 594 4494 
L 1172 4494 
z
" transform="scale(0.015625)"/>
       <path id="DejaVuSans-65" d="M 3597 1894 
L 3597 1613 
L 953 1613 
Q 991 1019 1311 708 
Q 1631 397 2203 397 
Q 2534 397 2845 478 
Q 3156 559 3463 722 
L 3463 178 
Q 3153 47 2828 -22 
Q 2503 -91 2169 -91 
Q 1331 -91 842 396 
Q 353 884 353 1716 
Q 353 2575 817 3079 
Q 1281 3584 2069 3584 
Q 2775 3584 3186 3129 
Q 3597 2675 3597 1894 
z
M 3022 2063 
Q 3016 2534 2758 2815 
Q 2500 3097 2075 3097 
Q 1594 3097 1305 2825 
Q 1016 2553 972 2059 
L 3022 2063 
z
" transform="scale(0.015625)"/>
       <path id="DejaVuSans-72" d="M 2631 2963 
Q 2534 3019 2420 3045 
Q 2306 3072 2169 3072 
Q 1681 3072 1420 2755 
Q 1159 2438 1159 1844 
L 1159 0 
L 581 0 
L 581 3500 
L 1159 3500 
L 1159 2956 
Q 1341 3275 1631 3429 
Q 1922 3584 2338 3584 
Q 2397 3584 2469 3576 
Q 2541 3569 2628 3553 
L 2631 2963 
z
" transform="scale(0.015625)"/>
       <path id="DejaVuSans-69" d="M 603 3500 
L 1178 3500 
L 1178 0 
L 603 0 
L 603 3500 
z
M 603 4863 
L 1178 4863 
L 1178 4134 
L 603 4134 
L 603 4863 
z
" transform="scale(0.015625)"/>
       <path id="DejaVuSans-6e" d="M 3513 2113 
L 3513 0 
L 2938 0 
L 2938 2094 
Q 2938 2591 2744 2837 
Q 2550 3084 2163 3084 
Q 1697 3084 1428 2787 
Q 1159 2491 1159 1978 
L 1159 0 
L 581 0 
L 581 3500 
L 1159 3500 
L 1159 2956 
Q 1366 3272 1645 3428 
Q 1925 3584 2291 3584 
Q 2894 3584 3203 3211 
Q 3513 2838 3513 2113 
z
" transform="scale(0.015625)"/>
       <path id="DejaVuSans-67" d="M 2906 1791 
Q 2906 2416 2648 2759 
Q 2391 3103 1925 3103 
Q 1463 3103 1205 2759 
Q 947 2416 947 1791 
Q 947 1169 1205 825 
Q 1463 481 1925 481 
Q 2391 481 2648 825 
Q 2906 1169 2906 1791 
z
M 3481 434 
Q 3481 -459 3084 -895 
Q 2688 -1331 1869 -1331 
Q 1566 -1331 1297 -1286 
Q 1028 -1241 775 -1147 
L 775 -588 
Q 1028 -725 1275 -790 
Q 1522 -856 1778 -856 
Q 2344 -856 2625 -561 
Q 2906 -266 2906 331 
L 2906 616 
Q 2728 306 2450 153 
Q 2172 0 1784 0 
Q 1141 0 747 490 
Q 353 981 353 1791 
Q 353 2603 747 3093 
Q 1141 3584 1784 3584 
Q 2172 3584 2450 3431 
Q 2728 3278 2906 2969 
L 2906 3500 
L 3481 3500 
L 3481 434 
z
" transform="scale(0.015625)"/>
       <path id="DejaVuSans-70" d="M 1159 525 
L 1159 -1331 
L 581 -1331 
L 581 3500 
L 1159 3500 
L 1159 2969 
Q 1341 3281 1617 3432 
Q 1894 3584 2278 3584 
Q 2916 3584 3314 3078 
Q 3713 2572 3713 1747 
Q 3713 922 3314 415 
Q 2916 -91 2278 -91 
Q 1894 -91 1617 61 
Q 1341 213 1159 525 
z
M 3116 1747 
Q 3116 2381 2855 2742 
Q 2594 3103 2138 3103 
Q 1681 3103 1420 2742 
Q 1159 2381 1159 1747 
Q 1159 1113 1420 752 
Q 1681 391 2138 391 
Q 2594 391 2855 752 
Q 3116 1113 3116 1747 
z
" transform="scale(0.015625)"/>
       <path id="DejaVuSans-64" d="M 2906 2969 
L 2906 4863 
L 3481 4863 
L 3481 0 
L 2906 0 
L 2906 525 
Q 2725 213 2448 61 
Q 2172 -91 1784 -91 
Q 1150 -91 751 415 
Q 353 922 353 1747 
Q 353 2572 751 3078 
Q 1150 3584 1784 3584 
Q 2172 3584 2448 3432 
Q 2725 3281 2906 2969 
z
M 947 1747 
Q 947 1113 1208 752 
Q 1469 391 1925 391 
Q 2381 391 2643 752 
Q 2906 1113 2906 1747 
Q 2906 2381 2643 2742 
Q 2381 3103 1925 3103 
Q 1469 3103 1208 2742 
Q 947 2381 947 1747 
z
" transform="scale(0.015625)"/>
       <path id="DejaVuSans-5f" d="M 3263 -1063 
L 3263 -1509 
L -63 -1509 
L -63 -1063 
L 3263 -1063 
z
" transform="scale(0.015625)"/>
       <path id="DejaVuSans-6b" d="M 581 4863 
L 1159 4863 
L 1159 1991 
L 2875 3500 
L 3609 3500 
L 1753 1863 
L 3688 0 
L 2938 0 
L 1159 1709 
L 1159 0 
L 581 0 
L 581 4863 
z
" transform="scale(0.015625)"/>
       <path id="DejaVuSans-77" d="M 269 3500 
L 844 3500 
L 1563 769 
L 2278 3500 
L 2956 3500 
L 3675 769 
L 4391 3500 
L 4966 3500 
L 4050 0 
L 3372 0 
L 2619 2869 
L 1863 0 
L 1184 0 
L 269 3500 
z
" transform="scale(0.015625)"/>
       <path id="DejaVuSans-73" d="M 2834 3397 
L 2834 2853 
Q 2591 2978 2328 3040 
Q 2066 3103 1784 3103 
Q 1356 3103 1142 2972 
Q 928 2841 928 2578 
Q 928 2378 1081 2264 
Q 1234 2150 1697 2047 
L 1894 2003 
Q 2506 1872 2764 1633 
Q 3022 1394 3022 966 
Q 3022 478 2636 193 
Q 2250 -91 1575 -91 
Q 1294 -91 989 -36 
Q 684 19 347 128 
L 347 722 
Q 666 556 975 473 
Q 1284 391 1588 391 
Q 1994 391 2212 530 
Q 2431 669 2431 922 
Q 2431 1156 2273 1281 
Q 2116 1406 1581 1522 
L 1381 1569 
Q 847 1681 609 1914 
Q 372 2147 372 2553 
Q 372 3047 722 3315 
Q 1072 3584 1716 3584 
Q 2034 3584 2315 3537 
Q 2597 3491 2834 3397 
z
" transform="scale(0.015625)"/>
      </defs>
      <use xlink:href="#DejaVuSans-53"/>
      <use xlink:href="#DejaVuSans-74" transform="translate(63.476562 0)"/>
      <use xlink:href="#DejaVuSans-65" transform="translate(102.685547 0)"/>
      <use xlink:href="#DejaVuSans-65" transform="translate(164.208984 0)"/>
      <use xlink:href="#DejaVuSans-72" transform="translate(225.732422 0)"/>
      <use xlink:href="#DejaVuSans-69" transform="translate(266.845703 0)"/>
      <use xlink:href="#DejaVuSans-6e" transform="translate(294.628906 0)"/>
      <use xlink:href="#DejaVuSans-67" transform="translate(358.007812 0)"/>
      <use xlink:href="#DejaVuSans-53" transform="translate(421.484375 0)"/>
      <use xlink:href="#DejaVuSans-70" transform="translate(484.960938 0)"/>
      <use xlink:href="#DejaVuSans-65" transform="translate(548.4375 0)"/>
      <use xlink:href="#DejaVuSans-65" transform="translate(609.960938 0)"/>
      <use xlink:href="#DejaVuSans-64" transform="translate(671.484375 0)"/>
      <use xlink:href="#DejaVuSans-5f" transform="translate(734.960938 0)"/>
      <use xlink:href="#DejaVuSans-53" transform="translate(784.960938 0)"/>
      <use xlink:href="#DejaVuSans-6b" transform="translate(848.4375 0)"/>
      <use xlink:href="#DejaVuSans-65" transform="translate(902.722656 0)"/>
      <use xlink:href="#DejaVuSans-77" transform="translate(964.246094 0)"/>
      <use xlink:href="#DejaVuSans-6e" transform="translate(1046.033203 0)"/>
      <use xlink:href="#DejaVuSans-65" transform="translate(1109.412109 0)"/>
      <use xlink:href="#DejaVuSans-73" transform="translate(1170.935547 0)"/>
      <use xlink:href="#DejaVuSans-73" transform="translate(1223.035156 0)"/>
     </g>
    </g>
   </g>
   <g id="matplotlib.axis_2">
    <g id="ytick_1">
     <g id="line2d_11">
      <path d="M 57.17 245.93875 
L 421.2 245.93875 
" clip-path="url(#p688e84bc65)" style="fill: none; stroke: #b0b0b0; stroke-width: 0.8; stroke-linecap: square"/>
     </g>
     <g id="line2d_12">
      <defs>
       <path id="me2e7dc9c3c" d="M 0 0 
L -3.5 0 
" style="stroke: #000000; stroke-width: 0.8"/>
      </defs>
      <g>
       <use xlink:href="#me2e7dc9c3c" x="57.17" y="245.93875" style="stroke: #000000; stroke-width: 0.8"/>
      </g>
     </g>
     <g id="text_7">
      <!-- 0 -->
      <g transform="translate(43.8075 249.737969) scale(0.1 -0.1)">
       <use xlink:href="#DejaVuSans-30"/>
      </g>
     </g>
    </g>
    <g id="ytick_2">
     <g id="line2d_13">
      <path d="M 57.17 207.432404 
L 421.2 207.432404 
" clip-path="url(#p688e84bc65)" style="fill: none; stroke: #b0b0b0; stroke-width: 0.8; stroke-linecap: square"/>
     </g>
     <g id="line2d_14">
      <g>
       <use xlink:href="#me2e7dc9c3c" x="57.17" y="207.432404" style="stroke: #000000; stroke-width: 0.8"/>
      </g>
     </g>
     <g id="text_8">
      <!-- 500 -->
      <g transform="translate(31.0825 211.231623) scale(0.1 -0.1)">
       <defs>
        <path id="DejaVuSans-35" d="M 691 4666 
L 3169 4666 
L 3169 4134 
L 1269 4134 
L 1269 2991 
Q 1406 3038 1543 3061 
Q 1681 3084 1819 3084 
Q 2600 3084 3056 2656 
Q 3513 2228 3513 1497 
Q 3513 744 3044 326 
Q 2575 -91 1722 -91 
Q 1428 -91 1123 -41 
Q 819 9 494 109 
L 494 744 
Q 775 591 1075 516 
Q 1375 441 1709 441 
Q 2250 441 2565 725 
Q 2881 1009 2881 1497 
Q 2881 1984 2565 2268 
Q 2250 2553 1709 2553 
Q 1456 2553 1204 2497 
Q 953 2441 691 2322 
L 691 4666 
z
" transform="scale(0.015625)"/>
       </defs>
       <use xlink:href="#DejaVuSans-35"/>
       <use xlink:href="#DejaVuSans-30" transform="translate(63.623047 0)"/>
       <use xlink:href="#DejaVuSans-30" transform="translate(127.246094 0)"/>
      </g>
     </g>
    </g>
    <g id="ytick_3">
     <g id="line2d_15">
      <path d="M 57.17 168.926059 
L 421.2 168.926059 
" clip-path="url(#p688e84bc65)" style="fill: none; stroke: #b0b0b0; stroke-width: 0.8; stroke-linecap: square"/>
     </g>
     <g id="line2d_16">
      <g>
       <use xlink:href="#me2e7dc9c3c" x="57.17" y="168.926059" style="stroke: #000000; stroke-width: 0.8"/>
      </g>
     </g>
     <g id="text_9">
      <!-- 1000 -->
      <g transform="translate(24.72 172.725277) scale(0.1 -0.1)">
       <defs>
        <path id="DejaVuSans-31" d="M 794 531 
L 1825 531 
L 1825 4091 
L 703 3866 
L 703 4441 
L 1819 4666 
L 2450 4666 
L 2450 531 
L 3481 531 
L 3481 0 
L 794 0 
L 794 531 
z
" transform="scale(0.015625)"/>
       </defs>
       <use xlink:href="#DejaVuSans-31"/>
       <use xlink:href="#DejaVuSans-30" transform="translate(63.623047 0)"/>
       <use xlink:href="#DejaVuSans-30" transform="translate(127.246094 0)"/>
       <use xlink:href="#DejaVuSans-30" transform="translate(190.869141 0)"/>
      </g>
     </g>
    </g>
    <g id="ytick_4">
     <g id="line2d_17">
      <path d="M 57.17 130.419713 
L 421.2 130.419713 
" clip-path="url(#p688e84bc65)" style="fill: none; stroke: #b0b0b0; stroke-width: 0.8; stroke-linecap: square"/>
     </g>
     <g id="line2d_18">
      <g>
       <use xlink:href="#me2e7dc9c3c" x="57.17" y="130.419713" style="stroke: #000000; stroke-width: 0.8"/>
      </g>
     </g>
     <g id="text_10">
      <!-- 1500 -->
      <g transform="translate(24.72 134.218932) scale(0.1 -0.1)">
       <use xlink:href="#DejaVuSans-31"/>
       <use xlink:href="#DejaVuSans-35" transform="translate(63.623047 0)"/>
       <use xlink:href="#DejaVuSans-30" transform="translate(127.246094 0)"/>
       <use xlink:href="#DejaVuSans-30" transform="translate(190.869141 0)"/>
      </g>
     </g>
    </g>
    <g id="ytick_5">
     <g id="line2d_19">
      <path d="M 57.17 91.913367 
L 421.2 91.913367 
" clip-path="url(#p688e84bc65)" style="fill: none; stroke: #b0b0b0; stroke-width: 0.8; stroke-linecap: square"/>
     </g>
     <g id="line2d_20">
      <g>
       <use xlink:href="#me2e7dc9c3c" x="57.17" y="91.913367" style="stroke: #000000; stroke-width: 0.8"/>
      </g>
     </g>
     <g id="text_11">
      <!-- 2000 -->
      <g transform="translate(24.72 95.712586) scale(0.1 -0.1)">
       <use xlink:href="#DejaVuSans-32"/>
       <use xlink:href="#DejaVuSans-30" transform="translate(63.623047 0)"/>
       <use xlink:href="#DejaVuSans-30" transform="translate(127.246094 0)"/>
       <use xlink:href="#DejaVuSans-30" transform="translate(190.869141 0)"/>
      </g>
     </g>
    </g>
    <g id="ytick_6">
     <g id="line2d_21">
      <path d="M 57.17 53.407022 
L 421.2 53.407022 
" clip-path="url(#p688e84bc65)" style="fill: none; stroke: #b0b0b0; stroke-width: 0.8; stroke-linecap: square"/>
     </g>
     <g id="line2d_22">
      <g>
       <use xlink:href="#me2e7dc9c3c" x="57.17" y="53.407022" style="stroke: #000000; stroke-width: 0.8"/>
      </g>
     </g>
     <g id="text_12">
      <!-- 2500 -->
      <g transform="translate(24.72 57.20624) scale(0.1 -0.1)">
       <use xlink:href="#DejaVuSans-32"/>
       <use xlink:href="#DejaVuSans-35" transform="translate(63.623047 0)"/>
       <use xlink:href="#DejaVuSans-30" transform="translate(127.246094 0)"/>
       <use xlink:href="#DejaVuSans-30" transform="translate(190.869141 0)"/>
      </g>
     </g>
    </g>
    <g id="text_13">
     <!-- Count -->
     <g transform="translate(18.640313 151.257812) rotate(-90) scale(0.1 -0.1)">
      <defs>
       <path id="DejaVuSans-43" d="M 4122 4306 
L 4122 3641 
Q 3803 3938 3442 4084 
Q 3081 4231 2675 4231 
Q 1875 4231 1450 3742 
Q 1025 3253 1025 2328 
Q 1025 1406 1450 917 
Q 1875 428 2675 428 
Q 3081 428 3442 575 
Q 3803 722 4122 1019 
L 4122 359 
Q 3791 134 3420 21 
Q 3050 -91 2638 -91 
Q 1578 -91 968 557 
Q 359 1206 359 2328 
Q 359 3453 968 4101 
Q 1578 4750 2638 4750 
Q 3056 4750 3426 4639 
Q 3797 4528 4122 4306 
z
" transform="scale(0.015625)"/>
       <path id="DejaVuSans-6f" d="M 1959 3097 
Q 1497 3097 1228 2736 
Q 959 2375 959 1747 
Q 959 1119 1226 758 
Q 1494 397 1959 397 
Q 2419 397 2687 759 
Q 2956 1122 2956 1747 
Q 2956 2369 2687 2733 
Q 2419 3097 1959 3097 
z
M 1959 3584 
Q 2709 3584 3137 3096 
Q 3566 2609 3566 1747 
Q 3566 888 3137 398 
Q 2709 -91 1959 -91 
Q 1206 -91 779 398 
Q 353 888 353 1747 
Q 353 2609 779 3096 
Q 1206 3584 1959 3584 
z
" transform="scale(0.015625)"/>
       <path id="DejaVuSans-75" d="M 544 1381 
L 544 3500 
L 1119 3500 
L 1119 1403 
Q 1119 906 1312 657 
Q 1506 409 1894 409 
Q 2359 409 2629 706 
Q 2900 1003 2900 1516 
L 2900 3500 
L 3475 3500 
L 3475 0 
L 2900 0 
L 2900 538 
Q 2691 219 2414 64 
Q 2138 -91 1772 -91 
Q 1169 -91 856 284 
Q 544 659 544 1381 
z
M 1991 3584 
L 1991 3584 
z
" transform="scale(0.015625)"/>
      </defs>
      <use xlink:href="#DejaVuSans-43"/>
      <use xlink:href="#DejaVuSans-6f" transform="translate(69.824219 0)"/>
      <use xlink:href="#DejaVuSans-75" transform="translate(131.005859 0)"/>
      <use xlink:href="#DejaVuSans-6e" transform="translate(194.384766 0)"/>
      <use xlink:href="#DejaVuSans-74" transform="translate(257.763672 0)"/>
     </g>
    </g>
   </g>
   <g id="patch_53">
    <path d="M 57.17 245.93875 
L 57.17 26.88 
" style="fill: none; stroke: #000000; stroke-width: 0.8; stroke-linejoin: miter; stroke-linecap: square"/>
   </g>
   <g id="patch_54">
    <path d="M 421.2 245.93875 
L 421.2 26.88 
" style="fill: none; stroke: #000000; stroke-width: 0.8; stroke-linejoin: miter; stroke-linecap: square"/>
   </g>
   <g id="patch_55">
    <path d="M 57.17 245.93875 
L 421.2 245.93875 
" style="fill: none; stroke: #000000; stroke-width: 0.8; stroke-linejoin: miter; stroke-linecap: square"/>
   </g>
   <g id="patch_56">
    <path d="M 57.17 26.88 
L 421.2 26.88 
" style="fill: none; stroke: #000000; stroke-width: 0.8; stroke-linejoin: miter; stroke-linecap: square"/>
   </g>
   <g id="text_14">
    <!-- SteeringSpeed_Skewness -->
    <g transform="translate(162.67375 20.88) scale(0.12 -0.12)">
     <use xlink:href="#DejaVuSans-53"/>
     <use xlink:href="#DejaVuSans-74" transform="translate(63.476562 0)"/>
     <use xlink:href="#DejaVuSans-65" transform="translate(102.685547 0)"/>
     <use xlink:href="#DejaVuSans-65" transform="translate(164.208984 0)"/>
     <use xlink:href="#DejaVuSans-72" transform="translate(225.732422 0)"/>
     <use xlink:href="#DejaVuSans-69" transform="translate(266.845703 0)"/>
     <use xlink:href="#DejaVuSans-6e" transform="translate(294.628906 0)"/>
     <use xlink:href="#DejaVuSans-67" transform="translate(358.007812 0)"/>
     <use xlink:href="#DejaVuSans-53" transform="translate(421.484375 0)"/>
     <use xlink:href="#DejaVuSans-70" transform="translate(484.960938 0)"/>
     <use xlink:href="#DejaVuSans-65" transform="translate(548.4375 0)"/>
     <use xlink:href="#DejaVuSans-65" transform="translate(609.960938 0)"/>
     <use xlink:href="#DejaVuSans-64" transform="translate(671.484375 0)"/>
     <use xlink:href="#DejaVuSans-5f" transform="translate(734.960938 0)"/>
     <use xlink:href="#DejaVuSans-53" transform="translate(784.960938 0)"/>
     <use xlink:href="#DejaVuSans-6b" transform="translate(848.4375 0)"/>
     <use xlink:href="#DejaVuSans-65" transform="translate(902.722656 0)"/>
     <use xlink:href="#DejaVuSans-77" transform="translate(964.246094 0)"/>
     <use xlink:href="#DejaVuSans-6e" transform="translate(1046.033203 0)"/>
     <use xlink:href="#DejaVuSans-65" transform="translate(1109.412109 0)"/>
     <use xlink:href="#DejaVuSans-73" transform="translate(1170.935547 0)"/>
     <use xlink:href="#DejaVuSans-73" transform="translate(1223.035156 0)"/>
    </g>
   </g>
  </g>
 </g>
 <defs>
  <clipPath id="p688e84bc65">
   <rect x="57.17" y="26.88" width="364.03" height="219.05875"/>
  </clipPath>
 </defs>
</svg>
