<?xml version="1.0" encoding="utf-8" standalone="no"?>
<!DOCTYPE svg PUBLIC "-//W3C//DTD SVG 1.1//EN"
  "http://www.w3.org/Graphics/SVG/1.1/DTD/svg11.dtd">
<svg xmlns:xlink="http://www.w3.org/1999/xlink" width="432pt" height="288pt" viewBox="0 0 432 288" xmlns="http://www.w3.org/2000/svg" version="1.1">
 <metadata>
  <rdf:RDF xmlns:dc="http://purl.org/dc/elements/1.1/" xmlns:cc="http://creativecommons.org/ns#" xmlns:rdf="http://www.w3.org/1999/02/22-rdf-syntax-ns#">
   <cc:Work>
    <dc:type rdf:resource="http://purl.org/dc/dcmitype/StillImage"/>
    <dc:date>2025-06-15T13:54:42.566447</dc:date>
    <dc:format>image/svg+xml</dc:format>
    <dc:creator>
     <cc:Agent>
      <dc:title>Matplotlib v3.10.0, https://matplotlib.org/</dc:title>
     </cc:Agent>
    </dc:creator>
   </cc:Work>
  </rdf:RDF>
 </metadata>
 <defs>
  <style type="text/css">*{stroke-linejoin: round; stroke-linecap: butt}</style>
 </defs>
 <g id="figure_1">
  <g id="patch_1">
   <path d="M 0 288 
L 432 288 
L 432 0 
L 0 0 
z
" style="fill: #ffffff"/>
  </g>
  <g id="axes_1">
   <g id="patch_2">
    <path d="M 57.17 245.93875 
L 417.680446 245.93875 
L 417.680446 26.88 
L 57.17 26.88 
z
" style="fill: #ffffff"/>
   </g>
   <g id="patch_3">
    <path d="M 73.556838 245.93875 
L 80.111574 245.93875 
L 80.111574 151.540425 
L 73.556838 151.540425 
z
" clip-path="url(#pd61d6bf673)" style="fill: #1f77b4"/>
   </g>
   <g id="patch_4">
    <path d="M 80.111574 245.93875 
L 86.666309 245.93875 
L 86.666309 37.311369 
L 80.111574 37.311369 
z
" clip-path="url(#pd61d6bf673)" style="fill: #1f77b4"/>
   </g>
   <g id="patch_5">
    <path d="M 86.666309 245.93875 
L 93.221045 245.93875 
L 93.221045 115.824874 
L 86.666309 115.824874 
z
" clip-path="url(#pd61d6bf673)" style="fill: #1f77b4"/>
   </g>
   <g id="patch_6">
    <path d="M 93.221045 245.93875 
L 99.77578 245.93875 
L 99.77578 166.109941 
L 93.221045 166.109941 
z
" clip-path="url(#pd61d6bf673)" style="fill: #1f77b4"/>
   </g>
   <g id="patch_7">
    <path d="M 99.77578 245.93875 
L 106.330515 245.93875 
L 106.330515 196.4631 
L 99.77578 196.4631 
z
" clip-path="url(#pd61d6bf673)" style="fill: #1f77b4"/>
   </g>
   <g id="patch_8">
    <path d="M 106.330515 245.93875 
L 112.885251 245.93875 
L 112.885251 220.745628 
L 106.330515 220.745628 
z
" clip-path="url(#pd61d6bf673)" style="fill: #1f77b4"/>
   </g>
   <g id="patch_9">
    <path d="M 112.885251 245.93875 
L 119.439986 245.93875 
L 119.439986 229.750398 
L 112.885251 229.750398 
z
" clip-path="url(#pd61d6bf673)" style="fill: #1f77b4"/>
   </g>
   <g id="patch_10">
    <path d="M 119.439986 245.93875 
L 125.994721 245.93875 
L 125.994721 236.225739 
L 119.439986 236.225739 
z
" clip-path="url(#pd61d6bf673)" style="fill: #1f77b4"/>
   </g>
   <g id="patch_11">
    <path d="M 125.994721 245.93875 
L 132.549457 245.93875 
L 132.549457 238.451637 
L 125.994721 238.451637 
z
" clip-path="url(#pd61d6bf673)" style="fill: #1f77b4"/>
   </g>
   <g id="patch_12">
    <path d="M 132.549457 245.93875 
L 139.104192 245.93875 
L 139.104192 240.981067 
L 132.549457 240.981067 
z
" clip-path="url(#pd61d6bf673)" style="fill: #1f77b4"/>
   </g>
   <g id="patch_13">
    <path d="M 139.104192 245.93875 
L 145.658928 245.93875 
L 145.658928 243.510497 
L 139.104192 243.510497 
z
" clip-path="url(#pd61d6bf673)" style="fill: #1f77b4"/>
   </g>
   <g id="patch_14">
    <path d="M 145.658928 245.93875 
L 152.213663 245.93875 
L 152.213663 243.712852 
L 145.658928 243.712852 
z
" clip-path="url(#pd61d6bf673)" style="fill: #1f77b4"/>
   </g>
   <g id="patch_15">
    <path d="M 152.213663 245.93875 
L 158.768398 245.93875 
L 158.768398 243.814029 
L 152.213663 243.814029 
z
" clip-path="url(#pd61d6bf673)" style="fill: #1f77b4"/>
   </g>
   <g id="patch_16">
    <path d="M 158.768398 245.93875 
L 165.323134 245.93875 
L 165.323134 244.825801 
L 158.768398 244.825801 
z
" clip-path="url(#pd61d6bf673)" style="fill: #1f77b4"/>
   </g>
   <g id="patch_17">
    <path d="M 165.323134 245.93875 
L 171.877869 245.93875 
L 171.877869 245.23051 
L 165.323134 245.23051 
z
" clip-path="url(#pd61d6bf673)" style="fill: #1f77b4"/>
   </g>
   <g id="patch_18">
    <path d="M 171.877869 245.93875 
L 178.432604 245.93875 
L 178.432604 245.23051 
L 171.877869 245.23051 
z
" clip-path="url(#pd61d6bf673)" style="fill: #1f77b4"/>
   </g>
   <g id="patch_19">
    <path d="M 178.432604 245.93875 
L 184.98734 245.93875 
L 184.98734 245.837573 
L 178.432604 245.837573 
z
" clip-path="url(#pd61d6bf673)" style="fill: #1f77b4"/>
   </g>
   <g id="patch_20">
    <path d="M 184.98734 245.93875 
L 191.542075 245.93875 
L 191.542075 245.534041 
L 184.98734 245.534041 
z
" clip-path="url(#pd61d6bf673)" style="fill: #1f77b4"/>
   </g>
   <g id="patch_21">
    <path d="M 191.542075 245.93875 
L 198.096811 245.93875 
L 198.096811 245.432864 
L 191.542075 245.432864 
z
" clip-path="url(#pd61d6bf673)" style="fill: #1f77b4"/>
   </g>
   <g id="patch_22">
    <path d="M 198.096811 245.93875 
L 204.651546 245.93875 
L 204.651546 245.736396 
L 198.096811 245.736396 
z
" clip-path="url(#pd61d6bf673)" style="fill: #1f77b4"/>
   </g>
   <g id="patch_23">
    <path d="M 204.651546 245.93875 
L 211.206281 245.93875 
L 211.206281 245.93875 
L 204.651546 245.93875 
z
" clip-path="url(#pd61d6bf673)" style="fill: #1f77b4"/>
   </g>
   <g id="patch_24">
    <path d="M 211.206281 245.93875 
L 217.761017 245.93875 
L 217.761017 245.93875 
L 211.206281 245.93875 
z
" clip-path="url(#pd61d6bf673)" style="fill: #1f77b4"/>
   </g>
   <g id="patch_25">
    <path d="M 217.761017 245.93875 
L 224.315752 245.93875 
L 224.315752 245.93875 
L 217.761017 245.93875 
z
" clip-path="url(#pd61d6bf673)" style="fill: #1f77b4"/>
   </g>
   <g id="patch_26">
    <path d="M 224.315752 245.93875 
L 230.870487 245.93875 
L 230.870487 245.93875 
L 224.315752 245.93875 
z
" clip-path="url(#pd61d6bf673)" style="fill: #1f77b4"/>
   </g>
   <g id="patch_27">
    <path d="M 230.870487 245.93875 
L 237.425223 245.93875 
L 237.425223 245.93875 
L 230.870487 245.93875 
z
" clip-path="url(#pd61d6bf673)" style="fill: #1f77b4"/>
   </g>
   <g id="patch_28">
    <path d="M 237.425223 245.93875 
L 243.979958 245.93875 
L 243.979958 245.93875 
L 237.425223 245.93875 
z
" clip-path="url(#pd61d6bf673)" style="fill: #1f77b4"/>
   </g>
   <g id="patch_29">
    <path d="M 243.979958 245.93875 
L 250.534694 245.93875 
L 250.534694 245.736396 
L 243.979958 245.736396 
z
" clip-path="url(#pd61d6bf673)" style="fill: #1f77b4"/>
   </g>
   <g id="patch_30">
    <path d="M 250.534694 245.93875 
L 257.089429 245.93875 
L 257.089429 245.93875 
L 250.534694 245.93875 
z
" clip-path="url(#pd61d6bf673)" style="fill: #1f77b4"/>
   </g>
   <g id="patch_31">
    <path d="M 257.089429 245.93875 
L 263.644164 245.93875 
L 263.644164 245.93875 
L 257.089429 245.93875 
z
" clip-path="url(#pd61d6bf673)" style="fill: #1f77b4"/>
   </g>
   <g id="patch_32">
    <path d="M 263.644164 245.93875 
L 270.1989 245.93875 
L 270.1989 245.93875 
L 263.644164 245.93875 
z
" clip-path="url(#pd61d6bf673)" style="fill: #1f77b4"/>
   </g>
   <g id="patch_33">
    <path d="M 270.1989 245.93875 
L 276.753635 245.93875 
L 276.753635 245.837573 
L 270.1989 245.837573 
z
" clip-path="url(#pd61d6bf673)" style="fill: #1f77b4"/>
   </g>
   <g id="patch_34">
    <path d="M 276.753635 245.93875 
L 283.30837 245.93875 
L 283.30837 245.93875 
L 276.753635 245.93875 
z
" clip-path="url(#pd61d6bf673)" style="fill: #1f77b4"/>
   </g>
   <g id="patch_35">
    <path d="M 283.30837 245.93875 
L 289.863106 245.93875 
L 289.863106 245.93875 
L 283.30837 245.93875 
z
" clip-path="url(#pd61d6bf673)" style="fill: #1f77b4"/>
   </g>
   <g id="patch_36">
    <path d="M 289.863106 245.93875 
L 296.417841 245.93875 
L 296.417841 245.93875 
L 289.863106 245.93875 
z
" clip-path="url(#pd61d6bf673)" style="fill: #1f77b4"/>
   </g>
   <g id="patch_37">
    <path d="M 296.417841 245.93875 
L 302.972577 245.93875 
L 302.972577 245.93875 
L 296.417841 245.93875 
z
" clip-path="url(#pd61d6bf673)" style="fill: #1f77b4"/>
   </g>
   <g id="patch_38">
    <path d="M 302.972577 245.93875 
L 309.527312 245.93875 
L 309.527312 245.837573 
L 302.972577 245.837573 
z
" clip-path="url(#pd61d6bf673)" style="fill: #1f77b4"/>
   </g>
   <g id="patch_39">
    <path d="M 309.527312 245.93875 
L 316.082047 245.93875 
L 316.082047 245.93875 
L 309.527312 245.93875 
z
" clip-path="url(#pd61d6bf673)" style="fill: #1f77b4"/>
   </g>
   <g id="patch_40">
    <path d="M 316.082047 245.93875 
L 322.636783 245.93875 
L 322.636783 245.93875 
L 316.082047 245.93875 
z
" clip-path="url(#pd61d6bf673)" style="fill: #1f77b4"/>
   </g>
   <g id="patch_41">
    <path d="M 322.636783 245.93875 
L 329.191518 245.93875 
L 329.191518 245.93875 
L 322.636783 245.93875 
z
" clip-path="url(#pd61d6bf673)" style="fill: #1f77b4"/>
   </g>
   <g id="patch_42">
    <path d="M 329.191518 245.93875 
L 335.746253 245.93875 
L 335.746253 245.93875 
L 329.191518 245.93875 
z
" clip-path="url(#pd61d6bf673)" style="fill: #1f77b4"/>
   </g>
   <g id="patch_43">
    <path d="M 335.746253 245.93875 
L 342.300989 245.93875 
L 342.300989 245.93875 
L 335.746253 245.93875 
z
" clip-path="url(#pd61d6bf673)" style="fill: #1f77b4"/>
   </g>
   <g id="patch_44">
    <path d="M 342.300989 245.93875 
L 348.855724 245.93875 
L 348.855724 245.93875 
L 342.300989 245.93875 
z
" clip-path="url(#pd61d6bf673)" style="fill: #1f77b4"/>
   </g>
   <g id="patch_45">
    <path d="M 348.855724 245.93875 
L 355.41046 245.93875 
L 355.41046 245.93875 
L 348.855724 245.93875 
z
" clip-path="url(#pd61d6bf673)" style="fill: #1f77b4"/>
   </g>
   <g id="patch_46">
    <path d="M 355.41046 245.93875 
L 361.965195 245.93875 
L 361.965195 245.93875 
L 355.41046 245.93875 
z
" clip-path="url(#pd61d6bf673)" style="fill: #1f77b4"/>
   </g>
   <g id="patch_47">
    <path d="M 361.965195 245.93875 
L 368.51993 245.93875 
L 368.51993 245.93875 
L 361.965195 245.93875 
z
" clip-path="url(#pd61d6bf673)" style="fill: #1f77b4"/>
   </g>
   <g id="patch_48">
    <path d="M 368.51993 245.93875 
L 375.074666 245.93875 
L 375.074666 245.93875 
L 368.51993 245.93875 
z
" clip-path="url(#pd61d6bf673)" style="fill: #1f77b4"/>
   </g>
   <g id="patch_49">
    <path d="M 375.074666 245.93875 
L 381.629401 245.93875 
L 381.629401 245.93875 
L 375.074666 245.93875 
z
" clip-path="url(#pd61d6bf673)" style="fill: #1f77b4"/>
   </g>
   <g id="patch_50">
    <path d="M 381.629401 245.93875 
L 388.184136 245.93875 
L 388.184136 245.93875 
L 381.629401 245.93875 
z
" clip-path="url(#pd61d6bf673)" style="fill: #1f77b4"/>
   </g>
   <g id="patch_51">
    <path d="M 388.184136 245.93875 
L 394.738872 245.93875 
L 394.738872 245.837573 
L 388.184136 245.837573 
z
" clip-path="url(#pd61d6bf673)" style="fill: #1f77b4"/>
   </g>
   <g id="patch_52">
    <path d="M 394.738872 245.93875 
L 401.293607 245.93875 
L 401.293607 245.837573 
L 394.738872 245.837573 
z
" clip-path="url(#pd61d6bf673)" style="fill: #1f77b4"/>
   </g>
   <g id="matplotlib.axis_1">
    <g id="xtick_1">
     <g id="line2d_1">
      <path d="M 70.132041 245.93875 
L 70.132041 26.88 
" clip-path="url(#pd61d6bf673)" style="fill: none; stroke: #b0b0b0; stroke-width: 0.8; stroke-linecap: square"/>
     </g>
     <g id="line2d_2">
      <defs>
       <path id="m8a68fa6c0b" d="M 0 0 
L 0 3.5 
" style="stroke: #000000; stroke-width: 0.8"/>
      </defs>
      <g>
       <use xlink:href="#m8a68fa6c0b" x="70.132041" y="245.93875" style="stroke: #000000; stroke-width: 0.8"/>
      </g>
     </g>
     <g id="text_1">
      <!-- 0.00 -->
      <g transform="translate(58.999228 260.537188) scale(0.1 -0.1)">
       <defs>
        <path id="DejaVuSans-30" d="M 2034 4250 
Q 1547 4250 1301 3770 
Q 1056 3291 1056 2328 
Q 1056 1369 1301 889 
Q 1547 409 2034 409 
Q 2525 409 2770 889 
Q 3016 1369 3016 2328 
Q 3016 3291 2770 3770 
Q 2525 4250 2034 4250 
z
M 2034 4750 
Q 2819 4750 3233 4129 
Q 3647 3509 3647 2328 
Q 3647 1150 3233 529 
Q 2819 -91 2034 -91 
Q 1250 -91 836 529 
Q 422 1150 422 2328 
Q 422 3509 836 4129 
Q 1250 4750 2034 4750 
z
" transform="scale(0.015625)"/>
        <path id="DejaVuSans-2e" d="M 684 794 
L 1344 794 
L 1344 0 
L 684 0 
L 684 794 
z
" transform="scale(0.015625)"/>
       </defs>
       <use xlink:href="#DejaVuSans-30"/>
       <use xlink:href="#DejaVuSans-2e" transform="translate(63.623047 0)"/>
       <use xlink:href="#DejaVuSans-30" transform="translate(95.410156 0)"/>
       <use xlink:href="#DejaVuSans-30" transform="translate(159.033203 0)"/>
      </g>
     </g>
    </g>
    <g id="xtick_2">
     <g id="line2d_3">
      <path d="M 138.025359 245.93875 
L 138.025359 26.88 
" clip-path="url(#pd61d6bf673)" style="fill: none; stroke: #b0b0b0; stroke-width: 0.8; stroke-linecap: square"/>
     </g>
     <g id="line2d_4">
      <g>
       <use xlink:href="#m8a68fa6c0b" x="138.025359" y="245.93875" style="stroke: #000000; stroke-width: 0.8"/>
      </g>
     </g>
     <g id="text_2">
      <!-- 0.05 -->
      <g transform="translate(126.892546 260.537188) scale(0.1 -0.1)">
       <defs>
        <path id="DejaVuSans-35" d="M 691 4666 
L 3169 4666 
L 3169 4134 
L 1269 4134 
L 1269 2991 
Q 1406 3038 1543 3061 
Q 1681 3084 1819 3084 
Q 2600 3084 3056 2656 
Q 3513 2228 3513 1497 
Q 3513 744 3044 326 
Q 2575 -91 1722 -91 
Q 1428 -91 1123 -41 
Q 819 9 494 109 
L 494 744 
Q 775 591 1075 516 
Q 1375 441 1709 441 
Q 2250 441 2565 725 
Q 2881 1009 2881 1497 
Q 2881 1984 2565 2268 
Q 2250 2553 1709 2553 
Q 1456 2553 1204 2497 
Q 953 2441 691 2322 
L 691 4666 
z
" transform="scale(0.015625)"/>
       </defs>
       <use xlink:href="#DejaVuSans-30"/>
       <use xlink:href="#DejaVuSans-2e" transform="translate(63.623047 0)"/>
       <use xlink:href="#DejaVuSans-30" transform="translate(95.410156 0)"/>
       <use xlink:href="#DejaVuSans-35" transform="translate(159.033203 0)"/>
      </g>
     </g>
    </g>
    <g id="xtick_3">
     <g id="line2d_5">
      <path d="M 205.918677 245.93875 
L 205.918677 26.88 
" clip-path="url(#pd61d6bf673)" style="fill: none; stroke: #b0b0b0; stroke-width: 0.8; stroke-linecap: square"/>
     </g>
     <g id="line2d_6">
      <g>
       <use xlink:href="#m8a68fa6c0b" x="205.918677" y="245.93875" style="stroke: #000000; stroke-width: 0.8"/>
      </g>
     </g>
     <g id="text_3">
      <!-- 0.10 -->
      <g transform="translate(194.785864 260.537188) scale(0.1 -0.1)">
       <defs>
        <path id="DejaVuSans-31" d="M 794 531 
L 1825 531 
L 1825 4091 
L 703 3866 
L 703 4441 
L 1819 4666 
L 2450 4666 
L 2450 531 
L 3481 531 
L 3481 0 
L 794 0 
L 794 531 
z
" transform="scale(0.015625)"/>
       </defs>
       <use xlink:href="#DejaVuSans-30"/>
       <use xlink:href="#DejaVuSans-2e" transform="translate(63.623047 0)"/>
       <use xlink:href="#DejaVuSans-31" transform="translate(95.410156 0)"/>
       <use xlink:href="#DejaVuSans-30" transform="translate(159.033203 0)"/>
      </g>
     </g>
    </g>
    <g id="xtick_4">
     <g id="line2d_7">
      <path d="M 273.811995 245.93875 
L 273.811995 26.88 
" clip-path="url(#pd61d6bf673)" style="fill: none; stroke: #b0b0b0; stroke-width: 0.8; stroke-linecap: square"/>
     </g>
     <g id="line2d_8">
      <g>
       <use xlink:href="#m8a68fa6c0b" x="273.811995" y="245.93875" style="stroke: #000000; stroke-width: 0.8"/>
      </g>
     </g>
     <g id="text_4">
      <!-- 0.15 -->
      <g transform="translate(262.679182 260.537188) scale(0.1 -0.1)">
       <use xlink:href="#DejaVuSans-30"/>
       <use xlink:href="#DejaVuSans-2e" transform="translate(63.623047 0)"/>
       <use xlink:href="#DejaVuSans-31" transform="translate(95.410156 0)"/>
       <use xlink:href="#DejaVuSans-35" transform="translate(159.033203 0)"/>
      </g>
     </g>
    </g>
    <g id="xtick_5">
     <g id="line2d_9">
      <path d="M 341.705313 245.93875 
L 341.705313 26.88 
" clip-path="url(#pd61d6bf673)" style="fill: none; stroke: #b0b0b0; stroke-width: 0.8; stroke-linecap: square"/>
     </g>
     <g id="line2d_10">
      <g>
       <use xlink:href="#m8a68fa6c0b" x="341.705313" y="245.93875" style="stroke: #000000; stroke-width: 0.8"/>
      </g>
     </g>
     <g id="text_5">
      <!-- 0.20 -->
      <g transform="translate(330.5725 260.537188) scale(0.1 -0.1)">
       <defs>
        <path id="DejaVuSans-32" d="M 1228 531 
L 3431 531 
L 3431 0 
L 469 0 
L 469 531 
Q 828 903 1448 1529 
Q 2069 2156 2228 2338 
Q 2531 2678 2651 2914 
Q 2772 3150 2772 3378 
Q 2772 3750 2511 3984 
Q 2250 4219 1831 4219 
Q 1534 4219 1204 4116 
Q 875 4013 500 3803 
L 500 4441 
Q 881 4594 1212 4672 
Q 1544 4750 1819 4750 
Q 2544 4750 2975 4387 
Q 3406 4025 3406 3419 
Q 3406 3131 3298 2873 
Q 3191 2616 2906 2266 
Q 2828 2175 2409 1742 
Q 1991 1309 1228 531 
z
" transform="scale(0.015625)"/>
       </defs>
       <use xlink:href="#DejaVuSans-30"/>
       <use xlink:href="#DejaVuSans-2e" transform="translate(63.623047 0)"/>
       <use xlink:href="#DejaVuSans-32" transform="translate(95.410156 0)"/>
       <use xlink:href="#DejaVuSans-30" transform="translate(159.033203 0)"/>
      </g>
     </g>
    </g>
    <g id="xtick_6">
     <g id="line2d_11">
      <path d="M 409.598631 245.93875 
L 409.598631 26.88 
" clip-path="url(#pd61d6bf673)" style="fill: none; stroke: #b0b0b0; stroke-width: 0.8; stroke-linecap: square"/>
     </g>
     <g id="line2d_12">
      <g>
       <use xlink:href="#m8a68fa6c0b" x="409.598631" y="245.93875" style="stroke: #000000; stroke-width: 0.8"/>
      </g>
     </g>
     <g id="text_6">
      <!-- 0.25 -->
      <g transform="translate(398.465818 260.537188) scale(0.1 -0.1)">
       <use xlink:href="#DejaVuSans-30"/>
       <use xlink:href="#DejaVuSans-2e" transform="translate(63.623047 0)"/>
       <use xlink:href="#DejaVuSans-32" transform="translate(95.410156 0)"/>
       <use xlink:href="#DejaVuSans-35" transform="translate(159.033203 0)"/>
      </g>
     </g>
    </g>
    <g id="text_7">
     <!-- SteeringSpeed_StdDev -->
     <g transform="translate(179.97991 274.215312) scale(0.1 -0.1)">
      <defs>
       <path id="DejaVuSans-53" d="M 3425 4513 
L 3425 3897 
Q 3066 4069 2747 4153 
Q 2428 4238 2131 4238 
Q 1616 4238 1336 4038 
Q 1056 3838 1056 3469 
Q 1056 3159 1242 3001 
Q 1428 2844 1947 2747 
L 2328 2669 
Q 3034 2534 3370 2195 
Q 3706 1856 3706 1288 
Q 3706 609 3251 259 
Q 2797 -91 1919 -91 
Q 1588 -91 1214 -16 
Q 841 59 441 206 
L 441 856 
Q 825 641 1194 531 
Q 1563 422 1919 422 
Q 2459 422 2753 634 
Q 3047 847 3047 1241 
Q 3047 1584 2836 1778 
Q 2625 1972 2144 2069 
L 1759 2144 
Q 1053 2284 737 2584 
Q 422 2884 422 3419 
Q 422 4038 858 4394 
Q 1294 4750 2059 4750 
Q 2388 4750 2728 4690 
Q 3069 4631 3425 4513 
z
" transform="scale(0.015625)"/>
       <path id="DejaVuSans-74" d="M 1172 4494 
L 1172 3500 
L 2356 3500 
L 2356 3053 
L 1172 3053 
L 1172 1153 
Q 1172 725 1289 603 
Q 1406 481 1766 481 
L 2356 481 
L 2356 0 
L 1766 0 
Q 1100 0 847 248 
Q 594 497 594 1153 
L 594 3053 
L 172 3053 
L 172 3500 
L 594 3500 
L 594 4494 
L 1172 4494 
z
" transform="scale(0.015625)"/>
       <path id="DejaVuSans-65" d="M 3597 1894 
L 3597 1613 
L 953 1613 
Q 991 1019 1311 708 
Q 1631 397 2203 397 
Q 2534 397 2845 478 
Q 3156 559 3463 722 
L 3463 178 
Q 3153 47 2828 -22 
Q 2503 -91 2169 -91 
Q 1331 -91 842 396 
Q 353 884 353 1716 
Q 353 2575 817 3079 
Q 1281 3584 2069 3584 
Q 2775 3584 3186 3129 
Q 3597 2675 3597 1894 
z
M 3022 2063 
Q 3016 2534 2758 2815 
Q 2500 3097 2075 3097 
Q 1594 3097 1305 2825 
Q 1016 2553 972 2059 
L 3022 2063 
z
" transform="scale(0.015625)"/>
       <path id="DejaVuSans-72" d="M 2631 2963 
Q 2534 3019 2420 3045 
Q 2306 3072 2169 3072 
Q 1681 3072 1420 2755 
Q 1159 2438 1159 1844 
L 1159 0 
L 581 0 
L 581 3500 
L 1159 3500 
L 1159 2956 
Q 1341 3275 1631 3429 
Q 1922 3584 2338 3584 
Q 2397 3584 2469 3576 
Q 2541 3569 2628 3553 
L 2631 2963 
z
" transform="scale(0.015625)"/>
       <path id="DejaVuSans-69" d="M 603 3500 
L 1178 3500 
L 1178 0 
L 603 0 
L 603 3500 
z
M 603 4863 
L 1178 4863 
L 1178 4134 
L 603 4134 
L 603 4863 
z
" transform="scale(0.015625)"/>
       <path id="DejaVuSans-6e" d="M 3513 2113 
L 3513 0 
L 2938 0 
L 2938 2094 
Q 2938 2591 2744 2837 
Q 2550 3084 2163 3084 
Q 1697 3084 1428 2787 
Q 1159 2491 1159 1978 
L 1159 0 
L 581 0 
L 581 3500 
L 1159 3500 
L 1159 2956 
Q 1366 3272 1645 3428 
Q 1925 3584 2291 3584 
Q 2894 3584 3203 3211 
Q 3513 2838 3513 2113 
z
" transform="scale(0.015625)"/>
       <path id="DejaVuSans-67" d="M 2906 1791 
Q 2906 2416 2648 2759 
Q 2391 3103 1925 3103 
Q 1463 3103 1205 2759 
Q 947 2416 947 1791 
Q 947 1169 1205 825 
Q 1463 481 1925 481 
Q 2391 481 2648 825 
Q 2906 1169 2906 1791 
z
M 3481 434 
Q 3481 -459 3084 -895 
Q 2688 -1331 1869 -1331 
Q 1566 -1331 1297 -1286 
Q 1028 -1241 775 -1147 
L 775 -588 
Q 1028 -725 1275 -790 
Q 1522 -856 1778 -856 
Q 2344 -856 2625 -561 
Q 2906 -266 2906 331 
L 2906 616 
Q 2728 306 2450 153 
Q 2172 0 1784 0 
Q 1141 0 747 490 
Q 353 981 353 1791 
Q 353 2603 747 3093 
Q 1141 3584 1784 3584 
Q 2172 3584 2450 3431 
Q 2728 3278 2906 2969 
L 2906 3500 
L 3481 3500 
L 3481 434 
z
" transform="scale(0.015625)"/>
       <path id="DejaVuSans-70" d="M 1159 525 
L 1159 -1331 
L 581 -1331 
L 581 3500 
L 1159 3500 
L 1159 2969 
Q 1341 3281 1617 3432 
Q 1894 3584 2278 3584 
Q 2916 3584 3314 3078 
Q 3713 2572 3713 1747 
Q 3713 922 3314 415 
Q 2916 -91 2278 -91 
Q 1894 -91 1617 61 
Q 1341 213 1159 525 
z
M 3116 1747 
Q 3116 2381 2855 2742 
Q 2594 3103 2138 3103 
Q 1681 3103 1420 2742 
Q 1159 2381 1159 1747 
Q 1159 1113 1420 752 
Q 1681 391 2138 391 
Q 2594 391 2855 752 
Q 3116 1113 3116 1747 
z
" transform="scale(0.015625)"/>
       <path id="DejaVuSans-64" d="M 2906 2969 
L 2906 4863 
L 3481 4863 
L 3481 0 
L 2906 0 
L 2906 525 
Q 2725 213 2448 61 
Q 2172 -91 1784 -91 
Q 1150 -91 751 415 
Q 353 922 353 1747 
Q 353 2572 751 3078 
Q 1150 3584 1784 3584 
Q 2172 3584 2448 3432 
Q 2725 3281 2906 2969 
z
M 947 1747 
Q 947 1113 1208 752 
Q 1469 391 1925 391 
Q 2381 391 2643 752 
Q 2906 1113 2906 1747 
Q 2906 2381 2643 2742 
Q 2381 3103 1925 3103 
Q 1469 3103 1208 2742 
Q 947 2381 947 1747 
z
" transform="scale(0.015625)"/>
       <path id="DejaVuSans-5f" d="M 3263 -1063 
L 3263 -1509 
L -63 -1509 
L -63 -1063 
L 3263 -1063 
z
" transform="scale(0.015625)"/>
       <path id="DejaVuSans-44" d="M 1259 4147 
L 1259 519 
L 2022 519 
Q 2988 519 3436 956 
Q 3884 1394 3884 2338 
Q 3884 3275 3436 3711 
Q 2988 4147 2022 4147 
L 1259 4147 
z
M 628 4666 
L 1925 4666 
Q 3281 4666 3915 4102 
Q 4550 3538 4550 2338 
Q 4550 1131 3912 565 
Q 3275 0 1925 0 
L 628 0 
L 628 4666 
z
" transform="scale(0.015625)"/>
       <path id="DejaVuSans-76" d="M 191 3500 
L 800 3500 
L 1894 563 
L 2988 3500 
L 3597 3500 
L 2284 0 
L 1503 0 
L 191 3500 
z
" transform="scale(0.015625)"/>
      </defs>
      <use xlink:href="#DejaVuSans-53"/>
      <use xlink:href="#DejaVuSans-74" transform="translate(63.476562 0)"/>
      <use xlink:href="#DejaVuSans-65" transform="translate(102.685547 0)"/>
      <use xlink:href="#DejaVuSans-65" transform="translate(164.208984 0)"/>
      <use xlink:href="#DejaVuSans-72" transform="translate(225.732422 0)"/>
      <use xlink:href="#DejaVuSans-69" transform="translate(266.845703 0)"/>
      <use xlink:href="#DejaVuSans-6e" transform="translate(294.628906 0)"/>
      <use xlink:href="#DejaVuSans-67" transform="translate(358.007812 0)"/>
      <use xlink:href="#DejaVuSans-53" transform="translate(421.484375 0)"/>
      <use xlink:href="#DejaVuSans-70" transform="translate(484.960938 0)"/>
      <use xlink:href="#DejaVuSans-65" transform="translate(548.4375 0)"/>
      <use xlink:href="#DejaVuSans-65" transform="translate(609.960938 0)"/>
      <use xlink:href="#DejaVuSans-64" transform="translate(671.484375 0)"/>
      <use xlink:href="#DejaVuSans-5f" transform="translate(734.960938 0)"/>
      <use xlink:href="#DejaVuSans-53" transform="translate(784.960938 0)"/>
      <use xlink:href="#DejaVuSans-74" transform="translate(848.4375 0)"/>
      <use xlink:href="#DejaVuSans-64" transform="translate(887.646484 0)"/>
      <use xlink:href="#DejaVuSans-44" transform="translate(951.123047 0)"/>
      <use xlink:href="#DejaVuSans-65" transform="translate(1028.125 0)"/>
      <use xlink:href="#DejaVuSans-76" transform="translate(1089.648438 0)"/>
     </g>
    </g>
   </g>
   <g id="matplotlib.axis_2">
    <g id="ytick_1">
     <g id="line2d_13">
      <path d="M 57.17 245.93875 
L 417.680446 245.93875 
" clip-path="url(#pd61d6bf673)" style="fill: none; stroke: #b0b0b0; stroke-width: 0.8; stroke-linecap: square"/>
     </g>
     <g id="line2d_14">
      <defs>
       <path id="mcd4314c698" d="M 0 0 
L -3.5 0 
" style="stroke: #000000; stroke-width: 0.8"/>
      </defs>
      <g>
       <use xlink:href="#mcd4314c698" x="57.17" y="245.93875" style="stroke: #000000; stroke-width: 0.8"/>
      </g>
     </g>
     <g id="text_8">
      <!-- 0 -->
      <g transform="translate(43.8075 249.737969) scale(0.1 -0.1)">
       <use xlink:href="#DejaVuSans-30"/>
      </g>
     </g>
    </g>
    <g id="ytick_2">
     <g id="line2d_15">
      <path d="M 57.17 220.644451 
L 417.680446 220.644451 
" clip-path="url(#pd61d6bf673)" style="fill: none; stroke: #b0b0b0; stroke-width: 0.8; stroke-linecap: square"/>
     </g>
     <g id="line2d_16">
      <g>
       <use xlink:href="#mcd4314c698" x="57.17" y="220.644451" style="stroke: #000000; stroke-width: 0.8"/>
      </g>
     </g>
     <g id="text_9">
      <!-- 250 -->
      <g transform="translate(31.0825 224.443669) scale(0.1 -0.1)">
       <use xlink:href="#DejaVuSans-32"/>
       <use xlink:href="#DejaVuSans-35" transform="translate(63.623047 0)"/>
       <use xlink:href="#DejaVuSans-30" transform="translate(127.246094 0)"/>
      </g>
     </g>
    </g>
    <g id="ytick_3">
     <g id="line2d_17">
      <path d="M 57.17 195.350151 
L 417.680446 195.350151 
" clip-path="url(#pd61d6bf673)" style="fill: none; stroke: #b0b0b0; stroke-width: 0.8; stroke-linecap: square"/>
     </g>
     <g id="line2d_18">
      <g>
       <use xlink:href="#mcd4314c698" x="57.17" y="195.350151" style="stroke: #000000; stroke-width: 0.8"/>
      </g>
     </g>
     <g id="text_10">
      <!-- 500 -->
      <g transform="translate(31.0825 199.14937) scale(0.1 -0.1)">
       <use xlink:href="#DejaVuSans-35"/>
       <use xlink:href="#DejaVuSans-30" transform="translate(63.623047 0)"/>
       <use xlink:href="#DejaVuSans-30" transform="translate(127.246094 0)"/>
      </g>
     </g>
    </g>
    <g id="ytick_4">
     <g id="line2d_19">
      <path d="M 57.17 170.055852 
L 417.680446 170.055852 
" clip-path="url(#pd61d6bf673)" style="fill: none; stroke: #b0b0b0; stroke-width: 0.8; stroke-linecap: square"/>
     </g>
     <g id="line2d_20">
      <g>
       <use xlink:href="#mcd4314c698" x="57.17" y="170.055852" style="stroke: #000000; stroke-width: 0.8"/>
      </g>
     </g>
     <g id="text_11">
      <!-- 750 -->
      <g transform="translate(31.0825 173.855071) scale(0.1 -0.1)">
       <defs>
        <path id="DejaVuSans-37" d="M 525 4666 
L 3525 4666 
L 3525 4397 
L 1831 0 
L 1172 0 
L 2766 4134 
L 525 4134 
L 525 4666 
z
" transform="scale(0.015625)"/>
       </defs>
       <use xlink:href="#DejaVuSans-37"/>
       <use xlink:href="#DejaVuSans-35" transform="translate(63.623047 0)"/>
       <use xlink:href="#DejaVuSans-30" transform="translate(127.246094 0)"/>
      </g>
     </g>
    </g>
    <g id="ytick_5">
     <g id="line2d_21">
      <path d="M 57.17 144.761553 
L 417.680446 144.761553 
" clip-path="url(#pd61d6bf673)" style="fill: none; stroke: #b0b0b0; stroke-width: 0.8; stroke-linecap: square"/>
     </g>
     <g id="line2d_22">
      <g>
       <use xlink:href="#mcd4314c698" x="57.17" y="144.761553" style="stroke: #000000; stroke-width: 0.8"/>
      </g>
     </g>
     <g id="text_12">
      <!-- 1000 -->
      <g transform="translate(24.72 148.560771) scale(0.1 -0.1)">
       <use xlink:href="#DejaVuSans-31"/>
       <use xlink:href="#DejaVuSans-30" transform="translate(63.623047 0)"/>
       <use xlink:href="#DejaVuSans-30" transform="translate(127.246094 0)"/>
       <use xlink:href="#DejaVuSans-30" transform="translate(190.869141 0)"/>
      </g>
     </g>
    </g>
    <g id="ytick_6">
     <g id="line2d_23">
      <path d="M 57.17 119.467253 
L 417.680446 119.467253 
" clip-path="url(#pd61d6bf673)" style="fill: none; stroke: #b0b0b0; stroke-width: 0.8; stroke-linecap: square"/>
     </g>
     <g id="line2d_24">
      <g>
       <use xlink:href="#mcd4314c698" x="57.17" y="119.467253" style="stroke: #000000; stroke-width: 0.8"/>
      </g>
     </g>
     <g id="text_13">
      <!-- 1250 -->
      <g transform="translate(24.72 123.266472) scale(0.1 -0.1)">
       <use xlink:href="#DejaVuSans-31"/>
       <use xlink:href="#DejaVuSans-32" transform="translate(63.623047 0)"/>
       <use xlink:href="#DejaVuSans-35" transform="translate(127.246094 0)"/>
       <use xlink:href="#DejaVuSans-30" transform="translate(190.869141 0)"/>
      </g>
     </g>
    </g>
    <g id="ytick_7">
     <g id="line2d_25">
      <path d="M 57.17 94.172954 
L 417.680446 94.172954 
" clip-path="url(#pd61d6bf673)" style="fill: none; stroke: #b0b0b0; stroke-width: 0.8; stroke-linecap: square"/>
     </g>
     <g id="line2d_26">
      <g>
       <use xlink:href="#mcd4314c698" x="57.17" y="94.172954" style="stroke: #000000; stroke-width: 0.8"/>
      </g>
     </g>
     <g id="text_14">
      <!-- 1500 -->
      <g transform="translate(24.72 97.972173) scale(0.1 -0.1)">
       <use xlink:href="#DejaVuSans-31"/>
       <use xlink:href="#DejaVuSans-35" transform="translate(63.623047 0)"/>
       <use xlink:href="#DejaVuSans-30" transform="translate(127.246094 0)"/>
       <use xlink:href="#DejaVuSans-30" transform="translate(190.869141 0)"/>
      </g>
     </g>
    </g>
    <g id="ytick_8">
     <g id="line2d_27">
      <path d="M 57.17 68.878655 
L 417.680446 68.878655 
" clip-path="url(#pd61d6bf673)" style="fill: none; stroke: #b0b0b0; stroke-width: 0.8; stroke-linecap: square"/>
     </g>
     <g id="line2d_28">
      <g>
       <use xlink:href="#mcd4314c698" x="57.17" y="68.878655" style="stroke: #000000; stroke-width: 0.8"/>
      </g>
     </g>
     <g id="text_15">
      <!-- 1750 -->
      <g transform="translate(24.72 72.677873) scale(0.1 -0.1)">
       <use xlink:href="#DejaVuSans-31"/>
       <use xlink:href="#DejaVuSans-37" transform="translate(63.623047 0)"/>
       <use xlink:href="#DejaVuSans-35" transform="translate(127.246094 0)"/>
       <use xlink:href="#DejaVuSans-30" transform="translate(190.869141 0)"/>
      </g>
     </g>
    </g>
    <g id="ytick_9">
     <g id="line2d_29">
      <path d="M 57.17 43.584355 
L 417.680446 43.584355 
" clip-path="url(#pd61d6bf673)" style="fill: none; stroke: #b0b0b0; stroke-width: 0.8; stroke-linecap: square"/>
     </g>
     <g id="line2d_30">
      <g>
       <use xlink:href="#mcd4314c698" x="57.17" y="43.584355" style="stroke: #000000; stroke-width: 0.8"/>
      </g>
     </g>
     <g id="text_16">
      <!-- 2000 -->
      <g transform="translate(24.72 47.383574) scale(0.1 -0.1)">
       <use xlink:href="#DejaVuSans-32"/>
       <use xlink:href="#DejaVuSans-30" transform="translate(63.623047 0)"/>
       <use xlink:href="#DejaVuSans-30" transform="translate(127.246094 0)"/>
       <use xlink:href="#DejaVuSans-30" transform="translate(190.869141 0)"/>
      </g>
     </g>
    </g>
    <g id="text_17">
     <!-- Count -->
     <g transform="translate(18.640313 151.257812) rotate(-90) scale(0.1 -0.1)">
      <defs>
       <path id="DejaVuSans-43" d="M 4122 4306 
L 4122 3641 
Q 3803 3938 3442 4084 
Q 3081 4231 2675 4231 
Q 1875 4231 1450 3742 
Q 1025 3253 1025 2328 
Q 1025 1406 1450 917 
Q 1875 428 2675 428 
Q 3081 428 3442 575 
Q 3803 722 4122 1019 
L 4122 359 
Q 3791 134 3420 21 
Q 3050 -91 2638 -91 
Q 1578 -91 968 557 
Q 359 1206 359 2328 
Q 359 3453 968 4101 
Q 1578 4750 2638 4750 
Q 3056 4750 3426 4639 
Q 3797 4528 4122 4306 
z
" transform="scale(0.015625)"/>
       <path id="DejaVuSans-6f" d="M 1959 3097 
Q 1497 3097 1228 2736 
Q 959 2375 959 1747 
Q 959 1119 1226 758 
Q 1494 397 1959 397 
Q 2419 397 2687 759 
Q 2956 1122 2956 1747 
Q 2956 2369 2687 2733 
Q 2419 3097 1959 3097 
z
M 1959 3584 
Q 2709 3584 3137 3096 
Q 3566 2609 3566 1747 
Q 3566 888 3137 398 
Q 2709 -91 1959 -91 
Q 1206 -91 779 398 
Q 353 888 353 1747 
Q 353 2609 779 3096 
Q 1206 3584 1959 3584 
z
" transform="scale(0.015625)"/>
       <path id="DejaVuSans-75" d="M 544 1381 
L 544 3500 
L 1119 3500 
L 1119 1403 
Q 1119 906 1312 657 
Q 1506 409 1894 409 
Q 2359 409 2629 706 
Q 2900 1003 2900 1516 
L 2900 3500 
L 3475 3500 
L 3475 0 
L 2900 0 
L 2900 538 
Q 2691 219 2414 64 
Q 2138 -91 1772 -91 
Q 1169 -91 856 284 
Q 544 659 544 1381 
z
M 1991 3584 
L 1991 3584 
z
" transform="scale(0.015625)"/>
      </defs>
      <use xlink:href="#DejaVuSans-43"/>
      <use xlink:href="#DejaVuSans-6f" transform="translate(69.824219 0)"/>
      <use xlink:href="#DejaVuSans-75" transform="translate(131.005859 0)"/>
      <use xlink:href="#DejaVuSans-6e" transform="translate(194.384766 0)"/>
      <use xlink:href="#DejaVuSans-74" transform="translate(257.763672 0)"/>
     </g>
    </g>
   </g>
   <g id="patch_53">
    <path d="M 57.17 245.93875 
L 57.17 26.88 
" style="fill: none; stroke: #000000; stroke-width: 0.8; stroke-linejoin: miter; stroke-linecap: square"/>
   </g>
   <g id="patch_54">
    <path d="M 417.680446 245.93875 
L 417.680446 26.88 
" style="fill: none; stroke: #000000; stroke-width: 0.8; stroke-linejoin: miter; stroke-linecap: square"/>
   </g>
   <g id="patch_55">
    <path d="M 57.17 245.93875 
L 417.680446 245.93875 
" style="fill: none; stroke: #000000; stroke-width: 0.8; stroke-linejoin: miter; stroke-linecap: square"/>
   </g>
   <g id="patch_56">
    <path d="M 57.17 26.88 
L 417.680446 26.88 
" style="fill: none; stroke: #000000; stroke-width: 0.8; stroke-linejoin: miter; stroke-linecap: square"/>
   </g>
   <g id="text_18">
    <!-- SteeringSpeed_StdDev -->
    <g transform="translate(168.490848 20.88) scale(0.12 -0.12)">
     <use xlink:href="#DejaVuSans-53"/>
     <use xlink:href="#DejaVuSans-74" transform="translate(63.476562 0)"/>
     <use xlink:href="#DejaVuSans-65" transform="translate(102.685547 0)"/>
     <use xlink:href="#DejaVuSans-65" transform="translate(164.208984 0)"/>
     <use xlink:href="#DejaVuSans-72" transform="translate(225.732422 0)"/>
     <use xlink:href="#DejaVuSans-69" transform="translate(266.845703 0)"/>
     <use xlink:href="#DejaVuSans-6e" transform="translate(294.628906 0)"/>
     <use xlink:href="#DejaVuSans-67" transform="translate(358.007812 0)"/>
     <use xlink:href="#DejaVuSans-53" transform="translate(421.484375 0)"/>
     <use xlink:href="#DejaVuSans-70" transform="translate(484.960938 0)"/>
     <use xlink:href="#DejaVuSans-65" transform="translate(548.4375 0)"/>
     <use xlink:href="#DejaVuSans-65" transform="translate(609.960938 0)"/>
     <use xlink:href="#DejaVuSans-64" transform="translate(671.484375 0)"/>
     <use xlink:href="#DejaVuSans-5f" transform="translate(734.960938 0)"/>
     <use xlink:href="#DejaVuSans-53" transform="translate(784.960938 0)"/>
     <use xlink:href="#DejaVuSans-74" transform="translate(848.4375 0)"/>
     <use xlink:href="#DejaVuSans-64" transform="translate(887.646484 0)"/>
     <use xlink:href="#DejaVuSans-44" transform="translate(951.123047 0)"/>
     <use xlink:href="#DejaVuSans-65" transform="translate(1028.125 0)"/>
     <use xlink:href="#DejaVuSans-76" transform="translate(1089.648438 0)"/>
    </g>
   </g>
  </g>
 </g>
 <defs>
  <clipPath id="pd61d6bf673">
   <rect x="57.17" y="26.88" width="360.510446" height="219.05875"/>
  </clipPath>
 </defs>
</svg>
