<?xml version="1.0" encoding="utf-8" standalone="no"?>
<!DOCTYPE svg PUBLIC "-//W3C//DTD SVG 1.1//EN"
  "http://www.w3.org/Graphics/SVG/1.1/DTD/svg11.dtd">
<svg xmlns:xlink="http://www.w3.org/1999/xlink" width="432pt" height="288pt" viewBox="0 0 432 288" xmlns="http://www.w3.org/2000/svg" version="1.1">
 <metadata>
  <rdf:RDF xmlns:dc="http://purl.org/dc/elements/1.1/" xmlns:cc="http://creativecommons.org/ns#" xmlns:rdf="http://www.w3.org/1999/02/22-rdf-syntax-ns#">
   <cc:Work>
    <dc:type rdf:resource="http://purl.org/dc/dcmitype/StillImage"/>
    <dc:date>2025-06-15T13:53:10.111674</dc:date>
    <dc:format>image/svg+xml</dc:format>
    <dc:creator>
     <cc:Agent>
      <dc:title>Matplotlib v3.10.0, https://matplotlib.org/</dc:title>
     </cc:Agent>
    </dc:creator>
   </cc:Work>
  </rdf:RDF>
 </metadata>
 <defs>
  <style type="text/css">*{stroke-linejoin: round; stroke-linecap: butt}</style>
 </defs>
 <g id="figure_1">
  <g id="patch_1">
   <path d="M 0 288 
L 432 288 
L 432 0 
L 0 0 
z
" style="fill: #ffffff"/>
  </g>
  <g id="axes_1">
   <g id="patch_2">
    <path d="M 57.17 245.93875 
L 416.881317 245.93875 
L 416.881317 26.88 
L 57.17 26.88 
z
" style="fill: #ffffff"/>
   </g>
   <g id="patch_3">
    <path d="M 73.520514 245.93875 
L 80.06072 245.93875 
L 80.06072 244.501879 
L 73.520514 244.501879 
z
" clip-path="url(#p912c6d5c2a)" style="fill: #1f77b4"/>
   </g>
   <g id="patch_4">
    <path d="M 80.06072 245.93875 
L 86.600926 245.93875 
L 86.600926 242.096683 
L 80.06072 242.096683 
z
" clip-path="url(#p912c6d5c2a)" style="fill: #1f77b4"/>
   </g>
   <g id="patch_5">
    <path d="M 86.600926 245.93875 
L 93.141132 245.93875 
L 93.141132 235.130983 
L 86.600926 235.130983 
z
" clip-path="url(#p912c6d5c2a)" style="fill: #1f77b4"/>
   </g>
   <g id="patch_6">
    <path d="M 93.141132 245.93875 
L 99.681338 245.93875 
L 99.681338 221.449475 
L 93.141132 221.449475 
z
" clip-path="url(#p912c6d5c2a)" style="fill: #1f77b4"/>
   </g>
   <g id="patch_7">
    <path d="M 99.681338 245.93875 
L 106.221543 245.93875 
L 106.221543 206.518514 
L 99.681338 206.518514 
z
" clip-path="url(#p912c6d5c2a)" style="fill: #1f77b4"/>
   </g>
   <g id="patch_8">
    <path d="M 106.221543 245.93875 
L 112.761749 245.93875 
L 112.761749 128.521423 
L 106.221543 128.521423 
z
" clip-path="url(#p912c6d5c2a)" style="fill: #1f77b4"/>
   </g>
   <g id="patch_9">
    <path d="M 112.761749 245.93875 
L 119.301955 245.93875 
L 119.301955 171.533836 
L 112.761749 171.533836 
z
" clip-path="url(#p912c6d5c2a)" style="fill: #1f77b4"/>
   </g>
   <g id="patch_10">
    <path d="M 119.301955 245.93875 
L 125.842161 245.93875 
L 125.842161 163.849701 
L 119.301955 163.849701 
z
" clip-path="url(#p912c6d5c2a)" style="fill: #1f77b4"/>
   </g>
   <g id="patch_11">
    <path d="M 125.842161 245.93875 
L 132.382366 245.93875 
L 132.382366 156.915238 
L 125.842161 156.915238 
z
" clip-path="url(#p912c6d5c2a)" style="fill: #1f77b4"/>
   </g>
   <g id="patch_12">
    <path d="M 132.382366 245.93875 
L 138.922572 245.93875 
L 138.922572 150.10572 
L 132.382366 150.10572 
z
" clip-path="url(#p912c6d5c2a)" style="fill: #1f77b4"/>
   </g>
   <g id="patch_13">
    <path d="M 138.922572 245.93875 
L 145.462778 245.93875 
L 145.462778 147.919178 
L 138.922572 147.919178 
z
" clip-path="url(#p912c6d5c2a)" style="fill: #1f77b4"/>
   </g>
   <g id="patch_14">
    <path d="M 145.462778 245.93875 
L 152.002984 245.93875 
L 152.002984 37.311369 
L 145.462778 37.311369 
z
" clip-path="url(#p912c6d5c2a)" style="fill: #1f77b4"/>
   </g>
   <g id="patch_15">
    <path d="M 152.002984 245.93875 
L 158.543189 245.93875 
L 158.543189 136.143085 
L 152.002984 136.143085 
z
" clip-path="url(#p912c6d5c2a)" style="fill: #1f77b4"/>
   </g>
   <g id="patch_16">
    <path d="M 158.543189 245.93875 
L 165.083395 245.93875 
L 165.083395 136.61163 
L 158.543189 136.61163 
z
" clip-path="url(#p912c6d5c2a)" style="fill: #1f77b4"/>
   </g>
   <g id="patch_17">
    <path d="M 165.083395 245.93875 
L 171.623601 245.93875 
L 171.623601 136.174322 
L 165.083395 136.174322 
z
" clip-path="url(#p912c6d5c2a)" style="fill: #1f77b4"/>
   </g>
   <g id="patch_18">
    <path d="M 171.623601 245.93875 
L 178.163807 245.93875 
L 178.163807 140.172571 
L 171.623601 140.172571 
z
" clip-path="url(#p912c6d5c2a)" style="fill: #1f77b4"/>
   </g>
   <g id="patch_19">
    <path d="M 178.163807 245.93875 
L 184.704013 245.93875 
L 184.704013 50.305678 
L 178.163807 50.305678 
z
" clip-path="url(#p912c6d5c2a)" style="fill: #1f77b4"/>
   </g>
   <g id="patch_20">
    <path d="M 184.704013 245.93875 
L 191.244218 245.93875 
L 191.244218 156.509166 
L 184.704013 156.509166 
z
" clip-path="url(#p912c6d5c2a)" style="fill: #1f77b4"/>
   </g>
   <g id="patch_21">
    <path d="M 191.244218 245.93875 
L 197.784424 245.93875 
L 197.784424 167.410642 
L 191.244218 167.410642 
z
" clip-path="url(#p912c6d5c2a)" style="fill: #1f77b4"/>
   </g>
   <g id="patch_22">
    <path d="M 197.784424 245.93875 
L 204.32463 245.93875 
L 204.32463 177.031428 
L 197.784424 177.031428 
z
" clip-path="url(#p912c6d5c2a)" style="fill: #1f77b4"/>
   </g>
   <g id="patch_23">
    <path d="M 204.32463 245.93875 
L 210.864836 245.93875 
L 210.864836 186.089961 
L 204.32463 186.089961 
z
" clip-path="url(#p912c6d5c2a)" style="fill: #1f77b4"/>
   </g>
   <g id="patch_24">
    <path d="M 210.864836 245.93875 
L 217.405041 245.93875 
L 217.405041 195.460857 
L 210.864836 195.460857 
z
" clip-path="url(#p912c6d5c2a)" style="fill: #1f77b4"/>
   </g>
   <g id="patch_25">
    <path d="M 217.405041 245.93875 
L 223.945247 245.93875 
L 223.945247 171.596309 
L 217.405041 171.596309 
z
" clip-path="url(#p912c6d5c2a)" style="fill: #1f77b4"/>
   </g>
   <g id="patch_26">
    <path d="M 223.945247 245.93875 
L 230.485453 245.93875 
L 230.485453 218.794388 
L 223.945247 218.794388 
z
" clip-path="url(#p912c6d5c2a)" style="fill: #1f77b4"/>
   </g>
   <g id="patch_27">
    <path d="M 230.485453 245.93875 
L 237.025659 245.93875 
L 237.025659 225.22907 
L 230.485453 225.22907 
z
" clip-path="url(#p912c6d5c2a)" style="fill: #1f77b4"/>
   </g>
   <g id="patch_28">
    <path d="M 237.025659 245.93875 
L 243.565864 245.93875 
L 243.565864 227.478085 
L 237.025659 227.478085 
z
" clip-path="url(#p912c6d5c2a)" style="fill: #1f77b4"/>
   </g>
   <g id="patch_29">
    <path d="M 243.565864 245.93875 
L 250.10607 245.93875 
L 250.10607 231.132734 
L 243.565864 231.132734 
z
" clip-path="url(#p912c6d5c2a)" style="fill: #1f77b4"/>
   </g>
   <g id="patch_30">
    <path d="M 250.10607 245.93875 
L 256.646276 245.93875 
L 256.646276 226.884595 
L 250.10607 226.884595 
z
" clip-path="url(#p912c6d5c2a)" style="fill: #1f77b4"/>
   </g>
   <g id="patch_31">
    <path d="M 256.646276 245.93875 
L 263.186482 245.93875 
L 263.186482 238.691924 
L 256.646276 238.691924 
z
" clip-path="url(#p912c6d5c2a)" style="fill: #1f77b4"/>
   </g>
   <g id="patch_32">
    <path d="M 263.186482 245.93875 
L 269.726688 245.93875 
L 269.726688 240.940939 
L 263.186482 240.940939 
z
" clip-path="url(#p912c6d5c2a)" style="fill: #1f77b4"/>
   </g>
   <g id="patch_33">
    <path d="M 269.726688 245.93875 
L 276.266893 245.93875 
L 276.266893 241.128357 
L 269.726688 241.128357 
z
" clip-path="url(#p912c6d5c2a)" style="fill: #1f77b4"/>
   </g>
   <g id="patch_34">
    <path d="M 276.266893 245.93875 
L 282.807099 245.93875 
L 282.807099 242.815118 
L 276.266893 242.815118 
z
" clip-path="url(#p912c6d5c2a)" style="fill: #1f77b4"/>
   </g>
   <g id="patch_35">
    <path d="M 282.807099 245.93875 
L 289.347305 245.93875 
L 289.347305 243.596026 
L 282.807099 243.596026 
z
" clip-path="url(#p912c6d5c2a)" style="fill: #1f77b4"/>
   </g>
   <g id="patch_36">
    <path d="M 289.347305 245.93875 
L 295.887511 245.93875 
L 295.887511 241.909265 
L 289.347305 241.909265 
z
" clip-path="url(#p912c6d5c2a)" style="fill: #1f77b4"/>
   </g>
   <g id="patch_37">
    <path d="M 295.887511 245.93875 
L 302.427716 245.93875 
L 302.427716 244.002098 
L 295.887511 244.002098 
z
" clip-path="url(#p912c6d5c2a)" style="fill: #1f77b4"/>
   </g>
   <g id="patch_38">
    <path d="M 302.427716 245.93875 
L 308.967922 245.93875 
L 308.967922 244.376934 
L 302.427716 244.376934 
z
" clip-path="url(#p912c6d5c2a)" style="fill: #1f77b4"/>
   </g>
   <g id="patch_39">
    <path d="M 308.967922 245.93875 
L 315.508128 245.93875 
L 315.508128 244.658061 
L 308.967922 244.658061 
z
" clip-path="url(#p912c6d5c2a)" style="fill: #1f77b4"/>
   </g>
   <g id="patch_40">
    <path d="M 315.508128 245.93875 
L 322.048334 245.93875 
L 322.048334 245.189078 
L 315.508128 245.189078 
z
" clip-path="url(#p912c6d5c2a)" style="fill: #1f77b4"/>
   </g>
   <g id="patch_41">
    <path d="M 322.048334 245.93875 
L 328.58854 245.93875 
L 328.58854 243.908389 
L 322.048334 243.908389 
z
" clip-path="url(#p912c6d5c2a)" style="fill: #1f77b4"/>
   </g>
   <g id="patch_42">
    <path d="M 328.58854 245.93875 
L 335.128745 245.93875 
L 335.128745 245.00166 
L 328.58854 245.00166 
z
" clip-path="url(#p912c6d5c2a)" style="fill: #1f77b4"/>
   </g>
   <g id="patch_43">
    <path d="M 335.128745 245.93875 
L 341.668951 245.93875 
L 341.668951 245.282787 
L 335.128745 245.282787 
z
" clip-path="url(#p912c6d5c2a)" style="fill: #1f77b4"/>
   </g>
   <g id="patch_44">
    <path d="M 341.668951 245.93875 
L 348.209157 245.93875 
L 348.209157 245.220315 
L 341.668951 245.220315 
z
" clip-path="url(#p912c6d5c2a)" style="fill: #1f77b4"/>
   </g>
   <g id="patch_45">
    <path d="M 348.209157 245.93875 
L 354.749363 245.93875 
L 354.749363 245.314024 
L 348.209157 245.314024 
z
" clip-path="url(#p912c6d5c2a)" style="fill: #1f77b4"/>
   </g>
   <g id="patch_46">
    <path d="M 354.749363 245.93875 
L 361.289568 245.93875 
L 361.289568 245.314024 
L 354.749363 245.314024 
z
" clip-path="url(#p912c6d5c2a)" style="fill: #1f77b4"/>
   </g>
   <g id="patch_47">
    <path d="M 361.289568 245.93875 
L 367.829774 245.93875 
L 367.829774 245.157842 
L 361.289568 245.157842 
z
" clip-path="url(#p912c6d5c2a)" style="fill: #1f77b4"/>
   </g>
   <g id="patch_48">
    <path d="M 367.829774 245.93875 
L 374.36998 245.93875 
L 374.36998 245.751332 
L 367.829774 245.751332 
z
" clip-path="url(#p912c6d5c2a)" style="fill: #1f77b4"/>
   </g>
   <g id="patch_49">
    <path d="M 374.36998 245.93875 
L 380.910186 245.93875 
L 380.910186 245.751332 
L 374.36998 245.751332 
z
" clip-path="url(#p912c6d5c2a)" style="fill: #1f77b4"/>
   </g>
   <g id="patch_50">
    <path d="M 380.910186 245.93875 
L 387.450391 245.93875 
L 387.450391 245.876277 
L 380.910186 245.876277 
z
" clip-path="url(#p912c6d5c2a)" style="fill: #1f77b4"/>
   </g>
   <g id="patch_51">
    <path d="M 387.450391 245.93875 
L 393.990597 245.93875 
L 393.990597 245.845041 
L 387.450391 245.845041 
z
" clip-path="url(#p912c6d5c2a)" style="fill: #1f77b4"/>
   </g>
   <g id="patch_52">
    <path d="M 393.990597 245.93875 
L 400.530803 245.93875 
L 400.530803 245.907514 
L 393.990597 245.907514 
z
" clip-path="url(#p912c6d5c2a)" style="fill: #1f77b4"/>
   </g>
   <g id="matplotlib.axis_1">
    <g id="xtick_1">
     <g id="line2d_1">
      <path d="M 62.43542 245.93875 
L 62.43542 26.88 
" clip-path="url(#p912c6d5c2a)" style="fill: none; stroke: #b0b0b0; stroke-width: 0.8; stroke-linecap: square"/>
     </g>
     <g id="line2d_2">
      <defs>
       <path id="m6ccf10b810" d="M 0 0 
L 0 3.5 
" style="stroke: #000000; stroke-width: 0.8"/>
      </defs>
      <g>
       <use xlink:href="#m6ccf10b810" x="62.43542" y="245.93875" style="stroke: #000000; stroke-width: 0.8"/>
      </g>
     </g>
     <g id="text_1">
      <!-- 0.00 -->
      <g transform="translate(51.302607 260.537188) scale(0.1 -0.1)">
       <defs>
        <path id="DejaVuSans-30" d="M 2034 4250 
Q 1547 4250 1301 3770 
Q 1056 3291 1056 2328 
Q 1056 1369 1301 889 
Q 1547 409 2034 409 
Q 2525 409 2770 889 
Q 3016 1369 3016 2328 
Q 3016 3291 2770 3770 
Q 2525 4250 2034 4250 
z
M 2034 4750 
Q 2819 4750 3233 4129 
Q 3647 3509 3647 2328 
Q 3647 1150 3233 529 
Q 2819 -91 2034 -91 
Q 1250 -91 836 529 
Q 422 1150 422 2328 
Q 422 3509 836 4129 
Q 1250 4750 2034 4750 
z
" transform="scale(0.015625)"/>
        <path id="DejaVuSans-2e" d="M 684 794 
L 1344 794 
L 1344 0 
L 684 0 
L 684 794 
z
" transform="scale(0.015625)"/>
       </defs>
       <use xlink:href="#DejaVuSans-30"/>
       <use xlink:href="#DejaVuSans-2e" transform="translate(63.623047 0)"/>
       <use xlink:href="#DejaVuSans-30" transform="translate(95.410156 0)"/>
       <use xlink:href="#DejaVuSans-30" transform="translate(159.033203 0)"/>
      </g>
     </g>
    </g>
    <g id="xtick_2">
     <g id="line2d_3">
      <path d="M 112.041218 245.93875 
L 112.041218 26.88 
" clip-path="url(#p912c6d5c2a)" style="fill: none; stroke: #b0b0b0; stroke-width: 0.8; stroke-linecap: square"/>
     </g>
     <g id="line2d_4">
      <g>
       <use xlink:href="#m6ccf10b810" x="112.041218" y="245.93875" style="stroke: #000000; stroke-width: 0.8"/>
      </g>
     </g>
     <g id="text_2">
      <!-- 0.05 -->
      <g transform="translate(100.908405 260.537188) scale(0.1 -0.1)">
       <defs>
        <path id="DejaVuSans-35" d="M 691 4666 
L 3169 4666 
L 3169 4134 
L 1269 4134 
L 1269 2991 
Q 1406 3038 1543 3061 
Q 1681 3084 1819 3084 
Q 2600 3084 3056 2656 
Q 3513 2228 3513 1497 
Q 3513 744 3044 326 
Q 2575 -91 1722 -91 
Q 1428 -91 1123 -41 
Q 819 9 494 109 
L 494 744 
Q 775 591 1075 516 
Q 1375 441 1709 441 
Q 2250 441 2565 725 
Q 2881 1009 2881 1497 
Q 2881 1984 2565 2268 
Q 2250 2553 1709 2553 
Q 1456 2553 1204 2497 
Q 953 2441 691 2322 
L 691 4666 
z
" transform="scale(0.015625)"/>
       </defs>
       <use xlink:href="#DejaVuSans-30"/>
       <use xlink:href="#DejaVuSans-2e" transform="translate(63.623047 0)"/>
       <use xlink:href="#DejaVuSans-30" transform="translate(95.410156 0)"/>
       <use xlink:href="#DejaVuSans-35" transform="translate(159.033203 0)"/>
      </g>
     </g>
    </g>
    <g id="xtick_3">
     <g id="line2d_5">
      <path d="M 161.647016 245.93875 
L 161.647016 26.88 
" clip-path="url(#p912c6d5c2a)" style="fill: none; stroke: #b0b0b0; stroke-width: 0.8; stroke-linecap: square"/>
     </g>
     <g id="line2d_6">
      <g>
       <use xlink:href="#m6ccf10b810" x="161.647016" y="245.93875" style="stroke: #000000; stroke-width: 0.8"/>
      </g>
     </g>
     <g id="text_3">
      <!-- 0.10 -->
      <g transform="translate(150.514203 260.537188) scale(0.1 -0.1)">
       <defs>
        <path id="DejaVuSans-31" d="M 794 531 
L 1825 531 
L 1825 4091 
L 703 3866 
L 703 4441 
L 1819 4666 
L 2450 4666 
L 2450 531 
L 3481 531 
L 3481 0 
L 794 0 
L 794 531 
z
" transform="scale(0.015625)"/>
       </defs>
       <use xlink:href="#DejaVuSans-30"/>
       <use xlink:href="#DejaVuSans-2e" transform="translate(63.623047 0)"/>
       <use xlink:href="#DejaVuSans-31" transform="translate(95.410156 0)"/>
       <use xlink:href="#DejaVuSans-30" transform="translate(159.033203 0)"/>
      </g>
     </g>
    </g>
    <g id="xtick_4">
     <g id="line2d_7">
      <path d="M 211.252814 245.93875 
L 211.252814 26.88 
" clip-path="url(#p912c6d5c2a)" style="fill: none; stroke: #b0b0b0; stroke-width: 0.8; stroke-linecap: square"/>
     </g>
     <g id="line2d_8">
      <g>
       <use xlink:href="#m6ccf10b810" x="211.252814" y="245.93875" style="stroke: #000000; stroke-width: 0.8"/>
      </g>
     </g>
     <g id="text_4">
      <!-- 0.15 -->
      <g transform="translate(200.120001 260.537188) scale(0.1 -0.1)">
       <use xlink:href="#DejaVuSans-30"/>
       <use xlink:href="#DejaVuSans-2e" transform="translate(63.623047 0)"/>
       <use xlink:href="#DejaVuSans-31" transform="translate(95.410156 0)"/>
       <use xlink:href="#DejaVuSans-35" transform="translate(159.033203 0)"/>
      </g>
     </g>
    </g>
    <g id="xtick_5">
     <g id="line2d_9">
      <path d="M 260.858612 245.93875 
L 260.858612 26.88 
" clip-path="url(#p912c6d5c2a)" style="fill: none; stroke: #b0b0b0; stroke-width: 0.8; stroke-linecap: square"/>
     </g>
     <g id="line2d_10">
      <g>
       <use xlink:href="#m6ccf10b810" x="260.858612" y="245.93875" style="stroke: #000000; stroke-width: 0.8"/>
      </g>
     </g>
     <g id="text_5">
      <!-- 0.20 -->
      <g transform="translate(249.725799 260.537188) scale(0.1 -0.1)">
       <defs>
        <path id="DejaVuSans-32" d="M 1228 531 
L 3431 531 
L 3431 0 
L 469 0 
L 469 531 
Q 828 903 1448 1529 
Q 2069 2156 2228 2338 
Q 2531 2678 2651 2914 
Q 2772 3150 2772 3378 
Q 2772 3750 2511 3984 
Q 2250 4219 1831 4219 
Q 1534 4219 1204 4116 
Q 875 4013 500 3803 
L 500 4441 
Q 881 4594 1212 4672 
Q 1544 4750 1819 4750 
Q 2544 4750 2975 4387 
Q 3406 4025 3406 3419 
Q 3406 3131 3298 2873 
Q 3191 2616 2906 2266 
Q 2828 2175 2409 1742 
Q 1991 1309 1228 531 
z
" transform="scale(0.015625)"/>
       </defs>
       <use xlink:href="#DejaVuSans-30"/>
       <use xlink:href="#DejaVuSans-2e" transform="translate(63.623047 0)"/>
       <use xlink:href="#DejaVuSans-32" transform="translate(95.410156 0)"/>
       <use xlink:href="#DejaVuSans-30" transform="translate(159.033203 0)"/>
      </g>
     </g>
    </g>
    <g id="xtick_6">
     <g id="line2d_11">
      <path d="M 310.46441 245.93875 
L 310.46441 26.88 
" clip-path="url(#p912c6d5c2a)" style="fill: none; stroke: #b0b0b0; stroke-width: 0.8; stroke-linecap: square"/>
     </g>
     <g id="line2d_12">
      <g>
       <use xlink:href="#m6ccf10b810" x="310.46441" y="245.93875" style="stroke: #000000; stroke-width: 0.8"/>
      </g>
     </g>
     <g id="text_6">
      <!-- 0.25 -->
      <g transform="translate(299.331597 260.537188) scale(0.1 -0.1)">
       <use xlink:href="#DejaVuSans-30"/>
       <use xlink:href="#DejaVuSans-2e" transform="translate(63.623047 0)"/>
       <use xlink:href="#DejaVuSans-32" transform="translate(95.410156 0)"/>
       <use xlink:href="#DejaVuSans-35" transform="translate(159.033203 0)"/>
      </g>
     </g>
    </g>
    <g id="xtick_7">
     <g id="line2d_13">
      <path d="M 360.070208 245.93875 
L 360.070208 26.88 
" clip-path="url(#p912c6d5c2a)" style="fill: none; stroke: #b0b0b0; stroke-width: 0.8; stroke-linecap: square"/>
     </g>
     <g id="line2d_14">
      <g>
       <use xlink:href="#m6ccf10b810" x="360.070208" y="245.93875" style="stroke: #000000; stroke-width: 0.8"/>
      </g>
     </g>
     <g id="text_7">
      <!-- 0.30 -->
      <g transform="translate(348.937395 260.537188) scale(0.1 -0.1)">
       <defs>
        <path id="DejaVuSans-33" d="M 2597 2516 
Q 3050 2419 3304 2112 
Q 3559 1806 3559 1356 
Q 3559 666 3084 287 
Q 2609 -91 1734 -91 
Q 1441 -91 1130 -33 
Q 819 25 488 141 
L 488 750 
Q 750 597 1062 519 
Q 1375 441 1716 441 
Q 2309 441 2620 675 
Q 2931 909 2931 1356 
Q 2931 1769 2642 2001 
Q 2353 2234 1838 2234 
L 1294 2234 
L 1294 2753 
L 1863 2753 
Q 2328 2753 2575 2939 
Q 2822 3125 2822 3475 
Q 2822 3834 2567 4026 
Q 2313 4219 1838 4219 
Q 1578 4219 1281 4162 
Q 984 4106 628 3988 
L 628 4550 
Q 988 4650 1302 4700 
Q 1616 4750 1894 4750 
Q 2613 4750 3031 4423 
Q 3450 4097 3450 3541 
Q 3450 3153 3228 2886 
Q 3006 2619 2597 2516 
z
" transform="scale(0.015625)"/>
       </defs>
       <use xlink:href="#DejaVuSans-30"/>
       <use xlink:href="#DejaVuSans-2e" transform="translate(63.623047 0)"/>
       <use xlink:href="#DejaVuSans-33" transform="translate(95.410156 0)"/>
       <use xlink:href="#DejaVuSans-30" transform="translate(159.033203 0)"/>
      </g>
     </g>
    </g>
    <g id="xtick_8">
     <g id="line2d_15">
      <path d="M 409.676006 245.93875 
L 409.676006 26.88 
" clip-path="url(#p912c6d5c2a)" style="fill: none; stroke: #b0b0b0; stroke-width: 0.8; stroke-linecap: square"/>
     </g>
     <g id="line2d_16">
      <g>
       <use xlink:href="#m6ccf10b810" x="409.676006" y="245.93875" style="stroke: #000000; stroke-width: 0.8"/>
      </g>
     </g>
     <g id="text_8">
      <!-- 0.35 -->
      <g transform="translate(398.543193 260.537188) scale(0.1 -0.1)">
       <use xlink:href="#DejaVuSans-30"/>
       <use xlink:href="#DejaVuSans-2e" transform="translate(63.623047 0)"/>
       <use xlink:href="#DejaVuSans-33" transform="translate(95.410156 0)"/>
       <use xlink:href="#DejaVuSans-35" transform="translate(159.033203 0)"/>
      </g>
     </g>
    </g>
    <g id="text_9">
     <!-- SteeringSpeed_ZeroCrossingRate -->
     <g transform="translate(153.373315 274.215312) scale(0.1 -0.1)">
      <defs>
       <path id="DejaVuSans-53" d="M 3425 4513 
L 3425 3897 
Q 3066 4069 2747 4153 
Q 2428 4238 2131 4238 
Q 1616 4238 1336 4038 
Q 1056 3838 1056 3469 
Q 1056 3159 1242 3001 
Q 1428 2844 1947 2747 
L 2328 2669 
Q 3034 2534 3370 2195 
Q 3706 1856 3706 1288 
Q 3706 609 3251 259 
Q 2797 -91 1919 -91 
Q 1588 -91 1214 -16 
Q 841 59 441 206 
L 441 856 
Q 825 641 1194 531 
Q 1563 422 1919 422 
Q 2459 422 2753 634 
Q 3047 847 3047 1241 
Q 3047 1584 2836 1778 
Q 2625 1972 2144 2069 
L 1759 2144 
Q 1053 2284 737 2584 
Q 422 2884 422 3419 
Q 422 4038 858 4394 
Q 1294 4750 2059 4750 
Q 2388 4750 2728 4690 
Q 3069 4631 3425 4513 
z
" transform="scale(0.015625)"/>
       <path id="DejaVuSans-74" d="M 1172 4494 
L 1172 3500 
L 2356 3500 
L 2356 3053 
L 1172 3053 
L 1172 1153 
Q 1172 725 1289 603 
Q 1406 481 1766 481 
L 2356 481 
L 2356 0 
L 1766 0 
Q 1100 0 847 248 
Q 594 497 594 1153 
L 594 3053 
L 172 3053 
L 172 3500 
L 594 3500 
L 594 4494 
L 1172 4494 
z
" transform="scale(0.015625)"/>
       <path id="DejaVuSans-65" d="M 3597 1894 
L 3597 1613 
L 953 1613 
Q 991 1019 1311 708 
Q 1631 397 2203 397 
Q 2534 397 2845 478 
Q 3156 559 3463 722 
L 3463 178 
Q 3153 47 2828 -22 
Q 2503 -91 2169 -91 
Q 1331 -91 842 396 
Q 353 884 353 1716 
Q 353 2575 817 3079 
Q 1281 3584 2069 3584 
Q 2775 3584 3186 3129 
Q 3597 2675 3597 1894 
z
M 3022 2063 
Q 3016 2534 2758 2815 
Q 2500 3097 2075 3097 
Q 1594 3097 1305 2825 
Q 1016 2553 972 2059 
L 3022 2063 
z
" transform="scale(0.015625)"/>
       <path id="DejaVuSans-72" d="M 2631 2963 
Q 2534 3019 2420 3045 
Q 2306 3072 2169 3072 
Q 1681 3072 1420 2755 
Q 1159 2438 1159 1844 
L 1159 0 
L 581 0 
L 581 3500 
L 1159 3500 
L 1159 2956 
Q 1341 3275 1631 3429 
Q 1922 3584 2338 3584 
Q 2397 3584 2469 3576 
Q 2541 3569 2628 3553 
L 2631 2963 
z
" transform="scale(0.015625)"/>
       <path id="DejaVuSans-69" d="M 603 3500 
L 1178 3500 
L 1178 0 
L 603 0 
L 603 3500 
z
M 603 4863 
L 1178 4863 
L 1178 4134 
L 603 4134 
L 603 4863 
z
" transform="scale(0.015625)"/>
       <path id="DejaVuSans-6e" d="M 3513 2113 
L 3513 0 
L 2938 0 
L 2938 2094 
Q 2938 2591 2744 2837 
Q 2550 3084 2163 3084 
Q 1697 3084 1428 2787 
Q 1159 2491 1159 1978 
L 1159 0 
L 581 0 
L 581 3500 
L 1159 3500 
L 1159 2956 
Q 1366 3272 1645 3428 
Q 1925 3584 2291 3584 
Q 2894 3584 3203 3211 
Q 3513 2838 3513 2113 
z
" transform="scale(0.015625)"/>
       <path id="DejaVuSans-67" d="M 2906 1791 
Q 2906 2416 2648 2759 
Q 2391 3103 1925 3103 
Q 1463 3103 1205 2759 
Q 947 2416 947 1791 
Q 947 1169 1205 825 
Q 1463 481 1925 481 
Q 2391 481 2648 825 
Q 2906 1169 2906 1791 
z
M 3481 434 
Q 3481 -459 3084 -895 
Q 2688 -1331 1869 -1331 
Q 1566 -1331 1297 -1286 
Q 1028 -1241 775 -1147 
L 775 -588 
Q 1028 -725 1275 -790 
Q 1522 -856 1778 -856 
Q 2344 -856 2625 -561 
Q 2906 -266 2906 331 
L 2906 616 
Q 2728 306 2450 153 
Q 2172 0 1784 0 
Q 1141 0 747 490 
Q 353 981 353 1791 
Q 353 2603 747 3093 
Q 1141 3584 1784 3584 
Q 2172 3584 2450 3431 
Q 2728 3278 2906 2969 
L 2906 3500 
L 3481 3500 
L 3481 434 
z
" transform="scale(0.015625)"/>
       <path id="DejaVuSans-70" d="M 1159 525 
L 1159 -1331 
L 581 -1331 
L 581 3500 
L 1159 3500 
L 1159 2969 
Q 1341 3281 1617 3432 
Q 1894 3584 2278 3584 
Q 2916 3584 3314 3078 
Q 3713 2572 3713 1747 
Q 3713 922 3314 415 
Q 2916 -91 2278 -91 
Q 1894 -91 1617 61 
Q 1341 213 1159 525 
z
M 3116 1747 
Q 3116 2381 2855 2742 
Q 2594 3103 2138 3103 
Q 1681 3103 1420 2742 
Q 1159 2381 1159 1747 
Q 1159 1113 1420 752 
Q 1681 391 2138 391 
Q 2594 391 2855 752 
Q 3116 1113 3116 1747 
z
" transform="scale(0.015625)"/>
       <path id="DejaVuSans-64" d="M 2906 2969 
L 2906 4863 
L 3481 4863 
L 3481 0 
L 2906 0 
L 2906 525 
Q 2725 213 2448 61 
Q 2172 -91 1784 -91 
Q 1150 -91 751 415 
Q 353 922 353 1747 
Q 353 2572 751 3078 
Q 1150 3584 1784 3584 
Q 2172 3584 2448 3432 
Q 2725 3281 2906 2969 
z
M 947 1747 
Q 947 1113 1208 752 
Q 1469 391 1925 391 
Q 2381 391 2643 752 
Q 2906 1113 2906 1747 
Q 2906 2381 2643 2742 
Q 2381 3103 1925 3103 
Q 1469 3103 1208 2742 
Q 947 2381 947 1747 
z
" transform="scale(0.015625)"/>
       <path id="DejaVuSans-5f" d="M 3263 -1063 
L 3263 -1509 
L -63 -1509 
L -63 -1063 
L 3263 -1063 
z
" transform="scale(0.015625)"/>
       <path id="DejaVuSans-5a" d="M 359 4666 
L 4025 4666 
L 4025 4184 
L 1075 531 
L 4097 531 
L 4097 0 
L 288 0 
L 288 481 
L 3238 4134 
L 359 4134 
L 359 4666 
z
" transform="scale(0.015625)"/>
       <path id="DejaVuSans-6f" d="M 1959 3097 
Q 1497 3097 1228 2736 
Q 959 2375 959 1747 
Q 959 1119 1226 758 
Q 1494 397 1959 397 
Q 2419 397 2687 759 
Q 2956 1122 2956 1747 
Q 2956 2369 2687 2733 
Q 2419 3097 1959 3097 
z
M 1959 3584 
Q 2709 3584 3137 3096 
Q 3566 2609 3566 1747 
Q 3566 888 3137 398 
Q 2709 -91 1959 -91 
Q 1206 -91 779 398 
Q 353 888 353 1747 
Q 353 2609 779 3096 
Q 1206 3584 1959 3584 
z
" transform="scale(0.015625)"/>
       <path id="DejaVuSans-43" d="M 4122 4306 
L 4122 3641 
Q 3803 3938 3442 4084 
Q 3081 4231 2675 4231 
Q 1875 4231 1450 3742 
Q 1025 3253 1025 2328 
Q 1025 1406 1450 917 
Q 1875 428 2675 428 
Q 3081 428 3442 575 
Q 3803 722 4122 1019 
L 4122 359 
Q 3791 134 3420 21 
Q 3050 -91 2638 -91 
Q 1578 -91 968 557 
Q 359 1206 359 2328 
Q 359 3453 968 4101 
Q 1578 4750 2638 4750 
Q 3056 4750 3426 4639 
Q 3797 4528 4122 4306 
z
" transform="scale(0.015625)"/>
       <path id="DejaVuSans-73" d="M 2834 3397 
L 2834 2853 
Q 2591 2978 2328 3040 
Q 2066 3103 1784 3103 
Q 1356 3103 1142 2972 
Q 928 2841 928 2578 
Q 928 2378 1081 2264 
Q 1234 2150 1697 2047 
L 1894 2003 
Q 2506 1872 2764 1633 
Q 3022 1394 3022 966 
Q 3022 478 2636 193 
Q 2250 -91 1575 -91 
Q 1294 -91 989 -36 
Q 684 19 347 128 
L 347 722 
Q 666 556 975 473 
Q 1284 391 1588 391 
Q 1994 391 2212 530 
Q 2431 669 2431 922 
Q 2431 1156 2273 1281 
Q 2116 1406 1581 1522 
L 1381 1569 
Q 847 1681 609 1914 
Q 372 2147 372 2553 
Q 372 3047 722 3315 
Q 1072 3584 1716 3584 
Q 2034 3584 2315 3537 
Q 2597 3491 2834 3397 
z
" transform="scale(0.015625)"/>
       <path id="DejaVuSans-52" d="M 2841 2188 
Q 3044 2119 3236 1894 
Q 3428 1669 3622 1275 
L 4263 0 
L 3584 0 
L 2988 1197 
Q 2756 1666 2539 1819 
Q 2322 1972 1947 1972 
L 1259 1972 
L 1259 0 
L 628 0 
L 628 4666 
L 2053 4666 
Q 2853 4666 3247 4331 
Q 3641 3997 3641 3322 
Q 3641 2881 3436 2590 
Q 3231 2300 2841 2188 
z
M 1259 4147 
L 1259 2491 
L 2053 2491 
Q 2509 2491 2742 2702 
Q 2975 2913 2975 3322 
Q 2975 3731 2742 3939 
Q 2509 4147 2053 4147 
L 1259 4147 
z
" transform="scale(0.015625)"/>
       <path id="DejaVuSans-61" d="M 2194 1759 
Q 1497 1759 1228 1600 
Q 959 1441 959 1056 
Q 959 750 1161 570 
Q 1363 391 1709 391 
Q 2188 391 2477 730 
Q 2766 1069 2766 1631 
L 2766 1759 
L 2194 1759 
z
M 3341 1997 
L 3341 0 
L 2766 0 
L 2766 531 
Q 2569 213 2275 61 
Q 1981 -91 1556 -91 
Q 1019 -91 701 211 
Q 384 513 384 1019 
Q 384 1609 779 1909 
Q 1175 2209 1959 2209 
L 2766 2209 
L 2766 2266 
Q 2766 2663 2505 2880 
Q 2244 3097 1772 3097 
Q 1472 3097 1187 3025 
Q 903 2953 641 2809 
L 641 3341 
Q 956 3463 1253 3523 
Q 1550 3584 1831 3584 
Q 2591 3584 2966 3190 
Q 3341 2797 3341 1997 
z
" transform="scale(0.015625)"/>
      </defs>
      <use xlink:href="#DejaVuSans-53"/>
      <use xlink:href="#DejaVuSans-74" transform="translate(63.476562 0)"/>
      <use xlink:href="#DejaVuSans-65" transform="translate(102.685547 0)"/>
      <use xlink:href="#DejaVuSans-65" transform="translate(164.208984 0)"/>
      <use xlink:href="#DejaVuSans-72" transform="translate(225.732422 0)"/>
      <use xlink:href="#DejaVuSans-69" transform="translate(266.845703 0)"/>
      <use xlink:href="#DejaVuSans-6e" transform="translate(294.628906 0)"/>
      <use xlink:href="#DejaVuSans-67" transform="translate(358.007812 0)"/>
      <use xlink:href="#DejaVuSans-53" transform="translate(421.484375 0)"/>
      <use xlink:href="#DejaVuSans-70" transform="translate(484.960938 0)"/>
      <use xlink:href="#DejaVuSans-65" transform="translate(548.4375 0)"/>
      <use xlink:href="#DejaVuSans-65" transform="translate(609.960938 0)"/>
      <use xlink:href="#DejaVuSans-64" transform="translate(671.484375 0)"/>
      <use xlink:href="#DejaVuSans-5f" transform="translate(734.960938 0)"/>
      <use xlink:href="#DejaVuSans-5a" transform="translate(784.960938 0)"/>
      <use xlink:href="#DejaVuSans-65" transform="translate(853.466797 0)"/>
      <use xlink:href="#DejaVuSans-72" transform="translate(914.990234 0)"/>
      <use xlink:href="#DejaVuSans-6f" transform="translate(953.853516 0)"/>
      <use xlink:href="#DejaVuSans-43" transform="translate(1015.035156 0)"/>
      <use xlink:href="#DejaVuSans-72" transform="translate(1084.859375 0)"/>
      <use xlink:href="#DejaVuSans-6f" transform="translate(1123.722656 0)"/>
      <use xlink:href="#DejaVuSans-73" transform="translate(1184.904297 0)"/>
      <use xlink:href="#DejaVuSans-73" transform="translate(1237.003906 0)"/>
      <use xlink:href="#DejaVuSans-69" transform="translate(1289.103516 0)"/>
      <use xlink:href="#DejaVuSans-6e" transform="translate(1316.886719 0)"/>
      <use xlink:href="#DejaVuSans-67" transform="translate(1380.265625 0)"/>
      <use xlink:href="#DejaVuSans-52" transform="translate(1443.742188 0)"/>
      <use xlink:href="#DejaVuSans-61" transform="translate(1510.974609 0)"/>
      <use xlink:href="#DejaVuSans-74" transform="translate(1572.253906 0)"/>
      <use xlink:href="#DejaVuSans-65" transform="translate(1611.462891 0)"/>
     </g>
    </g>
   </g>
   <g id="matplotlib.axis_2">
    <g id="ytick_1">
     <g id="line2d_17">
      <path d="M 57.17 245.93875 
L 416.881317 245.93875 
" clip-path="url(#p912c6d5c2a)" style="fill: none; stroke: #b0b0b0; stroke-width: 0.8; stroke-linecap: square"/>
     </g>
     <g id="line2d_18">
      <defs>
       <path id="m3e63e4e61a" d="M 0 0 
L -3.5 0 
" style="stroke: #000000; stroke-width: 0.8"/>
      </defs>
      <g>
       <use xlink:href="#m3e63e4e61a" x="57.17" y="245.93875" style="stroke: #000000; stroke-width: 0.8"/>
      </g>
     </g>
     <g id="text_10">
      <!-- 0 -->
      <g transform="translate(43.8075 249.737969) scale(0.1 -0.1)">
       <use xlink:href="#DejaVuSans-30"/>
      </g>
     </g>
    </g>
    <g id="ytick_2">
     <g id="line2d_19">
      <path d="M 57.17 214.70243 
L 416.881317 214.70243 
" clip-path="url(#p912c6d5c2a)" style="fill: none; stroke: #b0b0b0; stroke-width: 0.8; stroke-linecap: square"/>
     </g>
     <g id="line2d_20">
      <g>
       <use xlink:href="#m3e63e4e61a" x="57.17" y="214.70243" style="stroke: #000000; stroke-width: 0.8"/>
      </g>
     </g>
     <g id="text_11">
      <!-- 1000 -->
      <g transform="translate(24.72 218.501649) scale(0.1 -0.1)">
       <use xlink:href="#DejaVuSans-31"/>
       <use xlink:href="#DejaVuSans-30" transform="translate(63.623047 0)"/>
       <use xlink:href="#DejaVuSans-30" transform="translate(127.246094 0)"/>
       <use xlink:href="#DejaVuSans-30" transform="translate(190.869141 0)"/>
      </g>
     </g>
    </g>
    <g id="ytick_3">
     <g id="line2d_21">
      <path d="M 57.17 183.46611 
L 416.881317 183.46611 
" clip-path="url(#p912c6d5c2a)" style="fill: none; stroke: #b0b0b0; stroke-width: 0.8; stroke-linecap: square"/>
     </g>
     <g id="line2d_22">
      <g>
       <use xlink:href="#m3e63e4e61a" x="57.17" y="183.46611" style="stroke: #000000; stroke-width: 0.8"/>
      </g>
     </g>
     <g id="text_12">
      <!-- 2000 -->
      <g transform="translate(24.72 187.265329) scale(0.1 -0.1)">
       <use xlink:href="#DejaVuSans-32"/>
       <use xlink:href="#DejaVuSans-30" transform="translate(63.623047 0)"/>
       <use xlink:href="#DejaVuSans-30" transform="translate(127.246094 0)"/>
       <use xlink:href="#DejaVuSans-30" transform="translate(190.869141 0)"/>
      </g>
     </g>
    </g>
    <g id="ytick_4">
     <g id="line2d_23">
      <path d="M 57.17 152.22979 
L 416.881317 152.22979 
" clip-path="url(#p912c6d5c2a)" style="fill: none; stroke: #b0b0b0; stroke-width: 0.8; stroke-linecap: square"/>
     </g>
     <g id="line2d_24">
      <g>
       <use xlink:href="#m3e63e4e61a" x="57.17" y="152.22979" style="stroke: #000000; stroke-width: 0.8"/>
      </g>
     </g>
     <g id="text_13">
      <!-- 3000 -->
      <g transform="translate(24.72 156.029009) scale(0.1 -0.1)">
       <use xlink:href="#DejaVuSans-33"/>
       <use xlink:href="#DejaVuSans-30" transform="translate(63.623047 0)"/>
       <use xlink:href="#DejaVuSans-30" transform="translate(127.246094 0)"/>
       <use xlink:href="#DejaVuSans-30" transform="translate(190.869141 0)"/>
      </g>
     </g>
    </g>
    <g id="ytick_5">
     <g id="line2d_25">
      <path d="M 57.17 120.99347 
L 416.881317 120.99347 
" clip-path="url(#p912c6d5c2a)" style="fill: none; stroke: #b0b0b0; stroke-width: 0.8; stroke-linecap: square"/>
     </g>
     <g id="line2d_26">
      <g>
       <use xlink:href="#m3e63e4e61a" x="57.17" y="120.99347" style="stroke: #000000; stroke-width: 0.8"/>
      </g>
     </g>
     <g id="text_14">
      <!-- 4000 -->
      <g transform="translate(24.72 124.792689) scale(0.1 -0.1)">
       <defs>
        <path id="DejaVuSans-34" d="M 2419 4116 
L 825 1625 
L 2419 1625 
L 2419 4116 
z
M 2253 4666 
L 3047 4666 
L 3047 1625 
L 3713 1625 
L 3713 1100 
L 3047 1100 
L 3047 0 
L 2419 0 
L 2419 1100 
L 313 1100 
L 313 1709 
L 2253 4666 
z
" transform="scale(0.015625)"/>
       </defs>
       <use xlink:href="#DejaVuSans-34"/>
       <use xlink:href="#DejaVuSans-30" transform="translate(63.623047 0)"/>
       <use xlink:href="#DejaVuSans-30" transform="translate(127.246094 0)"/>
       <use xlink:href="#DejaVuSans-30" transform="translate(190.869141 0)"/>
      </g>
     </g>
    </g>
    <g id="ytick_6">
     <g id="line2d_27">
      <path d="M 57.17 89.75715 
L 416.881317 89.75715 
" clip-path="url(#p912c6d5c2a)" style="fill: none; stroke: #b0b0b0; stroke-width: 0.8; stroke-linecap: square"/>
     </g>
     <g id="line2d_28">
      <g>
       <use xlink:href="#m3e63e4e61a" x="57.17" y="89.75715" style="stroke: #000000; stroke-width: 0.8"/>
      </g>
     </g>
     <g id="text_15">
      <!-- 5000 -->
      <g transform="translate(24.72 93.556369) scale(0.1 -0.1)">
       <use xlink:href="#DejaVuSans-35"/>
       <use xlink:href="#DejaVuSans-30" transform="translate(63.623047 0)"/>
       <use xlink:href="#DejaVuSans-30" transform="translate(127.246094 0)"/>
       <use xlink:href="#DejaVuSans-30" transform="translate(190.869141 0)"/>
      </g>
     </g>
    </g>
    <g id="ytick_7">
     <g id="line2d_29">
      <path d="M 57.17 58.52083 
L 416.881317 58.52083 
" clip-path="url(#p912c6d5c2a)" style="fill: none; stroke: #b0b0b0; stroke-width: 0.8; stroke-linecap: square"/>
     </g>
     <g id="line2d_30">
      <g>
       <use xlink:href="#m3e63e4e61a" x="57.17" y="58.52083" style="stroke: #000000; stroke-width: 0.8"/>
      </g>
     </g>
     <g id="text_16">
      <!-- 6000 -->
      <g transform="translate(24.72 62.320049) scale(0.1 -0.1)">
       <defs>
        <path id="DejaVuSans-36" d="M 2113 2584 
Q 1688 2584 1439 2293 
Q 1191 2003 1191 1497 
Q 1191 994 1439 701 
Q 1688 409 2113 409 
Q 2538 409 2786 701 
Q 3034 994 3034 1497 
Q 3034 2003 2786 2293 
Q 2538 2584 2113 2584 
z
M 3366 4563 
L 3366 3988 
Q 3128 4100 2886 4159 
Q 2644 4219 2406 4219 
Q 1781 4219 1451 3797 
Q 1122 3375 1075 2522 
Q 1259 2794 1537 2939 
Q 1816 3084 2150 3084 
Q 2853 3084 3261 2657 
Q 3669 2231 3669 1497 
Q 3669 778 3244 343 
Q 2819 -91 2113 -91 
Q 1303 -91 875 529 
Q 447 1150 447 2328 
Q 447 3434 972 4092 
Q 1497 4750 2381 4750 
Q 2619 4750 2861 4703 
Q 3103 4656 3366 4563 
z
" transform="scale(0.015625)"/>
       </defs>
       <use xlink:href="#DejaVuSans-36"/>
       <use xlink:href="#DejaVuSans-30" transform="translate(63.623047 0)"/>
       <use xlink:href="#DejaVuSans-30" transform="translate(127.246094 0)"/>
       <use xlink:href="#DejaVuSans-30" transform="translate(190.869141 0)"/>
      </g>
     </g>
    </g>
    <g id="ytick_8">
     <g id="line2d_31">
      <path d="M 57.17 27.28451 
L 416.881317 27.28451 
" clip-path="url(#p912c6d5c2a)" style="fill: none; stroke: #b0b0b0; stroke-width: 0.8; stroke-linecap: square"/>
     </g>
     <g id="line2d_32">
      <g>
       <use xlink:href="#m3e63e4e61a" x="57.17" y="27.28451" style="stroke: #000000; stroke-width: 0.8"/>
      </g>
     </g>
     <g id="text_17">
      <!-- 7000 -->
      <g transform="translate(24.72 31.083729) scale(0.1 -0.1)">
       <defs>
        <path id="DejaVuSans-37" d="M 525 4666 
L 3525 4666 
L 3525 4397 
L 1831 0 
L 1172 0 
L 2766 4134 
L 525 4134 
L 525 4666 
z
" transform="scale(0.015625)"/>
       </defs>
       <use xlink:href="#DejaVuSans-37"/>
       <use xlink:href="#DejaVuSans-30" transform="translate(63.623047 0)"/>
       <use xlink:href="#DejaVuSans-30" transform="translate(127.246094 0)"/>
       <use xlink:href="#DejaVuSans-30" transform="translate(190.869141 0)"/>
      </g>
     </g>
    </g>
    <g id="text_18">
     <!-- Count -->
     <g transform="translate(18.640313 151.257812) rotate(-90) scale(0.1 -0.1)">
      <defs>
       <path id="DejaVuSans-75" d="M 544 1381 
L 544 3500 
L 1119 3500 
L 1119 1403 
Q 1119 906 1312 657 
Q 1506 409 1894 409 
Q 2359 409 2629 706 
Q 2900 1003 2900 1516 
L 2900 3500 
L 3475 3500 
L 3475 0 
L 2900 0 
L 2900 538 
Q 2691 219 2414 64 
Q 2138 -91 1772 -91 
Q 1169 -91 856 284 
Q 544 659 544 1381 
z
M 1991 3584 
L 1991 3584 
z
" transform="scale(0.015625)"/>
      </defs>
      <use xlink:href="#DejaVuSans-43"/>
      <use xlink:href="#DejaVuSans-6f" transform="translate(69.824219 0)"/>
      <use xlink:href="#DejaVuSans-75" transform="translate(131.005859 0)"/>
      <use xlink:href="#DejaVuSans-6e" transform="translate(194.384766 0)"/>
      <use xlink:href="#DejaVuSans-74" transform="translate(257.763672 0)"/>
     </g>
    </g>
   </g>
   <g id="patch_53">
    <path d="M 57.17 245.93875 
L 57.17 26.88 
" style="fill: none; stroke: #000000; stroke-width: 0.8; stroke-linejoin: miter; stroke-linecap: square"/>
   </g>
   <g id="patch_54">
    <path d="M 416.881317 245.93875 
L 416.881317 26.88 
" style="fill: none; stroke: #000000; stroke-width: 0.8; stroke-linejoin: miter; stroke-linecap: square"/>
   </g>
   <g id="patch_55">
    <path d="M 57.17 245.93875 
L 416.881317 245.93875 
" style="fill: none; stroke: #000000; stroke-width: 0.8; stroke-linejoin: miter; stroke-linecap: square"/>
   </g>
   <g id="patch_56">
    <path d="M 57.17 26.88 
L 416.881317 26.88 
" style="fill: none; stroke: #000000; stroke-width: 0.8; stroke-linejoin: miter; stroke-linecap: square"/>
   </g>
   <g id="text_19">
    <!-- SteeringSpeed_ZeroCrossingRate -->
    <g transform="translate(136.642846 20.88) scale(0.12 -0.12)">
     <use xlink:href="#DejaVuSans-53"/>
     <use xlink:href="#DejaVuSans-74" transform="translate(63.476562 0)"/>
     <use xlink:href="#DejaVuSans-65" transform="translate(102.685547 0)"/>
     <use xlink:href="#DejaVuSans-65" transform="translate(164.208984 0)"/>
     <use xlink:href="#DejaVuSans-72" transform="translate(225.732422 0)"/>
     <use xlink:href="#DejaVuSans-69" transform="translate(266.845703 0)"/>
     <use xlink:href="#DejaVuSans-6e" transform="translate(294.628906 0)"/>
     <use xlink:href="#DejaVuSans-67" transform="translate(358.007812 0)"/>
     <use xlink:href="#DejaVuSans-53" transform="translate(421.484375 0)"/>
     <use xlink:href="#DejaVuSans-70" transform="translate(484.960938 0)"/>
     <use xlink:href="#DejaVuSans-65" transform="translate(548.4375 0)"/>
     <use xlink:href="#DejaVuSans-65" transform="translate(609.960938 0)"/>
     <use xlink:href="#DejaVuSans-64" transform="translate(671.484375 0)"/>
     <use xlink:href="#DejaVuSans-5f" transform="translate(734.960938 0)"/>
     <use xlink:href="#DejaVuSans-5a" transform="translate(784.960938 0)"/>
     <use xlink:href="#DejaVuSans-65" transform="translate(853.466797 0)"/>
     <use xlink:href="#DejaVuSans-72" transform="translate(914.990234 0)"/>
     <use xlink:href="#DejaVuSans-6f" transform="translate(953.853516 0)"/>
     <use xlink:href="#DejaVuSans-43" transform="translate(1015.035156 0)"/>
     <use xlink:href="#DejaVuSans-72" transform="translate(1084.859375 0)"/>
     <use xlink:href="#DejaVuSans-6f" transform="translate(1123.722656 0)"/>
     <use xlink:href="#DejaVuSans-73" transform="translate(1184.904297 0)"/>
     <use xlink:href="#DejaVuSans-73" transform="translate(1237.003906 0)"/>
     <use xlink:href="#DejaVuSans-69" transform="translate(1289.103516 0)"/>
     <use xlink:href="#DejaVuSans-6e" transform="translate(1316.886719 0)"/>
     <use xlink:href="#DejaVuSans-67" transform="translate(1380.265625 0)"/>
     <use xlink:href="#DejaVuSans-52" transform="translate(1443.742188 0)"/>
     <use xlink:href="#DejaVuSans-61" transform="translate(1510.974609 0)"/>
     <use xlink:href="#DejaVuSans-74" transform="translate(1572.253906 0)"/>
     <use xlink:href="#DejaVuSans-65" transform="translate(1611.462891 0)"/>
    </g>
   </g>
  </g>
 </g>
 <defs>
  <clipPath id="p912c6d5c2a">
   <rect x="57.17" y="26.88" width="359.711317" height="219.05875"/>
  </clipPath>
 </defs>
</svg>
